G04*
G04 #@! TF.GenerationSoftware,Altium Limited,Altium Designer,19.0.12 (326)*
G04*
G04 Layer_Color=16711935*
%FSLAX25Y25*%
%MOIN*%
G70*
G01*
G75*
%ADD16R,0.07191X0.07191*%
%ADD17C,0.07191*%
%ADD18C,0.04922*%
%ADD19R,0.04922X0.04922*%
%ADD20C,0.11614*%
%ADD21C,0.07284*%
%ADD22C,0.05591*%
%ADD23C,0.05709*%
%ADD24C,0.04213*%
%ADD25R,0.04922X0.04922*%
%ADD26C,0.08859*%
%ADD27C,0.09252*%
%ADD28C,0.15355*%
%ADD29R,0.06103X0.06103*%
%ADD30C,0.06103*%
%ADD31R,0.05315X0.05315*%
%ADD32C,0.05315*%
%ADD33R,0.05315X0.05315*%
%ADD34C,0.06890*%
%ADD35C,0.03591*%
%ADD36C,0.04291*%
D16*
X191500Y42500D02*
D03*
D17*
Y32500D02*
D03*
X315000Y38500D02*
D03*
Y28500D02*
D03*
Y48500D02*
D03*
X260000Y284500D02*
D03*
X270000D02*
D03*
X250000D02*
D03*
X346315Y298000D02*
D03*
X356315D02*
D03*
X336315D02*
D03*
X291000Y183000D02*
D03*
Y173000D02*
D03*
Y153000D02*
D03*
Y163000D02*
D03*
Y193000D02*
D03*
X275500Y183000D02*
D03*
Y173000D02*
D03*
Y153000D02*
D03*
Y163000D02*
D03*
Y193000D02*
D03*
X291000Y78915D02*
D03*
Y88915D02*
D03*
Y108915D02*
D03*
Y98915D02*
D03*
Y68915D02*
D03*
X275500Y78915D02*
D03*
Y88915D02*
D03*
Y108915D02*
D03*
Y98915D02*
D03*
Y68915D02*
D03*
X291000Y246000D02*
D03*
Y236000D02*
D03*
Y216000D02*
D03*
Y226000D02*
D03*
Y256000D02*
D03*
X275500Y246000D02*
D03*
Y236000D02*
D03*
Y216000D02*
D03*
Y226000D02*
D03*
Y256000D02*
D03*
X315500Y139685D02*
D03*
Y149685D02*
D03*
Y129685D02*
D03*
Y194685D02*
D03*
Y204685D02*
D03*
Y184685D02*
D03*
Y250315D02*
D03*
Y260315D02*
D03*
Y240315D02*
D03*
X372500Y38500D02*
D03*
Y28500D02*
D03*
Y61000D02*
D03*
Y51000D02*
D03*
Y83500D02*
D03*
Y73500D02*
D03*
X164449Y117000D02*
D03*
X174449D02*
D03*
X154449D02*
D03*
X196600D02*
D03*
X206600D02*
D03*
X186600D02*
D03*
D18*
X141500Y111000D02*
D03*
X328000Y28500D02*
D03*
X358000D02*
D03*
X328000Y38500D02*
D03*
X358000D02*
D03*
X328000Y48500D02*
D03*
X358000D02*
D03*
X189610Y288494D02*
D03*
X176000Y103000D02*
D03*
X206000D02*
D03*
Y57800D02*
D03*
Y87800D02*
D03*
X147000Y26000D02*
D03*
X111000Y151000D02*
D03*
Y121000D02*
D03*
X161000Y161000D02*
D03*
Y191000D02*
D03*
X151000Y161000D02*
D03*
Y191000D02*
D03*
X141000Y161000D02*
D03*
Y191000D02*
D03*
X131000Y161000D02*
D03*
Y191000D02*
D03*
X121000D02*
D03*
Y161000D02*
D03*
X111000D02*
D03*
Y191000D02*
D03*
X101000Y161000D02*
D03*
Y191000D02*
D03*
X111000Y50200D02*
D03*
Y80200D02*
D03*
X51000Y111000D02*
D03*
Y141000D02*
D03*
X41000D02*
D03*
Y111000D02*
D03*
X51000Y151000D02*
D03*
Y181000D02*
D03*
X41000D02*
D03*
Y151000D02*
D03*
X91000Y266000D02*
D03*
X61000D02*
D03*
Y256000D02*
D03*
X91000D02*
D03*
X61000Y246000D02*
D03*
X91000D02*
D03*
Y236000D02*
D03*
X61000D02*
D03*
D19*
X141500Y103120D02*
D03*
X147000Y33880D02*
D03*
D20*
X360032Y158386D02*
D03*
Y120984D02*
D03*
Y213386D02*
D03*
Y175984D02*
D03*
Y269016D02*
D03*
Y231614D02*
D03*
X49902Y257122D02*
D03*
X12500D02*
D03*
X138902D02*
D03*
X101500D02*
D03*
D21*
X332472Y129642D02*
D03*
Y139685D02*
D03*
Y149728D02*
D03*
Y184643D02*
D03*
Y194685D02*
D03*
Y204728D02*
D03*
Y240272D02*
D03*
Y250315D02*
D03*
Y260357D02*
D03*
X21158Y229563D02*
D03*
X31201D02*
D03*
X41243D02*
D03*
X110158D02*
D03*
X120201D02*
D03*
X130243D02*
D03*
D22*
X256896Y39000D02*
D03*
X236896D02*
D03*
X226896D02*
D03*
X246896D02*
D03*
X256896Y9000D02*
D03*
X246896D02*
D03*
X226896D02*
D03*
X236896D02*
D03*
X91000Y121000D02*
D03*
Y131000D02*
D03*
Y181000D02*
D03*
X61000D02*
D03*
X91000Y141000D02*
D03*
Y151000D02*
D03*
Y171000D02*
D03*
Y161000D02*
D03*
X61000Y171000D02*
D03*
Y161000D02*
D03*
Y151000D02*
D03*
Y141000D02*
D03*
Y131000D02*
D03*
Y121000D02*
D03*
D23*
X215500Y39000D02*
D03*
Y19000D02*
D03*
X256500Y78915D02*
D03*
Y98915D02*
D03*
X227000D02*
D03*
Y78915D02*
D03*
X171600Y11500D02*
D03*
Y31500D02*
D03*
X136500Y43500D02*
D03*
X156500D02*
D03*
X242500Y157500D02*
D03*
Y177500D02*
D03*
X213000D02*
D03*
Y157500D02*
D03*
X242500Y220500D02*
D03*
Y240500D02*
D03*
X213500D02*
D03*
Y220500D02*
D03*
X121000Y151000D02*
D03*
Y131000D02*
D03*
X101000D02*
D03*
Y151000D02*
D03*
X151000Y201000D02*
D03*
X131000D02*
D03*
X121000Y55142D02*
D03*
Y75142D02*
D03*
X31000Y135000D02*
D03*
Y115000D02*
D03*
X21200Y216000D02*
D03*
X41200D02*
D03*
D24*
X171500Y42531D02*
D03*
X177831D02*
D03*
D25*
X203390Y288494D02*
D03*
D26*
X164449Y324000D02*
D03*
X100551D02*
D03*
X164449Y374000D02*
D03*
X100551D02*
D03*
X164449Y349000D02*
D03*
X100551D02*
D03*
X75449Y324000D02*
D03*
X11551D02*
D03*
X75449Y374000D02*
D03*
X11551D02*
D03*
X75449Y349000D02*
D03*
X11551D02*
D03*
X292000Y324000D02*
D03*
X228102D02*
D03*
X292000Y374000D02*
D03*
X228102D02*
D03*
X292000Y349000D02*
D03*
X228102D02*
D03*
D27*
X316787Y340598D02*
D03*
X346315D02*
D03*
X375842D02*
D03*
X326630Y378000D02*
D03*
X366000D02*
D03*
Y330756D02*
D03*
X326630D02*
D03*
D28*
X196500Y336378D02*
D03*
Y360000D02*
D03*
D29*
X210500Y314500D02*
D03*
D30*
X182500D02*
D03*
X110900Y111223D02*
D03*
Y91223D02*
D03*
X94500Y55542D02*
D03*
Y75542D02*
D03*
X24500Y181000D02*
D03*
Y161000D02*
D03*
X84300Y220000D02*
D03*
Y200000D02*
D03*
X58800Y220000D02*
D03*
Y200000D02*
D03*
D31*
X243000Y114915D02*
D03*
D32*
X253000D02*
D03*
X243000Y78915D02*
D03*
Y88915D02*
D03*
Y98915D02*
D03*
Y59415D02*
D03*
X226500Y177500D02*
D03*
Y167500D02*
D03*
Y157500D02*
D03*
X258500Y163000D02*
D03*
X197000Y173000D02*
D03*
X226500Y240500D02*
D03*
Y230500D02*
D03*
Y220500D02*
D03*
X258500Y226000D02*
D03*
X197500Y236000D02*
D03*
X161000Y141000D02*
D03*
X111000Y211000D02*
D03*
D33*
X243000Y69415D02*
D03*
X258500Y173000D02*
D03*
X197000Y163000D02*
D03*
X258500Y236000D02*
D03*
X197500Y226000D02*
D03*
X161000Y151000D02*
D03*
X111000Y201000D02*
D03*
D34*
X358000Y84900D02*
D03*
X328000Y85000D02*
D03*
X358000Y74900D02*
D03*
Y64900D02*
D03*
X328000Y74900D02*
D03*
Y64900D02*
D03*
D35*
X146625Y207600D02*
D03*
X146559Y264505D02*
D03*
X146625Y233000D02*
D03*
X199000Y100885D02*
D03*
X177500Y108500D02*
D03*
X159500Y108263D02*
D03*
X63708Y227500D02*
D03*
X353000Y70000D02*
D03*
X345500Y84000D02*
D03*
X364725Y33880D02*
D03*
X322500Y43427D02*
D03*
X337000Y37437D02*
D03*
X349000Y51500D02*
D03*
X337000Y77081D02*
D03*
X102496Y80600D02*
D03*
X184000Y47500D02*
D03*
X161525Y62500D02*
D03*
X162000Y73549D02*
D03*
X146625Y84000D02*
D03*
X233500Y183615D02*
D03*
X205000Y156881D02*
D03*
X68972Y131400D02*
D03*
X31877Y186000D02*
D03*
Y156800D02*
D03*
X173000Y232612D02*
D03*
X184000Y232838D02*
D03*
X173000Y207600D02*
D03*
X184000D02*
D03*
X173000Y182200D02*
D03*
X184000D02*
D03*
X173000Y156800D02*
D03*
X184000D02*
D03*
X222000Y137853D02*
D03*
Y126000D02*
D03*
X200181Y45500D02*
D03*
X214000Y55210D02*
D03*
X42500Y123991D02*
D03*
X56000Y136237D02*
D03*
X55500Y189863D02*
D03*
X77000D02*
D03*
X118410Y196500D02*
D03*
X105024D02*
D03*
X155000Y156800D02*
D03*
X95640Y136000D02*
D03*
X132500Y149739D02*
D03*
X115942Y146000D02*
D03*
X95640Y145497D02*
D03*
X106219Y156500D02*
D03*
X116000Y155806D02*
D03*
X95640Y156500D02*
D03*
X85228Y175500D02*
D03*
X68972Y167925D02*
D03*
Y151000D02*
D03*
X67500Y250780D02*
D03*
X96000Y240674D02*
D03*
X114500Y247500D02*
D03*
Y236773D02*
D03*
X49902Y240000D02*
D03*
X161525Y47500D02*
D03*
X148500Y47610D02*
D03*
X235332Y73749D02*
D03*
Y84000D02*
D03*
X214000Y73749D02*
D03*
Y84000D02*
D03*
X309200Y309200D02*
D03*
X156800Y283800D02*
D03*
Y360000D02*
D03*
X29800Y207600D02*
D03*
X233000Y106000D02*
D03*
X156800Y334600D02*
D03*
X131400Y385400D02*
D03*
X55200Y283800D02*
D03*
Y385400D02*
D03*
X29800Y29800D02*
D03*
X283800Y106000D02*
D03*
X233000Y334600D02*
D03*
X80600Y29800D02*
D03*
X156800Y131400D02*
D03*
X131400Y309200D02*
D03*
X258400Y258400D02*
D03*
X309200Y334600D02*
D03*
X131400Y80600D02*
D03*
X283800Y55200D02*
D03*
X385400Y334600D02*
D03*
X80600Y4400D02*
D03*
X29800Y360000D02*
D03*
X385400D02*
D03*
X4400Y207600D02*
D03*
X29800Y334600D02*
D03*
X80600Y385400D02*
D03*
X207600D02*
D03*
X233000Y55200D02*
D03*
X4400Y4400D02*
D03*
Y283800D02*
D03*
X283800Y4400D02*
D03*
X29800Y283800D02*
D03*
X182200Y131400D02*
D03*
X385400Y80600D02*
D03*
X360000Y4400D02*
D03*
X233000Y385400D02*
D03*
X385400Y156800D02*
D03*
X4400Y106000D02*
D03*
X360000D02*
D03*
X258400Y156800D02*
D03*
X182200Y258400D02*
D03*
X283800Y131400D02*
D03*
X55200Y360000D02*
D03*
X309200Y385400D02*
D03*
X258400Y131400D02*
D03*
X131400Y360000D02*
D03*
X55200Y29800D02*
D03*
X309200Y106000D02*
D03*
X106000Y207600D02*
D03*
X258400Y55200D02*
D03*
X131400Y283800D02*
D03*
X4400Y131400D02*
D03*
X233000Y207600D02*
D03*
X207600Y258400D02*
D03*
X156800Y207600D02*
D03*
X283800Y360000D02*
D03*
X309200Y207600D02*
D03*
Y80600D02*
D03*
X207600Y182200D02*
D03*
X29800Y258400D02*
D03*
X55200Y80600D02*
D03*
X131400Y334600D02*
D03*
X309200Y182200D02*
D03*
X29800Y309200D02*
D03*
X258400Y207600D02*
D03*
Y29800D02*
D03*
X4400Y182200D02*
D03*
Y334600D02*
D03*
X80600Y106000D02*
D03*
X156800Y182200D02*
D03*
X80600Y283800D02*
D03*
X29800Y385400D02*
D03*
X334600Y334600D02*
D03*
X80600Y258400D02*
D03*
X385400Y131400D02*
D03*
X131400Y207600D02*
D03*
X385400Y309200D02*
D03*
X360000Y360000D02*
D03*
X283800Y309200D02*
D03*
X309200Y283800D02*
D03*
X385400Y258400D02*
D03*
X156800Y385400D02*
D03*
X207600Y29800D02*
D03*
X233000Y283800D02*
D03*
X156800Y309200D02*
D03*
X182200Y283800D02*
D03*
X283800Y385400D02*
D03*
X360000Y283800D02*
D03*
X258400Y334600D02*
D03*
X283800Y156800D02*
D03*
X4400Y233000D02*
D03*
Y360000D02*
D03*
Y80600D02*
D03*
X258400Y182200D02*
D03*
X4400Y29800D02*
D03*
X258400Y385400D02*
D03*
X309200Y4400D02*
D03*
X106000Y55200D02*
D03*
X55200D02*
D03*
X233000Y29800D02*
D03*
X131400Y4400D02*
D03*
X106000Y385400D02*
D03*
X385400D02*
D03*
X106000Y182200D02*
D03*
X131400Y29800D02*
D03*
X385400Y4400D02*
D03*
X4400Y385400D02*
D03*
X80600Y360000D02*
D03*
Y207600D02*
D03*
X283800Y283800D02*
D03*
X182200Y29800D02*
D03*
X131400Y182200D02*
D03*
X80600Y55200D02*
D03*
X309200D02*
D03*
X55200Y309200D02*
D03*
X156800Y233000D02*
D03*
X334600Y4400D02*
D03*
X233000Y258400D02*
D03*
X283800Y233000D02*
D03*
X4400Y156800D02*
D03*
X334600Y233000D02*
D03*
X283800Y334600D02*
D03*
X309200Y258400D02*
D03*
X182200Y385400D02*
D03*
X156800Y258400D02*
D03*
Y29800D02*
D03*
X106000Y360000D02*
D03*
X207600Y4400D02*
D03*
X29800Y80600D02*
D03*
X360000Y385400D02*
D03*
X334600Y309200D02*
D03*
X80600Y80600D02*
D03*
X29800Y106000D02*
D03*
X55200D02*
D03*
X283800Y29800D02*
D03*
X334600Y106000D02*
D03*
X156800Y4400D02*
D03*
X385400Y207600D02*
D03*
X106000Y4400D02*
D03*
X334600Y360000D02*
D03*
X106000Y29800D02*
D03*
X233000Y233000D02*
D03*
X29800Y55200D02*
D03*
X283800Y258400D02*
D03*
X131400Y131400D02*
D03*
X385400Y29800D02*
D03*
X55200Y4400D02*
D03*
X182200Y360000D02*
D03*
X283800Y207600D02*
D03*
X207600D02*
D03*
X80600Y131400D02*
D03*
X385400Y106000D02*
D03*
X334600Y156800D02*
D03*
X80600Y334600D02*
D03*
X4400Y309200D02*
D03*
X182200Y334600D02*
D03*
X309200Y156800D02*
D03*
X80600Y233000D02*
D03*
X309200Y360000D02*
D03*
X233000Y309200D02*
D03*
Y360000D02*
D03*
X29800Y4400D02*
D03*
X55200Y207600D02*
D03*
Y156800D02*
D03*
X258400Y360000D02*
D03*
X360000Y131400D02*
D03*
X283800Y182200D02*
D03*
X106000Y334600D02*
D03*
X131400Y106000D02*
D03*
X4400Y55200D02*
D03*
X385400Y233000D02*
D03*
X360000Y258400D02*
D03*
X182200Y4400D02*
D03*
X385400Y55200D02*
D03*
X258400Y106000D02*
D03*
X233000Y156800D02*
D03*
X385400Y182200D02*
D03*
X334600Y283800D02*
D03*
X207600Y233000D02*
D03*
X55200Y334600D02*
D03*
X106000Y283800D02*
D03*
X334600Y385400D02*
D03*
X309200Y131400D02*
D03*
X106000Y309200D02*
D03*
X283800Y80600D02*
D03*
X309200Y233000D02*
D03*
X80600Y309200D02*
D03*
X4400Y258400D02*
D03*
X106000Y106000D02*
D03*
X385400Y283800D02*
D03*
X360000Y309200D02*
D03*
X191500Y73749D02*
D03*
Y84000D02*
D03*
X176517Y73549D02*
D03*
X162000Y84000D02*
D03*
X146500Y62500D02*
D03*
X186500D02*
D03*
X181500D02*
D03*
X176517Y84000D02*
D03*
X151525Y98915D02*
D03*
X146600D02*
D03*
X151525Y84000D02*
D03*
D36*
X156580Y78915D02*
D03*
M02*
