M48
;Layer_Color=9474304
;FILE_FORMAT=2:5
INCH,TZ
;TYPE=PLATED
T1F00S00C0.01575
T2F00S00C0.01700
T3F00S00C0.01800
T4F00S00C0.01969
T5F00S00C0.02362
T6F00S00C0.02500
T7F00S00C0.02756
T8F00S00C0.03200
T9F00S00C0.03543
T10F00S00C0.03937
T11F00S00C0.05512
T12F00S00C0.05906
T13F00S00C0.08268
T14F00S00C0.09843
%
T01
X111000Y50200
X147000Y33880
Y26000
X328000Y28500
Y38500
Y48500
X358000
Y38500
Y28500
X206000Y57800
Y87800
Y103000
X176000
X141500Y103120
Y111000
X111000Y121000
Y151000
Y161000
X121000
X131000
X141000
X151000
X161000
Y191000
X151000
X141000
X131000
X121000
X111000
X101000
Y161000
X111000Y80200
X51000Y111000
X41000
Y141000
X51000
Y151000
X41000
Y181000
X51000
X61000Y236000
Y246000
Y256000
Y266000
X91000
Y256000
Y246000
Y236000
X189610Y288494
X203390
T02
X171500Y42531
X177831
T03
X4400Y4400
Y29800
X29800
X55200
Y4400
X29800
X80600
Y29800
X106000
X131400
Y4400
X156800
Y29800
X161525Y47500
X148500Y47610
X184000Y47500
X200181Y45500
X207600Y29800
X182200
Y4400
X207600
X106000
X233000Y29800
X258400
X283800
Y4400
X309200
X334600
X360000
X364725Y33880
X337000Y37437
X322500Y43427
X385400Y29800
Y4400
Y55200
Y80600
Y106000
Y131400
Y156800
Y182200
X309200
Y156800
X283800
X258400
Y131400
X283800
Y106000
X309200
Y80600
Y55200
X283800
X258400
X233000
X214000Y55210
Y73749
Y84000
X235332
Y73749
X233000Y106000
X258400
X283800Y80600
X337000Y77081
X345500Y84000
X353000Y70000
X349000Y51500
X360000Y106000
X334600
Y156800
X360000Y131400
X309200
X283800Y182200
X258400
X233500Y183615
X233000Y156800
X222000Y137853
Y126000
X182200Y131400
X156800
X131400
X132500Y149739
X115942Y146000
X116000Y155806
X106219Y156500
X95640
Y145497
Y136000
X80600Y131400
X68972
Y151000
Y167925
X85228Y175500
X77000Y189863
X105024Y196500
X118410
X106000Y182200
X131400
X156800
X173000
X184000
X207600
X205000Y156881
X184000Y156800
X173000
X155000
X159500Y108263
X151525Y98915
X146600
X146625Y84000
X151525
X162000
Y73549
X161525Y62500
X146500
X131400Y80600
Y106000
X106000
X80600
Y80600
X102496
X106000Y55200
X80600
X181500Y62500
X186500
X191500Y73749
Y84000
X176517
Y73549
X177500Y108500
X199000Y100885
X55200Y106000
Y80600
Y55200
X29800
Y80600
X4400
Y106000
Y131400
Y156800
Y182200
X31877Y186000
X55500Y189863
X55200Y156800
X56000Y136237
X42500Y123991
X29800Y106000
X31877Y156800
X4400Y55200
Y207600
X29800
X55200
X49902Y240000
X29800Y258400
Y283800
X55200
Y309200
X29800
Y334600
Y360000
X55200
Y334600
X4400
Y360000
Y309200
Y283800
Y258400
Y233000
X63708Y227500
X80600Y233000
X96000Y240674
X114500Y236773
Y247500
X80600Y258400
X67500Y250780
X80600Y283800
X106000
X131400
X156800
Y309200
Y334600
Y360000
X131400
Y334600
Y309200
X106000
Y334600
Y360000
X80600
Y334600
Y309200
Y207600
X106000
X131400
X146625
X156800
X173000
X184000
X207600
Y233000
X184000Y232838
X173000Y232612
X156800Y233000
X146625
X146559Y264505
X156800Y258400
X182200
X207600
X182200Y283800
Y334600
Y360000
X233000
Y334600
X258400
X283800
X309200
Y309200
X283800
Y283800
X309200
Y258400
X283800
X258400
X233000
Y283800
Y309200
Y233000
Y207600
X258400
X283800
X309200
Y233000
X283800
X334600
X360000Y258400
Y283800
X334600
Y309200
Y334600
Y360000
X360000
X309200
X283800
X258400
X360000Y309200
X385400
Y334600
Y360000
Y283800
Y258400
Y233000
Y207600
Y385400
X360000
X334600
X309200
X283800
X258400
X233000
X207600
X182200
X156800
X131400
X106000
X80600
X55200
X29800
X4400
T04
X243000Y59415
Y69415
Y78915
Y88915
Y98915
Y114915
X253000
X258500Y163000
Y173000
X226500Y177500
Y167500
Y157500
X197000Y163000
Y173000
X161000Y151000
Y141000
X111000Y201000
Y211000
X197500Y226000
Y236000
X226500Y240500
Y230500
Y220500
X258500Y226000
Y236000
T05
X136500Y43500
X156500
X171600Y31500
Y11500
X215500Y19000
Y39000
X227000Y78915
Y98915
X256500
Y78915
X242500Y157500
Y177500
X213000
Y157500
X121000Y151000
Y131000
X101000
Y151000
X131000Y201000
X151000
X121000Y75142
Y55142
X31000Y115000
Y135000
X21200Y216000
X41200
X213500Y220500
Y240500
X242500
Y220500
T06
X156580Y78915
T07
X94500Y55542
Y75542
X110900Y91223
Y111223
X84300Y200000
X58800
X24500Y181000
Y161000
X58800Y220000
X84300
X182500Y314500
X210500
T08
X226896Y9000
X236896
X246896
X256896
Y39000
X246896
X236896
X226896
X91000Y121000
Y131000
Y141000
Y151000
Y161000
Y171000
Y181000
X61000
Y171000
Y161000
Y151000
Y141000
Y131000
Y121000
T09
X191500Y32500
Y42500
X315000Y38500
Y28500
Y48500
X372500Y51000
Y38500
Y28500
Y61000
Y73500
Y83500
X358000Y84900
Y74900
Y64900
X328000
Y74900
Y85000
X291000Y88915
Y78915
Y68915
X275500
Y78915
Y88915
Y98915
Y108915
X291000
Y98915
Y153000
Y163000
Y173000
Y183000
Y193000
X275500
Y183000
Y173000
Y163000
Y153000
X315500Y149685
Y139685
Y129685
Y184685
Y194685
Y204685
X206600Y117000
X196600
X186600
X174449
X164449
X154449
X275500Y216000
Y226000
Y236000
Y246000
Y256000
X291000
Y246000
Y236000
Y226000
Y216000
X315500Y240315
Y250315
Y260315
X336315Y298000
X346315
X356315
X270000Y284500
X260000
X250000
T10
X332472Y129642
Y139685
Y149728
Y184643
Y194685
Y204728
X41243Y229563
X31201
X21158
X110158
X120201
X130243
X332472Y240272
Y250315
Y260357
T11
X11551Y324000
Y349000
X75449
Y324000
X100551
Y349000
X164449
Y324000
X228102
Y349000
X292000
Y324000
Y374000
X228102
X164449
X100551
X75449
X11551
T12
X316787Y340598
X326630Y330756
X346315Y340598
X366000Y330756
X375842Y340598
X366000Y378000
X326630
T13
X360032Y120984
Y158386
Y175984
X49902Y257122
X12500
X101500
X138902
X360032Y269016
Y231614
Y213386
T14
X196500Y336378
Y360000
M30
