G04*
G04 #@! TF.GenerationSoftware,Altium Limited,Altium Designer,19.0.12 (326)*
G04*
G04 Layer_Physical_Order=2*
G04 Layer_Color=16711680*
%FSLAX25Y25*%
%MOIN*%
G70*
G01*
G75*
%ADD12C,0.01000*%
%ADD38C,0.02400*%
%ADD39C,0.03200*%
%ADD40R,0.06600X0.06600*%
%ADD41C,0.06600*%
%ADD42C,0.04331*%
%ADD43R,0.04331X0.04331*%
%ADD44C,0.11024*%
%ADD45C,0.06693*%
%ADD46C,0.05000*%
%ADD47C,0.05118*%
%ADD48C,0.03622*%
%ADD49R,0.04331X0.04331*%
%ADD50C,0.08268*%
%ADD51C,0.08661*%
%ADD52C,0.14765*%
%ADD53R,0.05512X0.05512*%
%ADD54C,0.05512*%
%ADD55R,0.04724X0.04724*%
%ADD56C,0.04724*%
%ADD57R,0.04724X0.04724*%
%ADD58C,0.06299*%
%ADD59C,0.03000*%
%ADD60C,0.03700*%
G36*
X388234Y1529D02*
X1529D01*
Y388234D01*
X388234D01*
Y1529D01*
D02*
G37*
%LPC*%
G36*
X100951Y378722D02*
Y374400D01*
X105273D01*
X105163Y375236D01*
X104686Y376387D01*
X103927Y377376D01*
X102938Y378135D01*
X101787Y378612D01*
X100951Y378722D01*
D02*
G37*
G36*
X11951D02*
Y374400D01*
X16273D01*
X16163Y375236D01*
X15686Y376387D01*
X14927Y377376D01*
X13938Y378135D01*
X12787Y378612D01*
X11951Y378722D01*
D02*
G37*
G36*
X100151D02*
X99315Y378612D01*
X98164Y378135D01*
X97175Y377376D01*
X96416Y376387D01*
X95939Y375236D01*
X95829Y374400D01*
X100151D01*
Y378722D01*
D02*
G37*
G36*
X11151D02*
X10315Y378612D01*
X9164Y378135D01*
X8175Y377376D01*
X7416Y376387D01*
X6939Y375236D01*
X6829Y374400D01*
X11151D01*
Y378722D01*
D02*
G37*
G36*
X366000Y383175D02*
X364661Y382999D01*
X363412Y382482D01*
X362341Y381659D01*
X361518Y380588D01*
X361001Y379339D01*
X360825Y378000D01*
X361001Y376661D01*
X361518Y375413D01*
X362341Y374341D01*
X363412Y373518D01*
X364661Y373001D01*
X366000Y372825D01*
X367339Y373001D01*
X368587Y373518D01*
X369659Y374341D01*
X370482Y375413D01*
X370999Y376661D01*
X371175Y378000D01*
X370999Y379339D01*
X370482Y380588D01*
X369659Y381659D01*
X368587Y382482D01*
X367339Y382999D01*
X366000Y383175D01*
D02*
G37*
G36*
X326630D02*
X325290Y382999D01*
X324042Y382482D01*
X322971Y381659D01*
X322148Y380588D01*
X321631Y379339D01*
X321455Y378000D01*
X321631Y376661D01*
X322148Y375413D01*
X322971Y374341D01*
X324042Y373518D01*
X325290Y373001D01*
X326630Y372825D01*
X327969Y373001D01*
X329217Y373518D01*
X330289Y374341D01*
X331112Y375413D01*
X331629Y376661D01*
X331805Y378000D01*
X331629Y379339D01*
X331112Y380588D01*
X330289Y381659D01*
X329217Y382482D01*
X327969Y382999D01*
X326630Y383175D01*
D02*
G37*
G36*
X105273Y373600D02*
X100951D01*
Y369278D01*
X101787Y369388D01*
X102938Y369865D01*
X103927Y370624D01*
X104686Y371613D01*
X105163Y372764D01*
X105273Y373600D01*
D02*
G37*
G36*
X16273D02*
X11951D01*
Y369278D01*
X12787Y369388D01*
X13938Y369865D01*
X14927Y370624D01*
X15686Y371613D01*
X16163Y372764D01*
X16273Y373600D01*
D02*
G37*
G36*
X11151D02*
X6829D01*
X6939Y372764D01*
X7416Y371613D01*
X8175Y370624D01*
X9164Y369865D01*
X10315Y369388D01*
X11151Y369278D01*
Y373600D01*
D02*
G37*
G36*
X100151D02*
X95829D01*
X95939Y372764D01*
X96416Y371613D01*
X97175Y370624D01*
X98164Y369865D01*
X99315Y369388D01*
X100151Y369278D01*
Y373600D01*
D02*
G37*
G36*
X292000Y378977D02*
X290712Y378807D01*
X289512Y378310D01*
X288481Y377519D01*
X287690Y376488D01*
X287193Y375288D01*
X287023Y374000D01*
X287193Y372712D01*
X287690Y371512D01*
X288481Y370481D01*
X289512Y369690D01*
X290712Y369193D01*
X292000Y369023D01*
X293288Y369193D01*
X294488Y369690D01*
X295519Y370481D01*
X296310Y371512D01*
X296807Y372712D01*
X296977Y374000D01*
X296807Y375288D01*
X296310Y376488D01*
X295519Y377519D01*
X294488Y378310D01*
X293288Y378807D01*
X292000Y378977D01*
D02*
G37*
G36*
X164449D02*
X163161Y378807D01*
X161961Y378310D01*
X160930Y377519D01*
X160139Y376488D01*
X159642Y375288D01*
X159472Y374000D01*
X159642Y372712D01*
X160139Y371512D01*
X160930Y370481D01*
X161961Y369690D01*
X163161Y369193D01*
X164449Y369023D01*
X165737Y369193D01*
X166937Y369690D01*
X167968Y370481D01*
X168759Y371512D01*
X169256Y372712D01*
X169426Y374000D01*
X169256Y375288D01*
X168759Y376488D01*
X167968Y377519D01*
X166937Y378310D01*
X165737Y378807D01*
X164449Y378977D01*
D02*
G37*
G36*
X75449D02*
X74161Y378807D01*
X72961Y378310D01*
X71930Y377519D01*
X71139Y376488D01*
X70642Y375288D01*
X70472Y374000D01*
X70642Y372712D01*
X71139Y371512D01*
X71930Y370481D01*
X72961Y369690D01*
X74161Y369193D01*
X75449Y369023D01*
X76737Y369193D01*
X77937Y369690D01*
X78968Y370481D01*
X79759Y371512D01*
X80256Y372712D01*
X80426Y374000D01*
X80256Y375288D01*
X79759Y376488D01*
X78968Y377519D01*
X77937Y378310D01*
X76737Y378807D01*
X75449Y378977D01*
D02*
G37*
G36*
X292000Y353977D02*
X290712Y353807D01*
X289512Y353310D01*
X288481Y352519D01*
X287690Y351488D01*
X287193Y350288D01*
X287023Y349000D01*
X287193Y347712D01*
X287690Y346512D01*
X288481Y345481D01*
X289512Y344690D01*
X290712Y344193D01*
X292000Y344023D01*
X293288Y344193D01*
X294488Y344690D01*
X295519Y345481D01*
X296310Y346512D01*
X296807Y347712D01*
X296977Y349000D01*
X296807Y350288D01*
X296310Y351488D01*
X295519Y352519D01*
X294488Y353310D01*
X293288Y353807D01*
X292000Y353977D01*
D02*
G37*
G36*
X164449D02*
X163161Y353807D01*
X161961Y353310D01*
X160930Y352519D01*
X160139Y351488D01*
X159642Y350288D01*
X159472Y349000D01*
X159642Y347712D01*
X160139Y346512D01*
X160930Y345481D01*
X161961Y344690D01*
X163161Y344193D01*
X164449Y344023D01*
X165737Y344193D01*
X166937Y344690D01*
X167968Y345481D01*
X168759Y346512D01*
X169256Y347712D01*
X169426Y349000D01*
X169256Y350288D01*
X168759Y351488D01*
X167968Y352519D01*
X166937Y353310D01*
X165737Y353807D01*
X164449Y353977D01*
D02*
G37*
G36*
X100551D02*
X99263Y353807D01*
X98063Y353310D01*
X97032Y352519D01*
X96241Y351488D01*
X95744Y350288D01*
X95574Y349000D01*
X95744Y347712D01*
X96241Y346512D01*
X97032Y345481D01*
X98063Y344690D01*
X99263Y344193D01*
X100551Y344023D01*
X101839Y344193D01*
X103039Y344690D01*
X104070Y345481D01*
X104861Y346512D01*
X105358Y347712D01*
X105528Y349000D01*
X105358Y350288D01*
X104861Y351488D01*
X104070Y352519D01*
X103039Y353310D01*
X101839Y353807D01*
X100551Y353977D01*
D02*
G37*
G36*
X75449D02*
X74161Y353807D01*
X72961Y353310D01*
X71930Y352519D01*
X71139Y351488D01*
X70642Y350288D01*
X70472Y349000D01*
X70642Y347712D01*
X71139Y346512D01*
X71930Y345481D01*
X72961Y344690D01*
X74161Y344193D01*
X75449Y344023D01*
X76737Y344193D01*
X77937Y344690D01*
X78968Y345481D01*
X79759Y346512D01*
X80256Y347712D01*
X80426Y349000D01*
X80256Y350288D01*
X79759Y351488D01*
X78968Y352519D01*
X77937Y353310D01*
X76737Y353807D01*
X75449Y353977D01*
D02*
G37*
G36*
X11551D02*
X10263Y353807D01*
X9063Y353310D01*
X8032Y352519D01*
X7241Y351488D01*
X6744Y350288D01*
X6574Y349000D01*
X6744Y347712D01*
X7241Y346512D01*
X8032Y345481D01*
X9063Y344690D01*
X10263Y344193D01*
X11551Y344023D01*
X12839Y344193D01*
X14039Y344690D01*
X15070Y345481D01*
X15861Y346512D01*
X16358Y347712D01*
X16528Y349000D01*
X16358Y350288D01*
X15861Y351488D01*
X15070Y352519D01*
X14039Y353310D01*
X12839Y353807D01*
X11551Y353977D01*
D02*
G37*
G36*
X196900Y344359D02*
Y336778D01*
X204482D01*
X204367Y337943D01*
X203910Y339447D01*
X203169Y340834D01*
X202172Y342050D01*
X200956Y343047D01*
X199569Y343788D01*
X198065Y344245D01*
X196900Y344359D01*
D02*
G37*
G36*
X196100D02*
X194935Y344245D01*
X193430Y343788D01*
X192044Y343047D01*
X190828Y342050D01*
X189831Y340834D01*
X189090Y339447D01*
X188633Y337943D01*
X188519Y336778D01*
X196100D01*
Y344359D01*
D02*
G37*
G36*
X375842Y345773D02*
X374503Y345597D01*
X373255Y345080D01*
X372183Y344258D01*
X371361Y343186D01*
X370844Y341938D01*
X370668Y340598D01*
X370844Y339259D01*
X371361Y338011D01*
X372183Y336939D01*
X373255Y336117D01*
X374503Y335600D01*
X375842Y335423D01*
X377182Y335600D01*
X378430Y336117D01*
X379502Y336939D01*
X380324Y338011D01*
X380841Y339259D01*
X381017Y340598D01*
X380841Y341938D01*
X380324Y343186D01*
X379502Y344258D01*
X378430Y345080D01*
X377182Y345597D01*
X375842Y345773D01*
D02*
G37*
G36*
X316787D02*
X315448Y345597D01*
X314200Y345080D01*
X313128Y344258D01*
X312306Y343186D01*
X311789Y341938D01*
X311612Y340598D01*
X311789Y339259D01*
X312306Y338011D01*
X313128Y336939D01*
X314200Y336117D01*
X315448Y335600D01*
X316787Y335423D01*
X318127Y335600D01*
X319375Y336117D01*
X320447Y336939D01*
X321269Y338011D01*
X321786Y339259D01*
X321962Y340598D01*
X321786Y341938D01*
X321269Y343186D01*
X320447Y344258D01*
X319375Y345080D01*
X318127Y345597D01*
X316787Y345773D01*
D02*
G37*
G36*
X204482Y335978D02*
X196900D01*
Y328397D01*
X198065Y328511D01*
X199569Y328968D01*
X200956Y329709D01*
X202172Y330706D01*
X203169Y331922D01*
X203910Y333309D01*
X204367Y334813D01*
X204482Y335978D01*
D02*
G37*
G36*
X196100D02*
X188519D01*
X188633Y334813D01*
X189090Y333309D01*
X189831Y331922D01*
X190828Y330706D01*
X192044Y329709D01*
X193430Y328968D01*
X194935Y328511D01*
X196100Y328397D01*
Y335978D01*
D02*
G37*
G36*
X292000Y328977D02*
X290712Y328807D01*
X289512Y328310D01*
X288481Y327519D01*
X287690Y326488D01*
X287193Y325288D01*
X287023Y324000D01*
X287193Y322712D01*
X287690Y321512D01*
X288481Y320481D01*
X289512Y319690D01*
X290712Y319193D01*
X292000Y319023D01*
X293288Y319193D01*
X294488Y319690D01*
X295519Y320481D01*
X296310Y321512D01*
X296807Y322712D01*
X296977Y324000D01*
X296807Y325288D01*
X296310Y326488D01*
X295519Y327519D01*
X294488Y328310D01*
X293288Y328807D01*
X292000Y328977D01*
D02*
G37*
G36*
X164449D02*
X163161Y328807D01*
X161961Y328310D01*
X160930Y327519D01*
X160139Y326488D01*
X159642Y325288D01*
X159472Y324000D01*
X159642Y322712D01*
X160139Y321512D01*
X160930Y320481D01*
X161961Y319690D01*
X163161Y319193D01*
X164449Y319023D01*
X165737Y319193D01*
X166937Y319690D01*
X167968Y320481D01*
X168759Y321512D01*
X169256Y322712D01*
X169426Y324000D01*
X169256Y325288D01*
X168759Y326488D01*
X167968Y327519D01*
X166937Y328310D01*
X165737Y328807D01*
X164449Y328977D01*
D02*
G37*
G36*
X75449D02*
X74161Y328807D01*
X72961Y328310D01*
X71930Y327519D01*
X71139Y326488D01*
X70642Y325288D01*
X70472Y324000D01*
X70642Y322712D01*
X71139Y321512D01*
X71930Y320481D01*
X72961Y319690D01*
X74161Y319193D01*
X75449Y319023D01*
X76737Y319193D01*
X77937Y319690D01*
X78968Y320481D01*
X79759Y321512D01*
X80256Y322712D01*
X80426Y324000D01*
X80256Y325288D01*
X79759Y326488D01*
X78968Y327519D01*
X77937Y328310D01*
X76737Y328807D01*
X75449Y328977D01*
D02*
G37*
G36*
X182900Y317832D02*
Y314900D01*
X185832D01*
X185770Y315376D01*
X185432Y316193D01*
X184894Y316894D01*
X184193Y317431D01*
X183376Y317770D01*
X182900Y317832D01*
D02*
G37*
G36*
X182100D02*
X181624Y317770D01*
X180807Y317431D01*
X180106Y316894D01*
X179569Y316193D01*
X179230Y315376D01*
X179168Y314900D01*
X182100D01*
Y317832D01*
D02*
G37*
G36*
X185832Y314100D02*
X182900D01*
Y311168D01*
X183376Y311230D01*
X184193Y311568D01*
X184894Y312106D01*
X185432Y312807D01*
X185770Y313624D01*
X185832Y314100D01*
D02*
G37*
G36*
X182100D02*
X179168D01*
X179230Y313624D01*
X179569Y312807D01*
X180106Y312106D01*
X180807Y311568D01*
X181624Y311230D01*
X182100Y311168D01*
Y314100D01*
D02*
G37*
G36*
X366000Y335931D02*
X364661Y335755D01*
X363412Y335238D01*
X362341Y334415D01*
X361518Y333343D01*
X361001Y332095D01*
X360825Y330756D01*
X361001Y329416D01*
X361518Y328168D01*
X362341Y327097D01*
X363412Y326274D01*
X364661Y325757D01*
X364674Y325755D01*
Y308234D01*
X358127Y301687D01*
X357385Y301994D01*
X356315Y302135D01*
X355245Y301994D01*
X354247Y301581D01*
X353391Y300924D01*
X352734Y300068D01*
X352321Y299070D01*
X352180Y298000D01*
X352321Y296930D01*
X352734Y295932D01*
X353391Y295076D01*
X354247Y294419D01*
X355245Y294005D01*
X356315Y293865D01*
X357385Y294005D01*
X358383Y294419D01*
X359239Y295076D01*
X359896Y295932D01*
X360309Y296930D01*
X360450Y298000D01*
X360309Y299070D01*
X360002Y299813D01*
X366937Y306748D01*
X367225Y307178D01*
X367325Y307685D01*
Y325755D01*
X367339Y325757D01*
X368587Y326274D01*
X369659Y327097D01*
X370482Y328168D01*
X370999Y329416D01*
X371175Y330756D01*
X370999Y332095D01*
X370482Y333343D01*
X369659Y334415D01*
X368587Y335238D01*
X367339Y335755D01*
X366000Y335931D01*
D02*
G37*
G36*
X346315Y345773D02*
X344976Y345597D01*
X343727Y345080D01*
X342656Y344258D01*
X341833Y343186D01*
X341316Y341938D01*
X341140Y340598D01*
X341316Y339259D01*
X341833Y338011D01*
X342656Y336939D01*
X343727Y336117D01*
X344976Y335600D01*
X344989Y335598D01*
Y301889D01*
X344247Y301581D01*
X343391Y300924D01*
X342734Y300068D01*
X342320Y299070D01*
X342180Y298000D01*
X342320Y296930D01*
X342734Y295932D01*
X343391Y295076D01*
X344247Y294419D01*
X345245Y294005D01*
X346315Y293865D01*
X347385Y294005D01*
X348383Y294419D01*
X349239Y295076D01*
X349896Y295932D01*
X350309Y296930D01*
X350450Y298000D01*
X350309Y299070D01*
X349896Y300068D01*
X349239Y300924D01*
X348383Y301581D01*
X347640Y301889D01*
Y335598D01*
X347654Y335600D01*
X348902Y336117D01*
X349974Y336939D01*
X350797Y338011D01*
X351314Y339259D01*
X351490Y340598D01*
X351314Y341938D01*
X350797Y343186D01*
X349974Y344258D01*
X348902Y345080D01*
X347654Y345597D01*
X346315Y345773D01*
D02*
G37*
G36*
X326630Y335931D02*
X325290Y335755D01*
X324042Y335238D01*
X322971Y334415D01*
X322148Y333343D01*
X321631Y332095D01*
X321455Y330756D01*
X321631Y329416D01*
X322148Y328168D01*
X322971Y327097D01*
X324042Y326274D01*
X325290Y325757D01*
X325304Y325755D01*
Y307685D01*
X325405Y307178D01*
X325693Y306748D01*
X332628Y299813D01*
X332320Y299070D01*
X332180Y298000D01*
X332320Y296930D01*
X332734Y295932D01*
X333391Y295076D01*
X334247Y294419D01*
X335245Y294005D01*
X336315Y293865D01*
X337385Y294005D01*
X338383Y294419D01*
X339239Y295076D01*
X339896Y295932D01*
X340309Y296930D01*
X340450Y298000D01*
X340309Y299070D01*
X339896Y300068D01*
X339239Y300924D01*
X338383Y301581D01*
X337385Y301994D01*
X336315Y302135D01*
X335245Y301994D01*
X334502Y301687D01*
X327955Y308234D01*
Y325755D01*
X327969Y325757D01*
X329217Y326274D01*
X330289Y327097D01*
X331112Y328168D01*
X331629Y329416D01*
X331805Y330756D01*
X331629Y332095D01*
X331112Y333343D01*
X330289Y334415D01*
X329217Y335238D01*
X327969Y335755D01*
X326630Y335931D01*
D02*
G37*
G36*
X190010Y291231D02*
Y288895D01*
X192347D01*
X192305Y289216D01*
X192026Y289889D01*
X191583Y290467D01*
X191005Y290910D01*
X190332Y291189D01*
X190010Y291231D01*
D02*
G37*
G36*
X189210Y291231D02*
X188888Y291189D01*
X188216Y290910D01*
X187638Y290467D01*
X187195Y289889D01*
X186916Y289216D01*
X186873Y288895D01*
X189210D01*
Y291231D01*
D02*
G37*
G36*
X192347Y288094D02*
X190010D01*
Y285758D01*
X190332Y285800D01*
X191005Y286079D01*
X191583Y286522D01*
X192026Y287100D01*
X192305Y287772D01*
X192347Y288094D01*
D02*
G37*
G36*
X189210D02*
X186873D01*
X186916Y287772D01*
X187195Y287100D01*
X187638Y286522D01*
X188216Y286079D01*
X188888Y285800D01*
X189210Y285758D01*
Y288094D01*
D02*
G37*
G36*
X228102Y378977D02*
X226814Y378807D01*
X225614Y378310D01*
X224583Y377519D01*
X223792Y376488D01*
X223295Y375288D01*
X223125Y374000D01*
X223295Y372712D01*
X223792Y371512D01*
X224583Y370481D01*
X225614Y369690D01*
X226814Y369193D01*
X228102Y369023D01*
X229390Y369193D01*
X230553Y369675D01*
X268674Y331553D01*
Y288389D01*
X267932Y288081D01*
X267076Y287424D01*
X266419Y286568D01*
X266005Y285570D01*
X265865Y284500D01*
X266005Y283430D01*
X266419Y282432D01*
X267076Y281576D01*
X267932Y280919D01*
X268930Y280505D01*
X270000Y280365D01*
X271070Y280505D01*
X272068Y280919D01*
X272924Y281576D01*
X273581Y282432D01*
X273994Y283430D01*
X274135Y284500D01*
X273994Y285570D01*
X273581Y286568D01*
X272924Y287424D01*
X272068Y288081D01*
X271325Y288389D01*
Y332102D01*
X271225Y332609D01*
X270937Y333039D01*
X232427Y371549D01*
X232909Y372712D01*
X233079Y374000D01*
X232909Y375288D01*
X232412Y376488D01*
X231621Y377519D01*
X230590Y378310D01*
X229390Y378807D01*
X228102Y378977D01*
D02*
G37*
G36*
Y353977D02*
X226814Y353807D01*
X225614Y353310D01*
X224583Y352519D01*
X223792Y351488D01*
X223295Y350288D01*
X223125Y349000D01*
X223295Y347712D01*
X223792Y346512D01*
X224583Y345481D01*
X225614Y344690D01*
X226814Y344193D01*
X228102Y344023D01*
X229390Y344193D01*
X230553Y344675D01*
X258675Y316553D01*
Y288389D01*
X257932Y288081D01*
X257076Y287424D01*
X256419Y286568D01*
X256006Y285570D01*
X255865Y284500D01*
X256006Y283430D01*
X256419Y282432D01*
X257076Y281576D01*
X257932Y280919D01*
X258930Y280505D01*
X260000Y280365D01*
X261070Y280505D01*
X262068Y280919D01*
X262924Y281576D01*
X263581Y282432D01*
X263995Y283430D01*
X264135Y284500D01*
X263995Y285570D01*
X263581Y286568D01*
X262924Y287424D01*
X262068Y288081D01*
X261326Y288389D01*
Y317102D01*
X261225Y317609D01*
X260937Y318039D01*
X232427Y346549D01*
X232909Y347712D01*
X233079Y349000D01*
X232909Y350288D01*
X232412Y351488D01*
X231621Y352519D01*
X230590Y353310D01*
X229390Y353807D01*
X228102Y353977D01*
D02*
G37*
G36*
Y328977D02*
X226814Y328807D01*
X225614Y328310D01*
X224583Y327519D01*
X223792Y326488D01*
X223295Y325288D01*
X223125Y324000D01*
X223295Y322712D01*
X223792Y321512D01*
X224583Y320481D01*
X225614Y319690D01*
X226814Y319193D01*
X228102Y319023D01*
X229390Y319193D01*
X230553Y319675D01*
X248675Y301553D01*
Y288389D01*
X247932Y288081D01*
X247076Y287424D01*
X246419Y286568D01*
X246006Y285570D01*
X245865Y284500D01*
X246006Y283430D01*
X246419Y282432D01*
X247076Y281576D01*
X247932Y280919D01*
X248930Y280505D01*
X250000Y280365D01*
X251070Y280505D01*
X252068Y280919D01*
X252924Y281576D01*
X253581Y282432D01*
X253994Y283430D01*
X254135Y284500D01*
X253994Y285570D01*
X253581Y286568D01*
X252924Y287424D01*
X252068Y288081D01*
X251325Y288389D01*
Y302102D01*
X251225Y302609D01*
X250937Y303039D01*
X232427Y321549D01*
X232909Y322712D01*
X233079Y324000D01*
X232909Y325288D01*
X232412Y326488D01*
X231621Y327519D01*
X230590Y328310D01*
X229390Y328807D01*
X228102Y328977D01*
D02*
G37*
G36*
X360032Y275358D02*
X358794Y275236D01*
X357604Y274875D01*
X356508Y274289D01*
X355547Y273500D01*
X354758Y272539D01*
X354172Y271443D01*
X353811Y270253D01*
X353689Y269016D01*
X353811Y267778D01*
X354172Y266589D01*
X354758Y265492D01*
X355547Y264531D01*
X356508Y263742D01*
X357604Y263156D01*
X358794Y262795D01*
X360032Y262673D01*
X361269Y262795D01*
X362459Y263156D01*
X363555Y263742D01*
X364516Y264531D01*
X365305Y265492D01*
X365891Y266589D01*
X366252Y267778D01*
X366374Y269016D01*
X366252Y270253D01*
X365891Y271443D01*
X365305Y272539D01*
X364516Y273500D01*
X363555Y274289D01*
X362459Y274875D01*
X361269Y275236D01*
X360032Y275358D01*
D02*
G37*
G36*
X332472Y264540D02*
X331390Y264397D01*
X330381Y263979D01*
X329515Y263315D01*
X328851Y262449D01*
X328533Y261683D01*
X319371D01*
X319081Y262383D01*
X318424Y263239D01*
X317568Y263896D01*
X316570Y264309D01*
X315500Y264450D01*
X314430Y264309D01*
X313432Y263896D01*
X312576Y263239D01*
X311919Y262383D01*
X311506Y261385D01*
X311365Y260315D01*
X311506Y259245D01*
X311919Y258247D01*
X312576Y257391D01*
X313432Y256734D01*
X314430Y256321D01*
X315500Y256180D01*
X316570Y256321D01*
X317568Y256734D01*
X318424Y257391D01*
X319081Y258247D01*
X319406Y259032D01*
X328533D01*
X328851Y258266D01*
X329515Y257400D01*
X330381Y256736D01*
X331390Y256318D01*
X332472Y256175D01*
X333555Y256318D01*
X334564Y256736D01*
X335430Y257400D01*
X336094Y258266D01*
X336512Y259275D01*
X336655Y260357D01*
X336512Y261440D01*
X336094Y262449D01*
X335430Y263315D01*
X334564Y263979D01*
X333555Y264397D01*
X332472Y264540D01*
D02*
G37*
G36*
X291400Y259881D02*
Y256400D01*
X294881D01*
X294800Y257018D01*
X294407Y257967D01*
X293781Y258782D01*
X292967Y259407D01*
X292018Y259800D01*
X291400Y259881D01*
D02*
G37*
G36*
X290600D02*
X289982Y259800D01*
X289033Y259407D01*
X288218Y258782D01*
X287593Y257967D01*
X287200Y257018D01*
X287119Y256400D01*
X290600D01*
Y259881D01*
D02*
G37*
G36*
X294881Y255600D02*
X291400D01*
Y252119D01*
X292018Y252200D01*
X292967Y252593D01*
X293781Y253219D01*
X294407Y254033D01*
X294800Y254982D01*
X294881Y255600D01*
D02*
G37*
G36*
X290600D02*
X287119D01*
X287200Y254982D01*
X287593Y254033D01*
X288218Y253219D01*
X289033Y252593D01*
X289982Y252200D01*
X290600Y252119D01*
Y255600D01*
D02*
G37*
G36*
X332472Y254497D02*
X331390Y254355D01*
X330381Y253937D01*
X329515Y253272D01*
X328851Y252406D01*
X328533Y251640D01*
X319389D01*
X319081Y252383D01*
X318424Y253239D01*
X317568Y253896D01*
X316570Y254309D01*
X315500Y254450D01*
X314430Y254309D01*
X313432Y253896D01*
X312576Y253239D01*
X311919Y252383D01*
X311506Y251385D01*
X311365Y250315D01*
X311506Y249245D01*
X311919Y248247D01*
X312576Y247391D01*
X313432Y246734D01*
X314430Y246321D01*
X315500Y246180D01*
X316570Y246321D01*
X317568Y246734D01*
X318424Y247391D01*
X319081Y248247D01*
X319389Y248990D01*
X328533D01*
X328851Y248224D01*
X329515Y247358D01*
X330381Y246693D01*
X331390Y246275D01*
X332472Y246133D01*
X333555Y246275D01*
X334564Y246693D01*
X335430Y247358D01*
X336094Y248224D01*
X336512Y249233D01*
X336655Y250315D01*
X336512Y251397D01*
X336094Y252406D01*
X335430Y253272D01*
X334564Y253937D01*
X333555Y254355D01*
X332472Y254497D01*
D02*
G37*
G36*
X138902Y263464D02*
X137664Y263342D01*
X136475Y262982D01*
X135378Y262396D01*
X134417Y261607D01*
X133628Y260646D01*
X133042Y259549D01*
X132681Y258359D01*
X132559Y257122D01*
X132681Y255885D01*
X133042Y254695D01*
X133628Y253598D01*
X134417Y252637D01*
X135378Y251849D01*
X136475Y251262D01*
X137664Y250902D01*
X138902Y250780D01*
X140139Y250902D01*
X141329Y251262D01*
X142425Y251849D01*
X143386Y252637D01*
X144175Y253598D01*
X144761Y254695D01*
X145122Y255885D01*
X145244Y257122D01*
X145122Y258359D01*
X144761Y259549D01*
X144175Y260646D01*
X143386Y261607D01*
X142425Y262396D01*
X141329Y262982D01*
X140139Y263342D01*
X138902Y263464D01*
D02*
G37*
G36*
X101500D02*
X100263Y263342D01*
X99073Y262982D01*
X97976Y262396D01*
X97015Y261607D01*
X96227Y260646D01*
X95640Y259549D01*
X95280Y258359D01*
X95158Y257122D01*
X95280Y255885D01*
X95640Y254695D01*
X96227Y253598D01*
X97015Y252637D01*
X97976Y251849D01*
X99073Y251262D01*
X100263Y250902D01*
X101500Y250780D01*
X102737Y250902D01*
X103927Y251262D01*
X105024Y251849D01*
X105985Y252637D01*
X106773Y253598D01*
X107360Y254695D01*
X107720Y255885D01*
X107842Y257122D01*
X107720Y258359D01*
X107360Y259549D01*
X106773Y260646D01*
X105985Y261607D01*
X105024Y262396D01*
X103927Y262982D01*
X102737Y263342D01*
X101500Y263464D01*
D02*
G37*
G36*
X49902D02*
X48664Y263342D01*
X47475Y262982D01*
X46378Y262396D01*
X45417Y261607D01*
X44628Y260646D01*
X44042Y259549D01*
X43681Y258359D01*
X43559Y257122D01*
X43681Y255885D01*
X44042Y254695D01*
X44628Y253598D01*
X45417Y252637D01*
X46378Y251849D01*
X47475Y251262D01*
X48664Y250902D01*
X49902Y250780D01*
X51139Y250902D01*
X52329Y251262D01*
X53425Y251849D01*
X54386Y252637D01*
X55175Y253598D01*
X55761Y254695D01*
X56122Y255885D01*
X56244Y257122D01*
X56122Y258359D01*
X55761Y259549D01*
X55175Y260646D01*
X54386Y261607D01*
X53425Y262396D01*
X52329Y262982D01*
X51139Y263342D01*
X49902Y263464D01*
D02*
G37*
G36*
X12500D02*
X11263Y263342D01*
X10073Y262982D01*
X8976Y262396D01*
X8015Y261607D01*
X7226Y260646D01*
X6640Y259549D01*
X6279Y258359D01*
X6158Y257122D01*
X6279Y255885D01*
X6640Y254695D01*
X7226Y253598D01*
X8015Y252637D01*
X8976Y251849D01*
X10073Y251262D01*
X11263Y250902D01*
X12500Y250780D01*
X13737Y250902D01*
X14927Y251262D01*
X16024Y251849D01*
X16985Y252637D01*
X17774Y253598D01*
X18360Y254695D01*
X18721Y255885D01*
X18842Y257122D01*
X18721Y258359D01*
X18360Y259549D01*
X17774Y260646D01*
X16985Y261607D01*
X16024Y262396D01*
X14927Y262982D01*
X13737Y263342D01*
X12500Y263464D01*
D02*
G37*
G36*
X291400Y249881D02*
Y246400D01*
X294881D01*
X294800Y247018D01*
X294407Y247967D01*
X293781Y248781D01*
X292967Y249407D01*
X292018Y249800D01*
X291400Y249881D01*
D02*
G37*
G36*
X290600D02*
X289982Y249800D01*
X289033Y249407D01*
X288218Y248781D01*
X287593Y247967D01*
X287200Y247018D01*
X287119Y246400D01*
X290600D01*
Y249881D01*
D02*
G37*
G36*
X294881Y245600D02*
X291400D01*
Y242119D01*
X292018Y242200D01*
X292967Y242593D01*
X293781Y243218D01*
X294407Y244033D01*
X294800Y244982D01*
X294881Y245600D01*
D02*
G37*
G36*
X290600D02*
X287119D01*
X287200Y244982D01*
X287593Y244033D01*
X288218Y243218D01*
X289033Y242593D01*
X289982Y242200D01*
X290600Y242119D01*
Y245600D01*
D02*
G37*
G36*
X332472Y244455D02*
X331390Y244312D01*
X330381Y243894D01*
X329515Y243230D01*
X328851Y242364D01*
X328533Y241598D01*
X319406D01*
X319081Y242383D01*
X318424Y243239D01*
X317568Y243896D01*
X316570Y244309D01*
X315500Y244450D01*
X314430Y244309D01*
X313432Y243896D01*
X312576Y243239D01*
X311919Y242383D01*
X311506Y241385D01*
X311365Y240315D01*
X311506Y239245D01*
X311919Y238247D01*
X312576Y237391D01*
X313432Y236734D01*
X314430Y236320D01*
X315500Y236180D01*
X316570Y236320D01*
X317568Y236734D01*
X318424Y237391D01*
X319081Y238247D01*
X319371Y238947D01*
X328533D01*
X328851Y238181D01*
X329515Y237315D01*
X330381Y236650D01*
X331390Y236233D01*
X332472Y236090D01*
X333555Y236233D01*
X334564Y236650D01*
X335430Y237315D01*
X336094Y238181D01*
X336512Y239190D01*
X336655Y240272D01*
X336512Y241355D01*
X336094Y242364D01*
X335430Y243230D01*
X334564Y243894D01*
X333555Y244312D01*
X332472Y244455D01*
D02*
G37*
G36*
X213900Y243634D02*
Y240900D01*
X216634D01*
X216578Y241325D01*
X216259Y242093D01*
X215753Y242753D01*
X215093Y243259D01*
X214325Y243578D01*
X213900Y243634D01*
D02*
G37*
G36*
X213100D02*
X212675Y243578D01*
X211907Y243259D01*
X211247Y242753D01*
X210741Y242093D01*
X210422Y241325D01*
X210366Y240900D01*
X213100D01*
Y243634D01*
D02*
G37*
G36*
X275500Y260135D02*
X274430Y259995D01*
X273432Y259581D01*
X272576Y258924D01*
X271919Y258068D01*
X271505Y257070D01*
X271365Y256000D01*
X271505Y254930D01*
X271919Y253932D01*
X272576Y253076D01*
X273053Y252710D01*
Y249290D01*
X272576Y248924D01*
X271919Y248068D01*
X271505Y247070D01*
X271365Y246000D01*
X271505Y244930D01*
X271919Y243932D01*
X272576Y243076D01*
X273053Y242710D01*
Y239290D01*
X272576Y238924D01*
X272210Y238447D01*
X261662D01*
Y239162D01*
X258799D01*
X255730Y242230D01*
X254936Y242761D01*
X254000Y242947D01*
X244829D01*
X244194Y243434D01*
X243377Y243773D01*
X242500Y243888D01*
X241623Y243773D01*
X240806Y243434D01*
X240171Y242947D01*
X228505D01*
X228095Y243262D01*
X227326Y243581D01*
X226500Y243689D01*
X225675Y243581D01*
X224905Y243262D01*
X224245Y242755D01*
X223738Y242095D01*
X223419Y241325D01*
X223311Y240500D01*
X223419Y239674D01*
X223738Y238905D01*
X224245Y238245D01*
X224905Y237738D01*
X225675Y237419D01*
X226500Y237311D01*
X227326Y237419D01*
X228095Y237738D01*
X228505Y238053D01*
X240171D01*
X240806Y237566D01*
X241623Y237228D01*
X242500Y237112D01*
X243377Y237228D01*
X244194Y237566D01*
X244829Y238053D01*
X252986D01*
X255338Y235701D01*
Y232838D01*
X261662D01*
Y233553D01*
X272210D01*
X272576Y233076D01*
X273053Y232710D01*
Y229290D01*
X272576Y228924D01*
X271919Y228068D01*
X271505Y227070D01*
X271365Y226000D01*
X271505Y224930D01*
X271919Y223932D01*
X272576Y223076D01*
X273053Y222710D01*
Y219290D01*
X272576Y218924D01*
X271919Y218068D01*
X271505Y217070D01*
X271365Y216000D01*
X271505Y214930D01*
X271919Y213932D01*
X272576Y213076D01*
X273432Y212419D01*
X274430Y212005D01*
X275500Y211865D01*
X276570Y212005D01*
X277568Y212419D01*
X278424Y213076D01*
X279081Y213932D01*
X279495Y214930D01*
X279635Y216000D01*
X279495Y217070D01*
X279081Y218068D01*
X278424Y218924D01*
X277947Y219290D01*
Y222710D01*
X278424Y223076D01*
X279081Y223932D01*
X279495Y224930D01*
X279635Y226000D01*
X279495Y227070D01*
X279081Y228068D01*
X278424Y228924D01*
X277947Y229290D01*
Y232710D01*
X278424Y233076D01*
X279081Y233932D01*
X279495Y234930D01*
X279635Y236000D01*
X279495Y237070D01*
X279081Y238068D01*
X278424Y238924D01*
X277947Y239290D01*
Y242710D01*
X278424Y243076D01*
X279081Y243932D01*
X279495Y244930D01*
X279635Y246000D01*
X279495Y247070D01*
X279081Y248068D01*
X278424Y248924D01*
X277947Y249290D01*
Y252710D01*
X278424Y253076D01*
X279081Y253932D01*
X279495Y254930D01*
X279635Y256000D01*
X279495Y257070D01*
X279081Y258068D01*
X278424Y258924D01*
X277568Y259581D01*
X276570Y259995D01*
X275500Y260135D01*
D02*
G37*
G36*
X216634Y240100D02*
X213900D01*
Y237366D01*
X214325Y237422D01*
X215093Y237741D01*
X215753Y238247D01*
X216259Y238907D01*
X216578Y239675D01*
X216634Y240100D01*
D02*
G37*
G36*
X213100D02*
X210366D01*
X210422Y239675D01*
X210741Y238907D01*
X211247Y238247D01*
X211907Y237741D01*
X212675Y237422D01*
X213100Y237366D01*
Y240100D01*
D02*
G37*
G36*
X291400Y239881D02*
Y236400D01*
X294881D01*
X294800Y237018D01*
X294407Y237967D01*
X293781Y238781D01*
X292967Y239407D01*
X292018Y239800D01*
X291400Y239881D01*
D02*
G37*
G36*
X197900Y238935D02*
Y236400D01*
X200435D01*
X200386Y236773D01*
X200087Y237494D01*
X199612Y238112D01*
X198994Y238587D01*
X198273Y238886D01*
X197900Y238935D01*
D02*
G37*
G36*
X197100D02*
X196727Y238886D01*
X196006Y238587D01*
X195387Y238112D01*
X194913Y237494D01*
X194614Y236773D01*
X194565Y236400D01*
X197100D01*
Y238935D01*
D02*
G37*
G36*
X290600Y239881D02*
X289982Y239800D01*
X289033Y239407D01*
X288218Y238781D01*
X287593Y237967D01*
X287200Y237018D01*
X287119Y236400D01*
X290600D01*
Y239881D01*
D02*
G37*
G36*
X200435Y235600D02*
X197900D01*
Y233065D01*
X198273Y233114D01*
X198994Y233413D01*
X199612Y233888D01*
X200087Y234506D01*
X200386Y235227D01*
X200435Y235600D01*
D02*
G37*
G36*
X197100D02*
X194565D01*
X194614Y235227D01*
X194913Y234506D01*
X195387Y233888D01*
X196006Y233413D01*
X196727Y233114D01*
X197100Y233065D01*
Y235600D01*
D02*
G37*
G36*
X61000Y238991D02*
X60226Y238889D01*
X59504Y238590D01*
X58885Y238115D01*
X58410Y237495D01*
X58111Y236774D01*
X58009Y236000D01*
X58111Y235226D01*
X58181Y235056D01*
X57863Y234737D01*
X57575Y234307D01*
X57474Y233800D01*
Y223300D01*
X57007Y223106D01*
X56264Y222536D01*
X55694Y221793D01*
X55335Y220928D01*
X55213Y220000D01*
X55335Y219072D01*
X55694Y218207D01*
X56264Y217464D01*
X57007Y216894D01*
X57872Y216535D01*
X58800Y216413D01*
X59728Y216535D01*
X60593Y216894D01*
X61336Y217464D01*
X61906Y218207D01*
X62265Y219072D01*
X62387Y220000D01*
X62265Y220928D01*
X61906Y221793D01*
X61336Y222536D01*
X60593Y223106D01*
X60125Y223300D01*
Y232635D01*
X60625Y233058D01*
X61000Y233009D01*
X61774Y233111D01*
X62495Y233410D01*
X63115Y233885D01*
X63590Y234505D01*
X63889Y235226D01*
X63991Y236000D01*
X63889Y236774D01*
X63590Y237495D01*
X63115Y238115D01*
X62495Y238590D01*
X61774Y238889D01*
X61000Y238991D01*
D02*
G37*
G36*
X294881Y235600D02*
X291400D01*
Y232119D01*
X292018Y232200D01*
X292967Y232593D01*
X293781Y233219D01*
X294407Y234033D01*
X294800Y234982D01*
X294881Y235600D01*
D02*
G37*
G36*
X290600D02*
X287119D01*
X287200Y234982D01*
X287593Y234033D01*
X288218Y233219D01*
X289033Y232593D01*
X289982Y232200D01*
X290600Y232119D01*
Y235600D01*
D02*
G37*
G36*
X226900Y233435D02*
Y230900D01*
X229435D01*
X229386Y231273D01*
X229087Y231994D01*
X228612Y232612D01*
X227994Y233087D01*
X227273Y233386D01*
X226900Y233435D01*
D02*
G37*
G36*
X226100D02*
X225727Y233386D01*
X225006Y233087D01*
X224388Y232612D01*
X223913Y231994D01*
X223614Y231273D01*
X223565Y230900D01*
X226100D01*
Y233435D01*
D02*
G37*
G36*
X41243Y233745D02*
X40161Y233603D01*
X39152Y233185D01*
X38286Y232520D01*
X37621Y231654D01*
X37304Y230889D01*
X35140D01*
X34823Y231654D01*
X34158Y232520D01*
X33292Y233185D01*
X32283Y233603D01*
X31201Y233745D01*
X30118Y233603D01*
X29110Y233185D01*
X28243Y232520D01*
X27579Y231654D01*
X27161Y230645D01*
X27019Y229563D01*
X27161Y228481D01*
X27579Y227472D01*
X28243Y226606D01*
X29110Y225941D01*
X30118Y225523D01*
X31201Y225381D01*
X32283Y225523D01*
X33292Y225941D01*
X34158Y226606D01*
X34823Y227472D01*
X35140Y228238D01*
X37304D01*
X37621Y227472D01*
X38286Y226606D01*
X39152Y225941D01*
X39918Y225624D01*
Y219105D01*
X39506Y218934D01*
X38804Y218396D01*
X38266Y217694D01*
X37927Y216877D01*
X37812Y216000D01*
X37927Y215123D01*
X38266Y214306D01*
X38804Y213604D01*
X39506Y213066D01*
X39875Y212913D01*
Y190800D01*
X39975Y190293D01*
X40263Y189863D01*
X48181Y181944D01*
X48111Y181774D01*
X48009Y181000D01*
X48111Y180226D01*
X48410Y179505D01*
X48885Y178885D01*
X49505Y178410D01*
X50226Y178111D01*
X51000Y178009D01*
X51774Y178111D01*
X52495Y178410D01*
X53115Y178885D01*
X53590Y179505D01*
X53661Y179674D01*
X57977D01*
X58117Y179336D01*
X58646Y178646D01*
X59336Y178118D01*
X60138Y177785D01*
X61000Y177672D01*
X61861Y177785D01*
X62664Y178118D01*
X63354Y178646D01*
X63883Y179336D01*
X64215Y180139D01*
X64328Y181000D01*
X64215Y181861D01*
X63883Y182664D01*
X63354Y183354D01*
X62664Y183882D01*
X61861Y184215D01*
X61000Y184328D01*
X60138Y184215D01*
X59336Y183882D01*
X58646Y183354D01*
X58117Y182664D01*
X57977Y182325D01*
X53661D01*
X53590Y182495D01*
X53115Y183115D01*
X52495Y183590D01*
X51774Y183889D01*
X51000Y183991D01*
X50226Y183889D01*
X50056Y183819D01*
X42526Y191349D01*
Y212913D01*
X42894Y213066D01*
X43596Y213604D01*
X44134Y214306D01*
X44473Y215123D01*
X44588Y216000D01*
X44473Y216877D01*
X44134Y217694D01*
X43596Y218396D01*
X42894Y218934D01*
X42569Y219069D01*
Y225624D01*
X43334Y225941D01*
X44201Y226606D01*
X44865Y227472D01*
X45283Y228481D01*
X45426Y229563D01*
X45283Y230645D01*
X44865Y231654D01*
X44201Y232520D01*
X43334Y233185D01*
X42326Y233603D01*
X41243Y233745D01*
D02*
G37*
G36*
X229435Y230100D02*
X226900D01*
Y227565D01*
X227273Y227614D01*
X227994Y227913D01*
X228612Y228387D01*
X229087Y229006D01*
X229386Y229727D01*
X229435Y230100D01*
D02*
G37*
G36*
X226100D02*
X223565D01*
X223614Y229727D01*
X223913Y229006D01*
X224388Y228387D01*
X225006Y227913D01*
X225727Y227614D01*
X226100Y227565D01*
Y230100D01*
D02*
G37*
G36*
X291400Y229881D02*
Y226400D01*
X294881D01*
X294800Y227018D01*
X294407Y227967D01*
X293781Y228782D01*
X292967Y229407D01*
X292018Y229800D01*
X291400Y229881D01*
D02*
G37*
G36*
X258900Y228935D02*
Y226400D01*
X261435D01*
X261386Y226773D01*
X261087Y227494D01*
X260613Y228113D01*
X259994Y228587D01*
X259273Y228886D01*
X258900Y228935D01*
D02*
G37*
G36*
X258100D02*
X257727Y228886D01*
X257006Y228587D01*
X256387Y228113D01*
X255913Y227494D01*
X255614Y226773D01*
X255565Y226400D01*
X258100D01*
Y228935D01*
D02*
G37*
G36*
X290600Y229881D02*
X289982Y229800D01*
X289033Y229407D01*
X288218Y228782D01*
X287593Y227967D01*
X287200Y227018D01*
X287119Y226400D01*
X290600D01*
Y229881D01*
D02*
G37*
G36*
X91000Y268991D02*
X90226Y268889D01*
X89504Y268590D01*
X88885Y268115D01*
X88410Y267495D01*
X88111Y266774D01*
X88009Y266000D01*
X88111Y265226D01*
X88410Y264505D01*
X88885Y263885D01*
X89504Y263410D01*
X89675Y263339D01*
Y258661D01*
X89504Y258590D01*
X88885Y258115D01*
X88410Y257495D01*
X88111Y256774D01*
X88009Y256000D01*
X88111Y255226D01*
X88410Y254504D01*
X88885Y253885D01*
X89504Y253410D01*
X90226Y253111D01*
X90674Y253052D01*
X102663Y241063D01*
X103093Y240775D01*
X103600Y240674D01*
X118651D01*
X127077Y232248D01*
X126621Y231654D01*
X126204Y230645D01*
X126061Y229563D01*
X126204Y228481D01*
X126621Y227472D01*
X127286Y226606D01*
X128152Y225941D01*
X129161Y225523D01*
X130243Y225381D01*
X131326Y225523D01*
X132334Y225941D01*
X133201Y226606D01*
X133865Y227472D01*
X134283Y228481D01*
X134425Y229563D01*
X134283Y230645D01*
X133865Y231654D01*
X133201Y232520D01*
X132334Y233185D01*
X131326Y233603D01*
X130243Y233745D01*
X129436Y233639D01*
X120137Y242937D01*
X119707Y243225D01*
X119200Y243325D01*
X104149D01*
X93321Y254153D01*
X93590Y254504D01*
X93889Y255226D01*
X93991Y256000D01*
X93889Y256774D01*
X93590Y257495D01*
X93115Y258115D01*
X92496Y258590D01*
X92326Y258661D01*
Y263339D01*
X92496Y263410D01*
X93115Y263885D01*
X93590Y264505D01*
X93889Y265226D01*
X93991Y266000D01*
X93889Y266774D01*
X93590Y267495D01*
X93115Y268115D01*
X92496Y268590D01*
X91774Y268889D01*
X91000Y268991D01*
D02*
G37*
G36*
Y248991D02*
X90226Y248889D01*
X89504Y248590D01*
X88885Y248115D01*
X88410Y247496D01*
X88111Y246774D01*
X88009Y246000D01*
X88111Y245226D01*
X88410Y244504D01*
X88885Y243885D01*
X89504Y243410D01*
X89675Y243339D01*
Y238661D01*
X89504Y238590D01*
X88885Y238115D01*
X88410Y237495D01*
X88111Y236774D01*
X88009Y236000D01*
X88111Y235226D01*
X88410Y234505D01*
X88885Y233885D01*
X89504Y233410D01*
X90226Y233111D01*
X91000Y233009D01*
X91774Y233111D01*
X91944Y233181D01*
X96500Y228626D01*
X96930Y228338D01*
X97437Y228238D01*
X106219D01*
X106536Y227472D01*
X107201Y226606D01*
X108067Y225941D01*
X109076Y225523D01*
X110158Y225381D01*
X111241Y225523D01*
X112249Y225941D01*
X113116Y226606D01*
X113780Y227472D01*
X114198Y228481D01*
X114340Y229563D01*
X114198Y230645D01*
X113780Y231654D01*
X113116Y232520D01*
X112249Y233185D01*
X111241Y233603D01*
X110158Y233745D01*
X109076Y233603D01*
X108067Y233185D01*
X107201Y232520D01*
X106536Y231654D01*
X106219Y230889D01*
X97986D01*
X93819Y235056D01*
X93889Y235226D01*
X93991Y236000D01*
X93889Y236774D01*
X93590Y237495D01*
X93115Y238115D01*
X92496Y238590D01*
X92326Y238661D01*
Y243339D01*
X92496Y243410D01*
X93115Y243885D01*
X93590Y244504D01*
X93889Y245226D01*
X93991Y246000D01*
X93889Y246774D01*
X93590Y247496D01*
X93115Y248115D01*
X92496Y248590D01*
X91774Y248889D01*
X91000Y248991D01*
D02*
G37*
G36*
X360032Y237957D02*
X358794Y237835D01*
X357604Y237474D01*
X356508Y236888D01*
X355547Y236099D01*
X354758Y235138D01*
X354172Y234041D01*
X353811Y232852D01*
X353689Y231614D01*
X353811Y230377D01*
X354172Y229187D01*
X354758Y228091D01*
X355547Y227130D01*
X356508Y226341D01*
X357604Y225755D01*
X358794Y225394D01*
X360032Y225272D01*
X361269Y225394D01*
X362459Y225755D01*
X363555Y226341D01*
X364516Y227130D01*
X365305Y228091D01*
X365891Y229187D01*
X366252Y230377D01*
X366374Y231614D01*
X366252Y232852D01*
X365891Y234041D01*
X365305Y235138D01*
X364516Y236099D01*
X363555Y236888D01*
X362459Y237474D01*
X361269Y237835D01*
X360032Y237957D01*
D02*
G37*
G36*
X261435Y225600D02*
X258900D01*
Y223065D01*
X259273Y223114D01*
X259994Y223413D01*
X260613Y223887D01*
X261087Y224506D01*
X261386Y225227D01*
X261435Y225600D01*
D02*
G37*
G36*
X258100D02*
X255565D01*
X255614Y225227D01*
X255913Y224506D01*
X256387Y223887D01*
X257006Y223413D01*
X257727Y223114D01*
X258100Y223065D01*
Y225600D01*
D02*
G37*
G36*
X294881D02*
X291400D01*
Y222119D01*
X292018Y222200D01*
X292967Y222593D01*
X293781Y223218D01*
X294407Y224033D01*
X294800Y224982D01*
X294881Y225600D01*
D02*
G37*
G36*
X290600D02*
X287119D01*
X287200Y224982D01*
X287593Y224033D01*
X288218Y223218D01*
X289033Y222593D01*
X289982Y222200D01*
X290600Y222119D01*
Y225600D01*
D02*
G37*
G36*
X242900Y223634D02*
Y220900D01*
X245634D01*
X245578Y221325D01*
X245259Y222093D01*
X244753Y222753D01*
X244093Y223259D01*
X243325Y223578D01*
X242900Y223634D01*
D02*
G37*
G36*
X242100D02*
X241675Y223578D01*
X240907Y223259D01*
X240247Y222753D01*
X239741Y222093D01*
X239422Y221325D01*
X239366Y220900D01*
X242100D01*
Y223634D01*
D02*
G37*
G36*
X245634Y220100D02*
X242900D01*
Y217366D01*
X243325Y217422D01*
X244093Y217741D01*
X244753Y218247D01*
X245259Y218907D01*
X245578Y219675D01*
X245634Y220100D01*
D02*
G37*
G36*
X242100D02*
X239366D01*
X239422Y219675D01*
X239741Y218907D01*
X240247Y218247D01*
X240907Y217741D01*
X241675Y217422D01*
X242100Y217366D01*
Y220100D01*
D02*
G37*
G36*
X196500Y368222D02*
X194896Y368064D01*
X193354Y367596D01*
X191932Y366836D01*
X190686Y365814D01*
X189664Y364568D01*
X188904Y363146D01*
X188436Y361604D01*
X188278Y360000D01*
X188436Y358396D01*
X188904Y356854D01*
X189664Y355432D01*
X190686Y354186D01*
X191932Y353164D01*
X193354Y352404D01*
X194896Y351936D01*
X196500Y351778D01*
X198104Y351936D01*
X199646Y352404D01*
X201068Y353164D01*
X202314Y354186D01*
X203336Y355432D01*
X204096Y356854D01*
X204215Y357245D01*
X205794D01*
X208053Y354986D01*
Y318056D01*
X206944D01*
Y310944D01*
X208053D01*
Y296618D01*
X202895Y291460D01*
X200424D01*
Y285529D01*
X201053D01*
Y271014D01*
X176770Y246730D01*
X176239Y245936D01*
X176053Y245000D01*
Y226000D01*
Y193447D01*
X162682D01*
X162496Y193590D01*
X161774Y193889D01*
X161000Y193991D01*
X160226Y193889D01*
X159504Y193590D01*
X158885Y193115D01*
X158410Y192496D01*
X158111Y191774D01*
X158009Y191000D01*
X158111Y190226D01*
X158410Y189505D01*
X158885Y188885D01*
X159504Y188410D01*
X160226Y188111D01*
X161000Y188009D01*
X161774Y188111D01*
X162496Y188410D01*
X162682Y188553D01*
X176053D01*
Y163000D01*
Y150676D01*
X176239Y149739D01*
X176770Y148945D01*
X195446Y130270D01*
X196239Y129739D01*
X197176Y129553D01*
X224901D01*
X239838Y114616D01*
Y111753D01*
X240553D01*
Y100920D01*
X240238Y100510D01*
X239919Y99740D01*
X239811Y98915D01*
X239919Y98090D01*
X240238Y97320D01*
X240745Y96660D01*
X241405Y96153D01*
X242175Y95834D01*
X243000Y95726D01*
X243826Y95834D01*
X244595Y96153D01*
X245005Y96468D01*
X254171D01*
X254806Y95981D01*
X255623Y95643D01*
X256500Y95527D01*
X257377Y95643D01*
X258194Y95981D01*
X258896Y96519D01*
X259434Y97221D01*
X259772Y98038D01*
X259888Y98915D01*
X259772Y99792D01*
X259434Y100609D01*
X258896Y101311D01*
X258194Y101849D01*
X257377Y102188D01*
X256500Y102303D01*
X255623Y102188D01*
X254806Y101849D01*
X254171Y101362D01*
X245447D01*
Y111753D01*
X246162D01*
Y118077D01*
X243299D01*
X227645Y133730D01*
X226852Y134261D01*
X225915Y134447D01*
X198189D01*
X180947Y151689D01*
Y160553D01*
X193838D01*
Y159838D01*
X200162D01*
Y160553D01*
X206486D01*
X209623Y157416D01*
X209728Y156623D01*
X210066Y155806D01*
X210604Y155104D01*
X211306Y154566D01*
X212123Y154227D01*
X213000Y154112D01*
X213877Y154227D01*
X214694Y154566D01*
X215329Y155053D01*
X224495D01*
X224905Y154738D01*
X225675Y154419D01*
X226500Y154311D01*
X227326Y154419D01*
X228095Y154738D01*
X228755Y155245D01*
X229262Y155905D01*
X229581Y156675D01*
X229689Y157500D01*
X229581Y158326D01*
X229262Y159095D01*
X228755Y159755D01*
X228095Y160262D01*
X227326Y160581D01*
X226500Y160689D01*
X225675Y160581D01*
X224905Y160262D01*
X224495Y159947D01*
X215329D01*
X214694Y160434D01*
X213877Y160773D01*
X213084Y160877D01*
X209230Y164730D01*
X208436Y165261D01*
X207500Y165447D01*
X200162D01*
Y166162D01*
X193838D01*
Y165447D01*
X180947D01*
Y190500D01*
Y223553D01*
X194338D01*
Y222838D01*
X200662D01*
Y223553D01*
X206986D01*
X210123Y220416D01*
X210227Y219623D01*
X210566Y218806D01*
X211104Y218104D01*
X211806Y217566D01*
X212623Y217228D01*
X213500Y217112D01*
X214377Y217228D01*
X215194Y217566D01*
X215829Y218053D01*
X224495D01*
X224905Y217738D01*
X225675Y217419D01*
X226500Y217311D01*
X227326Y217419D01*
X228095Y217738D01*
X228755Y218245D01*
X229262Y218905D01*
X229581Y219674D01*
X229689Y220500D01*
X229581Y221325D01*
X229262Y222095D01*
X228755Y222755D01*
X228095Y223262D01*
X227326Y223581D01*
X226500Y223689D01*
X225675Y223581D01*
X224905Y223262D01*
X224495Y222947D01*
X215829D01*
X215194Y223434D01*
X214377Y223773D01*
X213584Y223877D01*
X209730Y227730D01*
X208936Y228261D01*
X208000Y228447D01*
X200662D01*
Y229162D01*
X194338D01*
Y228447D01*
X180947D01*
Y243986D01*
X205230Y268270D01*
X205761Y269064D01*
X205947Y270000D01*
Y285529D01*
X206355D01*
Y287999D01*
X212230Y293874D01*
X212761Y294668D01*
X212947Y295605D01*
Y310944D01*
X214056D01*
Y318056D01*
X212947D01*
Y356000D01*
X212761Y356936D01*
X212230Y357730D01*
X208538Y361423D01*
X207744Y361953D01*
X206808Y362139D01*
X204401D01*
X204096Y363146D01*
X203336Y364568D01*
X202314Y365814D01*
X201068Y366836D01*
X199646Y367596D01*
X198104Y368064D01*
X196500Y368222D01*
D02*
G37*
G36*
X61000Y268991D02*
X60226Y268889D01*
X59504Y268590D01*
X58885Y268115D01*
X58410Y267495D01*
X58111Y266774D01*
X58009Y266000D01*
X58111Y265226D01*
X58410Y264505D01*
X58885Y263885D01*
X59504Y263410D01*
X60226Y263111D01*
X61000Y263009D01*
X61774Y263111D01*
X61944Y263181D01*
X82974Y242151D01*
Y223300D01*
X82507Y223106D01*
X81764Y222536D01*
X81194Y221793D01*
X80835Y220928D01*
X80713Y220000D01*
X80835Y219072D01*
X81194Y218207D01*
X81764Y217464D01*
X82507Y216894D01*
X83372Y216535D01*
X84300Y216413D01*
X85228Y216535D01*
X86093Y216894D01*
X86836Y217464D01*
X87406Y218207D01*
X87765Y219072D01*
X87887Y220000D01*
X87765Y220928D01*
X87406Y221793D01*
X86836Y222536D01*
X86093Y223106D01*
X85625Y223300D01*
Y242700D01*
X85525Y243207D01*
X85237Y243637D01*
X63819Y265056D01*
X63889Y265226D01*
X63991Y266000D01*
X63889Y266774D01*
X63590Y267495D01*
X63115Y268115D01*
X62495Y268590D01*
X61774Y268889D01*
X61000Y268991D01*
D02*
G37*
G36*
X291400Y219881D02*
Y216400D01*
X294881D01*
X294800Y217018D01*
X294407Y217967D01*
X293781Y218781D01*
X292967Y219407D01*
X292018Y219800D01*
X291400Y219881D01*
D02*
G37*
G36*
X290600D02*
X289982Y219800D01*
X289033Y219407D01*
X288218Y218781D01*
X287593Y217967D01*
X287200Y217018D01*
X287119Y216400D01*
X290600D01*
Y219881D01*
D02*
G37*
G36*
X294881Y215600D02*
X291400D01*
Y212119D01*
X292018Y212200D01*
X292967Y212593D01*
X293781Y213218D01*
X294407Y214033D01*
X294800Y214982D01*
X294881Y215600D01*
D02*
G37*
G36*
X290600D02*
X287119D01*
X287200Y214982D01*
X287593Y214033D01*
X288218Y213218D01*
X289033Y212593D01*
X289982Y212200D01*
X290600Y212119D01*
Y215600D01*
D02*
G37*
G36*
X111400Y213935D02*
Y211400D01*
X113935D01*
X113886Y211773D01*
X113587Y212494D01*
X113112Y213112D01*
X112494Y213587D01*
X111773Y213886D01*
X111400Y213935D01*
D02*
G37*
G36*
X110600D02*
X110227Y213886D01*
X109506Y213587D01*
X108888Y213112D01*
X108413Y212494D01*
X108114Y211773D01*
X108065Y211400D01*
X110600D01*
Y213935D01*
D02*
G37*
G36*
X113935Y210600D02*
X111400D01*
Y208065D01*
X111773Y208114D01*
X112494Y208413D01*
X113112Y208888D01*
X113587Y209506D01*
X113886Y210227D01*
X113935Y210600D01*
D02*
G37*
G36*
X110600D02*
X108065D01*
X108114Y210227D01*
X108413Y209506D01*
X108888Y208888D01*
X109506Y208413D01*
X110227Y208114D01*
X110600Y208065D01*
Y210600D01*
D02*
G37*
G36*
X360032Y219728D02*
X358794Y219606D01*
X357604Y219245D01*
X356508Y218659D01*
X355547Y217870D01*
X354758Y216910D01*
X354172Y215813D01*
X353811Y214623D01*
X353689Y213386D01*
X353811Y212148D01*
X354172Y210959D01*
X354758Y209862D01*
X355547Y208901D01*
X356508Y208112D01*
X357604Y207526D01*
X358794Y207165D01*
X360032Y207044D01*
X361269Y207165D01*
X362459Y207526D01*
X363555Y208112D01*
X364516Y208901D01*
X365305Y209862D01*
X365891Y210959D01*
X366252Y212148D01*
X366374Y213386D01*
X366252Y214623D01*
X365891Y215813D01*
X365305Y216910D01*
X364516Y217870D01*
X363555Y218659D01*
X362459Y219245D01*
X361269Y219606D01*
X360032Y219728D01*
D02*
G37*
G36*
X332472Y208910D02*
X331390Y208767D01*
X330381Y208349D01*
X329515Y207685D01*
X328851Y206819D01*
X328533Y206053D01*
X319371D01*
X319081Y206753D01*
X318424Y207609D01*
X317568Y208266D01*
X316570Y208680D01*
X315500Y208820D01*
X314430Y208680D01*
X313432Y208266D01*
X312576Y207609D01*
X311919Y206753D01*
X311506Y205755D01*
X311365Y204685D01*
X311506Y203615D01*
X311919Y202617D01*
X312576Y201761D01*
X313432Y201104D01*
X314430Y200691D01*
X315500Y200550D01*
X316570Y200691D01*
X317568Y201104D01*
X318424Y201761D01*
X319081Y202617D01*
X319406Y203402D01*
X328533D01*
X328851Y202636D01*
X329515Y201770D01*
X330381Y201106D01*
X331390Y200688D01*
X332472Y200545D01*
X333555Y200688D01*
X334564Y201106D01*
X335430Y201770D01*
X336094Y202636D01*
X336512Y203645D01*
X336655Y204728D01*
X336512Y205810D01*
X336094Y206819D01*
X335430Y207685D01*
X334564Y208349D01*
X333555Y208767D01*
X332472Y208910D01*
D02*
G37*
G36*
X84300Y203587D02*
X83372Y203465D01*
X82507Y203106D01*
X81764Y202536D01*
X81194Y201793D01*
X80835Y200928D01*
X80713Y200000D01*
X80835Y199072D01*
X81194Y198207D01*
X81764Y197464D01*
X82507Y196894D01*
X83372Y196536D01*
X84300Y196413D01*
X85228Y196536D01*
X86093Y196894D01*
X86836Y197464D01*
X87406Y198207D01*
X87765Y199072D01*
X87887Y200000D01*
X87765Y200928D01*
X87406Y201793D01*
X86836Y202536D01*
X86093Y203106D01*
X85228Y203465D01*
X84300Y203587D01*
D02*
G37*
G36*
X58800D02*
X57872Y203465D01*
X57007Y203106D01*
X56264Y202536D01*
X55694Y201793D01*
X55335Y200928D01*
X55213Y200000D01*
X55335Y199072D01*
X55694Y198207D01*
X56264Y197464D01*
X57007Y196894D01*
X57872Y196536D01*
X58800Y196413D01*
X59728Y196536D01*
X60593Y196894D01*
X61336Y197464D01*
X61906Y198207D01*
X62265Y199072D01*
X62387Y200000D01*
X62265Y200928D01*
X61906Y201793D01*
X61336Y202536D01*
X60593Y203106D01*
X59728Y203465D01*
X58800Y203587D01*
D02*
G37*
G36*
X332472Y198867D02*
X331390Y198725D01*
X330381Y198307D01*
X329515Y197642D01*
X328851Y196776D01*
X328533Y196010D01*
X319389D01*
X319081Y196753D01*
X318424Y197609D01*
X317568Y198266D01*
X316570Y198679D01*
X315500Y198820D01*
X314430Y198679D01*
X313432Y198266D01*
X312576Y197609D01*
X311919Y196753D01*
X311506Y195755D01*
X311365Y194685D01*
X311506Y193615D01*
X311919Y192617D01*
X312576Y191761D01*
X313432Y191104D01*
X314430Y190691D01*
X315500Y190550D01*
X316570Y190691D01*
X317568Y191104D01*
X318424Y191761D01*
X319081Y192617D01*
X319389Y193360D01*
X328533D01*
X328851Y192594D01*
X329515Y191728D01*
X330381Y191063D01*
X331390Y190645D01*
X332472Y190503D01*
X333555Y190645D01*
X334564Y191063D01*
X335430Y191728D01*
X336094Y192594D01*
X336512Y193603D01*
X336655Y194685D01*
X336512Y195767D01*
X336094Y196776D01*
X335430Y197642D01*
X334564Y198307D01*
X333555Y198725D01*
X332472Y198867D01*
D02*
G37*
G36*
X120201Y233745D02*
X119118Y233603D01*
X118110Y233185D01*
X117244Y232520D01*
X116579Y231654D01*
X116161Y230645D01*
X116019Y229563D01*
X116161Y228481D01*
X116579Y227472D01*
X117244Y226606D01*
X117754Y226214D01*
Y211214D01*
X110701Y204162D01*
X107838D01*
Y197838D01*
X108553D01*
Y193447D01*
X102682D01*
X102496Y193590D01*
X101774Y193889D01*
X101000Y193991D01*
X100226Y193889D01*
X99505Y193590D01*
X99318Y193447D01*
X88261D01*
X87324Y193261D01*
X86530Y192730D01*
X73470Y179670D01*
X72939Y178876D01*
X72753Y177939D01*
Y163447D01*
X63232D01*
X62664Y163883D01*
X61861Y164215D01*
X61000Y164329D01*
X60138Y164215D01*
X59336Y163883D01*
X58646Y163354D01*
X58117Y162664D01*
X57785Y161862D01*
X57671Y161000D01*
X57785Y160138D01*
X58117Y159336D01*
X58646Y158646D01*
X59336Y158117D01*
X60138Y157785D01*
X61000Y157671D01*
X61861Y157785D01*
X62664Y158117D01*
X63232Y158553D01*
X72753D01*
Y148241D01*
X67959Y143447D01*
X63232D01*
X62664Y143883D01*
X61861Y144215D01*
X61000Y144328D01*
X60138Y144215D01*
X59336Y143883D01*
X58646Y143354D01*
X58117Y142664D01*
X57785Y141861D01*
X57671Y141000D01*
X57785Y140138D01*
X58117Y139336D01*
X58646Y138646D01*
X59336Y138118D01*
X60138Y137785D01*
X61000Y137671D01*
X61861Y137785D01*
X62664Y138118D01*
X63232Y138553D01*
X68972D01*
X69909Y138739D01*
X70703Y139270D01*
X76930Y145497D01*
X77461Y146291D01*
X77647Y147228D01*
Y161000D01*
Y176926D01*
X89274Y188553D01*
X99318D01*
X99505Y188410D01*
X100226Y188111D01*
X101000Y188009D01*
X101774Y188111D01*
X102496Y188410D01*
X102682Y188553D01*
X109318D01*
X109504Y188410D01*
X110226Y188111D01*
X111000Y188009D01*
X111774Y188111D01*
X112496Y188410D01*
X112682Y188553D01*
X119318D01*
X119504Y188410D01*
X120226Y188111D01*
X121000Y188009D01*
X121774Y188111D01*
X122495Y188410D01*
X122682Y188553D01*
X129318D01*
X129505Y188410D01*
X130226Y188111D01*
X131000Y188009D01*
X131774Y188111D01*
X132495Y188410D01*
X133115Y188885D01*
X133590Y189505D01*
X133889Y190226D01*
X133991Y191000D01*
X133889Y191774D01*
X133590Y192496D01*
X133115Y193115D01*
X132495Y193590D01*
X131774Y193889D01*
X131000Y193991D01*
X130226Y193889D01*
X129505Y193590D01*
X129318Y193447D01*
X122682D01*
X122495Y193590D01*
X121774Y193889D01*
X121000Y193991D01*
X120226Y193889D01*
X119504Y193590D01*
X119318Y193447D01*
X113447D01*
Y197838D01*
X114162D01*
Y200701D01*
X121931Y208471D01*
X122461Y209264D01*
X122648Y210201D01*
Y226214D01*
X123158Y226606D01*
X123823Y227472D01*
X124241Y228481D01*
X124383Y229563D01*
X124241Y230645D01*
X123823Y231654D01*
X123158Y232520D01*
X122292Y233185D01*
X121283Y233603D01*
X120201Y233745D01*
D02*
G37*
G36*
X291400Y196881D02*
Y193400D01*
X294881D01*
X294800Y194018D01*
X294407Y194967D01*
X293781Y195782D01*
X292967Y196407D01*
X292018Y196800D01*
X291400Y196881D01*
D02*
G37*
G36*
X290600D02*
X289982Y196800D01*
X289033Y196407D01*
X288218Y195782D01*
X287593Y194967D01*
X287200Y194018D01*
X287119Y193400D01*
X290600D01*
Y196881D01*
D02*
G37*
G36*
X294881Y192600D02*
X291400D01*
Y189119D01*
X292018Y189200D01*
X292967Y189593D01*
X293781Y190218D01*
X294407Y191033D01*
X294800Y191982D01*
X294881Y192600D01*
D02*
G37*
G36*
X290600D02*
X287119D01*
X287200Y191982D01*
X287593Y191033D01*
X288218Y190218D01*
X289033Y189593D01*
X289982Y189200D01*
X290600Y189119D01*
Y192600D01*
D02*
G37*
G36*
X100551Y328977D02*
X99263Y328807D01*
X98063Y328310D01*
X97032Y327519D01*
X96241Y326488D01*
X95744Y325288D01*
X95574Y324000D01*
X95744Y322712D01*
X96241Y321512D01*
X97032Y320481D01*
X98063Y319690D01*
X99263Y319193D01*
X100551Y319023D01*
X101839Y319193D01*
X103002Y319675D01*
X149674Y273002D01*
Y204087D01*
X149306Y203934D01*
X148604Y203396D01*
X148066Y202694D01*
X147728Y201877D01*
X147612Y201000D01*
X147728Y200123D01*
X148066Y199306D01*
X148604Y198604D01*
X149306Y198066D01*
X149674Y197913D01*
Y193661D01*
X149504Y193590D01*
X148885Y193115D01*
X148410Y192496D01*
X148111Y191774D01*
X148009Y191000D01*
X148111Y190226D01*
X148410Y189505D01*
X148885Y188885D01*
X149504Y188410D01*
X150226Y188111D01*
X151000Y188009D01*
X151774Y188111D01*
X152496Y188410D01*
X153115Y188885D01*
X153590Y189505D01*
X153889Y190226D01*
X153991Y191000D01*
X153889Y191774D01*
X153590Y192496D01*
X153115Y193115D01*
X152496Y193590D01*
X152325Y193661D01*
Y197913D01*
X152694Y198066D01*
X153396Y198604D01*
X153934Y199306D01*
X154272Y200123D01*
X154388Y201000D01*
X154272Y201877D01*
X153934Y202694D01*
X153396Y203396D01*
X152694Y203934D01*
X152325Y204087D01*
Y273551D01*
X152225Y274058D01*
X151937Y274488D01*
X104876Y321549D01*
X105358Y322712D01*
X105528Y324000D01*
X105358Y325288D01*
X104861Y326488D01*
X104070Y327519D01*
X103039Y328310D01*
X101839Y328807D01*
X100551Y328977D01*
D02*
G37*
G36*
X131000Y204388D02*
X130123Y204273D01*
X129306Y203934D01*
X128604Y203396D01*
X128066Y202694D01*
X127727Y201877D01*
X127612Y201000D01*
X127727Y200123D01*
X128066Y199306D01*
X128604Y198604D01*
X129306Y198066D01*
X130123Y197728D01*
X131000Y197612D01*
X131877Y197728D01*
X132694Y198066D01*
X133396Y198604D01*
X133838Y199181D01*
X134414Y199312D01*
X139586Y194140D01*
Y193624D01*
X139505Y193590D01*
X138885Y193115D01*
X138410Y192496D01*
X138111Y191774D01*
X138009Y191000D01*
X138111Y190226D01*
X138410Y189505D01*
X138885Y188885D01*
X139505Y188410D01*
X140226Y188111D01*
X141000Y188009D01*
X141774Y188111D01*
X142496Y188410D01*
X143115Y188885D01*
X143590Y189505D01*
X143889Y190226D01*
X143991Y191000D01*
X143889Y191774D01*
X143590Y192496D01*
X143115Y193115D01*
X142496Y193590D01*
X142237Y193698D01*
Y194689D01*
X142136Y195196D01*
X141849Y195626D01*
X135537Y201937D01*
X135107Y202225D01*
X134600Y202326D01*
X134087D01*
X133934Y202694D01*
X133396Y203396D01*
X132694Y203934D01*
X131877Y204273D01*
X131000Y204388D01*
D02*
G37*
G36*
X332472Y188825D02*
X331390Y188682D01*
X330381Y188264D01*
X329515Y187600D01*
X328851Y186734D01*
X328533Y185968D01*
X319406D01*
X319081Y186753D01*
X318424Y187609D01*
X317568Y188266D01*
X316570Y188680D01*
X315500Y188820D01*
X314430Y188680D01*
X313432Y188266D01*
X312576Y187609D01*
X311919Y186753D01*
X311506Y185755D01*
X311365Y184685D01*
X311506Y183615D01*
X311919Y182617D01*
X312576Y181761D01*
X313432Y181104D01*
X314430Y180691D01*
X315500Y180550D01*
X316570Y180691D01*
X317568Y181104D01*
X318424Y181761D01*
X319081Y182617D01*
X319371Y183317D01*
X328533D01*
X328851Y182551D01*
X329515Y181685D01*
X330381Y181021D01*
X331390Y180603D01*
X332472Y180460D01*
X333555Y180603D01*
X334564Y181021D01*
X335430Y181685D01*
X336094Y182551D01*
X336512Y183560D01*
X336655Y184643D01*
X336512Y185725D01*
X336094Y186734D01*
X335430Y187600D01*
X334564Y188264D01*
X333555Y188682D01*
X332472Y188825D01*
D02*
G37*
G36*
X291400Y186881D02*
Y183400D01*
X294881D01*
X294800Y184018D01*
X294407Y184967D01*
X293781Y185782D01*
X292967Y186407D01*
X292018Y186800D01*
X291400Y186881D01*
D02*
G37*
G36*
X290600D02*
X289982Y186800D01*
X289033Y186407D01*
X288218Y185782D01*
X287593Y184967D01*
X287200Y184018D01*
X287119Y183400D01*
X290600D01*
Y186881D01*
D02*
G37*
G36*
X294881Y182600D02*
X291400D01*
Y179119D01*
X292018Y179200D01*
X292967Y179593D01*
X293781Y180219D01*
X294407Y181033D01*
X294800Y181982D01*
X294881Y182600D01*
D02*
G37*
G36*
X290600D02*
X287119D01*
X287200Y181982D01*
X287593Y181033D01*
X288218Y180219D01*
X289033Y179593D01*
X289982Y179200D01*
X290600Y179119D01*
Y182600D01*
D02*
G37*
G36*
X11551Y328977D02*
X10263Y328807D01*
X9063Y328310D01*
X8032Y327519D01*
X7241Y326488D01*
X6744Y325288D01*
X6574Y324000D01*
X6744Y322712D01*
X7241Y321512D01*
X8032Y320481D01*
X9063Y319690D01*
X10226Y319209D01*
Y277249D01*
X10326Y276742D01*
X10614Y276312D01*
X22575Y264351D01*
Y250545D01*
X10463Y238433D01*
X10175Y238003D01*
X10074Y237495D01*
Y194100D01*
X10175Y193593D01*
X10463Y193163D01*
X21229Y182396D01*
X21035Y181928D01*
X20913Y181000D01*
X21035Y180072D01*
X21394Y179207D01*
X21964Y178464D01*
X22707Y177894D01*
X23572Y177535D01*
X24500Y177413D01*
X25428Y177535D01*
X26293Y177894D01*
X27036Y178464D01*
X27606Y179207D01*
X27800Y179674D01*
X38339D01*
X38410Y179505D01*
X38885Y178885D01*
X39505Y178410D01*
X40226Y178111D01*
X41000Y178009D01*
X41774Y178111D01*
X42496Y178410D01*
X43115Y178885D01*
X43590Y179505D01*
X43889Y180226D01*
X43991Y181000D01*
X43889Y181774D01*
X43590Y182495D01*
X43115Y183115D01*
X42496Y183590D01*
X41774Y183889D01*
X41000Y183991D01*
X40226Y183889D01*
X39505Y183590D01*
X38885Y183115D01*
X38410Y182495D01*
X38339Y182325D01*
X27800D01*
X27606Y182793D01*
X27036Y183536D01*
X26293Y184106D01*
X25428Y184465D01*
X24500Y184587D01*
X23572Y184465D01*
X23104Y184271D01*
X12725Y194649D01*
Y236947D01*
X24837Y249058D01*
X25125Y249488D01*
X25225Y249995D01*
Y264900D01*
X25125Y265407D01*
X24837Y265837D01*
X12877Y277798D01*
Y319209D01*
X14039Y319690D01*
X15070Y320481D01*
X15861Y321512D01*
X16358Y322712D01*
X16528Y324000D01*
X16358Y325288D01*
X15861Y326488D01*
X15070Y327519D01*
X14039Y328310D01*
X12839Y328807D01*
X11551Y328977D01*
D02*
G37*
G36*
X213400Y180634D02*
Y177900D01*
X216134D01*
X216078Y178325D01*
X215759Y179093D01*
X215253Y179753D01*
X214593Y180259D01*
X213825Y180578D01*
X213400Y180634D01*
D02*
G37*
G36*
X212600D02*
X212175Y180578D01*
X211407Y180259D01*
X210747Y179753D01*
X210241Y179093D01*
X209922Y178325D01*
X209866Y177900D01*
X212600D01*
Y180634D01*
D02*
G37*
G36*
X275500Y197135D02*
X274430Y196994D01*
X273432Y196581D01*
X272576Y195924D01*
X271919Y195068D01*
X271505Y194070D01*
X271365Y193000D01*
X271505Y191930D01*
X271919Y190932D01*
X272576Y190076D01*
X273053Y189710D01*
Y186290D01*
X272576Y185924D01*
X271919Y185068D01*
X271505Y184070D01*
X271365Y183000D01*
X271505Y181930D01*
X271919Y180932D01*
X272576Y180076D01*
X273053Y179710D01*
Y176290D01*
X272576Y175924D01*
X272210Y175447D01*
X261662D01*
Y176162D01*
X258799D01*
X255730Y179230D01*
X254936Y179761D01*
X254000Y179947D01*
X244829D01*
X244194Y180434D01*
X243377Y180772D01*
X242500Y180888D01*
X241623Y180772D01*
X240806Y180434D01*
X240171Y179947D01*
X228505D01*
X228095Y180262D01*
X227326Y180581D01*
X226500Y180689D01*
X225675Y180581D01*
X224905Y180262D01*
X224245Y179755D01*
X223738Y179095D01*
X223419Y178325D01*
X223311Y177500D01*
X223419Y176674D01*
X223738Y175905D01*
X224245Y175245D01*
X224905Y174738D01*
X225675Y174419D01*
X226500Y174311D01*
X227326Y174419D01*
X228095Y174738D01*
X228505Y175053D01*
X240171D01*
X240806Y174566D01*
X241623Y174227D01*
X242500Y174112D01*
X243377Y174227D01*
X244194Y174566D01*
X244829Y175053D01*
X252986D01*
X255338Y172701D01*
Y169838D01*
X261662D01*
Y170553D01*
X272210D01*
X272576Y170076D01*
X273053Y169710D01*
Y166290D01*
X272576Y165924D01*
X271919Y165068D01*
X271505Y164070D01*
X271365Y163000D01*
X271505Y161930D01*
X271919Y160932D01*
X272576Y160076D01*
X273053Y159710D01*
Y156290D01*
X272576Y155924D01*
X271919Y155068D01*
X271505Y154070D01*
X271365Y153000D01*
X271505Y151930D01*
X271919Y150932D01*
X272576Y150076D01*
X273432Y149419D01*
X274430Y149005D01*
X275500Y148865D01*
X276570Y149005D01*
X277568Y149419D01*
X278424Y150076D01*
X279081Y150932D01*
X279495Y151930D01*
X279635Y153000D01*
X279495Y154070D01*
X279081Y155068D01*
X278424Y155924D01*
X277947Y156290D01*
Y159710D01*
X278424Y160076D01*
X279081Y160932D01*
X279495Y161930D01*
X279635Y163000D01*
X279495Y164070D01*
X279081Y165068D01*
X278424Y165924D01*
X277947Y166290D01*
Y169710D01*
X278424Y170076D01*
X279081Y170932D01*
X279495Y171930D01*
X279635Y173000D01*
X279495Y174070D01*
X279081Y175068D01*
X278424Y175924D01*
X277947Y176290D01*
Y179710D01*
X278424Y180076D01*
X279081Y180932D01*
X279495Y181930D01*
X279635Y183000D01*
X279495Y184070D01*
X279081Y185068D01*
X278424Y185924D01*
X277947Y186290D01*
Y189710D01*
X278424Y190076D01*
X279081Y190932D01*
X279495Y191930D01*
X279635Y193000D01*
X279495Y194070D01*
X279081Y195068D01*
X278424Y195924D01*
X277568Y196581D01*
X276570Y196994D01*
X275500Y197135D01*
D02*
G37*
G36*
X216134Y177100D02*
X213400D01*
Y174366D01*
X213825Y174422D01*
X214593Y174741D01*
X215253Y175247D01*
X215759Y175907D01*
X216078Y176675D01*
X216134Y177100D01*
D02*
G37*
G36*
X212600D02*
X209866D01*
X209922Y176675D01*
X210241Y175907D01*
X210747Y175247D01*
X211407Y174741D01*
X212175Y174422D01*
X212600Y174366D01*
Y177100D01*
D02*
G37*
G36*
X61000Y258991D02*
X60226Y258889D01*
X59504Y258590D01*
X58885Y258115D01*
X58410Y257495D01*
X58111Y256774D01*
X58009Y256000D01*
X58111Y255226D01*
X58410Y254504D01*
X58885Y253885D01*
X59504Y253410D01*
X59675Y253339D01*
Y248661D01*
X59504Y248590D01*
X58885Y248115D01*
X58410Y247496D01*
X58339Y247325D01*
X37595D01*
X37088Y247225D01*
X36658Y246937D01*
X23006Y233286D01*
X22241Y233603D01*
X21158Y233745D01*
X20076Y233603D01*
X19067Y233185D01*
X18201Y232520D01*
X17536Y231654D01*
X17119Y230645D01*
X16976Y229563D01*
X17119Y228481D01*
X17536Y227472D01*
X18201Y226606D01*
X19067Y225941D01*
X19833Y225624D01*
Y219069D01*
X19506Y218934D01*
X18804Y218396D01*
X18266Y217694D01*
X17928Y216877D01*
X17812Y216000D01*
X17928Y215123D01*
X18266Y214306D01*
X18804Y213604D01*
X19506Y213066D01*
X20323Y212727D01*
X21200Y212612D01*
X22077Y212727D01*
X22894Y213066D01*
X23596Y213604D01*
X24134Y214306D01*
X24473Y215123D01*
X24588Y216000D01*
X24473Y216877D01*
X24134Y217694D01*
X23596Y218396D01*
X22894Y218934D01*
X22484Y219104D01*
Y225624D01*
X23249Y225941D01*
X24115Y226606D01*
X24780Y227472D01*
X25198Y228481D01*
X25341Y229563D01*
X25198Y230645D01*
X24881Y231411D01*
X38144Y244674D01*
X58339D01*
X58410Y244504D01*
X58885Y243885D01*
X59504Y243410D01*
X60226Y243111D01*
X61000Y243009D01*
X61774Y243111D01*
X61944Y243181D01*
X67075Y238051D01*
Y178949D01*
X62200Y174075D01*
X61861Y174215D01*
X61000Y174328D01*
X60138Y174215D01*
X59336Y173882D01*
X58646Y173354D01*
X58117Y172664D01*
X57785Y171862D01*
X57671Y171000D01*
X57785Y170139D01*
X58117Y169336D01*
X58646Y168646D01*
X59336Y168117D01*
X60138Y167785D01*
X61000Y167672D01*
X61861Y167785D01*
X62664Y168117D01*
X63354Y168646D01*
X63883Y169336D01*
X64215Y170139D01*
X64328Y171000D01*
X64215Y171862D01*
X64075Y172200D01*
X69337Y177463D01*
X69625Y177893D01*
X69726Y178400D01*
Y238600D01*
X69625Y239107D01*
X69337Y239537D01*
X63819Y245056D01*
X63889Y245226D01*
X63991Y246000D01*
X63889Y246774D01*
X63590Y247496D01*
X63115Y248115D01*
X62495Y248590D01*
X62326Y248661D01*
Y253339D01*
X62495Y253410D01*
X63115Y253885D01*
X63590Y254504D01*
X63889Y255226D01*
X63991Y256000D01*
X63889Y256774D01*
X63590Y257495D01*
X63115Y258115D01*
X62495Y258590D01*
X61774Y258889D01*
X61000Y258991D01*
D02*
G37*
G36*
X291400Y176881D02*
Y173400D01*
X294881D01*
X294800Y174018D01*
X294407Y174967D01*
X293781Y175782D01*
X292967Y176407D01*
X292018Y176800D01*
X291400Y176881D01*
D02*
G37*
G36*
X197400Y175935D02*
Y173400D01*
X199935D01*
X199886Y173773D01*
X199587Y174494D01*
X199112Y175112D01*
X198494Y175587D01*
X197773Y175886D01*
X197400Y175935D01*
D02*
G37*
G36*
X196600D02*
X196227Y175886D01*
X195506Y175587D01*
X194887Y175112D01*
X194413Y174494D01*
X194114Y173773D01*
X194065Y173400D01*
X196600D01*
Y175935D01*
D02*
G37*
G36*
X290600Y176881D02*
X289982Y176800D01*
X289033Y176407D01*
X288218Y175782D01*
X287593Y174967D01*
X287200Y174018D01*
X287119Y173400D01*
X290600D01*
Y176881D01*
D02*
G37*
G36*
X199935Y172600D02*
X197400D01*
Y170065D01*
X197773Y170114D01*
X198494Y170413D01*
X199112Y170887D01*
X199587Y171506D01*
X199886Y172227D01*
X199935Y172600D01*
D02*
G37*
G36*
X196600D02*
X194065D01*
X194114Y172227D01*
X194413Y171506D01*
X194887Y170887D01*
X195506Y170413D01*
X196227Y170114D01*
X196600Y170065D01*
Y172600D01*
D02*
G37*
G36*
X360032Y182327D02*
X358794Y182205D01*
X357604Y181844D01*
X356508Y181258D01*
X355547Y180469D01*
X354758Y179508D01*
X354172Y178411D01*
X353811Y177222D01*
X353689Y175984D01*
X353811Y174747D01*
X354172Y173557D01*
X354758Y172461D01*
X355547Y171500D01*
X356508Y170711D01*
X357604Y170125D01*
X358794Y169764D01*
X360032Y169642D01*
X361269Y169764D01*
X362459Y170125D01*
X363555Y170711D01*
X364516Y171500D01*
X365305Y172461D01*
X365891Y173557D01*
X366252Y174747D01*
X366374Y175984D01*
X366252Y177222D01*
X365891Y178411D01*
X365305Y179508D01*
X364516Y180469D01*
X363555Y181258D01*
X362459Y181844D01*
X361269Y182205D01*
X360032Y182327D01*
D02*
G37*
G36*
X294881Y172600D02*
X291400D01*
Y169119D01*
X292018Y169200D01*
X292967Y169593D01*
X293781Y170219D01*
X294407Y171033D01*
X294800Y171982D01*
X294881Y172600D01*
D02*
G37*
G36*
X290600D02*
X287119D01*
X287200Y171982D01*
X287593Y171033D01*
X288218Y170219D01*
X289033Y169593D01*
X289982Y169200D01*
X290600Y169119D01*
Y172600D01*
D02*
G37*
G36*
X226900Y170435D02*
Y167900D01*
X229435D01*
X229386Y168273D01*
X229087Y168994D01*
X228612Y169613D01*
X227994Y170087D01*
X227273Y170386D01*
X226900Y170435D01*
D02*
G37*
G36*
X226100D02*
X225727Y170386D01*
X225006Y170087D01*
X224388Y169613D01*
X223913Y168994D01*
X223614Y168273D01*
X223565Y167900D01*
X226100D01*
Y170435D01*
D02*
G37*
G36*
X91000Y184328D02*
X90139Y184215D01*
X89336Y183882D01*
X88646Y183354D01*
X88117Y182664D01*
X87785Y181861D01*
X87672Y181000D01*
X87785Y180139D01*
X88117Y179336D01*
X88646Y178646D01*
X89336Y178118D01*
X89675Y177977D01*
Y174023D01*
X89336Y173882D01*
X88646Y173354D01*
X88117Y172664D01*
X87785Y171862D01*
X87672Y171000D01*
X87785Y170139D01*
X87925Y169800D01*
X82037Y163912D01*
X81750Y163482D01*
X81649Y162975D01*
Y143124D01*
X74063Y135537D01*
X73775Y135107D01*
X73674Y134600D01*
Y95042D01*
X73775Y94535D01*
X74063Y94105D01*
X91229Y76938D01*
X91035Y76470D01*
X90913Y75542D01*
X91035Y74614D01*
X91394Y73749D01*
X91964Y73006D01*
X92707Y72436D01*
X93572Y72078D01*
X94500Y71955D01*
X95428Y72078D01*
X96293Y72436D01*
X97036Y73006D01*
X97606Y73749D01*
X97965Y74614D01*
X98087Y75542D01*
X97965Y76470D01*
X97606Y77335D01*
X97036Y78078D01*
X96293Y78648D01*
X95428Y79006D01*
X94500Y79129D01*
X93572Y79006D01*
X93104Y78813D01*
X76326Y95591D01*
Y134051D01*
X83912Y141637D01*
X84199Y142067D01*
X84300Y142575D01*
Y162425D01*
X89800Y167925D01*
X90139Y167785D01*
X91000Y167672D01*
X91861Y167785D01*
X92664Y168117D01*
X93354Y168646D01*
X93883Y169336D01*
X94215Y170139D01*
X94328Y171000D01*
X94215Y171862D01*
X93883Y172664D01*
X93354Y173354D01*
X92664Y173882D01*
X92326Y174023D01*
Y177977D01*
X92664Y178118D01*
X93354Y178646D01*
X93883Y179336D01*
X94215Y180139D01*
X94328Y181000D01*
X94215Y181861D01*
X93883Y182664D01*
X93354Y183354D01*
X92664Y183882D01*
X91861Y184215D01*
X91000Y184328D01*
D02*
G37*
G36*
X229435Y167100D02*
X226900D01*
Y164565D01*
X227273Y164614D01*
X227994Y164913D01*
X228612Y165387D01*
X229087Y166006D01*
X229386Y166727D01*
X229435Y167100D01*
D02*
G37*
G36*
X226100D02*
X223565D01*
X223614Y166727D01*
X223913Y166006D01*
X224388Y165387D01*
X225006Y164913D01*
X225727Y164614D01*
X226100Y164565D01*
Y167100D01*
D02*
G37*
G36*
X291400Y166881D02*
Y163400D01*
X294881D01*
X294800Y164018D01*
X294407Y164967D01*
X293781Y165781D01*
X292967Y166407D01*
X292018Y166800D01*
X291400Y166881D01*
D02*
G37*
G36*
X258900Y165935D02*
Y163400D01*
X261435D01*
X261386Y163773D01*
X261087Y164494D01*
X260613Y165112D01*
X259994Y165587D01*
X259273Y165886D01*
X258900Y165935D01*
D02*
G37*
G36*
X258100D02*
X257727Y165886D01*
X257006Y165587D01*
X256387Y165112D01*
X255913Y164494D01*
X255614Y163773D01*
X255565Y163400D01*
X258100D01*
Y165935D01*
D02*
G37*
G36*
X290600Y166881D02*
X289982Y166800D01*
X289033Y166407D01*
X288218Y165781D01*
X287593Y164967D01*
X287200Y164018D01*
X287119Y163400D01*
X290600D01*
Y166881D01*
D02*
G37*
G36*
X151400Y163737D02*
Y161400D01*
X153737D01*
X153694Y161722D01*
X153416Y162395D01*
X152972Y162972D01*
X152395Y163416D01*
X151722Y163694D01*
X151400Y163737D01*
D02*
G37*
G36*
X111400D02*
Y161400D01*
X113737D01*
X113694Y161722D01*
X113416Y162395D01*
X112972Y162972D01*
X112395Y163416D01*
X111722Y163694D01*
X111400Y163737D01*
D02*
G37*
G36*
X150600D02*
X150278Y163694D01*
X149605Y163416D01*
X149028Y162972D01*
X148584Y162395D01*
X148306Y161722D01*
X148263Y161400D01*
X150600D01*
Y163737D01*
D02*
G37*
G36*
X110600D02*
X110278Y163694D01*
X109605Y163416D01*
X109028Y162972D01*
X108584Y162395D01*
X108306Y161722D01*
X108263Y161400D01*
X110600D01*
Y163737D01*
D02*
G37*
G36*
X261435Y162600D02*
X258900D01*
Y160065D01*
X259273Y160114D01*
X259994Y160413D01*
X260613Y160888D01*
X261087Y161506D01*
X261386Y162227D01*
X261435Y162600D01*
D02*
G37*
G36*
X258100D02*
X255565D01*
X255614Y162227D01*
X255913Y161506D01*
X256387Y160888D01*
X257006Y160413D01*
X257727Y160114D01*
X258100Y160065D01*
Y162600D01*
D02*
G37*
G36*
X294881D02*
X291400D01*
Y159119D01*
X292018Y159200D01*
X292967Y159593D01*
X293781Y160219D01*
X294407Y161033D01*
X294800Y161982D01*
X294881Y162600D01*
D02*
G37*
G36*
X290600D02*
X287119D01*
X287200Y161982D01*
X287593Y161033D01*
X288218Y160219D01*
X289033Y159593D01*
X289982Y159200D01*
X290600Y159119D01*
Y162600D01*
D02*
G37*
G36*
X153737Y160600D02*
X151400D01*
Y158263D01*
X151722Y158306D01*
X152395Y158584D01*
X152972Y159028D01*
X153416Y159605D01*
X153694Y160278D01*
X153737Y160600D01*
D02*
G37*
G36*
X113737D02*
X111400D01*
Y158263D01*
X111722Y158306D01*
X112395Y158584D01*
X112972Y159028D01*
X113416Y159605D01*
X113694Y160278D01*
X113737Y160600D01*
D02*
G37*
G36*
X150600D02*
X148263D01*
X148306Y160278D01*
X148584Y159605D01*
X149028Y159028D01*
X149605Y158584D01*
X150278Y158306D01*
X150600Y158263D01*
Y160600D01*
D02*
G37*
G36*
X110600D02*
X108263D01*
X108306Y160278D01*
X108584Y159605D01*
X109028Y159028D01*
X109605Y158584D01*
X110278Y158306D01*
X110600Y158263D01*
Y160600D01*
D02*
G37*
G36*
X124000Y169325D02*
X98000D01*
X97493Y169225D01*
X97063Y168937D01*
X92200Y164075D01*
X91861Y164215D01*
X91000Y164329D01*
X90139Y164215D01*
X89336Y163883D01*
X88646Y163354D01*
X88117Y162664D01*
X87785Y161862D01*
X87672Y161000D01*
X87785Y160138D01*
X88117Y159336D01*
X88646Y158646D01*
X89336Y158117D01*
X90139Y157785D01*
X91000Y157671D01*
X91861Y157785D01*
X92664Y158117D01*
X93354Y158646D01*
X93883Y159336D01*
X94215Y160138D01*
X94328Y161000D01*
X94215Y161862D01*
X94075Y162200D01*
X98549Y166674D01*
X123451D01*
X128181Y161944D01*
X128111Y161774D01*
X128009Y161000D01*
X128111Y160226D01*
X128410Y159504D01*
X128885Y158885D01*
X129505Y158410D01*
X130226Y158111D01*
X131000Y158009D01*
X131774Y158111D01*
X132495Y158410D01*
X133115Y158885D01*
X133590Y159504D01*
X133661Y159675D01*
X138339D01*
X138410Y159504D01*
X138885Y158885D01*
X139505Y158410D01*
X140226Y158111D01*
X141000Y158009D01*
X141774Y158111D01*
X142496Y158410D01*
X143115Y158885D01*
X143590Y159504D01*
X143889Y160226D01*
X143991Y161000D01*
X143889Y161774D01*
X143590Y162496D01*
X143115Y163115D01*
X142496Y163590D01*
X141774Y163889D01*
X141000Y163991D01*
X140226Y163889D01*
X139505Y163590D01*
X138885Y163115D01*
X138410Y162496D01*
X138339Y162326D01*
X133661D01*
X133590Y162496D01*
X133115Y163115D01*
X132495Y163590D01*
X131774Y163889D01*
X131000Y163991D01*
X130226Y163889D01*
X130056Y163819D01*
X124937Y168937D01*
X124507Y169225D01*
X124000Y169325D01*
D02*
G37*
G36*
X242900Y160634D02*
Y157900D01*
X245634D01*
X245578Y158325D01*
X245259Y159093D01*
X244753Y159753D01*
X244093Y160259D01*
X243325Y160578D01*
X242900Y160634D01*
D02*
G37*
G36*
X242100D02*
X241675Y160578D01*
X240907Y160259D01*
X240247Y159753D01*
X239741Y159093D01*
X239422Y158325D01*
X239366Y157900D01*
X242100D01*
Y160634D01*
D02*
G37*
G36*
X245634Y157100D02*
X242900D01*
Y154366D01*
X243325Y154422D01*
X244093Y154741D01*
X244753Y155247D01*
X245259Y155907D01*
X245578Y156675D01*
X245634Y157100D01*
D02*
G37*
G36*
X242100D02*
X239366D01*
X239422Y156675D01*
X239741Y155907D01*
X240247Y155247D01*
X240907Y154741D01*
X241675Y154422D01*
X242100Y154366D01*
Y157100D01*
D02*
G37*
G36*
X291400Y156881D02*
Y153400D01*
X294881D01*
X294800Y154018D01*
X294407Y154967D01*
X293781Y155781D01*
X292967Y156407D01*
X292018Y156800D01*
X291400Y156881D01*
D02*
G37*
G36*
X290600D02*
X289982Y156800D01*
X289033Y156407D01*
X288218Y155781D01*
X287593Y154967D01*
X287200Y154018D01*
X287119Y153400D01*
X290600D01*
Y156881D01*
D02*
G37*
G36*
X121000Y163991D02*
X120226Y163889D01*
X119504Y163590D01*
X118885Y163115D01*
X118410Y162496D01*
X118111Y161774D01*
X118009Y161000D01*
X118111Y160226D01*
X118410Y159504D01*
X118885Y158885D01*
X119504Y158410D01*
X119675Y158339D01*
Y154087D01*
X119306Y153934D01*
X118604Y153396D01*
X118066Y152694D01*
X117913Y152325D01*
X113661D01*
X113590Y152496D01*
X113115Y153115D01*
X112496Y153590D01*
X111774Y153889D01*
X111000Y153991D01*
X110226Y153889D01*
X109504Y153590D01*
X108885Y153115D01*
X108410Y152496D01*
X108111Y151774D01*
X108009Y151000D01*
X108111Y150226D01*
X108410Y149504D01*
X108885Y148885D01*
X109504Y148410D01*
X110226Y148111D01*
X111000Y148009D01*
X111774Y148111D01*
X112496Y148410D01*
X113115Y148885D01*
X113590Y149504D01*
X113661Y149674D01*
X117913D01*
X118066Y149306D01*
X118604Y148604D01*
X119306Y148066D01*
X120123Y147728D01*
X121000Y147612D01*
X121877Y147728D01*
X122694Y148066D01*
X123396Y148604D01*
X123934Y149306D01*
X124273Y150123D01*
X124388Y151000D01*
X124273Y151877D01*
X123934Y152694D01*
X123396Y153396D01*
X122694Y153934D01*
X122326Y154087D01*
Y158339D01*
X122495Y158410D01*
X123115Y158885D01*
X123590Y159504D01*
X123889Y160226D01*
X123991Y161000D01*
X123889Y161774D01*
X123590Y162496D01*
X123115Y163115D01*
X122495Y163590D01*
X121774Y163889D01*
X121000Y163991D01*
D02*
G37*
G36*
X360032Y164728D02*
X358794Y164606D01*
X357604Y164245D01*
X356508Y163659D01*
X355547Y162871D01*
X354758Y161909D01*
X354172Y160813D01*
X353811Y159623D01*
X353689Y158386D01*
X353811Y157149D01*
X354172Y155959D01*
X354758Y154862D01*
X355547Y153901D01*
X356508Y153112D01*
X357604Y152526D01*
X358794Y152165D01*
X360032Y152043D01*
X361269Y152165D01*
X362459Y152526D01*
X363555Y153112D01*
X364516Y153901D01*
X365305Y154862D01*
X365891Y155959D01*
X366252Y157149D01*
X366374Y158386D01*
X366252Y159623D01*
X365891Y160813D01*
X365305Y161909D01*
X364516Y162871D01*
X363555Y163659D01*
X362459Y164245D01*
X361269Y164606D01*
X360032Y164728D01*
D02*
G37*
G36*
X61400Y154074D02*
Y151400D01*
X64074D01*
X64020Y151809D01*
X63708Y152563D01*
X63211Y153211D01*
X62563Y153708D01*
X61809Y154020D01*
X61400Y154074D01*
D02*
G37*
G36*
X41400Y153737D02*
Y151400D01*
X43737D01*
X43694Y151722D01*
X43416Y152395D01*
X42972Y152972D01*
X42395Y153416D01*
X41722Y153694D01*
X41400Y153737D01*
D02*
G37*
G36*
X40600D02*
X40278Y153694D01*
X39605Y153416D01*
X39028Y152972D01*
X38584Y152395D01*
X38306Y151722D01*
X38263Y151400D01*
X40600D01*
Y153737D01*
D02*
G37*
G36*
X60600Y154074D02*
X60191Y154020D01*
X59437Y153708D01*
X58789Y153211D01*
X58292Y152563D01*
X57980Y151809D01*
X57926Y151400D01*
X60600D01*
Y154074D01*
D02*
G37*
G36*
X332472Y153910D02*
X331390Y153767D01*
X330381Y153349D01*
X329515Y152685D01*
X328851Y151819D01*
X328533Y151053D01*
X319371D01*
X319081Y151753D01*
X318424Y152609D01*
X317568Y153266D01*
X316570Y153680D01*
X315500Y153820D01*
X314430Y153680D01*
X313432Y153266D01*
X312576Y152609D01*
X311919Y151753D01*
X311506Y150755D01*
X311365Y149685D01*
X311506Y148615D01*
X311919Y147617D01*
X312576Y146761D01*
X313432Y146104D01*
X314430Y145691D01*
X315500Y145550D01*
X316570Y145691D01*
X317568Y146104D01*
X318424Y146761D01*
X319081Y147617D01*
X319406Y148402D01*
X328533D01*
X328851Y147636D01*
X329515Y146770D01*
X330381Y146106D01*
X331390Y145688D01*
X332472Y145545D01*
X333555Y145688D01*
X334564Y146106D01*
X335430Y146770D01*
X336094Y147636D01*
X336512Y148645D01*
X336655Y149728D01*
X336512Y150810D01*
X336094Y151819D01*
X335430Y152685D01*
X334564Y153349D01*
X333555Y153767D01*
X332472Y153910D01*
D02*
G37*
G36*
X294881Y152600D02*
X291400D01*
Y149119D01*
X292018Y149200D01*
X292967Y149593D01*
X293781Y150218D01*
X294407Y151033D01*
X294800Y151982D01*
X294881Y152600D01*
D02*
G37*
G36*
X290600D02*
X287119D01*
X287200Y151982D01*
X287593Y151033D01*
X288218Y150218D01*
X289033Y149593D01*
X289982Y149200D01*
X290600Y149119D01*
Y152600D01*
D02*
G37*
G36*
X43737Y150600D02*
X41400D01*
Y148263D01*
X41722Y148306D01*
X42395Y148584D01*
X42972Y149028D01*
X43416Y149605D01*
X43694Y150278D01*
X43737Y150600D01*
D02*
G37*
G36*
X40600D02*
X38263D01*
X38306Y150278D01*
X38584Y149605D01*
X39028Y149028D01*
X39605Y148584D01*
X40278Y148306D01*
X40600Y148263D01*
Y150600D01*
D02*
G37*
G36*
X64074D02*
X61400D01*
Y147926D01*
X61809Y147980D01*
X62563Y148292D01*
X63211Y148789D01*
X63708Y149437D01*
X64020Y150191D01*
X64074Y150600D01*
D02*
G37*
G36*
X60600D02*
X57926D01*
X57980Y150191D01*
X58292Y149437D01*
X58789Y148789D01*
X59437Y148292D01*
X60191Y147980D01*
X60600Y147926D01*
Y150600D01*
D02*
G37*
G36*
X161000Y163991D02*
X160226Y163889D01*
X159504Y163590D01*
X158885Y163115D01*
X158410Y162496D01*
X158111Y161774D01*
X158009Y161000D01*
X158111Y160226D01*
X158410Y159504D01*
X158553Y159318D01*
Y154162D01*
X157838D01*
Y153447D01*
X142162D01*
X141226Y153261D01*
X140432Y152730D01*
X130448Y142747D01*
X109078D01*
X103447Y148378D01*
Y148671D01*
X103934Y149306D01*
X104272Y150123D01*
X104388Y151000D01*
X104272Y151877D01*
X103934Y152694D01*
X103447Y153329D01*
Y159318D01*
X103590Y159504D01*
X103889Y160226D01*
X103991Y161000D01*
X103889Y161774D01*
X103590Y162496D01*
X103115Y163115D01*
X102496Y163590D01*
X101774Y163889D01*
X101000Y163991D01*
X100226Y163889D01*
X99505Y163590D01*
X98885Y163115D01*
X98410Y162496D01*
X98111Y161774D01*
X98009Y161000D01*
X98111Y160226D01*
X98410Y159504D01*
X98553Y159318D01*
Y153447D01*
X93232D01*
X92664Y153883D01*
X91861Y154215D01*
X91000Y154329D01*
X90139Y154215D01*
X89336Y153883D01*
X88646Y153354D01*
X88117Y152664D01*
X87785Y151862D01*
X87672Y151000D01*
X87785Y150138D01*
X88117Y149336D01*
X88646Y148646D01*
X89336Y148117D01*
X90139Y147785D01*
X91000Y147671D01*
X91861Y147785D01*
X92664Y148117D01*
X93232Y148553D01*
X98553D01*
Y147364D01*
X98739Y146428D01*
X99270Y145634D01*
X106334Y138570D01*
X107128Y138039D01*
X108064Y137853D01*
X131462D01*
X132398Y138039D01*
X133192Y138570D01*
X143176Y148553D01*
X157838D01*
Y147838D01*
X164162D01*
Y154162D01*
X163447D01*
Y159318D01*
X163590Y159504D01*
X163889Y160226D01*
X163991Y161000D01*
X163889Y161774D01*
X163590Y162496D01*
X163115Y163115D01*
X162496Y163590D01*
X161774Y163889D01*
X161000Y163991D01*
D02*
G37*
G36*
X161400Y143935D02*
Y141400D01*
X163935D01*
X163886Y141773D01*
X163587Y142494D01*
X163112Y143113D01*
X162494Y143587D01*
X161773Y143886D01*
X161400Y143935D01*
D02*
G37*
G36*
X160600D02*
X160227Y143886D01*
X159506Y143587D01*
X158888Y143113D01*
X158413Y142494D01*
X158114Y141773D01*
X158065Y141400D01*
X160600D01*
Y143935D01*
D02*
G37*
G36*
X332472Y143867D02*
X331390Y143725D01*
X330381Y143307D01*
X329515Y142642D01*
X328851Y141776D01*
X328533Y141010D01*
X319389D01*
X319081Y141753D01*
X318424Y142609D01*
X317568Y143266D01*
X316570Y143679D01*
X315500Y143820D01*
X314430Y143679D01*
X313432Y143266D01*
X312576Y142609D01*
X311919Y141753D01*
X311506Y140755D01*
X311365Y139685D01*
X311506Y138615D01*
X311919Y137617D01*
X312576Y136761D01*
X313432Y136104D01*
X314430Y135691D01*
X315500Y135550D01*
X316570Y135691D01*
X317568Y136104D01*
X318424Y136761D01*
X319081Y137617D01*
X319389Y138360D01*
X328533D01*
X328851Y137594D01*
X329515Y136728D01*
X330381Y136063D01*
X331390Y135645D01*
X332472Y135503D01*
X333555Y135645D01*
X334564Y136063D01*
X335430Y136728D01*
X336094Y137594D01*
X336512Y138603D01*
X336655Y139685D01*
X336512Y140768D01*
X336094Y141776D01*
X335430Y142642D01*
X334564Y143307D01*
X333555Y143725D01*
X332472Y143867D01*
D02*
G37*
G36*
X163935Y140600D02*
X161400D01*
Y138065D01*
X161773Y138114D01*
X162494Y138413D01*
X163112Y138888D01*
X163587Y139506D01*
X163886Y140227D01*
X163935Y140600D01*
D02*
G37*
G36*
X160600D02*
X158065D01*
X158114Y140227D01*
X158413Y139506D01*
X158888Y138888D01*
X159506Y138413D01*
X160227Y138114D01*
X160600Y138065D01*
Y140600D01*
D02*
G37*
G36*
X24500Y164587D02*
X23572Y164464D01*
X22707Y164106D01*
X21964Y163536D01*
X21394Y162793D01*
X21035Y161928D01*
X20913Y161000D01*
X21035Y160072D01*
X21394Y159207D01*
X21964Y158464D01*
X22707Y157894D01*
X23345Y157630D01*
Y157330D01*
X23446Y156823D01*
X23733Y156393D01*
X38181Y141944D01*
X38111Y141774D01*
X38009Y141000D01*
X38111Y140226D01*
X38410Y139505D01*
X38885Y138885D01*
X39505Y138410D01*
X40226Y138111D01*
X41000Y138009D01*
X41774Y138111D01*
X42496Y138410D01*
X43115Y138885D01*
X43590Y139505D01*
X43889Y140226D01*
X43991Y141000D01*
X43889Y141774D01*
X43590Y142496D01*
X43115Y143115D01*
X42496Y143590D01*
X41774Y143889D01*
X41000Y143991D01*
X40226Y143889D01*
X40056Y143819D01*
X26424Y157451D01*
X26517Y158065D01*
X27036Y158464D01*
X27606Y159207D01*
X27964Y160072D01*
X28087Y161000D01*
X27964Y161928D01*
X27606Y162793D01*
X27036Y163536D01*
X26293Y164106D01*
X25428Y164464D01*
X24500Y164587D01*
D02*
G37*
G36*
X91000Y144328D02*
X90139Y144215D01*
X89336Y143883D01*
X88646Y143354D01*
X88117Y142664D01*
X87785Y141861D01*
X87672Y141000D01*
X87785Y140138D01*
X88117Y139336D01*
X88646Y138646D01*
X89336Y138118D01*
X90139Y137785D01*
X91000Y137671D01*
X91861Y137785D01*
X92664Y138118D01*
X93354Y138646D01*
X93883Y139336D01*
X94215Y140138D01*
X94328Y141000D01*
X94215Y141861D01*
X93883Y142664D01*
X93354Y143354D01*
X92664Y143883D01*
X91861Y144215D01*
X91000Y144328D01*
D02*
G37*
G36*
X51000Y153991D02*
X50226Y153889D01*
X49505Y153590D01*
X48885Y153115D01*
X48410Y152496D01*
X48111Y151774D01*
X48009Y151000D01*
X48111Y150226D01*
X48410Y149504D01*
X48885Y148885D01*
X49505Y148410D01*
X49674Y148339D01*
Y143661D01*
X49505Y143590D01*
X48885Y143115D01*
X48410Y142496D01*
X48111Y141774D01*
X48009Y141000D01*
X48111Y140226D01*
X48410Y139505D01*
X48885Y138885D01*
X49505Y138410D01*
X49674Y138339D01*
Y136326D01*
X34087D01*
X33934Y136694D01*
X33396Y137396D01*
X32694Y137934D01*
X31877Y138273D01*
X31000Y138388D01*
X30123Y138273D01*
X29306Y137934D01*
X28604Y137396D01*
X28066Y136694D01*
X27727Y135877D01*
X27612Y135000D01*
X27727Y134123D01*
X28066Y133306D01*
X28604Y132604D01*
X29306Y132066D01*
X30123Y131728D01*
X31000Y131612D01*
X31877Y131728D01*
X32694Y132066D01*
X33396Y132604D01*
X33934Y133306D01*
X34087Y133675D01*
X50451D01*
X54063Y130063D01*
X54493Y129775D01*
X55000Y129674D01*
X57977D01*
X58117Y129336D01*
X58646Y128646D01*
X59336Y128118D01*
X60138Y127785D01*
X61000Y127672D01*
X61861Y127785D01*
X62664Y128118D01*
X63354Y128646D01*
X63883Y129336D01*
X64215Y130139D01*
X64328Y131000D01*
X64215Y131861D01*
X63883Y132664D01*
X63354Y133354D01*
X62664Y133882D01*
X61861Y134215D01*
X61000Y134328D01*
X60138Y134215D01*
X59336Y133882D01*
X58646Y133354D01*
X58117Y132664D01*
X57977Y132325D01*
X55549D01*
X52325Y135549D01*
Y138339D01*
X52495Y138410D01*
X53115Y138885D01*
X53590Y139505D01*
X53889Y140226D01*
X53991Y141000D01*
X53889Y141774D01*
X53590Y142496D01*
X53115Y143115D01*
X52495Y143590D01*
X52325Y143661D01*
Y148339D01*
X52495Y148410D01*
X53115Y148885D01*
X53590Y149504D01*
X53889Y150226D01*
X53991Y151000D01*
X53889Y151774D01*
X53590Y152496D01*
X53115Y153115D01*
X52495Y153590D01*
X51774Y153889D01*
X51000Y153991D01*
D02*
G37*
G36*
X121400Y134134D02*
Y131400D01*
X124134D01*
X124078Y131825D01*
X123759Y132593D01*
X123253Y133253D01*
X122593Y133759D01*
X121825Y134078D01*
X121400Y134134D01*
D02*
G37*
G36*
X101400D02*
Y131400D01*
X104134D01*
X104078Y131825D01*
X103759Y132593D01*
X103253Y133253D01*
X102593Y133759D01*
X101825Y134078D01*
X101400Y134134D01*
D02*
G37*
G36*
X100600D02*
X100175Y134078D01*
X99407Y133759D01*
X98747Y133253D01*
X98241Y132593D01*
X97922Y131825D01*
X97866Y131400D01*
X100600D01*
Y134134D01*
D02*
G37*
G36*
X120600D02*
X120175Y134078D01*
X119407Y133759D01*
X118747Y133253D01*
X118241Y132593D01*
X117922Y131825D01*
X117866Y131400D01*
X120600D01*
Y134134D01*
D02*
G37*
G36*
X332472Y133825D02*
X331390Y133682D01*
X330381Y133264D01*
X329515Y132600D01*
X328851Y131734D01*
X328533Y130968D01*
X319406D01*
X319081Y131753D01*
X318424Y132609D01*
X317568Y133266D01*
X316570Y133679D01*
X315500Y133820D01*
X314430Y133679D01*
X313432Y133266D01*
X312576Y132609D01*
X311919Y131753D01*
X311506Y130755D01*
X311365Y129685D01*
X311506Y128615D01*
X311919Y127617D01*
X312576Y126761D01*
X313432Y126104D01*
X314430Y125691D01*
X315500Y125550D01*
X316570Y125691D01*
X317568Y126104D01*
X318424Y126761D01*
X319081Y127617D01*
X319371Y128317D01*
X328533D01*
X328851Y127551D01*
X329515Y126685D01*
X330381Y126021D01*
X331390Y125603D01*
X332472Y125460D01*
X333555Y125603D01*
X334564Y126021D01*
X335430Y126685D01*
X336094Y127551D01*
X336512Y128560D01*
X336655Y129642D01*
X336512Y130725D01*
X336094Y131734D01*
X335430Y132600D01*
X334564Y133264D01*
X333555Y133682D01*
X332472Y133825D01*
D02*
G37*
G36*
X124134Y130600D02*
X121400D01*
Y127866D01*
X121825Y127922D01*
X122593Y128241D01*
X123253Y128747D01*
X123759Y129407D01*
X124078Y130175D01*
X124134Y130600D01*
D02*
G37*
G36*
X104134D02*
X101400D01*
Y127866D01*
X101825Y127922D01*
X102593Y128241D01*
X103253Y128747D01*
X103759Y129407D01*
X104078Y130175D01*
X104134Y130600D01*
D02*
G37*
G36*
X120600D02*
X117866D01*
X117922Y130175D01*
X118241Y129407D01*
X118747Y128747D01*
X119407Y128241D01*
X120175Y127922D01*
X120600Y127866D01*
Y130600D01*
D02*
G37*
G36*
X100600D02*
X97866D01*
X97922Y130175D01*
X98241Y129407D01*
X98747Y128747D01*
X99407Y128241D01*
X100175Y127922D01*
X100600Y127866D01*
Y130600D01*
D02*
G37*
G36*
X91000Y134328D02*
X90139Y134215D01*
X89336Y133882D01*
X88646Y133354D01*
X88117Y132664D01*
X87785Y131861D01*
X87672Y131000D01*
X87785Y130139D01*
X88117Y129336D01*
X88646Y128646D01*
X89336Y128118D01*
X89675Y127977D01*
Y124023D01*
X89336Y123882D01*
X88646Y123354D01*
X88117Y122664D01*
X87785Y121862D01*
X87672Y121000D01*
X87785Y120139D01*
X88117Y119336D01*
X88646Y118646D01*
X89336Y118117D01*
X90139Y117785D01*
X91000Y117672D01*
X91861Y117785D01*
X92664Y118117D01*
X93354Y118646D01*
X93883Y119336D01*
X94215Y120139D01*
X94328Y121000D01*
X94215Y121862D01*
X93883Y122664D01*
X93354Y123354D01*
X92664Y123882D01*
X92326Y124023D01*
Y127977D01*
X92664Y128118D01*
X93354Y128646D01*
X93883Y129336D01*
X94215Y130139D01*
X94328Y131000D01*
X94215Y131861D01*
X93883Y132664D01*
X93354Y133354D01*
X92664Y133882D01*
X91861Y134215D01*
X91000Y134328D01*
D02*
G37*
G36*
X253400Y117850D02*
Y115315D01*
X255935D01*
X255886Y115688D01*
X255587Y116409D01*
X255113Y117027D01*
X254494Y117502D01*
X253773Y117801D01*
X253400Y117850D01*
D02*
G37*
G36*
X252600D02*
X252227Y117801D01*
X251506Y117502D01*
X250887Y117027D01*
X250413Y116409D01*
X250114Y115688D01*
X250065Y115315D01*
X252600D01*
Y117850D01*
D02*
G37*
G36*
X360032Y127327D02*
X358794Y127205D01*
X357604Y126844D01*
X356508Y126258D01*
X355547Y125469D01*
X354758Y124508D01*
X354172Y123411D01*
X353811Y122222D01*
X353689Y120984D01*
X353811Y119747D01*
X354172Y118557D01*
X354758Y117461D01*
X355547Y116499D01*
X356508Y115711D01*
X357604Y115125D01*
X358794Y114764D01*
X360032Y114642D01*
X361269Y114764D01*
X362459Y115125D01*
X363555Y115711D01*
X364516Y116499D01*
X365305Y117461D01*
X365891Y118557D01*
X366252Y119747D01*
X366374Y120984D01*
X366252Y122222D01*
X365891Y123411D01*
X365305Y124508D01*
X364516Y125469D01*
X363555Y126258D01*
X362459Y126844D01*
X361269Y127205D01*
X360032Y127327D01*
D02*
G37*
G36*
X61000Y124328D02*
X60138Y124215D01*
X59336Y123882D01*
X58646Y123354D01*
X58117Y122664D01*
X57785Y121862D01*
X57671Y121000D01*
X57785Y120139D01*
X57925Y119800D01*
X51944Y113819D01*
X51774Y113889D01*
X51000Y113991D01*
X50226Y113889D01*
X49505Y113590D01*
X48885Y113115D01*
X48410Y112496D01*
X48339Y112326D01*
X43661D01*
X43590Y112496D01*
X43115Y113115D01*
X42496Y113590D01*
X41774Y113889D01*
X41000Y113991D01*
X40226Y113889D01*
X39505Y113590D01*
X38885Y113115D01*
X38410Y112496D01*
X38339Y112326D01*
X35549D01*
X34120Y113755D01*
X34273Y114123D01*
X34388Y115000D01*
X34273Y115877D01*
X33934Y116694D01*
X33396Y117396D01*
X32694Y117934D01*
X31877Y118272D01*
X31000Y118388D01*
X30123Y118272D01*
X29306Y117934D01*
X28604Y117396D01*
X28066Y116694D01*
X27727Y115877D01*
X27612Y115000D01*
X27727Y114123D01*
X28066Y113306D01*
X28604Y112604D01*
X29306Y112066D01*
X30123Y111727D01*
X31000Y111612D01*
X31877Y111727D01*
X32245Y111880D01*
X34063Y110063D01*
X34493Y109775D01*
X35000Y109675D01*
X38339D01*
X38410Y109504D01*
X38885Y108885D01*
X39505Y108410D01*
X40226Y108111D01*
X41000Y108009D01*
X41774Y108111D01*
X42496Y108410D01*
X43115Y108885D01*
X43590Y109504D01*
X43661Y109675D01*
X48339D01*
X48410Y109504D01*
X48885Y108885D01*
X49505Y108410D01*
X50226Y108111D01*
X51000Y108009D01*
X51774Y108111D01*
X52495Y108410D01*
X53115Y108885D01*
X53590Y109504D01*
X53889Y110226D01*
X53991Y111000D01*
X53889Y111774D01*
X53819Y111944D01*
X59800Y117925D01*
X60138Y117785D01*
X61000Y117672D01*
X61861Y117785D01*
X62664Y118117D01*
X63354Y118646D01*
X63883Y119336D01*
X64215Y120139D01*
X64328Y121000D01*
X64215Y121862D01*
X63883Y122664D01*
X63354Y123354D01*
X62664Y123882D01*
X61861Y124215D01*
X61000Y124328D01*
D02*
G37*
G36*
X206600Y121135D02*
X205530Y120994D01*
X204532Y120581D01*
X203676Y119924D01*
X203019Y119068D01*
X202606Y118070D01*
X202465Y117000D01*
X202606Y115930D01*
X203019Y114932D01*
X203676Y114076D01*
X204532Y113419D01*
X205530Y113005D01*
X206600Y112865D01*
X207670Y113005D01*
X208668Y113419D01*
X209524Y114076D01*
X210181Y114932D01*
X210595Y115930D01*
X210735Y117000D01*
X210595Y118070D01*
X210181Y119068D01*
X209524Y119924D01*
X208668Y120581D01*
X207670Y120994D01*
X206600Y121135D01*
D02*
G37*
G36*
X196600D02*
X195530Y120994D01*
X194532Y120581D01*
X193676Y119924D01*
X193019Y119068D01*
X192605Y118070D01*
X192465Y117000D01*
X192605Y115930D01*
X193019Y114932D01*
X193676Y114076D01*
X194532Y113419D01*
X195530Y113005D01*
X196600Y112865D01*
X197670Y113005D01*
X198668Y113419D01*
X199524Y114076D01*
X200181Y114932D01*
X200594Y115930D01*
X200735Y117000D01*
X200594Y118070D01*
X200181Y119068D01*
X199524Y119924D01*
X198668Y120581D01*
X197670Y120994D01*
X196600Y121135D01*
D02*
G37*
G36*
X186600D02*
X185530Y120994D01*
X184532Y120581D01*
X183676Y119924D01*
X183019Y119068D01*
X182606Y118070D01*
X182465Y117000D01*
X182606Y115930D01*
X183019Y114932D01*
X183676Y114076D01*
X184532Y113419D01*
X185530Y113005D01*
X186600Y112865D01*
X187670Y113005D01*
X188668Y113419D01*
X189524Y114076D01*
X190181Y114932D01*
X190594Y115930D01*
X190735Y117000D01*
X190594Y118070D01*
X190181Y119068D01*
X189524Y119924D01*
X188668Y120581D01*
X187670Y120994D01*
X186600Y121135D01*
D02*
G37*
G36*
X174449D02*
X173379Y120994D01*
X172381Y120581D01*
X171525Y119924D01*
X170868Y119068D01*
X170455Y118070D01*
X170314Y117000D01*
X170455Y115930D01*
X170868Y114932D01*
X171525Y114076D01*
X172381Y113419D01*
X173379Y113005D01*
X174449Y112865D01*
X175519Y113005D01*
X176517Y113419D01*
X177373Y114076D01*
X178030Y114932D01*
X178444Y115930D01*
X178584Y117000D01*
X178444Y118070D01*
X178030Y119068D01*
X177373Y119924D01*
X176517Y120581D01*
X175519Y120994D01*
X174449Y121135D01*
D02*
G37*
G36*
X164449D02*
X163379Y120994D01*
X162381Y120581D01*
X161525Y119924D01*
X160868Y119068D01*
X160454Y118070D01*
X160314Y117000D01*
X160454Y115930D01*
X160868Y114932D01*
X161525Y114076D01*
X162381Y113419D01*
X163379Y113005D01*
X164449Y112865D01*
X165519Y113005D01*
X166517Y113419D01*
X167373Y114076D01*
X168030Y114932D01*
X168444Y115930D01*
X168584Y117000D01*
X168444Y118070D01*
X168030Y119068D01*
X167373Y119924D01*
X166517Y120581D01*
X165519Y120994D01*
X164449Y121135D01*
D02*
G37*
G36*
X154449D02*
X153379Y120994D01*
X152381Y120581D01*
X151525Y119924D01*
X150868Y119068D01*
X150454Y118070D01*
X150314Y117000D01*
X150454Y115930D01*
X150868Y114932D01*
X151525Y114076D01*
X152381Y113419D01*
X153379Y113005D01*
X154449Y112865D01*
X155519Y113005D01*
X156517Y113419D01*
X157373Y114076D01*
X158030Y114932D01*
X158443Y115930D01*
X158584Y117000D01*
X158443Y118070D01*
X158030Y119068D01*
X157373Y119924D01*
X156517Y120581D01*
X155519Y120994D01*
X154449Y121135D01*
D02*
G37*
G36*
X255935Y114515D02*
X253400D01*
Y111980D01*
X253773Y112029D01*
X254494Y112328D01*
X255113Y112803D01*
X255587Y113421D01*
X255886Y114142D01*
X255935Y114515D01*
D02*
G37*
G36*
X252600D02*
X250065D01*
X250114Y114142D01*
X250413Y113421D01*
X250887Y112803D01*
X251506Y112328D01*
X252227Y112029D01*
X252600Y111980D01*
Y114515D01*
D02*
G37*
G36*
X141900Y113737D02*
Y111400D01*
X144237D01*
X144194Y111722D01*
X143916Y112395D01*
X143472Y112972D01*
X142895Y113416D01*
X142222Y113694D01*
X141900Y113737D01*
D02*
G37*
G36*
X141100D02*
X140778Y113694D01*
X140105Y113416D01*
X139528Y112972D01*
X139084Y112395D01*
X138806Y111722D01*
X138763Y111400D01*
X141100D01*
Y113737D01*
D02*
G37*
G36*
X291400Y112796D02*
Y109315D01*
X294881D01*
X294800Y109933D01*
X294407Y110882D01*
X293781Y111697D01*
X292967Y112322D01*
X292018Y112715D01*
X291400Y112796D01*
D02*
G37*
G36*
X290600D02*
X289982Y112715D01*
X289033Y112322D01*
X288218Y111697D01*
X287593Y110882D01*
X287200Y109933D01*
X287119Y109315D01*
X290600D01*
Y112796D01*
D02*
G37*
G36*
X144237Y110600D02*
X141900D01*
Y108263D01*
X142222Y108306D01*
X142895Y108584D01*
X143472Y109028D01*
X143916Y109605D01*
X144194Y110278D01*
X144237Y110600D01*
D02*
G37*
G36*
X141100D02*
X138763D01*
X138806Y110278D01*
X139084Y109605D01*
X139528Y109028D01*
X140105Y108584D01*
X140778Y108306D01*
X141100Y108263D01*
Y110600D01*
D02*
G37*
G36*
X111000Y123991D02*
X110226Y123889D01*
X109504Y123590D01*
X108885Y123115D01*
X108410Y122495D01*
X108111Y121774D01*
X108009Y121000D01*
X108111Y120226D01*
X108410Y119504D01*
X108885Y118885D01*
X109504Y118410D01*
X109675Y118339D01*
Y114565D01*
X109107Y114329D01*
X108364Y113759D01*
X107794Y113016D01*
X107436Y112151D01*
X107313Y111223D01*
X107436Y110295D01*
X107794Y109430D01*
X108364Y108687D01*
X109107Y108117D01*
X109972Y107759D01*
X110900Y107636D01*
X111828Y107759D01*
X112693Y108117D01*
X113436Y108687D01*
X114006Y109430D01*
X114365Y110295D01*
X114487Y111223D01*
X114365Y112151D01*
X114006Y113016D01*
X113436Y113759D01*
X112693Y114329D01*
X112326Y114482D01*
Y118339D01*
X112496Y118410D01*
X113115Y118885D01*
X113590Y119504D01*
X113889Y120226D01*
X113991Y121000D01*
X113889Y121774D01*
X113590Y122495D01*
X113115Y123115D01*
X112496Y123590D01*
X111774Y123889D01*
X111000Y123991D01*
D02*
G37*
G36*
X294881Y108515D02*
X291400D01*
Y105034D01*
X292018Y105115D01*
X292967Y105508D01*
X293781Y106133D01*
X294407Y106948D01*
X294800Y107897D01*
X294881Y108515D01*
D02*
G37*
G36*
X290600D02*
X287119D01*
X287200Y107897D01*
X287593Y106948D01*
X288218Y106133D01*
X289033Y105508D01*
X289982Y105115D01*
X290600Y105034D01*
Y108515D01*
D02*
G37*
G36*
X144465Y106086D02*
X138534D01*
Y100154D01*
X144465D01*
Y101795D01*
X173290D01*
X173410Y101505D01*
X173885Y100885D01*
X174504Y100410D01*
X175226Y100111D01*
X176000Y100009D01*
X176774Y100111D01*
X177496Y100410D01*
X178115Y100885D01*
X178590Y101505D01*
X178889Y102226D01*
X178991Y103000D01*
X178889Y103774D01*
X178590Y104496D01*
X178115Y105115D01*
X177496Y105590D01*
X176774Y105889D01*
X176000Y105991D01*
X175226Y105889D01*
X174504Y105590D01*
X173885Y105115D01*
X173410Y104496D01*
X173389Y104446D01*
X144465D01*
Y106086D01*
D02*
G37*
G36*
X227400Y102049D02*
Y99315D01*
X230134D01*
X230078Y99740D01*
X229759Y100508D01*
X229253Y101168D01*
X228593Y101674D01*
X227825Y101993D01*
X227400Y102049D01*
D02*
G37*
G36*
X291400Y102796D02*
Y99315D01*
X294881D01*
X294800Y99933D01*
X294407Y100882D01*
X293781Y101697D01*
X292967Y102322D01*
X292018Y102715D01*
X291400Y102796D01*
D02*
G37*
G36*
X290600D02*
X289982Y102715D01*
X289033Y102322D01*
X288218Y101697D01*
X287593Y100882D01*
X287200Y99933D01*
X287119Y99315D01*
X290600D01*
Y102796D01*
D02*
G37*
G36*
X226600Y102049D02*
X226175Y101993D01*
X225407Y101674D01*
X224747Y101168D01*
X224241Y100508D01*
X223922Y99740D01*
X223866Y99315D01*
X226600D01*
Y102049D01*
D02*
G37*
G36*
X230134Y98515D02*
X227400D01*
Y95781D01*
X227825Y95837D01*
X228593Y96156D01*
X229253Y96662D01*
X229759Y97322D01*
X230078Y98090D01*
X230134Y98515D01*
D02*
G37*
G36*
X226600D02*
X223866D01*
X223922Y98090D01*
X224241Y97322D01*
X224747Y96662D01*
X225407Y96156D01*
X226175Y95837D01*
X226600Y95781D01*
Y98515D01*
D02*
G37*
G36*
X294881D02*
X291400D01*
Y95034D01*
X292018Y95115D01*
X292967Y95508D01*
X293781Y96134D01*
X294407Y96948D01*
X294800Y97897D01*
X294881Y98515D01*
D02*
G37*
G36*
X290600D02*
X287119D01*
X287200Y97897D01*
X287593Y96948D01*
X288218Y96134D01*
X289033Y95508D01*
X289982Y95115D01*
X290600Y95034D01*
Y98515D01*
D02*
G37*
G36*
X243400Y91850D02*
Y89315D01*
X245935D01*
X245886Y89688D01*
X245587Y90409D01*
X245112Y91027D01*
X244494Y91502D01*
X243773Y91801D01*
X243400Y91850D01*
D02*
G37*
G36*
X291400Y92796D02*
Y89315D01*
X294881D01*
X294800Y89933D01*
X294407Y90882D01*
X293781Y91697D01*
X292967Y92322D01*
X292018Y92715D01*
X291400Y92796D01*
D02*
G37*
G36*
X290600D02*
X289982Y92715D01*
X289033Y92322D01*
X288218Y91697D01*
X287593Y90882D01*
X287200Y89933D01*
X287119Y89315D01*
X290600D01*
Y92796D01*
D02*
G37*
G36*
X242600Y91850D02*
X242227Y91801D01*
X241506Y91502D01*
X240887Y91027D01*
X240413Y90409D01*
X240114Y89688D01*
X240065Y89315D01*
X242600D01*
Y91850D01*
D02*
G37*
G36*
X110900Y94810D02*
X109972Y94688D01*
X109107Y94329D01*
X108364Y93759D01*
X107794Y93016D01*
X107436Y92151D01*
X107313Y91223D01*
X107436Y90295D01*
X107794Y89430D01*
X108364Y88687D01*
X109107Y88117D01*
X109972Y87759D01*
X110900Y87637D01*
X111828Y87759D01*
X112693Y88117D01*
X113436Y88687D01*
X114006Y89430D01*
X114365Y90295D01*
X114487Y91223D01*
X114365Y92151D01*
X114006Y93016D01*
X113436Y93759D01*
X112693Y94329D01*
X111828Y94688D01*
X110900Y94810D01*
D02*
G37*
G36*
X245935Y88515D02*
X243400D01*
Y85980D01*
X243773Y86029D01*
X244494Y86328D01*
X245112Y86803D01*
X245587Y87421D01*
X245886Y88142D01*
X245935Y88515D01*
D02*
G37*
G36*
X242600D02*
X240065D01*
X240114Y88142D01*
X240413Y87421D01*
X240887Y86803D01*
X241506Y86328D01*
X242227Y86029D01*
X242600Y85980D01*
Y88515D01*
D02*
G37*
G36*
X294881D02*
X291400D01*
Y85034D01*
X292018Y85115D01*
X292967Y85508D01*
X293781Y86133D01*
X294407Y86948D01*
X294800Y87897D01*
X294881Y88515D01*
D02*
G37*
G36*
X290600D02*
X287119D01*
X287200Y87897D01*
X287593Y86948D01*
X288218Y86133D01*
X289033Y85508D01*
X289982Y85115D01*
X290600Y85034D01*
Y88515D01*
D02*
G37*
G36*
X358000Y88884D02*
X356969Y88748D01*
X356008Y88350D01*
X355183Y87717D01*
X354550Y86892D01*
X354152Y85931D01*
X354016Y84900D01*
X354152Y83869D01*
X354550Y82908D01*
X355183Y82083D01*
X356008Y81450D01*
X356969Y81052D01*
X358000Y80916D01*
X359031Y81052D01*
X359992Y81450D01*
X360817Y82083D01*
X361450Y82908D01*
X361848Y83869D01*
X361984Y84900D01*
X361848Y85931D01*
X361450Y86892D01*
X360817Y87717D01*
X359992Y88350D01*
X359031Y88748D01*
X358000Y88884D01*
D02*
G37*
G36*
X372500Y87635D02*
X371430Y87494D01*
X370432Y87081D01*
X369576Y86424D01*
X368919Y85568D01*
X368506Y84570D01*
X368365Y83500D01*
X368506Y82430D01*
X368813Y81687D01*
X364063Y76937D01*
X363775Y76507D01*
X363674Y76000D01*
Y72449D01*
X359697Y68472D01*
X359031Y68748D01*
X358000Y68884D01*
X356969Y68748D01*
X356008Y68350D01*
X355183Y67717D01*
X354550Y66892D01*
X354152Y65931D01*
X354016Y64900D01*
X354152Y63869D01*
X354550Y62908D01*
X355183Y62083D01*
X356008Y61450D01*
X356969Y61052D01*
X358000Y60916D01*
X359031Y61052D01*
X359992Y61450D01*
X360817Y62083D01*
X361450Y62908D01*
X361848Y63869D01*
X361984Y64900D01*
X361848Y65931D01*
X361572Y66597D01*
X365937Y70963D01*
X366225Y71393D01*
X366325Y71900D01*
Y75451D01*
X370688Y79813D01*
X371430Y79505D01*
X372500Y79365D01*
X373570Y79505D01*
X374568Y79919D01*
X375424Y80576D01*
X376081Y81432D01*
X376495Y82430D01*
X376635Y83500D01*
X376495Y84570D01*
X376081Y85568D01*
X375424Y86424D01*
X374568Y87081D01*
X373570Y87494D01*
X372500Y87635D01*
D02*
G37*
G36*
X291400Y82796D02*
Y79315D01*
X294881D01*
X294800Y79933D01*
X294407Y80882D01*
X293781Y81696D01*
X292967Y82322D01*
X292018Y82715D01*
X291400Y82796D01*
D02*
G37*
G36*
X256900Y82049D02*
Y79315D01*
X259634D01*
X259578Y79740D01*
X259259Y80508D01*
X258753Y81168D01*
X258093Y81674D01*
X257325Y81993D01*
X256900Y82049D01*
D02*
G37*
G36*
X256100D02*
X255675Y81993D01*
X254907Y81674D01*
X254247Y81168D01*
X253741Y80508D01*
X253422Y79740D01*
X253366Y79315D01*
X256100D01*
Y82049D01*
D02*
G37*
G36*
X290600Y82796D02*
X289982Y82715D01*
X289033Y82322D01*
X288218Y81696D01*
X287593Y80882D01*
X287200Y79933D01*
X287119Y79315D01*
X290600D01*
Y82796D01*
D02*
G37*
G36*
X259634Y78515D02*
X256900D01*
Y75781D01*
X257325Y75837D01*
X258093Y76156D01*
X258753Y76662D01*
X259259Y77322D01*
X259578Y78090D01*
X259634Y78515D01*
D02*
G37*
G36*
X256100D02*
X253366D01*
X253422Y78090D01*
X253741Y77322D01*
X254247Y76662D01*
X254907Y76156D01*
X255675Y75837D01*
X256100Y75781D01*
Y78515D01*
D02*
G37*
G36*
X121400Y78276D02*
Y75542D01*
X124134D01*
X124078Y75967D01*
X123759Y76735D01*
X123253Y77395D01*
X122593Y77901D01*
X121825Y78220D01*
X121400Y78276D01*
D02*
G37*
G36*
X120600D02*
X120175Y78220D01*
X119407Y77901D01*
X118747Y77395D01*
X118241Y76735D01*
X117922Y75967D01*
X117866Y75542D01*
X120600D01*
Y78276D01*
D02*
G37*
G36*
X294881Y78515D02*
X291400D01*
Y75034D01*
X292018Y75115D01*
X292967Y75508D01*
X293781Y76134D01*
X294407Y76948D01*
X294800Y77897D01*
X294881Y78515D01*
D02*
G37*
G36*
X290600D02*
X287119D01*
X287200Y77897D01*
X287593Y76948D01*
X288218Y76134D01*
X289033Y75508D01*
X289982Y75115D01*
X290600Y75034D01*
Y78515D01*
D02*
G37*
G36*
X124134Y74742D02*
X121400D01*
Y72008D01*
X121825Y72064D01*
X122593Y72383D01*
X123253Y72889D01*
X123759Y73549D01*
X124078Y74317D01*
X124134Y74742D01*
D02*
G37*
G36*
X120600D02*
X117866D01*
X117922Y74317D01*
X118241Y73549D01*
X118747Y72889D01*
X119407Y72383D01*
X120175Y72064D01*
X120600Y72008D01*
Y74742D01*
D02*
G37*
G36*
X275500Y113050D02*
X274430Y112909D01*
X273432Y112496D01*
X272576Y111839D01*
X271919Y110983D01*
X271505Y109985D01*
X271365Y108915D01*
X271505Y107845D01*
X271919Y106847D01*
X272576Y105991D01*
X273053Y105625D01*
Y102205D01*
X272576Y101839D01*
X271919Y100983D01*
X271505Y99985D01*
X271365Y98915D01*
X271505Y97845D01*
X271919Y96847D01*
X272576Y95991D01*
X273053Y95625D01*
Y92205D01*
X272576Y91839D01*
X271919Y90983D01*
X271505Y89985D01*
X271365Y88915D01*
X271505Y87845D01*
X271919Y86847D01*
X272576Y85991D01*
X273053Y85625D01*
Y82205D01*
X272576Y81839D01*
X271919Y80983D01*
X271505Y79985D01*
X271365Y78915D01*
X271505Y77845D01*
X271919Y76847D01*
X272576Y75991D01*
X273053Y75625D01*
Y72205D01*
X272576Y71839D01*
X272210Y71362D01*
X246162D01*
Y72577D01*
X245447D01*
Y76910D01*
X245762Y77320D01*
X246081Y78090D01*
X246189Y78915D01*
X246081Y79741D01*
X245762Y80510D01*
X245255Y81170D01*
X244595Y81677D01*
X243826Y81996D01*
X243000Y82104D01*
X242175Y81996D01*
X241405Y81677D01*
X240995Y81362D01*
X229329D01*
X228694Y81849D01*
X227877Y82188D01*
X227000Y82303D01*
X226123Y82188D01*
X225306Y81849D01*
X224671Y81362D01*
X208447D01*
Y86118D01*
X208590Y86304D01*
X208889Y87026D01*
X208991Y87800D01*
X208889Y88574D01*
X208590Y89296D01*
X208115Y89915D01*
X208039Y89973D01*
Y100827D01*
X208115Y100885D01*
X208590Y101505D01*
X208889Y102226D01*
X208991Y103000D01*
X208889Y103774D01*
X208590Y104496D01*
X208115Y105115D01*
X207495Y105590D01*
X206774Y105889D01*
X206000Y105991D01*
X205226Y105889D01*
X204504Y105590D01*
X203885Y105115D01*
X203410Y104496D01*
X203111Y103774D01*
X203009Y103000D01*
X203111Y102226D01*
X203410Y101505D01*
X203885Y100885D01*
X203961Y100827D01*
Y89973D01*
X203885Y89915D01*
X203410Y89296D01*
X203111Y88574D01*
X203009Y87800D01*
X203111Y87026D01*
X203410Y86304D01*
X203553Y86118D01*
Y81362D01*
X157597D01*
X157272Y81497D01*
X156580Y81588D01*
X155888Y81497D01*
X155244Y81230D01*
X154690Y80805D01*
X154265Y80251D01*
X153998Y79607D01*
X153907Y78915D01*
X153998Y78223D01*
X154265Y77579D01*
X154690Y77025D01*
X155244Y76600D01*
X155888Y76333D01*
X156580Y76242D01*
X157272Y76333D01*
X157597Y76468D01*
X224553D01*
Y41447D01*
X217829D01*
X217194Y41934D01*
X216377Y42272D01*
X215500Y42388D01*
X214623Y42272D01*
X213806Y41934D01*
X213104Y41396D01*
X212566Y40694D01*
X212228Y39877D01*
X212112Y39000D01*
X212228Y38123D01*
X212566Y37306D01*
X213104Y36604D01*
X213806Y36066D01*
X214623Y35728D01*
X215500Y35612D01*
X216377Y35728D01*
X217194Y36066D01*
X217829Y36553D01*
X224664D01*
X225232Y36118D01*
X226034Y35785D01*
X226896Y35671D01*
X227757Y35785D01*
X228560Y36118D01*
X229249Y36646D01*
X229778Y37336D01*
X230111Y38138D01*
X230224Y39000D01*
X230111Y39862D01*
X229778Y40664D01*
X229447Y41096D01*
Y76468D01*
X240553D01*
Y72577D01*
X239838D01*
Y66253D01*
X246162D01*
Y66468D01*
X272210D01*
X272576Y65991D01*
X273432Y65334D01*
X274430Y64921D01*
X275500Y64780D01*
X276570Y64921D01*
X277568Y65334D01*
X278424Y65991D01*
X279081Y66847D01*
X279495Y67845D01*
X279635Y68915D01*
X279495Y69985D01*
X279081Y70983D01*
X278424Y71839D01*
X277947Y72205D01*
Y75625D01*
X278424Y75991D01*
X279081Y76847D01*
X279495Y77845D01*
X279635Y78915D01*
X279495Y79985D01*
X279081Y80983D01*
X278424Y81839D01*
X277947Y82205D01*
Y85625D01*
X278424Y85991D01*
X279081Y86847D01*
X279495Y87845D01*
X279635Y88915D01*
X279495Y89985D01*
X279081Y90983D01*
X278424Y91839D01*
X277947Y92205D01*
Y95625D01*
X278424Y95991D01*
X279081Y96847D01*
X279495Y97845D01*
X279635Y98915D01*
X279495Y99985D01*
X279081Y100983D01*
X278424Y101839D01*
X277947Y102205D01*
Y105625D01*
X278424Y105991D01*
X279081Y106847D01*
X279495Y107845D01*
X279635Y108915D01*
X279495Y109985D01*
X279081Y110983D01*
X278424Y111839D01*
X277568Y112496D01*
X276570Y112909D01*
X275500Y113050D01*
D02*
G37*
G36*
X358000Y78884D02*
X356969Y78748D01*
X356008Y78350D01*
X355183Y77717D01*
X354550Y76892D01*
X354152Y75931D01*
X354016Y74900D01*
X354152Y73869D01*
X354550Y72908D01*
X355183Y72083D01*
X356008Y71450D01*
X356969Y71052D01*
X358000Y70916D01*
X359031Y71052D01*
X359992Y71450D01*
X360817Y72083D01*
X361450Y72908D01*
X361848Y73869D01*
X361984Y74900D01*
X361848Y75931D01*
X361450Y76892D01*
X360817Y77717D01*
X359992Y78350D01*
X359031Y78748D01*
X358000Y78884D01*
D02*
G37*
G36*
X372500Y77635D02*
X371430Y77495D01*
X370432Y77081D01*
X369576Y76424D01*
X368919Y75568D01*
X368506Y74570D01*
X368365Y73500D01*
X368506Y72430D01*
X368822Y71665D01*
X364063Y66905D01*
X363775Y66475D01*
X363674Y65968D01*
Y55549D01*
X359298Y51172D01*
X358774Y51389D01*
X358000Y51491D01*
X357226Y51389D01*
X356505Y51090D01*
X355885Y50615D01*
X355410Y49995D01*
X355111Y49274D01*
X355009Y48500D01*
X355111Y47726D01*
X355410Y47005D01*
X355885Y46385D01*
X356505Y45910D01*
X357226Y45611D01*
X358000Y45509D01*
X358774Y45611D01*
X359495Y45910D01*
X360115Y46385D01*
X360590Y47005D01*
X360889Y47726D01*
X360991Y48500D01*
X360919Y49045D01*
X365937Y54063D01*
X366225Y54493D01*
X366325Y55000D01*
Y65419D01*
X370710Y69804D01*
X371430Y69506D01*
X372500Y69365D01*
X373570Y69506D01*
X374568Y69919D01*
X375424Y70576D01*
X376081Y71432D01*
X376495Y72430D01*
X376635Y73500D01*
X376495Y74570D01*
X376081Y75568D01*
X375424Y76424D01*
X374568Y77081D01*
X373570Y77495D01*
X372500Y77635D01*
D02*
G37*
G36*
X291400Y72796D02*
Y69315D01*
X294881D01*
X294800Y69933D01*
X294407Y70882D01*
X293781Y71697D01*
X292967Y72322D01*
X292018Y72715D01*
X291400Y72796D01*
D02*
G37*
G36*
X290600D02*
X289982Y72715D01*
X289033Y72322D01*
X288218Y71697D01*
X287593Y70882D01*
X287200Y69933D01*
X287119Y69315D01*
X290600D01*
Y72796D01*
D02*
G37*
G36*
X294881Y68515D02*
X291400D01*
Y65034D01*
X292018Y65115D01*
X292967Y65508D01*
X293781Y66133D01*
X294407Y66948D01*
X294800Y67897D01*
X294881Y68515D01*
D02*
G37*
G36*
X290600D02*
X287119D01*
X287200Y67897D01*
X287593Y66948D01*
X288218Y66133D01*
X289033Y65508D01*
X289982Y65115D01*
X290600Y65034D01*
Y68515D01*
D02*
G37*
G36*
X243400Y62350D02*
Y59815D01*
X245935D01*
X245886Y60188D01*
X245587Y60909D01*
X245112Y61528D01*
X244494Y62002D01*
X243773Y62301D01*
X243400Y62350D01*
D02*
G37*
G36*
X242600D02*
X242227Y62301D01*
X241506Y62002D01*
X240887Y61528D01*
X240413Y60909D01*
X240114Y60188D01*
X240065Y59815D01*
X242600D01*
Y62350D01*
D02*
G37*
G36*
X111000Y83191D02*
X110226Y83089D01*
X109504Y82790D01*
X108885Y82315D01*
X108410Y81695D01*
X108111Y80974D01*
X108009Y80200D01*
X108111Y79426D01*
X108410Y78705D01*
X108885Y78085D01*
X109504Y77610D01*
X109675Y77539D01*
Y72591D01*
X95896Y58813D01*
X95428Y59007D01*
X94500Y59129D01*
X93572Y59007D01*
X92707Y58648D01*
X91964Y58078D01*
X91394Y57335D01*
X91035Y56470D01*
X90913Y55542D01*
X91035Y54614D01*
X91394Y53749D01*
X91964Y53006D01*
X92707Y52436D01*
X93572Y52078D01*
X94500Y51955D01*
X95428Y52078D01*
X96293Y52436D01*
X97036Y53006D01*
X97606Y53749D01*
X97965Y54614D01*
X98087Y55542D01*
X97965Y56470D01*
X97771Y56938D01*
X111937Y71105D01*
X112225Y71535D01*
X112326Y72042D01*
Y77539D01*
X112496Y77610D01*
X113115Y78085D01*
X113590Y78705D01*
X113889Y79426D01*
X113991Y80200D01*
X113889Y80974D01*
X113590Y81695D01*
X113115Y82315D01*
X112496Y82790D01*
X111774Y83089D01*
X111000Y83191D01*
D02*
G37*
G36*
X372500Y65135D02*
X371430Y64995D01*
X370432Y64581D01*
X369576Y63924D01*
X368919Y63068D01*
X368506Y62070D01*
X368365Y61000D01*
X368506Y59930D01*
X368919Y58932D01*
X369576Y58076D01*
X370432Y57419D01*
X371430Y57006D01*
X372500Y56865D01*
X373570Y57006D01*
X374568Y57419D01*
X375424Y58076D01*
X376081Y58932D01*
X376495Y59930D01*
X376635Y61000D01*
X376495Y62070D01*
X376081Y63068D01*
X375424Y63924D01*
X374568Y64581D01*
X373570Y64995D01*
X372500Y65135D01*
D02*
G37*
G36*
X245935Y59015D02*
X243400D01*
Y56480D01*
X243773Y56529D01*
X244494Y56828D01*
X245112Y57302D01*
X245587Y57921D01*
X245886Y58642D01*
X245935Y59015D01*
D02*
G37*
G36*
X242600D02*
X240065D01*
X240114Y58642D01*
X240413Y57921D01*
X240887Y57302D01*
X241506Y56828D01*
X242227Y56529D01*
X242600Y56480D01*
Y59015D01*
D02*
G37*
G36*
X206000Y60791D02*
X205226Y60689D01*
X204504Y60390D01*
X203885Y59915D01*
X203410Y59295D01*
X203111Y58574D01*
X203009Y57800D01*
X203111Y57026D01*
X203410Y56305D01*
X203885Y55685D01*
X204504Y55210D01*
X205226Y54911D01*
X206000Y54809D01*
X206774Y54911D01*
X207495Y55210D01*
X208115Y55685D01*
X208590Y56305D01*
X208889Y57026D01*
X208991Y57800D01*
X208889Y58574D01*
X208590Y59295D01*
X208115Y59915D01*
X207495Y60390D01*
X206774Y60689D01*
X206000Y60791D01*
D02*
G37*
G36*
X121000Y58530D02*
X120123Y58415D01*
X119306Y58076D01*
X118604Y57538D01*
X118066Y56836D01*
X117913Y56467D01*
X115942D01*
X115435Y56367D01*
X115005Y56079D01*
X111944Y53019D01*
X111774Y53089D01*
X111000Y53191D01*
X110226Y53089D01*
X109504Y52790D01*
X108885Y52315D01*
X108410Y51696D01*
X108111Y50974D01*
X108009Y50200D01*
X108111Y49426D01*
X108410Y48704D01*
X108885Y48085D01*
X109504Y47610D01*
X110226Y47311D01*
X111000Y47209D01*
X111774Y47311D01*
X112496Y47610D01*
X113115Y48085D01*
X113590Y48704D01*
X113889Y49426D01*
X113991Y50200D01*
X113889Y50974D01*
X113819Y51144D01*
X116491Y53816D01*
X117913D01*
X118066Y53448D01*
X118604Y52746D01*
X119306Y52208D01*
X120123Y51869D01*
X121000Y51754D01*
X121877Y51869D01*
X122694Y52208D01*
X123396Y52746D01*
X123934Y53448D01*
X124273Y54265D01*
X124388Y55142D01*
X124273Y56019D01*
X123934Y56836D01*
X123396Y57538D01*
X122694Y58076D01*
X121877Y58415D01*
X121000Y58530D01*
D02*
G37*
G36*
X328000Y68884D02*
X326969Y68748D01*
X326008Y68350D01*
X325183Y67717D01*
X324550Y66892D01*
X324152Y65931D01*
X324016Y64900D01*
X324152Y63869D01*
X324550Y62908D01*
X325183Y62083D01*
X326008Y61450D01*
X326675Y61174D01*
Y51161D01*
X326504Y51090D01*
X325885Y50615D01*
X325410Y49995D01*
X325339Y49826D01*
X318889D01*
X318581Y50568D01*
X317924Y51424D01*
X317068Y52081D01*
X316070Y52495D01*
X315000Y52635D01*
X313930Y52495D01*
X312932Y52081D01*
X312076Y51424D01*
X311419Y50568D01*
X311005Y49570D01*
X310865Y48500D01*
X311005Y47430D01*
X311419Y46432D01*
X312076Y45576D01*
X312932Y44919D01*
X313930Y44506D01*
X315000Y44365D01*
X316070Y44506D01*
X317068Y44919D01*
X317924Y45576D01*
X318581Y46432D01*
X318889Y47175D01*
X325339D01*
X325410Y47005D01*
X325885Y46385D01*
X326504Y45910D01*
X327226Y45611D01*
X328000Y45509D01*
X328774Y45611D01*
X329496Y45910D01*
X330115Y46385D01*
X330590Y47005D01*
X330889Y47726D01*
X330991Y48500D01*
X330889Y49274D01*
X330590Y49995D01*
X330115Y50615D01*
X329496Y51090D01*
X329326Y51161D01*
Y61174D01*
X329992Y61450D01*
X330817Y62083D01*
X331450Y62908D01*
X331848Y63869D01*
X331984Y64900D01*
X331848Y65931D01*
X331450Y66892D01*
X330817Y67717D01*
X329992Y68350D01*
X329031Y68748D01*
X328000Y68884D01*
D02*
G37*
G36*
X372500Y55135D02*
X371430Y54994D01*
X370432Y54581D01*
X369576Y53924D01*
X368919Y53068D01*
X368506Y52070D01*
X368365Y51000D01*
X368506Y49930D01*
X368813Y49187D01*
X360233Y40607D01*
X360115Y40615D01*
X359495Y41090D01*
X358774Y41389D01*
X358000Y41491D01*
X357226Y41389D01*
X356505Y41090D01*
X355885Y40615D01*
X355410Y39996D01*
X355111Y39274D01*
X355009Y38500D01*
X355111Y37726D01*
X355410Y37005D01*
X355885Y36385D01*
X356505Y35910D01*
X357226Y35611D01*
X358000Y35509D01*
X358774Y35611D01*
X359495Y35910D01*
X360115Y36385D01*
X360590Y37005D01*
X360889Y37726D01*
X360903Y37828D01*
X361099Y37867D01*
X361529Y38155D01*
X370688Y47313D01*
X371430Y47006D01*
X372500Y46865D01*
X373570Y47006D01*
X374568Y47419D01*
X375424Y48076D01*
X376081Y48932D01*
X376495Y49930D01*
X376635Y51000D01*
X376495Y52070D01*
X376081Y53068D01*
X375424Y53924D01*
X374568Y54581D01*
X373570Y54994D01*
X372500Y55135D01*
D02*
G37*
G36*
X136900Y46634D02*
Y43900D01*
X139634D01*
X139578Y44325D01*
X139259Y45093D01*
X138753Y45753D01*
X138093Y46259D01*
X137325Y46578D01*
X136900Y46634D01*
D02*
G37*
G36*
X136100D02*
X135675Y46578D01*
X134907Y46259D01*
X134247Y45753D01*
X133741Y45093D01*
X133422Y44325D01*
X133366Y43900D01*
X136100D01*
Y46634D01*
D02*
G37*
G36*
X139634Y43100D02*
X136900D01*
Y40366D01*
X137325Y40422D01*
X138093Y40741D01*
X138753Y41247D01*
X139259Y41907D01*
X139578Y42675D01*
X139634Y43100D01*
D02*
G37*
G36*
X136100D02*
X133366D01*
X133422Y42675D01*
X133741Y41907D01*
X134247Y41247D01*
X134907Y40741D01*
X135675Y40422D01*
X136100Y40366D01*
Y43100D01*
D02*
G37*
G36*
X328000Y78884D02*
X326969Y78748D01*
X326008Y78350D01*
X325183Y77717D01*
X324550Y76892D01*
X324152Y75931D01*
X324016Y74900D01*
X324152Y73869D01*
X324550Y72908D01*
X325183Y72083D01*
X326008Y71450D01*
X326969Y71052D01*
X328000Y70916D01*
X329031Y71052D01*
X329992Y71450D01*
X330817Y72083D01*
X331425Y72876D01*
X331542Y72967D01*
X331959Y73050D01*
X335174Y69835D01*
Y44558D01*
X330956Y40340D01*
X330293Y40383D01*
X330115Y40615D01*
X329496Y41090D01*
X328774Y41389D01*
X328000Y41491D01*
X327226Y41389D01*
X326504Y41090D01*
X325885Y40615D01*
X325410Y39996D01*
X325339Y39825D01*
X318889D01*
X318581Y40568D01*
X317924Y41424D01*
X317068Y42081D01*
X316070Y42494D01*
X315000Y42635D01*
X313930Y42494D01*
X312932Y42081D01*
X312076Y41424D01*
X311419Y40568D01*
X311005Y39570D01*
X310865Y38500D01*
X311005Y37430D01*
X311419Y36432D01*
X312076Y35576D01*
X312932Y34919D01*
X313930Y34506D01*
X315000Y34365D01*
X316070Y34506D01*
X317068Y34919D01*
X317924Y35576D01*
X318581Y36432D01*
X318889Y37174D01*
X325339D01*
X325410Y37005D01*
X325885Y36385D01*
X326504Y35910D01*
X327226Y35611D01*
X328000Y35509D01*
X328774Y35611D01*
X329496Y35910D01*
X330115Y36385D01*
X330590Y37005D01*
X330661Y37174D01*
X330991D01*
X331498Y37275D01*
X331928Y37563D01*
X337437Y43072D01*
X337725Y43502D01*
X337825Y44009D01*
X337825Y44009D01*
Y70384D01*
X337725Y70891D01*
X337437Y71321D01*
X333001Y75757D01*
X332571Y76044D01*
X332064Y76145D01*
X331759D01*
X331450Y76892D01*
X330817Y77717D01*
X329992Y78350D01*
X329031Y78748D01*
X328000Y78884D01*
D02*
G37*
G36*
X156500Y46888D02*
X155623Y46773D01*
X154806Y46434D01*
X154104Y45896D01*
X153566Y45194D01*
X153227Y44377D01*
X153112Y43500D01*
X153227Y42623D01*
X153566Y41806D01*
X154104Y41104D01*
X154806Y40566D01*
X155623Y40227D01*
X156500Y40112D01*
X157377Y40227D01*
X158194Y40566D01*
X158896Y41104D01*
X159434Y41806D01*
X159773Y42623D01*
X159888Y43500D01*
X159773Y44377D01*
X159434Y45194D01*
X158896Y45896D01*
X158194Y46434D01*
X157377Y46773D01*
X156500Y46888D01*
D02*
G37*
G36*
X177831Y45165D02*
X177149Y45075D01*
X176514Y44812D01*
X175969Y44393D01*
X175550Y43848D01*
X175287Y43213D01*
X175197Y42531D01*
X175287Y41849D01*
X175550Y41214D01*
X175969Y40669D01*
X176514Y40250D01*
X177149Y39987D01*
X177831Y39898D01*
X178512Y39987D01*
X179148Y40250D01*
X179693Y40669D01*
X180111Y41214D01*
X180375Y41849D01*
X180464Y42531D01*
X180375Y43213D01*
X180111Y43848D01*
X179693Y44393D01*
X179148Y44812D01*
X178512Y45075D01*
X177831Y45165D01*
D02*
G37*
G36*
X171500D02*
X170818Y45075D01*
X170183Y44812D01*
X169638Y44393D01*
X169219Y43848D01*
X168956Y43213D01*
X168867Y42531D01*
X168956Y41849D01*
X169219Y41214D01*
X169638Y40669D01*
X170183Y40250D01*
X170818Y39987D01*
X171500Y39898D01*
X172182Y39987D01*
X172817Y40250D01*
X173362Y40669D01*
X173781Y41214D01*
X174044Y41849D01*
X174134Y42531D01*
X174044Y43213D01*
X173781Y43848D01*
X173362Y44393D01*
X172817Y44812D01*
X172182Y45075D01*
X171500Y45165D01*
D02*
G37*
G36*
X237296Y42074D02*
Y39400D01*
X239970D01*
X239916Y39809D01*
X239604Y40563D01*
X239107Y41211D01*
X238459Y41708D01*
X237705Y42020D01*
X237296Y42074D01*
D02*
G37*
G36*
X236496D02*
X236087Y42020D01*
X235332Y41708D01*
X234685Y41211D01*
X234188Y40563D01*
X233876Y39809D01*
X233822Y39400D01*
X236496D01*
Y42074D01*
D02*
G37*
G36*
X195600Y46600D02*
X187400D01*
Y38400D01*
X195600D01*
Y46600D01*
D02*
G37*
G36*
X239970Y38600D02*
X237296D01*
Y35926D01*
X237705Y35980D01*
X238459Y36292D01*
X239107Y36789D01*
X239604Y37437D01*
X239916Y38191D01*
X239970Y38600D01*
D02*
G37*
G36*
X236496D02*
X233822D01*
X233876Y38191D01*
X234188Y37437D01*
X234685Y36789D01*
X235332Y36292D01*
X236087Y35980D01*
X236496Y35926D01*
Y38600D01*
D02*
G37*
G36*
X256896Y42329D02*
X256034Y42215D01*
X255232Y41883D01*
X254542Y41354D01*
X254013Y40664D01*
X253681Y39862D01*
X253567Y39000D01*
X253681Y38138D01*
X254013Y37336D01*
X254542Y36646D01*
X255232Y36118D01*
X256034Y35785D01*
X256896Y35671D01*
X257757Y35785D01*
X258560Y36118D01*
X259249Y36646D01*
X259778Y37336D01*
X260111Y38138D01*
X260224Y39000D01*
X260111Y39862D01*
X259778Y40664D01*
X259249Y41354D01*
X258560Y41883D01*
X257757Y42215D01*
X256896Y42329D01*
D02*
G37*
G36*
X246896D02*
X246034Y42215D01*
X245232Y41883D01*
X244542Y41354D01*
X244013Y40664D01*
X243681Y39862D01*
X243567Y39000D01*
X243681Y38138D01*
X244013Y37336D01*
X244542Y36646D01*
X245232Y36118D01*
X246034Y35785D01*
X246896Y35671D01*
X247757Y35785D01*
X248560Y36118D01*
X249249Y36646D01*
X249778Y37336D01*
X250111Y38138D01*
X250224Y39000D01*
X250111Y39862D01*
X249778Y40664D01*
X249249Y41354D01*
X248560Y41883D01*
X247757Y42215D01*
X246896Y42329D01*
D02*
G37*
G36*
X372500Y42635D02*
X371430Y42494D01*
X370432Y42081D01*
X369576Y41424D01*
X368919Y40568D01*
X368506Y39570D01*
X368365Y38500D01*
X368506Y37430D01*
X368919Y36432D01*
X369576Y35576D01*
X370432Y34919D01*
X371430Y34506D01*
X372500Y34365D01*
X373570Y34506D01*
X374568Y34919D01*
X375424Y35576D01*
X376081Y36432D01*
X376495Y37430D01*
X376635Y38500D01*
X376495Y39570D01*
X376081Y40568D01*
X375424Y41424D01*
X374568Y42081D01*
X373570Y42494D01*
X372500Y42635D01*
D02*
G37*
G36*
X191900Y36381D02*
Y32900D01*
X195381D01*
X195300Y33518D01*
X194907Y34467D01*
X194281Y35282D01*
X193467Y35907D01*
X192518Y36300D01*
X191900Y36381D01*
D02*
G37*
G36*
X191100D02*
X190482Y36300D01*
X189533Y35907D01*
X188718Y35282D01*
X188093Y34467D01*
X187700Y33518D01*
X187619Y32900D01*
X191100D01*
Y36381D01*
D02*
G37*
G36*
X149966Y36845D02*
X144035D01*
Y30915D01*
X149966D01*
Y36845D01*
D02*
G37*
G36*
X372500Y32635D02*
X371430Y32495D01*
X370432Y32081D01*
X369576Y31424D01*
X368919Y30568D01*
X368611Y29825D01*
X360661D01*
X360590Y29996D01*
X360115Y30615D01*
X359495Y31090D01*
X358774Y31389D01*
X358000Y31491D01*
X357226Y31389D01*
X356505Y31090D01*
X355885Y30615D01*
X355410Y29996D01*
X355111Y29274D01*
X355009Y28500D01*
X355111Y27726D01*
X355410Y27005D01*
X355885Y26385D01*
X356505Y25910D01*
X357226Y25611D01*
X358000Y25509D01*
X358774Y25611D01*
X359495Y25910D01*
X360115Y26385D01*
X360590Y27005D01*
X360661Y27174D01*
X368611D01*
X368919Y26432D01*
X369576Y25576D01*
X370432Y24919D01*
X371430Y24506D01*
X372500Y24365D01*
X373570Y24506D01*
X374568Y24919D01*
X375424Y25576D01*
X376081Y26432D01*
X376495Y27430D01*
X376635Y28500D01*
X376495Y29570D01*
X376081Y30568D01*
X375424Y31424D01*
X374568Y32081D01*
X373570Y32495D01*
X372500Y32635D01*
D02*
G37*
G36*
X328000Y88984D02*
X326969Y88848D01*
X326008Y88450D01*
X325183Y87817D01*
X324550Y86992D01*
X324152Y86031D01*
X324016Y85000D01*
X324152Y83969D01*
X324550Y83008D01*
X325183Y82183D01*
X326008Y81550D01*
X326969Y81152D01*
X328000Y81016D01*
X329031Y81152D01*
X329992Y81550D01*
X330817Y82183D01*
X331450Y83008D01*
X331726Y83675D01*
X335316D01*
X341175Y77816D01*
Y35549D01*
X335451Y29825D01*
X330661D01*
X330590Y29996D01*
X330115Y30615D01*
X329496Y31090D01*
X328774Y31389D01*
X328000Y31491D01*
X327226Y31389D01*
X326504Y31090D01*
X325885Y30615D01*
X325410Y29996D01*
X325339Y29825D01*
X318889D01*
X318581Y30568D01*
X317924Y31424D01*
X317068Y32081D01*
X316070Y32495D01*
X315000Y32635D01*
X313930Y32495D01*
X312932Y32081D01*
X312076Y31424D01*
X311419Y30568D01*
X311005Y29570D01*
X310865Y28500D01*
X311005Y27430D01*
X311419Y26432D01*
X312076Y25576D01*
X312932Y24919D01*
X313930Y24506D01*
X315000Y24365D01*
X316070Y24506D01*
X317068Y24919D01*
X317924Y25576D01*
X318581Y26432D01*
X318889Y27174D01*
X325339D01*
X325410Y27005D01*
X325885Y26385D01*
X326504Y25910D01*
X327226Y25611D01*
X328000Y25509D01*
X328774Y25611D01*
X329496Y25910D01*
X330115Y26385D01*
X330590Y27005D01*
X330661Y27174D01*
X336000D01*
X336507Y27275D01*
X336937Y27563D01*
X343437Y34063D01*
X343725Y34493D01*
X343826Y35000D01*
Y78365D01*
X343725Y78872D01*
X343437Y79302D01*
X336802Y85937D01*
X336372Y86225D01*
X335865Y86326D01*
X331726D01*
X331450Y86992D01*
X330817Y87817D01*
X329992Y88450D01*
X329031Y88848D01*
X328000Y88984D01*
D02*
G37*
G36*
X195381Y32100D02*
X191900D01*
Y28619D01*
X192518Y28700D01*
X193467Y29093D01*
X194281Y29719D01*
X194907Y30533D01*
X195300Y31482D01*
X195381Y32100D01*
D02*
G37*
G36*
X191100D02*
X187619D01*
X187700Y31482D01*
X188093Y30533D01*
X188718Y29719D01*
X189533Y29093D01*
X190482Y28700D01*
X191100Y28619D01*
Y32100D01*
D02*
G37*
G36*
X171600Y34888D02*
X170723Y34773D01*
X169906Y34434D01*
X169204Y33896D01*
X168666Y33194D01*
X168327Y32377D01*
X168212Y31500D01*
X168327Y30623D01*
X168666Y29806D01*
X169204Y29104D01*
X169906Y28566D01*
X170723Y28227D01*
X171600Y28112D01*
X172477Y28227D01*
X173294Y28566D01*
X173996Y29104D01*
X174534Y29806D01*
X174873Y30623D01*
X174988Y31500D01*
X174873Y32377D01*
X174534Y33194D01*
X173996Y33896D01*
X173294Y34434D01*
X172477Y34773D01*
X171600Y34888D01*
D02*
G37*
G36*
X147400Y28737D02*
Y26400D01*
X149737D01*
X149694Y26722D01*
X149416Y27395D01*
X148972Y27972D01*
X148395Y28416D01*
X147722Y28694D01*
X147400Y28737D01*
D02*
G37*
G36*
X146600D02*
X146278Y28694D01*
X145605Y28416D01*
X145028Y27972D01*
X144584Y27395D01*
X144306Y26722D01*
X144263Y26400D01*
X146600D01*
Y28737D01*
D02*
G37*
G36*
X149737Y25600D02*
X147400D01*
Y23263D01*
X147722Y23306D01*
X148395Y23584D01*
X148972Y24028D01*
X149416Y24605D01*
X149694Y25278D01*
X149737Y25600D01*
D02*
G37*
G36*
X146600D02*
X144263D01*
X144306Y25278D01*
X144584Y24605D01*
X145028Y24028D01*
X145605Y23584D01*
X146278Y23306D01*
X146600Y23263D01*
Y25600D01*
D02*
G37*
G36*
X215900Y22134D02*
Y19400D01*
X218634D01*
X218578Y19825D01*
X218259Y20593D01*
X217753Y21253D01*
X217093Y21759D01*
X216325Y22078D01*
X215900Y22134D01*
D02*
G37*
G36*
X215100D02*
X214675Y22078D01*
X213907Y21759D01*
X213247Y21253D01*
X212741Y20593D01*
X212422Y19825D01*
X212366Y19400D01*
X215100D01*
Y22134D01*
D02*
G37*
G36*
X218634Y18600D02*
X215900D01*
Y15866D01*
X216325Y15922D01*
X217093Y16241D01*
X217753Y16747D01*
X218259Y17407D01*
X218578Y18175D01*
X218634Y18600D01*
D02*
G37*
G36*
X215100D02*
X212366D01*
X212422Y18175D01*
X212741Y17407D01*
X213247Y16747D01*
X213907Y16241D01*
X214675Y15922D01*
X215100Y15866D01*
Y18600D01*
D02*
G37*
G36*
X172000Y14634D02*
Y11900D01*
X174734D01*
X174678Y12325D01*
X174359Y13093D01*
X173853Y13753D01*
X173193Y14259D01*
X172425Y14578D01*
X172000Y14634D01*
D02*
G37*
G36*
X171200D02*
X170775Y14578D01*
X170007Y14259D01*
X169347Y13753D01*
X168841Y13093D01*
X168522Y12325D01*
X168466Y11900D01*
X171200D01*
Y14634D01*
D02*
G37*
G36*
X257296Y12074D02*
Y9400D01*
X259970D01*
X259916Y9809D01*
X259604Y10563D01*
X259107Y11211D01*
X258459Y11708D01*
X257705Y12020D01*
X257296Y12074D01*
D02*
G37*
G36*
X247296D02*
Y9400D01*
X249970D01*
X249916Y9809D01*
X249604Y10563D01*
X249107Y11211D01*
X248459Y11708D01*
X247705Y12020D01*
X247296Y12074D01*
D02*
G37*
G36*
X237296D02*
Y9400D01*
X239970D01*
X239916Y9809D01*
X239604Y10563D01*
X239107Y11211D01*
X238459Y11708D01*
X237705Y12020D01*
X237296Y12074D01*
D02*
G37*
G36*
X227296D02*
Y9400D01*
X229970D01*
X229916Y9809D01*
X229604Y10563D01*
X229107Y11211D01*
X228459Y11708D01*
X227705Y12020D01*
X227296Y12074D01*
D02*
G37*
G36*
X256496D02*
X256087Y12020D01*
X255332Y11708D01*
X254685Y11211D01*
X254188Y10563D01*
X253876Y9809D01*
X253822Y9400D01*
X256496D01*
Y12074D01*
D02*
G37*
G36*
X246496D02*
X246087Y12020D01*
X245333Y11708D01*
X244685Y11211D01*
X244188Y10563D01*
X243876Y9809D01*
X243822Y9400D01*
X246496D01*
Y12074D01*
D02*
G37*
G36*
X226496D02*
X226087Y12020D01*
X225332Y11708D01*
X224685Y11211D01*
X224188Y10563D01*
X223876Y9809D01*
X223822Y9400D01*
X226496D01*
Y12074D01*
D02*
G37*
G36*
X236496D02*
X236087Y12020D01*
X235332Y11708D01*
X234685Y11211D01*
X234188Y10563D01*
X233876Y9809D01*
X233822Y9400D01*
X236496D01*
Y12074D01*
D02*
G37*
G36*
X174734Y11100D02*
X172000D01*
Y8366D01*
X172425Y8422D01*
X173193Y8741D01*
X173853Y9247D01*
X174359Y9907D01*
X174678Y10675D01*
X174734Y11100D01*
D02*
G37*
G36*
X171200D02*
X168466D01*
X168522Y10675D01*
X168841Y9907D01*
X169347Y9247D01*
X170007Y8741D01*
X170775Y8422D01*
X171200Y8366D01*
Y11100D01*
D02*
G37*
G36*
X259970Y8600D02*
X257296D01*
Y5926D01*
X257705Y5980D01*
X258459Y6292D01*
X259107Y6789D01*
X259604Y7437D01*
X259916Y8191D01*
X259970Y8600D01*
D02*
G37*
G36*
X249970D02*
X247296D01*
Y5926D01*
X247705Y5980D01*
X248459Y6292D01*
X249107Y6789D01*
X249604Y7437D01*
X249916Y8191D01*
X249970Y8600D01*
D02*
G37*
G36*
X239970D02*
X237296D01*
Y5926D01*
X237705Y5980D01*
X238459Y6292D01*
X239107Y6789D01*
X239604Y7437D01*
X239916Y8191D01*
X239970Y8600D01*
D02*
G37*
G36*
X229970D02*
X227296D01*
Y5926D01*
X227705Y5980D01*
X228459Y6292D01*
X229107Y6789D01*
X229604Y7437D01*
X229916Y8191D01*
X229970Y8600D01*
D02*
G37*
G36*
X226496D02*
X223822D01*
X223876Y8191D01*
X224188Y7437D01*
X224685Y6789D01*
X225332Y6292D01*
X226087Y5980D01*
X226496Y5926D01*
Y8600D01*
D02*
G37*
G36*
X256496D02*
X253822D01*
X253876Y8191D01*
X254188Y7437D01*
X254685Y6789D01*
X255332Y6292D01*
X256087Y5980D01*
X256496Y5926D01*
Y8600D01*
D02*
G37*
G36*
X246496D02*
X243822D01*
X243876Y8191D01*
X244188Y7437D01*
X244685Y6789D01*
X245333Y6292D01*
X246087Y5980D01*
X246496Y5926D01*
Y8600D01*
D02*
G37*
G36*
X236496D02*
X233822D01*
X233876Y8191D01*
X234188Y7437D01*
X234685Y6789D01*
X235332Y6292D01*
X236087Y5980D01*
X236496Y5926D01*
Y8600D01*
D02*
G37*
%LPD*%
D12*
X75000Y134600D02*
X82974Y142575D01*
X75000Y95042D02*
Y134600D01*
Y95042D02*
X94500Y75542D01*
X315000Y28500D02*
X328000D01*
X315000Y38500D02*
X328000D01*
X315000Y48500D02*
X328000D01*
X31000Y135000D02*
X51000D01*
X55000Y131000D02*
X61000D01*
X51000Y135000D02*
X55000Y131000D01*
X51000Y135000D02*
Y141000D01*
X35000Y111000D02*
X41000D01*
X31000Y115000D02*
X35000Y111000D01*
X111000Y72042D02*
Y80200D01*
X94500Y55542D02*
X111000Y72042D01*
Y50200D02*
X115942Y55142D01*
X121000D01*
X110900Y111223D02*
X111000Y111323D01*
Y121000D01*
Y151000D02*
X121000D01*
Y161000D01*
X120932Y55210D02*
X121000Y55142D01*
X342500Y35000D02*
Y78365D01*
X335865Y85000D02*
X342500Y78365D01*
X328000Y85000D02*
X335865D01*
X336000Y28500D02*
X342500Y35000D01*
X328000Y28500D02*
X336000D01*
X332064Y74820D02*
X336500Y70384D01*
X328080Y74820D02*
X332064D01*
X328000Y74900D02*
X328080Y74820D01*
X336500Y44009D02*
Y70384D01*
X330991Y38500D02*
X336500Y44009D01*
X328000Y38500D02*
X330991D01*
X328000Y48500D02*
Y64900D01*
X358500Y48500D02*
X365000Y55000D01*
X358000Y48500D02*
X358500D01*
X365000Y71900D02*
Y76000D01*
X372500Y83500D01*
X358000Y64900D02*
X365000Y71900D01*
Y65968D02*
X372500Y73468D01*
Y73500D01*
X365000Y55000D02*
Y65968D01*
X358592Y39092D02*
X360592D01*
X358000Y38500D02*
X358592Y39092D01*
X360592D02*
X372500Y51000D01*
X358000Y28500D02*
X372500D01*
X315500Y129685D02*
X315543Y129642D01*
X332472D01*
X315500Y139685D02*
X332472D01*
X315500Y149685D02*
X315543Y149728D01*
X332472D01*
X315500Y184685D02*
X315543Y184643D01*
X332472D01*
X315500Y194685D02*
X332472D01*
X315500Y204685D02*
X315543Y204728D01*
X332472D01*
X315500Y240315D02*
X315543Y240272D01*
X332472D01*
X315500Y250315D02*
X332472D01*
X315500Y260315D02*
X315543Y260357D01*
X332472D01*
X346315Y298000D02*
Y340598D01*
X356315Y298000D02*
X366000Y307685D01*
Y330756D01*
X326630Y307685D02*
X336315Y298000D01*
X326630Y307685D02*
Y330756D01*
X270000Y284500D02*
Y332102D01*
X228102Y374000D02*
X270000Y332102D01*
X260000Y284500D02*
Y317102D01*
X228102Y349000D02*
X260000Y317102D01*
X250000Y284500D02*
Y302102D01*
X228102Y324000D02*
X250000Y302102D01*
X175880Y103120D02*
X176000Y103000D01*
X141500Y103120D02*
X175880D01*
X91000Y121000D02*
Y131000D01*
Y171000D02*
Y181000D01*
X82974Y142575D02*
Y162975D01*
X91000Y171000D01*
X61000Y246000D02*
X68400Y238600D01*
Y178400D02*
Y238600D01*
X61000Y171000D02*
X68400Y178400D01*
X61000Y246000D02*
Y256000D01*
X124000Y168000D02*
X131000Y161000D01*
X98000Y168000D02*
X124000D01*
X91000Y161000D02*
X98000Y168000D01*
X131000Y161000D02*
X141000D01*
X61000Y266000D02*
X84300Y242700D01*
Y220000D02*
Y242700D01*
X130243Y229563D02*
Y230957D01*
X119200Y242000D02*
X130243Y230957D01*
X103600Y242000D02*
X119200D01*
X91000Y254600D02*
Y256000D01*
Y266000D01*
Y254600D02*
X103600Y242000D01*
X97437Y229563D02*
X110158D01*
X91000Y236000D02*
X97437Y229563D01*
X91000Y236000D02*
Y246000D01*
X21158Y229563D02*
X37595Y246000D01*
X61000D01*
X58800Y233800D02*
X61000Y236000D01*
X58800Y220000D02*
Y233800D01*
X51000Y111000D02*
X61000Y121000D01*
X41000Y111000D02*
X51000D01*
Y141000D02*
Y151000D01*
X24670Y157330D02*
Y160830D01*
X24500Y161000D02*
X24670Y160830D01*
Y157330D02*
X41000Y141000D01*
X140911Y191089D02*
Y194689D01*
X134600Y201000D02*
X140911Y194689D01*
X131000Y201000D02*
X134600D01*
X140911Y191089D02*
X141000Y191000D01*
X151000D02*
Y201000D01*
Y273551D01*
X100551Y324000D02*
X151000Y273551D01*
X23900Y249995D02*
Y264900D01*
X11551Y277249D02*
X23900Y264900D01*
X11551Y277249D02*
Y324000D01*
X11400Y194100D02*
Y237495D01*
Y194100D02*
X24500Y181000D01*
X11400Y237495D02*
X23900Y249995D01*
X24500Y181000D02*
X41000D01*
X51000D02*
X61000D01*
X41200Y190800D02*
X51000Y181000D01*
X41200Y190800D02*
Y216000D01*
X21158Y216042D02*
X21200Y216000D01*
X21158Y216042D02*
Y229563D01*
X41200Y216000D02*
X41243Y216043D01*
Y229563D01*
X31201D02*
X41243D01*
X41000Y216000D02*
X41043Y216043D01*
D38*
X206000Y87800D02*
Y103000D01*
D39*
X142162Y151000D02*
X161000D01*
X131462Y140300D02*
X142162Y151000D01*
X108064Y140300D02*
X131462D01*
X215500Y39000D02*
X226896D01*
X227000Y39104D02*
Y78915D01*
X243000Y98915D02*
Y114915D01*
X225915Y132000D02*
X243000Y114915D01*
Y69415D02*
Y78915D01*
X243500Y68915D02*
X275500D01*
X243000Y69415D02*
X243500Y68915D01*
X197176Y132000D02*
X225915D01*
X206000Y78915D02*
X227000D01*
X206000D02*
Y87800D01*
X156580Y78915D02*
X206000D01*
X203390Y288494D02*
X210500Y295605D01*
X203500Y270000D02*
Y288384D01*
X203390Y288494D02*
X203500Y288384D01*
X178500Y245000D02*
X203500Y270000D01*
X178500Y226000D02*
Y245000D01*
Y190500D02*
Y226000D01*
X197500D01*
X178500Y163000D02*
Y190500D01*
X178000Y191000D02*
X178500Y190500D01*
X161000Y191000D02*
X178000D01*
X178500Y150676D02*
X197176Y132000D01*
X178500Y150676D02*
Y163000D01*
X197000D01*
X275500Y183000D02*
Y193000D01*
Y173000D02*
Y183000D01*
Y163000D02*
Y173000D01*
Y153000D02*
Y163000D01*
X258500Y173000D02*
X275500D01*
X254000Y177500D02*
X258500Y173000D01*
X242500Y177500D02*
X254000D01*
X226500D02*
X242500D01*
X213000Y157500D02*
X226500D01*
X207500Y163000D02*
X213000Y157500D01*
X197000Y163000D02*
X207500D01*
X275500Y236000D02*
Y246000D01*
Y256000D01*
Y226000D02*
Y236000D01*
Y216000D02*
Y226000D01*
X258500Y236000D02*
X275500D01*
X254000Y240500D02*
X258500Y236000D01*
X242500Y240500D02*
X254000D01*
X226500D02*
X242500D01*
X213500Y220500D02*
X226500D01*
X208000Y226000D02*
X213500Y220500D01*
X197500Y226000D02*
X208000D01*
X210500Y295605D02*
Y314500D01*
X206808Y359692D02*
X210500Y356000D01*
Y314500D02*
Y356000D01*
X196808Y359692D02*
X206808D01*
X196500Y360000D02*
X196808Y359692D01*
X275500Y98915D02*
Y108915D01*
Y88915D02*
Y98915D01*
Y78915D02*
Y88915D01*
Y68915D02*
Y78915D01*
X243000Y98915D02*
X256500D01*
X227000Y78915D02*
X243000D01*
X61000Y161000D02*
X75200D01*
Y177939D01*
Y147228D02*
Y161000D01*
X68972Y141000D02*
X75200Y147228D01*
Y177939D02*
X88261Y191000D01*
X61000Y141000D02*
X68972D01*
X88261Y191000D02*
X101000D01*
Y147364D02*
X108064Y140300D01*
X101000Y147364D02*
Y151000D01*
Y161000D01*
X91000Y151000D02*
X101000D01*
X161000D02*
Y161000D01*
X111000Y201000D02*
X120201Y210201D01*
Y229563D01*
X111000Y191000D02*
Y201000D01*
X121000Y191000D02*
X131000D01*
X111000D02*
X121000D01*
X101000D02*
X111000D01*
D40*
X191500Y42500D02*
D03*
D41*
Y32500D02*
D03*
X315000Y38500D02*
D03*
Y28500D02*
D03*
Y48500D02*
D03*
X260000Y284500D02*
D03*
X270000D02*
D03*
X250000D02*
D03*
X346315Y298000D02*
D03*
X356315D02*
D03*
X336315D02*
D03*
X291000Y183000D02*
D03*
Y173000D02*
D03*
Y153000D02*
D03*
Y163000D02*
D03*
Y193000D02*
D03*
X275500Y183000D02*
D03*
Y173000D02*
D03*
Y153000D02*
D03*
Y163000D02*
D03*
Y193000D02*
D03*
X291000Y78915D02*
D03*
Y88915D02*
D03*
Y108915D02*
D03*
Y98915D02*
D03*
Y68915D02*
D03*
X275500Y78915D02*
D03*
Y88915D02*
D03*
Y108915D02*
D03*
Y98915D02*
D03*
Y68915D02*
D03*
X291000Y246000D02*
D03*
Y236000D02*
D03*
Y216000D02*
D03*
Y226000D02*
D03*
Y256000D02*
D03*
X275500Y246000D02*
D03*
Y236000D02*
D03*
Y216000D02*
D03*
Y226000D02*
D03*
Y256000D02*
D03*
X315500Y139685D02*
D03*
Y149685D02*
D03*
Y129685D02*
D03*
Y194685D02*
D03*
Y204685D02*
D03*
Y184685D02*
D03*
Y250315D02*
D03*
Y260315D02*
D03*
Y240315D02*
D03*
X372500Y38500D02*
D03*
Y28500D02*
D03*
Y61000D02*
D03*
Y51000D02*
D03*
Y83500D02*
D03*
Y73500D02*
D03*
X164449Y117000D02*
D03*
X174449D02*
D03*
X154449D02*
D03*
X196600D02*
D03*
X206600D02*
D03*
X186600D02*
D03*
D42*
X141500Y111000D02*
D03*
X328000Y28500D02*
D03*
X358000D02*
D03*
X328000Y38500D02*
D03*
X358000D02*
D03*
X328000Y48500D02*
D03*
X358000D02*
D03*
X189610Y288494D02*
D03*
X176000Y103000D02*
D03*
X206000D02*
D03*
Y57800D02*
D03*
Y87800D02*
D03*
X147000Y26000D02*
D03*
X111000Y151000D02*
D03*
Y121000D02*
D03*
X161000Y161000D02*
D03*
Y191000D02*
D03*
X151000Y161000D02*
D03*
Y191000D02*
D03*
X141000Y161000D02*
D03*
Y191000D02*
D03*
X131000Y161000D02*
D03*
Y191000D02*
D03*
X121000D02*
D03*
Y161000D02*
D03*
X111000D02*
D03*
Y191000D02*
D03*
X101000Y161000D02*
D03*
Y191000D02*
D03*
X111000Y50200D02*
D03*
Y80200D02*
D03*
X51000Y111000D02*
D03*
Y141000D02*
D03*
X41000D02*
D03*
Y111000D02*
D03*
X51000Y151000D02*
D03*
Y181000D02*
D03*
X41000D02*
D03*
Y151000D02*
D03*
X91000Y266000D02*
D03*
X61000D02*
D03*
Y256000D02*
D03*
X91000D02*
D03*
X61000Y246000D02*
D03*
X91000D02*
D03*
Y236000D02*
D03*
X61000D02*
D03*
D43*
X141500Y103120D02*
D03*
X147000Y33880D02*
D03*
D44*
X360032Y158386D02*
D03*
Y120984D02*
D03*
Y213386D02*
D03*
Y175984D02*
D03*
Y269016D02*
D03*
Y231614D02*
D03*
X49902Y257122D02*
D03*
X12500D02*
D03*
X138902D02*
D03*
X101500D02*
D03*
D45*
X332472Y129642D02*
D03*
Y139685D02*
D03*
Y149728D02*
D03*
Y184643D02*
D03*
Y194685D02*
D03*
Y204728D02*
D03*
Y240272D02*
D03*
Y250315D02*
D03*
Y260357D02*
D03*
X21158Y229563D02*
D03*
X31201D02*
D03*
X41243D02*
D03*
X110158D02*
D03*
X120201D02*
D03*
X130243D02*
D03*
D46*
X256896Y39000D02*
D03*
X236896D02*
D03*
X226896D02*
D03*
X246896D02*
D03*
X256896Y9000D02*
D03*
X246896D02*
D03*
X226896D02*
D03*
X236896D02*
D03*
X91000Y121000D02*
D03*
Y131000D02*
D03*
Y181000D02*
D03*
X61000D02*
D03*
X91000Y141000D02*
D03*
Y151000D02*
D03*
Y171000D02*
D03*
Y161000D02*
D03*
X61000Y171000D02*
D03*
Y161000D02*
D03*
Y151000D02*
D03*
Y141000D02*
D03*
Y131000D02*
D03*
Y121000D02*
D03*
D47*
X215500Y39000D02*
D03*
Y19000D02*
D03*
X256500Y78915D02*
D03*
Y98915D02*
D03*
X227000D02*
D03*
Y78915D02*
D03*
X171600Y11500D02*
D03*
Y31500D02*
D03*
X136500Y43500D02*
D03*
X156500D02*
D03*
X242500Y157500D02*
D03*
Y177500D02*
D03*
X213000D02*
D03*
Y157500D02*
D03*
X242500Y220500D02*
D03*
Y240500D02*
D03*
X213500D02*
D03*
Y220500D02*
D03*
X121000Y151000D02*
D03*
Y131000D02*
D03*
X101000D02*
D03*
Y151000D02*
D03*
X151000Y201000D02*
D03*
X131000D02*
D03*
X121000Y55142D02*
D03*
Y75142D02*
D03*
X31000Y135000D02*
D03*
Y115000D02*
D03*
X21200Y216000D02*
D03*
X41200D02*
D03*
D48*
X171500Y42531D02*
D03*
X177831D02*
D03*
D49*
X203390Y288494D02*
D03*
D50*
X164449Y324000D02*
D03*
X100551D02*
D03*
X164449Y374000D02*
D03*
X100551D02*
D03*
X164449Y349000D02*
D03*
X100551D02*
D03*
X75449Y324000D02*
D03*
X11551D02*
D03*
X75449Y374000D02*
D03*
X11551D02*
D03*
X75449Y349000D02*
D03*
X11551D02*
D03*
X292000Y324000D02*
D03*
X228102D02*
D03*
X292000Y374000D02*
D03*
X228102D02*
D03*
X292000Y349000D02*
D03*
X228102D02*
D03*
D51*
X316787Y340598D02*
D03*
X346315D02*
D03*
X375842D02*
D03*
X326630Y378000D02*
D03*
X366000D02*
D03*
Y330756D02*
D03*
X326630D02*
D03*
D52*
X196500Y336378D02*
D03*
Y360000D02*
D03*
D53*
X210500Y314500D02*
D03*
D54*
X182500D02*
D03*
X110900Y111223D02*
D03*
Y91223D02*
D03*
X94500Y55542D02*
D03*
Y75542D02*
D03*
X24500Y181000D02*
D03*
Y161000D02*
D03*
X84300Y220000D02*
D03*
Y200000D02*
D03*
X58800Y220000D02*
D03*
Y200000D02*
D03*
D55*
X243000Y114915D02*
D03*
D56*
X253000D02*
D03*
X243000Y78915D02*
D03*
Y88915D02*
D03*
Y98915D02*
D03*
Y59415D02*
D03*
X226500Y177500D02*
D03*
Y167500D02*
D03*
Y157500D02*
D03*
X258500Y163000D02*
D03*
X197000Y173000D02*
D03*
X226500Y240500D02*
D03*
Y230500D02*
D03*
Y220500D02*
D03*
X258500Y226000D02*
D03*
X197500Y236000D02*
D03*
X161000Y141000D02*
D03*
X111000Y211000D02*
D03*
D57*
X243000Y69415D02*
D03*
X258500Y173000D02*
D03*
X197000Y163000D02*
D03*
X258500Y236000D02*
D03*
X197500Y226000D02*
D03*
X161000Y151000D02*
D03*
X111000Y201000D02*
D03*
D58*
X358000Y84900D02*
D03*
X328000Y85000D02*
D03*
X358000Y74900D02*
D03*
Y64900D02*
D03*
X328000Y74900D02*
D03*
Y64900D02*
D03*
D59*
X146625Y207600D02*
D03*
X146559Y264505D02*
D03*
X146625Y233000D02*
D03*
X199000Y100885D02*
D03*
X177500Y108500D02*
D03*
X159500Y108263D02*
D03*
X63708Y227500D02*
D03*
X353000Y70000D02*
D03*
X345500Y84000D02*
D03*
X364725Y33880D02*
D03*
X322500Y43427D02*
D03*
X337000Y37437D02*
D03*
X349000Y51500D02*
D03*
X337000Y77081D02*
D03*
X102496Y80600D02*
D03*
X184000Y47500D02*
D03*
X161525Y62500D02*
D03*
X162000Y73549D02*
D03*
X146625Y84000D02*
D03*
X233500Y183615D02*
D03*
X205000Y156881D02*
D03*
X68972Y131400D02*
D03*
X31877Y186000D02*
D03*
Y156800D02*
D03*
X173000Y232612D02*
D03*
X184000Y232838D02*
D03*
X173000Y207600D02*
D03*
X184000D02*
D03*
X173000Y182200D02*
D03*
X184000D02*
D03*
X173000Y156800D02*
D03*
X184000D02*
D03*
X222000Y137853D02*
D03*
Y126000D02*
D03*
X200181Y45500D02*
D03*
X214000Y55210D02*
D03*
X42500Y123991D02*
D03*
X56000Y136237D02*
D03*
X55500Y189863D02*
D03*
X77000D02*
D03*
X118410Y196500D02*
D03*
X105024D02*
D03*
X155000Y156800D02*
D03*
X95640Y136000D02*
D03*
X132500Y149739D02*
D03*
X115942Y146000D02*
D03*
X95640Y145497D02*
D03*
X106219Y156500D02*
D03*
X116000Y155806D02*
D03*
X95640Y156500D02*
D03*
X85228Y175500D02*
D03*
X68972Y167925D02*
D03*
Y151000D02*
D03*
X67500Y250780D02*
D03*
X96000Y240674D02*
D03*
X114500Y247500D02*
D03*
Y236773D02*
D03*
X49902Y240000D02*
D03*
X161525Y47500D02*
D03*
X148500Y47610D02*
D03*
X235332Y73749D02*
D03*
Y84000D02*
D03*
X214000Y73749D02*
D03*
Y84000D02*
D03*
X309200Y309200D02*
D03*
X156800Y283800D02*
D03*
Y360000D02*
D03*
X29800Y207600D02*
D03*
X233000Y106000D02*
D03*
X156800Y334600D02*
D03*
X131400Y385400D02*
D03*
X55200Y283800D02*
D03*
Y385400D02*
D03*
X29800Y29800D02*
D03*
X283800Y106000D02*
D03*
X233000Y334600D02*
D03*
X80600Y29800D02*
D03*
X156800Y131400D02*
D03*
X131400Y309200D02*
D03*
X258400Y258400D02*
D03*
X309200Y334600D02*
D03*
X131400Y80600D02*
D03*
X283800Y55200D02*
D03*
X385400Y334600D02*
D03*
X80600Y4400D02*
D03*
X29800Y360000D02*
D03*
X385400D02*
D03*
X4400Y207600D02*
D03*
X29800Y334600D02*
D03*
X80600Y385400D02*
D03*
X207600D02*
D03*
X233000Y55200D02*
D03*
X4400Y4400D02*
D03*
Y283800D02*
D03*
X283800Y4400D02*
D03*
X29800Y283800D02*
D03*
X182200Y131400D02*
D03*
X385400Y80600D02*
D03*
X360000Y4400D02*
D03*
X233000Y385400D02*
D03*
X385400Y156800D02*
D03*
X4400Y106000D02*
D03*
X360000D02*
D03*
X258400Y156800D02*
D03*
X182200Y258400D02*
D03*
X283800Y131400D02*
D03*
X55200Y360000D02*
D03*
X309200Y385400D02*
D03*
X258400Y131400D02*
D03*
X131400Y360000D02*
D03*
X55200Y29800D02*
D03*
X309200Y106000D02*
D03*
X106000Y207600D02*
D03*
X258400Y55200D02*
D03*
X131400Y283800D02*
D03*
X4400Y131400D02*
D03*
X233000Y207600D02*
D03*
X207600Y258400D02*
D03*
X156800Y207600D02*
D03*
X283800Y360000D02*
D03*
X309200Y207600D02*
D03*
Y80600D02*
D03*
X207600Y182200D02*
D03*
X29800Y258400D02*
D03*
X55200Y80600D02*
D03*
X131400Y334600D02*
D03*
X309200Y182200D02*
D03*
X29800Y309200D02*
D03*
X258400Y207600D02*
D03*
Y29800D02*
D03*
X4400Y182200D02*
D03*
Y334600D02*
D03*
X80600Y106000D02*
D03*
X156800Y182200D02*
D03*
X80600Y283800D02*
D03*
X29800Y385400D02*
D03*
X334600Y334600D02*
D03*
X80600Y258400D02*
D03*
X385400Y131400D02*
D03*
X131400Y207600D02*
D03*
X385400Y309200D02*
D03*
X360000Y360000D02*
D03*
X283800Y309200D02*
D03*
X309200Y283800D02*
D03*
X385400Y258400D02*
D03*
X156800Y385400D02*
D03*
X207600Y29800D02*
D03*
X233000Y283800D02*
D03*
X156800Y309200D02*
D03*
X182200Y283800D02*
D03*
X283800Y385400D02*
D03*
X360000Y283800D02*
D03*
X258400Y334600D02*
D03*
X283800Y156800D02*
D03*
X4400Y233000D02*
D03*
Y360000D02*
D03*
Y80600D02*
D03*
X258400Y182200D02*
D03*
X4400Y29800D02*
D03*
X258400Y385400D02*
D03*
X309200Y4400D02*
D03*
X106000Y55200D02*
D03*
X55200D02*
D03*
X233000Y29800D02*
D03*
X131400Y4400D02*
D03*
X106000Y385400D02*
D03*
X385400D02*
D03*
X106000Y182200D02*
D03*
X131400Y29800D02*
D03*
X385400Y4400D02*
D03*
X4400Y385400D02*
D03*
X80600Y360000D02*
D03*
Y207600D02*
D03*
X283800Y283800D02*
D03*
X182200Y29800D02*
D03*
X131400Y182200D02*
D03*
X80600Y55200D02*
D03*
X309200D02*
D03*
X55200Y309200D02*
D03*
X156800Y233000D02*
D03*
X334600Y4400D02*
D03*
X233000Y258400D02*
D03*
X283800Y233000D02*
D03*
X4400Y156800D02*
D03*
X334600Y233000D02*
D03*
X283800Y334600D02*
D03*
X309200Y258400D02*
D03*
X182200Y385400D02*
D03*
X156800Y258400D02*
D03*
Y29800D02*
D03*
X106000Y360000D02*
D03*
X207600Y4400D02*
D03*
X29800Y80600D02*
D03*
X360000Y385400D02*
D03*
X334600Y309200D02*
D03*
X80600Y80600D02*
D03*
X29800Y106000D02*
D03*
X55200D02*
D03*
X283800Y29800D02*
D03*
X334600Y106000D02*
D03*
X156800Y4400D02*
D03*
X385400Y207600D02*
D03*
X106000Y4400D02*
D03*
X334600Y360000D02*
D03*
X106000Y29800D02*
D03*
X233000Y233000D02*
D03*
X29800Y55200D02*
D03*
X283800Y258400D02*
D03*
X131400Y131400D02*
D03*
X385400Y29800D02*
D03*
X55200Y4400D02*
D03*
X182200Y360000D02*
D03*
X283800Y207600D02*
D03*
X207600D02*
D03*
X80600Y131400D02*
D03*
X385400Y106000D02*
D03*
X334600Y156800D02*
D03*
X80600Y334600D02*
D03*
X4400Y309200D02*
D03*
X182200Y334600D02*
D03*
X309200Y156800D02*
D03*
X80600Y233000D02*
D03*
X309200Y360000D02*
D03*
X233000Y309200D02*
D03*
Y360000D02*
D03*
X29800Y4400D02*
D03*
X55200Y207600D02*
D03*
Y156800D02*
D03*
X258400Y360000D02*
D03*
X360000Y131400D02*
D03*
X283800Y182200D02*
D03*
X106000Y334600D02*
D03*
X131400Y106000D02*
D03*
X4400Y55200D02*
D03*
X385400Y233000D02*
D03*
X360000Y258400D02*
D03*
X182200Y4400D02*
D03*
X385400Y55200D02*
D03*
X258400Y106000D02*
D03*
X233000Y156800D02*
D03*
X385400Y182200D02*
D03*
X334600Y283800D02*
D03*
X207600Y233000D02*
D03*
X55200Y334600D02*
D03*
X106000Y283800D02*
D03*
X334600Y385400D02*
D03*
X309200Y131400D02*
D03*
X106000Y309200D02*
D03*
X283800Y80600D02*
D03*
X309200Y233000D02*
D03*
X80600Y309200D02*
D03*
X4400Y258400D02*
D03*
X106000Y106000D02*
D03*
X385400Y283800D02*
D03*
X360000Y309200D02*
D03*
X191500Y73749D02*
D03*
Y84000D02*
D03*
X176517Y73549D02*
D03*
X162000Y84000D02*
D03*
X146500Y62500D02*
D03*
X186500D02*
D03*
X181500D02*
D03*
X176517Y84000D02*
D03*
X151525Y98915D02*
D03*
X146600D02*
D03*
X151525Y84000D02*
D03*
D60*
X156580Y78915D02*
D03*
M02*
