G04*
G04 #@! TF.GenerationSoftware,Altium Limited,Altium Designer,19.0.12 (326)*
G04*
G04 Layer_Color=65535*
%FSLAX25Y25*%
%MOIN*%
G70*
G01*
G75*
%ADD10C,0.00600*%
%ADD11C,0.00500*%
%ADD12C,0.01000*%
%ADD13C,0.00800*%
%ADD14R,0.02000X0.10000*%
D10*
X149406Y107060D02*
G03*
X149406Y107060I-7906J0D01*
G01*
X354063Y31500D02*
G03*
X353063Y32500I-1000J0D01*
G01*
Y24500D02*
G03*
X354063Y25500I0J1000D01*
G01*
X331937D02*
G03*
X332937Y24500I1000J0D01*
G01*
Y32500D02*
G03*
X331937Y31500I0J-1000D01*
G01*
X354063Y41500D02*
G03*
X353063Y42500I-1000J0D01*
G01*
Y34500D02*
G03*
X354063Y35500I0J1000D01*
G01*
X331937D02*
G03*
X332937Y34500I1000J0D01*
G01*
Y42500D02*
G03*
X331937Y41500I0J-1000D01*
G01*
X354063Y51500D02*
G03*
X353063Y52500I-1000J0D01*
G01*
Y44500D02*
G03*
X354063Y45500I0J1000D01*
G01*
X331937D02*
G03*
X332937Y44500I1000J0D01*
G01*
Y52500D02*
G03*
X331937Y51500I0J-1000D01*
G01*
X221896Y20000D02*
G03*
X221896Y28000I0J4000D01*
G01*
X220500Y34000D02*
G03*
X215500Y39000I-5000J0D01*
G01*
Y19000D02*
G03*
X220500Y24000I0J5000D01*
G01*
X215500Y39000D02*
G03*
X210500Y34000I0J-5000D01*
G01*
Y24000D02*
G03*
X215500Y19000I5000J0D01*
G01*
X212248Y288494D02*
G03*
X212248Y288494I-15748J0D01*
G01*
X257843Y114915D02*
G03*
X257843Y114915I-9843J0D01*
G01*
X234300Y85100D02*
G03*
X250000Y82494I8700J3816D01*
G01*
X234300Y92731D02*
G03*
X234300Y85099I8701J-3816D01*
G01*
X250000Y95336D02*
G03*
X234300Y92730I-7000J-6422D01*
G01*
X252843Y64415D02*
G03*
X252843Y64415I-9843J0D01*
G01*
X256500Y78915D02*
G03*
X261500Y83915I0J5000D01*
G01*
X251500D02*
G03*
X256500Y78915I5000J0D01*
G01*
Y98915D02*
G03*
X251500Y93915I0J-5000D01*
G01*
X261500D02*
G03*
X256500Y98915I-5000J0D01*
G01*
X227000D02*
G03*
X222000Y93915I0J-5000D01*
G01*
X232000D02*
G03*
X227000Y98915I-5000J0D01*
G01*
Y78915D02*
G03*
X232000Y83915I0J5000D01*
G01*
X222000D02*
G03*
X227000Y78915I5000J0D01*
G01*
X202063Y106000D02*
G03*
X201063Y107000I-1000J0D01*
G01*
Y99000D02*
G03*
X202063Y100000I0J1000D01*
G01*
X179937D02*
G03*
X180937Y99000I1000J0D01*
G01*
Y107000D02*
G03*
X179937Y106000I0J-1000D01*
G01*
X210000Y82863D02*
G03*
X209000Y83863I-1000J0D01*
G01*
X203000D02*
G03*
X202000Y82863I0J-1000D01*
G01*
Y62737D02*
G03*
X203000Y61737I1000J0D01*
G01*
X209000D02*
G03*
X210000Y62737I0J1000D01*
G01*
X171600Y11500D02*
G03*
X176600Y16500I0J5000D01*
G01*
X166600D02*
G03*
X171600Y11500I5000J0D01*
G01*
Y31500D02*
G03*
X166600Y26500I0J-5000D01*
G01*
X176600D02*
G03*
X171600Y31500I-5000J0D01*
G01*
X136500Y43500D02*
G03*
X141500Y38500I5000J0D01*
G01*
Y48500D02*
G03*
X136500Y43500I0J-5000D01*
G01*
X156500D02*
G03*
X151500Y48500I-5000J0D01*
G01*
Y38500D02*
G03*
X156500Y43500I0J5000D01*
G01*
X154906Y29940D02*
G03*
X154906Y29940I-7906J0D01*
G01*
X235200Y171315D02*
G03*
X219500Y173921I-8700J-3816D01*
G01*
X235200Y163684D02*
G03*
X235200Y171316I-8701J3816D01*
G01*
X219500Y161079D02*
G03*
X235200Y163685I7000J6422D01*
G01*
X268343Y168000D02*
G03*
X268343Y168000I-9843J0D01*
G01*
X242500Y157500D02*
G03*
X247500Y162500I0J5000D01*
G01*
X237500D02*
G03*
X242500Y157500I5000J0D01*
G01*
Y177500D02*
G03*
X237500Y172500I0J-5000D01*
G01*
X247500D02*
G03*
X242500Y177500I-5000J0D01*
G01*
X213000D02*
G03*
X208000Y172500I0J-5000D01*
G01*
X218000D02*
G03*
X213000Y177500I-5000J0D01*
G01*
Y157500D02*
G03*
X218000Y162500I0J5000D01*
G01*
X208000D02*
G03*
X213000Y157500I5000J0D01*
G01*
X206843Y168000D02*
G03*
X206843Y168000I-9843J0D01*
G01*
X235200Y234315D02*
G03*
X219500Y236921I-8700J-3816D01*
G01*
X235200Y226684D02*
G03*
X235200Y234316I-8701J3816D01*
G01*
X219500Y224079D02*
G03*
X235200Y226685I7000J6422D01*
G01*
X268343Y231000D02*
G03*
X268343Y231000I-9843J0D01*
G01*
X242500Y220500D02*
G03*
X247500Y225500I0J5000D01*
G01*
X237500D02*
G03*
X242500Y220500I5000J0D01*
G01*
Y240500D02*
G03*
X237500Y235500I0J-5000D01*
G01*
X247500D02*
G03*
X242500Y240500I-5000J0D01*
G01*
X213500D02*
G03*
X208500Y235500I0J-5000D01*
G01*
X218500D02*
G03*
X213500Y240500I-5000J0D01*
G01*
Y220500D02*
G03*
X218500Y225500I0J5000D01*
G01*
X208500D02*
G03*
X213500Y220500I5000J0D01*
G01*
X207343Y231000D02*
G03*
X207343Y231000I-9843J0D01*
G01*
X170843Y146000D02*
G03*
X170843Y146000I-9843J0D01*
G01*
X115000Y146063D02*
G03*
X114000Y147063I-1000J0D01*
G01*
X108000D02*
G03*
X107000Y146063I0J-1000D01*
G01*
Y125937D02*
G03*
X108000Y124937I1000J0D01*
G01*
X114000D02*
G03*
X115000Y125937I0J1000D01*
G01*
X101000Y131000D02*
G03*
X106000Y136000I0J5000D01*
G01*
X96000D02*
G03*
X101000Y131000I5000J0D01*
G01*
Y151000D02*
G03*
X96000Y146000I0J-5000D01*
G01*
X106000D02*
G03*
X101000Y151000I-5000J0D01*
G01*
X120843Y206000D02*
G03*
X120843Y206000I-9843J0D01*
G01*
X157000Y165937D02*
G03*
X158000Y164937I1000J0D01*
G01*
X164000D02*
G03*
X165000Y165937I0J1000D01*
G01*
Y186063D02*
G03*
X164000Y187063I-1000J0D01*
G01*
X158000D02*
G03*
X157000Y186063I0J-1000D01*
G01*
X154000Y164937D02*
G03*
X155000Y165937I0J1000D01*
G01*
X147000D02*
G03*
X148000Y164937I1000J0D01*
G01*
Y187063D02*
G03*
X147000Y186063I0J-1000D01*
G01*
X155000D02*
G03*
X154000Y187063I-1000J0D01*
G01*
X137000Y165937D02*
G03*
X138000Y164937I1000J0D01*
G01*
X144000D02*
G03*
X145000Y165937I0J1000D01*
G01*
Y186063D02*
G03*
X144000Y187063I-1000J0D01*
G01*
X138000D02*
G03*
X137000Y186063I0J-1000D01*
G01*
X134000Y164937D02*
G03*
X135000Y165937I0J1000D01*
G01*
X127000D02*
G03*
X128000Y164937I1000J0D01*
G01*
Y187063D02*
G03*
X127000Y186063I0J-1000D01*
G01*
X135000D02*
G03*
X134000Y187063I-1000J0D01*
G01*
X125000Y186063D02*
G03*
X124000Y187063I-1000J0D01*
G01*
X118000D02*
G03*
X117000Y186063I0J-1000D01*
G01*
Y165937D02*
G03*
X118000Y164937I1000J0D01*
G01*
X124000D02*
G03*
X125000Y165937I0J1000D01*
G01*
X115000Y186063D02*
G03*
X114000Y187063I-1000J0D01*
G01*
X108000D02*
G03*
X107000Y186063I0J-1000D01*
G01*
Y165937D02*
G03*
X108000Y164937I1000J0D01*
G01*
X114000D02*
G03*
X115000Y165937I0J1000D01*
G01*
X105000Y186063D02*
G03*
X104000Y187063I-1000J0D01*
G01*
X98000D02*
G03*
X97000Y186063I0J-1000D01*
G01*
Y165937D02*
G03*
X98000Y164937I1000J0D01*
G01*
X104000D02*
G03*
X105000Y165937I0J1000D01*
G01*
X107000Y55137D02*
G03*
X108000Y54137I1000J0D01*
G01*
X114000D02*
G03*
X115000Y55137I0J1000D01*
G01*
Y75263D02*
G03*
X114000Y76263I-1000J0D01*
G01*
X108000D02*
G03*
X107000Y75263I0J-1000D01*
G01*
X47000Y115937D02*
G03*
X48000Y114937I1000J0D01*
G01*
X54000D02*
G03*
X55000Y115937I0J1000D01*
G01*
Y136063D02*
G03*
X54000Y137063I-1000J0D01*
G01*
X48000D02*
G03*
X47000Y136063I0J-1000D01*
G01*
X44000Y114937D02*
G03*
X45000Y115937I0J1000D01*
G01*
X37000D02*
G03*
X38000Y114937I1000J0D01*
G01*
Y137063D02*
G03*
X37000Y136063I0J-1000D01*
G01*
X45000D02*
G03*
X44000Y137063I-1000J0D01*
G01*
X31000Y135000D02*
G03*
X26000Y130000I0J-5000D01*
G01*
X36000D02*
G03*
X31000Y135000I-5000J0D01*
G01*
Y115000D02*
G03*
X36000Y120000I0J5000D01*
G01*
X26000D02*
G03*
X31000Y115000I5000J0D01*
G01*
X80000Y116000D02*
G03*
X72000Y116000I-4000J0D01*
G01*
X47000Y155937D02*
G03*
X48000Y154937I1000J0D01*
G01*
X54000D02*
G03*
X55000Y155937I0J1000D01*
G01*
Y176063D02*
G03*
X54000Y177063I-1000J0D01*
G01*
X48000D02*
G03*
X47000Y176063I0J-1000D01*
G01*
X44000Y154937D02*
G03*
X45000Y155937I0J1000D01*
G01*
X37000D02*
G03*
X38000Y154937I1000J0D01*
G01*
Y177063D02*
G03*
X37000Y176063I0J-1000D01*
G01*
X45000D02*
G03*
X44000Y177063I-1000J0D01*
G01*
X21200Y216000D02*
G03*
X26200Y211000I5000J0D01*
G01*
Y221000D02*
G03*
X21200Y216000I0J-5000D01*
G01*
X41200D02*
G03*
X36200Y221000I-5000J0D01*
G01*
Y211000D02*
G03*
X41200Y216000I0J5000D01*
G01*
X86063Y262000D02*
G03*
X87063Y263000I0J1000D01*
G01*
Y269000D02*
G03*
X86063Y270000I-1000J0D01*
G01*
X65937D02*
G03*
X64937Y269000I0J-1000D01*
G01*
Y263000D02*
G03*
X65937Y262000I1000J0D01*
G01*
Y260000D02*
G03*
X64937Y259000I0J-1000D01*
G01*
Y253000D02*
G03*
X65937Y252000I1000J0D01*
G01*
X86063D02*
G03*
X87063Y253000I0J1000D01*
G01*
Y259000D02*
G03*
X86063Y260000I-1000J0D01*
G01*
X65937Y250000D02*
G03*
X64937Y249000I0J-1000D01*
G01*
Y243000D02*
G03*
X65937Y242000I1000J0D01*
G01*
X86063D02*
G03*
X87063Y243000I0J1000D01*
G01*
Y249000D02*
G03*
X86063Y250000I-1000J0D01*
G01*
Y232000D02*
G03*
X87063Y233000I0J1000D01*
G01*
Y239000D02*
G03*
X86063Y240000I-1000J0D01*
G01*
X65937D02*
G03*
X64937Y239000I0J-1000D01*
G01*
Y233000D02*
G03*
X65937Y232000I1000J0D01*
G01*
X135442Y103975D02*
X137942D01*
X136700Y105192D02*
X136728Y102727D01*
X331937Y25500D02*
Y31500D01*
X354063Y25500D02*
Y31500D01*
X337437Y25000D02*
X348563D01*
X337437Y32000D02*
X348563D01*
X332937Y24500D02*
X336937D01*
X332937Y32500D02*
X336937D01*
X349063Y24500D02*
X353063D01*
X349063Y32500D02*
X353063D01*
X336937Y24500D02*
X337437Y25000D01*
X336937Y32500D02*
X337437Y32000D01*
X348563Y25000D02*
X349063Y24500D01*
X348563Y32000D02*
X349063Y32500D01*
X331937Y35500D02*
Y41500D01*
X354063Y35500D02*
Y41500D01*
X337437Y35000D02*
X348563D01*
X337437Y42000D02*
X348563D01*
X332937Y34500D02*
X336937D01*
X332937Y42500D02*
X336937D01*
X349063Y34500D02*
X353063D01*
X349063Y42500D02*
X353063D01*
X336937Y34500D02*
X337437Y35000D01*
X336937Y42500D02*
X337437Y42000D01*
X348563Y35000D02*
X349063Y34500D01*
X348563Y42000D02*
X349063Y42500D01*
X331937Y45500D02*
Y51500D01*
X354063Y45500D02*
Y51500D01*
X337437Y45000D02*
X348563D01*
X337437Y52000D02*
X348563D01*
X332937Y44500D02*
X336937D01*
X332937Y52500D02*
X336937D01*
X349063Y44500D02*
X353063D01*
X349063Y52500D02*
X353063D01*
X336937Y44500D02*
X337437Y45000D01*
X336937Y52500D02*
X337437Y52000D01*
X348563Y45000D02*
X349063Y44500D01*
X348563Y52000D02*
X349063Y52500D01*
X261896Y12500D02*
Y35500D01*
X221896D02*
X261896D01*
X221896Y28000D02*
Y35500D01*
Y12500D02*
X261896D01*
X221896D02*
Y20000D01*
X220500Y24000D02*
Y34000D01*
X210500Y26500D02*
Y34000D01*
Y24000D02*
Y26500D01*
X201000Y281894D02*
Y284395D01*
X199700Y283095D02*
X202300D01*
X205850Y309500D02*
Y319500D01*
X186500Y309500D02*
Y319500D01*
X201850Y309500D02*
X205850D01*
X186500Y319500D02*
X205800D01*
X186500Y309500D02*
X202450D01*
X243500Y119015D02*
Y121515D01*
X242200Y120315D02*
X244800D01*
X250000Y82494D02*
Y95336D01*
X247100Y68915D02*
X249600D01*
X248400Y67615D02*
Y70215D01*
X251500Y83915D02*
Y86415D01*
Y93915D01*
X261500Y83915D02*
Y93915D01*
X232000Y91415D02*
Y93915D01*
Y83915D02*
Y91415D01*
X222000Y83915D02*
Y93915D01*
X179937Y100000D02*
Y106000D01*
X202063Y100000D02*
Y106000D01*
X185437Y99500D02*
X196563D01*
X185437Y106500D02*
X196563D01*
X180937Y99000D02*
X184937D01*
X180937Y107000D02*
X184937D01*
X197063Y99000D02*
X201063D01*
X197063Y107000D02*
X201063D01*
X184937Y99000D02*
X185437Y99500D01*
X184937Y107000D02*
X185437Y106500D01*
X196563Y99500D02*
X197063Y99000D01*
X196563Y106500D02*
X197063Y107000D01*
X209500Y67237D02*
X210000Y66737D01*
X202000D02*
X202500Y67237D01*
X209500Y78363D02*
X210000Y78863D01*
X202000D02*
X202500Y78363D01*
X210000Y62737D02*
Y66737D01*
X202000Y62737D02*
Y66737D01*
X210000Y78863D02*
Y82863D01*
X202000Y78863D02*
Y82863D01*
X209500Y67237D02*
Y78363D01*
X202500Y67237D02*
Y78363D01*
X203000Y61737D02*
X209000D01*
X203000Y83863D02*
X209000D01*
X166600Y16500D02*
Y19000D01*
Y26500D01*
X176600Y16500D02*
Y26500D01*
X141500Y48500D02*
X144000D01*
X151500D01*
X141500Y38500D02*
X151500D01*
X150558Y33025D02*
X153058D01*
X151772Y34273D02*
X151800Y31808D01*
X219500Y161079D02*
Y173921D01*
X262600Y172500D02*
X265100D01*
X263900Y171200D02*
Y173800D01*
X237500Y162500D02*
Y165000D01*
Y172500D01*
X247500Y162500D02*
Y172500D01*
X218000Y170000D02*
Y172500D01*
Y162500D02*
Y170000D01*
X208000Y162500D02*
Y172500D01*
X190400Y163500D02*
X192900D01*
X191600Y162200D02*
Y164800D01*
X219500Y224079D02*
Y236921D01*
X262600Y235500D02*
X265100D01*
X263900Y234200D02*
Y236800D01*
X237500Y225500D02*
Y228000D01*
Y235500D01*
X247500Y225500D02*
Y235500D01*
X218500Y233000D02*
Y235500D01*
Y225500D02*
Y233000D01*
X208500Y225500D02*
Y235500D01*
X190900Y226500D02*
X193400D01*
X192100Y225200D02*
Y227800D01*
X165100Y150500D02*
X167600D01*
X166400Y149200D02*
Y151800D01*
X99600Y115223D02*
X122100D01*
Y87223D02*
Y115223D01*
X99600Y87223D02*
X122100D01*
X99600D02*
Y115223D01*
X114500Y130437D02*
X115000Y129937D01*
X107000D02*
X107500Y130437D01*
X114500Y141563D02*
X115000Y142063D01*
X107000D02*
X107500Y141563D01*
X115000Y125937D02*
Y129937D01*
X107000Y125937D02*
Y129937D01*
X115000Y142063D02*
Y146063D01*
X107000Y142063D02*
Y146063D01*
X114500Y130437D02*
Y141563D01*
X107500Y130437D02*
Y141563D01*
X108000Y124937D02*
X114000D01*
X108000Y147063D02*
X114000D01*
X125882Y126894D02*
Y155106D01*
X116118D02*
X125882D01*
X116118Y126894D02*
Y155106D01*
Y126894D02*
X125882D01*
X96000Y136000D02*
Y138500D01*
Y146000D01*
X106000Y136000D02*
Y146000D01*
X104400Y201500D02*
X106900D01*
X105600Y200200D02*
Y202800D01*
X126894Y196118D02*
X155106D01*
Y205882D01*
X126894D02*
X155106D01*
X126894Y196118D02*
Y205882D01*
X157000Y182063D02*
X157500Y181563D01*
X164500D02*
X165000Y182063D01*
X157000Y169937D02*
X157500Y170437D01*
X164500D02*
X165000Y169937D01*
X157000Y182063D02*
Y186063D01*
X165000Y182063D02*
Y186063D01*
X157000Y165937D02*
Y169937D01*
X165000Y165937D02*
Y169937D01*
X157500Y170437D02*
Y181563D01*
X164500Y170437D02*
Y181563D01*
X158000Y187063D02*
X164000D01*
X158000Y164937D02*
X164000D01*
X148000Y187063D02*
X154000D01*
X148000Y164937D02*
X154000D01*
X147500Y170437D02*
Y181563D01*
X154500Y170437D02*
Y181563D01*
X147000Y182063D02*
Y186063D01*
X155000Y182063D02*
Y186063D01*
X147000Y165937D02*
Y169937D01*
X155000Y165937D02*
Y169937D01*
X147000Y182063D02*
X147500Y181563D01*
X154500D02*
X155000Y182063D01*
X147000Y169937D02*
X147500Y170437D01*
X154500D02*
X155000Y169937D01*
X137000Y182063D02*
X137500Y181563D01*
X144500D02*
X145000Y182063D01*
X137000Y169937D02*
X137500Y170437D01*
X144500D02*
X145000Y169937D01*
X137000Y182063D02*
Y186063D01*
X145000Y182063D02*
Y186063D01*
X137000Y165937D02*
Y169937D01*
X145000Y165937D02*
Y169937D01*
X137500Y170437D02*
Y181563D01*
X144500Y170437D02*
Y181563D01*
X138000Y187063D02*
X144000D01*
X138000Y164937D02*
X144000D01*
X128000Y187063D02*
X134000D01*
X128000Y164937D02*
X134000D01*
X127500Y170437D02*
Y181563D01*
X134500Y170437D02*
Y181563D01*
X127000Y182063D02*
Y186063D01*
X135000Y182063D02*
Y186063D01*
X127000Y165937D02*
Y169937D01*
X135000Y165937D02*
Y169937D01*
X127000Y182063D02*
X127500Y181563D01*
X134500D02*
X135000Y182063D01*
X127000Y169937D02*
X127500Y170437D01*
X134500D02*
X135000Y169937D01*
X124500Y170437D02*
X125000Y169937D01*
X117000D02*
X117500Y170437D01*
X124500Y181563D02*
X125000Y182063D01*
X117000D02*
X117500Y181563D01*
X125000Y165937D02*
Y169937D01*
X117000Y165937D02*
Y169937D01*
X125000Y182063D02*
Y186063D01*
X117000Y182063D02*
Y186063D01*
X124500Y170437D02*
Y181563D01*
X117500Y170437D02*
Y181563D01*
X118000Y164937D02*
X124000D01*
X118000Y187063D02*
X124000D01*
X114500Y170437D02*
X115000Y169937D01*
X107000D02*
X107500Y170437D01*
X114500Y181563D02*
X115000Y182063D01*
X107000D02*
X107500Y181563D01*
X115000Y165937D02*
Y169937D01*
X107000Y165937D02*
Y169937D01*
X115000Y182063D02*
Y186063D01*
X107000Y182063D02*
Y186063D01*
X114500Y170437D02*
Y181563D01*
X107500Y170437D02*
Y181563D01*
X108000Y164937D02*
X114000D01*
X108000Y187063D02*
X114000D01*
X104500Y170437D02*
X105000Y169937D01*
X97000D02*
X97500Y170437D01*
X104500Y181563D02*
X105000Y182063D01*
X97000D02*
X97500Y181563D01*
X105000Y165937D02*
Y169937D01*
X97000Y165937D02*
Y169937D01*
X105000Y182063D02*
Y186063D01*
X97000Y182063D02*
Y186063D01*
X104500Y170437D02*
Y181563D01*
X97500Y170437D02*
Y181563D01*
X98000Y164937D02*
X104000D01*
X98000Y187063D02*
X104000D01*
X107000Y71263D02*
X107500Y70763D01*
X114500D02*
X115000Y71263D01*
X107000Y59137D02*
X107500Y59637D01*
X114500D02*
X115000Y59137D01*
X107000Y71263D02*
Y75263D01*
X115000Y71263D02*
Y75263D01*
X107000Y55137D02*
Y59137D01*
X115000Y55137D02*
Y59137D01*
X107500Y59637D02*
Y70763D01*
X114500Y59637D02*
Y70763D01*
X108000Y76263D02*
X114000D01*
X108000Y54137D02*
X114000D01*
X116118Y51036D02*
Y79248D01*
Y51036D02*
X125882D01*
Y79248D01*
X116118D02*
X125882D01*
X83300Y51542D02*
X105800D01*
X83300D02*
Y79542D01*
X105800D01*
Y51542D02*
Y79542D01*
X47000Y132063D02*
X47500Y131563D01*
X54500D02*
X55000Y132063D01*
X47000Y119937D02*
X47500Y120437D01*
X54500D02*
X55000Y119937D01*
X47000Y132063D02*
Y136063D01*
X55000Y132063D02*
Y136063D01*
X47000Y115937D02*
Y119937D01*
X55000Y115937D02*
Y119937D01*
X47500Y120437D02*
Y131563D01*
X54500Y120437D02*
Y131563D01*
X48000Y137063D02*
X54000D01*
X48000Y114937D02*
X54000D01*
X38000Y137063D02*
X44000D01*
X38000Y114937D02*
X44000D01*
X37500Y120437D02*
Y131563D01*
X44500Y120437D02*
Y131563D01*
X37000Y132063D02*
Y136063D01*
X45000Y132063D02*
Y136063D01*
X37000Y115937D02*
Y119937D01*
X45000Y115937D02*
Y119937D01*
X37000Y132063D02*
X37500Y131563D01*
X44500D02*
X45000Y132063D01*
X37000Y119937D02*
X37500Y120437D01*
X44500D02*
X45000Y119937D01*
X36000Y127500D02*
Y130000D01*
Y120000D02*
Y127500D01*
X26000Y120000D02*
Y130000D01*
X64500Y116000D02*
Y186000D01*
X87500Y116000D02*
Y186000D01*
X64500D02*
X87500D01*
X80000Y116000D02*
X87500D01*
X64500D02*
X72000D01*
X47000Y172063D02*
X47500Y171563D01*
X54500D02*
X55000Y172063D01*
X47000Y159937D02*
X47500Y160437D01*
X54500D02*
X55000Y159937D01*
X47000Y172063D02*
Y176063D01*
X55000Y172063D02*
Y176063D01*
X47000Y155937D02*
Y159937D01*
X55000Y155937D02*
Y159937D01*
X47500Y160437D02*
Y171563D01*
X54500Y160437D02*
Y171563D01*
X48000Y177063D02*
X54000D01*
X48000Y154937D02*
X54000D01*
X13200Y185000D02*
X35700D01*
Y157000D02*
Y185000D01*
X13200Y157000D02*
X35700D01*
X13200D02*
Y185000D01*
X38000Y177063D02*
X44000D01*
X38000Y154937D02*
X44000D01*
X37500Y160437D02*
Y171563D01*
X44500Y160437D02*
Y171563D01*
X37000Y172063D02*
Y176063D01*
X45000Y172063D02*
Y176063D01*
X37000Y155937D02*
Y159937D01*
X45000Y155937D02*
Y159937D01*
X37000Y172063D02*
X37500Y171563D01*
X44500D02*
X45000Y172063D01*
X37000Y159937D02*
X37500Y160437D01*
X44500D02*
X45000Y159937D01*
X73000Y224000D02*
X95500D01*
Y196000D02*
Y224000D01*
X73000Y196000D02*
X95500D01*
X73000D02*
Y224000D01*
X47500D02*
X70000D01*
Y196000D02*
Y224000D01*
X47500Y196000D02*
X70000D01*
X47500D02*
Y224000D01*
X26200Y221000D02*
X28700D01*
X36200D01*
X26200Y211000D02*
X36200D01*
X69937Y262000D02*
X70437Y262500D01*
X69937Y270000D02*
X70437Y269500D01*
X81563Y262500D02*
X82063Y262000D01*
X81563Y269500D02*
X82063Y270000D01*
X65937Y262000D02*
X69937D01*
X65937Y270000D02*
X69937D01*
X82063Y262000D02*
X86063D01*
X82063Y270000D02*
X86063D01*
X70437Y262500D02*
X81563D01*
X70437Y269500D02*
X81563D01*
X64937Y263000D02*
Y269000D01*
X87063Y263000D02*
Y269000D01*
X81563Y259500D02*
X82063Y260000D01*
X81563Y252500D02*
X82063Y252000D01*
X69937Y260000D02*
X70437Y259500D01*
X69937Y252000D02*
X70437Y252500D01*
X82063Y260000D02*
X86063D01*
X82063Y252000D02*
X86063D01*
X65937Y260000D02*
X69937D01*
X65937Y252000D02*
X69937D01*
X70437Y259500D02*
X81563D01*
X70437Y252500D02*
X81563D01*
X87063Y253000D02*
Y259000D01*
X64937Y253000D02*
Y259000D01*
X81563Y249500D02*
X82063Y250000D01*
X81563Y242500D02*
X82063Y242000D01*
X69937Y250000D02*
X70437Y249500D01*
X69937Y242000D02*
X70437Y242500D01*
X82063Y250000D02*
X86063D01*
X82063Y242000D02*
X86063D01*
X65937Y250000D02*
X69937D01*
X65937Y242000D02*
X69937D01*
X70437Y249500D02*
X81563D01*
X70437Y242500D02*
X81563D01*
X87063Y243000D02*
Y249000D01*
X64937Y243000D02*
Y249000D01*
X69937Y232000D02*
X70437Y232500D01*
X69937Y240000D02*
X70437Y239500D01*
X81563Y232500D02*
X82063Y232000D01*
X81563Y239500D02*
X82063Y240000D01*
X65937Y232000D02*
X69937D01*
X65937Y240000D02*
X69937D01*
X82063Y232000D02*
X86063D01*
X82063Y240000D02*
X86063D01*
X70437Y232500D02*
X81563D01*
X70437Y239500D02*
X81563D01*
X64937Y233000D02*
Y239000D01*
X87063Y233000D02*
Y239000D01*
X173500Y39652D02*
Y39318D01*
X174167Y38652D01*
X174833Y39318D01*
Y39652D01*
X174167Y38652D02*
Y37652D01*
X175499D02*
X176166D01*
X175833D01*
Y39652D01*
X175499Y39318D01*
X230500Y171104D02*
X232499D01*
Y170104D01*
X232166Y169771D01*
X231500D01*
X231166Y170104D01*
Y171104D01*
Y170437D02*
X230500Y169771D01*
X232499Y167771D02*
Y169104D01*
X230500D01*
Y167771D01*
X231500Y169104D02*
Y168438D01*
X232166Y165772D02*
X232499Y166105D01*
Y166772D01*
X232166Y167105D01*
X230833D01*
X230500Y166772D01*
Y166105D01*
X230833Y165772D01*
X231500D01*
Y166439D01*
X232166Y165106D02*
X232499Y164772D01*
Y164106D01*
X232166Y163773D01*
X231833D01*
X231500Y164106D01*
Y164439D01*
Y164106D01*
X231166Y163773D01*
X230833D01*
X230500Y164106D01*
Y164772D01*
X230833Y165106D01*
X231000Y234309D02*
X232999D01*
Y233310D01*
X232666Y232977D01*
X232000D01*
X231666Y233310D01*
Y234309D01*
Y233643D02*
X231000Y232977D01*
X232999Y230977D02*
Y232310D01*
X231000D01*
Y230977D01*
X232000Y232310D02*
Y231644D01*
X232666Y228978D02*
X232999Y229311D01*
Y229977D01*
X232666Y230311D01*
X231333D01*
X231000Y229977D01*
Y229311D01*
X231333Y228978D01*
X232000D01*
Y229644D01*
X231000Y226978D02*
Y228311D01*
X232333Y226978D01*
X232666D01*
X232999Y227312D01*
Y227978D01*
X232666Y228311D01*
X236500Y92097D02*
X238499D01*
Y91097D01*
X238166Y90764D01*
X237500D01*
X237166Y91097D01*
Y92097D01*
Y91430D02*
X236500Y90764D01*
X238499Y88764D02*
Y90097D01*
X236500D01*
Y88764D01*
X237500Y90097D02*
Y89431D01*
X238166Y86765D02*
X238499Y87098D01*
Y87765D01*
X238166Y88098D01*
X236833D01*
X236500Y87765D01*
Y87098D01*
X236833Y86765D01*
X237500D01*
Y87431D01*
X236500Y86098D02*
Y85432D01*
Y85765D01*
X238499D01*
X238166Y86098D01*
X147166Y108667D02*
X147499Y109000D01*
Y109667D01*
X147166Y110000D01*
X145833D01*
X145500Y109667D01*
Y109000D01*
X145833Y108667D01*
X145500Y106668D02*
Y108001D01*
X146833Y106668D01*
X147166D01*
X147499Y107001D01*
Y107667D01*
X147166Y108001D01*
X145500Y105002D02*
X147499D01*
X146500Y106001D01*
Y104668D01*
X142772Y31147D02*
X143105Y31480D01*
Y32147D01*
X142772Y32480D01*
X141439D01*
X141106Y32147D01*
Y31480D01*
X141439Y31147D01*
X141106Y29148D02*
Y30481D01*
X142439Y29148D01*
X142772D01*
X143105Y29481D01*
Y30147D01*
X142772Y30481D01*
Y28481D02*
X143105Y28148D01*
Y27482D01*
X142772Y27148D01*
X141439D01*
X141106Y27482D01*
Y28148D01*
X141439Y28481D01*
X142772D01*
D11*
X180965Y42531D02*
G03*
X180965Y42531I-6299J0D01*
G01*
X194000Y37500D02*
X196500Y35000D01*
X186500Y40000D02*
X189000Y37500D01*
X186500Y45000D02*
X189000Y47500D01*
X186500Y35000D02*
X189000Y37500D01*
X194000Y47500D02*
X196500Y45000D01*
X194000Y37500D02*
X196500Y40000D01*
X186500Y30000D02*
X189000Y27500D01*
X194000D02*
X196500Y30000D01*
X189000Y47500D02*
X194000D01*
X189000Y27500D02*
X194000D01*
X186500Y40000D02*
Y45000D01*
X196500Y40000D02*
Y45000D01*
X186500Y30000D02*
Y35000D01*
X196500Y30000D02*
Y35000D01*
X336409Y120984D02*
Y158386D01*
X381685Y120984D02*
Y158386D01*
X336409D02*
X381685D01*
X336409Y120984D02*
X381685D01*
X336409Y175984D02*
Y213386D01*
X381685Y175984D02*
Y213386D01*
X336409D02*
X381685D01*
X336409Y175984D02*
X381685D01*
X336409Y231614D02*
Y269016D01*
X381685Y231614D02*
Y269016D01*
X336409D02*
X381685D01*
X336409Y231614D02*
X381685D01*
X49902Y233500D02*
Y278776D01*
X12500Y233500D02*
Y278776D01*
X49902D01*
X12500Y233500D02*
X49902D01*
X138902D02*
Y278776D01*
X101500Y233500D02*
Y278776D01*
X138902D01*
X101500Y233500D02*
X138902D01*
X304976Y315008D02*
X387653D01*
X304976Y389811D02*
X387653D01*
Y315008D02*
Y389811D01*
X304976Y315008D02*
Y389811D01*
X323500Y93000D02*
X362500D01*
X323500Y56900D02*
Y93000D01*
X362500Y56900D02*
Y93000D01*
X323500Y56900D02*
X362500D01*
X310000Y53500D02*
X320000D01*
X310001Y23500D02*
X320000D01*
X310000D02*
Y53500D01*
X320000Y23500D02*
Y53500D01*
X245000Y279500D02*
Y289500D01*
X275000Y279501D02*
Y289500D01*
X245000Y279500D02*
X275000D01*
X245000Y289500D02*
X275000D01*
X331315Y293000D02*
Y303000D01*
X361315Y293001D02*
Y303000D01*
X331315Y293000D02*
X361315D01*
X331315Y303000D02*
X361315D01*
X296000Y148000D02*
Y198000D01*
X286000Y148000D02*
Y198000D01*
X286001Y148000D02*
X296000D01*
X286000Y198000D02*
X296000D01*
X280500Y148000D02*
Y198000D01*
X270500Y148000D02*
Y198000D01*
X270501Y148000D02*
X280500D01*
X270500Y198000D02*
X280500D01*
X286000Y63915D02*
Y113915D01*
X296000Y63915D02*
Y113915D01*
X286000D02*
X295999D01*
X286000Y63915D02*
X296000D01*
X270500D02*
Y113915D01*
X280500Y63915D02*
Y113915D01*
X270500D02*
X280499D01*
X270500Y63915D02*
X280500D01*
X296000Y211000D02*
Y261000D01*
X286000Y211000D02*
Y261000D01*
X286001Y211000D02*
X296000D01*
X286000Y261000D02*
X296000D01*
X280500Y211000D02*
Y261000D01*
X270500Y211000D02*
Y261000D01*
X270501Y211000D02*
X280500D01*
X270500Y261000D02*
X280500D01*
X310500Y124685D02*
X320500D01*
X310500Y154685D02*
X320499D01*
X320500Y124685D02*
Y154685D01*
X310500Y124685D02*
Y154685D01*
Y179685D02*
X320500D01*
X310500Y209685D02*
X320499D01*
X320500Y179685D02*
Y209685D01*
X310500Y179685D02*
Y209685D01*
Y235315D02*
X320500D01*
X310500Y265315D02*
X320499D01*
X320500Y235315D02*
Y265315D01*
X310500Y235315D02*
Y265315D01*
X367500Y43500D02*
X377500D01*
X367501Y23500D02*
X377500D01*
X367500D02*
Y43500D01*
X377500Y23500D02*
Y43500D01*
X367500Y66000D02*
X377500D01*
X367501Y46000D02*
X377500D01*
X367500D02*
Y66000D01*
X377500Y46000D02*
Y66000D01*
X367500Y88500D02*
X377500D01*
X367501Y68500D02*
X377500D01*
X367500D02*
Y88500D01*
X377500Y68500D02*
Y88500D01*
X149449Y112000D02*
Y122000D01*
X179449Y112001D02*
Y122000D01*
X149449Y112000D02*
X179449D01*
X149449Y122000D02*
X179449D01*
X181600Y112000D02*
Y122000D01*
X211600Y112001D02*
Y122000D01*
X181600Y112000D02*
X211600D01*
X181600Y122000D02*
X211600D01*
D12*
X93500Y308646D02*
Y389748D01*
Y308646D02*
X115768D01*
Y296835D02*
Y308646D01*
Y296835D02*
X149232D01*
Y308646D01*
X115768D02*
X149232D01*
X171500D01*
Y389748D01*
X154941D02*
X171500D01*
X154941D02*
Y401362D01*
X110059D02*
X154941D01*
X110059Y389748D02*
X154941D01*
X110059D02*
Y401362D01*
X93500Y389748D02*
X110059D01*
X4500Y308646D02*
Y389748D01*
Y308646D02*
X26768D01*
Y296835D02*
Y308646D01*
Y296835D02*
X60232D01*
Y308646D01*
X26768D02*
X60232D01*
X82500D01*
Y389748D01*
X65941D02*
X82500D01*
X65941D02*
Y401362D01*
X21059D02*
X65941D01*
X21059Y389748D02*
X65941D01*
X21059D02*
Y401362D01*
X4500Y389748D02*
X21059D01*
X221051Y308646D02*
Y389748D01*
Y308646D02*
X243319D01*
Y296835D02*
Y308646D01*
Y296835D02*
X276783D01*
Y308646D01*
X243319D02*
X276783D01*
X299051D01*
Y389748D01*
X282492D02*
X299051D01*
X282492D02*
Y401362D01*
X237610D02*
X282492D01*
X237610Y389748D02*
X282492D01*
X237610D02*
Y401362D01*
X221051Y389748D02*
X237610D01*
D13*
X178783Y389315D02*
X214217D01*
X178783Y357638D02*
Y389315D01*
X214217Y336378D02*
Y389315D01*
X178800Y339115D02*
Y358490D01*
X178783Y336378D02*
Y339134D01*
Y336378D02*
X187051D01*
X205949D02*
X214217D01*
X128429Y87819D02*
X199689D01*
X128429Y58685D02*
X199689D01*
X128429Y60654D02*
X199689D01*
Y87819D01*
X128429Y60654D02*
Y87819D01*
X199689Y58685D02*
Y60654D01*
X128429Y58685D02*
Y60654D01*
X323500Y95781D02*
Y99780D01*
X325499D01*
X326166Y99114D01*
Y97781D01*
X325499Y97114D01*
X323500D01*
X327499Y95781D02*
Y99780D01*
X329498D01*
X330165Y99114D01*
Y97781D01*
X329498Y97114D01*
X327499D01*
X328832D02*
X330165Y95781D01*
X333497Y99780D02*
X332164D01*
X331497Y99114D01*
Y96448D01*
X332164Y95781D01*
X333497D01*
X334163Y96448D01*
Y99114D01*
X333497Y99780D01*
X338162Y99114D02*
X337495Y99780D01*
X336163D01*
X335496Y99114D01*
Y96448D01*
X336163Y95781D01*
X337495D01*
X338162Y96448D01*
Y97781D01*
X336829D01*
X303166Y29717D02*
X302499Y30384D01*
X301166D01*
X300500Y29717D01*
Y29051D01*
X301166Y28384D01*
X302499D01*
X303166Y27718D01*
Y27051D01*
X302499Y26385D01*
X301166D01*
X300500Y27051D01*
X307165Y26385D02*
X304499D01*
X307165Y29051D01*
Y29717D01*
X306498Y30384D01*
X305165D01*
X304499Y29717D01*
X303166Y39717D02*
X302499Y40384D01*
X301166D01*
X300500Y39717D01*
Y39051D01*
X301166Y38384D01*
X302499D01*
X303166Y37718D01*
Y37051D01*
X302499Y36385D01*
X301166D01*
X300500Y37051D01*
X304499Y36385D02*
X305832D01*
X305165D01*
Y40384D01*
X304499Y39717D01*
X303166Y49717D02*
X302499Y50384D01*
X301166D01*
X300500Y49717D01*
Y49051D01*
X301166Y48384D01*
X302499D01*
X303166Y47718D01*
Y47051D01*
X302499Y46385D01*
X301166D01*
X300500Y47051D01*
X304499Y49717D02*
X305165Y50384D01*
X306498D01*
X307165Y49717D01*
Y47051D01*
X306498Y46385D01*
X305165D01*
X304499Y47051D01*
Y49717D01*
X149396Y123661D02*
Y127659D01*
X151395D01*
X152062Y126993D01*
Y125660D01*
X151395Y124994D01*
X149396D01*
X156061Y123661D02*
X153395D01*
X156061Y126327D01*
Y126993D01*
X155394Y127659D01*
X154061D01*
X153395Y126993D01*
X161392Y123661D02*
Y127659D01*
X163392D01*
X164058Y126993D01*
Y125660D01*
X163392Y124994D01*
X161392D01*
X165391Y123661D02*
X166724D01*
X166057D01*
Y127659D01*
X165391Y126993D01*
X172722Y123661D02*
Y127659D01*
X174721D01*
X175388Y126993D01*
Y125660D01*
X174721Y124994D01*
X172722D01*
X176721Y126993D02*
X177387Y127659D01*
X178720D01*
X179386Y126993D01*
Y124327D01*
X178720Y123661D01*
X177387D01*
X176721Y124327D01*
Y126993D01*
X184666Y126923D02*
X183999Y127589D01*
X182667D01*
X182000Y126923D01*
Y126256D01*
X182667Y125590D01*
X183999D01*
X184666Y124923D01*
Y124257D01*
X183999Y123590D01*
X182667D01*
X182000Y124257D01*
X188664Y123590D02*
X185999D01*
X188664Y126256D01*
Y126923D01*
X187998Y127589D01*
X186665D01*
X185999Y126923D01*
X196662D02*
X195995Y127589D01*
X194663D01*
X193996Y126923D01*
Y126256D01*
X194663Y125590D01*
X195995D01*
X196662Y124923D01*
Y124257D01*
X195995Y123590D01*
X194663D01*
X193996Y124257D01*
X197995Y123590D02*
X199328D01*
X198661D01*
Y127589D01*
X197995Y126923D01*
X207992D02*
X207325Y127589D01*
X205992D01*
X205326Y126923D01*
Y126256D01*
X205992Y125590D01*
X207325D01*
X207992Y124923D01*
Y124257D01*
X207325Y123590D01*
X205992D01*
X205326Y124257D01*
X209325Y126923D02*
X209991Y127589D01*
X211324D01*
X211990Y126923D01*
Y124257D01*
X211324Y123590D01*
X209991D01*
X209325Y124257D01*
Y126923D01*
X304500Y147594D02*
X305833D01*
X305166D01*
Y151593D01*
X304500Y150926D01*
X306666Y137575D02*
X304000D01*
X306666Y140241D01*
Y140907D01*
X305999Y141574D01*
X304666D01*
X304000Y140907D01*
Y130907D02*
X304666Y131573D01*
X305999D01*
X306666Y130907D01*
Y130241D01*
X305999Y129574D01*
X305333D01*
X305999D01*
X306666Y128908D01*
Y128241D01*
X305999Y127575D01*
X304666D01*
X304000Y128241D01*
X304500Y202451D02*
X305833D01*
X305166D01*
Y206450D01*
X304500Y205784D01*
X306666Y192432D02*
X304000D01*
X306666Y195098D01*
Y195765D01*
X305999Y196431D01*
X304666D01*
X304000Y195765D01*
Y185765D02*
X304666Y186431D01*
X305999D01*
X306666Y185765D01*
Y185098D01*
X305999Y184432D01*
X305333D01*
X305999D01*
X306666Y183765D01*
Y183099D01*
X305999Y182432D01*
X304666D01*
X304000Y183099D01*
Y241580D02*
X304666Y242246D01*
X305999D01*
X306666Y241580D01*
Y240913D01*
X305999Y240247D01*
X305333D01*
X305999D01*
X306666Y239580D01*
Y238914D01*
X305999Y238247D01*
X304666D01*
X304000Y238914D01*
X306666Y248247D02*
X304000D01*
X306666Y250913D01*
Y251579D01*
X305999Y252246D01*
X304666D01*
X304000Y251579D01*
X304500Y258266D02*
X305833D01*
X305166D01*
Y262265D01*
X304500Y261599D01*
X264500Y119027D02*
X267166D01*
X265833Y120360D02*
Y117694D01*
X268499Y120360D02*
X269165Y121026D01*
X270498D01*
X271164Y120360D01*
Y119693D01*
X270498Y119027D01*
X269832D01*
X270498D01*
X271164Y118360D01*
Y117694D01*
X270498Y117027D01*
X269165D01*
X268499Y117694D01*
X272497Y117027D02*
Y117694D01*
X273164D01*
Y117027D01*
X272497D01*
X275830Y120360D02*
X276496Y121026D01*
X277829D01*
X278496Y120360D01*
Y119693D01*
X277829Y119027D01*
X277163D01*
X277829D01*
X278496Y118360D01*
Y117694D01*
X277829Y117027D01*
X276496D01*
X275830Y117694D01*
X279828Y121026D02*
Y118360D01*
X281161Y117027D01*
X282494Y118360D01*
Y121026D01*
X287666Y120522D02*
X286999Y121188D01*
X285666D01*
X285000Y120522D01*
Y117856D01*
X285666Y117190D01*
X286999D01*
X287666Y117856D01*
Y119189D01*
X286333D01*
X288999Y117190D02*
Y121188D01*
X291665Y117190D01*
Y121188D01*
X292997D02*
Y117190D01*
X294997D01*
X295663Y117856D01*
Y120522D01*
X294997Y121188D01*
X292997D01*
X288166Y204071D02*
X287499Y204738D01*
X286166D01*
X285500Y204071D01*
Y201406D01*
X286166Y200739D01*
X287499D01*
X288166Y201406D01*
Y202738D01*
X286833D01*
X289499Y200739D02*
Y204738D01*
X292164Y200739D01*
Y204738D01*
X293497D02*
Y200739D01*
X295497D01*
X296163Y201406D01*
Y204071D01*
X295497Y204738D01*
X293497D01*
X269500Y202814D02*
X272166D01*
X270833Y204147D02*
Y201481D01*
X276165Y204814D02*
X273499D01*
Y202814D01*
X274832Y203481D01*
X275498D01*
X276165Y202814D01*
Y201481D01*
X275498Y200815D01*
X274165D01*
X273499Y201481D01*
X277497Y204814D02*
Y202148D01*
X278830Y200815D01*
X280163Y202148D01*
Y204814D01*
X288166Y267071D02*
X287499Y267738D01*
X286166D01*
X285500Y267071D01*
Y264406D01*
X286166Y263739D01*
X287499D01*
X288166Y264406D01*
Y265739D01*
X286833D01*
X289499Y263739D02*
Y267738D01*
X292164Y263739D01*
Y267738D01*
X293497D02*
Y263739D01*
X295497D01*
X296163Y264406D01*
Y267071D01*
X295497Y267738D01*
X293497D01*
X270000Y265814D02*
X272666D01*
X271333Y267147D02*
Y264481D01*
X276664Y267813D02*
X273999D01*
Y265814D01*
X275332Y266481D01*
X275998D01*
X276664Y265814D01*
Y264481D01*
X275998Y263815D01*
X274665D01*
X273999Y264481D01*
X277997Y267813D02*
Y265148D01*
X279330Y263815D01*
X280663Y265148D01*
Y267813D01*
X338511Y287000D02*
Y290999D01*
X336512Y288999D01*
X339178D01*
X347175Y287000D02*
X344510D01*
X347175Y289666D01*
Y290332D01*
X346509Y290999D01*
X345176D01*
X344510Y290332D01*
X355173Y290999D02*
X352507D01*
Y288999D01*
X353840Y289666D01*
X354506D01*
X355173Y288999D01*
Y287666D01*
X354506Y287000D01*
X353173D01*
X352507Y287666D01*
X250500Y276999D02*
X253166D01*
X251833D01*
Y273000D01*
X258497D02*
Y276999D01*
X260497D01*
X261163Y276332D01*
Y274999D01*
X260497Y274333D01*
X258497D01*
X259830D02*
X261163Y273000D01*
X269161Y276332D02*
X268494Y276999D01*
X267161D01*
X266495Y276332D01*
Y275666D01*
X267161Y274999D01*
X268494D01*
X269161Y274333D01*
Y273666D01*
X268494Y273000D01*
X267161D01*
X266495Y273666D01*
X216832Y28934D02*
X217499Y29601D01*
Y30934D01*
X216832Y31600D01*
X214166D01*
X213500Y30934D01*
Y29601D01*
X214166Y28934D01*
X216832Y27601D02*
X217499Y26935D01*
Y25602D01*
X216832Y24936D01*
X216166D01*
X214833Y26268D01*
X214166D02*
X213500D01*
X238000Y25999D02*
X239333D01*
X238666D01*
Y22000D01*
X238000D01*
X239333D01*
X243998Y25332D02*
X243332Y25999D01*
X241999D01*
X241332Y25332D01*
Y22667D01*
X241999Y22000D01*
X243332D01*
X243998Y22667D01*
X245331Y25332D02*
X245997Y25999D01*
X247330D01*
X247997Y25332D01*
Y24666D01*
X247330Y23999D01*
X246664D01*
X247330D01*
X247997Y23333D01*
Y22667D01*
X247330Y22000D01*
X245997D01*
X245331Y22667D01*
X166928Y78600D02*
Y77267D01*
Y77934D01*
X162930D01*
Y78600D01*
Y77267D01*
X166262Y72602D02*
X166928Y73268D01*
Y74601D01*
X166262Y75268D01*
X163596D01*
X162930Y74601D01*
Y73268D01*
X163596Y72602D01*
X162930Y68603D02*
Y71269D01*
X165595Y68603D01*
X166262D01*
X166928Y69270D01*
Y70603D01*
X166262Y71269D01*
X19267Y287089D02*
Y284423D01*
X20600Y283090D01*
X21933Y284423D01*
Y287089D01*
X25265D02*
X23932D01*
X23266Y286423D01*
Y283757D01*
X23932Y283090D01*
X25265D01*
X25932Y283757D01*
Y286423D01*
X25265Y287089D01*
X27265D02*
Y283090D01*
X29930D01*
X31263Y287089D02*
Y283757D01*
X31930Y283090D01*
X33263D01*
X33929Y283757D01*
Y287089D01*
X35262Y283090D02*
Y287089D01*
X36595Y285756D01*
X37928Y287089D01*
Y283090D01*
X41927Y287089D02*
X39261D01*
Y283090D01*
X41927D01*
X39261Y285090D02*
X40594D01*
X108885Y68700D02*
X112884D01*
Y66701D01*
X112217Y66034D01*
X110884D01*
X110218Y66701D01*
Y68700D01*
Y67367D02*
X108885Y66034D01*
X112217Y64701D02*
X112884Y64035D01*
Y62702D01*
X112217Y62036D01*
X111551D01*
X110218Y63368D01*
X109551D02*
X108885D01*
X39000Y171139D02*
X42999D01*
Y169139D01*
X42332Y168473D01*
X40999D01*
X40333Y169139D01*
Y171139D01*
Y169806D02*
X39000Y168473D01*
Y164474D02*
Y167140D01*
X41666Y164474D01*
X42332D01*
X42999Y165140D01*
Y166473D01*
X42332Y167140D01*
X39000Y160475D02*
Y163141D01*
X41666Y160475D01*
X42332D01*
X42999Y161142D01*
Y162475D01*
X42332Y163141D01*
X39066Y131000D02*
X43065D01*
Y129001D01*
X42399Y128334D01*
X41066D01*
X40399Y129001D01*
Y131000D01*
Y129667D02*
X39066Y128334D01*
Y124336D02*
Y127001D01*
X41732Y124336D01*
X42399D01*
X43065Y125002D01*
Y126335D01*
X42399Y127001D01*
X39066Y123003D02*
Y121670D01*
Y122336D01*
X43065D01*
X42399Y123003D01*
X49000Y131000D02*
X52999D01*
Y129001D01*
X52332Y128334D01*
X50999D01*
X50333Y129001D01*
Y131000D01*
Y129667D02*
X49000Y128334D01*
Y124336D02*
Y127001D01*
X51666Y124336D01*
X52332D01*
X52999Y125002D01*
Y126335D01*
X52332Y127001D01*
Y123003D02*
X52999Y122336D01*
Y121003D01*
X52332Y120337D01*
X49666D01*
X49000Y121003D01*
Y122336D01*
X49666Y123003D01*
X52332D01*
X49000Y171000D02*
X52999D01*
Y169001D01*
X52332Y168334D01*
X50999D01*
X50333Y169001D01*
Y171000D01*
Y169667D02*
X49000Y168334D01*
Y167001D02*
Y165668D01*
Y166335D01*
X52999D01*
X52332Y167001D01*
X49666Y163669D02*
X49000Y163003D01*
Y161670D01*
X49666Y161003D01*
X52332D01*
X52999Y161670D01*
Y163003D01*
X52332Y163669D01*
X51666D01*
X50999Y163003D01*
Y161003D01*
X71000Y244000D02*
Y247999D01*
X72999D01*
X73666Y247332D01*
Y245999D01*
X72999Y245333D01*
X71000D01*
X72333D02*
X73666Y244000D01*
X74999D02*
X76332D01*
X75665D01*
Y247999D01*
X74999Y247332D01*
X78331D02*
X78997Y247999D01*
X80330D01*
X80997Y247332D01*
Y246666D01*
X80330Y245999D01*
X80997Y245333D01*
Y244666D01*
X80330Y244000D01*
X78997D01*
X78331Y244666D01*
Y245333D01*
X78997Y245999D01*
X78331Y246666D01*
Y247332D01*
X78997Y245999D02*
X80330D01*
X71000Y233885D02*
Y237884D01*
X72999D01*
X73666Y237217D01*
Y235884D01*
X72999Y235218D01*
X71000D01*
X72333D02*
X73666Y233885D01*
X74999D02*
X76332D01*
X75665D01*
Y237884D01*
X74999Y237217D01*
X78331Y237884D02*
X80997D01*
Y237217D01*
X78331Y234551D01*
Y233885D01*
X71000Y254000D02*
Y257999D01*
X72999D01*
X73666Y257332D01*
Y255999D01*
X72999Y255333D01*
X71000D01*
X72333D02*
X73666Y254000D01*
X74999D02*
X76332D01*
X75665D01*
Y257999D01*
X74999Y257332D01*
X80997Y257999D02*
X79664Y257332D01*
X78331Y255999D01*
Y254666D01*
X78997Y254000D01*
X80330D01*
X80997Y254666D01*
Y255333D01*
X80330Y255999D01*
X78331D01*
X71000Y264000D02*
Y267999D01*
X72999D01*
X73666Y267332D01*
Y265999D01*
X72999Y265333D01*
X71000D01*
X72333D02*
X73666Y264000D01*
X74999D02*
X76332D01*
X75665D01*
Y267999D01*
X74999Y267332D01*
X80997Y267999D02*
X78331D01*
Y265999D01*
X79664Y266666D01*
X80330D01*
X80997Y265999D01*
Y264666D01*
X80330Y264000D01*
X78997D01*
X78331Y264666D01*
X119000Y180587D02*
X122999D01*
Y178587D01*
X122332Y177921D01*
X120999D01*
X120333Y178587D01*
Y180587D01*
Y179254D02*
X119000Y177921D01*
Y176588D02*
Y175255D01*
Y175921D01*
X122999D01*
X122332Y176588D01*
X119000Y171256D02*
X122999D01*
X120999Y173256D01*
Y170590D01*
X109000Y141000D02*
X112999D01*
Y139001D01*
X112332Y138334D01*
X110999D01*
X110333Y139001D01*
Y141000D01*
Y139667D02*
X109000Y138334D01*
Y137001D02*
Y135668D01*
Y136335D01*
X112999D01*
X112332Y137001D01*
Y133669D02*
X112999Y133003D01*
Y131670D01*
X112332Y131003D01*
X111666D01*
X110999Y131670D01*
Y132336D01*
Y131670D01*
X110333Y131003D01*
X109667D01*
X109000Y131670D01*
Y133003D01*
X109667Y133669D01*
X186000Y101000D02*
Y104999D01*
X187999D01*
X188666Y104332D01*
Y102999D01*
X187999Y102333D01*
X186000D01*
X187333D02*
X188666Y101000D01*
X189999D02*
X191332D01*
X190665D01*
Y104999D01*
X189999Y104332D01*
X195997Y101000D02*
X193331D01*
X195997Y103666D01*
Y104332D01*
X195330Y104999D01*
X193997D01*
X193331Y104332D01*
X204000Y77300D02*
X207999D01*
Y75301D01*
X207332Y74634D01*
X205999D01*
X205333Y75301D01*
Y77300D01*
Y75967D02*
X204000Y74634D01*
Y73301D02*
Y71968D01*
Y72635D01*
X207999D01*
X207332Y73301D01*
X204000Y69969D02*
Y68636D01*
Y69303D01*
X207999D01*
X207332Y69969D01*
X129000Y179336D02*
X132999D01*
Y177336D01*
X132332Y176670D01*
X130999D01*
X130333Y177336D01*
Y179336D01*
Y178003D02*
X129000Y176670D01*
X129666Y175337D02*
X129000Y174671D01*
Y173338D01*
X129666Y172671D01*
X132332D01*
X132999Y173338D01*
Y174671D01*
X132332Y175337D01*
X131666D01*
X130999Y174671D01*
Y172671D01*
X139000Y179336D02*
X142999D01*
Y177336D01*
X142332Y176670D01*
X140999D01*
X140333Y177336D01*
Y179336D01*
Y178003D02*
X139000Y176670D01*
X142332Y175337D02*
X142999Y174671D01*
Y173338D01*
X142332Y172671D01*
X141666D01*
X140999Y173338D01*
X140333Y172671D01*
X139666D01*
X139000Y173338D01*
Y174671D01*
X139666Y175337D01*
X140333D01*
X140999Y174671D01*
X141666Y175337D01*
X142332D01*
X140999Y174671D02*
Y173338D01*
X149000Y179336D02*
X152999D01*
Y177336D01*
X152332Y176670D01*
X150999D01*
X150333Y177336D01*
Y179336D01*
Y178003D02*
X149000Y176670D01*
X152999Y175337D02*
Y172671D01*
X152332D01*
X149667Y175337D01*
X149000D01*
X339500Y26500D02*
Y30499D01*
X341499D01*
X342166Y29832D01*
Y28499D01*
X341499Y27833D01*
X339500D01*
X340833D02*
X342166Y26500D01*
X346164Y30499D02*
X344832Y29832D01*
X343499Y28499D01*
Y27166D01*
X344165Y26500D01*
X345498D01*
X346164Y27166D01*
Y27833D01*
X345498Y28499D01*
X343499D01*
X339500Y36500D02*
Y40499D01*
X341499D01*
X342166Y39832D01*
Y38499D01*
X341499Y37833D01*
X339500D01*
X340833D02*
X342166Y36500D01*
X346164Y40499D02*
X343499D01*
Y38499D01*
X344832Y39166D01*
X345498D01*
X346164Y38499D01*
Y37166D01*
X345498Y36500D01*
X344165D01*
X343499Y37166D01*
X339500Y46500D02*
Y50499D01*
X341499D01*
X342166Y49832D01*
Y48499D01*
X341499Y47833D01*
X339500D01*
X340833D02*
X342166Y46500D01*
X345498D02*
Y50499D01*
X343499Y48499D01*
X346164D01*
X108888Y179500D02*
X112886D01*
Y177501D01*
X112220Y176834D01*
X110887D01*
X110220Y177501D01*
Y179500D01*
Y178167D02*
X108888Y176834D01*
X112220Y175501D02*
X112886Y174835D01*
Y173502D01*
X112220Y172836D01*
X111553D01*
X110887Y173502D01*
Y174168D01*
Y173502D01*
X110220Y172836D01*
X109554D01*
X108888Y173502D01*
Y174835D01*
X109554Y175501D01*
X99000Y179500D02*
X102999D01*
Y177501D01*
X102332Y176834D01*
X100999D01*
X100333Y177501D01*
Y179500D01*
Y178167D02*
X99000Y176834D01*
Y172836D02*
Y175501D01*
X101666Y172836D01*
X102332D01*
X102999Y173502D01*
Y174835D01*
X102332Y175501D01*
X159000Y179351D02*
X162999D01*
Y177352D01*
X162332Y176686D01*
X160999D01*
X160333Y177352D01*
Y179351D01*
Y178019D02*
X159000Y176686D01*
Y175353D02*
Y174020D01*
Y174686D01*
X162999D01*
X162332Y175353D01*
X336315Y160932D02*
Y164931D01*
X338314D01*
X338981Y164265D01*
Y162932D01*
X338314Y162265D01*
X336315D01*
X342980Y160932D02*
X340314D01*
X342980Y163598D01*
Y164265D01*
X342313Y164931D01*
X340980D01*
X340314Y164265D01*
X336315Y217000D02*
Y220999D01*
X338314D01*
X338981Y220332D01*
Y218999D01*
X338314Y218333D01*
X336315D01*
X340314Y217000D02*
X341647D01*
X340980D01*
Y220999D01*
X340314Y220332D01*
X336315Y272500D02*
Y276499D01*
X338314D01*
X338981Y275832D01*
Y274499D01*
X338314Y273833D01*
X336315D01*
X340314Y275832D02*
X340980Y276499D01*
X342313D01*
X342980Y275832D01*
Y273166D01*
X342313Y272500D01*
X340980D01*
X340314Y273166D01*
Y275832D01*
X64725Y304499D02*
X63392D01*
X62726Y303832D01*
Y301166D01*
X63392Y300500D01*
X64725D01*
X65392Y301166D01*
Y303832D01*
X64725Y304499D01*
X66725D02*
Y301166D01*
X67391Y300500D01*
X68724D01*
X69390Y301166D01*
Y304499D01*
X70723D02*
X73389D01*
X72056D01*
Y300500D01*
X74722D02*
Y304499D01*
X76721D01*
X77388Y303832D01*
Y302499D01*
X76721Y301833D01*
X74722D01*
X78721Y304499D02*
Y301166D01*
X79387Y300500D01*
X80720D01*
X81387Y301166D01*
Y304499D01*
X82719D02*
X85385D01*
X84052D01*
Y300500D01*
X115516Y283090D02*
Y287089D01*
X116849Y285756D01*
X118182Y287089D01*
Y283090D01*
X119515Y287089D02*
X120847D01*
X120181D01*
Y283090D01*
X119515D01*
X120847D01*
X122847Y287089D02*
X125513Y283090D01*
Y287089D02*
X122847Y283090D01*
X371500Y308000D02*
Y311999D01*
X372833Y310666D01*
X374166Y311999D01*
Y308000D01*
X375499Y311999D02*
X376832D01*
X376165D01*
Y308000D01*
X375499D01*
X376832D01*
X378831Y311999D02*
Y308000D01*
X380830D01*
X381497Y308666D01*
Y311332D01*
X380830Y311999D01*
X378831D01*
X382830D02*
X384163D01*
X383496D01*
Y308000D01*
X382830D01*
X384163D01*
X195666Y382134D02*
X194333D01*
X194999D01*
Y378802D01*
X194333Y378135D01*
X193667D01*
X193000Y378802D01*
X196999Y378135D02*
X198332D01*
X197665D01*
Y382134D01*
X196999Y381467D01*
X151877Y303999D02*
X153210D01*
X152543D01*
Y300000D01*
X151877D01*
X153210D01*
X155209D02*
Y303999D01*
X157875Y300000D01*
Y303999D01*
X159208Y300000D02*
Y303999D01*
X161207D01*
X161874Y303332D01*
Y301999D01*
X161207Y301333D01*
X159208D01*
X163207Y303999D02*
Y300666D01*
X163873Y300000D01*
X165206D01*
X165872Y300666D01*
Y303999D01*
X167205D02*
X169871D01*
X168538D01*
Y300000D01*
X71500Y152788D02*
X72833D01*
X72166D01*
Y148789D01*
X71500D01*
X72833D01*
X77498Y152121D02*
X76832Y152788D01*
X75499D01*
X74832Y152121D01*
Y149455D01*
X75499Y148789D01*
X76832D01*
X77498Y149455D01*
X78831Y148789D02*
X80164D01*
X79497D01*
Y152788D01*
X78831Y152121D01*
X283166Y305499D02*
X280500D01*
Y301500D01*
X283166D01*
X280500Y303499D02*
X281833D01*
X284499Y305499D02*
X287164Y301500D01*
Y305499D02*
X284499Y301500D01*
X288497D02*
Y305499D01*
X290497D01*
X291163Y304832D01*
Y303499D01*
X290497Y302833D01*
X288497D01*
X292496Y301500D02*
Y305499D01*
X294496D01*
X295162Y304832D01*
Y303499D01*
X294496Y302833D01*
X292496D01*
X293829D02*
X295162Y301500D01*
X192273Y316499D02*
Y312500D01*
X194273D01*
X194939Y313166D01*
Y315832D01*
X194273Y316499D01*
X192273D01*
X196272Y312500D02*
X197605D01*
X196938D01*
Y316499D01*
X196272Y315832D01*
X25847Y173834D02*
X26514Y174501D01*
Y175833D01*
X25847Y176500D01*
X23181D01*
X22515Y175833D01*
Y174501D01*
X23181Y173834D01*
X25847Y172501D02*
X26514Y171835D01*
Y170502D01*
X25847Y169835D01*
X25181D01*
X24514Y170502D01*
Y171168D01*
Y170502D01*
X23848Y169835D01*
X23181D01*
X22515Y170502D01*
Y171835D01*
X23181Y172501D01*
X25847Y168503D02*
X26514Y167836D01*
Y166503D01*
X25847Y165837D01*
X23181D01*
X22515Y166503D01*
Y167836D01*
X23181Y168503D01*
X25847D01*
X32332Y127834D02*
X32999Y128501D01*
Y129833D01*
X32332Y130500D01*
X29666D01*
X29000Y129833D01*
Y128501D01*
X29666Y127834D01*
X29000Y123836D02*
Y126501D01*
X31666Y123836D01*
X32332D01*
X32999Y124502D01*
Y125835D01*
X32332Y126501D01*
X29666Y122503D02*
X29000Y121836D01*
Y120503D01*
X29666Y119837D01*
X32332D01*
X32999Y120503D01*
Y121836D01*
X32332Y122503D01*
X31666D01*
X30999Y121836D01*
Y119837D01*
X28551Y217332D02*
X27884Y217999D01*
X26551D01*
X25885Y217332D01*
Y214666D01*
X26551Y214000D01*
X27884D01*
X28551Y214666D01*
X32550Y214000D02*
X29884D01*
X32550Y216666D01*
Y217332D01*
X31883Y217999D01*
X30550D01*
X29884Y217332D01*
X33882D02*
X34549Y217999D01*
X35882D01*
X36548Y217332D01*
Y216666D01*
X35882Y215999D01*
X36548Y215333D01*
Y214666D01*
X35882Y214000D01*
X34549D01*
X33882Y214666D01*
Y215333D01*
X34549Y215999D01*
X33882Y216666D01*
Y217332D01*
X34549Y215999D02*
X35882D01*
X60339Y212834D02*
X61005Y213501D01*
Y214834D01*
X60339Y215500D01*
X57673D01*
X57007Y214834D01*
Y213501D01*
X57673Y212834D01*
X57007Y208836D02*
Y211501D01*
X59672Y208836D01*
X60339D01*
X61005Y209502D01*
Y210835D01*
X60339Y211501D01*
X61005Y207503D02*
Y204837D01*
X60339D01*
X57673Y207503D01*
X57007D01*
X85832Y212457D02*
X86499Y213124D01*
Y214457D01*
X85832Y215123D01*
X83166D01*
X82500Y214457D01*
Y213124D01*
X83166Y212457D01*
X82500Y208459D02*
Y211124D01*
X85166Y208459D01*
X85832D01*
X86499Y209125D01*
Y210458D01*
X85832Y211124D01*
X86499Y204460D02*
X85832Y205793D01*
X84499Y207126D01*
X83166D01*
X82500Y206459D01*
Y205126D01*
X83166Y204460D01*
X83833D01*
X84499Y205126D01*
Y207126D01*
X122332Y143834D02*
X122999Y144501D01*
Y145834D01*
X122332Y146500D01*
X119667D01*
X119000Y145834D01*
Y144501D01*
X119667Y143834D01*
X119000Y139836D02*
Y142501D01*
X121666Y139836D01*
X122332D01*
X122999Y140502D01*
Y141835D01*
X122332Y142501D01*
X122999Y135837D02*
Y138503D01*
X120999D01*
X121666Y137170D01*
Y136503D01*
X120999Y135837D01*
X119667D01*
X119000Y136503D01*
Y137836D01*
X119667Y138503D01*
X112332Y104057D02*
X112999Y104724D01*
Y106057D01*
X112332Y106723D01*
X109667D01*
X109000Y106057D01*
Y104724D01*
X109667Y104057D01*
X109000Y100059D02*
Y102724D01*
X111666Y100059D01*
X112332D01*
X112999Y100725D01*
Y102058D01*
X112332Y102724D01*
Y98726D02*
X112999Y98059D01*
Y96726D01*
X112332Y96060D01*
X111666D01*
X110999Y96726D01*
Y97393D01*
Y96726D01*
X110333Y96060D01*
X109667D01*
X109000Y96726D01*
Y98059D01*
X109667Y98726D01*
X143631Y44932D02*
X142965Y45599D01*
X141632D01*
X140965Y44932D01*
Y42266D01*
X141632Y41600D01*
X142965D01*
X143631Y42266D01*
X147630Y41600D02*
X144964D01*
X147630Y44266D01*
Y44932D01*
X146964Y45599D01*
X145631D01*
X144964Y44932D01*
X151629Y41600D02*
X148963D01*
X151629Y44266D01*
Y44932D01*
X150962Y45599D01*
X149629D01*
X148963Y44932D01*
X172950Y23334D02*
X173616Y24001D01*
Y25333D01*
X172950Y26000D01*
X170284D01*
X169618Y25333D01*
Y24001D01*
X170284Y23334D01*
X169618Y19335D02*
Y22001D01*
X172283Y19335D01*
X172950D01*
X173616Y20002D01*
Y21335D01*
X172950Y22001D01*
X169618Y18003D02*
Y16670D01*
Y17336D01*
X173616D01*
X172950Y18003D01*
X122332Y67476D02*
X122999Y68143D01*
Y69476D01*
X122332Y70142D01*
X119667D01*
X119000Y69476D01*
Y68143D01*
X119667Y67476D01*
X119000Y66143D02*
Y64810D01*
Y65477D01*
X122999D01*
X122332Y66143D01*
X119667Y62811D02*
X119000Y62145D01*
Y60812D01*
X119667Y60145D01*
X122332D01*
X122999Y60812D01*
Y62145D01*
X122332Y62811D01*
X121666D01*
X120999Y62145D01*
Y60145D01*
X96039Y67976D02*
X96705Y68643D01*
Y69976D01*
X96039Y70642D01*
X93373D01*
X92707Y69976D01*
Y68643D01*
X93373Y67976D01*
X92707Y66643D02*
Y65310D01*
Y65977D01*
X96705D01*
X96039Y66643D01*
Y63311D02*
X96705Y62645D01*
Y61312D01*
X96039Y60645D01*
X95372D01*
X94706Y61312D01*
X94040Y60645D01*
X93373D01*
X92707Y61312D01*
Y62645D01*
X93373Y63311D01*
X94040D01*
X94706Y62645D01*
X95372Y63311D01*
X96039D01*
X94706Y62645D02*
Y61312D01*
X138666Y202638D02*
X137999Y203305D01*
X136667D01*
X136000Y202638D01*
Y199972D01*
X136667Y199306D01*
X137999D01*
X138666Y199972D01*
X139999Y199306D02*
X141332D01*
X140665D01*
Y203305D01*
X139999Y202638D01*
X143331Y203305D02*
X145997D01*
Y202638D01*
X143331Y199972D01*
Y199306D01*
X102332Y143334D02*
X102999Y144001D01*
Y145334D01*
X102332Y146000D01*
X99666D01*
X99000Y145334D01*
Y144001D01*
X99666Y143334D01*
X99000Y142001D02*
Y140668D01*
Y141335D01*
X102999D01*
X102332Y142001D01*
X102999Y136003D02*
X102332Y137336D01*
X100999Y138669D01*
X99666D01*
X99000Y138003D01*
Y136670D01*
X99666Y136003D01*
X100333D01*
X100999Y136670D01*
Y138669D01*
X254403Y170334D02*
X255069Y171001D01*
Y172334D01*
X254403Y173000D01*
X251737D01*
X251070Y172334D01*
Y171001D01*
X251737Y170334D01*
X251070Y169001D02*
Y167668D01*
Y168335D01*
X255069D01*
X254403Y169001D01*
X255069Y163003D02*
Y165669D01*
X253070D01*
X253736Y164336D01*
Y163670D01*
X253070Y163003D01*
X251737D01*
X251070Y163670D01*
Y165003D01*
X251737Y165669D01*
X243832Y169561D02*
X244499Y170227D01*
Y171560D01*
X243832Y172227D01*
X241166D01*
X240500Y171560D01*
Y170227D01*
X241166Y169561D01*
X240500Y168228D02*
Y166895D01*
Y167562D01*
X244499D01*
X243832Y168228D01*
X240500Y162896D02*
X244499D01*
X242499Y164896D01*
Y162230D01*
X214437Y170334D02*
X215103Y171001D01*
Y172334D01*
X214437Y173000D01*
X211771D01*
X211104Y172334D01*
Y171001D01*
X211771Y170334D01*
X211104Y169001D02*
Y167668D01*
Y168335D01*
X215103D01*
X214437Y169001D01*
Y165669D02*
X215103Y165003D01*
Y163670D01*
X214437Y163003D01*
X213770D01*
X213104Y163670D01*
Y164336D01*
Y163670D01*
X212437Y163003D01*
X211771D01*
X211104Y163670D01*
Y165003D01*
X211771Y165669D01*
X203914Y170334D02*
X204580Y171001D01*
Y172334D01*
X203914Y173000D01*
X201248D01*
X200581Y172334D01*
Y171001D01*
X201248Y170334D01*
X200581Y169001D02*
Y167668D01*
Y168335D01*
X204580D01*
X203914Y169001D01*
X200581Y163003D02*
Y165669D01*
X203247Y163003D01*
X203914D01*
X204580Y163670D01*
Y165003D01*
X203914Y165669D01*
X254332Y232834D02*
X254999Y233501D01*
Y234834D01*
X254332Y235500D01*
X251666D01*
X251000Y234834D01*
Y233501D01*
X251666Y232834D01*
X251000Y231501D02*
Y230168D01*
Y230835D01*
X254999D01*
X254332Y231501D01*
X251000Y228169D02*
Y226836D01*
Y227503D01*
X254999D01*
X254332Y228169D01*
X243832Y232934D02*
X244499Y233601D01*
Y234934D01*
X243832Y235600D01*
X241166D01*
X240500Y234934D01*
Y233601D01*
X241166Y232934D01*
X240500Y231601D02*
Y230268D01*
Y230935D01*
X244499D01*
X243832Y231601D01*
Y228269D02*
X244499Y227603D01*
Y226270D01*
X243832Y225603D01*
X241166D01*
X240500Y226270D01*
Y227603D01*
X241166Y228269D01*
X243832D01*
X214638Y232334D02*
X215305Y233001D01*
Y234334D01*
X214638Y235000D01*
X211972D01*
X211306Y234334D01*
Y233001D01*
X211972Y232334D01*
Y231001D02*
X211306Y230335D01*
Y229002D01*
X211972Y228335D01*
X214638D01*
X215305Y229002D01*
Y230335D01*
X214638Y231001D01*
X213972D01*
X213305Y230335D01*
Y228335D01*
X204332Y232334D02*
X204999Y233001D01*
Y234334D01*
X204332Y235000D01*
X201666D01*
X201000Y234334D01*
Y233001D01*
X201666Y232334D01*
X204332Y231001D02*
X204999Y230335D01*
Y229002D01*
X204332Y228335D01*
X203666D01*
X202999Y229002D01*
X202333Y228335D01*
X201666D01*
X201000Y229002D01*
Y230335D01*
X201666Y231001D01*
X202333D01*
X202999Y230335D01*
X203666Y231001D01*
X204332D01*
X202999Y230335D02*
Y229002D01*
X238332Y64820D02*
X238999Y65486D01*
Y66819D01*
X238332Y67485D01*
X235666D01*
X235000Y66819D01*
Y65486D01*
X235666Y64820D01*
X238999Y63487D02*
Y60821D01*
X238332D01*
X235666Y63487D01*
X235000D01*
X228238Y89749D02*
X228904Y90416D01*
Y91749D01*
X228238Y92415D01*
X225572D01*
X224905Y91749D01*
Y90416D01*
X225572Y89749D01*
X228904Y85751D02*
X228238Y87083D01*
X226905Y88416D01*
X225572D01*
X224905Y87750D01*
Y86417D01*
X225572Y85751D01*
X226238D01*
X226905Y86417D01*
Y88416D01*
X257826Y90249D02*
X258492Y90916D01*
Y92249D01*
X257826Y92915D01*
X255160D01*
X254494Y92249D01*
Y90916D01*
X255160Y90249D01*
X258492Y86251D02*
Y88916D01*
X256493D01*
X257160Y87583D01*
Y86917D01*
X256493Y86251D01*
X255160D01*
X254494Y86917D01*
Y88250D01*
X255160Y88916D01*
X247260Y110747D02*
X246594Y111414D01*
X245261D01*
X244595Y110747D01*
Y108081D01*
X245261Y107415D01*
X246594D01*
X247260Y108081D01*
X250593Y107415D02*
Y111414D01*
X248593Y109414D01*
X251259D01*
X118214Y206834D02*
X118881Y207501D01*
Y208834D01*
X118214Y209500D01*
X115549D01*
X114882Y208834D01*
Y207501D01*
X115549Y206834D01*
X118214Y205501D02*
X118881Y204835D01*
Y203502D01*
X118214Y202835D01*
X117548D01*
X116882Y203502D01*
Y204168D01*
Y203502D01*
X116215Y202835D01*
X115549D01*
X114882Y203502D01*
Y204835D01*
X115549Y205501D01*
X156332Y146771D02*
X156999Y147437D01*
Y148770D01*
X156332Y149437D01*
X153666D01*
X153000Y148770D01*
Y147437D01*
X153666Y146771D01*
X153000Y142772D02*
Y145438D01*
X155666Y142772D01*
X156332D01*
X156999Y143439D01*
Y144772D01*
X156332Y145438D01*
X196096Y295827D02*
X195430Y296493D01*
X194097D01*
X193430Y295827D01*
Y293161D01*
X194097Y292495D01*
X195430D01*
X196096Y293161D01*
X197429Y292495D02*
X198762D01*
X198096D01*
Y296493D01*
X197429Y295827D01*
D14*
X203350Y314500D02*
D03*
M02*
