M48
;Layer_Color=9474304
;FILE_FORMAT=2:5
INCH,TZ
;TYPE=PLATED
T1F00S00C0.01575
T2F00S00C0.01800
T3F00S00C0.01969
T4F00S00C0.02362
T5F00S00C0.02756
T6F00S00C0.03150
T7F00S00C0.03200
T8F00S00C0.03543
T9F00S00C0.04000
T10F00S00C0.04331
T11F00S00C0.05512
T12F00S00C0.09843
%
T01
X77500Y32000
X87500
X223500Y168500
Y198500
X152500Y204500
X134000Y190050
X124000Y190000
X114000
X61000Y194000
Y184000
Y164000
X96500Y128000
X126500
X174000
Y118000
Y108000
Y98000
Y88000
X204000
Y98000
Y108000
Y118000
Y128000
X87500Y62000
X77500
X53500Y108000
Y138000
X31000Y164000
Y184000
Y194000
X21000
Y224000
X11000
Y254000
X31000Y244000
X61000
X114000Y220000
X124000
X134000Y220050
X152500Y214500
X157500Y236000
X147500
X150171Y281000
X180172
X199500Y248500
Y218500
T02
X4300Y4600
Y29500
X29200
Y4600
X54100
X79000
X103900
Y29500
X153700
X178600
Y4600
X203500
Y29500
X128800Y4600
X228400
Y29500
Y54400
Y79300
Y104200
X219000Y113000
X213123Y98500
X228400Y129100
Y154000
Y178900
Y203800
X198500Y202528
X175496Y203500
X165500Y195617
Y184500
X148000
X136991
Y169700
Y158528
X151778Y158500
Y169500
X162306
X173194Y158500
X189320
X208000
X206590Y138000
X197306Y129100
X178600
X171111Y142000
X169806Y113000
X178600Y104200
X197306
X208500Y113000
X203500Y79300
X178600
Y54400
X203500
X103900
X104000Y78000
X110500Y83084
X103900Y104200
X79738
X68500
X76500Y92000
X79000Y54400
X79738Y133000
X68500
X68306Y143000
X58009
X64500Y158694
Y173123
X76000
Y189276
X64500
X93910Y184000
Y198500
X115500Y196268
X128800Y203800
X125084Y178500
Y164000
X112504Y165000
X95146Y163500
X104826Y153000
X103900Y129100
X132504
X153700
Y104200
X128800
X121285Y143500
X106255Y178000
X79738Y153098
X152500Y198000
X178600Y178900
X203500
X54100
X41000Y202500
X26000Y189500
X4300Y178900
Y203800
Y154000
X29200
Y129100
X4300
Y104200
Y79300
X29200
X54100
Y54400
X29200
X4300
X29200Y104200
X53604Y117500
X48500Y143000
X55877Y209000
X46000Y228700
X25690
Y219226
X4300Y228700
X13396Y264000
X4300Y278500
X29200
Y253600
X46000
X54100Y278500
Y303400
Y328300
Y353200
X29200
Y328300
Y303400
X4300
Y328300
Y353200
X79000
Y328300
X103900
Y353200
X153700
X178600
X203500
Y328300
Y303400
X178600
X184362Y286000
X194500Y277000
X199290Y265500
X187866Y249000
X168741Y246000
X174000Y236722
X174434Y225500
X194500Y222925
X207500Y230940
X153700Y228700
Y253600
X128800
Y228700
X107500Y223041
X97000Y235200
X88174Y240500
X77000Y235200
X75500Y222590
X87190Y212000
X79000Y253600
X94500Y261000
Y270000
X79500Y280500
X79000Y303400
X103900
X153700
Y328300
X178600
X168566Y278447
X143000
X128800Y278500
X103900Y252500
X228400Y253600
Y278500
Y303400
Y328300
Y353200
Y228700
X214500Y216246
X203500Y378100
X178600
X153700
X128800
X103900
X79000
X54100
X29200
T03
X45524Y15189
X55524Y25189
X65525Y15189
X72500Y76500
X82500
X92500
X125493Y77500
Y87500
X138500Y77500
X148500
X158500
X154070Y62000
Y52000
X152500Y180000
Y190000
X89500Y179000
X79500
Y159000
X89500
X84000Y236000
X104000
X114000
X124000
X134000
T04
X137500Y42000
X214000Y88000
Y108000
Y118000
X224000
Y138000
X214000
X199000
X179000
X164000
X154000
Y118000
X164000
X116500Y138000
X96500
X63500
Y118000
X99500Y179000
X119500
X171500Y178500
Y198500
X137500Y62000
X43500Y118000
Y138000
X36000Y174000
X56000
X21000Y164000
X11000
Y184000
Y194000
X21000Y184000
X11000Y214000
X21000Y235000
Y255000
X35000Y254000
X55000
X70000Y234000
Y214000
X114000Y251000
X134000
X179500Y238500
X189500
Y218500
X179500
Y208500
X199500
X209290Y281000
X189290
T05
X147500Y257000
X175500
T06
X101500Y159000
Y169000
X117500
Y159000
X104000Y245366
X84000
Y265366
Y275366
Y285366
X104000
Y275366
Y265366
T07
X97500Y32000
Y42000
X127500
Y32000
X213500Y168500
Y198500
X203500
X193500
X183500
Y168500
X193500
X203500
X61000Y204000
X97500Y62000
Y52000
X127500
Y62000
X31000Y204000
Y214000
Y224000
Y234000
X61000
Y224000
Y214000
X115000Y265500
X125000
Y295500
X115000
T08
X153000Y8000
Y18000
X99500Y189988
X89500
Y219988
X99500
X213000Y208500
X223000
Y238500
X213000
T09
X87500Y10500
X97500
X119000
X129000
T10
X63500Y150000
X96500
X116500
X136500
X169000
X189000
X209000
X43500
X23500
Y269500
X43500
X63500
X169000
X189000
X209000
T11
X29692Y316100
Y341100
X93590
Y316100
X138911
Y341100
X202809
Y316100
Y366100
X138911
X93590
X29692
T12
X116250Y332278
Y355900
M30
