G04*
G04 #@! TF.GenerationSoftware,Altium Limited,Altium Designer,19.0.12 (326)*
G04*
G04 Layer_Color=8388736*
%FSLAX25Y25*%
%MOIN*%
G70*
G01*
G75*
%ADD18C,0.05315*%
%ADD19R,0.05315X0.05315*%
%ADD20R,0.05315X0.05315*%
%ADD21C,0.07678*%
%ADD22R,0.07678X0.07678*%
%ADD23C,0.06890*%
%ADD24C,0.05709*%
%ADD25C,0.04922*%
%ADD26C,0.06103*%
%ADD27R,0.06103X0.06103*%
%ADD28C,0.05591*%
%ADD29C,0.06497*%
%ADD30R,0.06497X0.06497*%
%ADD31C,0.15355*%
%ADD32C,0.07191*%
%ADD33R,0.07191X0.07191*%
%ADD34C,0.06591*%
%ADD35C,0.08859*%
%ADD36C,0.05316*%
%ADD37R,0.04922X0.04922*%
%ADD38R,0.04922X0.04922*%
%ADD39C,0.03591*%
D18*
X65525Y15189D02*
D03*
X55524Y25189D02*
D03*
X154070Y52000D02*
D03*
X125493Y87500D02*
D03*
X89500Y179000D02*
D03*
X79500Y159000D02*
D03*
X114000Y236000D02*
D03*
X124000D02*
D03*
X134000D02*
D03*
X92500Y76500D02*
D03*
X82500D02*
D03*
X72500D02*
D03*
X84000Y236000D02*
D03*
X138500Y77500D02*
D03*
X148500D02*
D03*
X158500D02*
D03*
X152500Y180000D02*
D03*
D19*
X45524Y15189D02*
D03*
X104000Y236000D02*
D03*
D20*
X154070Y62000D02*
D03*
X125493Y77500D02*
D03*
X89500Y159000D02*
D03*
X79500Y179000D02*
D03*
X152500Y190000D02*
D03*
D21*
X189000Y150000D02*
D03*
X169000D02*
D03*
X43500D02*
D03*
X23500D02*
D03*
X189000Y269500D02*
D03*
X169000D02*
D03*
X116500Y150000D02*
D03*
X96500D02*
D03*
X43500Y269500D02*
D03*
X23500D02*
D03*
D22*
X209000Y150000D02*
D03*
X63500D02*
D03*
X209000Y269500D02*
D03*
X136500Y150000D02*
D03*
X63500Y269500D02*
D03*
D23*
X89500Y219988D02*
D03*
X99500D02*
D03*
X89500Y189988D02*
D03*
X99500D02*
D03*
X213000Y238500D02*
D03*
X223000D02*
D03*
X213000Y208500D02*
D03*
X223000D02*
D03*
D24*
X189290Y281000D02*
D03*
X209290D02*
D03*
X171500Y178500D02*
D03*
Y198500D02*
D03*
X119500Y179000D02*
D03*
X99500D02*
D03*
X189500Y238500D02*
D03*
Y218500D02*
D03*
X199500Y208500D02*
D03*
X179500D02*
D03*
Y238500D02*
D03*
Y218500D02*
D03*
X55000Y254000D02*
D03*
X35000D02*
D03*
X21000Y235000D02*
D03*
Y255000D02*
D03*
X11000Y194000D02*
D03*
Y214000D02*
D03*
X56000Y174000D02*
D03*
X36000D02*
D03*
X21000Y164000D02*
D03*
Y184000D02*
D03*
X11000D02*
D03*
Y164000D02*
D03*
X63500Y138000D02*
D03*
Y118000D02*
D03*
X43500Y138000D02*
D03*
Y118000D02*
D03*
X96500Y138000D02*
D03*
X116500D02*
D03*
X164000Y118000D02*
D03*
Y138000D02*
D03*
X154000Y118000D02*
D03*
Y138000D02*
D03*
X224000D02*
D03*
Y118000D02*
D03*
X214000D02*
D03*
Y138000D02*
D03*
Y88000D02*
D03*
Y108000D02*
D03*
X179000Y138000D02*
D03*
X199000D02*
D03*
X114000Y251000D02*
D03*
X134000D02*
D03*
X137500Y42000D02*
D03*
Y62000D02*
D03*
X70000Y234000D02*
D03*
Y214000D02*
D03*
D25*
X180172Y281000D02*
D03*
X150171D02*
D03*
X223500Y198500D02*
D03*
Y168500D02*
D03*
X199500Y218500D02*
D03*
Y248500D02*
D03*
X31000Y244000D02*
D03*
X61000D02*
D03*
X11000Y254000D02*
D03*
Y224000D02*
D03*
X21000D02*
D03*
Y194000D02*
D03*
X61000D02*
D03*
X31000D02*
D03*
Y184000D02*
D03*
X61000D02*
D03*
X31000Y164000D02*
D03*
X61000D02*
D03*
X53500Y138000D02*
D03*
Y108000D02*
D03*
X96500Y128000D02*
D03*
X126500D02*
D03*
X174000D02*
D03*
X204000D02*
D03*
X174000Y118000D02*
D03*
X204000D02*
D03*
Y108000D02*
D03*
X174000D02*
D03*
X204000Y98000D02*
D03*
X174000D02*
D03*
Y88000D02*
D03*
X204000D02*
D03*
X77500Y62000D02*
D03*
Y32000D02*
D03*
X87500D02*
D03*
Y62000D02*
D03*
X114000Y220000D02*
D03*
Y190000D02*
D03*
X124000Y220000D02*
D03*
Y190000D02*
D03*
X157500Y236000D02*
D03*
X152500Y204500D02*
D03*
X134000Y190050D02*
D03*
Y220050D02*
D03*
D26*
X175500Y257000D02*
D03*
D27*
X147500D02*
D03*
D28*
X213500Y198500D02*
D03*
X203500D02*
D03*
X183500D02*
D03*
X193500D02*
D03*
X213500Y168500D02*
D03*
X203500D02*
D03*
X193500D02*
D03*
X183500D02*
D03*
X61000Y204000D02*
D03*
Y214000D02*
D03*
Y234000D02*
D03*
Y224000D02*
D03*
X31000Y204000D02*
D03*
Y214000D02*
D03*
Y224000D02*
D03*
Y234000D02*
D03*
X115000Y295500D02*
D03*
X125000D02*
D03*
Y265500D02*
D03*
X115000D02*
D03*
X127500Y32000D02*
D03*
Y42000D02*
D03*
Y62000D02*
D03*
Y52000D02*
D03*
X97500Y32000D02*
D03*
Y42000D02*
D03*
Y52000D02*
D03*
Y62000D02*
D03*
D29*
X101500Y159000D02*
D03*
X117500Y169000D02*
D03*
D30*
X101500D02*
D03*
X117500Y159000D02*
D03*
D31*
X116250Y355900D02*
D03*
Y332278D02*
D03*
D32*
X153000Y18000D02*
D03*
D33*
Y8000D02*
D03*
D34*
X119000Y10500D02*
D03*
X129000D02*
D03*
X87500D02*
D03*
X97500D02*
D03*
D35*
X138911Y341100D02*
D03*
X202809D02*
D03*
X138911Y366100D02*
D03*
X202809D02*
D03*
X138911Y316100D02*
D03*
X202809D02*
D03*
X29692Y341100D02*
D03*
X93590D02*
D03*
X29692Y366100D02*
D03*
X93590D02*
D03*
X29692Y316100D02*
D03*
X93590D02*
D03*
D36*
X84000Y245366D02*
D03*
Y265366D02*
D03*
Y275366D02*
D03*
Y285366D02*
D03*
X104000D02*
D03*
Y275366D02*
D03*
Y265366D02*
D03*
Y245366D02*
D03*
D37*
X147500Y236000D02*
D03*
D38*
X152500Y214500D02*
D03*
D39*
X198500Y103000D02*
D03*
X178600D02*
D03*
X47500Y190050D02*
D03*
X45500Y172753D02*
D03*
X104000Y78000D02*
D03*
X79000Y353200D02*
D03*
X29200Y104200D02*
D03*
X121285Y143500D02*
D03*
X228400Y253600D02*
D03*
X31000Y154000D02*
D03*
X4300Y54400D02*
D03*
X79000Y4600D02*
D03*
X29200Y278500D02*
D03*
X103900Y252500D02*
D03*
X203500Y4600D02*
D03*
X213123Y98500D02*
D03*
X4300Y303400D02*
D03*
X178600Y353200D02*
D03*
X103900Y378100D02*
D03*
X203500Y303400D02*
D03*
X79000Y378100D02*
D03*
X4300Y278500D02*
D03*
Y29500D02*
D03*
Y203800D02*
D03*
X151778Y169500D02*
D03*
X173194Y158500D02*
D03*
X153700Y303400D02*
D03*
X107500Y223041D02*
D03*
X46000Y228700D02*
D03*
X151778Y158500D02*
D03*
X228400Y54400D02*
D03*
X46000Y253600D02*
D03*
X208500Y113000D02*
D03*
X228400Y303400D02*
D03*
X79000Y328300D02*
D03*
X128800Y104200D02*
D03*
X171111Y142000D02*
D03*
X178600Y79300D02*
D03*
X136991Y184500D02*
D03*
X29200Y328300D02*
D03*
X153700Y228700D02*
D03*
X228400Y29500D02*
D03*
X128800Y228700D02*
D03*
X203500Y378100D02*
D03*
X68306Y143000D02*
D03*
X178600Y328300D02*
D03*
X58009Y143000D02*
D03*
X228400Y104200D02*
D03*
Y278500D02*
D03*
X76000Y189276D02*
D03*
X228400Y203800D02*
D03*
X203500Y29500D02*
D03*
X64500Y189276D02*
D03*
X228400Y129100D02*
D03*
X4300Y353200D02*
D03*
X54100Y79300D02*
D03*
X88174Y240500D02*
D03*
X76500Y92000D02*
D03*
X79738Y133000D02*
D03*
X203500Y54400D02*
D03*
X128800Y278500D02*
D03*
X29200Y353200D02*
D03*
X189320Y158500D02*
D03*
X64500Y158694D02*
D03*
X4300Y154000D02*
D03*
X79000Y54400D02*
D03*
X103900Y29500D02*
D03*
X115500Y196268D02*
D03*
X178600Y4600D02*
D03*
X54100Y353200D02*
D03*
X4300Y79300D02*
D03*
X79500Y280500D02*
D03*
X187866Y249000D02*
D03*
X79000Y253600D02*
D03*
X4300Y178900D02*
D03*
X29200Y4600D02*
D03*
X132500Y132500D02*
D03*
X181000Y129100D02*
D03*
X197306D02*
D03*
X128800Y378100D02*
D03*
X97000Y235200D02*
D03*
X128800Y203800D02*
D03*
X178600Y178900D02*
D03*
X79000Y303400D02*
D03*
X29200Y79300D02*
D03*
X87190Y212000D02*
D03*
X153700Y104200D02*
D03*
X228400Y228700D02*
D03*
X25690D02*
D03*
X228400Y79300D02*
D03*
X124000Y173500D02*
D03*
X136991Y169700D02*
D03*
X203500Y353200D02*
D03*
X29200Y378100D02*
D03*
X128800Y4600D02*
D03*
X165500Y195617D02*
D03*
X4300Y104200D02*
D03*
X29200Y129100D02*
D03*
X184362Y286000D02*
D03*
X136991Y158528D02*
D03*
X4300Y228700D02*
D03*
X169806Y113000D02*
D03*
X29200Y303400D02*
D03*
X228400Y154000D02*
D03*
X203500Y79300D02*
D03*
X103900Y104200D02*
D03*
X194500Y277000D02*
D03*
X54100Y303400D02*
D03*
X41000Y202500D02*
D03*
X76000Y173123D02*
D03*
X178600Y29500D02*
D03*
X153700Y129100D02*
D03*
X54100Y54400D02*
D03*
X4300Y129100D02*
D03*
X103900Y303400D02*
D03*
X162306Y169500D02*
D03*
X26000Y189500D02*
D03*
X106255Y178000D02*
D03*
X79738Y104200D02*
D03*
X132500Y69500D02*
D03*
X214500Y216246D02*
D03*
X103900Y4600D02*
D03*
X4300Y328300D02*
D03*
X153700Y29500D02*
D03*
X143000Y278447D02*
D03*
X228400Y328300D02*
D03*
Y4600D02*
D03*
X153700Y378100D02*
D03*
X103900Y129100D02*
D03*
X178600Y54400D02*
D03*
X228400Y353200D02*
D03*
X29200Y29500D02*
D03*
Y54400D02*
D03*
X94500Y261000D02*
D03*
X153700Y328300D02*
D03*
X219000Y113000D02*
D03*
X228400Y178900D02*
D03*
X206590Y138000D02*
D03*
X104826Y153000D02*
D03*
X157000Y252500D02*
D03*
X168741Y246000D02*
D03*
X95146Y163500D02*
D03*
X208000Y158500D02*
D03*
X53604Y117500D02*
D03*
X77000Y235200D02*
D03*
X178600Y378100D02*
D03*
X203500Y328300D02*
D03*
X153700Y353200D02*
D03*
X4300Y4600D02*
D03*
X199290Y265500D02*
D03*
X54100Y278500D02*
D03*
X75500Y222590D02*
D03*
X13396Y264000D02*
D03*
X93910Y184000D02*
D03*
X103900Y328300D02*
D03*
X54100Y378100D02*
D03*
X94500Y270000D02*
D03*
X79738Y151500D02*
D03*
X25690Y219226D02*
D03*
X168566Y278447D02*
D03*
X68500Y133000D02*
D03*
X103900Y54400D02*
D03*
X110500Y83084D02*
D03*
X103900Y353200D02*
D03*
X68500Y104200D02*
D03*
X54100Y328300D02*
D03*
X93910Y198500D02*
D03*
X48500Y143000D02*
D03*
X203500Y178900D02*
D03*
X207500Y230940D02*
D03*
X55877Y209000D02*
D03*
X64500Y173123D02*
D03*
X194500Y222925D02*
D03*
X178600Y303400D02*
D03*
X54100Y4600D02*
D03*
X176000Y233034D02*
D03*
X174259Y222925D02*
D03*
X172500Y206000D02*
D03*
X192500D02*
D03*
X28000Y253600D02*
D03*
M02*
