G04*
G04 #@! TF.GenerationSoftware,Altium Limited,Altium Designer,19.0.12 (326)*
G04*
G04 Layer_Physical_Order=2*
G04 Layer_Color=16711680*
%FSLAX25Y25*%
%MOIN*%
G70*
G01*
G75*
%ADD12C,0.01000*%
%ADD40C,0.03200*%
%ADD41C,0.04724*%
%ADD42R,0.04724X0.04724*%
%ADD43R,0.04724X0.04724*%
%ADD44C,0.07087*%
%ADD45R,0.07087X0.07087*%
%ADD46C,0.06299*%
%ADD47C,0.05118*%
%ADD48C,0.04331*%
%ADD49C,0.05512*%
%ADD50R,0.05512X0.05512*%
%ADD51C,0.05000*%
%ADD52C,0.05906*%
%ADD53R,0.05906X0.05906*%
%ADD54C,0.14765*%
%ADD55C,0.06600*%
%ADD56R,0.06600X0.06600*%
%ADD57C,0.06000*%
%ADD58C,0.08268*%
%ADD59C,0.04725*%
%ADD60R,0.04331X0.04331*%
%ADD61R,0.04331X0.04331*%
%ADD62C,0.03000*%
G36*
X207936Y367923D02*
X207436Y367823D01*
X207119Y368588D01*
X206328Y369619D01*
X205297Y370410D01*
X204097Y370907D01*
X202809Y371077D01*
X201521Y370907D01*
X200321Y370410D01*
X199290Y369619D01*
X198499Y368588D01*
X198002Y367388D01*
X197832Y366100D01*
X198002Y364812D01*
X198499Y363612D01*
X199290Y362581D01*
X200321Y361790D01*
X201521Y361293D01*
X202809Y361123D01*
X204097Y361293D01*
X205297Y361790D01*
X206328Y362581D01*
X207119Y363612D01*
X207436Y364377D01*
X207936Y364277D01*
Y359000D01*
X208052Y358415D01*
X208384Y357919D01*
X208880Y357587D01*
X209465Y357471D01*
X230971D01*
Y1529D01*
X1529D01*
Y357471D01*
X23030D01*
X23615Y357587D01*
X24111Y357919D01*
X24443Y358415D01*
X24559Y359000D01*
Y364987D01*
X25059Y365020D01*
X25080Y364864D01*
X25557Y363713D01*
X26316Y362724D01*
X27305Y361965D01*
X28456Y361488D01*
X29292Y361378D01*
Y366100D01*
Y370822D01*
X28456Y370712D01*
X27305Y370235D01*
X26316Y369476D01*
X25557Y368487D01*
X25080Y367336D01*
X25059Y367180D01*
X24559Y367213D01*
Y384971D01*
X207936D01*
Y367923D01*
D02*
G37*
%LPC*%
G36*
X139311Y370822D02*
Y366500D01*
X143633D01*
X143523Y367336D01*
X143046Y368487D01*
X142287Y369476D01*
X141298Y370235D01*
X140147Y370712D01*
X139311Y370822D01*
D02*
G37*
G36*
X30092D02*
Y366500D01*
X34414D01*
X34304Y367336D01*
X33827Y368487D01*
X33068Y369476D01*
X32079Y370235D01*
X30928Y370712D01*
X30092Y370822D01*
D02*
G37*
G36*
X138511D02*
X137675Y370712D01*
X136524Y370235D01*
X135535Y369476D01*
X134776Y368487D01*
X134299Y367336D01*
X134189Y366500D01*
X138511D01*
Y370822D01*
D02*
G37*
G36*
X143633Y365700D02*
X139311D01*
Y361378D01*
X140147Y361488D01*
X141298Y361965D01*
X142287Y362724D01*
X143046Y363713D01*
X143523Y364864D01*
X143633Y365700D01*
D02*
G37*
G36*
X34414D02*
X30092D01*
Y361378D01*
X30928Y361488D01*
X32079Y361965D01*
X33068Y362724D01*
X33827Y363713D01*
X34304Y364864D01*
X34414Y365700D01*
D02*
G37*
G36*
X138511D02*
X134189D01*
X134299Y364864D01*
X134776Y363713D01*
X135535Y362724D01*
X136524Y361965D01*
X137675Y361488D01*
X138511Y361378D01*
Y365700D01*
D02*
G37*
G36*
X93590Y371077D02*
X92302Y370907D01*
X91102Y370410D01*
X90071Y369619D01*
X89280Y368588D01*
X88783Y367388D01*
X88613Y366100D01*
X88783Y364812D01*
X89280Y363612D01*
X90071Y362581D01*
X91102Y361790D01*
X92302Y361293D01*
X93590Y361123D01*
X94878Y361293D01*
X96078Y361790D01*
X97109Y362581D01*
X97900Y363612D01*
X98397Y364812D01*
X98567Y366100D01*
X98397Y367388D01*
X97900Y368588D01*
X97109Y369619D01*
X96078Y370410D01*
X94878Y370907D01*
X93590Y371077D01*
D02*
G37*
G36*
X116250Y364122D02*
X114646Y363964D01*
X113104Y363496D01*
X111682Y362736D01*
X110436Y361714D01*
X109414Y360468D01*
X108654Y359046D01*
X108186Y357504D01*
X108028Y355900D01*
X108186Y354296D01*
X108654Y352754D01*
X109414Y351332D01*
X110436Y350086D01*
X111682Y349064D01*
X113104Y348304D01*
X114646Y347836D01*
X116250Y347678D01*
X117854Y347836D01*
X119396Y348304D01*
X120818Y349064D01*
X122064Y350086D01*
X123086Y351332D01*
X123846Y352754D01*
X124314Y354296D01*
X124472Y355900D01*
X124314Y357504D01*
X123846Y359046D01*
X123086Y360468D01*
X122064Y361714D01*
X120818Y362736D01*
X119396Y363496D01*
X117854Y363964D01*
X116250Y364122D01*
D02*
G37*
G36*
X202809Y346077D02*
X201521Y345907D01*
X200321Y345410D01*
X199290Y344619D01*
X198499Y343588D01*
X198002Y342388D01*
X197832Y341100D01*
X198002Y339812D01*
X198499Y338612D01*
X199290Y337581D01*
X200321Y336790D01*
X201521Y336293D01*
X202809Y336123D01*
X204097Y336293D01*
X205297Y336790D01*
X206328Y337581D01*
X207119Y338612D01*
X207616Y339812D01*
X207786Y341100D01*
X207616Y342388D01*
X207119Y343588D01*
X206328Y344619D01*
X205297Y345410D01*
X204097Y345907D01*
X202809Y346077D01*
D02*
G37*
G36*
X138911D02*
X137623Y345907D01*
X136423Y345410D01*
X135392Y344619D01*
X134601Y343588D01*
X134104Y342388D01*
X133934Y341100D01*
X134104Y339812D01*
X134601Y338612D01*
X135392Y337581D01*
X136423Y336790D01*
X137623Y336293D01*
X138911Y336123D01*
X140199Y336293D01*
X141399Y336790D01*
X142430Y337581D01*
X143221Y338612D01*
X143718Y339812D01*
X143888Y341100D01*
X143718Y342388D01*
X143221Y343588D01*
X142430Y344619D01*
X141399Y345410D01*
X140199Y345907D01*
X138911Y346077D01*
D02*
G37*
G36*
X93590D02*
X92302Y345907D01*
X91102Y345410D01*
X90071Y344619D01*
X89280Y343588D01*
X88783Y342388D01*
X88613Y341100D01*
X88783Y339812D01*
X89280Y338612D01*
X90071Y337581D01*
X91102Y336790D01*
X92302Y336293D01*
X93590Y336123D01*
X94878Y336293D01*
X96078Y336790D01*
X97109Y337581D01*
X97900Y338612D01*
X98397Y339812D01*
X98567Y341100D01*
X98397Y342388D01*
X97900Y343588D01*
X97109Y344619D01*
X96078Y345410D01*
X94878Y345907D01*
X93590Y346077D01*
D02*
G37*
G36*
X29692D02*
X28404Y345907D01*
X27204Y345410D01*
X26173Y344619D01*
X25382Y343588D01*
X24885Y342388D01*
X24715Y341100D01*
X24885Y339812D01*
X25382Y338612D01*
X26173Y337581D01*
X27204Y336790D01*
X28404Y336293D01*
X29692Y336123D01*
X30980Y336293D01*
X32180Y336790D01*
X33211Y337581D01*
X34002Y338612D01*
X34499Y339812D01*
X34669Y341100D01*
X34499Y342388D01*
X34002Y343588D01*
X33211Y344619D01*
X32180Y345410D01*
X30980Y345907D01*
X29692Y346077D01*
D02*
G37*
G36*
X116650Y340260D02*
Y332678D01*
X124232D01*
X124117Y333843D01*
X123660Y335347D01*
X122919Y336734D01*
X121922Y337950D01*
X120706Y338947D01*
X119319Y339688D01*
X117815Y340145D01*
X116650Y340260D01*
D02*
G37*
G36*
X115850D02*
X114685Y340145D01*
X113180Y339688D01*
X111794Y338947D01*
X110578Y337950D01*
X109581Y336734D01*
X108840Y335347D01*
X108383Y333843D01*
X108268Y332678D01*
X115850D01*
Y340260D01*
D02*
G37*
G36*
X124232Y331878D02*
X116650D01*
Y324296D01*
X117815Y324411D01*
X119319Y324868D01*
X120706Y325609D01*
X121922Y326606D01*
X122919Y327822D01*
X123660Y329209D01*
X124117Y330713D01*
X124232Y331878D01*
D02*
G37*
G36*
X115850D02*
X108268D01*
X108383Y330713D01*
X108840Y329209D01*
X109581Y327822D01*
X110578Y326606D01*
X111794Y325609D01*
X113180Y324868D01*
X114685Y324411D01*
X115850Y324296D01*
Y331878D01*
D02*
G37*
G36*
X202809Y321077D02*
X201521Y320907D01*
X200321Y320410D01*
X199290Y319619D01*
X198499Y318588D01*
X198002Y317388D01*
X197832Y316100D01*
X198002Y314812D01*
X198499Y313612D01*
X199290Y312581D01*
X200321Y311790D01*
X201521Y311293D01*
X202809Y311123D01*
X204097Y311293D01*
X205297Y311790D01*
X206328Y312581D01*
X207119Y313612D01*
X207616Y314812D01*
X207786Y316100D01*
X207616Y317388D01*
X207119Y318588D01*
X206328Y319619D01*
X205297Y320410D01*
X204097Y320907D01*
X202809Y321077D01*
D02*
G37*
G36*
X138911D02*
X137623Y320907D01*
X136423Y320410D01*
X135392Y319619D01*
X134601Y318588D01*
X134119Y317425D01*
X127260D01*
X126753Y317325D01*
X126323Y317037D01*
X114063Y304777D01*
X113775Y304347D01*
X113674Y303840D01*
Y298523D01*
X113336Y298382D01*
X112646Y297854D01*
X112118Y297164D01*
X111785Y296361D01*
X111671Y295500D01*
X111785Y294638D01*
X112118Y293836D01*
X112646Y293146D01*
X113336Y292618D01*
X114138Y292285D01*
X115000Y292172D01*
X115861Y292285D01*
X116664Y292618D01*
X117354Y293146D01*
X117883Y293836D01*
X118215Y294638D01*
X118328Y295500D01*
X118215Y296361D01*
X117883Y297164D01*
X117354Y297854D01*
X116664Y298382D01*
X116325Y298523D01*
Y303291D01*
X127809Y314774D01*
X134119D01*
X134601Y313612D01*
X135392Y312581D01*
X136423Y311790D01*
X137623Y311293D01*
X138911Y311123D01*
X140199Y311293D01*
X141399Y311790D01*
X142430Y312581D01*
X143221Y313612D01*
X143718Y314812D01*
X143888Y316100D01*
X143718Y317388D01*
X143221Y318588D01*
X142430Y319619D01*
X141399Y320410D01*
X140199Y320907D01*
X138911Y321077D01*
D02*
G37*
G36*
X93590D02*
X92302Y320907D01*
X91102Y320410D01*
X90071Y319619D01*
X89280Y318588D01*
X88783Y317388D01*
X88613Y316100D01*
X88783Y314812D01*
X89280Y313612D01*
X90071Y312581D01*
X91102Y311790D01*
X92302Y311293D01*
X93590Y311123D01*
X94878Y311293D01*
X96078Y311790D01*
X97109Y312581D01*
X97900Y313612D01*
X98397Y314812D01*
X98567Y316100D01*
X98397Y317388D01*
X97900Y318588D01*
X97109Y319619D01*
X96078Y320410D01*
X94878Y320907D01*
X93590Y321077D01*
D02*
G37*
G36*
X29692D02*
X28404Y320907D01*
X27204Y320410D01*
X26173Y319619D01*
X25382Y318588D01*
X24885Y317388D01*
X24715Y316100D01*
X24885Y314812D01*
X25382Y313612D01*
X26173Y312581D01*
X27204Y311790D01*
X28404Y311293D01*
X29692Y311123D01*
X30980Y311293D01*
X32180Y311790D01*
X33211Y312581D01*
X34002Y313612D01*
X34499Y314812D01*
X34669Y316100D01*
X34499Y317388D01*
X34002Y318588D01*
X33211Y319619D01*
X32180Y320410D01*
X30980Y320907D01*
X29692Y321077D01*
D02*
G37*
G36*
X125400Y298574D02*
Y295900D01*
X128074D01*
X128020Y296309D01*
X127708Y297063D01*
X127211Y297711D01*
X126563Y298208D01*
X125809Y298520D01*
X125400Y298574D01*
D02*
G37*
G36*
X124600D02*
X124191Y298520D01*
X123437Y298208D01*
X122789Y297711D01*
X122292Y297063D01*
X121980Y296309D01*
X121926Y295900D01*
X124600D01*
Y298574D01*
D02*
G37*
G36*
X128074Y295100D02*
X125400D01*
Y292426D01*
X125809Y292480D01*
X126563Y292792D01*
X127211Y293289D01*
X127708Y293937D01*
X128020Y294691D01*
X128074Y295100D01*
D02*
G37*
G36*
X124600D02*
X121926D01*
X121980Y294691D01*
X122292Y293937D01*
X122789Y293289D01*
X123437Y292792D01*
X124191Y292480D01*
X124600Y292426D01*
Y295100D01*
D02*
G37*
G36*
X171671Y290826D02*
X146500D01*
X145993Y290725D01*
X145563Y290437D01*
X141817Y286692D01*
X106874D01*
X106762Y286961D01*
X106255Y287622D01*
X105595Y288129D01*
X104826Y288447D01*
X104000Y288556D01*
X103174Y288447D01*
X102405Y288129D01*
X101744Y287622D01*
X101238Y286961D01*
X100919Y286192D01*
X100810Y285366D01*
X100919Y284541D01*
X101238Y283771D01*
X101744Y283111D01*
X102405Y282604D01*
X103174Y282285D01*
X104000Y282176D01*
X104826Y282285D01*
X105595Y282604D01*
X106255Y283111D01*
X106762Y283771D01*
X106874Y284041D01*
X142366D01*
X142873Y284142D01*
X143303Y284429D01*
X147049Y288175D01*
X171123D01*
X177353Y281944D01*
X177282Y281774D01*
X177180Y281000D01*
X177282Y280226D01*
X177581Y279504D01*
X178057Y278885D01*
X178676Y278410D01*
X179397Y278111D01*
X180172Y278009D01*
X180946Y278111D01*
X181667Y278410D01*
X182287Y278885D01*
X182762Y279504D01*
X182832Y279675D01*
X186203D01*
X186356Y279306D01*
X186894Y278604D01*
X187596Y278066D01*
X188413Y277728D01*
X189290Y277612D01*
X190167Y277728D01*
X190984Y278066D01*
X191686Y278604D01*
X192224Y279306D01*
X192563Y280123D01*
X192678Y281000D01*
X192563Y281877D01*
X192224Y282694D01*
X191686Y283396D01*
X190984Y283934D01*
X190167Y284273D01*
X189290Y284388D01*
X188413Y284273D01*
X187596Y283934D01*
X186894Y283396D01*
X186356Y282694D01*
X186203Y282326D01*
X182832D01*
X182762Y282495D01*
X182287Y283115D01*
X181667Y283590D01*
X180946Y283889D01*
X180172Y283991D01*
X179397Y283889D01*
X179227Y283819D01*
X172609Y290437D01*
X172179Y290725D01*
X171671Y290826D01*
D02*
G37*
G36*
X84000Y288556D02*
X83174Y288447D01*
X82405Y288129D01*
X81744Y287622D01*
X81238Y286961D01*
X81126Y286692D01*
X25248D01*
X24741Y286591D01*
X24311Y286303D01*
X4063Y266055D01*
X3775Y265625D01*
X3675Y265118D01*
Y248500D01*
X3775Y247993D01*
X4063Y247563D01*
X9674Y241951D01*
Y226661D01*
X9505Y226590D01*
X8885Y226115D01*
X8410Y225496D01*
X8111Y224774D01*
X8009Y224000D01*
X8111Y223226D01*
X8410Y222504D01*
X8885Y221885D01*
X9505Y221410D01*
X9674Y221339D01*
Y217087D01*
X9306Y216934D01*
X8604Y216396D01*
X8066Y215694D01*
X7728Y214877D01*
X7612Y214000D01*
X7728Y213123D01*
X8066Y212306D01*
X8604Y211604D01*
X9306Y211066D01*
X10123Y210728D01*
X11000Y210612D01*
X11877Y210728D01*
X12694Y211066D01*
X13396Y211604D01*
X13934Y212306D01*
X14273Y213123D01*
X14388Y214000D01*
X14273Y214877D01*
X13934Y215694D01*
X13396Y216396D01*
X12694Y216934D01*
X12325Y217087D01*
Y221339D01*
X12495Y221410D01*
X13115Y221885D01*
X13590Y222504D01*
X13889Y223226D01*
X13991Y224000D01*
X13889Y224774D01*
X13590Y225496D01*
X13115Y226115D01*
X12495Y226590D01*
X12325Y226661D01*
Y242500D01*
X12225Y243007D01*
X11937Y243437D01*
X6325Y249049D01*
Y264569D01*
X25797Y284041D01*
X81126D01*
X81238Y283771D01*
X81744Y283111D01*
X82405Y282604D01*
X83174Y282285D01*
X84000Y282176D01*
X84826Y282285D01*
X85595Y282604D01*
X86256Y283111D01*
X86762Y283771D01*
X87081Y284541D01*
X87190Y285366D01*
X87081Y286192D01*
X86762Y286961D01*
X86256Y287622D01*
X85595Y288129D01*
X84826Y288447D01*
X84000Y288556D01*
D02*
G37*
G36*
X150572Y283737D02*
Y281400D01*
X152908D01*
X152866Y281722D01*
X152587Y282395D01*
X152144Y282972D01*
X151566Y283416D01*
X150893Y283694D01*
X150572Y283737D01*
D02*
G37*
G36*
X149771D02*
X149450Y283694D01*
X148777Y283416D01*
X148199Y282972D01*
X147756Y282395D01*
X147477Y281722D01*
X147435Y281400D01*
X149771D01*
Y283737D01*
D02*
G37*
G36*
X152908Y280600D02*
X150572D01*
Y278263D01*
X150893Y278306D01*
X151566Y278584D01*
X152144Y279028D01*
X152587Y279605D01*
X152866Y280278D01*
X152908Y280600D01*
D02*
G37*
G36*
X149771D02*
X147435D01*
X147477Y280278D01*
X147756Y279605D01*
X148199Y279028D01*
X148777Y278584D01*
X149450Y278306D01*
X149771Y278263D01*
Y280600D01*
D02*
G37*
G36*
X209290Y284388D02*
X208413Y284273D01*
X207596Y283934D01*
X206894Y283396D01*
X206356Y282694D01*
X206203Y282326D01*
X205000D01*
X204493Y282225D01*
X204063Y281937D01*
X193412Y271286D01*
X192921Y271384D01*
X192794Y271691D01*
X192098Y272598D01*
X191191Y273294D01*
X190134Y273732D01*
X189000Y273881D01*
X187866Y273732D01*
X186810Y273294D01*
X185902Y272598D01*
X185206Y271691D01*
X184768Y270634D01*
X184619Y269500D01*
X184768Y268366D01*
X185206Y267309D01*
X185902Y266402D01*
X186810Y265706D01*
X187866Y265268D01*
X189000Y265119D01*
X190134Y265268D01*
X191191Y265706D01*
X192098Y266402D01*
X192794Y267309D01*
X193152Y268175D01*
X193500D01*
X194007Y268275D01*
X194437Y268563D01*
X205549Y279675D01*
X206203D01*
X206356Y279306D01*
X206894Y278604D01*
X207596Y278066D01*
X208413Y277728D01*
X209290Y277612D01*
X210167Y277728D01*
X210984Y278066D01*
X211686Y278604D01*
X212224Y279306D01*
X212563Y280123D01*
X212678Y281000D01*
X212563Y281877D01*
X212224Y282694D01*
X211686Y283396D01*
X210984Y283934D01*
X210167Y284273D01*
X209290Y284388D01*
D02*
G37*
G36*
X104000Y278556D02*
X103174Y278447D01*
X102405Y278129D01*
X101744Y277622D01*
X101238Y276961D01*
X100919Y276192D01*
X100810Y275366D01*
X100919Y274540D01*
X101238Y273771D01*
X101744Y273111D01*
X102405Y272604D01*
X103174Y272285D01*
X104000Y272176D01*
X104826Y272285D01*
X105595Y272604D01*
X106255Y273111D01*
X106762Y273771D01*
X107081Y274540D01*
X107190Y275366D01*
X107081Y276192D01*
X106762Y276961D01*
X106255Y277622D01*
X105595Y278129D01*
X104826Y278447D01*
X104000Y278556D01*
D02*
G37*
G36*
X84000D02*
X83174Y278447D01*
X82405Y278129D01*
X81744Y277622D01*
X81238Y276961D01*
X80919Y276192D01*
X80810Y275366D01*
X80919Y274540D01*
X81238Y273771D01*
X81744Y273111D01*
X82405Y272604D01*
X83174Y272285D01*
X84000Y272176D01*
X84826Y272285D01*
X85595Y272604D01*
X86256Y273111D01*
X86762Y273771D01*
X87081Y274540D01*
X87190Y275366D01*
X87081Y276192D01*
X86762Y276961D01*
X86256Y277622D01*
X85595Y278129D01*
X84826Y278447D01*
X84000Y278556D01*
D02*
G37*
G36*
X104000Y268556D02*
X103174Y268447D01*
X102405Y268129D01*
X101744Y267622D01*
X101238Y266961D01*
X101126Y266692D01*
X86874D01*
X86762Y266961D01*
X86256Y267622D01*
X85595Y268129D01*
X84826Y268447D01*
X84000Y268556D01*
X83174Y268447D01*
X82405Y268129D01*
X81744Y267622D01*
X81238Y266961D01*
X80919Y266192D01*
X80810Y265366D01*
X80919Y264541D01*
X81238Y263771D01*
X81744Y263111D01*
X82405Y262604D01*
X83174Y262285D01*
X84000Y262176D01*
X84826Y262285D01*
X85595Y262604D01*
X86256Y263111D01*
X86762Y263771D01*
X86874Y264041D01*
X101126D01*
X101238Y263771D01*
X101744Y263111D01*
X102405Y262604D01*
X103174Y262285D01*
X104000Y262176D01*
X104826Y262285D01*
X105595Y262604D01*
X106255Y263111D01*
X106762Y263771D01*
X107081Y264541D01*
X107190Y265366D01*
X107081Y266192D01*
X106762Y266961D01*
X106255Y267622D01*
X105595Y268129D01*
X104826Y268447D01*
X104000Y268556D01*
D02*
G37*
G36*
X125400Y268574D02*
Y265900D01*
X128074D01*
X128020Y266309D01*
X127708Y267063D01*
X127211Y267711D01*
X126563Y268208D01*
X125809Y268520D01*
X125400Y268574D01*
D02*
G37*
G36*
X124600D02*
X124191Y268520D01*
X123437Y268208D01*
X122789Y267711D01*
X122292Y267063D01*
X121980Y266309D01*
X121926Y265900D01*
X124600D01*
Y268574D01*
D02*
G37*
G36*
X213344Y273844D02*
X204657D01*
Y265157D01*
X213344D01*
Y273844D01*
D02*
G37*
G36*
X169000Y273881D02*
X167866Y273732D01*
X166809Y273294D01*
X165902Y272598D01*
X165206Y271691D01*
X164768Y270634D01*
X164619Y269500D01*
X164768Y268366D01*
X165127Y267501D01*
X163831Y266206D01*
X163544Y265775D01*
X163443Y265268D01*
Y240232D01*
X163544Y239724D01*
X163831Y239295D01*
X178174Y224951D01*
Y221587D01*
X177806Y221434D01*
X177104Y220896D01*
X176566Y220194D01*
X176227Y219377D01*
X176112Y218500D01*
X176227Y217623D01*
X176566Y216806D01*
X177104Y216104D01*
X177806Y215566D01*
X178174Y215413D01*
Y211587D01*
X177806Y211434D01*
X177104Y210896D01*
X176566Y210194D01*
X176227Y209377D01*
X176112Y208500D01*
X176227Y207623D01*
X176566Y206806D01*
X177104Y206104D01*
X177806Y205566D01*
X178623Y205227D01*
X179500Y205112D01*
X180377Y205227D01*
X181194Y205566D01*
X181896Y206104D01*
X182434Y206806D01*
X182519Y207011D01*
X183049Y207077D01*
X190425Y199700D01*
X190285Y199362D01*
X190172Y198500D01*
X190285Y197638D01*
X190618Y196836D01*
X191146Y196146D01*
X191836Y195617D01*
X192639Y195285D01*
X193500Y195171D01*
X194361Y195285D01*
X195164Y195617D01*
X195854Y196146D01*
X196382Y196836D01*
X196715Y197638D01*
X196828Y198500D01*
X196715Y199362D01*
X196382Y200164D01*
X195854Y200854D01*
X195164Y201382D01*
X194361Y201715D01*
X193500Y201829D01*
X192639Y201715D01*
X192300Y201575D01*
X184437Y209437D01*
X184007Y209725D01*
X183500Y209825D01*
X182587D01*
X182434Y210194D01*
X181896Y210896D01*
X181194Y211434D01*
X180825Y211587D01*
Y215413D01*
X181194Y215566D01*
X181896Y216104D01*
X182434Y216806D01*
X182587Y217175D01*
X186413D01*
X186566Y216806D01*
X187104Y216104D01*
X187806Y215566D01*
X188623Y215228D01*
X189500Y215112D01*
X190377Y215228D01*
X191194Y215566D01*
X191896Y216104D01*
X192434Y216806D01*
X192587Y217175D01*
X196839D01*
X196910Y217004D01*
X197385Y216385D01*
X198004Y215910D01*
X198726Y215611D01*
X199500Y215509D01*
X200274Y215611D01*
X200995Y215910D01*
X201615Y216385D01*
X202090Y217004D01*
X202389Y217726D01*
X202491Y218500D01*
X202389Y219274D01*
X202090Y219995D01*
X201615Y220615D01*
X200995Y221090D01*
X200274Y221389D01*
X199500Y221491D01*
X198726Y221389D01*
X198004Y221090D01*
X197385Y220615D01*
X196910Y219995D01*
X196839Y219826D01*
X192587D01*
X192434Y220194D01*
X191896Y220896D01*
X191194Y221434D01*
X190377Y221773D01*
X189500Y221888D01*
X188623Y221773D01*
X187806Y221434D01*
X187104Y220896D01*
X186566Y220194D01*
X186413Y219826D01*
X182587D01*
X182434Y220194D01*
X181896Y220896D01*
X181194Y221434D01*
X180825Y221587D01*
Y225500D01*
X180725Y226007D01*
X180437Y226437D01*
X166094Y240781D01*
Y264719D01*
X167001Y265627D01*
X167866Y265268D01*
X169000Y265119D01*
X170134Y265268D01*
X171191Y265706D01*
X172098Y266402D01*
X172794Y267309D01*
X173232Y268366D01*
X173381Y269500D01*
X173232Y270634D01*
X172794Y271691D01*
X172098Y272598D01*
X171191Y273294D01*
X170134Y273732D01*
X169000Y273881D01*
D02*
G37*
G36*
X43500D02*
X42366Y273732D01*
X41309Y273294D01*
X40402Y272598D01*
X39706Y271691D01*
X39268Y270634D01*
X39119Y269500D01*
X39268Y268366D01*
X39627Y267501D01*
X34063Y261937D01*
X33775Y261507D01*
X33674Y261000D01*
Y257087D01*
X33306Y256934D01*
X32604Y256396D01*
X32066Y255694D01*
X31727Y254877D01*
X31612Y254000D01*
X31727Y253123D01*
X32066Y252306D01*
X32604Y251604D01*
X33306Y251066D01*
X34123Y250728D01*
X35000Y250612D01*
X35877Y250728D01*
X36245Y250880D01*
X38175Y248951D01*
Y243049D01*
X32200Y237075D01*
X31861Y237215D01*
X31000Y237329D01*
X30138Y237215D01*
X29336Y236882D01*
X28646Y236354D01*
X28117Y235664D01*
X27785Y234861D01*
X27672Y234000D01*
X27785Y233138D01*
X28117Y232336D01*
X28646Y231646D01*
X29336Y231118D01*
X30138Y230785D01*
X31000Y230672D01*
X31861Y230785D01*
X32664Y231118D01*
X33354Y231646D01*
X33882Y232336D01*
X34215Y233138D01*
X34328Y234000D01*
X34215Y234861D01*
X34075Y235200D01*
X40437Y241563D01*
X40725Y241993D01*
X40826Y242500D01*
Y249500D01*
X40725Y250007D01*
X40437Y250437D01*
X38120Y252755D01*
X38273Y253123D01*
X38388Y254000D01*
X38273Y254877D01*
X37934Y255694D01*
X37396Y256396D01*
X36694Y256934D01*
X36325Y257087D01*
Y260451D01*
X41501Y265627D01*
X42366Y265268D01*
X43500Y265119D01*
X44634Y265268D01*
X45691Y265706D01*
X46598Y266402D01*
X47294Y267309D01*
X47732Y268366D01*
X47881Y269500D01*
X47732Y270634D01*
X47294Y271691D01*
X46598Y272598D01*
X45691Y273294D01*
X44634Y273732D01*
X43500Y273881D01*
D02*
G37*
G36*
X23500D02*
X22366Y273732D01*
X21309Y273294D01*
X20402Y272598D01*
X19706Y271691D01*
X19268Y270634D01*
X19119Y269500D01*
X19268Y268366D01*
X19706Y267309D01*
X19954Y266987D01*
X19775Y266720D01*
X19674Y266213D01*
Y258087D01*
X19306Y257934D01*
X18604Y257396D01*
X18066Y256694D01*
X17728Y255877D01*
X17612Y255000D01*
X17728Y254123D01*
X18066Y253306D01*
X18604Y252604D01*
X19306Y252066D01*
X20123Y251728D01*
X21000Y251612D01*
X21877Y251728D01*
X22694Y252066D01*
X23396Y252604D01*
X23934Y253306D01*
X24272Y254123D01*
X24388Y255000D01*
X24272Y255877D01*
X23934Y256694D01*
X23396Y257396D01*
X22694Y257934D01*
X22325Y258087D01*
Y264769D01*
X22826Y265208D01*
X23500Y265119D01*
X24634Y265268D01*
X25690Y265706D01*
X26598Y266402D01*
X27294Y267309D01*
X27732Y268366D01*
X27881Y269500D01*
X27732Y270634D01*
X27294Y271691D01*
X26598Y272598D01*
X25690Y273294D01*
X24634Y273732D01*
X23500Y273881D01*
D02*
G37*
G36*
X128074Y265100D02*
X125400D01*
Y262426D01*
X125809Y262480D01*
X126563Y262792D01*
X127211Y263289D01*
X127708Y263937D01*
X128020Y264691D01*
X128074Y265100D01*
D02*
G37*
G36*
X124600D02*
X121926D01*
X121980Y264691D01*
X122292Y263937D01*
X122789Y263289D01*
X123437Y262792D01*
X124191Y262480D01*
X124600Y262426D01*
Y265100D01*
D02*
G37*
G36*
X115000Y268829D02*
X114138Y268715D01*
X113336Y268383D01*
X112646Y267854D01*
X112118Y267164D01*
X111785Y266361D01*
X111671Y265500D01*
X111785Y264638D01*
X112118Y263836D01*
X112646Y263146D01*
X113336Y262617D01*
X114138Y262285D01*
X115000Y262172D01*
X115861Y262285D01*
X116664Y262617D01*
X117354Y263146D01*
X117883Y263836D01*
X118215Y264638D01*
X118328Y265500D01*
X118215Y266361D01*
X117883Y267164D01*
X117354Y267854D01*
X116664Y268383D01*
X115861Y268715D01*
X115000Y268829D01*
D02*
G37*
G36*
X175900Y260332D02*
Y257400D01*
X178832D01*
X178770Y257876D01*
X178431Y258693D01*
X177893Y259394D01*
X177192Y259931D01*
X176376Y260270D01*
X175900Y260332D01*
D02*
G37*
G36*
X175100D02*
X174624Y260270D01*
X173808Y259931D01*
X173107Y259394D01*
X172569Y258693D01*
X172230Y257876D01*
X172168Y257400D01*
X175100D01*
Y260332D01*
D02*
G37*
G36*
X11400Y256737D02*
Y254400D01*
X13737D01*
X13694Y254722D01*
X13416Y255395D01*
X12972Y255972D01*
X12395Y256416D01*
X11722Y256694D01*
X11400Y256737D01*
D02*
G37*
G36*
X10600D02*
X10278Y256694D01*
X9605Y256416D01*
X9028Y255972D01*
X8584Y255395D01*
X8306Y254722D01*
X8263Y254400D01*
X10600D01*
Y256737D01*
D02*
G37*
G36*
X178832Y256600D02*
X175900D01*
Y253668D01*
X176376Y253730D01*
X177192Y254068D01*
X177893Y254607D01*
X178431Y255308D01*
X178770Y256124D01*
X178832Y256600D01*
D02*
G37*
G36*
X175100D02*
X172168D01*
X172230Y256124D01*
X172569Y255308D01*
X173107Y254607D01*
X173808Y254068D01*
X174624Y253730D01*
X175100Y253668D01*
Y256600D01*
D02*
G37*
G36*
X151056Y260556D02*
X143944D01*
Y253444D01*
X151056D01*
Y260556D01*
D02*
G37*
G36*
X134400Y254134D02*
Y251400D01*
X137134D01*
X137078Y251825D01*
X136759Y252593D01*
X136253Y253253D01*
X135593Y253759D01*
X134825Y254078D01*
X134400Y254134D01*
D02*
G37*
G36*
X133600D02*
X133175Y254078D01*
X132407Y253759D01*
X131747Y253253D01*
X131241Y252593D01*
X130922Y251825D01*
X130866Y251400D01*
X133600D01*
Y254134D01*
D02*
G37*
G36*
X13737Y253600D02*
X11400D01*
Y251263D01*
X11722Y251306D01*
X12395Y251584D01*
X12972Y252028D01*
X13416Y252605D01*
X13694Y253278D01*
X13737Y253600D01*
D02*
G37*
G36*
X10600D02*
X8263D01*
X8306Y253278D01*
X8584Y252605D01*
X9028Y252028D01*
X9605Y251584D01*
X10278Y251306D01*
X10600Y251263D01*
Y253600D01*
D02*
G37*
G36*
X137134Y250600D02*
X134400D01*
Y247866D01*
X134825Y247922D01*
X135593Y248241D01*
X136253Y248747D01*
X136759Y249407D01*
X137078Y250175D01*
X137134Y250600D01*
D02*
G37*
G36*
X133600D02*
X130866D01*
X130922Y250175D01*
X131241Y249407D01*
X131747Y248747D01*
X132407Y248241D01*
X133175Y247922D01*
X133600Y247866D01*
Y250600D01*
D02*
G37*
G36*
X31000Y246991D02*
X30226Y246889D01*
X29504Y246590D01*
X28885Y246115D01*
X28410Y245496D01*
X28339Y245325D01*
X27000D01*
X27000Y245325D01*
X26493Y245225D01*
X26063Y244937D01*
X20170Y239045D01*
X19883Y238615D01*
X19787Y238133D01*
X19306Y237934D01*
X18604Y237396D01*
X18066Y236694D01*
X17728Y235877D01*
X17612Y235000D01*
X17728Y234123D01*
X18066Y233306D01*
X18604Y232604D01*
X19306Y232066D01*
X20123Y231728D01*
X21000Y231612D01*
X21877Y231728D01*
X22694Y232066D01*
X23396Y232604D01*
X23934Y233306D01*
X24272Y234123D01*
X24388Y235000D01*
X24272Y235877D01*
X23934Y236694D01*
X23396Y237396D01*
X23060Y237653D01*
X23027Y238152D01*
X27549Y242674D01*
X28339D01*
X28410Y242505D01*
X28885Y241885D01*
X29504Y241410D01*
X30226Y241111D01*
X31000Y241009D01*
X31774Y241111D01*
X32495Y241410D01*
X33115Y241885D01*
X33590Y242505D01*
X33889Y243226D01*
X33991Y244000D01*
X33889Y244774D01*
X33590Y245496D01*
X33115Y246115D01*
X32495Y246590D01*
X31774Y246889D01*
X31000Y246991D01*
D02*
G37*
G36*
X84000Y248556D02*
X83174Y248447D01*
X82405Y248129D01*
X81744Y247622D01*
X81238Y246961D01*
X80919Y246192D01*
X80810Y245366D01*
X80919Y244541D01*
X81238Y243771D01*
X81744Y243111D01*
X82405Y242604D01*
X83174Y242285D01*
X84000Y242176D01*
X84826Y242285D01*
X85595Y242604D01*
X86256Y243111D01*
X86762Y243771D01*
X87081Y244541D01*
X87190Y245366D01*
X87081Y246192D01*
X86762Y246961D01*
X86256Y247622D01*
X85595Y248129D01*
X84826Y248447D01*
X84000Y248556D01*
D02*
G37*
G36*
X61000Y246991D02*
X60226Y246889D01*
X59504Y246590D01*
X58885Y246115D01*
X58410Y245496D01*
X58111Y244774D01*
X58009Y244000D01*
X58111Y243226D01*
X58410Y242505D01*
X58885Y241885D01*
X59504Y241410D01*
X60226Y241111D01*
X61000Y241009D01*
X61774Y241111D01*
X62495Y241410D01*
X63115Y241885D01*
X63590Y242505D01*
X63889Y243226D01*
X63991Y244000D01*
X63889Y244774D01*
X63590Y245496D01*
X63115Y246115D01*
X62495Y246590D01*
X61774Y246889D01*
X61000Y246991D01*
D02*
G37*
G36*
X114000Y254388D02*
X113123Y254273D01*
X112306Y253934D01*
X111604Y253396D01*
X111066Y252694D01*
X110728Y251877D01*
X110612Y251000D01*
X110728Y250123D01*
X111066Y249306D01*
X111553Y248671D01*
Y238447D01*
X107162D01*
Y239162D01*
X106447D01*
Y243360D01*
X106762Y243771D01*
X107081Y244541D01*
X107190Y245366D01*
X107081Y246192D01*
X106762Y246961D01*
X106255Y247622D01*
X105595Y248129D01*
X104826Y248447D01*
X104000Y248556D01*
X103174Y248447D01*
X102405Y248129D01*
X101744Y247622D01*
X101238Y246961D01*
X100919Y246192D01*
X100810Y245366D01*
X100919Y244541D01*
X101238Y243771D01*
X101553Y243360D01*
Y239162D01*
X100838D01*
Y232838D01*
X107162D01*
Y233553D01*
X111995D01*
X112405Y233238D01*
X113174Y232919D01*
X114000Y232811D01*
X114825Y232919D01*
X115595Y233238D01*
X116255Y233745D01*
X116762Y234405D01*
X117081Y235174D01*
X117189Y236000D01*
X117081Y236825D01*
X116762Y237595D01*
X116447Y238005D01*
Y248671D01*
X116934Y249306D01*
X117272Y250123D01*
X117388Y251000D01*
X117272Y251877D01*
X116934Y252694D01*
X116396Y253396D01*
X115694Y253934D01*
X114877Y254273D01*
X114000Y254388D01*
D02*
G37*
G36*
X70000Y237388D02*
X69123Y237273D01*
X68306Y236934D01*
X67671Y236447D01*
X63232D01*
X62664Y236882D01*
X61861Y237215D01*
X61000Y237329D01*
X60138Y237215D01*
X59336Y236882D01*
X58646Y236354D01*
X58117Y235664D01*
X57785Y234861D01*
X57671Y234000D01*
X57785Y233138D01*
X58117Y232336D01*
X58646Y231646D01*
X59336Y231118D01*
X60138Y230785D01*
X61000Y230672D01*
X61861Y230785D01*
X62664Y231118D01*
X63232Y231553D01*
X67671D01*
X68306Y231066D01*
X69123Y230728D01*
X69916Y230623D01*
X73770Y226770D01*
X74564Y226239D01*
X75500Y226053D01*
X114486D01*
X121080Y219459D01*
X121111Y219226D01*
X121410Y218505D01*
X121885Y217885D01*
X122504Y217410D01*
X123226Y217111D01*
X124000Y217009D01*
X124774Y217111D01*
X125496Y217410D01*
X125748Y217603D01*
X132318D01*
X132504Y217460D01*
X133226Y217161D01*
X134000Y217059D01*
X134774Y217161D01*
X135495Y217460D01*
X135682Y217603D01*
X137502D01*
X142335Y212770D01*
X143129Y212239D01*
X144066Y212053D01*
X149534D01*
Y211535D01*
X155005D01*
X168123Y198416D01*
X168228Y197623D01*
X168566Y196806D01*
X169104Y196104D01*
X169806Y195566D01*
X170623Y195228D01*
X171500Y195112D01*
X172377Y195228D01*
X173194Y195566D01*
X173829Y196053D01*
X181268D01*
X181836Y195617D01*
X182639Y195285D01*
X183500Y195171D01*
X184362Y195285D01*
X185164Y195617D01*
X185854Y196146D01*
X186382Y196836D01*
X186715Y197638D01*
X186828Y198500D01*
X186715Y199362D01*
X186382Y200164D01*
X185854Y200854D01*
X185164Y201382D01*
X184362Y201715D01*
X183500Y201829D01*
X182639Y201715D01*
X181836Y201382D01*
X181268Y200947D01*
X173829D01*
X173194Y201434D01*
X172377Y201772D01*
X171584Y201877D01*
X157230Y216230D01*
X156436Y216761D01*
X155500Y216947D01*
X155465D01*
Y217465D01*
X149534D01*
Y216947D01*
X145079D01*
X140246Y221780D01*
X139452Y222311D01*
X138515Y222497D01*
X135682D01*
X135495Y222640D01*
X134774Y222939D01*
X134000Y223041D01*
X133226Y222939D01*
X132504Y222640D01*
X132318Y222497D01*
X125617D01*
X125496Y222590D01*
X124774Y222889D01*
X124541Y222920D01*
X117230Y230230D01*
X116436Y230761D01*
X115500Y230947D01*
X76514D01*
X73377Y234084D01*
X73273Y234877D01*
X72934Y235694D01*
X72396Y236396D01*
X71694Y236934D01*
X70877Y237273D01*
X70000Y237388D01*
D02*
G37*
G36*
X157900Y238737D02*
Y236400D01*
X160237D01*
X160194Y236722D01*
X159916Y237395D01*
X159472Y237972D01*
X158895Y238416D01*
X158222Y238694D01*
X157900Y238737D01*
D02*
G37*
G36*
X157100D02*
X156778Y238694D01*
X156105Y238416D01*
X155528Y237972D01*
X155084Y237395D01*
X154806Y236722D01*
X154763Y236400D01*
X157100D01*
Y238737D01*
D02*
G37*
G36*
X124400Y238935D02*
Y236400D01*
X126935D01*
X126886Y236773D01*
X126587Y237494D01*
X126112Y238112D01*
X125494Y238587D01*
X124773Y238886D01*
X124400Y238935D01*
D02*
G37*
G36*
X123600D02*
X123227Y238886D01*
X122506Y238587D01*
X121888Y238112D01*
X121413Y237494D01*
X121114Y236773D01*
X121065Y236400D01*
X123600D01*
Y238935D01*
D02*
G37*
G36*
X199500Y251491D02*
X198726Y251389D01*
X198004Y251090D01*
X197385Y250615D01*
X196910Y249995D01*
X196839Y249826D01*
X195553D01*
X195045Y249725D01*
X194615Y249437D01*
X188563Y243385D01*
X188275Y242954D01*
X188174Y242447D01*
Y241587D01*
X187806Y241434D01*
X187104Y240896D01*
X186566Y240194D01*
X186228Y239377D01*
X186112Y238500D01*
X186228Y237623D01*
X186566Y236806D01*
X187104Y236104D01*
X187806Y235566D01*
X188623Y235227D01*
X189500Y235112D01*
X190377Y235227D01*
X191194Y235566D01*
X191896Y236104D01*
X192434Y236806D01*
X192772Y237623D01*
X192888Y238500D01*
X192772Y239377D01*
X192434Y240194D01*
X191896Y240896D01*
X191194Y241434D01*
X191053Y241493D01*
X190976Y242049D01*
X196102Y247175D01*
X196839D01*
X196910Y247005D01*
X197385Y246385D01*
X198004Y245910D01*
X198726Y245611D01*
X199500Y245509D01*
X200274Y245611D01*
X200995Y245910D01*
X201615Y246385D01*
X202046Y246946D01*
X202354Y247004D01*
X202623Y247003D01*
X209428Y240197D01*
X209152Y239531D01*
X209016Y238500D01*
X209152Y237469D01*
X209550Y236508D01*
X210183Y235683D01*
X211008Y235050D01*
X211969Y234652D01*
X213000Y234516D01*
X214031Y234652D01*
X214992Y235050D01*
X215817Y235683D01*
X216450Y236508D01*
X216726Y237175D01*
X219274D01*
X219550Y236508D01*
X220183Y235683D01*
X221008Y235050D01*
X221969Y234652D01*
X223000Y234516D01*
X224031Y234652D01*
X224992Y235050D01*
X225817Y235683D01*
X226450Y236508D01*
X226848Y237469D01*
X226984Y238500D01*
X226848Y239531D01*
X226450Y240492D01*
X225817Y241317D01*
X224992Y241950D01*
X224031Y242348D01*
X223000Y242484D01*
X221969Y242348D01*
X221008Y241950D01*
X220183Y241317D01*
X219550Y240492D01*
X219274Y239826D01*
X216726D01*
X216450Y240492D01*
X215817Y241317D01*
X214992Y241950D01*
X214031Y242348D01*
X213000Y242484D01*
X211969Y242348D01*
X211303Y242072D01*
X203937Y249437D01*
X203507Y249725D01*
X203000Y249826D01*
X202161D01*
X202090Y249995D01*
X201615Y250615D01*
X200995Y251090D01*
X200274Y251389D01*
X199500Y251491D01*
D02*
G37*
G36*
X160237Y235600D02*
X157900D01*
Y233263D01*
X158222Y233306D01*
X158895Y233584D01*
X159472Y234028D01*
X159916Y234605D01*
X160194Y235278D01*
X160237Y235600D01*
D02*
G37*
G36*
X157100D02*
X154763D01*
X154806Y235278D01*
X155084Y234605D01*
X155528Y234028D01*
X156105Y233584D01*
X156778Y233306D01*
X157100Y233263D01*
Y235600D01*
D02*
G37*
G36*
X126935D02*
X124400D01*
Y233065D01*
X124773Y233114D01*
X125494Y233413D01*
X126112Y233888D01*
X126587Y234506D01*
X126886Y235227D01*
X126935Y235600D01*
D02*
G37*
G36*
X123600D02*
X121065D01*
X121114Y235227D01*
X121413Y234506D01*
X121888Y233888D01*
X122506Y233413D01*
X123227Y233114D01*
X123600Y233065D01*
Y235600D01*
D02*
G37*
G36*
X150466Y238966D02*
X144535D01*
Y233034D01*
X150466D01*
Y238966D01*
D02*
G37*
G36*
X134000Y239189D02*
X133175Y239081D01*
X132405Y238762D01*
X131745Y238255D01*
X131238Y237595D01*
X130919Y236825D01*
X130811Y236000D01*
X130919Y235174D01*
X131238Y234405D01*
X131745Y233745D01*
X132405Y233238D01*
X133175Y232919D01*
X134000Y232811D01*
X134826Y232919D01*
X135595Y233238D01*
X136255Y233745D01*
X136762Y234405D01*
X137081Y235174D01*
X137189Y236000D01*
X137081Y236825D01*
X136762Y237595D01*
X136255Y238255D01*
X135595Y238762D01*
X134826Y239081D01*
X134000Y239189D01*
D02*
G37*
G36*
X84000D02*
X83175Y239081D01*
X82405Y238762D01*
X81745Y238255D01*
X81238Y237595D01*
X80919Y236825D01*
X80811Y236000D01*
X80919Y235174D01*
X81238Y234405D01*
X81745Y233745D01*
X82405Y233238D01*
X83175Y232919D01*
X84000Y232811D01*
X84825Y232919D01*
X85595Y233238D01*
X86255Y233745D01*
X86762Y234405D01*
X87081Y235174D01*
X87189Y236000D01*
X87081Y236825D01*
X86762Y237595D01*
X86255Y238255D01*
X85595Y238762D01*
X84825Y239081D01*
X84000Y239189D01*
D02*
G37*
G36*
X67844Y273844D02*
X59157D01*
Y267031D01*
X54063Y261937D01*
X53775Y261507D01*
X53675Y261000D01*
Y257087D01*
X53306Y256934D01*
X52604Y256396D01*
X52066Y255694D01*
X51727Y254877D01*
X51612Y254000D01*
X51727Y253123D01*
X52066Y252306D01*
X52604Y251604D01*
X53306Y251066D01*
X53675Y250913D01*
Y248549D01*
X32200Y227075D01*
X31861Y227215D01*
X31000Y227328D01*
X30138Y227215D01*
X29336Y226883D01*
X28646Y226354D01*
X28117Y225664D01*
X27977Y225325D01*
X23661D01*
X23590Y225496D01*
X23115Y226115D01*
X22496Y226590D01*
X21774Y226889D01*
X21000Y226991D01*
X20226Y226889D01*
X19504Y226590D01*
X18885Y226115D01*
X18410Y225496D01*
X18111Y224774D01*
X18009Y224000D01*
X18111Y223226D01*
X18410Y222504D01*
X18885Y221885D01*
X19504Y221410D01*
X20226Y221111D01*
X21000Y221009D01*
X21774Y221111D01*
X22496Y221410D01*
X23115Y221885D01*
X23590Y222504D01*
X23661Y222674D01*
X27977D01*
X28117Y222336D01*
X28646Y221646D01*
X29336Y221117D01*
X30138Y220785D01*
X31000Y220672D01*
X31861Y220785D01*
X32664Y221117D01*
X33354Y221646D01*
X33882Y222336D01*
X34215Y223138D01*
X34328Y224000D01*
X34215Y224862D01*
X34075Y225200D01*
X55937Y247063D01*
X56225Y247493D01*
X56326Y248000D01*
Y250913D01*
X56694Y251066D01*
X57396Y251604D01*
X57934Y252306D01*
X58272Y253123D01*
X58388Y254000D01*
X58272Y254877D01*
X57934Y255694D01*
X57396Y256396D01*
X56694Y256934D01*
X56326Y257087D01*
Y260451D01*
X61031Y265157D01*
X67844D01*
Y273844D01*
D02*
G37*
G36*
X99500Y223972D02*
X98469Y223836D01*
X97508Y223438D01*
X96683Y222805D01*
X96399Y222435D01*
X92601D01*
X92317Y222805D01*
X91492Y223438D01*
X90531Y223836D01*
X89500Y223972D01*
X88469Y223836D01*
X87508Y223438D01*
X86683Y222805D01*
X86050Y221980D01*
X85652Y221019D01*
X85516Y219988D01*
X85652Y218957D01*
X86050Y217997D01*
X86683Y217172D01*
X87508Y216539D01*
X88469Y216141D01*
X89500Y216005D01*
X90531Y216141D01*
X91492Y216539D01*
X92317Y217172D01*
X92601Y217541D01*
X96399D01*
X96683Y217172D01*
X97508Y216539D01*
X98469Y216141D01*
X99500Y216005D01*
X99962Y216066D01*
X121553Y194475D01*
Y192447D01*
X115682D01*
X115496Y192590D01*
X114774Y192889D01*
X114541Y192920D01*
X101730Y205730D01*
X100936Y206261D01*
X100000Y206447D01*
X63232D01*
X62664Y206883D01*
X61861Y207215D01*
X61000Y207329D01*
X60138Y207215D01*
X59336Y206883D01*
X58646Y206354D01*
X58117Y205664D01*
X57785Y204861D01*
X57671Y204000D01*
X57785Y203138D01*
X58117Y202336D01*
X58553Y201768D01*
Y195682D01*
X58410Y195495D01*
X58111Y194774D01*
X58009Y194000D01*
X58111Y193226D01*
X58410Y192505D01*
X58885Y191885D01*
X59504Y191410D01*
X60226Y191111D01*
X61000Y191009D01*
X61774Y191111D01*
X62495Y191410D01*
X63115Y191885D01*
X63590Y192505D01*
X63889Y193226D01*
X63991Y194000D01*
X63889Y194774D01*
X63590Y195495D01*
X63447Y195682D01*
Y201553D01*
X98986D01*
X111080Y189459D01*
X111111Y189226D01*
X111410Y188505D01*
X111885Y187885D01*
X112504Y187410D01*
X113226Y187111D01*
X114000Y187009D01*
X114774Y187111D01*
X115496Y187410D01*
X115682Y187553D01*
X122318D01*
X122504Y187410D01*
X123226Y187111D01*
X124000Y187009D01*
X124774Y187111D01*
X125496Y187410D01*
X126115Y187885D01*
X126590Y188505D01*
X126889Y189226D01*
X126920Y189459D01*
X133014Y195553D01*
X143486D01*
X149338Y189701D01*
Y186838D01*
X155662D01*
Y187553D01*
X209000D01*
X209936Y187739D01*
X210730Y188270D01*
X215230Y192770D01*
X215761Y193564D01*
X215947Y194500D01*
Y196268D01*
X216383Y196836D01*
X216715Y197638D01*
X216828Y198500D01*
X216715Y199362D01*
X216383Y200164D01*
X215854Y200854D01*
X215164Y201382D01*
X214362Y201715D01*
X213500Y201829D01*
X212638Y201715D01*
X211836Y201382D01*
X211146Y200854D01*
X210617Y200164D01*
X210285Y199362D01*
X210172Y198500D01*
X210285Y197638D01*
X210617Y196836D01*
X211053Y196268D01*
Y195514D01*
X207986Y192447D01*
X155662D01*
Y193162D01*
X152799D01*
X146230Y199730D01*
X145436Y200261D01*
X144500Y200447D01*
X132000D01*
X131064Y200261D01*
X130270Y199730D01*
X126751Y196212D01*
X126261Y196425D01*
X125730Y197219D01*
X103423Y219526D01*
X103484Y219988D01*
X103348Y221019D01*
X102950Y221980D01*
X102317Y222805D01*
X101492Y223438D01*
X100531Y223836D01*
X99500Y223972D01*
D02*
G37*
G36*
X61000Y227328D02*
X60138Y227215D01*
X59336Y226883D01*
X58646Y226354D01*
X58117Y225664D01*
X57785Y224862D01*
X57671Y224000D01*
X57785Y223138D01*
X57925Y222800D01*
X44063Y208937D01*
X43775Y208507D01*
X43674Y208000D01*
Y195437D01*
X33998Y185760D01*
X33345Y185815D01*
X33115Y186115D01*
X32495Y186590D01*
X31774Y186889D01*
X31000Y186991D01*
X30226Y186889D01*
X29504Y186590D01*
X28885Y186115D01*
X28410Y185495D01*
X28339Y185326D01*
X24087D01*
X23934Y185694D01*
X23396Y186396D01*
X22694Y186934D01*
X21877Y187273D01*
X21000Y187388D01*
X20123Y187273D01*
X19306Y186934D01*
X18604Y186396D01*
X18066Y185694D01*
X17728Y184877D01*
X17612Y184000D01*
X17728Y183123D01*
X18066Y182306D01*
X18604Y181604D01*
X19306Y181066D01*
X20123Y180728D01*
X21000Y180612D01*
X21877Y180728D01*
X22694Y181066D01*
X23396Y181604D01*
X23934Y182306D01*
X24087Y182675D01*
X28339D01*
X28410Y182504D01*
X28885Y181885D01*
X29504Y181410D01*
X29675Y181339D01*
Y179000D01*
X29775Y178493D01*
X30063Y178063D01*
X32880Y175245D01*
X32728Y174877D01*
X32612Y174000D01*
X32728Y173123D01*
X33066Y172306D01*
X33604Y171604D01*
X34306Y171066D01*
X35123Y170728D01*
X36000Y170612D01*
X36877Y170728D01*
X37694Y171066D01*
X38396Y171604D01*
X38934Y172306D01*
X39272Y173123D01*
X39388Y174000D01*
X39272Y174877D01*
X38934Y175694D01*
X38396Y176396D01*
X37694Y176934D01*
X36877Y177272D01*
X36000Y177388D01*
X35123Y177272D01*
X34755Y177120D01*
X32326Y179549D01*
Y181339D01*
X32495Y181410D01*
X33115Y181885D01*
X33590Y182504D01*
X33661Y182675D01*
X34112D01*
X34619Y182775D01*
X35049Y183063D01*
X45937Y193951D01*
X46225Y194381D01*
X46325Y194888D01*
Y207451D01*
X59800Y220925D01*
X60138Y220785D01*
X61000Y220672D01*
X61861Y220785D01*
X62664Y221117D01*
X63354Y221646D01*
X63883Y222336D01*
X64215Y223138D01*
X64328Y224000D01*
X64215Y224862D01*
X63883Y225664D01*
X63354Y226354D01*
X62664Y226883D01*
X61861Y227215D01*
X61000Y227328D01*
D02*
G37*
G36*
X114400Y222737D02*
Y220400D01*
X116737D01*
X116694Y220722D01*
X116416Y221395D01*
X115972Y221972D01*
X115395Y222416D01*
X114722Y222694D01*
X114400Y222737D01*
D02*
G37*
G36*
X113600D02*
X113278Y222694D01*
X112605Y222416D01*
X112028Y221972D01*
X111584Y221395D01*
X111306Y220722D01*
X111263Y220400D01*
X113600D01*
Y222737D01*
D02*
G37*
G36*
X116737Y219600D02*
X114400D01*
Y217263D01*
X114722Y217306D01*
X115395Y217584D01*
X115972Y218028D01*
X116416Y218605D01*
X116694Y219278D01*
X116737Y219600D01*
D02*
G37*
G36*
X113600D02*
X111263D01*
X111306Y219278D01*
X111584Y218605D01*
X112028Y218028D01*
X112605Y217584D01*
X113278Y217306D01*
X113600Y217263D01*
Y219600D01*
D02*
G37*
G36*
X70400Y217134D02*
Y214400D01*
X73134D01*
X73078Y214825D01*
X72759Y215593D01*
X72253Y216253D01*
X71593Y216759D01*
X70825Y217078D01*
X70400Y217134D01*
D02*
G37*
G36*
X69600D02*
X69175Y217078D01*
X68407Y216759D01*
X67747Y216253D01*
X67241Y215593D01*
X66922Y214825D01*
X66866Y214400D01*
X69600D01*
Y217134D01*
D02*
G37*
G36*
X73134Y213600D02*
X70400D01*
Y210866D01*
X70825Y210922D01*
X71593Y211241D01*
X72253Y211747D01*
X72759Y212407D01*
X73078Y213175D01*
X73134Y213600D01*
D02*
G37*
G36*
X69600D02*
X66866D01*
X66922Y213175D01*
X67241Y212407D01*
X67747Y211747D01*
X68407Y211241D01*
X69175Y210922D01*
X69600Y210866D01*
Y213600D01*
D02*
G37*
G36*
X61000Y217329D02*
X60138Y217215D01*
X59336Y216882D01*
X58646Y216354D01*
X58117Y215664D01*
X57785Y214861D01*
X57671Y214000D01*
X57785Y213139D01*
X58117Y212336D01*
X58646Y211646D01*
X59336Y211118D01*
X60138Y210785D01*
X61000Y210671D01*
X61861Y210785D01*
X62664Y211118D01*
X63354Y211646D01*
X63883Y212336D01*
X64215Y213139D01*
X64328Y214000D01*
X64215Y214861D01*
X63883Y215664D01*
X63354Y216354D01*
X62664Y216882D01*
X61861Y217215D01*
X61000Y217329D01*
D02*
G37*
G36*
X213000Y212484D02*
X211969Y212348D01*
X211008Y211950D01*
X210183Y211317D01*
X209550Y210492D01*
X209274Y209825D01*
X202587D01*
X202434Y210194D01*
X201896Y210896D01*
X201194Y211434D01*
X200377Y211772D01*
X199500Y211888D01*
X198623Y211772D01*
X197806Y211434D01*
X197104Y210896D01*
X196566Y210194D01*
X196228Y209377D01*
X196112Y208500D01*
X196228Y207623D01*
X196566Y206806D01*
X197104Y206104D01*
X197806Y205566D01*
X198623Y205227D01*
X199500Y205112D01*
X200377Y205227D01*
X201194Y205566D01*
X201896Y206104D01*
X202434Y206806D01*
X202587Y207174D01*
X209274D01*
X209550Y206508D01*
X210183Y205683D01*
X211008Y205050D01*
X211969Y204652D01*
X213000Y204516D01*
X214031Y204652D01*
X214992Y205050D01*
X215817Y205683D01*
X216450Y206508D01*
X216848Y207469D01*
X216984Y208500D01*
X216848Y209531D01*
X216450Y210492D01*
X215817Y211317D01*
X214992Y211950D01*
X214031Y212348D01*
X213000Y212484D01*
D02*
G37*
G36*
X152900Y207237D02*
Y204900D01*
X155237D01*
X155194Y205222D01*
X154916Y205895D01*
X154472Y206472D01*
X153895Y206916D01*
X153222Y207194D01*
X152900Y207237D01*
D02*
G37*
G36*
X152100D02*
X151778Y207194D01*
X151105Y206916D01*
X150528Y206472D01*
X150084Y205895D01*
X149806Y205222D01*
X149763Y204900D01*
X152100D01*
Y207237D01*
D02*
G37*
G36*
X179500Y241888D02*
X178623Y241773D01*
X177806Y241434D01*
X177104Y240896D01*
X176566Y240194D01*
X176227Y239377D01*
X176112Y238500D01*
X176227Y237623D01*
X176566Y236806D01*
X177104Y236104D01*
X177806Y235566D01*
X178174Y235413D01*
Y235356D01*
X178275Y234849D01*
X178563Y234419D01*
X186919Y226063D01*
X187349Y225775D01*
X187856Y225675D01*
X210960D01*
X221674Y214960D01*
Y212226D01*
X221008Y211950D01*
X220183Y211317D01*
X219550Y210492D01*
X219152Y209531D01*
X219016Y208500D01*
X219152Y207469D01*
X219550Y206508D01*
X220183Y205683D01*
X221008Y205050D01*
X221969Y204652D01*
X223000Y204516D01*
X224031Y204652D01*
X224992Y205050D01*
X225817Y205683D01*
X226450Y206508D01*
X226848Y207469D01*
X226984Y208500D01*
X226848Y209531D01*
X226450Y210492D01*
X225817Y211317D01*
X224992Y211950D01*
X224325Y212226D01*
Y215509D01*
X224225Y216016D01*
X223937Y216446D01*
X212446Y227937D01*
X212016Y228225D01*
X211509Y228326D01*
X188405D01*
X181534Y235196D01*
X181577Y235860D01*
X181896Y236104D01*
X182434Y236806D01*
X182773Y237623D01*
X182888Y238500D01*
X182773Y239377D01*
X182434Y240194D01*
X181896Y240896D01*
X181194Y241434D01*
X180377Y241773D01*
X179500Y241888D01*
D02*
G37*
G36*
X31400Y207074D02*
Y204400D01*
X34074D01*
X34020Y204809D01*
X33708Y205563D01*
X33211Y206211D01*
X32563Y206708D01*
X31809Y207020D01*
X31400Y207074D01*
D02*
G37*
G36*
X30600D02*
X30191Y207020D01*
X29437Y206708D01*
X28789Y206211D01*
X28292Y205563D01*
X27980Y204809D01*
X27926Y204400D01*
X30600D01*
Y207074D01*
D02*
G37*
G36*
X155237Y204100D02*
X152900D01*
Y201763D01*
X153222Y201806D01*
X153895Y202084D01*
X154472Y202528D01*
X154916Y203105D01*
X155194Y203778D01*
X155237Y204100D01*
D02*
G37*
G36*
X152100D02*
X149763D01*
X149806Y203778D01*
X150084Y203105D01*
X150528Y202528D01*
X151105Y202084D01*
X151778Y201806D01*
X152100Y201763D01*
Y204100D01*
D02*
G37*
G36*
X34074Y203600D02*
X31400D01*
Y200926D01*
X31809Y200980D01*
X32563Y201292D01*
X33211Y201789D01*
X33708Y202437D01*
X34020Y203191D01*
X34074Y203600D01*
D02*
G37*
G36*
X30600D02*
X27926D01*
X27980Y203191D01*
X28292Y202437D01*
X28789Y201789D01*
X29437Y201292D01*
X30191Y200980D01*
X30600Y200926D01*
Y203600D01*
D02*
G37*
G36*
X31000Y217329D02*
X30138Y217215D01*
X29336Y216882D01*
X28646Y216354D01*
X28117Y215664D01*
X27785Y214861D01*
X27672Y214000D01*
X27785Y213139D01*
X28117Y212336D01*
X28646Y211646D01*
X29336Y211118D01*
X30138Y210785D01*
X31000Y210671D01*
X31861Y210785D01*
X32200Y210925D01*
X35968Y207158D01*
Y197851D01*
X33956Y195840D01*
X33293Y195883D01*
X33115Y196115D01*
X32495Y196590D01*
X31774Y196889D01*
X31000Y196991D01*
X30226Y196889D01*
X30056Y196819D01*
X26937Y199937D01*
X26507Y200225D01*
X26000Y200325D01*
X16000D01*
X15493Y200225D01*
X15063Y199937D01*
X12245Y197120D01*
X11877Y197273D01*
X11000Y197388D01*
X10123Y197273D01*
X9306Y196934D01*
X8604Y196396D01*
X8066Y195694D01*
X7728Y194877D01*
X7612Y194000D01*
X7728Y193123D01*
X8066Y192306D01*
X8604Y191604D01*
X9306Y191066D01*
X10123Y190727D01*
X11000Y190612D01*
X11877Y190727D01*
X12694Y191066D01*
X13396Y191604D01*
X13934Y192306D01*
X14273Y193123D01*
X14388Y194000D01*
X14273Y194877D01*
X14120Y195245D01*
X16549Y197675D01*
X25451D01*
X28181Y194944D01*
X28111Y194774D01*
X28009Y194000D01*
X28111Y193226D01*
X28410Y192505D01*
X28885Y191885D01*
X29504Y191410D01*
X30226Y191111D01*
X31000Y191009D01*
X31774Y191111D01*
X32495Y191410D01*
X33115Y191885D01*
X33590Y192505D01*
X33661Y192675D01*
X33991D01*
X34498Y192775D01*
X34928Y193063D01*
X38230Y196365D01*
X38518Y196795D01*
X38618Y197302D01*
Y207707D01*
X38518Y208214D01*
X38230Y208644D01*
X34075Y212800D01*
X34215Y213139D01*
X34328Y214000D01*
X34215Y214861D01*
X33882Y215664D01*
X33354Y216354D01*
X32664Y216882D01*
X31861Y217215D01*
X31000Y217329D01*
D02*
G37*
G36*
X223500Y201491D02*
X222726Y201389D01*
X222005Y201090D01*
X221385Y200615D01*
X220910Y199996D01*
X220611Y199274D01*
X220509Y198500D01*
X220611Y197726D01*
X220910Y197004D01*
X221385Y196385D01*
X222005Y195910D01*
X222726Y195611D01*
X223500Y195509D01*
X224274Y195611D01*
X224995Y195910D01*
X225615Y196385D01*
X226090Y197004D01*
X226389Y197726D01*
X226491Y198500D01*
X226389Y199274D01*
X226090Y199996D01*
X225615Y200615D01*
X224995Y201090D01*
X224274Y201389D01*
X223500Y201491D01*
D02*
G37*
G36*
X203500Y201829D02*
X202639Y201715D01*
X201836Y201382D01*
X201146Y200854D01*
X200618Y200164D01*
X200285Y199362D01*
X200171Y198500D01*
X200285Y197638D01*
X200618Y196836D01*
X201146Y196146D01*
X201836Y195617D01*
X202639Y195285D01*
X203500Y195171D01*
X204362Y195285D01*
X205164Y195617D01*
X205854Y196146D01*
X206382Y196836D01*
X206715Y197638D01*
X206828Y198500D01*
X206715Y199362D01*
X206382Y200164D01*
X205854Y200854D01*
X205164Y201382D01*
X204362Y201715D01*
X203500Y201829D01*
D02*
G37*
G36*
X21000Y196991D02*
X20226Y196889D01*
X19504Y196590D01*
X18885Y196115D01*
X18410Y195495D01*
X18111Y194774D01*
X18009Y194000D01*
X18111Y193226D01*
X18181Y193056D01*
X12245Y187120D01*
X11877Y187273D01*
X11000Y187388D01*
X10123Y187273D01*
X9306Y186934D01*
X8604Y186396D01*
X8066Y185694D01*
X7728Y184877D01*
X7612Y184000D01*
X7728Y183123D01*
X8066Y182306D01*
X8604Y181604D01*
X9306Y181066D01*
X10123Y180728D01*
X11000Y180612D01*
X11877Y180728D01*
X12694Y181066D01*
X13396Y181604D01*
X13934Y182306D01*
X14273Y183123D01*
X14388Y184000D01*
X14273Y184877D01*
X14120Y185245D01*
X20056Y191181D01*
X20226Y191111D01*
X21000Y191009D01*
X21774Y191111D01*
X22496Y191410D01*
X23115Y191885D01*
X23590Y192505D01*
X23889Y193226D01*
X23991Y194000D01*
X23889Y194774D01*
X23590Y195495D01*
X23115Y196115D01*
X22496Y196590D01*
X21774Y196889D01*
X21000Y196991D01*
D02*
G37*
G36*
X134000Y193041D02*
X133226Y192939D01*
X132504Y192640D01*
X131885Y192165D01*
X131410Y191546D01*
X131111Y190824D01*
X131009Y190050D01*
X131111Y189276D01*
X131410Y188555D01*
X131885Y187935D01*
X132504Y187460D01*
X133226Y187161D01*
X134000Y187059D01*
X134774Y187161D01*
X135495Y187460D01*
X136115Y187935D01*
X136590Y188555D01*
X136889Y189276D01*
X136991Y190050D01*
X136889Y190824D01*
X136590Y191546D01*
X136115Y192165D01*
X135495Y192640D01*
X134774Y192939D01*
X134000Y193041D01*
D02*
G37*
G36*
X152900Y182935D02*
Y180400D01*
X155435D01*
X155386Y180773D01*
X155087Y181494D01*
X154613Y182113D01*
X153994Y182587D01*
X153273Y182886D01*
X152900Y182935D01*
D02*
G37*
G36*
X152100D02*
X151727Y182886D01*
X151006Y182587D01*
X150388Y182113D01*
X149913Y181494D01*
X149614Y180773D01*
X149565Y180400D01*
X152100D01*
Y182935D01*
D02*
G37*
G36*
X89500Y193972D02*
X88469Y193836D01*
X87508Y193438D01*
X86683Y192805D01*
X86050Y191980D01*
X85652Y191019D01*
X85516Y189988D01*
X85652Y188957D01*
X86050Y187997D01*
X86683Y187171D01*
X87508Y186539D01*
X88174Y186263D01*
Y181874D01*
X87905Y181762D01*
X87245Y181255D01*
X86738Y180595D01*
X86626Y180325D01*
X82662D01*
Y182162D01*
X76338D01*
Y175838D01*
X82662D01*
Y177674D01*
X86626D01*
X86738Y177405D01*
X87245Y176745D01*
X87905Y176238D01*
X88674Y175919D01*
X89500Y175811D01*
X90325Y175919D01*
X91095Y176238D01*
X91755Y176745D01*
X92262Y177405D01*
X92581Y178174D01*
X92689Y179000D01*
X92581Y179825D01*
X92262Y180595D01*
X91755Y181255D01*
X91095Y181762D01*
X90825Y181874D01*
Y186263D01*
X91492Y186539D01*
X92317Y187171D01*
X92950Y187997D01*
X93348Y188957D01*
X93484Y189988D01*
X93348Y191019D01*
X92950Y191980D01*
X92317Y192805D01*
X91492Y193438D01*
X90531Y193836D01*
X89500Y193972D01*
D02*
G37*
G36*
X171900Y181634D02*
Y178900D01*
X174634D01*
X174578Y179325D01*
X174259Y180093D01*
X173753Y180753D01*
X173093Y181259D01*
X172325Y181578D01*
X171900Y181634D01*
D02*
G37*
G36*
X171100D02*
X170675Y181578D01*
X169907Y181259D01*
X169247Y180753D01*
X168741Y180093D01*
X168422Y179325D01*
X168366Y178900D01*
X171100D01*
Y181634D01*
D02*
G37*
G36*
X61000Y186991D02*
X60226Y186889D01*
X59504Y186590D01*
X58885Y186115D01*
X58410Y185495D01*
X58111Y184774D01*
X58009Y184000D01*
X58111Y183226D01*
X58410Y182504D01*
X58885Y181885D01*
X59504Y181410D01*
X59675Y181339D01*
Y179549D01*
X57245Y177120D01*
X56877Y177272D01*
X56000Y177388D01*
X55123Y177272D01*
X54306Y176934D01*
X53604Y176396D01*
X53066Y175694D01*
X52728Y174877D01*
X52612Y174000D01*
X52728Y173123D01*
X53066Y172306D01*
X53604Y171604D01*
X54306Y171066D01*
X55123Y170728D01*
X56000Y170612D01*
X56877Y170728D01*
X57694Y171066D01*
X58396Y171604D01*
X58934Y172306D01*
X59272Y173123D01*
X59388Y174000D01*
X59272Y174877D01*
X59120Y175245D01*
X61937Y178063D01*
X62225Y178493D01*
X62326Y179000D01*
Y181339D01*
X62495Y181410D01*
X63115Y181885D01*
X63590Y182504D01*
X63889Y183226D01*
X63991Y184000D01*
X63889Y184774D01*
X63590Y185495D01*
X63115Y186115D01*
X62495Y186590D01*
X61774Y186889D01*
X61000Y186991D01*
D02*
G37*
G36*
X155435Y179600D02*
X152900D01*
Y177065D01*
X153273Y177114D01*
X153994Y177413D01*
X154613Y177887D01*
X155087Y178506D01*
X155386Y179227D01*
X155435Y179600D01*
D02*
G37*
G36*
X152100D02*
X149565D01*
X149614Y179227D01*
X149913Y178506D01*
X150388Y177887D01*
X151006Y177413D01*
X151727Y177114D01*
X152100Y177065D01*
Y179600D01*
D02*
G37*
G36*
X119500Y182388D02*
X118623Y182273D01*
X117806Y181934D01*
X117104Y181396D01*
X116566Y180694D01*
X116227Y179877D01*
X116112Y179000D01*
X116227Y178123D01*
X116566Y177306D01*
X117104Y176604D01*
X117806Y176066D01*
X118623Y175727D01*
X119500Y175612D01*
X120377Y175727D01*
X121194Y176066D01*
X121896Y176604D01*
X122434Y177306D01*
X122773Y178123D01*
X122888Y179000D01*
X122773Y179877D01*
X122434Y180694D01*
X121896Y181396D01*
X121194Y181934D01*
X120377Y182273D01*
X119500Y182388D01*
D02*
G37*
G36*
X174634Y178100D02*
X171900D01*
Y175366D01*
X172325Y175422D01*
X173093Y175741D01*
X173753Y176247D01*
X174259Y176907D01*
X174578Y177675D01*
X174634Y178100D01*
D02*
G37*
G36*
X171100D02*
X168366D01*
X168422Y177675D01*
X168741Y176907D01*
X169247Y176247D01*
X169907Y175741D01*
X170675Y175422D01*
X171100Y175366D01*
Y178100D01*
D02*
G37*
G36*
X213900Y171574D02*
Y168900D01*
X216574D01*
X216520Y169309D01*
X216208Y170063D01*
X215711Y170711D01*
X215063Y171208D01*
X214309Y171520D01*
X213900Y171574D01*
D02*
G37*
G36*
X213100D02*
X212691Y171520D01*
X211937Y171208D01*
X211289Y170711D01*
X210792Y170063D01*
X210480Y169309D01*
X210426Y168900D01*
X213100D01*
Y171574D01*
D02*
G37*
G36*
X216574Y168100D02*
X213900D01*
Y165426D01*
X214309Y165480D01*
X215063Y165792D01*
X215711Y166289D01*
X216208Y166937D01*
X216520Y167691D01*
X216574Y168100D01*
D02*
G37*
G36*
X213100D02*
X210426D01*
X210480Y167691D01*
X210792Y166937D01*
X211289Y166289D01*
X211937Y165792D01*
X212691Y165480D01*
X213100Y165426D01*
Y168100D01*
D02*
G37*
G36*
X99500Y193972D02*
X98469Y193836D01*
X97508Y193438D01*
X96683Y192805D01*
X96050Y191980D01*
X95652Y191019D01*
X95516Y189988D01*
X95652Y188957D01*
X96050Y187997D01*
X96683Y187171D01*
X97508Y186539D01*
X98175Y186263D01*
Y182087D01*
X97806Y181934D01*
X97104Y181396D01*
X96566Y180694D01*
X96228Y179877D01*
X96112Y179000D01*
X96228Y178123D01*
X96566Y177306D01*
X97104Y176604D01*
X97806Y176066D01*
X98175Y175913D01*
Y172753D01*
X97747D01*
Y165247D01*
X105253D01*
Y167675D01*
X113987D01*
X114222Y167107D01*
X114823Y166323D01*
X115607Y165722D01*
X116520Y165344D01*
X117500Y165215D01*
X118480Y165344D01*
X119393Y165722D01*
X120177Y166323D01*
X120778Y167107D01*
X121156Y168020D01*
X121285Y169000D01*
X121156Y169980D01*
X120778Y170893D01*
X120177Y171677D01*
X119393Y172278D01*
X118480Y172656D01*
X117500Y172785D01*
X116520Y172656D01*
X115607Y172278D01*
X114823Y171677D01*
X114222Y170893D01*
X113987Y170326D01*
X105253D01*
Y172753D01*
X100826D01*
Y175913D01*
X101194Y176066D01*
X101896Y176604D01*
X102434Y177306D01*
X102772Y178123D01*
X102888Y179000D01*
X102772Y179877D01*
X102434Y180694D01*
X101896Y181396D01*
X101194Y181934D01*
X100826Y182087D01*
Y186263D01*
X101492Y186539D01*
X102317Y187171D01*
X102950Y187997D01*
X103348Y188957D01*
X103484Y189988D01*
X103348Y191019D01*
X102950Y191980D01*
X102317Y192805D01*
X101492Y193438D01*
X100531Y193836D01*
X99500Y193972D01*
D02*
G37*
G36*
X196500Y176825D02*
X180500D01*
X179993Y176725D01*
X179563Y176437D01*
X169460Y166334D01*
X137409D01*
X136902Y166234D01*
X136472Y165946D01*
X121851Y151326D01*
X120652D01*
X120294Y152190D01*
X119598Y153098D01*
X118691Y153794D01*
X117634Y154232D01*
X116500Y154381D01*
X115366Y154232D01*
X114310Y153794D01*
X113402Y153098D01*
X112706Y152190D01*
X112268Y151134D01*
X112119Y150000D01*
X112268Y148866D01*
X112706Y147810D01*
X113402Y146902D01*
X114310Y146206D01*
X115366Y145768D01*
X116500Y145619D01*
X117634Y145768D01*
X118691Y146206D01*
X119598Y146902D01*
X120294Y147810D01*
X120652Y148674D01*
X122400D01*
X122907Y148775D01*
X123337Y149063D01*
X137958Y163683D01*
X170009D01*
X170516Y163784D01*
X170946Y164072D01*
X181049Y174174D01*
X195951D01*
X200425Y169700D01*
X200285Y169361D01*
X200171Y168500D01*
X200285Y167639D01*
X200618Y166836D01*
X201146Y166146D01*
X201836Y165618D01*
X202639Y165285D01*
X203500Y165172D01*
X204362Y165285D01*
X205164Y165618D01*
X205854Y166146D01*
X206382Y166836D01*
X206715Y167639D01*
X206828Y168500D01*
X206715Y169361D01*
X206382Y170164D01*
X205854Y170854D01*
X205164Y171382D01*
X204362Y171715D01*
X203500Y171828D01*
X202639Y171715D01*
X202300Y171575D01*
X197437Y176437D01*
X197007Y176725D01*
X196500Y176825D01*
D02*
G37*
G36*
X11400Y167134D02*
Y164400D01*
X14134D01*
X14078Y164825D01*
X13759Y165593D01*
X13253Y166253D01*
X12593Y166759D01*
X11825Y167078D01*
X11400Y167134D01*
D02*
G37*
G36*
X10600D02*
X10175Y167078D01*
X9407Y166759D01*
X8747Y166253D01*
X8241Y165593D01*
X7922Y164825D01*
X7866Y164400D01*
X10600D01*
Y167134D01*
D02*
G37*
G36*
X21000Y167388D02*
X20123Y167272D01*
X19306Y166934D01*
X18604Y166396D01*
X18066Y165694D01*
X17728Y164877D01*
X17612Y164000D01*
X17728Y163123D01*
X18066Y162306D01*
X18604Y161604D01*
X19306Y161066D01*
X20123Y160728D01*
X21000Y160612D01*
X21877Y160728D01*
X22694Y161066D01*
X23396Y161604D01*
X23934Y162306D01*
X24087Y162674D01*
X28339D01*
X28410Y162504D01*
X28885Y161885D01*
X29504Y161410D01*
X30226Y161111D01*
X31000Y161009D01*
X31774Y161111D01*
X32495Y161410D01*
X33115Y161885D01*
X33590Y162504D01*
X33889Y163226D01*
X33991Y164000D01*
X33889Y164774D01*
X33590Y165496D01*
X33115Y166115D01*
X32495Y166590D01*
X31774Y166889D01*
X31000Y166991D01*
X30226Y166889D01*
X29504Y166590D01*
X28885Y166115D01*
X28410Y165496D01*
X28339Y165325D01*
X24087D01*
X23934Y165694D01*
X23396Y166396D01*
X22694Y166934D01*
X21877Y167272D01*
X21000Y167388D01*
D02*
G37*
G36*
X14134Y163600D02*
X11400D01*
Y160866D01*
X11825Y160922D01*
X12593Y161241D01*
X13253Y161747D01*
X13759Y162407D01*
X14078Y163175D01*
X14134Y163600D01*
D02*
G37*
G36*
X10600D02*
X7866D01*
X7922Y163175D01*
X8241Y162407D01*
X8747Y161747D01*
X9407Y161241D01*
X10175Y160922D01*
X10600Y160866D01*
Y163600D01*
D02*
G37*
G36*
X61000Y166991D02*
X60226Y166889D01*
X59504Y166590D01*
X58885Y166115D01*
X58410Y165496D01*
X58111Y164774D01*
X58009Y164000D01*
X58111Y163226D01*
X58181Y163056D01*
X52563Y157437D01*
X52275Y157007D01*
X52175Y156500D01*
Y140661D01*
X52004Y140590D01*
X51385Y140115D01*
X50910Y139496D01*
X50611Y138774D01*
X50509Y138000D01*
X50611Y137226D01*
X50910Y136504D01*
X51385Y135885D01*
X52004Y135410D01*
X52726Y135111D01*
X53500Y135009D01*
X54274Y135111D01*
X54996Y135410D01*
X55615Y135885D01*
X56090Y136504D01*
X56389Y137226D01*
X56491Y138000D01*
X56389Y138774D01*
X56090Y139496D01*
X55615Y140115D01*
X54996Y140590D01*
X54826Y140661D01*
Y155951D01*
X60056Y161181D01*
X60226Y161111D01*
X61000Y161009D01*
X61774Y161111D01*
X62495Y161410D01*
X63115Y161885D01*
X63590Y162504D01*
X63661Y162674D01*
X66451D01*
X71063Y158063D01*
X71493Y157775D01*
X72000Y157675D01*
X76626D01*
X76738Y157405D01*
X77245Y156745D01*
X77905Y156238D01*
X78675Y155919D01*
X79500Y155811D01*
X80326Y155919D01*
X81095Y156238D01*
X81755Y156745D01*
X82262Y157405D01*
X82373Y157675D01*
X86338D01*
Y155838D01*
X92662D01*
Y157675D01*
X97987D01*
X98222Y157107D01*
X98823Y156323D01*
X99607Y155722D01*
X100520Y155344D01*
X101500Y155215D01*
X102480Y155344D01*
X103393Y155722D01*
X104177Y156323D01*
X104778Y157107D01*
X105013Y157675D01*
X113747D01*
Y155247D01*
X121253D01*
Y162753D01*
X113747D01*
Y160326D01*
X105013D01*
X104778Y160893D01*
X104177Y161677D01*
X103393Y162278D01*
X102480Y162656D01*
X101500Y162785D01*
X100520Y162656D01*
X99607Y162278D01*
X98823Y161677D01*
X98222Y160893D01*
X97987Y160326D01*
X92662D01*
Y162162D01*
X86338D01*
Y160326D01*
X82373D01*
X82262Y160595D01*
X81755Y161255D01*
X81095Y161762D01*
X80326Y162081D01*
X79500Y162189D01*
X78675Y162081D01*
X77905Y161762D01*
X77245Y161255D01*
X76738Y160595D01*
X76626Y160326D01*
X72549D01*
X67937Y164937D01*
X67507Y165225D01*
X67000Y165325D01*
X63661D01*
X63590Y165496D01*
X63115Y166115D01*
X62495Y166590D01*
X61774Y166889D01*
X61000Y166991D01*
D02*
G37*
G36*
X43500Y154381D02*
X42366Y154232D01*
X41309Y153794D01*
X40402Y153098D01*
X39706Y152190D01*
X39348Y151326D01*
X27652D01*
X27294Y152190D01*
X26598Y153098D01*
X25690Y153794D01*
X24634Y154232D01*
X23500Y154381D01*
X22366Y154232D01*
X21309Y153794D01*
X20402Y153098D01*
X19706Y152190D01*
X19268Y151134D01*
X19119Y150000D01*
X19268Y148866D01*
X19706Y147810D01*
X20402Y146902D01*
X21309Y146206D01*
X22366Y145768D01*
X23500Y145619D01*
X24634Y145768D01*
X25690Y146206D01*
X26598Y146902D01*
X27294Y147810D01*
X27652Y148674D01*
X39348D01*
X39706Y147810D01*
X40402Y146902D01*
X41309Y146206D01*
X42175Y145848D01*
Y141087D01*
X41806Y140934D01*
X41104Y140396D01*
X40566Y139694D01*
X40227Y138877D01*
X40112Y138000D01*
X40227Y137123D01*
X40566Y136306D01*
X41104Y135604D01*
X41806Y135066D01*
X42623Y134728D01*
X43500Y134612D01*
X44377Y134728D01*
X44745Y134880D01*
X53063Y126563D01*
X53493Y126275D01*
X54000Y126174D01*
X82361D01*
X90972Y117563D01*
X91402Y117275D01*
X91910Y117174D01*
X107389D01*
X107896Y117275D01*
X108326Y117563D01*
X136420Y145657D01*
X140843D01*
Y154343D01*
X132157D01*
Y145657D01*
X132157D01*
X132307Y145293D01*
X106840Y119825D01*
X92459D01*
X83847Y128437D01*
X83417Y128725D01*
X82910Y128825D01*
X54549D01*
X46620Y136755D01*
X46773Y137123D01*
X46888Y138000D01*
X46773Y138877D01*
X46434Y139694D01*
X45896Y140396D01*
X45194Y140934D01*
X44826Y141087D01*
Y145848D01*
X45691Y146206D01*
X46598Y146902D01*
X47294Y147810D01*
X47732Y148866D01*
X47881Y150000D01*
X47732Y151134D01*
X47294Y152190D01*
X46598Y153098D01*
X45691Y153794D01*
X44634Y154232D01*
X43500Y154381D01*
D02*
G37*
G36*
X189000D02*
X187866Y154232D01*
X186810Y153794D01*
X185902Y153098D01*
X185206Y152190D01*
X184768Y151134D01*
X184619Y150000D01*
X184768Y148866D01*
X185206Y147810D01*
X185902Y146902D01*
X186810Y146206D01*
X187866Y145768D01*
X189000Y145619D01*
X190134Y145768D01*
X191191Y146206D01*
X192098Y146902D01*
X192794Y147810D01*
X193232Y148866D01*
X193381Y150000D01*
X193232Y151134D01*
X192794Y152190D01*
X192098Y153098D01*
X191191Y153794D01*
X190134Y154232D01*
X189000Y154381D01*
D02*
G37*
G36*
X169000D02*
X167866Y154232D01*
X166809Y153794D01*
X165902Y153098D01*
X165206Y152190D01*
X164768Y151134D01*
X164619Y150000D01*
X164768Y148866D01*
X165127Y148001D01*
X163063Y145937D01*
X162775Y145507D01*
X162674Y145000D01*
Y141087D01*
X162306Y140934D01*
X161604Y140396D01*
X161066Y139694D01*
X160728Y138877D01*
X160612Y138000D01*
X160728Y137123D01*
X161066Y136306D01*
X161604Y135604D01*
X162306Y135066D01*
X163123Y134728D01*
X164000Y134612D01*
X164877Y134728D01*
X165694Y135066D01*
X166396Y135604D01*
X166934Y136306D01*
X167272Y137123D01*
X167388Y138000D01*
X167272Y138877D01*
X166934Y139694D01*
X166396Y140396D01*
X165694Y140934D01*
X165325Y141087D01*
Y144451D01*
X167001Y146127D01*
X167866Y145768D01*
X169000Y145619D01*
X170134Y145768D01*
X171191Y146206D01*
X172098Y146902D01*
X172794Y147810D01*
X173232Y148866D01*
X173381Y150000D01*
X173232Y151134D01*
X172794Y152190D01*
X172098Y153098D01*
X171191Y153794D01*
X170134Y154232D01*
X169000Y154381D01*
D02*
G37*
G36*
X223500Y171491D02*
X222726Y171389D01*
X222005Y171090D01*
X221385Y170615D01*
X220910Y169995D01*
X220611Y169274D01*
X220509Y168500D01*
X220611Y167726D01*
X220910Y167005D01*
X221385Y166385D01*
X222005Y165910D01*
X222263Y165803D01*
Y165420D01*
X222364Y164913D01*
X222651Y164483D01*
X222674Y164460D01*
Y141087D01*
X222306Y140934D01*
X221604Y140396D01*
X221066Y139694D01*
X220727Y138877D01*
X220612Y138000D01*
X220727Y137123D01*
X221066Y136306D01*
X221604Y135604D01*
X222306Y135066D01*
X223123Y134728D01*
X224000Y134612D01*
X224877Y134728D01*
X225694Y135066D01*
X226396Y135604D01*
X226934Y136306D01*
X227273Y137123D01*
X227388Y138000D01*
X227273Y138877D01*
X226934Y139694D01*
X226396Y140396D01*
X225694Y140934D01*
X225325Y141087D01*
Y165009D01*
X225225Y165516D01*
X224985Y165875D01*
X224996Y165910D01*
X225615Y166385D01*
X226090Y167005D01*
X226389Y167726D01*
X226491Y168500D01*
X226389Y169274D01*
X226090Y169995D01*
X225615Y170615D01*
X224995Y171090D01*
X224274Y171389D01*
X223500Y171491D01*
D02*
G37*
G36*
X213344Y154343D02*
X204657D01*
Y145657D01*
X207675D01*
Y143000D01*
X207775Y142493D01*
X208063Y142063D01*
X210880Y139245D01*
X210728Y138877D01*
X210612Y138000D01*
X210728Y137123D01*
X211066Y136306D01*
X211604Y135604D01*
X212306Y135066D01*
X213123Y134728D01*
X214000Y134612D01*
X214877Y134728D01*
X215694Y135066D01*
X216396Y135604D01*
X216934Y136306D01*
X217272Y137123D01*
X217388Y138000D01*
X217272Y138877D01*
X216934Y139694D01*
X216396Y140396D01*
X215694Y140934D01*
X214877Y141272D01*
X214000Y141388D01*
X213123Y141272D01*
X212755Y141120D01*
X210326Y143549D01*
Y145657D01*
X213344D01*
Y154343D01*
D02*
G37*
G36*
X183500Y171828D02*
X182639Y171715D01*
X181836Y171382D01*
X181146Y170854D01*
X180617Y170164D01*
X180285Y169361D01*
X180172Y168500D01*
X180285Y167639D01*
X180617Y166836D01*
X181146Y166146D01*
X181836Y165618D01*
X182175Y165477D01*
Y160713D01*
X178063Y156602D01*
X177775Y156172D01*
X177674Y155664D01*
Y141087D01*
X177306Y140934D01*
X176604Y140396D01*
X176066Y139694D01*
X175727Y138877D01*
X175612Y138000D01*
X175727Y137123D01*
X175880Y136755D01*
X173063Y133937D01*
X172775Y133507D01*
X172675Y133000D01*
Y130661D01*
X172504Y130590D01*
X171885Y130115D01*
X171410Y129496D01*
X171111Y128774D01*
X171009Y128000D01*
X171111Y127226D01*
X171410Y126505D01*
X171885Y125885D01*
X172504Y125410D01*
X173226Y125111D01*
X174000Y125009D01*
X174774Y125111D01*
X174944Y125181D01*
X179674Y120451D01*
Y115549D01*
X174944Y110819D01*
X174774Y110889D01*
X174000Y110991D01*
X173226Y110889D01*
X172504Y110590D01*
X171885Y110115D01*
X171410Y109495D01*
X171111Y108774D01*
X171009Y108000D01*
X171111Y107226D01*
X171410Y106504D01*
X171885Y105885D01*
X172504Y105410D01*
X173226Y105111D01*
X174000Y105009D01*
X174774Y105111D01*
X175496Y105410D01*
X176115Y105885D01*
X176590Y106504D01*
X176889Y107226D01*
X176991Y108000D01*
X176889Y108774D01*
X176819Y108944D01*
X181937Y114063D01*
X182225Y114493D01*
X182325Y115000D01*
Y121000D01*
X182225Y121507D01*
X181937Y121937D01*
X176819Y127056D01*
X176889Y127226D01*
X176991Y128000D01*
X176889Y128774D01*
X176590Y129496D01*
X176115Y130115D01*
X175496Y130590D01*
X175326Y130661D01*
Y132451D01*
X177755Y134880D01*
X178123Y134728D01*
X179000Y134612D01*
X179877Y134728D01*
X180694Y135066D01*
X181396Y135604D01*
X181934Y136306D01*
X182273Y137123D01*
X182388Y138000D01*
X182273Y138877D01*
X181934Y139694D01*
X181396Y140396D01*
X180694Y140934D01*
X180325Y141087D01*
Y155115D01*
X184437Y159227D01*
X184725Y159657D01*
X184826Y160164D01*
Y165477D01*
X185164Y165618D01*
X185854Y166146D01*
X186382Y166836D01*
X186715Y167639D01*
X186828Y168500D01*
X186715Y169361D01*
X186382Y170164D01*
X185854Y170854D01*
X185164Y171382D01*
X184362Y171715D01*
X183500Y171828D01*
D02*
G37*
G36*
X154000Y141388D02*
X153123Y141272D01*
X152306Y140934D01*
X151604Y140396D01*
X151066Y139694D01*
X150727Y138877D01*
X150612Y138000D01*
X150727Y137123D01*
X151066Y136306D01*
X151604Y135604D01*
X152306Y135066D01*
X153123Y134728D01*
X154000Y134612D01*
X154877Y134728D01*
X155694Y135066D01*
X156396Y135604D01*
X156934Y136306D01*
X157273Y137123D01*
X157388Y138000D01*
X157273Y138877D01*
X156934Y139694D01*
X156396Y140396D01*
X155694Y140934D01*
X154877Y141272D01*
X154000Y141388D01*
D02*
G37*
G36*
X116500D02*
X115623Y141272D01*
X114806Y140934D01*
X114104Y140396D01*
X113566Y139694D01*
X113227Y138877D01*
X113112Y138000D01*
X113227Y137123D01*
X113566Y136306D01*
X114104Y135604D01*
X114806Y135066D01*
X115623Y134728D01*
X116500Y134612D01*
X117377Y134728D01*
X118194Y135066D01*
X118896Y135604D01*
X119434Y136306D01*
X119773Y137123D01*
X119888Y138000D01*
X119773Y138877D01*
X119434Y139694D01*
X118896Y140396D01*
X118194Y140934D01*
X117377Y141272D01*
X116500Y141388D01*
D02*
G37*
G36*
X96500Y154381D02*
X95366Y154232D01*
X94310Y153794D01*
X93402Y153098D01*
X92706Y152190D01*
X92268Y151134D01*
X92119Y150000D01*
X92268Y148866D01*
X92706Y147810D01*
X93402Y146902D01*
X94310Y146206D01*
X95174Y145848D01*
Y141087D01*
X94806Y140934D01*
X94104Y140396D01*
X93566Y139694D01*
X93227Y138877D01*
X93112Y138000D01*
X93227Y137123D01*
X93566Y136306D01*
X94104Y135604D01*
X94806Y135066D01*
X95623Y134728D01*
X96500Y134612D01*
X97377Y134728D01*
X98194Y135066D01*
X98896Y135604D01*
X99434Y136306D01*
X99773Y137123D01*
X99888Y138000D01*
X99773Y138877D01*
X99434Y139694D01*
X98896Y140396D01*
X98194Y140934D01*
X97825Y141087D01*
Y145848D01*
X98690Y146206D01*
X99598Y146902D01*
X100294Y147810D01*
X100732Y148866D01*
X100881Y150000D01*
X100732Y151134D01*
X100294Y152190D01*
X99598Y153098D01*
X98690Y153794D01*
X97634Y154232D01*
X96500Y154381D01*
D02*
G37*
G36*
X126500Y130991D02*
X125726Y130889D01*
X125004Y130590D01*
X124385Y130115D01*
X123910Y129496D01*
X123611Y128774D01*
X123509Y128000D01*
X123611Y127226D01*
X123910Y126505D01*
X124385Y125885D01*
X125004Y125410D01*
X125726Y125111D01*
X126500Y125009D01*
X127274Y125111D01*
X127996Y125410D01*
X128615Y125885D01*
X129090Y126505D01*
X129389Y127226D01*
X129491Y128000D01*
X129389Y128774D01*
X129090Y129496D01*
X128615Y130115D01*
X127996Y130590D01*
X127274Y130889D01*
X126500Y130991D01*
D02*
G37*
G36*
X67844Y154343D02*
X59157D01*
Y145657D01*
X62174D01*
Y141087D01*
X61806Y140934D01*
X61104Y140396D01*
X60566Y139694D01*
X60228Y138877D01*
X60112Y138000D01*
X60228Y137123D01*
X60566Y136306D01*
X61104Y135604D01*
X61806Y135066D01*
X62623Y134728D01*
X63500Y134612D01*
X64377Y134728D01*
X65194Y135066D01*
X65896Y135604D01*
X66434Y136306D01*
X66587Y136674D01*
X85951D01*
X93681Y128944D01*
X93611Y128774D01*
X93509Y128000D01*
X93611Y127226D01*
X93910Y126505D01*
X94385Y125885D01*
X95004Y125410D01*
X95726Y125111D01*
X96500Y125009D01*
X97274Y125111D01*
X97996Y125410D01*
X98615Y125885D01*
X99090Y126505D01*
X99389Y127226D01*
X99491Y128000D01*
X99389Y128774D01*
X99090Y129496D01*
X98615Y130115D01*
X97996Y130590D01*
X97274Y130889D01*
X96500Y130991D01*
X95726Y130889D01*
X95556Y130819D01*
X87437Y138937D01*
X87007Y139225D01*
X86500Y139325D01*
X66587D01*
X66434Y139694D01*
X65896Y140396D01*
X65194Y140934D01*
X64825Y141087D01*
Y145657D01*
X67844D01*
Y154343D01*
D02*
G37*
G36*
X193500Y171828D02*
X192639Y171715D01*
X191836Y171382D01*
X191146Y170854D01*
X190618Y170164D01*
X190285Y169361D01*
X190172Y168500D01*
X190285Y167639D01*
X190618Y166836D01*
X191146Y166146D01*
X191836Y165618D01*
X192174Y165477D01*
Y160112D01*
X192275Y159605D01*
X192563Y159175D01*
X197675Y154063D01*
Y141087D01*
X197306Y140934D01*
X196604Y140396D01*
X196066Y139694D01*
X195728Y138877D01*
X195612Y138000D01*
X195728Y137123D01*
X196066Y136306D01*
X196604Y135604D01*
X197306Y135066D01*
X198123Y134728D01*
X199000Y134612D01*
X199877Y134728D01*
X200245Y134880D01*
X202675Y132451D01*
Y130661D01*
X202504Y130590D01*
X201885Y130115D01*
X201410Y129496D01*
X201111Y128774D01*
X201009Y128000D01*
X201111Y127226D01*
X201410Y126505D01*
X201885Y125885D01*
X202504Y125410D01*
X202675Y125339D01*
Y120661D01*
X202504Y120590D01*
X201885Y120115D01*
X201410Y119495D01*
X201111Y118774D01*
X201009Y118000D01*
X201111Y117226D01*
X201410Y116505D01*
X201885Y115885D01*
X202504Y115410D01*
X203226Y115111D01*
X204000Y115009D01*
X204774Y115111D01*
X205496Y115410D01*
X206115Y115885D01*
X206590Y116505D01*
X206889Y117226D01*
X206991Y118000D01*
X206889Y118774D01*
X206590Y119495D01*
X206115Y120115D01*
X205496Y120590D01*
X205326Y120661D01*
Y125339D01*
X205496Y125410D01*
X206115Y125885D01*
X206590Y126505D01*
X206889Y127226D01*
X206991Y128000D01*
X206889Y128774D01*
X206590Y129496D01*
X206115Y130115D01*
X205496Y130590D01*
X205326Y130661D01*
Y133000D01*
X205225Y133507D01*
X204937Y133937D01*
X202120Y136755D01*
X202273Y137123D01*
X202388Y138000D01*
X202273Y138877D01*
X201934Y139694D01*
X201396Y140396D01*
X200694Y140934D01*
X200325Y141087D01*
Y154612D01*
X200225Y155119D01*
X199937Y155549D01*
X194825Y160661D01*
Y165477D01*
X195164Y165618D01*
X195854Y166146D01*
X196382Y166836D01*
X196715Y167639D01*
X196828Y168500D01*
X196715Y169361D01*
X196382Y170164D01*
X195854Y170854D01*
X195164Y171382D01*
X194361Y171715D01*
X193500Y171828D01*
D02*
G37*
G36*
X167500Y125826D02*
X160500D01*
X159993Y125725D01*
X159563Y125437D01*
X155245Y121120D01*
X154877Y121273D01*
X154000Y121388D01*
X153123Y121273D01*
X152306Y120934D01*
X151604Y120396D01*
X151066Y119694D01*
X150727Y118877D01*
X150612Y118000D01*
X150727Y117123D01*
X151066Y116306D01*
X151604Y115604D01*
X152306Y115066D01*
X153123Y114727D01*
X154000Y114612D01*
X154877Y114727D01*
X155694Y115066D01*
X156396Y115604D01*
X156934Y116306D01*
X157273Y117123D01*
X157388Y118000D01*
X157273Y118877D01*
X157120Y119245D01*
X161049Y123175D01*
X166951D01*
X171181Y118944D01*
X171111Y118774D01*
X171009Y118000D01*
X171111Y117226D01*
X171410Y116505D01*
X171885Y115885D01*
X172504Y115410D01*
X173226Y115111D01*
X174000Y115009D01*
X174774Y115111D01*
X175496Y115410D01*
X176115Y115885D01*
X176590Y116505D01*
X176889Y117226D01*
X176991Y118000D01*
X176889Y118774D01*
X176590Y119495D01*
X176115Y120115D01*
X175496Y120590D01*
X174774Y120889D01*
X174000Y120991D01*
X173226Y120889D01*
X173056Y120819D01*
X168437Y125437D01*
X168007Y125725D01*
X167500Y125826D01*
D02*
G37*
G36*
X63500Y121388D02*
X62623Y121273D01*
X61806Y120934D01*
X61104Y120396D01*
X60566Y119694D01*
X60228Y118877D01*
X60112Y118000D01*
X60228Y117123D01*
X60566Y116306D01*
X61104Y115604D01*
X61435Y115350D01*
X61468Y114851D01*
X56456Y109840D01*
X55793Y109883D01*
X55615Y110115D01*
X54996Y110590D01*
X54274Y110889D01*
X53500Y110991D01*
X52726Y110889D01*
X52004Y110590D01*
X51385Y110115D01*
X51207Y109883D01*
X50544Y109840D01*
X45532Y114851D01*
X45565Y115350D01*
X45896Y115604D01*
X46434Y116306D01*
X46773Y117123D01*
X46888Y118000D01*
X46773Y118877D01*
X46434Y119694D01*
X45896Y120396D01*
X45194Y120934D01*
X44377Y121273D01*
X43500Y121388D01*
X42623Y121273D01*
X41806Y120934D01*
X41104Y120396D01*
X40566Y119694D01*
X40227Y118877D01*
X40112Y118000D01*
X40227Y117123D01*
X40566Y116306D01*
X41104Y115604D01*
X41806Y115066D01*
X42549Y114758D01*
Y114634D01*
X42650Y114127D01*
X42937Y113697D01*
X49483Y107151D01*
X49913Y106864D01*
X50420Y106763D01*
X50802D01*
X50910Y106504D01*
X51385Y105885D01*
X52004Y105410D01*
X52726Y105111D01*
X53500Y105009D01*
X54274Y105111D01*
X54996Y105410D01*
X55615Y105885D01*
X56090Y106504D01*
X56198Y106763D01*
X56580D01*
X57087Y106864D01*
X57517Y107151D01*
X64063Y113697D01*
X64350Y114127D01*
X64451Y114634D01*
Y114758D01*
X65194Y115066D01*
X65896Y115604D01*
X66434Y116306D01*
X66773Y117123D01*
X66888Y118000D01*
X66773Y118877D01*
X66434Y119694D01*
X65896Y120396D01*
X65194Y120934D01*
X64377Y121273D01*
X63500Y121388D01*
D02*
G37*
G36*
X214000D02*
X213123Y121273D01*
X212306Y120934D01*
X211604Y120396D01*
X211066Y119694D01*
X210728Y118877D01*
X210612Y118000D01*
X210728Y117123D01*
X211066Y116306D01*
X211604Y115604D01*
X212306Y115066D01*
X212674Y114913D01*
Y111087D01*
X212306Y110934D01*
X211604Y110396D01*
X211066Y109694D01*
X210913Y109326D01*
X206661D01*
X206590Y109495D01*
X206115Y110115D01*
X205496Y110590D01*
X204774Y110889D01*
X204000Y110991D01*
X203226Y110889D01*
X202504Y110590D01*
X201885Y110115D01*
X201410Y109495D01*
X201111Y108774D01*
X201009Y108000D01*
X201111Y107226D01*
X201410Y106504D01*
X201885Y105885D01*
X202504Y105410D01*
X202675Y105339D01*
Y100661D01*
X202504Y100590D01*
X201885Y100115D01*
X201410Y99496D01*
X201111Y98774D01*
X201009Y98000D01*
X201111Y97226D01*
X201410Y96504D01*
X201885Y95885D01*
X202504Y95410D01*
X203226Y95111D01*
X204000Y95009D01*
X204774Y95111D01*
X205496Y95410D01*
X206115Y95885D01*
X206590Y96504D01*
X206889Y97226D01*
X206991Y98000D01*
X206889Y98774D01*
X206590Y99496D01*
X206115Y100115D01*
X205496Y100590D01*
X205326Y100661D01*
Y105339D01*
X205496Y105410D01*
X206115Y105885D01*
X206590Y106504D01*
X206661Y106675D01*
X210913D01*
X211066Y106306D01*
X211604Y105604D01*
X212306Y105066D01*
X213123Y104727D01*
X214000Y104612D01*
X214877Y104727D01*
X215694Y105066D01*
X216396Y105604D01*
X216934Y106306D01*
X217272Y107123D01*
X217388Y108000D01*
X217272Y108877D01*
X216934Y109694D01*
X216396Y110396D01*
X215694Y110934D01*
X215325Y111087D01*
Y114913D01*
X215694Y115066D01*
X216396Y115604D01*
X216934Y116306D01*
X217272Y117123D01*
X217388Y118000D01*
X217272Y118877D01*
X216934Y119694D01*
X216396Y120396D01*
X215694Y120934D01*
X214877Y121273D01*
X214000Y121388D01*
D02*
G37*
G36*
X224000D02*
X223123Y121273D01*
X222306Y120934D01*
X221604Y120396D01*
X221066Y119694D01*
X220727Y118877D01*
X220612Y118000D01*
X220727Y117123D01*
X221066Y116306D01*
X221604Y115604D01*
X222306Y115066D01*
X222674Y114913D01*
Y98549D01*
X215245Y91120D01*
X214877Y91272D01*
X214000Y91388D01*
X213123Y91272D01*
X212306Y90934D01*
X211604Y90396D01*
X211066Y89694D01*
X210913Y89325D01*
X206661D01*
X206590Y89495D01*
X206115Y90115D01*
X205496Y90590D01*
X204774Y90889D01*
X204000Y90991D01*
X203226Y90889D01*
X202504Y90590D01*
X201885Y90115D01*
X201410Y89495D01*
X201111Y88774D01*
X201009Y88000D01*
X201111Y87226D01*
X201410Y86505D01*
X201885Y85885D01*
X202504Y85410D01*
X203226Y85111D01*
X204000Y85009D01*
X204774Y85111D01*
X205496Y85410D01*
X206115Y85885D01*
X206590Y86505D01*
X206661Y86674D01*
X210913D01*
X211066Y86306D01*
X211604Y85604D01*
X212306Y85066D01*
X213123Y84728D01*
X214000Y84612D01*
X214877Y84728D01*
X215694Y85066D01*
X216396Y85604D01*
X216934Y86306D01*
X217272Y87123D01*
X217388Y88000D01*
X217272Y88877D01*
X217120Y89245D01*
X224937Y97063D01*
X225225Y97493D01*
X225325Y98000D01*
Y114913D01*
X225694Y115066D01*
X226396Y115604D01*
X226934Y116306D01*
X227273Y117123D01*
X227388Y118000D01*
X227273Y118877D01*
X226934Y119694D01*
X226396Y120396D01*
X225694Y120934D01*
X224877Y121273D01*
X224000Y121388D01*
D02*
G37*
G36*
X125893Y90435D02*
Y87900D01*
X128428D01*
X128378Y88273D01*
X128080Y88994D01*
X127605Y89613D01*
X126986Y90087D01*
X126266Y90386D01*
X125893Y90435D01*
D02*
G37*
G36*
X125093D02*
X124719Y90386D01*
X123999Y90087D01*
X123380Y89613D01*
X122905Y88994D01*
X122607Y88273D01*
X122558Y87900D01*
X125093D01*
Y90435D01*
D02*
G37*
G36*
X164000Y121388D02*
X163123Y121273D01*
X162306Y120934D01*
X161604Y120396D01*
X161066Y119694D01*
X160728Y118877D01*
X160612Y118000D01*
X160728Y117123D01*
X161066Y116306D01*
X161604Y115604D01*
X162306Y115066D01*
X162674Y114913D01*
Y108000D01*
X162775Y107493D01*
X163063Y107063D01*
X171181Y98944D01*
X171111Y98774D01*
X171009Y98000D01*
X171111Y97226D01*
X171410Y96504D01*
X171885Y95885D01*
X172504Y95410D01*
X172675Y95339D01*
Y90661D01*
X172504Y90590D01*
X171885Y90115D01*
X171410Y89495D01*
X171111Y88774D01*
X171009Y88000D01*
X171111Y87226D01*
X171410Y86505D01*
X171885Y85885D01*
X172504Y85410D01*
X173226Y85111D01*
X174000Y85009D01*
X174774Y85111D01*
X175496Y85410D01*
X176115Y85885D01*
X176590Y86505D01*
X176889Y87226D01*
X176991Y88000D01*
X176889Y88774D01*
X176590Y89495D01*
X176115Y90115D01*
X175496Y90590D01*
X175326Y90661D01*
Y95339D01*
X175496Y95410D01*
X176115Y95885D01*
X176590Y96504D01*
X176889Y97226D01*
X176991Y98000D01*
X176889Y98774D01*
X176590Y99496D01*
X176115Y100115D01*
X175496Y100590D01*
X174774Y100889D01*
X174000Y100991D01*
X173226Y100889D01*
X173056Y100819D01*
X165325Y108549D01*
Y114913D01*
X165694Y115066D01*
X166396Y115604D01*
X166934Y116306D01*
X167272Y117123D01*
X167388Y118000D01*
X167272Y118877D01*
X166934Y119694D01*
X166396Y120396D01*
X165694Y120934D01*
X164877Y121273D01*
X164000Y121388D01*
D02*
G37*
G36*
X128428Y87100D02*
X125893D01*
Y84565D01*
X126266Y84614D01*
X126986Y84913D01*
X127605Y85387D01*
X128080Y86006D01*
X128378Y86727D01*
X128428Y87100D01*
D02*
G37*
G36*
X125093D02*
X122558D01*
X122607Y86727D01*
X122905Y86006D01*
X123380Y85387D01*
X123999Y84913D01*
X124719Y84614D01*
X125093Y84565D01*
Y87100D01*
D02*
G37*
G36*
X138500Y80689D02*
X137674Y80581D01*
X136905Y80262D01*
X136495Y79947D01*
X128655D01*
Y80662D01*
X122331D01*
Y74338D01*
X128655D01*
Y75053D01*
X136495D01*
X136905Y74738D01*
X137674Y74419D01*
X138500Y74311D01*
X139325Y74419D01*
X140095Y74738D01*
X140755Y75245D01*
X141262Y75905D01*
X141581Y76674D01*
X141689Y77500D01*
X141581Y78325D01*
X141262Y79095D01*
X140755Y79755D01*
X140095Y80262D01*
X139325Y80581D01*
X138500Y80689D01*
D02*
G37*
G36*
X148900Y80435D02*
Y77900D01*
X151435D01*
X151386Y78273D01*
X151087Y78994D01*
X150612Y79612D01*
X149994Y80087D01*
X149273Y80386D01*
X148900Y80435D01*
D02*
G37*
G36*
X148100D02*
X147727Y80386D01*
X147006Y80087D01*
X146388Y79612D01*
X145913Y78994D01*
X145614Y78273D01*
X145565Y77900D01*
X148100D01*
Y80435D01*
D02*
G37*
G36*
X92900Y79435D02*
Y76900D01*
X95435D01*
X95386Y77273D01*
X95087Y77994D01*
X94612Y78613D01*
X93994Y79087D01*
X93273Y79386D01*
X92900Y79435D01*
D02*
G37*
G36*
X92100D02*
X91727Y79386D01*
X91006Y79087D01*
X90387Y78613D01*
X89913Y77994D01*
X89614Y77273D01*
X89565Y76900D01*
X92100D01*
Y79435D01*
D02*
G37*
G36*
X151435Y77100D02*
X148900D01*
Y74565D01*
X149273Y74614D01*
X149994Y74913D01*
X150612Y75388D01*
X151087Y76006D01*
X151386Y76727D01*
X151435Y77100D01*
D02*
G37*
G36*
X148100D02*
X145565D01*
X145614Y76727D01*
X145913Y76006D01*
X146388Y75388D01*
X147006Y74913D01*
X147727Y74614D01*
X148100Y74565D01*
Y77100D01*
D02*
G37*
G36*
X95435Y76100D02*
X92900D01*
Y73565D01*
X93273Y73614D01*
X93994Y73913D01*
X94612Y74388D01*
X95087Y75006D01*
X95386Y75727D01*
X95435Y76100D01*
D02*
G37*
G36*
X92100D02*
X89565D01*
X89614Y75727D01*
X89913Y75006D01*
X90387Y74388D01*
X91006Y73913D01*
X91727Y73614D01*
X92100Y73565D01*
Y76100D01*
D02*
G37*
G36*
X72500Y79689D02*
X71675Y79581D01*
X70905Y79262D01*
X70245Y78755D01*
X69738Y78095D01*
X69419Y77325D01*
X69311Y76500D01*
X69419Y75674D01*
X69738Y74905D01*
X70245Y74245D01*
X70905Y73738D01*
X71675Y73419D01*
X72500Y73311D01*
X73326Y73419D01*
X74095Y73738D01*
X74755Y74245D01*
X75262Y74905D01*
X75581Y75674D01*
X75689Y76500D01*
X75581Y77325D01*
X75262Y78095D01*
X74755Y78755D01*
X74095Y79262D01*
X73326Y79581D01*
X72500Y79689D01*
D02*
G37*
G36*
X158500Y80689D02*
X157675Y80581D01*
X156905Y80262D01*
X156245Y79755D01*
X155738Y79095D01*
X155419Y78325D01*
X155311Y77500D01*
X155419Y76674D01*
X155738Y75905D01*
X156053Y75495D01*
Y67443D01*
X153772Y65162D01*
X150908D01*
Y64447D01*
X139829D01*
X139194Y64934D01*
X138377Y65272D01*
X137500Y65388D01*
X136623Y65272D01*
X135806Y64934D01*
X135171Y64447D01*
X129732D01*
X129164Y64883D01*
X128361Y65215D01*
X127500Y65329D01*
X126638Y65215D01*
X125836Y64883D01*
X125146Y64354D01*
X124618Y63664D01*
X124285Y62862D01*
X124171Y62000D01*
X124285Y61138D01*
X124618Y60336D01*
X125146Y59646D01*
X125836Y59117D01*
X126638Y58785D01*
X127500Y58671D01*
X128361Y58785D01*
X129164Y59117D01*
X129732Y59553D01*
X135171D01*
X135806Y59066D01*
X136623Y58728D01*
X137500Y58612D01*
X138377Y58728D01*
X139194Y59066D01*
X139829Y59553D01*
X150908D01*
Y58838D01*
X157232D01*
Y61701D01*
X160230Y64699D01*
X160761Y65493D01*
X160947Y66430D01*
Y75495D01*
X161262Y75905D01*
X161581Y76674D01*
X161689Y77500D01*
X161581Y78325D01*
X161262Y79095D01*
X160755Y79755D01*
X160095Y80262D01*
X159326Y80581D01*
X158500Y80689D01*
D02*
G37*
G36*
X82500Y79689D02*
X81674Y79581D01*
X80905Y79262D01*
X80245Y78755D01*
X79738Y78095D01*
X79419Y77325D01*
X79311Y76500D01*
X79419Y75674D01*
X79738Y74905D01*
X80245Y74245D01*
X80905Y73738D01*
X81174Y73627D01*
Y67000D01*
X81275Y66493D01*
X81563Y66063D01*
X84681Y62944D01*
X84611Y62774D01*
X84509Y62000D01*
X84611Y61226D01*
X84910Y60505D01*
X85385Y59885D01*
X86005Y59410D01*
X86726Y59111D01*
X87500Y59009D01*
X88274Y59111D01*
X88995Y59410D01*
X89615Y59885D01*
X90090Y60505D01*
X90389Y61226D01*
X90491Y62000D01*
X90389Y62774D01*
X90090Y63495D01*
X89615Y64115D01*
X88995Y64590D01*
X88274Y64889D01*
X87500Y64991D01*
X86726Y64889D01*
X86556Y64819D01*
X83825Y67549D01*
Y73627D01*
X84095Y73738D01*
X84755Y74245D01*
X85262Y74905D01*
X85581Y75674D01*
X85689Y76500D01*
X85581Y77325D01*
X85262Y78095D01*
X84755Y78755D01*
X84095Y79262D01*
X83325Y79581D01*
X82500Y79689D01*
D02*
G37*
G36*
X97500Y65329D02*
X96639Y65215D01*
X95836Y64883D01*
X95146Y64354D01*
X94617Y63664D01*
X94285Y62862D01*
X94172Y62000D01*
X94285Y61138D01*
X94617Y60336D01*
X95146Y59646D01*
X95836Y59117D01*
X96639Y58785D01*
X97500Y58671D01*
X98361Y58785D01*
X99164Y59117D01*
X99854Y59646D01*
X100383Y60336D01*
X100715Y61138D01*
X100829Y62000D01*
X100715Y62862D01*
X100383Y63664D01*
X99854Y64354D01*
X99164Y64883D01*
X98361Y65215D01*
X97500Y65329D01*
D02*
G37*
G36*
X154470Y54935D02*
Y52400D01*
X157005D01*
X156956Y52773D01*
X156658Y53494D01*
X156183Y54112D01*
X155564Y54587D01*
X154844Y54886D01*
X154470Y54935D01*
D02*
G37*
G36*
X153670D02*
X153297Y54886D01*
X152576Y54587D01*
X151958Y54112D01*
X151483Y53494D01*
X151185Y52773D01*
X151135Y52400D01*
X153670D01*
Y54935D01*
D02*
G37*
G36*
X157005Y51600D02*
X154470D01*
Y49065D01*
X154844Y49114D01*
X155564Y49413D01*
X156183Y49887D01*
X156658Y50506D01*
X156956Y51227D01*
X157005Y51600D01*
D02*
G37*
G36*
X153670D02*
X151135D01*
X151185Y51227D01*
X151483Y50506D01*
X151958Y49887D01*
X152576Y49413D01*
X153297Y49114D01*
X153670Y49065D01*
Y51600D01*
D02*
G37*
G36*
X127500Y55329D02*
X126638Y55215D01*
X125836Y54883D01*
X125146Y54354D01*
X124618Y53664D01*
X124285Y52861D01*
X124171Y52000D01*
X124285Y51139D01*
X124618Y50336D01*
X125146Y49646D01*
X125836Y49117D01*
X126638Y48785D01*
X127500Y48671D01*
X128361Y48785D01*
X129164Y49117D01*
X129854Y49646D01*
X130383Y50336D01*
X130715Y51139D01*
X130828Y52000D01*
X130715Y52861D01*
X130383Y53664D01*
X129854Y54354D01*
X129164Y54883D01*
X128361Y55215D01*
X127500Y55329D01*
D02*
G37*
G36*
X77500Y64991D02*
X76726Y64889D01*
X76004Y64590D01*
X75385Y64115D01*
X74910Y63495D01*
X74611Y62774D01*
X74509Y62000D01*
X74611Y61226D01*
X74910Y60505D01*
X75385Y59885D01*
X76004Y59410D01*
X76726Y59111D01*
X77500Y59009D01*
X78274Y59111D01*
X78444Y59181D01*
X86174Y51451D01*
Y34661D01*
X86005Y34590D01*
X85385Y34115D01*
X84910Y33496D01*
X84611Y32774D01*
X84509Y32000D01*
X84611Y31226D01*
X84910Y30505D01*
X85385Y29885D01*
X86005Y29410D01*
X86726Y29111D01*
X87500Y29009D01*
X88274Y29111D01*
X88995Y29410D01*
X89615Y29885D01*
X90090Y30505D01*
X90389Y31226D01*
X90491Y32000D01*
X90389Y32774D01*
X90090Y33496D01*
X89615Y34115D01*
X88995Y34590D01*
X88826Y34661D01*
Y50674D01*
X94477D01*
X94617Y50336D01*
X95146Y49646D01*
X95836Y49117D01*
X96639Y48785D01*
X97500Y48671D01*
X98361Y48785D01*
X99164Y49117D01*
X99854Y49646D01*
X100383Y50336D01*
X100715Y51139D01*
X100829Y52000D01*
X100715Y52861D01*
X100383Y53664D01*
X99854Y54354D01*
X99164Y54883D01*
X98361Y55215D01*
X97500Y55329D01*
X96639Y55215D01*
X95836Y54883D01*
X95146Y54354D01*
X94617Y53664D01*
X94477Y53325D01*
X88049D01*
X80319Y61056D01*
X80389Y61226D01*
X80491Y62000D01*
X80389Y62774D01*
X80090Y63495D01*
X79615Y64115D01*
X78996Y64590D01*
X78274Y64889D01*
X77500Y64991D01*
D02*
G37*
G36*
X137900Y45134D02*
Y42400D01*
X140634D01*
X140578Y42825D01*
X140259Y43593D01*
X139753Y44253D01*
X139093Y44759D01*
X138325Y45078D01*
X137900Y45134D01*
D02*
G37*
G36*
X137100D02*
X136675Y45078D01*
X135907Y44759D01*
X135247Y44253D01*
X134741Y43593D01*
X134422Y42825D01*
X134366Y42400D01*
X137100D01*
Y45134D01*
D02*
G37*
G36*
X140634Y41600D02*
X137900D01*
Y38866D01*
X138325Y38922D01*
X139093Y39241D01*
X139753Y39747D01*
X140259Y40407D01*
X140578Y41175D01*
X140634Y41600D01*
D02*
G37*
G36*
X137100D02*
X134366D01*
X134422Y41175D01*
X134741Y40407D01*
X135247Y39747D01*
X135907Y39241D01*
X136675Y38922D01*
X137100Y38866D01*
Y41600D01*
D02*
G37*
G36*
X127500Y45329D02*
X126638Y45215D01*
X125836Y44883D01*
X125146Y44354D01*
X124618Y43664D01*
X124285Y42862D01*
X124171Y42000D01*
X124285Y41138D01*
X124618Y40336D01*
X125146Y39646D01*
X125836Y39118D01*
X126638Y38785D01*
X127500Y38671D01*
X128361Y38785D01*
X129164Y39118D01*
X129854Y39646D01*
X130383Y40336D01*
X130715Y41138D01*
X130828Y42000D01*
X130715Y42862D01*
X130383Y43664D01*
X129854Y44354D01*
X129164Y44883D01*
X128361Y45215D01*
X127500Y45329D01*
D02*
G37*
G36*
X97900Y35074D02*
Y32400D01*
X100574D01*
X100520Y32809D01*
X100208Y33563D01*
X99711Y34211D01*
X99063Y34708D01*
X98309Y35020D01*
X97900Y35074D01*
D02*
G37*
G36*
X97100D02*
X96691Y35020D01*
X95937Y34708D01*
X95289Y34211D01*
X94792Y33563D01*
X94480Y32809D01*
X94426Y32400D01*
X97100D01*
Y35074D01*
D02*
G37*
G36*
X77500Y34991D02*
X76726Y34889D01*
X76004Y34590D01*
X75385Y34115D01*
X74910Y33496D01*
X74839Y33325D01*
X50716D01*
X50209Y33225D01*
X49779Y32937D01*
X44587Y27746D01*
X44300Y27316D01*
X44199Y26808D01*
Y18351D01*
X42362D01*
Y12027D01*
X48687D01*
Y18351D01*
X46850D01*
Y26259D01*
X51265Y30674D01*
X74839D01*
X74910Y30505D01*
X75385Y29885D01*
X76004Y29410D01*
X76726Y29111D01*
X77500Y29009D01*
X78274Y29111D01*
X78996Y29410D01*
X79615Y29885D01*
X80090Y30505D01*
X80389Y31226D01*
X80491Y32000D01*
X80389Y32774D01*
X80090Y33496D01*
X79615Y34115D01*
X78996Y34590D01*
X78274Y34889D01*
X77500Y34991D01*
D02*
G37*
G36*
X100574Y31600D02*
X97900D01*
Y28926D01*
X98309Y28980D01*
X99063Y29292D01*
X99711Y29789D01*
X100208Y30437D01*
X100520Y31191D01*
X100574Y31600D01*
D02*
G37*
G36*
X97100D02*
X94426D01*
X94480Y31191D01*
X94792Y30437D01*
X95289Y29789D01*
X95937Y29292D01*
X96691Y28980D01*
X97100Y28926D01*
Y31600D01*
D02*
G37*
G36*
X127500Y35329D02*
X126638Y35215D01*
X125836Y34883D01*
X125146Y34354D01*
X124618Y33664D01*
X124285Y32862D01*
X124171Y32000D01*
X124285Y31139D01*
X124618Y30336D01*
X125146Y29646D01*
X125836Y29118D01*
X126638Y28785D01*
X127500Y28672D01*
X128361Y28785D01*
X129164Y29118D01*
X129854Y29646D01*
X130383Y30336D01*
X130523Y30674D01*
X138451D01*
X149313Y19813D01*
X149005Y19070D01*
X148865Y18000D01*
X149005Y16930D01*
X149419Y15932D01*
X150076Y15076D01*
X150932Y14419D01*
X151930Y14006D01*
X153000Y13865D01*
X154070Y14006D01*
X155068Y14419D01*
X155924Y15076D01*
X156581Y15932D01*
X156994Y16930D01*
X157135Y18000D01*
X156994Y19070D01*
X156581Y20068D01*
X155924Y20924D01*
X155068Y21581D01*
X154070Y21994D01*
X153000Y22135D01*
X151930Y21994D01*
X151188Y21687D01*
X139937Y32937D01*
X139507Y33225D01*
X139000Y33325D01*
X130523D01*
X130383Y33664D01*
X129854Y34354D01*
X129164Y34883D01*
X128361Y35215D01*
X127500Y35329D01*
D02*
G37*
G36*
X129400Y14078D02*
Y10900D01*
X132578D01*
X132507Y11440D01*
X132145Y12315D01*
X131568Y13068D01*
X130815Y13645D01*
X129940Y14007D01*
X129400Y14078D01*
D02*
G37*
G36*
X97900D02*
Y10900D01*
X101078D01*
X101007Y11440D01*
X100645Y12315D01*
X100068Y13068D01*
X99316Y13645D01*
X98440Y14007D01*
X97900Y14078D01*
D02*
G37*
G36*
X128600D02*
X128060Y14007D01*
X127184Y13645D01*
X126432Y13068D01*
X125855Y12315D01*
X125493Y11440D01*
X125422Y10900D01*
X128600D01*
Y14078D01*
D02*
G37*
G36*
X97100D02*
X96560Y14007D01*
X95684Y13645D01*
X94932Y13068D01*
X94355Y12315D01*
X93993Y11440D01*
X93922Y10900D01*
X97100D01*
Y14078D01*
D02*
G37*
G36*
X156900Y11900D02*
X153400D01*
Y8400D01*
X156900D01*
Y11900D01*
D02*
G37*
G36*
X152600D02*
X149100D01*
Y8400D01*
X152600D01*
Y11900D01*
D02*
G37*
G36*
X132578Y10100D02*
X129400D01*
Y6922D01*
X129940Y6993D01*
X130815Y7355D01*
X131568Y7932D01*
X132145Y8685D01*
X132507Y9560D01*
X132578Y10100D01*
D02*
G37*
G36*
X101078D02*
X97900D01*
Y6922D01*
X98440Y6993D01*
X99316Y7355D01*
X100068Y7932D01*
X100645Y8685D01*
X101007Y9560D01*
X101078Y10100D01*
D02*
G37*
G36*
X128600D02*
X125422D01*
X125493Y9560D01*
X125855Y8685D01*
X126432Y7932D01*
X127184Y7355D01*
X128060Y6993D01*
X128600Y6922D01*
Y10100D01*
D02*
G37*
G36*
X97100D02*
X93922D01*
X93993Y9560D01*
X94355Y8685D01*
X94932Y7932D01*
X95684Y7355D01*
X96560Y6993D01*
X97100Y6922D01*
Y10100D01*
D02*
G37*
G36*
X97500Y45329D02*
X96639Y45215D01*
X95836Y44883D01*
X95146Y44354D01*
X94617Y43664D01*
X94285Y42862D01*
X94172Y42000D01*
X94285Y41138D01*
X94617Y40336D01*
X95146Y39646D01*
X95836Y39118D01*
X96639Y38785D01*
X97500Y38671D01*
X98361Y38785D01*
X99164Y39118D01*
X99854Y39646D01*
X100383Y40336D01*
X100523Y40674D01*
X101955D01*
X117675Y24955D01*
Y14064D01*
X117084Y13819D01*
X116290Y13210D01*
X115681Y12416D01*
X115298Y11492D01*
X115167Y10500D01*
X115298Y9508D01*
X115681Y8584D01*
X116290Y7790D01*
X117084Y7181D01*
X118008Y6798D01*
X119000Y6667D01*
X119992Y6798D01*
X120916Y7181D01*
X121710Y7790D01*
X122319Y8584D01*
X122702Y9508D01*
X122833Y10500D01*
X122702Y11492D01*
X122319Y12416D01*
X121710Y13210D01*
X120916Y13819D01*
X120326Y14064D01*
Y25504D01*
X120225Y26012D01*
X119937Y26442D01*
X103442Y42937D01*
X103012Y43225D01*
X102505Y43325D01*
X100523D01*
X100383Y43664D01*
X99854Y44354D01*
X99164Y44883D01*
X98361Y45215D01*
X97500Y45329D01*
D02*
G37*
G36*
X55524Y28379D02*
X54699Y28270D01*
X53930Y27951D01*
X53269Y27444D01*
X52763Y26784D01*
X52444Y26015D01*
X52335Y25189D01*
X52444Y24364D01*
X52763Y23595D01*
X53269Y22934D01*
X53930Y22427D01*
X54199Y22316D01*
Y20475D01*
X54300Y19968D01*
X54587Y19538D01*
X59873Y14252D01*
X60303Y13965D01*
X60811Y13864D01*
X62651D01*
X62762Y13595D01*
X63269Y12934D01*
X63930Y12427D01*
X64699Y12109D01*
X65525Y12000D01*
X66350Y12109D01*
X67119Y12427D01*
X67780Y12934D01*
X68287Y13595D01*
X68398Y13864D01*
X82262D01*
X84043Y12083D01*
X83798Y11492D01*
X83667Y10500D01*
X83798Y9508D01*
X84181Y8584D01*
X84790Y7790D01*
X85584Y7181D01*
X86508Y6798D01*
X87500Y6667D01*
X88492Y6798D01*
X89416Y7181D01*
X90210Y7790D01*
X90819Y8584D01*
X91202Y9508D01*
X91333Y10500D01*
X91202Y11492D01*
X90819Y12416D01*
X90210Y13210D01*
X89416Y13819D01*
X88492Y14202D01*
X87500Y14333D01*
X86508Y14202D01*
X85917Y13957D01*
X83748Y16127D01*
X83318Y16414D01*
X82811Y16515D01*
X68398D01*
X68287Y16784D01*
X67780Y17444D01*
X67119Y17951D01*
X66350Y18270D01*
X65525Y18379D01*
X64699Y18270D01*
X63930Y17951D01*
X63269Y17444D01*
X62762Y16784D01*
X62651Y16515D01*
X61360D01*
X56850Y21024D01*
Y22316D01*
X57119Y22427D01*
X57780Y22934D01*
X58286Y23595D01*
X58605Y24364D01*
X58714Y25189D01*
X58605Y26015D01*
X58286Y26784D01*
X57780Y27444D01*
X57119Y27951D01*
X56350Y28270D01*
X55524Y28379D01*
D02*
G37*
G36*
X156900Y7600D02*
X153400D01*
Y4100D01*
X156900D01*
Y7600D01*
D02*
G37*
G36*
X152600D02*
X149100D01*
Y4100D01*
X152600D01*
Y7600D01*
D02*
G37*
%LPD*%
D12*
X82811Y15189D02*
X87500Y10500D01*
X65525Y15189D02*
X82811D01*
X55524Y20475D02*
X60811Y15189D01*
X65525D01*
X55524Y20475D02*
Y25189D01*
X45524Y15189D02*
Y26808D01*
X50716Y32000D01*
X77500D01*
X170009Y165009D02*
X180500Y175500D01*
X137409Y165009D02*
X170009D01*
X122400Y150000D02*
X137409Y165009D01*
X139000Y32000D02*
X153000Y18000D01*
X127500Y32000D02*
X139000D01*
X119000Y10500D02*
Y25504D01*
X102505Y42000D02*
X119000Y25504D01*
X97500Y42000D02*
X102505D01*
X87500Y32000D02*
Y52000D01*
X97500D01*
X77500Y62000D02*
X87500Y52000D01*
X82500Y67000D02*
Y76500D01*
Y67000D02*
X87500Y62000D01*
X127260Y316100D02*
X138911D01*
X115000Y303840D02*
X127260Y316100D01*
X115000Y295500D02*
Y303840D01*
X180172Y281000D02*
X189290D01*
X146500Y289500D02*
X171671D01*
X180172Y281000D01*
X142366Y285366D02*
X146500Y289500D01*
X104000Y285366D02*
X142366D01*
X205000Y281000D02*
X209290D01*
X193500Y269500D02*
X205000Y281000D01*
X189000Y269500D02*
X193500D01*
X84000Y265366D02*
X104000D01*
X223589Y165420D02*
X224000Y165009D01*
X223589Y165420D02*
Y168411D01*
X223500Y168500D02*
X223589Y168411D01*
X224000Y138000D02*
Y165009D01*
X164768Y265268D02*
X169000Y269500D01*
X164768Y240232D02*
Y265268D01*
Y240232D02*
X179500Y225500D01*
Y218500D02*
Y225500D01*
X211509Y227000D02*
X223000Y215509D01*
X187856Y227000D02*
X211509D01*
X179500Y235356D02*
X187856Y227000D01*
X179500Y235356D02*
Y238500D01*
X223000Y208500D02*
Y215509D01*
X213000Y238500D02*
X223000D01*
X203000Y248500D02*
X213000Y238500D01*
X199500Y248500D02*
X203000D01*
X189500Y242447D02*
X195553Y248500D01*
X199500D01*
X189500Y238500D02*
Y242447D01*
X199500Y208500D02*
X213000D01*
X189500Y218500D02*
X199500D01*
X179500D02*
X189500D01*
X179500Y208500D02*
Y218500D01*
X183500Y208500D02*
X193500Y198500D01*
X179500Y208500D02*
X183500D01*
X209000Y143000D02*
Y150000D01*
X196500Y175500D02*
X203500Y168500D01*
X180500Y175500D02*
X196500D01*
X116500Y150000D02*
X122400D01*
X199000Y138000D02*
Y154612D01*
X193500Y160112D02*
X199000Y154612D01*
X193500Y160112D02*
Y168500D01*
X183500Y160164D02*
Y168500D01*
X179000Y155664D02*
X183500Y160164D01*
X179000Y138000D02*
Y155664D01*
X164000Y145000D02*
X169000Y150000D01*
X136386Y147497D02*
Y149886D01*
X107389Y118500D02*
X136386Y147497D01*
X91910Y118500D02*
X107389D01*
X136386Y149886D02*
X136500Y150000D01*
X82910Y127500D02*
X91910Y118500D01*
X54000Y127500D02*
X82910D01*
X43500Y138000D02*
X54000Y127500D01*
X56000Y174000D02*
X61000Y179000D01*
Y184000D01*
X31000Y179000D02*
X36000Y174000D01*
X31000Y179000D02*
Y184000D01*
X86500Y138000D02*
X96500Y128000D01*
X63500Y138000D02*
X86500D01*
X96500D02*
Y150000D01*
X136500Y147612D02*
Y150000D01*
X23500D02*
X43500D01*
X199000Y138000D02*
X204000Y133000D01*
Y128000D02*
Y133000D01*
Y118000D02*
Y128000D01*
X164000Y138000D02*
Y145000D01*
X174000Y133000D02*
X179000Y138000D01*
X174000Y128000D02*
Y133000D01*
Y128000D02*
X181000Y121000D01*
Y115000D02*
Y121000D01*
X174000Y108000D02*
X181000Y115000D01*
X164000Y108000D02*
Y118000D01*
Y108000D02*
X174000Y98000D01*
X167500Y124500D02*
X174000Y118000D01*
X160500Y124500D02*
X167500D01*
X154000Y118000D02*
X160500Y124500D01*
X174000Y88000D02*
Y98000D01*
X204000Y88000D02*
X214000D01*
Y108000D02*
Y118000D01*
X204000Y108000D02*
X214000D01*
X204000Y98000D02*
Y108000D01*
X224000Y98000D02*
Y118000D01*
X214000Y88000D02*
X224000Y98000D01*
X209000Y143000D02*
X214000Y138000D01*
X5000Y265118D02*
X25248Y285366D01*
X5000Y248500D02*
Y265118D01*
Y248500D02*
X11000Y242500D01*
X25248Y285366D02*
X84000D01*
X11000Y224000D02*
Y242500D01*
X37293Y197302D02*
Y207707D01*
X31000Y214000D02*
X37293Y207707D01*
X16000Y199000D02*
X26000D01*
X11000Y194000D02*
X16000Y199000D01*
X45000Y194888D02*
Y208000D01*
X34112Y184000D02*
X45000Y194888D01*
X31000Y184000D02*
X34112D01*
X45000Y208000D02*
X61000Y224000D01*
X11000Y214000D02*
Y224000D01*
X101500Y169000D02*
X117500D01*
X56580Y108089D02*
X63125Y114634D01*
X53589Y108089D02*
X56580D01*
X53500Y108000D02*
X53589Y108089D01*
X63125Y114634D02*
Y117625D01*
X63500Y118000D01*
X43875Y114634D02*
X50420Y108089D01*
X53411D01*
X53500Y108000D01*
X43875Y114634D02*
Y117625D01*
X43500Y118000D02*
X43875Y117625D01*
X63500Y138000D02*
Y150000D01*
X43500Y138000D02*
Y150000D01*
X53500Y156500D02*
X61000Y164000D01*
X53500Y138000D02*
Y156500D01*
X72000Y159000D02*
X79500D01*
X67000Y164000D02*
X72000Y159000D01*
X61000Y164000D02*
X67000D01*
X101500Y159000D02*
X117500D01*
X89500D02*
X101500D01*
X79500D02*
X89500D01*
Y179000D02*
Y189988D01*
X79500Y179000D02*
X89500D01*
X99500Y171000D02*
X101500Y169000D01*
X99500Y171000D02*
Y179000D01*
Y189988D01*
X23500Y268713D02*
Y269500D01*
X21000Y266213D02*
X23500Y268713D01*
X21000Y255000D02*
Y266213D01*
X35000Y254000D02*
X39500Y249500D01*
Y242500D02*
Y249500D01*
X31000Y234000D02*
X39500Y242500D01*
X35000Y261000D02*
X43500Y269500D01*
X35000Y254000D02*
Y261000D01*
X21000Y164000D02*
X31000D01*
X21000Y184000D02*
X31000D01*
X11000D02*
X21000Y194000D01*
X33991D02*
X37293Y197302D01*
X31000Y194000D02*
X33991D01*
X26000Y199000D02*
X31000Y194000D01*
X21107Y238107D02*
X27000Y244000D01*
X31000D01*
X21107Y235107D02*
Y238107D01*
X21000Y235000D02*
X21107Y235107D01*
X55000Y261000D02*
X63500Y269500D01*
X55000Y254000D02*
Y261000D01*
Y248000D02*
Y254000D01*
X31000Y224000D02*
X55000Y248000D01*
X21000Y224000D02*
X31000D01*
D40*
X137500Y62000D02*
X154070D01*
X158500Y66430D01*
Y77500D01*
X125493D02*
X138500D01*
X144500Y198000D02*
X152500Y190000D01*
X132000Y198000D02*
X144500D01*
X124000Y190000D02*
X132000Y198000D01*
X127500Y62000D02*
X137500D01*
X138380Y77620D02*
X138500Y77500D01*
X124000Y190000D02*
Y195488D01*
X99500Y219988D02*
X124000Y195488D01*
X89500Y219988D02*
X99500D01*
X155500Y214500D02*
X171500Y198500D01*
X152500Y214500D02*
X155500D01*
X144066D02*
X152500D01*
X138515Y220050D02*
X144066Y214500D01*
X134000Y220050D02*
X138515D01*
X114000Y236000D02*
Y251000D01*
X104000Y236000D02*
X114000D01*
X104000D02*
Y245366D01*
X100000Y204000D02*
X114000Y190000D01*
X61000Y204000D02*
X100000D01*
X114000Y190000D02*
X124000D01*
X209000D02*
X213500Y194500D01*
Y198500D01*
X152500Y190000D02*
X209000D01*
X124000Y220000D02*
X124050Y220050D01*
X134000D01*
X75500Y228500D02*
X115500D01*
X124000Y220000D01*
X70000Y234000D02*
X75500Y228500D01*
X171500Y198500D02*
X183500D01*
X61000Y234000D02*
X70000D01*
X61000Y194000D02*
Y204000D01*
D41*
X65525Y15189D02*
D03*
X55524Y25189D02*
D03*
X154070Y52000D02*
D03*
X125493Y87500D02*
D03*
X89500Y179000D02*
D03*
X79500Y159000D02*
D03*
X114000Y236000D02*
D03*
X124000D02*
D03*
X134000D02*
D03*
X92500Y76500D02*
D03*
X82500D02*
D03*
X72500D02*
D03*
X84000Y236000D02*
D03*
X138500Y77500D02*
D03*
X148500D02*
D03*
X158500D02*
D03*
X152500Y180000D02*
D03*
D42*
X45524Y15189D02*
D03*
X104000Y236000D02*
D03*
D43*
X154070Y62000D02*
D03*
X125493Y77500D02*
D03*
X89500Y159000D02*
D03*
X79500Y179000D02*
D03*
X152500Y190000D02*
D03*
D44*
X189000Y150000D02*
D03*
X169000D02*
D03*
X43500D02*
D03*
X23500D02*
D03*
X189000Y269500D02*
D03*
X169000D02*
D03*
X116500Y150000D02*
D03*
X96500D02*
D03*
X43500Y269500D02*
D03*
X23500D02*
D03*
D45*
X209000Y150000D02*
D03*
X63500D02*
D03*
X209000Y269500D02*
D03*
X136500Y150000D02*
D03*
X63500Y269500D02*
D03*
D46*
X89500Y219988D02*
D03*
X99500D02*
D03*
X89500Y189988D02*
D03*
X99500D02*
D03*
X213000Y238500D02*
D03*
X223000D02*
D03*
X213000Y208500D02*
D03*
X223000D02*
D03*
D47*
X189290Y281000D02*
D03*
X209290D02*
D03*
X171500Y178500D02*
D03*
Y198500D02*
D03*
X119500Y179000D02*
D03*
X99500D02*
D03*
X189500Y238500D02*
D03*
Y218500D02*
D03*
X199500Y208500D02*
D03*
X179500D02*
D03*
Y238500D02*
D03*
Y218500D02*
D03*
X55000Y254000D02*
D03*
X35000D02*
D03*
X21000Y235000D02*
D03*
Y255000D02*
D03*
X11000Y194000D02*
D03*
Y214000D02*
D03*
X56000Y174000D02*
D03*
X36000D02*
D03*
X21000Y164000D02*
D03*
Y184000D02*
D03*
X11000D02*
D03*
Y164000D02*
D03*
X63500Y138000D02*
D03*
Y118000D02*
D03*
X43500Y138000D02*
D03*
Y118000D02*
D03*
X96500Y138000D02*
D03*
X116500D02*
D03*
X164000Y118000D02*
D03*
Y138000D02*
D03*
X154000Y118000D02*
D03*
Y138000D02*
D03*
X224000D02*
D03*
Y118000D02*
D03*
X214000D02*
D03*
Y138000D02*
D03*
Y88000D02*
D03*
Y108000D02*
D03*
X179000Y138000D02*
D03*
X199000D02*
D03*
X114000Y251000D02*
D03*
X134000D02*
D03*
X137500Y42000D02*
D03*
Y62000D02*
D03*
X70000Y234000D02*
D03*
Y214000D02*
D03*
D48*
X180172Y281000D02*
D03*
X150171D02*
D03*
X223500Y198500D02*
D03*
Y168500D02*
D03*
X199500Y218500D02*
D03*
Y248500D02*
D03*
X31000Y244000D02*
D03*
X61000D02*
D03*
X11000Y254000D02*
D03*
Y224000D02*
D03*
X21000D02*
D03*
Y194000D02*
D03*
X61000D02*
D03*
X31000D02*
D03*
Y184000D02*
D03*
X61000D02*
D03*
X31000Y164000D02*
D03*
X61000D02*
D03*
X53500Y138000D02*
D03*
Y108000D02*
D03*
X96500Y128000D02*
D03*
X126500D02*
D03*
X174000D02*
D03*
X204000D02*
D03*
X174000Y118000D02*
D03*
X204000D02*
D03*
Y108000D02*
D03*
X174000D02*
D03*
X204000Y98000D02*
D03*
X174000D02*
D03*
Y88000D02*
D03*
X204000D02*
D03*
X77500Y62000D02*
D03*
Y32000D02*
D03*
X87500D02*
D03*
Y62000D02*
D03*
X114000Y220000D02*
D03*
Y190000D02*
D03*
X124000Y220000D02*
D03*
Y190000D02*
D03*
X157500Y236000D02*
D03*
X152500Y204500D02*
D03*
X134000Y190050D02*
D03*
Y220050D02*
D03*
D49*
X175500Y257000D02*
D03*
D50*
X147500D02*
D03*
D51*
X213500Y198500D02*
D03*
X203500D02*
D03*
X183500D02*
D03*
X193500D02*
D03*
X213500Y168500D02*
D03*
X203500D02*
D03*
X193500D02*
D03*
X183500D02*
D03*
X61000Y204000D02*
D03*
Y214000D02*
D03*
Y234000D02*
D03*
Y224000D02*
D03*
X31000Y204000D02*
D03*
Y214000D02*
D03*
Y224000D02*
D03*
Y234000D02*
D03*
X115000Y295500D02*
D03*
X125000D02*
D03*
Y265500D02*
D03*
X115000D02*
D03*
X127500Y32000D02*
D03*
Y42000D02*
D03*
Y62000D02*
D03*
Y52000D02*
D03*
X97500Y32000D02*
D03*
Y42000D02*
D03*
Y52000D02*
D03*
Y62000D02*
D03*
D52*
X101500Y159000D02*
D03*
X117500Y169000D02*
D03*
D53*
X101500D02*
D03*
X117500Y159000D02*
D03*
D54*
X116250Y355900D02*
D03*
Y332278D02*
D03*
D55*
X153000Y18000D02*
D03*
D56*
Y8000D02*
D03*
D57*
X119000Y10500D02*
D03*
X129000D02*
D03*
X87500D02*
D03*
X97500D02*
D03*
D58*
X138911Y341100D02*
D03*
X202809D02*
D03*
X138911Y366100D02*
D03*
X202809D02*
D03*
X138911Y316100D02*
D03*
X202809D02*
D03*
X29692Y341100D02*
D03*
X93590D02*
D03*
X29692Y366100D02*
D03*
X93590D02*
D03*
X29692Y316100D02*
D03*
X93590D02*
D03*
D59*
X84000Y245366D02*
D03*
Y265366D02*
D03*
Y275366D02*
D03*
Y285366D02*
D03*
X104000D02*
D03*
Y275366D02*
D03*
Y265366D02*
D03*
Y245366D02*
D03*
D60*
X147500Y236000D02*
D03*
D61*
X152500Y214500D02*
D03*
D62*
X79738Y153098D02*
D03*
X174000Y236722D02*
D03*
X168741Y246000D02*
D03*
X194500Y277000D02*
D03*
X112504Y165000D02*
D03*
X125084Y164000D02*
D03*
Y178500D02*
D03*
X148000Y184500D02*
D03*
X136991D02*
D03*
Y169700D02*
D03*
X79738Y104200D02*
D03*
X178600Y4600D02*
D03*
X54100Y353200D02*
D03*
X68500Y104200D02*
D03*
X87190Y212000D02*
D03*
X68306Y143000D02*
D03*
X4300Y203800D02*
D03*
X228400Y178900D02*
D03*
Y54400D02*
D03*
X136991Y158528D02*
D03*
X41000Y202500D02*
D03*
X203500Y4600D02*
D03*
Y303400D02*
D03*
X121285Y143500D02*
D03*
X54100Y178900D02*
D03*
X198500Y202528D02*
D03*
X13396Y264000D02*
D03*
X174434Y225500D02*
D03*
X79000Y328300D02*
D03*
X153700Y253600D02*
D03*
X213123Y98500D02*
D03*
X64500Y173123D02*
D03*
X46000Y253600D02*
D03*
X228400Y129100D02*
D03*
X46000Y228700D02*
D03*
X178600Y79300D02*
D03*
Y29500D02*
D03*
X153700Y129100D02*
D03*
Y378100D02*
D03*
X103900Y104200D02*
D03*
X29200Y278500D02*
D03*
X25690Y228700D02*
D03*
X143000Y278447D02*
D03*
X4300Y303400D02*
D03*
X203500Y353200D02*
D03*
X93910Y198500D02*
D03*
X106255Y178000D02*
D03*
X54100Y54400D02*
D03*
X48500Y143000D02*
D03*
X76000Y189276D02*
D03*
X103900Y353200D02*
D03*
Y29500D02*
D03*
X228400Y4600D02*
D03*
X197306Y104200D02*
D03*
X228400Y278500D02*
D03*
X79000Y353200D02*
D03*
X178600Y378100D02*
D03*
X29200Y253600D02*
D03*
X4300Y228700D02*
D03*
X173194Y158500D02*
D03*
X178600Y353200D02*
D03*
Y328300D02*
D03*
X153700Y353200D02*
D03*
X228400Y79300D02*
D03*
X4300Y154000D02*
D03*
X153700Y228700D02*
D03*
X103900Y303400D02*
D03*
X75500Y222590D02*
D03*
X171111Y142000D02*
D03*
X203500Y328300D02*
D03*
X29200D02*
D03*
X68500Y133000D02*
D03*
X175496Y203500D02*
D03*
X197306Y129100D02*
D03*
X79500Y280500D02*
D03*
X79000Y4600D02*
D03*
X54100Y79300D02*
D03*
X194500Y222925D02*
D03*
X4300Y278500D02*
D03*
X165500Y184500D02*
D03*
X152500Y198000D02*
D03*
X107500Y223041D02*
D03*
X115500Y196268D02*
D03*
X4300Y79300D02*
D03*
X79738Y133000D02*
D03*
X153700Y29500D02*
D03*
X178600Y54400D02*
D03*
X103900Y252500D02*
D03*
X4300Y4600D02*
D03*
X187866Y249000D02*
D03*
X103900Y129100D02*
D03*
X26000Y189500D02*
D03*
X64500Y158694D02*
D03*
X95146Y163500D02*
D03*
X29200Y154000D02*
D03*
X54100Y303400D02*
D03*
X151778Y158500D02*
D03*
X93910Y184000D02*
D03*
X94500Y261000D02*
D03*
X4300Y29500D02*
D03*
X228400Y104200D02*
D03*
X128800Y203800D02*
D03*
X29200Y129100D02*
D03*
X4300D02*
D03*
X208500Y113000D02*
D03*
X128800Y253600D02*
D03*
X25690Y219226D02*
D03*
X103900Y328300D02*
D03*
X199290Y265500D02*
D03*
X103900Y54400D02*
D03*
X208000Y158500D02*
D03*
X228400Y353200D02*
D03*
X79000Y54400D02*
D03*
X54100Y278500D02*
D03*
X228400Y29500D02*
D03*
Y228700D02*
D03*
X104000Y78000D02*
D03*
X54100Y328300D02*
D03*
X53604Y117500D02*
D03*
X79000Y378100D02*
D03*
X169806Y113000D02*
D03*
X110500Y83084D02*
D03*
X206590Y138000D02*
D03*
X219000Y113000D02*
D03*
X29200Y303400D02*
D03*
Y378100D02*
D03*
X4300Y328300D02*
D03*
X178600Y104200D02*
D03*
X88174Y240500D02*
D03*
X178600Y178900D02*
D03*
X128800Y228700D02*
D03*
X203500Y178900D02*
D03*
X228400Y154000D02*
D03*
X162306Y169500D02*
D03*
X207500Y230940D02*
D03*
X132504Y129100D02*
D03*
X103900Y378100D02*
D03*
X29200Y104200D02*
D03*
X165500Y195617D02*
D03*
X77000Y235200D02*
D03*
X54100Y378100D02*
D03*
X29200Y4600D02*
D03*
X189320Y158500D02*
D03*
X4300Y104200D02*
D03*
X228400Y328300D02*
D03*
Y203800D02*
D03*
X76000Y173123D02*
D03*
X203500Y378100D02*
D03*
Y29500D02*
D03*
X76500Y92000D02*
D03*
X79000Y303400D02*
D03*
X29200Y29500D02*
D03*
X168566Y278447D02*
D03*
X151778Y169500D02*
D03*
X228400Y303400D02*
D03*
X64500Y189276D02*
D03*
X178600Y303400D02*
D03*
Y129100D02*
D03*
X203500Y79300D02*
D03*
X128800Y104200D02*
D03*
Y4600D02*
D03*
X29200Y79300D02*
D03*
X79000Y253600D02*
D03*
X203500Y54400D02*
D03*
X153700Y104200D02*
D03*
X4300Y353200D02*
D03*
Y178900D02*
D03*
X153700Y303400D02*
D03*
Y328300D02*
D03*
X128800Y278500D02*
D03*
X55877Y209000D02*
D03*
X228400Y253600D02*
D03*
X184362Y286000D02*
D03*
X94500Y270000D02*
D03*
X29200Y54400D02*
D03*
X128800Y378100D02*
D03*
X58009Y143000D02*
D03*
X104826Y153000D02*
D03*
X97000Y235200D02*
D03*
X214500Y216246D02*
D03*
X4300Y54400D02*
D03*
X54100Y4600D02*
D03*
X103900D02*
D03*
X29200Y353200D02*
D03*
M02*
