M48
;Layer_Color=9474304
;FILE_FORMAT=2:5
INCH,TZ
;TYPE=PLATED
T1F00S00C0.01575
T2F00S00C0.01800
T3F00S00C0.01969
T4F00S00C0.02362
T5F00S00C0.02756
T6F00S00C0.03150
T7F00S00C0.03200
T8F00S00C0.03543
T9F00S00C0.04000
T10F00S00C0.04331
T11F00S00C0.05512
T12F00S00C0.09843
%
T01
X77500Y23500
X87500
Y53500
X77500
X80500Y121500
X100500
Y151500
X80500
X70500Y163500
X60500
Y193500
X70500
X142900Y167500
Y157500
Y146000
X133400
X152400
Y116000
X142900
X133400
X50500Y111500
Y102500
X20500
Y111500
Y163000
X30500Y163500
X40500
X50500
Y193500
X40500
X30500
X20500Y193000
X9500
Y163000
Y210500
Y240500
X124227Y203000
X134227
X152200
Y213000
Y223000
X182200
Y213000
Y203000
X191500
X191000Y233000
X221000
X221500Y203000
T02
X4300Y-4700
X29200
Y20200
X4300
X54100Y-4700
X79000
X103900
Y20200
X66119Y18500
X128800Y-4700
X153700
Y20200
X178600
X203500
Y-4700
X178600
X228400
Y20200
Y45100
Y70000
Y94900
Y119800
Y144700
X212994Y142500
X228400Y169600
Y194500
X203500
X199500Y179000
X193615Y164806
X206500
X204500Y150000
X192000Y137416
X179243Y125000
X168000Y129500
X157000
X168000Y144700
Y156500
X157000
X175207Y169000
X174000Y188000
X188111
X162000Y182354
X153700Y194500
X142000Y194694
X128800Y194500
X126500Y177500
Y160763
X115694Y160806
X104000
X95836Y156000
X85000
X79000Y144700
Y133753
X76000Y116000
X74000Y108000
X91500
X90500Y116000
X104500
X116000
X124627
X137000Y110623
X137900Y122000
X126500Y133753
X115694Y133854
Y144700
X126500
X103900
X104000Y133753
X103900Y94900
X116000
X128800
X150718Y92500
Y82000
X157000Y101000
X168000
Y113885
X178600Y94900
Y70000
X203500
Y94900
Y119800
Y45100
X178600
X133800Y61000
X116000Y70113
X103900Y70000
Y45100
X79000
X80000Y74584
X73773Y80500
X79000Y94900
X78806Y171500
X89255Y177500
X106762
X103900Y194500
X92000Y194274
X79000Y194500
X65500Y187500
Y176500
X143300Y177500
X46590Y169600
X29200
Y144700
X38900Y148509
X55500Y146000
Y157000
X56119Y108000
X43993
X54100Y94900
Y70000
X29200
Y94900
X4300
Y119800
Y144700
Y169600
X32472Y122000
X4300Y70000
Y45100
X29200
X54100
X56000Y197500
X45500
X35717
X25243
X15000
X4300
Y219400
X15000
X31274Y224000
Y235889
X30900Y249000
X40402
X34000Y269200
X25500
X4300
Y294100
Y319000
X29200
Y343900
X54100
Y319000
Y294100
X4300Y244300
Y343900
X79000
Y319000
Y294100
X103900
X121800Y294051
X153700Y294100
X178600
X203500
Y319000
Y343900
X178600
X153700
Y319000
X178600
Y269200
X183829Y250000
X171191
X153894Y249500
X147500Y242000
X128800Y244300
Y219400
X139038
X157500Y227113
X169124
X173894Y210500
X167069Y204000
X157500Y208000
X191500Y214838
X198896Y208500
X187866Y197500
X208063Y225000
X203500Y244300
Y269200
X153700
X134500
X114000Y264000
X97000Y259500
X88000
X99500Y245500
X106762Y240000
X98662Y229911
X89500
X79000Y219400
X60000
X57806Y235889
X59004Y251000
X67844
X76500Y240696
X67839Y273500
X103900Y319000
Y343900
Y219400
X228400
Y244300
X214500Y235889
X228400Y269200
Y294100
Y319000
Y343900
X203500Y368800
X178600
X153700
X128800
X103900
X79000
X54100
X29200
T03
X45024Y6500
X55024Y16500
X65025Y6500
X72500Y68000
X82500
X92500
X125146Y69000
Y79000
X138500Y69000
X148500
X158500
X154113Y53500
Y43500
X142900Y96500
Y106500
X30500Y210500
X20500
X84000Y225000
X104000
X114000
X124000
X134000
X105500Y203000
X95500
X201500Y218000
X211500
T04
X137500Y33500
X224000Y160000
Y180000
X216500Y193000
X196500
X182200
X162200
X90500Y151500
Y131500
X70500
X60500
Y151500
X70500
X80500Y111500
X100500
X137500Y53500
X9500Y131500
Y151500
X114000Y240000
X134000
X195500Y243000
X215500
T05
X157000Y239300
X177000
X170000Y269400
X142000
T06
X25874Y229591
X35717
X45559
Y242189
X35717
X25874
X84000Y234366
Y254366
Y264366
Y274366
X104000
Y264366
Y254366
Y234366
T07
X97500Y23500
Y33500
X127500
Y23500
Y43500
Y53500
X97500
Y43500
X182266Y150000
Y160000
Y170000
Y180000
X212266
Y170000
Y160000
Y150000
X50500Y151500
Y141500
Y131500
Y121500
X20500
Y131500
Y141500
Y151500
X115000Y254500
X125000
Y284500
X115000
T08
X153500Y5145
X163500
T09
X87500Y2000
X97500
X119000
X129000
T10
X23500Y258500
X43500
X63500
X169000
X189000
X209000
T11
X29692Y305100
Y330100
X93590
Y305100
X138911
Y330100
X202809
Y305100
Y355100
X138911
X93590
X29692
T12
X116250Y321278
Y344900
M30
