G04*
G04 #@! TF.GenerationSoftware,Altium Limited,Altium Designer,19.0.12 (326)*
G04*
G04 Layer_Color=16711935*
%FSLAX25Y25*%
%MOIN*%
G70*
G01*
G75*
%ADD17C,0.05315*%
%ADD18R,0.05315X0.05315*%
%ADD19C,0.06890*%
%ADD20R,0.05315X0.05315*%
%ADD21C,0.05591*%
%ADD22C,0.04922*%
%ADD23C,0.06103*%
%ADD24C,0.05709*%
%ADD25R,0.06103X0.06103*%
%ADD26R,0.07678X0.07678*%
%ADD27C,0.07678*%
%ADD28C,0.15355*%
%ADD29C,0.07191*%
%ADD30R,0.07191X0.07191*%
%ADD31C,0.06591*%
%ADD32C,0.08859*%
%ADD33C,0.05316*%
%ADD34R,0.04922X0.04922*%
%ADD35R,0.04922X0.04922*%
%ADD36C,0.03591*%
D17*
X154113Y43500D02*
D03*
X125146Y79000D02*
D03*
X65025Y6500D02*
D03*
X55024Y16500D02*
D03*
X211500Y218000D02*
D03*
X105500Y203000D02*
D03*
X30500Y210500D02*
D03*
X114000Y225000D02*
D03*
X124000D02*
D03*
X134000D02*
D03*
X92500Y68000D02*
D03*
X82500D02*
D03*
X72500D02*
D03*
X84000Y225000D02*
D03*
X138500Y69000D02*
D03*
X148500D02*
D03*
X158500D02*
D03*
X142900Y96500D02*
D03*
D18*
X154113Y53500D02*
D03*
X125146Y69000D02*
D03*
X142900Y106500D02*
D03*
D19*
X35717Y229591D02*
D03*
X45559D02*
D03*
X25874D02*
D03*
Y242189D02*
D03*
X45559D02*
D03*
X35717D02*
D03*
D20*
X45024Y6500D02*
D03*
X201500Y218000D02*
D03*
X95500Y203000D02*
D03*
X20500Y210500D02*
D03*
X104000Y225000D02*
D03*
D21*
X50500Y121500D02*
D03*
Y131500D02*
D03*
Y151500D02*
D03*
Y141500D02*
D03*
X20500Y121500D02*
D03*
Y131500D02*
D03*
Y141500D02*
D03*
Y151500D02*
D03*
X212266Y150000D02*
D03*
Y160000D02*
D03*
Y180000D02*
D03*
Y170000D02*
D03*
X182266Y150000D02*
D03*
Y160000D02*
D03*
Y170000D02*
D03*
Y180000D02*
D03*
X115000Y284500D02*
D03*
X125000D02*
D03*
Y254500D02*
D03*
X115000D02*
D03*
X127500Y23500D02*
D03*
Y33500D02*
D03*
Y53500D02*
D03*
Y43500D02*
D03*
X97500Y23500D02*
D03*
Y33500D02*
D03*
Y43500D02*
D03*
Y53500D02*
D03*
D22*
X182200Y213000D02*
D03*
X152200D02*
D03*
Y223000D02*
D03*
X182200D02*
D03*
X221000Y233000D02*
D03*
X191000D02*
D03*
X221500Y203000D02*
D03*
X191500D02*
D03*
X182200D02*
D03*
X152200D02*
D03*
X100500Y151500D02*
D03*
Y121500D02*
D03*
X80500Y151500D02*
D03*
Y121500D02*
D03*
X20500Y111500D02*
D03*
X50500D02*
D03*
X20500Y102500D02*
D03*
X50500D02*
D03*
X70500Y193500D02*
D03*
Y163500D02*
D03*
X60500D02*
D03*
Y193500D02*
D03*
X50500D02*
D03*
Y163500D02*
D03*
X40500Y193500D02*
D03*
Y163500D02*
D03*
X30500Y193500D02*
D03*
Y163500D02*
D03*
X20500Y193000D02*
D03*
Y163000D02*
D03*
X9500Y193000D02*
D03*
Y163000D02*
D03*
Y240500D02*
D03*
Y210500D02*
D03*
X77500Y53500D02*
D03*
Y23500D02*
D03*
X87500D02*
D03*
Y53500D02*
D03*
X133400Y146000D02*
D03*
Y116000D02*
D03*
X142900Y146000D02*
D03*
Y116000D02*
D03*
X124227Y203000D02*
D03*
X142900Y167500D02*
D03*
X152400Y116000D02*
D03*
Y146000D02*
D03*
D23*
X157000Y239300D02*
D03*
X177000D02*
D03*
X170000Y269400D02*
D03*
D24*
X224000Y160000D02*
D03*
Y180000D02*
D03*
X215500Y243000D02*
D03*
X195500D02*
D03*
X196500Y193000D02*
D03*
X216500D02*
D03*
X162200D02*
D03*
X182200D02*
D03*
X90500Y131500D02*
D03*
Y151500D02*
D03*
X70500Y131500D02*
D03*
Y151500D02*
D03*
X60500Y131500D02*
D03*
Y151500D02*
D03*
X100500Y111500D02*
D03*
X80500D02*
D03*
X9500Y131500D02*
D03*
Y151500D02*
D03*
X114000Y240000D02*
D03*
X134000D02*
D03*
X137500Y33500D02*
D03*
Y53500D02*
D03*
D25*
X142000Y269400D02*
D03*
D26*
X209000Y258500D02*
D03*
X63500D02*
D03*
D27*
X189000D02*
D03*
X169000D02*
D03*
X43500D02*
D03*
X23500D02*
D03*
D28*
X116250Y344900D02*
D03*
Y321278D02*
D03*
D29*
X153500Y5145D02*
D03*
D30*
X163500D02*
D03*
D31*
X119000Y2000D02*
D03*
X129000D02*
D03*
X87500D02*
D03*
X97500D02*
D03*
D32*
X138911Y330100D02*
D03*
X202809D02*
D03*
X138911Y355100D02*
D03*
X202809D02*
D03*
X138911Y305100D02*
D03*
X202809D02*
D03*
X29692Y330100D02*
D03*
X93590D02*
D03*
X29692Y355100D02*
D03*
X93590D02*
D03*
X29692Y305100D02*
D03*
X93590D02*
D03*
D33*
X84000Y234366D02*
D03*
Y254366D02*
D03*
Y264366D02*
D03*
Y274366D02*
D03*
X104000D02*
D03*
Y264366D02*
D03*
Y254366D02*
D03*
Y234366D02*
D03*
D34*
X134227Y203000D02*
D03*
D35*
X142900Y157500D02*
D03*
D36*
X121800Y294051D02*
D03*
X38900Y148509D02*
D03*
X150718Y82000D02*
D03*
X126500Y144700D02*
D03*
X78806Y171500D02*
D03*
X168000Y101000D02*
D03*
Y144700D02*
D03*
X179243Y125000D02*
D03*
X168000Y113885D02*
D03*
X43993Y108000D02*
D03*
X73773Y80500D02*
D03*
X80000Y74584D02*
D03*
X116000Y70113D02*
D03*
X133800Y61000D02*
D03*
X66119Y18500D02*
D03*
X65500Y176500D02*
D03*
Y187500D02*
D03*
X57806Y235889D02*
D03*
X31274D02*
D03*
X150718Y92500D02*
D03*
X40402Y249000D02*
D03*
X30900D02*
D03*
X178600Y294100D02*
D03*
X103900Y20200D02*
D03*
X29200Y144700D02*
D03*
X153700Y194500D02*
D03*
X4300Y219400D02*
D03*
X228400Y-4700D02*
D03*
Y219400D02*
D03*
X153700Y319000D02*
D03*
X228400Y119800D02*
D03*
X79000Y343900D02*
D03*
X29200Y169600D02*
D03*
X203500Y70000D02*
D03*
X178600Y45100D02*
D03*
X203500Y368800D02*
D03*
X228400Y70000D02*
D03*
X4300Y94900D02*
D03*
X54100Y343900D02*
D03*
X153700Y20200D02*
D03*
X4300Y119800D02*
D03*
X29200Y-4700D02*
D03*
Y20200D02*
D03*
X153700Y294100D02*
D03*
X228400Y45100D02*
D03*
Y269200D02*
D03*
X54100Y70000D02*
D03*
X79000Y294100D02*
D03*
X203500Y20200D02*
D03*
X128800Y-4700D02*
D03*
X79000Y194500D02*
D03*
X203500Y119800D02*
D03*
X178600Y70000D02*
D03*
X79000Y94900D02*
D03*
X178600D02*
D03*
X79000Y45100D02*
D03*
X4300Y169600D02*
D03*
X203500Y-4700D02*
D03*
X228400Y319000D02*
D03*
X29200Y368800D02*
D03*
X103900Y144700D02*
D03*
X153700Y368800D02*
D03*
X203500Y294100D02*
D03*
X103900Y70000D02*
D03*
X4300Y-4700D02*
D03*
X79000Y319000D02*
D03*
X178600Y269200D02*
D03*
X29200Y319000D02*
D03*
X228400Y244300D02*
D03*
X54100Y94900D02*
D03*
X29200D02*
D03*
X4300Y20200D02*
D03*
X29200Y70000D02*
D03*
X228400Y94900D02*
D03*
X128800Y368800D02*
D03*
Y94900D02*
D03*
X103900Y-4700D02*
D03*
Y194500D02*
D03*
X203500Y94900D02*
D03*
X228400Y20200D02*
D03*
X178600Y343900D02*
D03*
X203500D02*
D03*
X79000Y368800D02*
D03*
X128800Y219400D02*
D03*
X203500Y45100D02*
D03*
X29200Y343900D02*
D03*
X203500Y319000D02*
D03*
X228400Y169600D02*
D03*
X79000Y219400D02*
D03*
X4300Y294100D02*
D03*
X228400Y144700D02*
D03*
X4300Y45100D02*
D03*
X79000Y144700D02*
D03*
X4300Y70000D02*
D03*
X103900Y368800D02*
D03*
X178600Y20200D02*
D03*
X153700Y343900D02*
D03*
X54100Y368800D02*
D03*
X178600Y-4700D02*
D03*
X54100Y45100D02*
D03*
X103900Y319000D02*
D03*
X203500Y269200D02*
D03*
X103900Y45100D02*
D03*
X54100Y319000D02*
D03*
X103900Y219400D02*
D03*
X228400Y343900D02*
D03*
X4300Y244300D02*
D03*
Y343900D02*
D03*
X128800Y194500D02*
D03*
X4300Y269200D02*
D03*
X153700Y-4700D02*
D03*
X178600Y368800D02*
D03*
X203500Y194500D02*
D03*
X103900Y343900D02*
D03*
X79000Y-4700D02*
D03*
X203500Y244300D02*
D03*
X29200Y45100D02*
D03*
X128800Y244300D02*
D03*
X228400Y294100D02*
D03*
X4300Y144700D02*
D03*
X178600Y319000D02*
D03*
X103900Y294100D02*
D03*
Y94900D02*
D03*
X153700Y269200D02*
D03*
X54100Y-4700D02*
D03*
X228400Y194500D02*
D03*
X54100Y294100D02*
D03*
X4300Y319000D02*
D03*
X98662Y229911D02*
D03*
X89500D02*
D03*
X142000Y194694D02*
D03*
X89255Y177500D02*
D03*
X126500Y160763D02*
D03*
X143300Y177500D02*
D03*
X126500D02*
D03*
X175207Y169000D02*
D03*
X162000Y182354D02*
D03*
X174000Y188000D02*
D03*
X188111D02*
D03*
X187866Y197500D02*
D03*
X157500Y208000D02*
D03*
X167069Y204000D02*
D03*
X173894Y210500D02*
D03*
X191500Y214838D02*
D03*
X198896Y208500D02*
D03*
X208063Y225000D02*
D03*
X214500Y235889D02*
D03*
X192000Y137416D02*
D03*
X212994Y142500D02*
D03*
X204500Y150000D02*
D03*
X199500Y179000D02*
D03*
X193615Y164806D02*
D03*
X206500D02*
D03*
X157000Y101000D02*
D03*
Y129500D02*
D03*
X168000D02*
D03*
Y156500D02*
D03*
X157000D02*
D03*
X116000Y94900D02*
D03*
X91500Y108000D02*
D03*
X74000D02*
D03*
X56119D02*
D03*
X32472Y122000D02*
D03*
X46590Y169600D02*
D03*
X95836Y156000D02*
D03*
X85000D02*
D03*
X79000Y133753D02*
D03*
X55500Y146000D02*
D03*
Y157000D02*
D03*
X76000Y116000D02*
D03*
X90500D02*
D03*
X104500D02*
D03*
X116000D02*
D03*
X124627D02*
D03*
X137900Y122000D02*
D03*
X137000Y110623D02*
D03*
X126500Y133753D02*
D03*
X92000Y194274D02*
D03*
X115694Y133854D02*
D03*
X104000Y133753D02*
D03*
X115694Y160806D02*
D03*
X104000D02*
D03*
X115694Y144700D02*
D03*
X106762Y177500D02*
D03*
X169124Y227113D02*
D03*
X157500D02*
D03*
X139038Y219400D02*
D03*
X183829Y250000D02*
D03*
X171191D02*
D03*
X153894Y249500D02*
D03*
X147500Y242000D02*
D03*
X134500Y269200D02*
D03*
X67839Y273500D02*
D03*
X76500Y240696D02*
D03*
X114000Y264000D02*
D03*
X106762Y240000D02*
D03*
X99500Y245500D02*
D03*
X97000Y259500D02*
D03*
X88000D02*
D03*
X34000Y269200D02*
D03*
X25500D02*
D03*
X67844Y251000D02*
D03*
X59004D02*
D03*
X60000Y219400D02*
D03*
X31274Y224000D02*
D03*
X15000Y219400D02*
D03*
X56000Y197500D02*
D03*
X45500D02*
D03*
X35717D02*
D03*
X25243D02*
D03*
X15000D02*
D03*
X4300D02*
D03*
M02*
