M48
;Layer_Color=9474304
;FILE_FORMAT=2:5
INCH,TZ
;TYPE=PLATED
T1F00S00C0.01378
T2F00S00C0.01969
T3F00S00C0.02000
T4F00S00C0.03150
T5F00S00C0.03543
T6F00S00C0.04000
T7F00S00C0.04331
T8F00S00C0.05512
T9F00S00C0.09843
%
T01
X228800Y3984
Y28984
Y53984
Y78984
X215059Y87022
X228800Y103984
X201772Y87022
X208268Y77264
X201595Y59350
Y46260
X210317Y52848
X203800Y28984
Y3984
X178800
X153800
X128800
Y28984
X119095Y21752
X107874Y43485
X110409Y68157
X119942Y74358
X124705Y85827
X138189Y96518
X109941Y96568
X103198Y91568
X94685Y92077
X86221
X91240Y81791
X98130Y79626
X78800Y78984
Y53984
X91831Y60532
X89020Y33543
X78800Y28984
Y3984
X103800
X136810Y42421
X128800Y53984
X139665Y59476
X146202Y67913
X153800Y78984
X158262Y56791
X168110Y61319
Y51279
X177882Y56391
X182579Y69390
X178800Y84608
X166810Y100591
X153800Y28984
X64922Y98669
X57245Y103098
X53189Y94298
X40650
X43229Y103098
X23327Y106004
X3800Y103984
Y78984
Y53984
Y28984
Y3984
X28800
Y28984
Y53984
X53800
Y78984
X28800
X53800Y28984
Y3984
X35138Y109308
X30756Y117421
X43208Y117469
X43170Y133012
X24607Y133366
X31299Y150295
X20079Y159449
X3800Y153984
Y178984
Y203984
Y228984
X28800
Y203984
X53800
Y178984
X48782Y162303
X28800Y178984
X22244Y111516
X3800Y128984
Y253984
X28800
X53800
Y228984
X78800
Y253984
X103800
Y228984
Y203984
X125972Y201673
X121063Y194783
X133565Y190008
X129134Y183760
X133565Y177409
X133505Y164516
X137500Y158182
X129134
X133820Y150539
X123751Y145177
X136614Y134153
X129710Y127067
X120273Y120716
X102264Y127119
X94685Y132282
X87500Y126772
X76969Y127362
X64961Y133366
X57677Y144488
X70571Y157874
X91240Y151126
X94685Y147134
X98130Y156102
X106496Y156952
X96359Y163681
X103800Y178984
X76969Y185236
X78800Y203984
X84351Y143996
X102818Y139319
X102264Y113779
X94685Y118602
X83229Y111071
X150591Y120472
X157284Y130245
X150689Y139961
X167830Y147343
X162402Y153460
X157579Y178445
X150689Y186713
X151181Y194882
X153800Y203984
X178800
X203800
Y228984
Y253984
X178800
X153800
X128800
X153800Y228984
X178800
Y178984
X203800
X205020Y159153
X190748Y159055
X184265Y138091
X195768Y133169
X195571Y120691
X174882Y119193
X228800Y128984
Y153984
Y178984
Y203984
Y228984
Y253984
X203800Y278984
X178800
X153800
X128800
X103800
X78800
X53800
X28800
T02
X164449Y21358
X174449Y11358
X184449Y21358
T03
X141400Y103150
X176575Y68110
X141400Y139272
X70965Y132480
T04
X26280Y144193
X36122
X45965
Y156791
X36122
X26280
T05
X94075Y13051
X104075
X114075
X124075
X136636Y13091
X146636
T06
X62783Y16831
X198885Y16831
X208885
X52783Y16831
T07
X23500Y168484
X43500
X63500
X169000
X189000
X209000
T08
X29692Y215084
Y240084
X93590
Y215084
X138911
Y240084
X202809
Y215084
Y265084
X138911
X93590
X29692
T09
X116250Y231262
Y254884
M30
