G04*
G04 #@! TF.GenerationSoftware,Altium Limited,Altium Designer,19.0.12 (326)*
G04*
G04 Layer_Color=32896*
%FSLAX25Y25*%
%MOIN*%
G70*
G01*
G75*
%ADD11C,0.00500*%
%ADD12C,0.01000*%
%ADD14C,0.00800*%
D11*
X154000Y319937D02*
G03*
X189000Y284937I35000J0D01*
G01*
Y354937D02*
G03*
X154000Y319937I-0J-35000D01*
G01*
X189000Y354937D02*
G03*
X154000Y319937I-0J-35000D01*
G01*
Y319937D02*
G03*
X189000Y284937I35000J0D01*
G01*
D02*
G03*
X224000Y319937I0J35000D01*
G01*
Y319937D02*
G03*
X189000Y354937I-35000J0D01*
G01*
X224000Y319937D02*
G03*
X189000Y354937I-35000J0D01*
G01*
Y284937D02*
G03*
X224000Y319937I0J35000D01*
G01*
X192535D02*
G03*
X192535Y319937I-3535J0D01*
G01*
D02*
G03*
X192535Y319937I-3535J0D01*
G01*
X8500D02*
G03*
X43500Y284937I35000J0D01*
G01*
Y354937D02*
G03*
X8500Y319937I-0J-35000D01*
G01*
X43500Y354937D02*
G03*
X8500Y319937I-0J-35000D01*
G01*
Y319937D02*
G03*
X43500Y284937I35000J0D01*
G01*
D02*
G03*
X78500Y319937I0J35000D01*
G01*
Y319937D02*
G03*
X43500Y354937I-35000J0D01*
G01*
X78500Y319937D02*
G03*
X43500Y354937I-35000J0D01*
G01*
Y284937D02*
G03*
X78500Y319937I0J35000D01*
G01*
X47035D02*
G03*
X47035Y319937I-3535J0D01*
G01*
D02*
G03*
X47035Y319937I-3535J0D01*
G01*
X154000D02*
X224000D01*
X154000D02*
X224000D01*
X159000Y265000D02*
X219000D01*
X159000D02*
X219000D01*
X189000Y284937D02*
Y354937D01*
Y284937D02*
Y354937D01*
X159000Y265000D02*
Y302437D01*
Y265000D02*
Y302437D01*
X219000Y265000D02*
Y302437D01*
Y265000D02*
Y302437D01*
X8500Y319937D02*
X78500D01*
X8500D02*
X78500D01*
X13500Y265000D02*
X73500D01*
X13500D02*
X73500D01*
X43500Y284937D02*
Y354937D01*
Y284937D02*
Y354937D01*
X13500Y265000D02*
Y302437D01*
Y265000D02*
Y302437D01*
X73500Y265000D02*
Y302437D01*
Y265000D02*
Y302437D01*
D12*
X115951Y370998D02*
X117951D01*
X116951D01*
Y366000D01*
X117951Y365000D01*
X118950D01*
X119950Y366000D01*
X113952Y365000D02*
X111953D01*
X112952D01*
Y370998D01*
X113952Y369998D01*
X198500Y272998D02*
X194501D01*
X196501D01*
Y267000D01*
X189503Y272998D02*
X191502D01*
X192502Y271998D01*
Y268000D01*
X191502Y267000D01*
X189503D01*
X188503Y268000D01*
Y271998D01*
X189503Y272998D01*
X186504Y267000D02*
Y272998D01*
X182505Y267000D01*
Y272998D01*
X176507D02*
X180506D01*
Y267000D01*
X176507D01*
X180506Y269999D02*
X178507D01*
X56000Y272998D02*
Y267000D01*
X52001D01*
X46003Y272998D02*
X50002D01*
Y267000D01*
X46003D01*
X50002Y269999D02*
X48003D01*
X44004Y272998D02*
Y268999D01*
X42004Y267000D01*
X40005Y268999D01*
Y272998D01*
X34007D02*
X38006D01*
Y267000D01*
X34007D01*
X38006Y269999D02*
X36007D01*
X32008Y272998D02*
Y267000D01*
X28009D01*
D14*
X98533Y321278D02*
X106801D01*
X125699D02*
X133967D01*
Y324034D01*
X133950Y324015D02*
Y343390D01*
X98533Y321278D02*
Y374215D01*
X133967Y342538D02*
Y374215D01*
X98533D02*
X133967D01*
M02*
