G04*
G04 #@! TF.GenerationSoftware,Altium Limited,Altium Designer,19.0.12 (326)*
G04*
G04 Layer_Physical_Order=1*
G04 Layer_Color=255*
%FSLAX25Y25*%
%MOIN*%
G70*
G01*
G75*
%ADD12C,0.01000*%
%ADD37C,0.03200*%
%ADD38C,0.04724*%
%ADD39R,0.04724X0.04724*%
%ADD40C,0.06299*%
%ADD41R,0.04724X0.04724*%
%ADD42C,0.05000*%
%ADD43C,0.04331*%
%ADD44C,0.05512*%
%ADD45C,0.05118*%
%ADD46R,0.05512X0.05512*%
%ADD47R,0.07087X0.07087*%
%ADD48C,0.07087*%
%ADD49C,0.14765*%
%ADD50C,0.06600*%
%ADD51R,0.06600X0.06600*%
%ADD52C,0.06000*%
%ADD53C,0.08268*%
%ADD54C,0.04725*%
%ADD55R,0.04331X0.04331*%
%ADD56R,0.04331X0.04331*%
%ADD57C,0.03000*%
G36*
X207936Y356923D02*
X207436Y356823D01*
X207119Y357588D01*
X206328Y358619D01*
X205297Y359410D01*
X204097Y359907D01*
X202809Y360077D01*
X201521Y359907D01*
X200321Y359410D01*
X199290Y358619D01*
X198499Y357588D01*
X198002Y356388D01*
X197832Y355100D01*
X198002Y353812D01*
X198499Y352612D01*
X199290Y351581D01*
X200321Y350790D01*
X201521Y350293D01*
X202809Y350123D01*
X204097Y350293D01*
X205297Y350790D01*
X206328Y351581D01*
X207119Y352612D01*
X207436Y353377D01*
X207936Y353277D01*
Y348000D01*
X208052Y347415D01*
X208384Y346919D01*
X208880Y346587D01*
X209465Y346471D01*
X230971D01*
Y-7471D01*
X1529D01*
Y346471D01*
X23030D01*
X23615Y346587D01*
X24111Y346919D01*
X24443Y347415D01*
X24559Y348000D01*
Y353987D01*
X25059Y354020D01*
X25080Y353864D01*
X25557Y352713D01*
X26316Y351724D01*
X27305Y350965D01*
X28456Y350488D01*
X29292Y350378D01*
Y355100D01*
Y359822D01*
X28456Y359712D01*
X27305Y359235D01*
X26316Y358476D01*
X25557Y357487D01*
X25080Y356336D01*
X25059Y356180D01*
X24559Y356213D01*
Y373971D01*
X207936D01*
Y356923D01*
D02*
G37*
%LPC*%
G36*
X139311Y359822D02*
Y355500D01*
X143633D01*
X143523Y356336D01*
X143046Y357487D01*
X142287Y358476D01*
X141298Y359235D01*
X140147Y359712D01*
X139311Y359822D01*
D02*
G37*
G36*
X30092D02*
Y355500D01*
X34414D01*
X34304Y356336D01*
X33827Y357487D01*
X33068Y358476D01*
X32079Y359235D01*
X30928Y359712D01*
X30092Y359822D01*
D02*
G37*
G36*
X138511D02*
X137675Y359712D01*
X136524Y359235D01*
X135535Y358476D01*
X134776Y357487D01*
X134299Y356336D01*
X134189Y355500D01*
X138511D01*
Y359822D01*
D02*
G37*
G36*
X143633Y354700D02*
X139311D01*
Y350378D01*
X140147Y350488D01*
X141298Y350965D01*
X142287Y351724D01*
X143046Y352713D01*
X143523Y353864D01*
X143633Y354700D01*
D02*
G37*
G36*
X34414D02*
X30092D01*
Y350378D01*
X30928Y350488D01*
X32079Y350965D01*
X33068Y351724D01*
X33827Y352713D01*
X34304Y353864D01*
X34414Y354700D01*
D02*
G37*
G36*
X138511D02*
X134189D01*
X134299Y353864D01*
X134776Y352713D01*
X135535Y351724D01*
X136524Y350965D01*
X137675Y350488D01*
X138511Y350378D01*
Y354700D01*
D02*
G37*
G36*
X93590Y360077D02*
X92302Y359907D01*
X91102Y359410D01*
X90071Y358619D01*
X89280Y357588D01*
X88783Y356388D01*
X88613Y355100D01*
X88783Y353812D01*
X89280Y352612D01*
X90071Y351581D01*
X91102Y350790D01*
X92302Y350293D01*
X93590Y350123D01*
X94878Y350293D01*
X96078Y350790D01*
X97109Y351581D01*
X97900Y352612D01*
X98397Y353812D01*
X98567Y355100D01*
X98397Y356388D01*
X97900Y357588D01*
X97109Y358619D01*
X96078Y359410D01*
X94878Y359907D01*
X93590Y360077D01*
D02*
G37*
G36*
X202809Y335077D02*
X201521Y334907D01*
X200321Y334410D01*
X199290Y333619D01*
X198499Y332588D01*
X198002Y331388D01*
X197832Y330100D01*
X198002Y328812D01*
X198499Y327612D01*
X199290Y326581D01*
X200321Y325790D01*
X201521Y325293D01*
X202809Y325123D01*
X204097Y325293D01*
X205297Y325790D01*
X206328Y326581D01*
X207119Y327612D01*
X207616Y328812D01*
X207786Y330100D01*
X207616Y331388D01*
X207119Y332588D01*
X206328Y333619D01*
X205297Y334410D01*
X204097Y334907D01*
X202809Y335077D01*
D02*
G37*
G36*
X138911D02*
X137623Y334907D01*
X136423Y334410D01*
X135392Y333619D01*
X134601Y332588D01*
X134104Y331388D01*
X133934Y330100D01*
X134104Y328812D01*
X134601Y327612D01*
X135392Y326581D01*
X136423Y325790D01*
X137623Y325293D01*
X138911Y325123D01*
X140199Y325293D01*
X141399Y325790D01*
X142430Y326581D01*
X143221Y327612D01*
X143718Y328812D01*
X143888Y330100D01*
X143718Y331388D01*
X143221Y332588D01*
X142430Y333619D01*
X141399Y334410D01*
X140199Y334907D01*
X138911Y335077D01*
D02*
G37*
G36*
X93590D02*
X92302Y334907D01*
X91102Y334410D01*
X90071Y333619D01*
X89280Y332588D01*
X88783Y331388D01*
X88613Y330100D01*
X88783Y328812D01*
X89280Y327612D01*
X90071Y326581D01*
X91102Y325790D01*
X92302Y325293D01*
X93590Y325123D01*
X94878Y325293D01*
X96078Y325790D01*
X97109Y326581D01*
X97900Y327612D01*
X98397Y328812D01*
X98567Y330100D01*
X98397Y331388D01*
X97900Y332588D01*
X97109Y333619D01*
X96078Y334410D01*
X94878Y334907D01*
X93590Y335077D01*
D02*
G37*
G36*
X29692D02*
X28404Y334907D01*
X27204Y334410D01*
X26173Y333619D01*
X25382Y332588D01*
X24885Y331388D01*
X24715Y330100D01*
X24885Y328812D01*
X25382Y327612D01*
X26173Y326581D01*
X27204Y325790D01*
X28404Y325293D01*
X29692Y325123D01*
X30980Y325293D01*
X32180Y325790D01*
X33211Y326581D01*
X34002Y327612D01*
X34499Y328812D01*
X34669Y330100D01*
X34499Y331388D01*
X34002Y332588D01*
X33211Y333619D01*
X32180Y334410D01*
X30980Y334907D01*
X29692Y335077D01*
D02*
G37*
G36*
X116650Y329259D02*
Y321678D01*
X124232D01*
X124117Y322843D01*
X123660Y324347D01*
X122919Y325734D01*
X121922Y326950D01*
X120706Y327947D01*
X119319Y328688D01*
X117815Y329145D01*
X116650Y329259D01*
D02*
G37*
G36*
X115850D02*
X114685Y329145D01*
X113180Y328688D01*
X111794Y327947D01*
X110578Y326950D01*
X109581Y325734D01*
X108840Y324347D01*
X108383Y322843D01*
X108268Y321678D01*
X115850D01*
Y329259D01*
D02*
G37*
G36*
X124232Y320878D02*
X116650D01*
Y313297D01*
X117815Y313411D01*
X119319Y313868D01*
X120706Y314609D01*
X121922Y315606D01*
X122919Y316822D01*
X123660Y318209D01*
X124117Y319713D01*
X124232Y320878D01*
D02*
G37*
G36*
X115850D02*
X108268D01*
X108383Y319713D01*
X108840Y318209D01*
X109581Y316822D01*
X110578Y315606D01*
X111794Y314609D01*
X113180Y313868D01*
X114685Y313411D01*
X115850Y313297D01*
Y320878D01*
D02*
G37*
G36*
X202809Y310077D02*
X201521Y309907D01*
X200321Y309410D01*
X199290Y308619D01*
X198499Y307588D01*
X198002Y306388D01*
X197832Y305100D01*
X198002Y303812D01*
X198499Y302612D01*
X199290Y301581D01*
X200321Y300790D01*
X201521Y300293D01*
X202809Y300123D01*
X204097Y300293D01*
X205297Y300790D01*
X206328Y301581D01*
X207119Y302612D01*
X207616Y303812D01*
X207786Y305100D01*
X207616Y306388D01*
X207119Y307588D01*
X206328Y308619D01*
X205297Y309410D01*
X204097Y309907D01*
X202809Y310077D01*
D02*
G37*
G36*
X138911D02*
X137623Y309907D01*
X136423Y309410D01*
X135392Y308619D01*
X134601Y307588D01*
X134104Y306388D01*
X133934Y305100D01*
X134104Y303812D01*
X134601Y302612D01*
X135392Y301581D01*
X136423Y300790D01*
X137623Y300293D01*
X138911Y300123D01*
X140199Y300293D01*
X141399Y300790D01*
X142430Y301581D01*
X143221Y302612D01*
X143718Y303812D01*
X143888Y305100D01*
X143718Y306388D01*
X143221Y307588D01*
X142430Y308619D01*
X141399Y309410D01*
X140199Y309907D01*
X138911Y310077D01*
D02*
G37*
G36*
X93590D02*
X92302Y309907D01*
X91102Y309410D01*
X90071Y308619D01*
X89280Y307588D01*
X88783Y306388D01*
X88613Y305100D01*
X88783Y303812D01*
X89280Y302612D01*
X90071Y301581D01*
X91102Y300790D01*
X92302Y300293D01*
X93590Y300123D01*
X94878Y300293D01*
X96078Y300790D01*
X97109Y301581D01*
X97900Y302612D01*
X98397Y303812D01*
X98567Y305100D01*
X98397Y306388D01*
X97900Y307588D01*
X97109Y308619D01*
X96078Y309410D01*
X94878Y309907D01*
X93590Y310077D01*
D02*
G37*
G36*
X29692D02*
X28404Y309907D01*
X27204Y309410D01*
X26173Y308619D01*
X25382Y307588D01*
X24885Y306388D01*
X24715Y305100D01*
X24885Y303812D01*
X25382Y302612D01*
X26173Y301581D01*
X27204Y300790D01*
X28404Y300293D01*
X29692Y300123D01*
X30980Y300293D01*
X32180Y300790D01*
X33211Y301581D01*
X34002Y302612D01*
X34499Y303812D01*
X34669Y305100D01*
X34499Y306388D01*
X34002Y307588D01*
X33211Y308619D01*
X32180Y309410D01*
X30980Y309907D01*
X29692Y310077D01*
D02*
G37*
G36*
X125400Y287574D02*
Y284900D01*
X128074D01*
X128020Y285309D01*
X127708Y286063D01*
X127211Y286711D01*
X126563Y287208D01*
X125809Y287520D01*
X125400Y287574D01*
D02*
G37*
G36*
X124600D02*
X124191Y287520D01*
X123437Y287208D01*
X122789Y286711D01*
X122292Y286063D01*
X121980Y285309D01*
X121926Y284900D01*
X124600D01*
Y287574D01*
D02*
G37*
G36*
X128074Y284100D02*
X125400D01*
Y281426D01*
X125809Y281480D01*
X126563Y281792D01*
X127211Y282289D01*
X127708Y282937D01*
X128020Y283691D01*
X128074Y284100D01*
D02*
G37*
G36*
X124600D02*
X121926D01*
X121980Y283691D01*
X122292Y282937D01*
X122789Y282289D01*
X123437Y281792D01*
X124191Y281480D01*
X124600Y281426D01*
Y284100D01*
D02*
G37*
G36*
X104000Y277556D02*
X103174Y277447D01*
X102405Y277129D01*
X101744Y276622D01*
X101238Y275961D01*
X100919Y275192D01*
X100810Y274366D01*
X100919Y273540D01*
X101238Y272771D01*
X101744Y272111D01*
X102405Y271604D01*
X103174Y271285D01*
X104000Y271176D01*
X104826Y271285D01*
X105595Y271604D01*
X106255Y272111D01*
X106762Y272771D01*
X107081Y273540D01*
X107190Y274366D01*
X107081Y275192D01*
X106762Y275961D01*
X106255Y276622D01*
X105595Y277129D01*
X104826Y277447D01*
X104000Y277556D01*
D02*
G37*
G36*
X170400Y272732D02*
Y269800D01*
X173332D01*
X173270Y270276D01*
X172932Y271093D01*
X172394Y271794D01*
X171693Y272332D01*
X170876Y272670D01*
X170400Y272732D01*
D02*
G37*
G36*
X169600D02*
X169124Y272670D01*
X168307Y272332D01*
X167606Y271794D01*
X167069Y271093D01*
X166730Y270276D01*
X166668Y269800D01*
X169600D01*
Y272732D01*
D02*
G37*
G36*
X173332Y269000D02*
X170400D01*
Y266068D01*
X170876Y266130D01*
X171693Y266469D01*
X172394Y267006D01*
X172932Y267707D01*
X173270Y268524D01*
X173332Y269000D01*
D02*
G37*
G36*
X169600D02*
X166668D01*
X166730Y268524D01*
X167069Y267707D01*
X167606Y267006D01*
X168307Y266469D01*
X169124Y266130D01*
X169600Y266068D01*
Y269000D01*
D02*
G37*
G36*
X115000Y287828D02*
X114138Y287715D01*
X113336Y287383D01*
X112646Y286854D01*
X112118Y286164D01*
X111785Y285362D01*
X111671Y284500D01*
X111785Y283639D01*
X112118Y282836D01*
X112646Y282146D01*
X113336Y281617D01*
X113674Y281477D01*
Y271725D01*
X107641Y265692D01*
X106874D01*
X106762Y265961D01*
X106255Y266622D01*
X105595Y267129D01*
X104826Y267447D01*
X104000Y267556D01*
X103174Y267447D01*
X102405Y267129D01*
X101744Y266622D01*
X101238Y265961D01*
X100919Y265192D01*
X100810Y264366D01*
X100919Y263541D01*
X101238Y262771D01*
X101744Y262111D01*
X102405Y261604D01*
X103174Y261285D01*
X104000Y261176D01*
X104826Y261285D01*
X105595Y261604D01*
X106255Y262111D01*
X106762Y262771D01*
X106874Y263041D01*
X108190D01*
X108697Y263142D01*
X109127Y263429D01*
X115937Y270239D01*
X116225Y270669D01*
X116325Y271176D01*
Y281477D01*
X116664Y281617D01*
X117354Y282146D01*
X117883Y282836D01*
X118215Y283639D01*
X118328Y284500D01*
X118215Y285362D01*
X117883Y286164D01*
X117354Y286854D01*
X116664Y287383D01*
X115861Y287715D01*
X115000Y287828D01*
D02*
G37*
G36*
X79366Y270325D02*
X58000D01*
X57493Y270225D01*
X57063Y269937D01*
X53563Y266437D01*
X53275Y266007D01*
X53175Y265500D01*
Y240172D01*
X50289Y237286D01*
X39961D01*
X39454Y237186D01*
X39024Y236898D01*
X35793Y233668D01*
X35730Y233572D01*
X35717Y233574D01*
X34686Y233438D01*
X33725Y233040D01*
X32900Y232407D01*
X32267Y231582D01*
X31869Y230622D01*
X31733Y229591D01*
X31869Y228559D01*
X32267Y227599D01*
X32900Y226774D01*
X33725Y226141D01*
X34686Y225743D01*
X35717Y225607D01*
X36748Y225743D01*
X37708Y226141D01*
X38533Y226774D01*
X39166Y227599D01*
X39564Y228559D01*
X39700Y229591D01*
X39564Y230622D01*
X39166Y231582D01*
X38533Y232407D01*
X38518Y232643D01*
X40510Y234636D01*
X50838D01*
X51345Y234736D01*
X51775Y235024D01*
X55437Y238686D01*
X55725Y239116D01*
X55826Y239623D01*
Y264951D01*
X58549Y267674D01*
X78817D01*
X81030Y265461D01*
X80919Y265192D01*
X80810Y264366D01*
X80919Y263541D01*
X81238Y262771D01*
X81744Y262111D01*
X82405Y261604D01*
X83174Y261285D01*
X84000Y261176D01*
X84826Y261285D01*
X85595Y261604D01*
X86256Y262111D01*
X86762Y262771D01*
X87081Y263541D01*
X87190Y264366D01*
X87081Y265192D01*
X86762Y265961D01*
X86256Y266622D01*
X85595Y267129D01*
X84826Y267447D01*
X84000Y267556D01*
X83174Y267447D01*
X82905Y267336D01*
X80303Y269937D01*
X79873Y270225D01*
X79366Y270325D01*
D02*
G37*
G36*
X125400Y257574D02*
Y254900D01*
X128074D01*
X128020Y255309D01*
X127708Y256063D01*
X127211Y256711D01*
X126563Y257208D01*
X125809Y257520D01*
X125400Y257574D01*
D02*
G37*
G36*
X124600D02*
X124191Y257520D01*
X123437Y257208D01*
X122789Y256711D01*
X122292Y256063D01*
X121980Y255309D01*
X121926Y254900D01*
X124600D01*
Y257574D01*
D02*
G37*
G36*
X213344Y262843D02*
X204657D01*
Y254156D01*
X213344D01*
Y262843D01*
D02*
G37*
G36*
X189000Y262881D02*
X187866Y262732D01*
X186810Y262294D01*
X185902Y261598D01*
X185206Y260690D01*
X184768Y259634D01*
X184619Y258500D01*
X184768Y257366D01*
X185206Y256310D01*
X185902Y255402D01*
X186810Y254706D01*
X187866Y254268D01*
X189000Y254119D01*
X190134Y254268D01*
X191191Y254706D01*
X192098Y255402D01*
X192794Y256310D01*
X193232Y257366D01*
X193381Y258500D01*
X193232Y259634D01*
X192794Y260690D01*
X192098Y261598D01*
X191191Y262294D01*
X190134Y262732D01*
X189000Y262881D01*
D02*
G37*
G36*
X43500D02*
X42366Y262732D01*
X41309Y262294D01*
X40402Y261598D01*
X39706Y260690D01*
X39268Y259634D01*
X39119Y258500D01*
X39268Y257366D01*
X39706Y256310D01*
X40402Y255402D01*
X41309Y254706D01*
X42366Y254268D01*
X43500Y254119D01*
X44634Y254268D01*
X45691Y254706D01*
X46598Y255402D01*
X47294Y256310D01*
X47732Y257366D01*
X47881Y258500D01*
X47732Y259634D01*
X47294Y260690D01*
X46598Y261598D01*
X45691Y262294D01*
X44634Y262732D01*
X43500Y262881D01*
D02*
G37*
G36*
X23500D02*
X22366Y262732D01*
X21309Y262294D01*
X20402Y261598D01*
X19706Y260690D01*
X19268Y259634D01*
X19119Y258500D01*
X19268Y257366D01*
X19627Y256501D01*
X16348Y253222D01*
X16060Y252792D01*
X15959Y252285D01*
Y224581D01*
X16060Y224074D01*
X16348Y223644D01*
X21429Y218563D01*
X21859Y218275D01*
X22366Y218175D01*
X33942D01*
X39175Y212942D01*
Y196161D01*
X39004Y196090D01*
X38385Y195615D01*
X37910Y194995D01*
X37611Y194274D01*
X37509Y193500D01*
X37611Y192726D01*
X37910Y192005D01*
X38385Y191385D01*
X39004Y190910D01*
X39726Y190611D01*
X40500Y190509D01*
X41274Y190611D01*
X41995Y190910D01*
X42615Y191385D01*
X43090Y192005D01*
X43389Y192726D01*
X43491Y193500D01*
X43389Y194274D01*
X43090Y194995D01*
X42615Y195615D01*
X41995Y196090D01*
X41826Y196161D01*
Y213491D01*
X41725Y213998D01*
X41437Y214428D01*
X35428Y220437D01*
X34998Y220725D01*
X34491Y220826D01*
X22915D01*
X18610Y225130D01*
Y251736D01*
X21501Y254627D01*
X22366Y254268D01*
X23500Y254119D01*
X24634Y254268D01*
X25690Y254706D01*
X26598Y255402D01*
X27294Y256310D01*
X27732Y257366D01*
X27881Y258500D01*
X27732Y259634D01*
X27294Y260690D01*
X26598Y261598D01*
X25690Y262294D01*
X24634Y262732D01*
X23500Y262881D01*
D02*
G37*
G36*
X128074Y254100D02*
X125400D01*
Y251426D01*
X125809Y251480D01*
X126563Y251792D01*
X127211Y252289D01*
X127708Y252937D01*
X128020Y253691D01*
X128074Y254100D01*
D02*
G37*
G36*
X124600D02*
X121926D01*
X121980Y253691D01*
X122292Y252937D01*
X122789Y252289D01*
X123437Y251792D01*
X124191Y251480D01*
X124600Y251426D01*
Y254100D01*
D02*
G37*
G36*
X104000Y257556D02*
X103174Y257447D01*
X102405Y257129D01*
X101744Y256622D01*
X101238Y255961D01*
X100919Y255192D01*
X100810Y254366D01*
X100919Y253540D01*
X101238Y252771D01*
X101744Y252111D01*
X102405Y251604D01*
X103174Y251285D01*
X104000Y251176D01*
X104826Y251285D01*
X105595Y251604D01*
X106255Y252111D01*
X106762Y252771D01*
X107081Y253540D01*
X107190Y254366D01*
X107081Y255192D01*
X106762Y255961D01*
X106255Y256622D01*
X105595Y257129D01*
X104826Y257447D01*
X104000Y257556D01*
D02*
G37*
G36*
X84000D02*
X83174Y257447D01*
X82405Y257129D01*
X81744Y256622D01*
X81238Y255961D01*
X80919Y255192D01*
X80810Y254366D01*
X80919Y253540D01*
X81238Y252771D01*
X81744Y252111D01*
X82405Y251604D01*
X83174Y251285D01*
X84000Y251176D01*
X84826Y251285D01*
X85595Y251604D01*
X86256Y252111D01*
X86762Y252771D01*
X87081Y253540D01*
X87190Y254366D01*
X87081Y255192D01*
X86762Y255961D01*
X86256Y256622D01*
X85595Y257129D01*
X84826Y257447D01*
X84000Y257556D01*
D02*
G37*
G36*
X115000Y257828D02*
X114138Y257715D01*
X113336Y257382D01*
X112646Y256854D01*
X112118Y256164D01*
X111785Y255362D01*
X111671Y254500D01*
X111785Y253639D01*
X111925Y253300D01*
X93563Y234937D01*
X93275Y234507D01*
X93174Y234000D01*
Y224737D01*
X86500Y218062D01*
X86213Y217632D01*
X86112Y217125D01*
Y190399D01*
X86213Y189891D01*
X86500Y189461D01*
X110419Y165542D01*
Y59255D01*
X110520Y58748D01*
X110808Y58318D01*
X124425Y44700D01*
X124285Y44361D01*
X124171Y43500D01*
X124285Y42638D01*
X124618Y41836D01*
X125146Y41146D01*
X125836Y40617D01*
X126638Y40285D01*
X127500Y40172D01*
X128361Y40285D01*
X129164Y40617D01*
X129854Y41146D01*
X130383Y41836D01*
X130715Y42638D01*
X130828Y43500D01*
X130715Y44361D01*
X130383Y45164D01*
X129854Y45854D01*
X129164Y46382D01*
X128361Y46715D01*
X127500Y46828D01*
X126638Y46715D01*
X126300Y46575D01*
X113070Y59804D01*
Y166091D01*
X112969Y166598D01*
X112682Y167028D01*
X88763Y190947D01*
Y216576D01*
X95437Y223250D01*
X95725Y223680D01*
X95825Y224187D01*
Y233451D01*
X113800Y251425D01*
X114138Y251285D01*
X115000Y251171D01*
X115861Y251285D01*
X116664Y251618D01*
X117354Y252146D01*
X117883Y252836D01*
X118215Y253639D01*
X118328Y254500D01*
X118215Y255362D01*
X117883Y256164D01*
X117354Y256854D01*
X116664Y257382D01*
X115861Y257715D01*
X115000Y257828D01*
D02*
G37*
G36*
X195900Y246134D02*
Y243400D01*
X198634D01*
X198578Y243825D01*
X198259Y244593D01*
X197753Y245253D01*
X197093Y245759D01*
X196325Y246078D01*
X195900Y246134D01*
D02*
G37*
G36*
X195100D02*
X194675Y246078D01*
X193907Y245759D01*
X193247Y245253D01*
X192741Y244593D01*
X192422Y243825D01*
X192366Y243400D01*
X195100D01*
Y246134D01*
D02*
G37*
G36*
X9900Y243237D02*
Y240900D01*
X12237D01*
X12194Y241222D01*
X11916Y241895D01*
X11472Y242472D01*
X10895Y242916D01*
X10222Y243194D01*
X9900Y243237D01*
D02*
G37*
G36*
X9100D02*
X8778Y243194D01*
X8105Y242916D01*
X7528Y242472D01*
X7084Y241895D01*
X6806Y241222D01*
X6763Y240900D01*
X9100D01*
Y243237D01*
D02*
G37*
G36*
X134400Y243134D02*
Y240400D01*
X137134D01*
X137078Y240825D01*
X136759Y241593D01*
X136253Y242253D01*
X135593Y242759D01*
X134825Y243078D01*
X134400Y243134D01*
D02*
G37*
G36*
X133600D02*
X133175Y243078D01*
X132407Y242759D01*
X131747Y242253D01*
X131241Y241593D01*
X130922Y240825D01*
X130866Y240400D01*
X133600D01*
Y243134D01*
D02*
G37*
G36*
X198634Y242600D02*
X195900D01*
Y239866D01*
X196325Y239922D01*
X197093Y240241D01*
X197753Y240747D01*
X198259Y241407D01*
X198578Y242175D01*
X198634Y242600D01*
D02*
G37*
G36*
X195100D02*
X192366D01*
X192422Y242175D01*
X192741Y241407D01*
X193247Y240747D01*
X193907Y240241D01*
X194675Y239922D01*
X195100Y239866D01*
Y242600D01*
D02*
G37*
G36*
X215500Y246388D02*
X214623Y246272D01*
X213806Y245934D01*
X213104Y245396D01*
X212566Y244694D01*
X212228Y243877D01*
X212112Y243000D01*
X212228Y242123D01*
X212566Y241306D01*
X213104Y240604D01*
X213806Y240066D01*
X214623Y239727D01*
X215500Y239612D01*
X216377Y239727D01*
X217194Y240066D01*
X217896Y240604D01*
X218434Y241306D01*
X218773Y242123D01*
X218888Y243000D01*
X218773Y243877D01*
X218434Y244694D01*
X217896Y245396D01*
X217194Y245934D01*
X216377Y246272D01*
X215500Y246388D01*
D02*
G37*
G36*
X45559Y246173D02*
X44528Y246037D01*
X43567Y245639D01*
X42742Y245006D01*
X42109Y244181D01*
X41711Y243220D01*
X41576Y242189D01*
X41711Y241158D01*
X42109Y240197D01*
X42742Y239372D01*
X43567Y238739D01*
X44528Y238341D01*
X45559Y238205D01*
X46590Y238341D01*
X47551Y238739D01*
X48376Y239372D01*
X49009Y240197D01*
X49407Y241158D01*
X49543Y242189D01*
X49407Y243220D01*
X49009Y244181D01*
X48376Y245006D01*
X47551Y245639D01*
X46590Y246037D01*
X45559Y246173D01*
D02*
G37*
G36*
X35717D02*
X34686Y246037D01*
X33725Y245639D01*
X32900Y245006D01*
X32267Y244181D01*
X31869Y243220D01*
X31733Y242189D01*
X31869Y241158D01*
X32267Y240197D01*
X32900Y239372D01*
X33725Y238739D01*
X34686Y238341D01*
X35717Y238205D01*
X36748Y238341D01*
X37708Y238739D01*
X38533Y239372D01*
X39166Y240197D01*
X39564Y241158D01*
X39700Y242189D01*
X39564Y243220D01*
X39166Y244181D01*
X38533Y245006D01*
X37708Y245639D01*
X36748Y246037D01*
X35717Y246173D01*
D02*
G37*
G36*
X25874D02*
X24843Y246037D01*
X23882Y245639D01*
X23057Y245006D01*
X22424Y244181D01*
X22026Y243220D01*
X21890Y242189D01*
X22026Y241158D01*
X22424Y240197D01*
X23057Y239372D01*
X23882Y238739D01*
X24843Y238341D01*
X25874Y238205D01*
X26905Y238341D01*
X27866Y238739D01*
X28691Y239372D01*
X29324Y240197D01*
X29722Y241158D01*
X29858Y242189D01*
X29722Y243220D01*
X29324Y244181D01*
X28691Y245006D01*
X27866Y245639D01*
X26905Y246037D01*
X25874Y246173D01*
D02*
G37*
G36*
X12237Y240100D02*
X9900D01*
Y237763D01*
X10222Y237806D01*
X10895Y238084D01*
X11472Y238528D01*
X11916Y239105D01*
X12194Y239778D01*
X12237Y240100D01*
D02*
G37*
G36*
X9100D02*
X6763D01*
X6806Y239778D01*
X7084Y239105D01*
X7528Y238528D01*
X8105Y238084D01*
X8778Y237806D01*
X9100Y237763D01*
Y240100D01*
D02*
G37*
G36*
X137134Y239600D02*
X134400D01*
Y236866D01*
X134825Y236922D01*
X135593Y237241D01*
X136253Y237747D01*
X136759Y238407D01*
X137078Y239175D01*
X137134Y239600D01*
D02*
G37*
G36*
X133600D02*
X130866D01*
X130922Y239175D01*
X131241Y238407D01*
X131747Y237747D01*
X132407Y237241D01*
X133175Y236922D01*
X133600Y236866D01*
Y239600D01*
D02*
G37*
G36*
X114000Y243388D02*
X113123Y243272D01*
X112306Y242934D01*
X111604Y242396D01*
X111066Y241694D01*
X110728Y240877D01*
X110612Y240000D01*
X110728Y239123D01*
X111066Y238306D01*
X111604Y237604D01*
X112306Y237066D01*
X113123Y236727D01*
X114000Y236612D01*
X114877Y236727D01*
X115694Y237066D01*
X116396Y237604D01*
X116934Y238306D01*
X117272Y239123D01*
X117388Y240000D01*
X117272Y240877D01*
X116934Y241694D01*
X116396Y242396D01*
X115694Y242934D01*
X114877Y243272D01*
X114000Y243388D01*
D02*
G37*
G36*
X177000Y242887D02*
X176072Y242764D01*
X175207Y242406D01*
X174464Y241836D01*
X173894Y241093D01*
X173536Y240228D01*
X173413Y239300D01*
X173536Y238372D01*
X173894Y237507D01*
X174464Y236764D01*
X175207Y236194D01*
X176072Y235836D01*
X177000Y235713D01*
X177928Y235836D01*
X178793Y236194D01*
X179536Y236764D01*
X180106Y237507D01*
X180464Y238372D01*
X180587Y239300D01*
X180464Y240228D01*
X180106Y241093D01*
X179536Y241836D01*
X178793Y242406D01*
X177928Y242764D01*
X177000Y242887D01*
D02*
G37*
G36*
X157000D02*
X156072Y242764D01*
X155207Y242406D01*
X154464Y241836D01*
X153894Y241093D01*
X153535Y240228D01*
X153413Y239300D01*
X153535Y238372D01*
X153894Y237507D01*
X154464Y236764D01*
X155207Y236194D01*
X156072Y235836D01*
X157000Y235713D01*
X157928Y235836D01*
X158793Y236194D01*
X159536Y236764D01*
X160106Y237507D01*
X160465Y238372D01*
X160587Y239300D01*
X160465Y240228D01*
X160106Y241093D01*
X159536Y241836D01*
X158793Y242406D01*
X157928Y242764D01*
X157000Y242887D01*
D02*
G37*
G36*
X104000Y237556D02*
X103174Y237447D01*
X102405Y237129D01*
X101744Y236622D01*
X101238Y235961D01*
X100919Y235192D01*
X100810Y234366D01*
X100919Y233541D01*
X101238Y232771D01*
X101744Y232111D01*
X102405Y231604D01*
X103174Y231285D01*
X104000Y231176D01*
X104826Y231285D01*
X105595Y231604D01*
X106255Y232111D01*
X106762Y232771D01*
X107081Y233541D01*
X107190Y234366D01*
X107081Y235192D01*
X106762Y235961D01*
X106255Y236622D01*
X105595Y237129D01*
X104826Y237447D01*
X104000Y237556D01*
D02*
G37*
G36*
X221000Y235991D02*
X220226Y235889D01*
X219504Y235590D01*
X218885Y235115D01*
X218410Y234495D01*
X218111Y233774D01*
X218009Y233000D01*
X218111Y232226D01*
X218410Y231505D01*
X218885Y230885D01*
X219504Y230410D01*
X220226Y230111D01*
X221000Y230009D01*
X221774Y230111D01*
X222496Y230410D01*
X223115Y230885D01*
X223590Y231505D01*
X223889Y232226D01*
X223991Y233000D01*
X223889Y233774D01*
X223590Y234495D01*
X223115Y235115D01*
X222496Y235590D01*
X221774Y235889D01*
X221000Y235991D01*
D02*
G37*
G36*
X169000Y262881D02*
X167866Y262732D01*
X166809Y262294D01*
X165902Y261598D01*
X165206Y260690D01*
X164768Y259634D01*
X164619Y258500D01*
X164768Y257366D01*
X165206Y256310D01*
X165902Y255402D01*
X166809Y254706D01*
X167866Y254268D01*
X169000Y254119D01*
X170134Y254268D01*
X170999Y254627D01*
X189503Y236123D01*
X189504Y235854D01*
X189446Y235546D01*
X188885Y235115D01*
X188410Y234495D01*
X188111Y233774D01*
X188009Y233000D01*
X188111Y232226D01*
X188410Y231505D01*
X188885Y230885D01*
X189505Y230410D01*
X190226Y230111D01*
X191000Y230009D01*
X191774Y230111D01*
X192496Y230410D01*
X193115Y230885D01*
X193590Y231505D01*
X193889Y232226D01*
X193991Y233000D01*
X193889Y233774D01*
X193590Y234495D01*
X193115Y235115D01*
X192496Y235590D01*
X192325Y235661D01*
Y236500D01*
X192225Y237007D01*
X191937Y237437D01*
X172873Y256501D01*
X173232Y257366D01*
X173381Y258500D01*
X173232Y259634D01*
X172794Y260690D01*
X172098Y261598D01*
X171191Y262294D01*
X170134Y262732D01*
X169000Y262881D01*
D02*
G37*
G36*
X45559Y233574D02*
X44528Y233438D01*
X43567Y233040D01*
X42742Y232407D01*
X42109Y231582D01*
X41711Y230622D01*
X41576Y229591D01*
X41711Y228559D01*
X42109Y227599D01*
X42742Y226774D01*
X43567Y226141D01*
X44528Y225743D01*
X45559Y225607D01*
X46590Y225743D01*
X47551Y226141D01*
X48376Y226774D01*
X49009Y227599D01*
X49407Y228559D01*
X49543Y229591D01*
X49407Y230622D01*
X49009Y231582D01*
X48376Y232407D01*
X47551Y233040D01*
X46590Y233438D01*
X45559Y233574D01*
D02*
G37*
G36*
X25874D02*
X24843Y233438D01*
X23882Y233040D01*
X23057Y232407D01*
X22424Y231582D01*
X22026Y230622D01*
X21890Y229591D01*
X22026Y228559D01*
X22424Y227599D01*
X23057Y226774D01*
X23882Y226141D01*
X24843Y225743D01*
X25874Y225607D01*
X26905Y225743D01*
X27866Y226141D01*
X28691Y226774D01*
X29324Y227599D01*
X29722Y228559D01*
X29858Y229591D01*
X29722Y230622D01*
X29324Y231582D01*
X28691Y232407D01*
X27866Y233040D01*
X26905Y233438D01*
X25874Y233574D01*
D02*
G37*
G36*
X124400Y227935D02*
Y225400D01*
X126935D01*
X126886Y225773D01*
X126587Y226494D01*
X126112Y227113D01*
X125494Y227587D01*
X124773Y227886D01*
X124400Y227935D01*
D02*
G37*
G36*
X123600D02*
X123227Y227886D01*
X122506Y227587D01*
X121888Y227113D01*
X121413Y226494D01*
X121114Y225773D01*
X121065Y225400D01*
X123600D01*
Y227935D01*
D02*
G37*
G36*
X182600Y225737D02*
Y223400D01*
X184937D01*
X184894Y223722D01*
X184616Y224395D01*
X184172Y224972D01*
X183595Y225416D01*
X182922Y225694D01*
X182600Y225737D01*
D02*
G37*
G36*
X181800D02*
X181478Y225694D01*
X180805Y225416D01*
X180228Y224972D01*
X179784Y224395D01*
X179506Y223722D01*
X179463Y223400D01*
X181800D01*
Y225737D01*
D02*
G37*
G36*
X126935Y224600D02*
X124400D01*
Y222065D01*
X124773Y222114D01*
X125494Y222413D01*
X126112Y222887D01*
X126587Y223506D01*
X126886Y224227D01*
X126935Y224600D01*
D02*
G37*
G36*
X123600D02*
X121065D01*
X121114Y224227D01*
X121413Y223506D01*
X121888Y222887D01*
X122506Y222413D01*
X123227Y222114D01*
X123600Y222065D01*
Y224600D01*
D02*
G37*
G36*
X107162Y228162D02*
X100838D01*
Y221838D01*
X107162D01*
Y228162D01*
D02*
G37*
G36*
X114000Y228189D02*
X113174Y228081D01*
X112405Y227762D01*
X111745Y227255D01*
X111238Y226595D01*
X110919Y225826D01*
X110811Y225000D01*
X110919Y224174D01*
X111238Y223405D01*
X111745Y222745D01*
X112405Y222238D01*
X113174Y221919D01*
X114000Y221811D01*
X114825Y221919D01*
X115595Y222238D01*
X116255Y222745D01*
X116762Y223405D01*
X117081Y224174D01*
X117189Y225000D01*
X117081Y225826D01*
X116762Y226595D01*
X116255Y227255D01*
X115595Y227762D01*
X114825Y228081D01*
X114000Y228189D01*
D02*
G37*
G36*
X184937Y222600D02*
X182600D01*
Y220263D01*
X182922Y220306D01*
X183595Y220584D01*
X184172Y221028D01*
X184616Y221605D01*
X184894Y222278D01*
X184937Y222600D01*
D02*
G37*
G36*
X181800D02*
X179463D01*
X179506Y222278D01*
X179784Y221605D01*
X180228Y221028D01*
X180805Y220584D01*
X181478Y220306D01*
X181800Y220263D01*
Y222600D01*
D02*
G37*
G36*
X152200Y225991D02*
X151426Y225889D01*
X150705Y225590D01*
X150085Y225115D01*
X149610Y224496D01*
X149311Y223774D01*
X149209Y223000D01*
X149311Y222226D01*
X149610Y221504D01*
X150085Y220885D01*
X150705Y220410D01*
X151426Y220111D01*
X152200Y220009D01*
X152974Y220111D01*
X153695Y220410D01*
X154315Y220885D01*
X154790Y221504D01*
X155089Y222226D01*
X155191Y223000D01*
X155089Y223774D01*
X154790Y224496D01*
X154315Y225115D01*
X153695Y225590D01*
X152974Y225889D01*
X152200Y225991D01*
D02*
G37*
G36*
X211900Y220935D02*
Y218400D01*
X214435D01*
X214386Y218773D01*
X214087Y219494D01*
X213613Y220112D01*
X212994Y220587D01*
X212273Y220886D01*
X211900Y220935D01*
D02*
G37*
G36*
X211100D02*
X210727Y220886D01*
X210006Y220587D01*
X209387Y220112D01*
X208913Y219494D01*
X208614Y218773D01*
X208565Y218400D01*
X211100D01*
Y220935D01*
D02*
G37*
G36*
X214435Y217600D02*
X211900D01*
Y215065D01*
X212273Y215114D01*
X212994Y215413D01*
X213613Y215887D01*
X214087Y216506D01*
X214386Y217227D01*
X214435Y217600D01*
D02*
G37*
G36*
X211100D02*
X208565D01*
X208614Y217227D01*
X208913Y216506D01*
X209387Y215887D01*
X210006Y215413D01*
X210727Y215114D01*
X211100Y215065D01*
Y217600D01*
D02*
G37*
G36*
X204662Y221162D02*
X198338D01*
Y214838D01*
X204662D01*
Y221162D01*
D02*
G37*
G36*
X182200Y215991D02*
X181426Y215889D01*
X180704Y215590D01*
X180085Y215115D01*
X179610Y214495D01*
X179311Y213774D01*
X179209Y213000D01*
X179311Y212226D01*
X179610Y211505D01*
X180085Y210885D01*
X180704Y210410D01*
X181426Y210111D01*
X182200Y210009D01*
X182974Y210111D01*
X183695Y210410D01*
X184315Y210885D01*
X184790Y211505D01*
X185089Y212226D01*
X185191Y213000D01*
X185089Y213774D01*
X184790Y214495D01*
X184315Y215115D01*
X183695Y215590D01*
X182974Y215889D01*
X182200Y215991D01*
D02*
G37*
G36*
X9500Y213491D02*
X8726Y213389D01*
X8004Y213090D01*
X7385Y212615D01*
X6910Y211996D01*
X6611Y211274D01*
X6509Y210500D01*
X6611Y209726D01*
X6910Y209004D01*
X7385Y208385D01*
X8004Y207910D01*
X8726Y207611D01*
X9500Y207509D01*
X10274Y207611D01*
X10995Y207910D01*
X11615Y208385D01*
X12090Y209004D01*
X12389Y209726D01*
X12491Y210500D01*
X12389Y211274D01*
X12090Y211996D01*
X11615Y212615D01*
X10995Y213090D01*
X10274Y213389D01*
X9500Y213491D01*
D02*
G37*
G36*
X23662Y213662D02*
X17338D01*
Y207338D01*
X23662D01*
Y213662D01*
D02*
G37*
G36*
X30500Y213689D02*
X29675Y213581D01*
X28905Y213262D01*
X28245Y212755D01*
X27738Y212095D01*
X27419Y211326D01*
X27311Y210500D01*
X27419Y209675D01*
X27738Y208905D01*
X28245Y208245D01*
X28905Y207738D01*
X29675Y207419D01*
X30500Y207311D01*
X31326Y207419D01*
X32095Y207738D01*
X32755Y208245D01*
X33262Y208905D01*
X33581Y209675D01*
X33689Y210500D01*
X33581Y211326D01*
X33262Y212095D01*
X32755Y212755D01*
X32095Y213262D01*
X31326Y213581D01*
X30500Y213689D01*
D02*
G37*
G36*
X124627Y205737D02*
Y203400D01*
X126963D01*
X126921Y203722D01*
X126642Y204395D01*
X126199Y204972D01*
X125621Y205416D01*
X124949Y205694D01*
X124627Y205737D01*
D02*
G37*
G36*
X123827D02*
X123505Y205694D01*
X122832Y205416D01*
X122254Y204972D01*
X121811Y204395D01*
X121532Y203722D01*
X121490Y203400D01*
X123827D01*
Y205737D01*
D02*
G37*
G36*
X126963Y202600D02*
X124627D01*
Y200263D01*
X124949Y200306D01*
X125621Y200584D01*
X126199Y201028D01*
X126642Y201605D01*
X126921Y202278D01*
X126963Y202600D01*
D02*
G37*
G36*
X123827D02*
X121490D01*
X121532Y202278D01*
X121811Y201605D01*
X122254Y201028D01*
X122832Y200584D01*
X123505Y200306D01*
X123827Y200263D01*
Y202600D01*
D02*
G37*
G36*
X221500Y205991D02*
X220726Y205889D01*
X220005Y205590D01*
X219385Y205115D01*
X218910Y204496D01*
X218611Y203774D01*
X218509Y203000D01*
X218611Y202226D01*
X218910Y201504D01*
X219385Y200885D01*
X220005Y200410D01*
X220726Y200111D01*
X221500Y200009D01*
X222274Y200111D01*
X222995Y200410D01*
X223615Y200885D01*
X224090Y201504D01*
X224389Y202226D01*
X224491Y203000D01*
X224389Y203774D01*
X224090Y204496D01*
X223615Y205115D01*
X222995Y205590D01*
X222274Y205889D01*
X221500Y205991D01*
D02*
G37*
G36*
X191500D02*
X190726Y205889D01*
X190005Y205590D01*
X189385Y205115D01*
X188910Y204496D01*
X188611Y203774D01*
X188509Y203000D01*
X188611Y202226D01*
X188910Y201504D01*
X189385Y200885D01*
X190005Y200410D01*
X190726Y200111D01*
X191500Y200009D01*
X192274Y200111D01*
X192996Y200410D01*
X193615Y200885D01*
X194090Y201504D01*
X194389Y202226D01*
X194491Y203000D01*
X194389Y203774D01*
X194090Y204496D01*
X193615Y205115D01*
X192996Y205590D01*
X192274Y205889D01*
X191500Y205991D01*
D02*
G37*
G36*
X152200Y215991D02*
X151426Y215889D01*
X150705Y215590D01*
X150085Y215115D01*
X149610Y214495D01*
X149311Y213774D01*
X149209Y213000D01*
X149311Y212226D01*
X149610Y211505D01*
X150085Y210885D01*
X150705Y210410D01*
X151426Y210111D01*
X152200Y210009D01*
X152974Y210111D01*
X153695Y210410D01*
X154315Y210885D01*
X154790Y211505D01*
X154861Y211674D01*
X163915D01*
X173527Y202063D01*
X173957Y201775D01*
X174464Y201675D01*
X179539D01*
X179610Y201504D01*
X180085Y200885D01*
X180704Y200410D01*
X181426Y200111D01*
X182200Y200009D01*
X182974Y200111D01*
X183695Y200410D01*
X184315Y200885D01*
X184790Y201504D01*
X185089Y202226D01*
X185191Y203000D01*
X185089Y203774D01*
X184790Y204496D01*
X184315Y205115D01*
X183695Y205590D01*
X182974Y205889D01*
X182200Y205991D01*
X181426Y205889D01*
X180704Y205590D01*
X180085Y205115D01*
X179610Y204496D01*
X179539Y204326D01*
X175013D01*
X165401Y213937D01*
X164971Y214225D01*
X164464Y214325D01*
X154861D01*
X154790Y214495D01*
X154315Y215115D01*
X153695Y215590D01*
X152974Y215889D01*
X152200Y215991D01*
D02*
G37*
G36*
Y205991D02*
X151426Y205889D01*
X150705Y205590D01*
X150085Y205115D01*
X149610Y204496D01*
X149311Y203774D01*
X149209Y203000D01*
X149311Y202226D01*
X149610Y201504D01*
X150085Y200885D01*
X150705Y200410D01*
X151426Y200111D01*
X152200Y200009D01*
X152974Y200111D01*
X153695Y200410D01*
X154315Y200885D01*
X154790Y201504D01*
X155089Y202226D01*
X155191Y203000D01*
X155089Y203774D01*
X154790Y204496D01*
X154315Y205115D01*
X153695Y205590D01*
X152974Y205889D01*
X152200Y205991D01*
D02*
G37*
G36*
X98662Y206162D02*
X92338D01*
Y199838D01*
X98662D01*
Y206162D01*
D02*
G37*
G36*
X84000Y277556D02*
X83174Y277447D01*
X82405Y277129D01*
X81744Y276622D01*
X81238Y275961D01*
X80919Y275192D01*
X80810Y274366D01*
X80919Y273540D01*
X81238Y272771D01*
X81744Y272111D01*
X82405Y271604D01*
X83174Y271285D01*
X84000Y271176D01*
X84826Y271285D01*
X85595Y271604D01*
X86256Y272111D01*
X86762Y272771D01*
X86814Y272896D01*
X87336Y272959D01*
X91175Y269120D01*
Y253049D01*
X85951Y247826D01*
X76000D01*
X75493Y247725D01*
X75063Y247437D01*
X69563Y241937D01*
X69275Y241507D01*
X69174Y241000D01*
Y196161D01*
X69004Y196090D01*
X68385Y195615D01*
X67910Y194995D01*
X67611Y194274D01*
X67509Y193500D01*
X67611Y192726D01*
X67910Y192005D01*
X68385Y191385D01*
X69004Y190910D01*
X69726Y190611D01*
X70500Y190509D01*
X71274Y190611D01*
X71996Y190910D01*
X72615Y191385D01*
X73090Y192005D01*
X73389Y192726D01*
X73491Y193500D01*
X73389Y194274D01*
X73090Y194995D01*
X72615Y195615D01*
X71996Y196090D01*
X71825Y196161D01*
Y240451D01*
X76549Y245175D01*
X86500D01*
X87007Y245275D01*
X87437Y245563D01*
X93437Y251563D01*
X93725Y251993D01*
X93826Y252500D01*
Y269669D01*
X93725Y270176D01*
X93437Y270606D01*
X88740Y275303D01*
X88310Y275591D01*
X87803Y275692D01*
X86874D01*
X86762Y275961D01*
X86256Y276622D01*
X85595Y277129D01*
X84826Y277447D01*
X84000Y277556D01*
D02*
G37*
G36*
X60500Y196491D02*
X59726Y196389D01*
X59004Y196090D01*
X58385Y195615D01*
X57910Y194995D01*
X57611Y194274D01*
X57509Y193500D01*
X57611Y192726D01*
X57910Y192005D01*
X58385Y191385D01*
X59004Y190910D01*
X59726Y190611D01*
X60500Y190509D01*
X61274Y190611D01*
X61996Y190910D01*
X62615Y191385D01*
X63090Y192005D01*
X63389Y192726D01*
X63491Y193500D01*
X63389Y194274D01*
X63090Y194995D01*
X62615Y195615D01*
X61996Y196090D01*
X61274Y196389D01*
X60500Y196491D01*
D02*
G37*
G36*
X67844Y262843D02*
X59157D01*
Y254156D01*
X62174D01*
Y232545D01*
X49563Y219933D01*
X49275Y219503D01*
X49174Y218995D01*
Y196161D01*
X49005Y196090D01*
X48385Y195615D01*
X47910Y194995D01*
X47611Y194274D01*
X47509Y193500D01*
X47611Y192726D01*
X47910Y192005D01*
X48385Y191385D01*
X49005Y190910D01*
X49726Y190611D01*
X50500Y190509D01*
X51274Y190611D01*
X51995Y190910D01*
X52615Y191385D01*
X53090Y192005D01*
X53389Y192726D01*
X53491Y193500D01*
X53389Y194274D01*
X53090Y194995D01*
X52615Y195615D01*
X51995Y196090D01*
X51825Y196161D01*
Y218446D01*
X64437Y231058D01*
X64725Y231488D01*
X64825Y231996D01*
Y254156D01*
X67844D01*
Y262843D01*
D02*
G37*
G36*
X30500Y196491D02*
X29726Y196389D01*
X29004Y196090D01*
X28385Y195615D01*
X27910Y194995D01*
X27611Y194274D01*
X27509Y193500D01*
X27611Y192726D01*
X27910Y192005D01*
X28385Y191385D01*
X29004Y190910D01*
X29726Y190611D01*
X30500Y190509D01*
X31274Y190611D01*
X31995Y190910D01*
X32615Y191385D01*
X33090Y192005D01*
X33389Y192726D01*
X33491Y193500D01*
X33389Y194274D01*
X33090Y194995D01*
X32615Y195615D01*
X31995Y196090D01*
X31274Y196389D01*
X30500Y196491D01*
D02*
G37*
G36*
X20500Y195991D02*
X19726Y195889D01*
X19004Y195590D01*
X18385Y195115D01*
X17910Y194495D01*
X17611Y193774D01*
X17509Y193000D01*
X17611Y192226D01*
X17910Y191505D01*
X18385Y190885D01*
X19004Y190410D01*
X19726Y190111D01*
X20500Y190009D01*
X21274Y190111D01*
X21995Y190410D01*
X22615Y190885D01*
X23090Y191505D01*
X23389Y192226D01*
X23491Y193000D01*
X23389Y193774D01*
X23090Y194495D01*
X22615Y195115D01*
X21995Y195590D01*
X21274Y195889D01*
X20500Y195991D01*
D02*
G37*
G36*
X9500D02*
X8726Y195889D01*
X8004Y195590D01*
X7385Y195115D01*
X6910Y194495D01*
X6611Y193774D01*
X6509Y193000D01*
X6611Y192226D01*
X6910Y191505D01*
X7385Y190885D01*
X8004Y190410D01*
X8726Y190111D01*
X9500Y190009D01*
X10274Y190111D01*
X10995Y190410D01*
X11615Y190885D01*
X12090Y191505D01*
X12389Y192226D01*
X12491Y193000D01*
X12389Y193774D01*
X12090Y194495D01*
X11615Y195115D01*
X10995Y195590D01*
X10274Y195889D01*
X9500Y195991D01*
D02*
G37*
G36*
X216500Y196388D02*
X215623Y196273D01*
X214806Y195934D01*
X214104Y195396D01*
X213566Y194694D01*
X213228Y193877D01*
X213112Y193000D01*
X213228Y192123D01*
X213566Y191306D01*
X214104Y190604D01*
X214806Y190066D01*
X215623Y189727D01*
X216500Y189612D01*
X217377Y189727D01*
X218194Y190066D01*
X218896Y190604D01*
X219434Y191306D01*
X219773Y192123D01*
X219888Y193000D01*
X219773Y193877D01*
X219434Y194694D01*
X218896Y195396D01*
X218194Y195934D01*
X217377Y196273D01*
X216500Y196388D01*
D02*
G37*
G36*
X196500D02*
X195623Y196273D01*
X194806Y195934D01*
X194104Y195396D01*
X193566Y194694D01*
X193228Y193877D01*
X193112Y193000D01*
X193228Y192123D01*
X193566Y191306D01*
X194104Y190604D01*
X194806Y190066D01*
X195623Y189727D01*
X196500Y189612D01*
X197377Y189727D01*
X198194Y190066D01*
X198896Y190604D01*
X199434Y191306D01*
X199773Y192123D01*
X199888Y193000D01*
X199773Y193877D01*
X199434Y194694D01*
X198896Y195396D01*
X198194Y195934D01*
X197377Y196273D01*
X196500Y196388D01*
D02*
G37*
G36*
X182200D02*
X181323Y196273D01*
X180506Y195934D01*
X179804Y195396D01*
X179266Y194694D01*
X178928Y193877D01*
X178812Y193000D01*
X178928Y192123D01*
X179266Y191306D01*
X179804Y190604D01*
X180506Y190066D01*
X181323Y189727D01*
X182200Y189612D01*
X183077Y189727D01*
X183894Y190066D01*
X184596Y190604D01*
X185134Y191306D01*
X185473Y192123D01*
X185588Y193000D01*
X185473Y193877D01*
X185134Y194694D01*
X184596Y195396D01*
X183894Y195934D01*
X183077Y196273D01*
X182200Y196388D01*
D02*
G37*
G36*
X162200D02*
X161323Y196273D01*
X160506Y195934D01*
X159804Y195396D01*
X159266Y194694D01*
X158928Y193877D01*
X158812Y193000D01*
X158928Y192123D01*
X159266Y191306D01*
X159804Y190604D01*
X160506Y190066D01*
X161323Y189727D01*
X162200Y189612D01*
X163077Y189727D01*
X163894Y190066D01*
X164596Y190604D01*
X165134Y191306D01*
X165472Y192123D01*
X165588Y193000D01*
X165472Y193877D01*
X165134Y194694D01*
X164596Y195396D01*
X163894Y195934D01*
X163077Y196273D01*
X162200Y196388D01*
D02*
G37*
G36*
X212266Y183328D02*
X211405Y183215D01*
X210602Y182882D01*
X209912Y182354D01*
X209384Y181664D01*
X209051Y180861D01*
X208938Y180000D01*
X209051Y179139D01*
X209384Y178336D01*
X209912Y177646D01*
X210602Y177118D01*
X211405Y176785D01*
X212266Y176672D01*
X213128Y176785D01*
X213930Y177118D01*
X214620Y177646D01*
X215149Y178336D01*
X215481Y179139D01*
X215595Y180000D01*
X215481Y180861D01*
X215149Y181664D01*
X214620Y182354D01*
X213930Y182882D01*
X213128Y183215D01*
X212266Y183328D01*
D02*
G37*
G36*
X182266D02*
X181405Y183215D01*
X180602Y182882D01*
X179912Y182354D01*
X179384Y181664D01*
X179051Y180861D01*
X178938Y180000D01*
X179051Y179139D01*
X179384Y178336D01*
X179912Y177646D01*
X180602Y177118D01*
X181405Y176785D01*
X182266Y176672D01*
X183128Y176785D01*
X183930Y177118D01*
X184620Y177646D01*
X185149Y178336D01*
X185481Y179139D01*
X185595Y180000D01*
X185481Y180861D01*
X185149Y181664D01*
X184620Y182354D01*
X183930Y182882D01*
X183128Y183215D01*
X182266Y183328D01*
D02*
G37*
G36*
X224000Y183388D02*
X223123Y183273D01*
X222306Y182934D01*
X221604Y182396D01*
X221066Y181694D01*
X220727Y180877D01*
X220612Y180000D01*
X220727Y179123D01*
X221066Y178306D01*
X221604Y177604D01*
X222306Y177066D01*
X223123Y176727D01*
X224000Y176612D01*
X224877Y176727D01*
X225694Y177066D01*
X226396Y177604D01*
X226934Y178306D01*
X227273Y179123D01*
X227388Y180000D01*
X227273Y180877D01*
X226934Y181694D01*
X226396Y182396D01*
X225694Y182934D01*
X224877Y183273D01*
X224000Y183388D01*
D02*
G37*
G36*
X143300Y170237D02*
Y167900D01*
X145637D01*
X145594Y168222D01*
X145316Y168895D01*
X144872Y169472D01*
X144295Y169916D01*
X143622Y170194D01*
X143300Y170237D01*
D02*
G37*
G36*
X142500D02*
X142178Y170194D01*
X141505Y169916D01*
X140928Y169472D01*
X140484Y168895D01*
X140206Y168222D01*
X140163Y167900D01*
X142500D01*
Y170237D01*
D02*
G37*
G36*
X212266Y173328D02*
X211405Y173215D01*
X210602Y172882D01*
X209912Y172354D01*
X209384Y171664D01*
X209051Y170861D01*
X208938Y170000D01*
X209051Y169139D01*
X209384Y168336D01*
X209912Y167646D01*
X210602Y167118D01*
X211405Y166785D01*
X212266Y166672D01*
X213128Y166785D01*
X213930Y167118D01*
X214620Y167646D01*
X215149Y168336D01*
X215481Y169139D01*
X215595Y170000D01*
X215481Y170861D01*
X215149Y171664D01*
X214620Y172354D01*
X213930Y172882D01*
X213128Y173215D01*
X212266Y173328D01*
D02*
G37*
G36*
X182266D02*
X181405Y173215D01*
X180602Y172882D01*
X179912Y172354D01*
X179384Y171664D01*
X179051Y170861D01*
X178938Y170000D01*
X179051Y169139D01*
X179384Y168336D01*
X179912Y167646D01*
X180602Y167118D01*
X181405Y166785D01*
X182266Y166672D01*
X183128Y166785D01*
X183930Y167118D01*
X184620Y167646D01*
X185149Y168336D01*
X185481Y169139D01*
X185595Y170000D01*
X185481Y170861D01*
X185149Y171664D01*
X184620Y172354D01*
X183930Y172882D01*
X183128Y173215D01*
X182266Y173328D01*
D02*
G37*
G36*
X142500Y167100D02*
X140163D01*
X140206Y166778D01*
X140484Y166105D01*
X140928Y165528D01*
X141505Y165084D01*
X142178Y164806D01*
X142500Y164763D01*
Y167100D01*
D02*
G37*
G36*
X145637D02*
X143300D01*
Y164763D01*
X143622Y164806D01*
X144295Y165084D01*
X144872Y165528D01*
X145316Y166105D01*
X145594Y166778D01*
X145637Y167100D01*
D02*
G37*
G36*
X60900Y166237D02*
Y163900D01*
X63237D01*
X63194Y164222D01*
X62916Y164895D01*
X62472Y165472D01*
X61895Y165916D01*
X61222Y166194D01*
X60900Y166237D01*
D02*
G37*
G36*
X30900D02*
Y163900D01*
X33237D01*
X33194Y164222D01*
X32916Y164895D01*
X32472Y165472D01*
X31895Y165916D01*
X31222Y166194D01*
X30900Y166237D01*
D02*
G37*
G36*
X30100D02*
X29778Y166194D01*
X29105Y165916D01*
X28528Y165472D01*
X28084Y164895D01*
X27806Y164222D01*
X27763Y163900D01*
X30100D01*
Y166237D01*
D02*
G37*
G36*
X60100D02*
X59778Y166194D01*
X59105Y165916D01*
X58528Y165472D01*
X58084Y164895D01*
X57806Y164222D01*
X57763Y163900D01*
X60100D01*
Y166237D01*
D02*
G37*
G36*
X63237Y163100D02*
X60900D01*
Y160763D01*
X61222Y160806D01*
X61895Y161084D01*
X62472Y161528D01*
X62916Y162105D01*
X63194Y162778D01*
X63237Y163100D01*
D02*
G37*
G36*
X33237D02*
X30900D01*
Y160763D01*
X31222Y160806D01*
X31895Y161084D01*
X32472Y161528D01*
X32916Y162105D01*
X33194Y162778D01*
X33237Y163100D01*
D02*
G37*
G36*
X30100D02*
X27763D01*
X27806Y162778D01*
X28084Y162105D01*
X28528Y161528D01*
X29105Y161084D01*
X29778Y160806D01*
X30100Y160763D01*
Y163100D01*
D02*
G37*
G36*
X60100D02*
X57763D01*
X57806Y162778D01*
X58084Y162105D01*
X58528Y161528D01*
X59105Y161084D01*
X59778Y160806D01*
X60100Y160763D01*
Y163100D01*
D02*
G37*
G36*
X70500Y166491D02*
X69726Y166389D01*
X69004Y166090D01*
X68385Y165615D01*
X67910Y164996D01*
X67611Y164274D01*
X67509Y163500D01*
X67611Y162726D01*
X67910Y162004D01*
X68385Y161385D01*
X69004Y160910D01*
X69726Y160611D01*
X70500Y160509D01*
X71274Y160611D01*
X71996Y160910D01*
X72615Y161385D01*
X73090Y162004D01*
X73389Y162726D01*
X73491Y163500D01*
X73389Y164274D01*
X73090Y164996D01*
X72615Y165615D01*
X71996Y166090D01*
X71274Y166389D01*
X70500Y166491D01*
D02*
G37*
G36*
X50500D02*
X49726Y166389D01*
X49005Y166090D01*
X48385Y165615D01*
X47910Y164996D01*
X47611Y164274D01*
X47509Y163500D01*
X47611Y162726D01*
X47910Y162004D01*
X48385Y161385D01*
X49005Y160910D01*
X49726Y160611D01*
X50500Y160509D01*
X51274Y160611D01*
X51995Y160910D01*
X52615Y161385D01*
X53090Y162004D01*
X53389Y162726D01*
X53491Y163500D01*
X53389Y164274D01*
X53090Y164996D01*
X52615Y165615D01*
X51995Y166090D01*
X51274Y166389D01*
X50500Y166491D01*
D02*
G37*
G36*
X40500D02*
X39726Y166389D01*
X39004Y166090D01*
X38385Y165615D01*
X37910Y164996D01*
X37611Y164274D01*
X37509Y163500D01*
X37611Y162726D01*
X37910Y162004D01*
X38385Y161385D01*
X39004Y160910D01*
X39726Y160611D01*
X40500Y160509D01*
X41274Y160611D01*
X41995Y160910D01*
X42615Y161385D01*
X43090Y162004D01*
X43389Y162726D01*
X43491Y163500D01*
X43389Y164274D01*
X43090Y164996D01*
X42615Y165615D01*
X41995Y166090D01*
X41274Y166389D01*
X40500Y166491D01*
D02*
G37*
G36*
X224400Y163134D02*
Y160400D01*
X227134D01*
X227078Y160825D01*
X226759Y161593D01*
X226253Y162253D01*
X225593Y162759D01*
X224825Y163078D01*
X224400Y163134D01*
D02*
G37*
G36*
X223600D02*
X223175Y163078D01*
X222407Y162759D01*
X221747Y162253D01*
X221241Y161593D01*
X220922Y160825D01*
X220866Y160400D01*
X223600D01*
Y163134D01*
D02*
G37*
G36*
X20500Y165991D02*
X19726Y165889D01*
X19004Y165590D01*
X18385Y165115D01*
X17910Y164496D01*
X17611Y163774D01*
X17509Y163000D01*
X17611Y162226D01*
X17910Y161504D01*
X18385Y160885D01*
X19004Y160410D01*
X19726Y160111D01*
X20500Y160009D01*
X21274Y160111D01*
X21995Y160410D01*
X22615Y160885D01*
X23090Y161504D01*
X23389Y162226D01*
X23491Y163000D01*
X23389Y163774D01*
X23090Y164496D01*
X22615Y165115D01*
X21995Y165590D01*
X21274Y165889D01*
X20500Y165991D01*
D02*
G37*
G36*
X9500D02*
X8726Y165889D01*
X8004Y165590D01*
X7385Y165115D01*
X6910Y164496D01*
X6611Y163774D01*
X6509Y163000D01*
X6611Y162226D01*
X6910Y161504D01*
X7385Y160885D01*
X8004Y160410D01*
X8726Y160111D01*
X9500Y160009D01*
X10274Y160111D01*
X10995Y160410D01*
X11615Y160885D01*
X12090Y161504D01*
X12389Y162226D01*
X12491Y163000D01*
X12389Y163774D01*
X12090Y164496D01*
X11615Y165115D01*
X10995Y165590D01*
X10274Y165889D01*
X9500Y165991D01*
D02*
G37*
G36*
X227134Y159600D02*
X224400D01*
Y156866D01*
X224825Y156922D01*
X225593Y157241D01*
X226253Y157747D01*
X226759Y158407D01*
X227078Y159175D01*
X227134Y159600D01*
D02*
G37*
G36*
X223600D02*
X220866D01*
X220922Y159175D01*
X221241Y158407D01*
X221747Y157747D01*
X222407Y157241D01*
X223175Y156922D01*
X223600Y156866D01*
Y159600D01*
D02*
G37*
G36*
X212266Y163329D02*
X211405Y163215D01*
X210602Y162882D01*
X209912Y162354D01*
X209384Y161664D01*
X209051Y160862D01*
X208938Y160000D01*
X209051Y159139D01*
X209384Y158336D01*
X209912Y157646D01*
X210602Y157117D01*
X211405Y156785D01*
X212266Y156672D01*
X213128Y156785D01*
X213930Y157117D01*
X214620Y157646D01*
X215149Y158336D01*
X215481Y159139D01*
X215595Y160000D01*
X215481Y160862D01*
X215149Y161664D01*
X214620Y162354D01*
X213930Y162882D01*
X213128Y163215D01*
X212266Y163329D01*
D02*
G37*
G36*
X182266D02*
X181405Y163215D01*
X180602Y162882D01*
X179912Y162354D01*
X179384Y161664D01*
X179051Y160862D01*
X178938Y160000D01*
X179051Y159139D01*
X179384Y158336D01*
X179912Y157646D01*
X180602Y157117D01*
X181405Y156785D01*
X182266Y156672D01*
X183128Y156785D01*
X183930Y157117D01*
X184620Y157646D01*
X185149Y158336D01*
X185481Y159139D01*
X185595Y160000D01*
X185481Y160862D01*
X185149Y161664D01*
X184620Y162354D01*
X183930Y162882D01*
X183128Y163215D01*
X182266Y163329D01*
D02*
G37*
G36*
X145865Y160466D02*
X139935D01*
Y154534D01*
X145865D01*
Y160466D01*
D02*
G37*
G36*
X182666Y153074D02*
Y150400D01*
X185340D01*
X185286Y150809D01*
X184974Y151563D01*
X184477Y152211D01*
X183829Y152708D01*
X183075Y153020D01*
X182666Y153074D01*
D02*
G37*
G36*
X181866D02*
X181457Y153020D01*
X180703Y152708D01*
X180055Y152211D01*
X179558Y151563D01*
X179246Y150809D01*
X179192Y150400D01*
X181866D01*
Y153074D01*
D02*
G37*
G36*
X100500Y154491D02*
X99726Y154389D01*
X99005Y154090D01*
X98385Y153615D01*
X97910Y152996D01*
X97611Y152274D01*
X97509Y151500D01*
X97611Y150726D01*
X97910Y150004D01*
X98385Y149385D01*
X99005Y148910D01*
X99726Y148611D01*
X100500Y148509D01*
X101274Y148611D01*
X101996Y148910D01*
X102615Y149385D01*
X103090Y150004D01*
X103389Y150726D01*
X103491Y151500D01*
X103389Y152274D01*
X103090Y152996D01*
X102615Y153615D01*
X101996Y154090D01*
X101274Y154389D01*
X100500Y154491D01*
D02*
G37*
G36*
X80500D02*
X79726Y154389D01*
X79005Y154090D01*
X78385Y153615D01*
X77910Y152996D01*
X77611Y152274D01*
X77509Y151500D01*
X77611Y150726D01*
X77910Y150004D01*
X78385Y149385D01*
X79005Y148910D01*
X79726Y148611D01*
X80500Y148509D01*
X81274Y148611D01*
X81995Y148910D01*
X82615Y149385D01*
X83090Y150004D01*
X83389Y150726D01*
X83491Y151500D01*
X83389Y152274D01*
X83090Y152996D01*
X82615Y153615D01*
X81995Y154090D01*
X81274Y154389D01*
X80500Y154491D01*
D02*
G37*
G36*
X50500Y154829D02*
X49639Y154715D01*
X48836Y154383D01*
X48146Y153854D01*
X47618Y153164D01*
X47285Y152362D01*
X47172Y151500D01*
X47285Y150638D01*
X47618Y149836D01*
X48146Y149146D01*
X48836Y148617D01*
X49639Y148285D01*
X50500Y148171D01*
X51362Y148285D01*
X52164Y148617D01*
X52854Y149146D01*
X53383Y149836D01*
X53715Y150638D01*
X53829Y151500D01*
X53715Y152362D01*
X53383Y153164D01*
X52854Y153854D01*
X52164Y154383D01*
X51362Y154715D01*
X50500Y154829D01*
D02*
G37*
G36*
X20500D02*
X19638Y154715D01*
X18836Y154383D01*
X18146Y153854D01*
X17617Y153164D01*
X17285Y152362D01*
X17172Y151500D01*
X17285Y150638D01*
X17617Y149836D01*
X18146Y149146D01*
X18836Y148617D01*
X19638Y148285D01*
X20500Y148171D01*
X21362Y148285D01*
X22164Y148617D01*
X22854Y149146D01*
X23383Y149836D01*
X23715Y150638D01*
X23829Y151500D01*
X23715Y152362D01*
X23383Y153164D01*
X22854Y153854D01*
X22164Y154383D01*
X21362Y154715D01*
X20500Y154829D01*
D02*
G37*
G36*
X90500Y154888D02*
X89623Y154772D01*
X88806Y154434D01*
X88104Y153896D01*
X87566Y153194D01*
X87227Y152377D01*
X87112Y151500D01*
X87227Y150623D01*
X87566Y149806D01*
X88104Y149104D01*
X88806Y148566D01*
X89623Y148228D01*
X90500Y148112D01*
X91377Y148228D01*
X92194Y148566D01*
X92896Y149104D01*
X93434Y149806D01*
X93773Y150623D01*
X93888Y151500D01*
X93773Y152377D01*
X93434Y153194D01*
X92896Y153896D01*
X92194Y154434D01*
X91377Y154772D01*
X90500Y154888D01*
D02*
G37*
G36*
X70500D02*
X69623Y154772D01*
X68806Y154434D01*
X68104Y153896D01*
X67566Y153194D01*
X67228Y152377D01*
X67112Y151500D01*
X67228Y150623D01*
X67566Y149806D01*
X68104Y149104D01*
X68806Y148566D01*
X69623Y148228D01*
X70500Y148112D01*
X71377Y148228D01*
X72194Y148566D01*
X72896Y149104D01*
X73434Y149806D01*
X73773Y150623D01*
X73888Y151500D01*
X73773Y152377D01*
X73434Y153194D01*
X72896Y153896D01*
X72194Y154434D01*
X71377Y154772D01*
X70500Y154888D01*
D02*
G37*
G36*
X60500D02*
X59623Y154772D01*
X58806Y154434D01*
X58104Y153896D01*
X57566Y153194D01*
X57227Y152377D01*
X57112Y151500D01*
X57227Y150623D01*
X57566Y149806D01*
X58104Y149104D01*
X58806Y148566D01*
X59623Y148228D01*
X60500Y148112D01*
X61377Y148228D01*
X62194Y148566D01*
X62896Y149104D01*
X63434Y149806D01*
X63772Y150623D01*
X63888Y151500D01*
X63772Y152377D01*
X63434Y153194D01*
X62896Y153896D01*
X62194Y154434D01*
X61377Y154772D01*
X60500Y154888D01*
D02*
G37*
G36*
X9500D02*
X8623Y154772D01*
X7806Y154434D01*
X7104Y153896D01*
X6566Y153194D01*
X6227Y152377D01*
X6112Y151500D01*
X6227Y150623D01*
X6566Y149806D01*
X7104Y149104D01*
X7806Y148566D01*
X8623Y148228D01*
X9500Y148112D01*
X10377Y148228D01*
X11194Y148566D01*
X11896Y149104D01*
X12434Y149806D01*
X12773Y150623D01*
X12888Y151500D01*
X12773Y152377D01*
X12434Y153194D01*
X11896Y153896D01*
X11194Y154434D01*
X10377Y154772D01*
X9500Y154888D01*
D02*
G37*
G36*
X185340Y149600D02*
X182666D01*
Y146926D01*
X183075Y146980D01*
X183829Y147292D01*
X184477Y147789D01*
X184974Y148437D01*
X185286Y149191D01*
X185340Y149600D01*
D02*
G37*
G36*
X181866D02*
X179192D01*
X179246Y149191D01*
X179558Y148437D01*
X180055Y147789D01*
X180703Y147292D01*
X181457Y146980D01*
X181866Y146926D01*
Y149600D01*
D02*
G37*
G36*
X212266Y153329D02*
X211405Y153215D01*
X210602Y152883D01*
X209912Y152354D01*
X209384Y151664D01*
X209051Y150862D01*
X208938Y150000D01*
X209051Y149138D01*
X209384Y148336D01*
X209912Y147646D01*
X210602Y147117D01*
X211405Y146785D01*
X212266Y146671D01*
X213128Y146785D01*
X213930Y147117D01*
X214620Y147646D01*
X215149Y148336D01*
X215481Y149138D01*
X215595Y150000D01*
X215481Y150862D01*
X215149Y151664D01*
X214620Y152354D01*
X213930Y152883D01*
X213128Y153215D01*
X212266Y153329D01*
D02*
G37*
G36*
X133800Y148737D02*
Y146400D01*
X136137D01*
X136094Y146722D01*
X135816Y147395D01*
X135372Y147972D01*
X134795Y148416D01*
X134122Y148694D01*
X133800Y148737D01*
D02*
G37*
G36*
X133000D02*
X132678Y148694D01*
X132005Y148416D01*
X131428Y147972D01*
X130984Y147395D01*
X130706Y146722D01*
X130663Y146400D01*
X133000D01*
Y148737D01*
D02*
G37*
G36*
Y145600D02*
X130663D01*
X130706Y145278D01*
X130984Y144605D01*
X131428Y144028D01*
X132005Y143584D01*
X132678Y143306D01*
X133000Y143263D01*
Y145600D01*
D02*
G37*
G36*
X136137D02*
X133800D01*
Y143263D01*
X134122Y143306D01*
X134795Y143584D01*
X135372Y144028D01*
X135816Y144605D01*
X136094Y145278D01*
X136137Y145600D01*
D02*
G37*
G36*
X152400Y148991D02*
X151626Y148889D01*
X150905Y148590D01*
X150285Y148115D01*
X149810Y147496D01*
X149511Y146774D01*
X149409Y146000D01*
X149511Y145226D01*
X149810Y144504D01*
X150285Y143885D01*
X150905Y143410D01*
X151626Y143111D01*
X152400Y143009D01*
X153174Y143111D01*
X153896Y143410D01*
X154515Y143885D01*
X154990Y144504D01*
X155289Y145226D01*
X155391Y146000D01*
X155289Y146774D01*
X154990Y147496D01*
X154515Y148115D01*
X153896Y148590D01*
X153174Y148889D01*
X152400Y148991D01*
D02*
G37*
G36*
X142900D02*
X142126Y148889D01*
X141404Y148590D01*
X140785Y148115D01*
X140310Y147496D01*
X140011Y146774D01*
X139909Y146000D01*
X140011Y145226D01*
X140310Y144504D01*
X140785Y143885D01*
X141404Y143410D01*
X142126Y143111D01*
X142900Y143009D01*
X143674Y143111D01*
X144396Y143410D01*
X145015Y143885D01*
X145490Y144504D01*
X145789Y145226D01*
X145891Y146000D01*
X145789Y146774D01*
X145490Y147496D01*
X145015Y148115D01*
X144396Y148590D01*
X143674Y148889D01*
X142900Y148991D01*
D02*
G37*
G36*
X50500Y144828D02*
X49639Y144715D01*
X48836Y144383D01*
X48146Y143854D01*
X47618Y143164D01*
X47285Y142361D01*
X47172Y141500D01*
X47285Y140638D01*
X47618Y139836D01*
X48146Y139146D01*
X48836Y138618D01*
X49639Y138285D01*
X50500Y138172D01*
X51362Y138285D01*
X52164Y138618D01*
X52854Y139146D01*
X53383Y139836D01*
X53715Y140638D01*
X53829Y141500D01*
X53715Y142361D01*
X53383Y143164D01*
X52854Y143854D01*
X52164Y144383D01*
X51362Y144715D01*
X50500Y144828D01*
D02*
G37*
G36*
X20500D02*
X19638Y144715D01*
X18836Y144383D01*
X18146Y143854D01*
X17617Y143164D01*
X17285Y142361D01*
X17172Y141500D01*
X17285Y140638D01*
X17617Y139836D01*
X18146Y139146D01*
X18836Y138618D01*
X19638Y138285D01*
X20500Y138172D01*
X21362Y138285D01*
X22164Y138618D01*
X22854Y139146D01*
X23383Y139836D01*
X23715Y140638D01*
X23829Y141500D01*
X23715Y142361D01*
X23383Y143164D01*
X22854Y143854D01*
X22164Y144383D01*
X21362Y144715D01*
X20500Y144828D01*
D02*
G37*
G36*
X60900Y134634D02*
Y131900D01*
X63634D01*
X63578Y132325D01*
X63259Y133093D01*
X62753Y133753D01*
X62093Y134259D01*
X61325Y134578D01*
X60900Y134634D01*
D02*
G37*
G36*
X60100D02*
X59675Y134578D01*
X58907Y134259D01*
X58247Y133753D01*
X57741Y133093D01*
X57422Y132325D01*
X57366Y131900D01*
X60100D01*
Y134634D01*
D02*
G37*
G36*
X63634Y131100D02*
X60900D01*
Y128366D01*
X61325Y128422D01*
X62093Y128741D01*
X62753Y129247D01*
X63259Y129907D01*
X63578Y130675D01*
X63634Y131100D01*
D02*
G37*
G36*
X60100D02*
X57366D01*
X57422Y130675D01*
X57741Y129907D01*
X58247Y129247D01*
X58907Y128741D01*
X59675Y128422D01*
X60100Y128366D01*
Y131100D01*
D02*
G37*
G36*
X20500Y134828D02*
X19638Y134715D01*
X18836Y134382D01*
X18146Y133854D01*
X17617Y133164D01*
X17285Y132361D01*
X17172Y131500D01*
X17285Y130639D01*
X17617Y129836D01*
X18146Y129146D01*
X18836Y128618D01*
X19638Y128285D01*
X20500Y128172D01*
X21362Y128285D01*
X22164Y128618D01*
X22854Y129146D01*
X23383Y129836D01*
X23715Y130639D01*
X23829Y131500D01*
X23715Y132361D01*
X23383Y133164D01*
X22854Y133854D01*
X22164Y134382D01*
X21362Y134715D01*
X20500Y134828D01*
D02*
G37*
G36*
X90500Y134888D02*
X89623Y134773D01*
X88806Y134434D01*
X88104Y133896D01*
X87566Y133194D01*
X87227Y132377D01*
X87112Y131500D01*
X87227Y130623D01*
X87566Y129806D01*
X88104Y129104D01*
X88806Y128566D01*
X89623Y128227D01*
X90500Y128112D01*
X91377Y128227D01*
X92194Y128566D01*
X92896Y129104D01*
X93434Y129806D01*
X93773Y130623D01*
X93888Y131500D01*
X93773Y132377D01*
X93434Y133194D01*
X92896Y133896D01*
X92194Y134434D01*
X91377Y134773D01*
X90500Y134888D01*
D02*
G37*
G36*
X70500D02*
X69623Y134773D01*
X68806Y134434D01*
X68104Y133896D01*
X67566Y133194D01*
X67228Y132377D01*
X67112Y131500D01*
X67228Y130623D01*
X67566Y129806D01*
X68104Y129104D01*
X68806Y128566D01*
X69623Y128227D01*
X70500Y128112D01*
X71377Y128227D01*
X72194Y128566D01*
X72896Y129104D01*
X73434Y129806D01*
X73773Y130623D01*
X73888Y131500D01*
X73773Y132377D01*
X73434Y133194D01*
X72896Y133896D01*
X72194Y134434D01*
X71377Y134773D01*
X70500Y134888D01*
D02*
G37*
G36*
X9500D02*
X8623Y134773D01*
X7806Y134434D01*
X7104Y133896D01*
X6566Y133194D01*
X6227Y132377D01*
X6112Y131500D01*
X6227Y130623D01*
X6566Y129806D01*
X7104Y129104D01*
X7806Y128566D01*
X8623Y128227D01*
X9500Y128112D01*
X10377Y128227D01*
X11194Y128566D01*
X11896Y129104D01*
X12434Y129806D01*
X12773Y130623D01*
X12888Y131500D01*
X12773Y132377D01*
X12434Y133194D01*
X11896Y133896D01*
X11194Y134434D01*
X10377Y134773D01*
X9500Y134888D01*
D02*
G37*
G36*
X20900Y124574D02*
Y121900D01*
X23574D01*
X23520Y122309D01*
X23208Y123063D01*
X22711Y123711D01*
X22063Y124208D01*
X21309Y124520D01*
X20900Y124574D01*
D02*
G37*
G36*
X20100D02*
X19691Y124520D01*
X18937Y124208D01*
X18289Y123711D01*
X17792Y123063D01*
X17480Y122309D01*
X17426Y121900D01*
X20100D01*
Y124574D01*
D02*
G37*
G36*
X100500Y124491D02*
X99726Y124389D01*
X99005Y124090D01*
X98385Y123615D01*
X97910Y122995D01*
X97611Y122274D01*
X97509Y121500D01*
X97611Y120726D01*
X97910Y120004D01*
X98385Y119385D01*
X99005Y118910D01*
X99726Y118611D01*
X100500Y118509D01*
X101274Y118611D01*
X101996Y118910D01*
X102615Y119385D01*
X103090Y120004D01*
X103389Y120726D01*
X103491Y121500D01*
X103389Y122274D01*
X103090Y122995D01*
X102615Y123615D01*
X101996Y124090D01*
X101274Y124389D01*
X100500Y124491D01*
D02*
G37*
G36*
X50500Y134828D02*
X49639Y134715D01*
X48836Y134382D01*
X48146Y133854D01*
X47618Y133164D01*
X47285Y132361D01*
X47172Y131500D01*
X47285Y130639D01*
X47618Y129836D01*
X48146Y129146D01*
X48836Y128618D01*
X49639Y128285D01*
X50500Y128172D01*
X51362Y128285D01*
X51700Y128425D01*
X57063Y123063D01*
X57493Y122775D01*
X58000Y122675D01*
X77258D01*
X77502Y122398D01*
X77606Y122239D01*
X77509Y121500D01*
X77611Y120726D01*
X77910Y120004D01*
X78385Y119385D01*
X79005Y118910D01*
X79726Y118611D01*
X80500Y118509D01*
X81274Y118611D01*
X81995Y118910D01*
X82615Y119385D01*
X83090Y120004D01*
X83389Y120726D01*
X83491Y121500D01*
X83389Y122274D01*
X83090Y122995D01*
X82615Y123615D01*
X81995Y124090D01*
X81274Y124389D01*
X80500Y124491D01*
X79726Y124389D01*
X79556Y124319D01*
X78937Y124937D01*
X78507Y125225D01*
X78000Y125326D01*
X58549D01*
X53575Y130300D01*
X53715Y130639D01*
X53829Y131500D01*
X53715Y132361D01*
X53383Y133164D01*
X52854Y133854D01*
X52164Y134382D01*
X51362Y134715D01*
X50500Y134828D01*
D02*
G37*
G36*
X116250Y353122D02*
X114646Y352964D01*
X113104Y352496D01*
X111682Y351736D01*
X110436Y350714D01*
X109414Y349468D01*
X108654Y348046D01*
X108186Y346504D01*
X108028Y344900D01*
X108186Y343296D01*
X108654Y341754D01*
X109414Y340332D01*
X110436Y339086D01*
X111682Y338064D01*
X113104Y337304D01*
X114646Y336836D01*
X116250Y336678D01*
X117854Y336836D01*
X119396Y337304D01*
X120818Y338064D01*
X122064Y339086D01*
X123086Y340332D01*
X123570Y341238D01*
X124065Y341311D01*
X126553Y338823D01*
Y294000D01*
X126739Y293064D01*
X127270Y292270D01*
X139553Y279986D01*
Y272956D01*
X138444D01*
Y265844D01*
X139553D01*
Y234014D01*
X133687Y228148D01*
X133175Y228081D01*
X132405Y227762D01*
X131745Y227255D01*
X131238Y226595D01*
X130919Y225826D01*
X130811Y225000D01*
X130919Y224174D01*
X131238Y223405D01*
X131553Y222995D01*
Y205965D01*
X131261D01*
Y200034D01*
X131780D01*
Y194448D01*
X131966Y193511D01*
X132497Y192718D01*
X160053Y165161D01*
Y118447D01*
X154082D01*
X153896Y118590D01*
X153174Y118889D01*
X152400Y118991D01*
X151626Y118889D01*
X150905Y118590D01*
X150285Y118115D01*
X149810Y117496D01*
X149511Y116774D01*
X149409Y116000D01*
X149511Y115226D01*
X149810Y114504D01*
X150285Y113885D01*
X150905Y113410D01*
X151626Y113111D01*
X152400Y113009D01*
X153174Y113111D01*
X153896Y113410D01*
X154082Y113553D01*
X160053D01*
Y93761D01*
X156052Y89761D01*
X144261D01*
X143324Y89574D01*
X142530Y89044D01*
X136770Y83283D01*
X136239Y82489D01*
X136053Y81553D01*
Y71005D01*
X135738Y70595D01*
X135419Y69826D01*
X135311Y69000D01*
X135419Y68174D01*
X135738Y67405D01*
X136245Y66745D01*
X136905Y66238D01*
X137674Y65919D01*
X138500Y65811D01*
X139325Y65919D01*
X140095Y66238D01*
X140755Y66745D01*
X141262Y67405D01*
X141581Y68174D01*
X141689Y69000D01*
X141581Y69826D01*
X141262Y70595D01*
X140947Y71005D01*
Y80539D01*
X145274Y84867D01*
X157066D01*
X158002Y85053D01*
X158796Y85583D01*
X164230Y91018D01*
X164761Y91812D01*
X164947Y92748D01*
Y116000D01*
Y166174D01*
X164761Y167111D01*
X164230Y167905D01*
X136674Y195461D01*
Y200034D01*
X137192D01*
Y205965D01*
X136447D01*
Y222995D01*
X136762Y223405D01*
X137081Y224174D01*
X137148Y224688D01*
X143730Y231270D01*
X144261Y232064D01*
X144447Y233000D01*
Y265844D01*
X145556D01*
Y272956D01*
X144447D01*
Y281000D01*
X144261Y281936D01*
X143730Y282730D01*
X131447Y295014D01*
Y339836D01*
X131261Y340773D01*
X130730Y341567D01*
X125667Y346630D01*
X124873Y347161D01*
X124066Y347321D01*
X123846Y348046D01*
X123086Y349468D01*
X122064Y350714D01*
X120818Y351736D01*
X119396Y352496D01*
X117854Y352964D01*
X116250Y353122D01*
D02*
G37*
G36*
X23574Y121100D02*
X20900D01*
Y118426D01*
X21309Y118480D01*
X22063Y118792D01*
X22711Y119289D01*
X23208Y119937D01*
X23520Y120691D01*
X23574Y121100D01*
D02*
G37*
G36*
X20100D02*
X17426D01*
X17480Y120691D01*
X17792Y119937D01*
X18289Y119289D01*
X18937Y118792D01*
X19691Y118480D01*
X20100Y118426D01*
Y121100D01*
D02*
G37*
G36*
X50500Y124829D02*
X49639Y124715D01*
X48836Y124382D01*
X48146Y123854D01*
X47618Y123164D01*
X47285Y122362D01*
X47172Y121500D01*
X47285Y120639D01*
X47618Y119836D01*
X48146Y119146D01*
X48836Y118617D01*
X49639Y118285D01*
X50500Y118172D01*
X51362Y118285D01*
X52164Y118617D01*
X52854Y119146D01*
X53383Y119836D01*
X53715Y120639D01*
X53829Y121500D01*
X53715Y122362D01*
X53383Y123164D01*
X52854Y123854D01*
X52164Y124382D01*
X51362Y124715D01*
X50500Y124829D01*
D02*
G37*
G36*
X142900Y118991D02*
X142126Y118889D01*
X141404Y118590D01*
X140785Y118115D01*
X140310Y117496D01*
X140011Y116774D01*
X139909Y116000D01*
X140011Y115226D01*
X140310Y114504D01*
X140785Y113885D01*
X141404Y113410D01*
X142126Y113111D01*
X142900Y113009D01*
X143674Y113111D01*
X144396Y113410D01*
X145015Y113885D01*
X145490Y114504D01*
X145789Y115226D01*
X145891Y116000D01*
X145789Y116774D01*
X145490Y117496D01*
X145015Y118115D01*
X144396Y118590D01*
X143674Y118889D01*
X142900Y118991D01*
D02*
G37*
G36*
X105500Y206189D02*
X104674Y206081D01*
X103905Y205762D01*
X103245Y205255D01*
X102738Y204595D01*
X102419Y203825D01*
X102311Y203000D01*
X102419Y202174D01*
X102738Y201405D01*
X103245Y200745D01*
X103905Y200238D01*
X104674Y199919D01*
X105188Y199852D01*
X118667Y186372D01*
Y128286D01*
X118853Y127349D01*
X119384Y126556D01*
X130480Y115459D01*
X130511Y115226D01*
X130810Y114504D01*
X131285Y113885D01*
X131904Y113410D01*
X132626Y113111D01*
X133400Y113009D01*
X134174Y113111D01*
X134896Y113410D01*
X135515Y113885D01*
X135990Y114504D01*
X136289Y115226D01*
X136391Y116000D01*
X136289Y116774D01*
X135990Y117496D01*
X135515Y118115D01*
X134896Y118590D01*
X134174Y118889D01*
X133941Y118920D01*
X123561Y129299D01*
Y187386D01*
X123375Y188322D01*
X122845Y189116D01*
X108648Y203312D01*
X108581Y203825D01*
X108262Y204595D01*
X107755Y205255D01*
X107095Y205762D01*
X106325Y206081D01*
X105500Y206189D01*
D02*
G37*
G36*
X50500Y114491D02*
X49726Y114389D01*
X49005Y114090D01*
X48385Y113615D01*
X47910Y112996D01*
X47611Y112274D01*
X47509Y111500D01*
X47611Y110726D01*
X47910Y110004D01*
X48385Y109385D01*
X49005Y108910D01*
X49726Y108611D01*
X50500Y108509D01*
X51274Y108611D01*
X51995Y108910D01*
X52615Y109385D01*
X53090Y110004D01*
X53389Y110726D01*
X53491Y111500D01*
X53389Y112274D01*
X53090Y112996D01*
X52615Y113615D01*
X51995Y114090D01*
X51274Y114389D01*
X50500Y114491D01*
D02*
G37*
G36*
X20500D02*
X19726Y114389D01*
X19004Y114090D01*
X18385Y113615D01*
X17910Y112996D01*
X17611Y112274D01*
X17509Y111500D01*
X17611Y110726D01*
X17910Y110004D01*
X18385Y109385D01*
X19004Y108910D01*
X19726Y108611D01*
X20500Y108509D01*
X21274Y108611D01*
X21995Y108910D01*
X22615Y109385D01*
X23090Y110004D01*
X23389Y110726D01*
X23491Y111500D01*
X23389Y112274D01*
X23090Y112996D01*
X22615Y113615D01*
X21995Y114090D01*
X21274Y114389D01*
X20500Y114491D01*
D02*
G37*
G36*
X100500Y114888D02*
X99623Y114772D01*
X98806Y114434D01*
X98104Y113896D01*
X97566Y113194D01*
X97228Y112377D01*
X97112Y111500D01*
X97228Y110623D01*
X97566Y109806D01*
X98104Y109104D01*
X98806Y108566D01*
X99623Y108228D01*
X100500Y108112D01*
X101377Y108228D01*
X102194Y108566D01*
X102896Y109104D01*
X103434Y109806D01*
X103772Y110623D01*
X103888Y111500D01*
X103772Y112377D01*
X103434Y113194D01*
X102896Y113896D01*
X102194Y114434D01*
X101377Y114772D01*
X100500Y114888D01*
D02*
G37*
G36*
X80500D02*
X79623Y114772D01*
X78806Y114434D01*
X78104Y113896D01*
X77566Y113194D01*
X77227Y112377D01*
X77112Y111500D01*
X77227Y110623D01*
X77566Y109806D01*
X78104Y109104D01*
X78806Y108566D01*
X79623Y108228D01*
X80500Y108112D01*
X81377Y108228D01*
X82194Y108566D01*
X82896Y109104D01*
X83434Y109806D01*
X83772Y110623D01*
X83888Y111500D01*
X83772Y112377D01*
X83434Y113194D01*
X82896Y113896D01*
X82194Y114434D01*
X81377Y114772D01*
X80500Y114888D01*
D02*
G37*
G36*
X146062Y109662D02*
X139738D01*
Y103338D01*
X146062D01*
Y109662D01*
D02*
G37*
G36*
X50500Y105491D02*
X49726Y105389D01*
X49005Y105090D01*
X48385Y104615D01*
X47910Y103996D01*
X47611Y103274D01*
X47509Y102500D01*
X47611Y101726D01*
X47910Y101005D01*
X48385Y100385D01*
X49005Y99910D01*
X49726Y99611D01*
X50500Y99509D01*
X51274Y99611D01*
X51995Y99910D01*
X52615Y100385D01*
X53090Y101005D01*
X53389Y101726D01*
X53491Y102500D01*
X53389Y103274D01*
X53090Y103996D01*
X52615Y104615D01*
X51995Y105090D01*
X51274Y105389D01*
X50500Y105491D01*
D02*
G37*
G36*
X20500D02*
X19726Y105389D01*
X19004Y105090D01*
X18385Y104615D01*
X17910Y103996D01*
X17611Y103274D01*
X17509Y102500D01*
X17611Y101726D01*
X17910Y101005D01*
X18385Y100385D01*
X19004Y99910D01*
X19726Y99611D01*
X20500Y99509D01*
X21274Y99611D01*
X21995Y99910D01*
X22615Y100385D01*
X23090Y101005D01*
X23389Y101726D01*
X23491Y102500D01*
X23389Y103274D01*
X23090Y103996D01*
X22615Y104615D01*
X21995Y105090D01*
X21274Y105389D01*
X20500Y105491D01*
D02*
G37*
G36*
X143300Y99435D02*
Y96900D01*
X145835D01*
X145786Y97273D01*
X145487Y97994D01*
X145012Y98612D01*
X144394Y99087D01*
X143673Y99386D01*
X143300Y99435D01*
D02*
G37*
G36*
X142500D02*
X142127Y99386D01*
X141406Y99087D01*
X140787Y98612D01*
X140313Y97994D01*
X140014Y97273D01*
X139965Y96900D01*
X142500D01*
Y99435D01*
D02*
G37*
G36*
Y96100D02*
X139965D01*
X140014Y95727D01*
X140313Y95006D01*
X140787Y94388D01*
X141406Y93913D01*
X142127Y93614D01*
X142500Y93565D01*
Y96100D01*
D02*
G37*
G36*
X145835D02*
X143300D01*
Y93565D01*
X143673Y93614D01*
X144394Y93913D01*
X145012Y94388D01*
X145487Y95006D01*
X145786Y95727D01*
X145835Y96100D01*
D02*
G37*
G36*
X125546Y81935D02*
Y79400D01*
X128081D01*
X128032Y79773D01*
X127734Y80494D01*
X127259Y81112D01*
X126640Y81587D01*
X125920Y81886D01*
X125546Y81935D01*
D02*
G37*
G36*
X124746D02*
X124373Y81886D01*
X123653Y81587D01*
X123034Y81112D01*
X122559Y80494D01*
X122261Y79773D01*
X122212Y79400D01*
X124746D01*
Y81935D01*
D02*
G37*
G36*
Y78600D02*
X122212D01*
X122261Y78227D01*
X122559Y77506D01*
X123034Y76888D01*
X123653Y76413D01*
X124373Y76114D01*
X124746Y76065D01*
Y78600D01*
D02*
G37*
G36*
X128081D02*
X125546D01*
Y76065D01*
X125920Y76114D01*
X126640Y76413D01*
X127259Y76888D01*
X127734Y77506D01*
X128032Y78227D01*
X128081Y78600D01*
D02*
G37*
G36*
X148900Y71935D02*
Y69400D01*
X151435D01*
X151386Y69773D01*
X151087Y70494D01*
X150612Y71113D01*
X149994Y71587D01*
X149273Y71886D01*
X148900Y71935D01*
D02*
G37*
G36*
X148100D02*
X147727Y71886D01*
X147006Y71587D01*
X146388Y71113D01*
X145913Y70494D01*
X145614Y69773D01*
X145565Y69400D01*
X148100D01*
Y71935D01*
D02*
G37*
G36*
X92900Y70935D02*
Y68400D01*
X95435D01*
X95386Y68773D01*
X95087Y69494D01*
X94612Y70113D01*
X93994Y70587D01*
X93273Y70886D01*
X92900Y70935D01*
D02*
G37*
G36*
X92100D02*
X91727Y70886D01*
X91006Y70587D01*
X90387Y70113D01*
X89913Y69494D01*
X89614Y68773D01*
X89565Y68400D01*
X92100D01*
Y70935D01*
D02*
G37*
G36*
X151435Y68600D02*
X148900D01*
Y66065D01*
X149273Y66114D01*
X149994Y66413D01*
X150612Y66887D01*
X151087Y67506D01*
X151386Y68227D01*
X151435Y68600D01*
D02*
G37*
G36*
X148100D02*
X145565D01*
X145614Y68227D01*
X145913Y67506D01*
X146388Y66887D01*
X147006Y66413D01*
X147727Y66114D01*
X148100Y66065D01*
Y68600D01*
D02*
G37*
G36*
X128308Y72162D02*
X121984D01*
Y65838D01*
X128308D01*
Y72162D01*
D02*
G37*
G36*
X158500Y72189D02*
X157675Y72081D01*
X156905Y71762D01*
X156245Y71255D01*
X155738Y70595D01*
X155419Y69826D01*
X155311Y69000D01*
X155419Y68174D01*
X155738Y67405D01*
X156245Y66745D01*
X156905Y66238D01*
X157675Y65919D01*
X158500Y65811D01*
X159326Y65919D01*
X160095Y66238D01*
X160755Y66745D01*
X161262Y67405D01*
X161581Y68174D01*
X161689Y69000D01*
X161581Y69826D01*
X161262Y70595D01*
X160755Y71255D01*
X160095Y71762D01*
X159326Y72081D01*
X158500Y72189D01*
D02*
G37*
G36*
X95435Y67600D02*
X92900D01*
Y65065D01*
X93273Y65114D01*
X93994Y65413D01*
X94612Y65887D01*
X95087Y66506D01*
X95386Y67227D01*
X95435Y67600D01*
D02*
G37*
G36*
X92100D02*
X89565D01*
X89614Y67227D01*
X89913Y66506D01*
X90387Y65887D01*
X91006Y65413D01*
X91727Y65114D01*
X92100Y65065D01*
Y67600D01*
D02*
G37*
G36*
X82500Y71189D02*
X81674Y71081D01*
X80905Y70762D01*
X80245Y70255D01*
X79738Y69595D01*
X79419Y68826D01*
X79311Y68000D01*
X79419Y67175D01*
X79738Y66405D01*
X80245Y65745D01*
X80905Y65238D01*
X81674Y64919D01*
X82500Y64811D01*
X83325Y64919D01*
X84095Y65238D01*
X84755Y65745D01*
X85262Y66405D01*
X85581Y67175D01*
X85689Y68000D01*
X85581Y68826D01*
X85262Y69595D01*
X84755Y70255D01*
X84095Y70762D01*
X83325Y71081D01*
X82500Y71189D01*
D02*
G37*
G36*
X84000Y237556D02*
X83174Y237447D01*
X82405Y237129D01*
X81744Y236622D01*
X81238Y235961D01*
X80919Y235192D01*
X80810Y234366D01*
X80919Y233541D01*
X81238Y232771D01*
X81744Y232111D01*
X82405Y231604D01*
X82674Y231492D01*
Y227873D01*
X82405Y227762D01*
X81745Y227255D01*
X81238Y226595D01*
X80919Y225826D01*
X80811Y225000D01*
X80919Y224174D01*
X81238Y223405D01*
X81745Y222745D01*
X82405Y222238D01*
X82674Y222127D01*
Y189116D01*
X82775Y188609D01*
X83063Y188179D01*
X106937Y164305D01*
Y93811D01*
X96451Y83325D01*
X81311D01*
X80804Y83225D01*
X80374Y82937D01*
X71563Y74126D01*
X71275Y73696D01*
X71175Y73189D01*
Y70873D01*
X70905Y70762D01*
X70245Y70255D01*
X69738Y69595D01*
X69419Y68826D01*
X69311Y68000D01*
X69419Y67175D01*
X69738Y66405D01*
X70245Y65745D01*
X70905Y65238D01*
X71675Y64919D01*
X72500Y64811D01*
X73326Y64919D01*
X74095Y65238D01*
X74755Y65745D01*
X75262Y66405D01*
X75581Y67175D01*
X75689Y68000D01*
X75581Y68826D01*
X75262Y69595D01*
X74755Y70255D01*
X74095Y70762D01*
X73826Y70873D01*
Y72640D01*
X81860Y80674D01*
X97000D01*
X97507Y80775D01*
X97937Y81063D01*
X109199Y92325D01*
X109487Y92755D01*
X109588Y93262D01*
Y164854D01*
X109487Y165361D01*
X109199Y165791D01*
X85325Y189665D01*
Y222127D01*
X85595Y222238D01*
X86255Y222745D01*
X86762Y223405D01*
X87081Y224174D01*
X87189Y225000D01*
X87081Y225826D01*
X86762Y226595D01*
X86255Y227255D01*
X85595Y227762D01*
X85325Y227873D01*
Y231492D01*
X85595Y231604D01*
X86256Y232111D01*
X86762Y232771D01*
X87081Y233541D01*
X87190Y234366D01*
X87081Y235192D01*
X86762Y235961D01*
X86256Y236622D01*
X85595Y237129D01*
X84826Y237447D01*
X84000Y237556D01*
D02*
G37*
G36*
X87500Y56491D02*
X86726Y56389D01*
X86005Y56090D01*
X85385Y55615D01*
X84910Y54996D01*
X84611Y54274D01*
X84509Y53500D01*
X84611Y52726D01*
X84910Y52004D01*
X85385Y51385D01*
X86005Y50910D01*
X86726Y50611D01*
X87500Y50509D01*
X88274Y50611D01*
X88995Y50910D01*
X89615Y51385D01*
X90090Y52004D01*
X90389Y52726D01*
X90491Y53500D01*
X90389Y54274D01*
X90090Y54996D01*
X89615Y55615D01*
X88995Y56090D01*
X88274Y56389D01*
X87500Y56491D01*
D02*
G37*
G36*
X77500D02*
X76726Y56389D01*
X76004Y56090D01*
X75385Y55615D01*
X74910Y54996D01*
X74611Y54274D01*
X74509Y53500D01*
X74611Y52726D01*
X74910Y52004D01*
X75385Y51385D01*
X76004Y50910D01*
X76726Y50611D01*
X77500Y50509D01*
X78274Y50611D01*
X78996Y50910D01*
X79615Y51385D01*
X80090Y52004D01*
X80389Y52726D01*
X80491Y53500D01*
X80389Y54274D01*
X80090Y54996D01*
X79615Y55615D01*
X78996Y56090D01*
X78274Y56389D01*
X77500Y56491D01*
D02*
G37*
G36*
X157274Y56662D02*
X150951D01*
Y50338D01*
X157274D01*
Y56662D01*
D02*
G37*
G36*
X127500Y56828D02*
X126638Y56715D01*
X125836Y56383D01*
X125146Y55854D01*
X124618Y55164D01*
X124285Y54361D01*
X124171Y53500D01*
X124285Y52639D01*
X124618Y51836D01*
X125146Y51146D01*
X125836Y50617D01*
X126638Y50285D01*
X127500Y50172D01*
X128361Y50285D01*
X129164Y50617D01*
X129854Y51146D01*
X130383Y51836D01*
X130715Y52639D01*
X130828Y53500D01*
X130715Y54361D01*
X130383Y55164D01*
X129854Y55854D01*
X129164Y56383D01*
X128361Y56715D01*
X127500Y56828D01*
D02*
G37*
G36*
X97500D02*
X96639Y56715D01*
X95836Y56383D01*
X95146Y55854D01*
X94617Y55164D01*
X94285Y54361D01*
X94172Y53500D01*
X94285Y52639D01*
X94617Y51836D01*
X95146Y51146D01*
X95836Y50617D01*
X96639Y50285D01*
X97500Y50172D01*
X98361Y50285D01*
X99164Y50617D01*
X99854Y51146D01*
X100383Y51836D01*
X100715Y52639D01*
X100829Y53500D01*
X100715Y54361D01*
X100383Y55164D01*
X99854Y55854D01*
X99164Y56383D01*
X98361Y56715D01*
X97500Y56828D01*
D02*
G37*
G36*
X137500Y56888D02*
X136623Y56773D01*
X135806Y56434D01*
X135104Y55896D01*
X134566Y55194D01*
X134228Y54377D01*
X134112Y53500D01*
X134228Y52623D01*
X134566Y51806D01*
X135104Y51104D01*
X135806Y50566D01*
X136623Y50227D01*
X137500Y50112D01*
X138377Y50227D01*
X139194Y50566D01*
X139896Y51104D01*
X140434Y51806D01*
X140772Y52623D01*
X140888Y53500D01*
X140772Y54377D01*
X140434Y55194D01*
X139896Y55896D01*
X139194Y56434D01*
X138377Y56773D01*
X137500Y56888D01*
D02*
G37*
G36*
X154513Y46435D02*
Y43900D01*
X157047D01*
X156998Y44273D01*
X156700Y44994D01*
X156225Y45612D01*
X155606Y46087D01*
X154886Y46386D01*
X154513Y46435D01*
D02*
G37*
G36*
X153712D02*
X153339Y46386D01*
X152619Y46087D01*
X152000Y45612D01*
X151525Y44994D01*
X151227Y44273D01*
X151178Y43900D01*
X153712D01*
Y46435D01*
D02*
G37*
G36*
X157047Y43100D02*
X154513D01*
Y40565D01*
X154886Y40614D01*
X155606Y40913D01*
X156225Y41388D01*
X156700Y42006D01*
X156998Y42727D01*
X157047Y43100D01*
D02*
G37*
G36*
X153712D02*
X151178D01*
X151227Y42727D01*
X151525Y42006D01*
X152000Y41388D01*
X152619Y40913D01*
X153339Y40614D01*
X153712Y40565D01*
Y43100D01*
D02*
G37*
G36*
X97500Y46828D02*
X96639Y46715D01*
X95836Y46382D01*
X95146Y45854D01*
X94617Y45164D01*
X94285Y44361D01*
X94172Y43500D01*
X94285Y42638D01*
X94617Y41836D01*
X95146Y41146D01*
X95836Y40617D01*
X96639Y40285D01*
X97500Y40172D01*
X98361Y40285D01*
X99164Y40617D01*
X99854Y41146D01*
X100383Y41836D01*
X100715Y42638D01*
X100829Y43500D01*
X100715Y44361D01*
X100383Y45164D01*
X99854Y45854D01*
X99164Y46382D01*
X98361Y46715D01*
X97500Y46828D01*
D02*
G37*
G36*
X137900Y36634D02*
Y33900D01*
X140634D01*
X140578Y34325D01*
X140259Y35093D01*
X139753Y35753D01*
X139093Y36259D01*
X138325Y36578D01*
X137900Y36634D01*
D02*
G37*
G36*
X137100D02*
X136675Y36578D01*
X135907Y36259D01*
X135247Y35753D01*
X134741Y35093D01*
X134422Y34325D01*
X134366Y33900D01*
X137100D01*
Y36634D01*
D02*
G37*
G36*
X140634Y33100D02*
X137900D01*
Y30366D01*
X138325Y30422D01*
X139093Y30741D01*
X139753Y31247D01*
X140259Y31907D01*
X140578Y32675D01*
X140634Y33100D01*
D02*
G37*
G36*
X137100D02*
X134366D01*
X134422Y32675D01*
X134741Y31907D01*
X135247Y31247D01*
X135907Y30741D01*
X136675Y30422D01*
X137100Y30366D01*
Y33100D01*
D02*
G37*
G36*
X127500Y36829D02*
X126638Y36715D01*
X125836Y36382D01*
X125146Y35854D01*
X124618Y35164D01*
X124285Y34361D01*
X124171Y33500D01*
X124285Y32638D01*
X124618Y31836D01*
X125146Y31146D01*
X125836Y30617D01*
X126638Y30285D01*
X127500Y30171D01*
X128361Y30285D01*
X129164Y30617D01*
X129854Y31146D01*
X130383Y31836D01*
X130715Y32638D01*
X130828Y33500D01*
X130715Y34361D01*
X130383Y35164D01*
X129854Y35854D01*
X129164Y36382D01*
X128361Y36715D01*
X127500Y36829D01*
D02*
G37*
G36*
X97500D02*
X96639Y36715D01*
X95836Y36382D01*
X95146Y35854D01*
X94617Y35164D01*
X94285Y34361D01*
X94172Y33500D01*
X94285Y32638D01*
X94617Y31836D01*
X95146Y31146D01*
X95836Y30617D01*
X96639Y30285D01*
X97500Y30171D01*
X98361Y30285D01*
X99164Y30617D01*
X99854Y31146D01*
X100383Y31836D01*
X100715Y32638D01*
X100829Y33500D01*
X100715Y34361D01*
X100383Y35164D01*
X99854Y35854D01*
X99164Y36382D01*
X98361Y36715D01*
X97500Y36829D01*
D02*
G37*
G36*
X97900Y26574D02*
Y23900D01*
X100574D01*
X100520Y24309D01*
X100208Y25063D01*
X99711Y25711D01*
X99063Y26208D01*
X98309Y26520D01*
X97900Y26574D01*
D02*
G37*
G36*
X97100D02*
X96691Y26520D01*
X95937Y26208D01*
X95289Y25711D01*
X94792Y25063D01*
X94480Y24309D01*
X94426Y23900D01*
X97100D01*
Y26574D01*
D02*
G37*
G36*
X87500Y26491D02*
X86726Y26389D01*
X86005Y26090D01*
X85385Y25615D01*
X84910Y24995D01*
X84611Y24274D01*
X84509Y23500D01*
X84611Y22726D01*
X84910Y22005D01*
X85385Y21385D01*
X86005Y20910D01*
X86726Y20611D01*
X87500Y20509D01*
X88274Y20611D01*
X88995Y20910D01*
X89615Y21385D01*
X90090Y22005D01*
X90389Y22726D01*
X90491Y23500D01*
X90389Y24274D01*
X90090Y24995D01*
X89615Y25615D01*
X88995Y26090D01*
X88274Y26389D01*
X87500Y26491D01*
D02*
G37*
G36*
X77500D02*
X76726Y26389D01*
X76004Y26090D01*
X75385Y25615D01*
X74910Y24995D01*
X74611Y24274D01*
X74509Y23500D01*
X74611Y22726D01*
X74910Y22005D01*
X75385Y21385D01*
X76004Y20910D01*
X76726Y20611D01*
X77500Y20509D01*
X78274Y20611D01*
X78996Y20910D01*
X79615Y21385D01*
X80090Y22005D01*
X80389Y22726D01*
X80491Y23500D01*
X80389Y24274D01*
X80090Y24995D01*
X79615Y25615D01*
X78996Y26090D01*
X78274Y26389D01*
X77500Y26491D01*
D02*
G37*
G36*
X100574Y23100D02*
X97900D01*
Y20426D01*
X98309Y20480D01*
X99063Y20792D01*
X99711Y21289D01*
X100208Y21937D01*
X100520Y22691D01*
X100574Y23100D01*
D02*
G37*
G36*
X97100D02*
X94426D01*
X94480Y22691D01*
X94792Y21937D01*
X95289Y21289D01*
X95937Y20792D01*
X96691Y20480D01*
X97100Y20426D01*
Y23100D01*
D02*
G37*
G36*
X127500Y26829D02*
X126638Y26715D01*
X125836Y26382D01*
X125146Y25854D01*
X124618Y25164D01*
X124285Y24362D01*
X124171Y23500D01*
X124285Y22638D01*
X124618Y21836D01*
X125146Y21146D01*
X125836Y20617D01*
X126638Y20285D01*
X127500Y20172D01*
X128361Y20285D01*
X129164Y20617D01*
X129854Y21146D01*
X130383Y21836D01*
X130715Y22638D01*
X130828Y23500D01*
X130715Y24362D01*
X130383Y25164D01*
X129854Y25854D01*
X129164Y26382D01*
X128361Y26715D01*
X127500Y26829D01*
D02*
G37*
G36*
X55024Y19689D02*
X54199Y19581D01*
X53430Y19262D01*
X52769Y18755D01*
X52263Y18095D01*
X51944Y17325D01*
X51835Y16500D01*
X51944Y15675D01*
X52263Y14905D01*
X52769Y14245D01*
X53430Y13738D01*
X54199Y13419D01*
X55024Y13311D01*
X55850Y13419D01*
X56619Y13738D01*
X57280Y14245D01*
X57787Y14905D01*
X58105Y15675D01*
X58214Y16500D01*
X58105Y17325D01*
X57787Y18095D01*
X57280Y18755D01*
X56619Y19262D01*
X55850Y19581D01*
X55024Y19689D01*
D02*
G37*
G36*
X167400Y9045D02*
X163900D01*
Y5545D01*
X167400D01*
Y9045D01*
D02*
G37*
G36*
X163100D02*
X159600D01*
Y5545D01*
X163100D01*
Y9045D01*
D02*
G37*
G36*
X48186Y9662D02*
X41862D01*
Y3338D01*
X48186D01*
Y9662D01*
D02*
G37*
G36*
X65025Y9689D02*
X64199Y9581D01*
X63430Y9262D01*
X62769Y8755D01*
X62262Y8095D01*
X61944Y7325D01*
X61835Y6500D01*
X61944Y5675D01*
X62262Y4905D01*
X62769Y4245D01*
X63430Y3738D01*
X64199Y3419D01*
X65025Y3311D01*
X65850Y3419D01*
X66619Y3738D01*
X67280Y4245D01*
X67787Y4905D01*
X68105Y5675D01*
X68214Y6500D01*
X68105Y7325D01*
X67787Y8095D01*
X67280Y8755D01*
X66619Y9262D01*
X65850Y9581D01*
X65025Y9689D01*
D02*
G37*
G36*
X129400Y5578D02*
Y2400D01*
X132578D01*
X132507Y2940D01*
X132145Y3816D01*
X131568Y4567D01*
X130815Y5145D01*
X129940Y5507D01*
X129400Y5578D01*
D02*
G37*
G36*
X97900D02*
Y2400D01*
X101078D01*
X101007Y2940D01*
X100645Y3816D01*
X100068Y4567D01*
X99316Y5145D01*
X98440Y5507D01*
X97900Y5578D01*
D02*
G37*
G36*
X128600D02*
X128060Y5507D01*
X127184Y5145D01*
X126432Y4567D01*
X125855Y3816D01*
X125493Y2940D01*
X125422Y2400D01*
X128600D01*
Y5578D01*
D02*
G37*
G36*
X97100D02*
X96560Y5507D01*
X95684Y5145D01*
X94932Y4567D01*
X94355Y3816D01*
X93993Y2940D01*
X93922Y2400D01*
X97100D01*
Y5578D01*
D02*
G37*
G36*
X167400Y4745D02*
X163900D01*
Y1245D01*
X167400D01*
Y4745D01*
D02*
G37*
G36*
X163100D02*
X159600D01*
Y1245D01*
X163100D01*
Y4745D01*
D02*
G37*
G36*
X153500Y9280D02*
X152430Y9139D01*
X151432Y8726D01*
X150576Y8069D01*
X149919Y7212D01*
X149505Y6215D01*
X149365Y5145D01*
X149505Y4074D01*
X149919Y3077D01*
X150576Y2220D01*
X151432Y1563D01*
X152430Y1150D01*
X153500Y1009D01*
X154570Y1150D01*
X155568Y1563D01*
X156424Y2220D01*
X157081Y3077D01*
X157494Y4074D01*
X157635Y5145D01*
X157494Y6215D01*
X157081Y7212D01*
X156424Y8069D01*
X155568Y8726D01*
X154570Y9139D01*
X153500Y9280D01*
D02*
G37*
G36*
X132578Y1600D02*
X129400D01*
Y-1578D01*
X129940Y-1507D01*
X130815Y-1145D01*
X131568Y-568D01*
X132145Y184D01*
X132507Y1060D01*
X132578Y1600D01*
D02*
G37*
G36*
X101078D02*
X97900D01*
Y-1578D01*
X98440Y-1507D01*
X99316Y-1145D01*
X100068Y-568D01*
X100645Y184D01*
X101007Y1060D01*
X101078Y1600D01*
D02*
G37*
G36*
X128600D02*
X125422D01*
X125493Y1060D01*
X125855Y184D01*
X126432Y-568D01*
X127184Y-1145D01*
X128060Y-1507D01*
X128600Y-1578D01*
Y1600D01*
D02*
G37*
G36*
X97100D02*
X93922D01*
X93993Y1060D01*
X94355Y184D01*
X94932Y-568D01*
X95684Y-1145D01*
X96560Y-1507D01*
X97100Y-1578D01*
Y1600D01*
D02*
G37*
G36*
X119000Y5833D02*
X118008Y5702D01*
X117084Y5319D01*
X116290Y4710D01*
X115681Y3916D01*
X115298Y2992D01*
X115167Y2000D01*
X115298Y1008D01*
X115681Y84D01*
X116290Y-710D01*
X117084Y-1319D01*
X118008Y-1702D01*
X119000Y-1833D01*
X119992Y-1702D01*
X120916Y-1319D01*
X121710Y-710D01*
X122319Y84D01*
X122702Y1008D01*
X122833Y2000D01*
X122702Y2992D01*
X122319Y3916D01*
X121710Y4710D01*
X120916Y5319D01*
X119992Y5702D01*
X119000Y5833D01*
D02*
G37*
G36*
X87500D02*
X86508Y5702D01*
X85584Y5319D01*
X84790Y4710D01*
X84181Y3916D01*
X83798Y2992D01*
X83667Y2000D01*
X83798Y1008D01*
X84181Y84D01*
X84790Y-710D01*
X85584Y-1319D01*
X86508Y-1702D01*
X87500Y-1833D01*
X88492Y-1702D01*
X89416Y-1319D01*
X90210Y-710D01*
X90819Y84D01*
X91202Y1008D01*
X91333Y2000D01*
X91202Y2992D01*
X90819Y3916D01*
X90210Y4710D01*
X89416Y5319D01*
X88492Y5702D01*
X87500Y5833D01*
D02*
G37*
%LPD*%
D12*
X108262Y93262D02*
Y164854D01*
X97000Y82000D02*
X108262Y93262D01*
X81311Y82000D02*
X97000D01*
X84000Y189116D02*
X108262Y164854D01*
X87437Y190399D02*
X111745Y166091D01*
Y59255D02*
Y166091D01*
Y59255D02*
X127500Y43500D01*
X72500Y73189D02*
X81311Y82000D01*
X72500Y68000D02*
Y73189D01*
X169000Y258500D02*
X191000Y236500D01*
Y233000D02*
Y236500D01*
X164464Y213000D02*
X174464Y203000D01*
X182200D01*
X152200Y213000D02*
X164464D01*
X87437Y190399D02*
Y217125D01*
X94500Y224187D01*
Y234000D01*
X115000Y254500D01*
X84000Y225000D02*
Y234366D01*
Y189116D02*
Y225000D01*
X78000Y124000D02*
X80500Y121500D01*
X58000Y124000D02*
X78000D01*
X50500Y131500D02*
X58000Y124000D01*
Y269000D02*
X79366D01*
X54500Y265500D02*
X58000Y269000D01*
X54500Y239623D02*
Y265500D01*
X79366Y269000D02*
X84000Y264366D01*
X50838Y235961D02*
X54500Y239623D01*
X39961Y235961D02*
X50838D01*
X36731Y232731D02*
X39961Y235961D01*
X36731Y230605D02*
Y232731D01*
X35717Y229591D02*
X36731Y230605D01*
X70500Y193500D02*
Y241000D01*
X76000Y246500D01*
X86500D01*
X92500Y252500D01*
Y269669D01*
X87803Y274366D02*
X92500Y269669D01*
X84000Y274366D02*
X87803D01*
X108190Y264366D02*
X115000Y271176D01*
X104000Y264366D02*
X108190D01*
X115000Y271176D02*
Y284500D01*
X63500Y231996D02*
Y258500D01*
X50500Y218995D02*
X63500Y231996D01*
X50500Y193500D02*
Y218995D01*
X83913Y274279D02*
X84000Y274366D01*
X40500Y193500D02*
Y213491D01*
X34491Y219500D02*
X40500Y213491D01*
X22366Y219500D02*
X34491D01*
X17285Y224581D02*
X22366Y219500D01*
X17285Y224581D02*
Y252285D01*
X23500Y258500D01*
D37*
X152400Y116000D02*
X162500D01*
Y92748D02*
Y116000D01*
Y166174D01*
X144261Y87314D02*
X157066D01*
X138500Y81553D02*
X144261Y87314D01*
X138500Y69000D02*
Y81553D01*
X157066Y87314D02*
X162500Y92748D01*
X134227Y194448D02*
X162500Y166174D01*
X134227Y194448D02*
Y203000D01*
X134000Y203227D02*
X134227Y203000D01*
X134000Y203227D02*
Y225000D01*
X142000Y233000D02*
Y269400D01*
X134000Y225000D02*
X142000Y233000D01*
Y269400D02*
Y281000D01*
X129000Y294000D02*
X142000Y281000D01*
X129000Y294000D02*
Y339836D01*
X123936Y344900D02*
X129000Y339836D01*
X116250Y344900D02*
X123936D01*
X105500Y203000D02*
X121114Y187386D01*
Y128286D02*
Y187386D01*
Y128286D02*
X133400Y116000D01*
D38*
X154113Y43500D02*
D03*
X125146Y79000D02*
D03*
X65025Y6500D02*
D03*
X55024Y16500D02*
D03*
X211500Y218000D02*
D03*
X105500Y203000D02*
D03*
X30500Y210500D02*
D03*
X114000Y225000D02*
D03*
X124000D02*
D03*
X134000D02*
D03*
X92500Y68000D02*
D03*
X82500D02*
D03*
X72500D02*
D03*
X84000Y225000D02*
D03*
X138500Y69000D02*
D03*
X148500D02*
D03*
X158500D02*
D03*
X142900Y96500D02*
D03*
D39*
X154113Y53500D02*
D03*
X125146Y69000D02*
D03*
X142900Y106500D02*
D03*
D40*
X35717Y229591D02*
D03*
X45559D02*
D03*
X25874D02*
D03*
Y242189D02*
D03*
X45559D02*
D03*
X35717D02*
D03*
D41*
X45024Y6500D02*
D03*
X201500Y218000D02*
D03*
X95500Y203000D02*
D03*
X20500Y210500D02*
D03*
X104000Y225000D02*
D03*
D42*
X50500Y121500D02*
D03*
Y131500D02*
D03*
Y151500D02*
D03*
Y141500D02*
D03*
X20500Y121500D02*
D03*
Y131500D02*
D03*
Y141500D02*
D03*
Y151500D02*
D03*
X212266Y150000D02*
D03*
Y160000D02*
D03*
Y180000D02*
D03*
Y170000D02*
D03*
X182266Y150000D02*
D03*
Y160000D02*
D03*
Y170000D02*
D03*
Y180000D02*
D03*
X115000Y284500D02*
D03*
X125000D02*
D03*
Y254500D02*
D03*
X115000D02*
D03*
X127500Y23500D02*
D03*
Y33500D02*
D03*
Y53500D02*
D03*
Y43500D02*
D03*
X97500Y23500D02*
D03*
Y33500D02*
D03*
Y43500D02*
D03*
Y53500D02*
D03*
D43*
X182200Y213000D02*
D03*
X152200D02*
D03*
Y223000D02*
D03*
X182200D02*
D03*
X221000Y233000D02*
D03*
X191000D02*
D03*
X221500Y203000D02*
D03*
X191500D02*
D03*
X182200D02*
D03*
X152200D02*
D03*
X100500Y151500D02*
D03*
Y121500D02*
D03*
X80500Y151500D02*
D03*
Y121500D02*
D03*
X20500Y111500D02*
D03*
X50500D02*
D03*
X20500Y102500D02*
D03*
X50500D02*
D03*
X70500Y193500D02*
D03*
Y163500D02*
D03*
X60500D02*
D03*
Y193500D02*
D03*
X50500D02*
D03*
Y163500D02*
D03*
X40500Y193500D02*
D03*
Y163500D02*
D03*
X30500Y193500D02*
D03*
Y163500D02*
D03*
X20500Y193000D02*
D03*
Y163000D02*
D03*
X9500Y193000D02*
D03*
Y163000D02*
D03*
Y240500D02*
D03*
Y210500D02*
D03*
X77500Y53500D02*
D03*
Y23500D02*
D03*
X87500D02*
D03*
Y53500D02*
D03*
X133400Y146000D02*
D03*
Y116000D02*
D03*
X142900Y146000D02*
D03*
Y116000D02*
D03*
X124227Y203000D02*
D03*
X142900Y167500D02*
D03*
X152400Y116000D02*
D03*
Y146000D02*
D03*
D44*
X157000Y239300D02*
D03*
X177000D02*
D03*
X170000Y269400D02*
D03*
D45*
X224000Y160000D02*
D03*
Y180000D02*
D03*
X215500Y243000D02*
D03*
X195500D02*
D03*
X196500Y193000D02*
D03*
X216500D02*
D03*
X162200D02*
D03*
X182200D02*
D03*
X90500Y131500D02*
D03*
Y151500D02*
D03*
X70500Y131500D02*
D03*
Y151500D02*
D03*
X60500Y131500D02*
D03*
Y151500D02*
D03*
X100500Y111500D02*
D03*
X80500D02*
D03*
X9500Y131500D02*
D03*
Y151500D02*
D03*
X114000Y240000D02*
D03*
X134000D02*
D03*
X137500Y33500D02*
D03*
Y53500D02*
D03*
D46*
X142000Y269400D02*
D03*
D47*
X209000Y258500D02*
D03*
X63500D02*
D03*
D48*
X189000D02*
D03*
X169000D02*
D03*
X43500D02*
D03*
X23500D02*
D03*
D49*
X116250Y344900D02*
D03*
Y321278D02*
D03*
D50*
X153500Y5145D02*
D03*
D51*
X163500D02*
D03*
D52*
X119000Y2000D02*
D03*
X129000D02*
D03*
X87500D02*
D03*
X97500D02*
D03*
D53*
X138911Y330100D02*
D03*
X202809D02*
D03*
X138911Y355100D02*
D03*
X202809D02*
D03*
X138911Y305100D02*
D03*
X202809D02*
D03*
X29692Y330100D02*
D03*
X93590D02*
D03*
X29692Y355100D02*
D03*
X93590D02*
D03*
X29692Y305100D02*
D03*
X93590D02*
D03*
D54*
X84000Y234366D02*
D03*
Y254366D02*
D03*
Y264366D02*
D03*
Y274366D02*
D03*
X104000D02*
D03*
Y264366D02*
D03*
Y254366D02*
D03*
Y234366D02*
D03*
D55*
X134227Y203000D02*
D03*
D56*
X142900Y157500D02*
D03*
D57*
X121800Y294051D02*
D03*
X38900Y148509D02*
D03*
X150718Y82000D02*
D03*
X126500Y144700D02*
D03*
X78806Y171500D02*
D03*
X168000Y101000D02*
D03*
Y144700D02*
D03*
X179243Y125000D02*
D03*
X168000Y113885D02*
D03*
X43993Y108000D02*
D03*
X73773Y80500D02*
D03*
X80000Y74584D02*
D03*
X116000Y70113D02*
D03*
X133800Y61000D02*
D03*
X66119Y18500D02*
D03*
X65500Y176500D02*
D03*
Y187500D02*
D03*
X57806Y235889D02*
D03*
X31274D02*
D03*
X150718Y92500D02*
D03*
X40402Y249000D02*
D03*
X30900D02*
D03*
X178600Y294100D02*
D03*
X103900Y20200D02*
D03*
X29200Y144700D02*
D03*
X153700Y194500D02*
D03*
X4300Y219400D02*
D03*
X228400Y-4700D02*
D03*
Y219400D02*
D03*
X153700Y319000D02*
D03*
X228400Y119800D02*
D03*
X79000Y343900D02*
D03*
X29200Y169600D02*
D03*
X203500Y70000D02*
D03*
X178600Y45100D02*
D03*
X203500Y368800D02*
D03*
X228400Y70000D02*
D03*
X4300Y94900D02*
D03*
X54100Y343900D02*
D03*
X153700Y20200D02*
D03*
X4300Y119800D02*
D03*
X29200Y-4700D02*
D03*
Y20200D02*
D03*
X153700Y294100D02*
D03*
X228400Y45100D02*
D03*
Y269200D02*
D03*
X54100Y70000D02*
D03*
X79000Y294100D02*
D03*
X203500Y20200D02*
D03*
X128800Y-4700D02*
D03*
X79000Y194500D02*
D03*
X203500Y119800D02*
D03*
X178600Y70000D02*
D03*
X79000Y94900D02*
D03*
X178600D02*
D03*
X79000Y45100D02*
D03*
X4300Y169600D02*
D03*
X203500Y-4700D02*
D03*
X228400Y319000D02*
D03*
X29200Y368800D02*
D03*
X103900Y144700D02*
D03*
X153700Y368800D02*
D03*
X203500Y294100D02*
D03*
X103900Y70000D02*
D03*
X4300Y-4700D02*
D03*
X79000Y319000D02*
D03*
X178600Y269200D02*
D03*
X29200Y319000D02*
D03*
X228400Y244300D02*
D03*
X54100Y94900D02*
D03*
X29200D02*
D03*
X4300Y20200D02*
D03*
X29200Y70000D02*
D03*
X228400Y94900D02*
D03*
X128800Y368800D02*
D03*
Y94900D02*
D03*
X103900Y-4700D02*
D03*
Y194500D02*
D03*
X203500Y94900D02*
D03*
X228400Y20200D02*
D03*
X178600Y343900D02*
D03*
X203500D02*
D03*
X79000Y368800D02*
D03*
X128800Y219400D02*
D03*
X203500Y45100D02*
D03*
X29200Y343900D02*
D03*
X203500Y319000D02*
D03*
X228400Y169600D02*
D03*
X79000Y219400D02*
D03*
X4300Y294100D02*
D03*
X228400Y144700D02*
D03*
X4300Y45100D02*
D03*
X79000Y144700D02*
D03*
X4300Y70000D02*
D03*
X103900Y368800D02*
D03*
X178600Y20200D02*
D03*
X153700Y343900D02*
D03*
X54100Y368800D02*
D03*
X178600Y-4700D02*
D03*
X54100Y45100D02*
D03*
X103900Y319000D02*
D03*
X203500Y269200D02*
D03*
X103900Y45100D02*
D03*
X54100Y319000D02*
D03*
X103900Y219400D02*
D03*
X228400Y343900D02*
D03*
X4300Y244300D02*
D03*
Y343900D02*
D03*
X128800Y194500D02*
D03*
X4300Y269200D02*
D03*
X153700Y-4700D02*
D03*
X178600Y368800D02*
D03*
X203500Y194500D02*
D03*
X103900Y343900D02*
D03*
X79000Y-4700D02*
D03*
X203500Y244300D02*
D03*
X29200Y45100D02*
D03*
X128800Y244300D02*
D03*
X228400Y294100D02*
D03*
X4300Y144700D02*
D03*
X178600Y319000D02*
D03*
X103900Y294100D02*
D03*
Y94900D02*
D03*
X153700Y269200D02*
D03*
X54100Y-4700D02*
D03*
X228400Y194500D02*
D03*
X54100Y294100D02*
D03*
X4300Y319000D02*
D03*
X98662Y229911D02*
D03*
X89500D02*
D03*
X142000Y194694D02*
D03*
X89255Y177500D02*
D03*
X126500Y160763D02*
D03*
X143300Y177500D02*
D03*
X126500D02*
D03*
X175207Y169000D02*
D03*
X162000Y182354D02*
D03*
X174000Y188000D02*
D03*
X188111D02*
D03*
X187866Y197500D02*
D03*
X157500Y208000D02*
D03*
X167069Y204000D02*
D03*
X173894Y210500D02*
D03*
X191500Y214838D02*
D03*
X198896Y208500D02*
D03*
X208063Y225000D02*
D03*
X214500Y235889D02*
D03*
X192000Y137416D02*
D03*
X212994Y142500D02*
D03*
X204500Y150000D02*
D03*
X199500Y179000D02*
D03*
X193615Y164806D02*
D03*
X206500D02*
D03*
X157000Y101000D02*
D03*
Y129500D02*
D03*
X168000D02*
D03*
Y156500D02*
D03*
X157000D02*
D03*
X116000Y94900D02*
D03*
X91500Y108000D02*
D03*
X74000D02*
D03*
X56119D02*
D03*
X32472Y122000D02*
D03*
X46590Y169600D02*
D03*
X95836Y156000D02*
D03*
X85000D02*
D03*
X79000Y133753D02*
D03*
X55500Y146000D02*
D03*
Y157000D02*
D03*
X76000Y116000D02*
D03*
X90500D02*
D03*
X104500D02*
D03*
X116000D02*
D03*
X124627D02*
D03*
X137900Y122000D02*
D03*
X137000Y110623D02*
D03*
X126500Y133753D02*
D03*
X92000Y194274D02*
D03*
X115694Y133854D02*
D03*
X104000Y133753D02*
D03*
X115694Y160806D02*
D03*
X104000D02*
D03*
X115694Y144700D02*
D03*
X106762Y177500D02*
D03*
X169124Y227113D02*
D03*
X157500D02*
D03*
X139038Y219400D02*
D03*
X183829Y250000D02*
D03*
X171191D02*
D03*
X153894Y249500D02*
D03*
X147500Y242000D02*
D03*
X134500Y269200D02*
D03*
X67839Y273500D02*
D03*
X76500Y240696D02*
D03*
X114000Y264000D02*
D03*
X106762Y240000D02*
D03*
X99500Y245500D02*
D03*
X97000Y259500D02*
D03*
X88000D02*
D03*
X34000Y269200D02*
D03*
X25500D02*
D03*
X67844Y251000D02*
D03*
X59004D02*
D03*
X60000Y219400D02*
D03*
X31274Y224000D02*
D03*
X15000Y219400D02*
D03*
X56000Y197500D02*
D03*
X45500D02*
D03*
X35717D02*
D03*
X25243D02*
D03*
X15000D02*
D03*
X4300D02*
D03*
M02*
