G04*
G04 #@! TF.GenerationSoftware,Altium Limited,Altium Designer,19.0.12 (326)*
G04*
G04 Layer_Color=32896*
%FSLAX25Y25*%
%MOIN*%
G70*
G01*
G75*
%ADD11C,0.00500*%
%ADD12C,0.01000*%
%ADD14C,0.00800*%
D11*
X154000Y328937D02*
G03*
X189000Y293937I35000J0D01*
G01*
Y363937D02*
G03*
X154000Y328937I-0J-35000D01*
G01*
X189000Y363937D02*
G03*
X154000Y328937I-0J-35000D01*
G01*
Y328937D02*
G03*
X189000Y293937I35000J0D01*
G01*
D02*
G03*
X224000Y328937I0J35000D01*
G01*
Y328937D02*
G03*
X189000Y363937I-35000J0D01*
G01*
X224000Y328937D02*
G03*
X189000Y363937I-35000J0D01*
G01*
Y293937D02*
G03*
X224000Y328937I0J35000D01*
G01*
X192535D02*
G03*
X192535Y328937I-3535J0D01*
G01*
D02*
G03*
X192535Y328937I-3535J0D01*
G01*
X8500D02*
G03*
X43500Y293937I35000J0D01*
G01*
Y363937D02*
G03*
X8500Y328937I-0J-35000D01*
G01*
X43500Y363937D02*
G03*
X8500Y328937I-0J-35000D01*
G01*
Y328937D02*
G03*
X43500Y293937I35000J0D01*
G01*
D02*
G03*
X78500Y328937I0J35000D01*
G01*
Y328937D02*
G03*
X43500Y363937I-35000J0D01*
G01*
X78500Y328937D02*
G03*
X43500Y363937I-35000J0D01*
G01*
Y293937D02*
G03*
X78500Y328937I0J35000D01*
G01*
X47035D02*
G03*
X47035Y328937I-3535J0D01*
G01*
D02*
G03*
X47035Y328937I-3535J0D01*
G01*
X154000D02*
X224000D01*
X154000D02*
X224000D01*
X159000Y274000D02*
X219000D01*
X159000D02*
X219000D01*
X189000Y293937D02*
Y363937D01*
Y293937D02*
Y363937D01*
X159000Y274000D02*
Y311437D01*
Y274000D02*
Y311437D01*
X219000Y274000D02*
Y311437D01*
Y274000D02*
Y311437D01*
X8500Y328937D02*
X78500D01*
X8500D02*
X78500D01*
X13500Y274000D02*
X73500D01*
X13500D02*
X73500D01*
X43500Y293937D02*
Y363937D01*
Y293937D02*
Y363937D01*
X13500Y274000D02*
Y311437D01*
Y274000D02*
Y311437D01*
X73500Y274000D02*
Y311437D01*
Y274000D02*
Y311437D01*
D12*
X115951Y379998D02*
X117951D01*
X116951D01*
Y375000D01*
X117951Y374000D01*
X118950D01*
X119950Y375000D01*
X113952Y374000D02*
X111952D01*
X112952D01*
Y379998D01*
X113952Y378998D01*
X198500Y281998D02*
X194501D01*
X196501D01*
Y276000D01*
X189503Y281998D02*
X191502D01*
X192502Y280998D01*
Y277000D01*
X191502Y276000D01*
X189503D01*
X188503Y277000D01*
Y280998D01*
X189503Y281998D01*
X186504Y276000D02*
Y281998D01*
X182505Y276000D01*
Y281998D01*
X176507D02*
X180506D01*
Y276000D01*
X176507D01*
X180506Y278999D02*
X178506D01*
X56000Y281998D02*
Y276000D01*
X52001D01*
X46003Y281998D02*
X50002D01*
Y276000D01*
X46003D01*
X50002Y278999D02*
X48003D01*
X44004Y281998D02*
Y277999D01*
X42004Y276000D01*
X40005Y277999D01*
Y281998D01*
X34007D02*
X38006D01*
Y276000D01*
X34007D01*
X38006Y278999D02*
X36006D01*
X32008Y281998D02*
Y276000D01*
X28009D01*
D14*
X98533Y330278D02*
X106801D01*
X125699D02*
X133967D01*
Y333034D01*
X133950Y333015D02*
Y352390D01*
X98533Y330278D02*
Y383215D01*
X133967Y351538D02*
Y383215D01*
X98533D02*
X133967D01*
M02*
