M48
;Layer_Color=9474304
;FILE_FORMAT=2:5
INCH,TZ
;TYPE=PLATED
T1F00S00C0.01378
T2F00S00C0.01969
T3F00S00C0.02000
T4F00S00C0.03150
T5F00S00C0.03543
T6F00S00C0.04000
T7F00S00C0.04331
T8F00S00C0.05512
T9F00S00C0.09843
;TYPE=NON_PLATED
T10F00S00C0.01968
T11F00S00C0.11811
%
T01
X83868Y60516
X108869
Y85516
X83868
Y110516
Y135516
X108869
X133869
Y110516
X108869
X133869Y85516
Y60516
X124360Y153050
X164419Y145705
X172919Y144228
X173073Y132122
X178138Y133992
X168159Y127988
X171899Y116866
X169143Y104366
X158869Y110516
Y85516
Y60516
X183869
X179281Y74809
X199163Y78284
X208869Y85516
X216878Y98953
X208869Y110516
X220029Y116007
X232529
X238330Y113323
X248179Y117850
X257950Y112923
X262647Y125921
X258869Y141139
X242667Y142654
X233869Y135516
X226270Y124445
X215108Y140094
X205560
X205214Y154071
X195029
X183266Y148100
X176812Y153874
X158869Y135516
X190477Y124689
X190514Y110516
X187549Y100134
X194143Y95361
X200010Y130890
X218257Y153050
X281840Y143553
X295128
X288336Y133795
X308869Y135516
Y110516
X290386Y109380
X281663Y115882
Y102791
X283869Y85516
X308869
Y60516
X283869
X258869
X254950Y77595
X243553Y95075
X233869Y85516
Y60516
X208869
X217370Y163520
X209779Y171394
Y183598
X216683Y190685
X202132Y191109
X203820Y201709
X213888Y207071
X217568Y214713
X209202
X213573Y221047
X213633Y233941
X217765Y240291
X209202Y240291
X213633Y246539
X201623Y246591
X201132Y251315
X206040Y258205
X210285Y255547
X202832Y262043
X183869Y260516
X158869
X159104Y242555
X165403Y241177
X163238Y221295
Y204572
X172588Y203579
X180189
X176230Y207614
X184399Y215784
X180320Y220635
X183869Y235516
X187943Y201567
Y191109
X180320
Y183106
X187943Y183430
X170506Y183106
X170562Y191109
X159104Y186650
X170562Y171591
X169135Y160516
X180320Y167752
X195029Y165193
X200342Y177248
X230659Y177004
Y165744
X227312Y156716
X246878Y157122
X246773Y167063
X254950Y175724
X275639Y177223
X275836Y189701
X264333Y194622
X247899Y201118
X242470Y207235
X230757Y196492
X237352Y186776
X237647Y234976
X230757Y243244
X227313Y251413
X233869Y260516
X258869
X283869
Y285516
Y310516
X308869
Y285516
Y260516
Y235516
Y210516
Y185516
Y160516
X270029Y157152
X270816Y215587
X285088Y215685
X283869Y235516
X258869
Y285516
X233869
Y310516
X208869
X183869
X158869
Y285516
X183869
X258869Y310516
X292568Y196394
X150233Y194327
X155167Y204572
X141683Y206827
X132037
X120951
X95029Y208106
X99695Y214996
X93848Y224642
X83868Y235516
Y260516
Y285516
X108869
Y260516
X133869
Y239891
X134793Y225016
X155167Y221295
X154379Y241177
X108869Y235516
X102776Y193441
X104784Y182417
X101722Y174340
X110928Y176801
X124950Y180252
X134037Y169445
X133187Y159413
X153100Y169845
X83868Y160516
Y185516
X89812Y199346
X83868Y210516
Y310516
X108869
X133869
Y285516
Y335516
X108869
X158869
X183869
X208869
X233869
X258869
X283869
T02
X254517Y67890
X264517Y77890
X244517
T03
X254281Y123658
X221468Y159681
Y195803
X171356Y177201
X137604Y191177
T04
X106348Y200724
X116191
X126033
Y213323
X116191
X106348
T05
X174143Y69582
X184143
X194143
X204143
X216704Y69622
X226704
T06
X132851Y73362
X142851
X278953Y73362
X288953
T07
X249068Y225016
X269069
X289069
X143569
X123568
X103568
T08
X173659Y271616
Y296616
X218980
Y271616
X282877
Y296616
X109760
Y271616
Y321616
X173659
X218980
X282877
T09
X196318Y287794
Y311416
T10
X79528Y90059
Y93996
Y97933
Y101870
Y105807
X312992
Y101870
Y97933
Y93996
Y90059
X312992Y265059
Y268996
Y272933
Y276870
Y280807
X79626
Y276870
Y272933
Y268996
Y265059
T11
X11811Y11811
X381890
X11811Y381890
X381890Y381890
M30
