G04*
G04 #@! TF.GenerationSoftware,Altium Limited,Altium Designer,19.1.5 (86)*
G04*
G04 Layer_Color=8421504*
%FSLAX25Y25*%
%MOIN*%
G70*
G01*
G75*
%ADD10C,0.11811*%
%ADD11R,0.06299X0.09843*%
%ADD12R,0.09843X0.06299*%
%ADD13R,0.06299X0.12598*%
%ADD14R,0.02362X0.03740*%
%ADD15R,0.07087X0.02362*%
%ADD16R,0.03740X0.03543*%
%ADD17R,0.04331X0.06890*%
%ADD18R,0.02362X0.06299*%
%ADD19R,0.07087X0.03150*%
%ADD20R,0.06299X0.11024*%
%ADD21R,0.05709X0.02362*%
%ADD22R,0.03543X0.03740*%
%ADD23R,0.12598X0.06299*%
%ADD24R,0.06890X0.04331*%
%ADD25R,0.03150X0.01575*%
%ADD26R,0.06496X0.09843*%
%ADD27R,0.11024X0.06299*%
%ADD28R,0.03937X0.05512*%
%ADD29R,0.02362X0.05709*%
D10*
X11811Y11811D02*
D03*
X381890D02*
D03*
Y381890D02*
D03*
X11811D02*
D03*
D11*
X226230Y102056D02*
D03*
Y116007D02*
D03*
D12*
X267772Y109380D02*
D03*
X281723D02*
D03*
D13*
X288336Y163407D02*
D03*
Y143553D02*
D03*
X230758Y206630D02*
D03*
Y186776D02*
D03*
D14*
X164419Y112142D02*
D03*
X171899D02*
D03*
X168159Y121394D02*
D03*
X248172Y112923D02*
D03*
X251913Y102096D02*
D03*
X244432D02*
D03*
X203887Y206630D02*
D03*
X207628Y195803D02*
D03*
X200147D02*
D03*
D15*
X175738Y105075D02*
D03*
Y100075D02*
D03*
Y95075D02*
D03*
Y90075D02*
D03*
X204084Y105075D02*
D03*
Y100075D02*
D03*
Y95075D02*
D03*
Y90075D02*
D03*
D16*
X164419Y100075D02*
D03*
Y106177D02*
D03*
X178199Y118244D02*
D03*
Y112142D02*
D03*
X211860Y105055D02*
D03*
Y98953D02*
D03*
X238330Y102096D02*
D03*
Y108198D02*
D03*
X258015Y102096D02*
D03*
Y108198D02*
D03*
X110928Y181348D02*
D03*
Y187450D02*
D03*
X158907Y153342D02*
D03*
Y159444D02*
D03*
X124950Y185075D02*
D03*
Y191177D02*
D03*
X118848D02*
D03*
Y185075D02*
D03*
X110928Y170546D02*
D03*
Y164444D02*
D03*
X131053Y185075D02*
D03*
Y191177D02*
D03*
X146997Y174740D02*
D03*
Y180842D02*
D03*
X159202D02*
D03*
Y174740D02*
D03*
X153100D02*
D03*
Y180842D02*
D03*
X213828Y195803D02*
D03*
Y201905D02*
D03*
X152805Y159444D02*
D03*
Y153342D02*
D03*
X146702D02*
D03*
Y159444D02*
D03*
X89812Y210862D02*
D03*
Y204760D02*
D03*
D17*
X216558Y90075D02*
D03*
X228172D02*
D03*
X130462Y177496D02*
D03*
X118848D02*
D03*
X146997Y167063D02*
D03*
X158612D02*
D03*
X281250Y183402D02*
D03*
X292864D02*
D03*
D18*
X203513Y214701D02*
D03*
X213513D02*
D03*
X203513Y240291D02*
D03*
X213513D02*
D03*
D19*
X166529Y216138D02*
D03*
Y226138D02*
D03*
Y246138D02*
D03*
Y236138D02*
D03*
X194088D02*
D03*
Y246138D02*
D03*
Y226138D02*
D03*
Y216138D02*
D03*
D20*
X95521Y170546D02*
D03*
Y187450D02*
D03*
D21*
X118257Y169445D02*
D03*
Y164445D02*
D03*
Y159445D02*
D03*
Y154445D02*
D03*
X139714Y169445D02*
D03*
Y164445D02*
D03*
Y159445D02*
D03*
Y154445D02*
D03*
D22*
X118257Y147954D02*
D03*
X124360D02*
D03*
X194045Y195803D02*
D03*
X187943D02*
D03*
X255167Y214209D02*
D03*
X249065D02*
D03*
X281250Y191177D02*
D03*
X287352D02*
D03*
X287352Y175626D02*
D03*
X281250D02*
D03*
X264320Y189602D02*
D03*
X270423D02*
D03*
X264320Y183411D02*
D03*
X270423D02*
D03*
X270435Y177210D02*
D03*
X264333D02*
D03*
X269931Y141079D02*
D03*
X263828D02*
D03*
X152805Y147181D02*
D03*
X146702D02*
D03*
D23*
X210271Y130842D02*
D03*
X190417D02*
D03*
X189925Y177201D02*
D03*
X209779D02*
D03*
D24*
X210285Y159681D02*
D03*
Y148067D02*
D03*
X200049Y148067D02*
D03*
Y159681D02*
D03*
X190009Y148067D02*
D03*
Y159681D02*
D03*
D25*
X184990Y207614D02*
D03*
X194045D02*
D03*
D26*
X230758Y220213D02*
D03*
Y234976D02*
D03*
D27*
X287339Y206236D02*
D03*
X270436D02*
D03*
D28*
X247899Y207220D02*
D03*
X255182D02*
D03*
X140471Y147181D02*
D03*
X133187D02*
D03*
D29*
X254950Y148165D02*
D03*
X259950D02*
D03*
X264950D02*
D03*
X269951D02*
D03*
X254950Y169622D02*
D03*
X259950D02*
D03*
X264950D02*
D03*
X269951D02*
D03*
M02*
