M48
;Layer_Color=9474304
;FILE_FORMAT=2:5
INCH,TZ
;TYPE=PLATED
T1F00S00C0.01378
T2F00S00C0.01969
T3F00S00C0.02000
T4F00S00C0.03150
T5F00S00C0.03543
T6F00S00C0.04000
T7F00S00C0.04331
T8F00S00C0.05512
T9F00S00C0.09843
;TYPE=NON_PLATED
T10F00S00C0.01968
T11F00S00C0.11811
%
T01
X83868Y60516
X108869
Y85516
X83868
Y110516
Y135516
X108869
X133869
X133257Y150829
X120718
X144991Y155201
X133869Y110516
X108869
X133869Y85516
Y60516
X158869
Y85516
X169088Y90075
X187943Y100017
X190477Y124689
X200010Y130890
X178199Y136158
X171309Y138323
X158869Y135516
X166289Y148609
X183266Y148100
X190009Y153099
X171899Y117063
X158869Y110516
X208869
X219734Y116007
X226270Y124445
X233869Y135516
X238330Y113323
X248179Y117850
Y107811
X257950Y112923
X281663Y115882
Y102791
X290386Y109380
X308869Y110516
Y135516
X295128Y143553
X281840
X288336Y133795
X258869Y141139
X283869Y85516
X308869
Y60516
X283869
X258869
X233869
X208869
Y85516
X199163Y78284
X183869Y60516
X216878Y98953
X233869Y85516
X246878Y157122
X254950Y175724
X275639Y177223
X275836Y189701
X264333Y194622
X247899Y203874
X242470Y209991
X230757Y196492
X237352Y186776
X230659Y177004
X209779Y183598
X200342Y177248
X185984Y183598
X182886Y195850
X186565Y213484
X178199Y212634
X176427Y220213
X171309Y207658
X164419Y200528
X164911Y184287
X157037Y183894
X163298Y167602
X182332Y170311
X203820Y201709
X213888Y207071
X209202Y214713
X213573Y221047
X213633Y233941
X209202Y240291
X213633Y246539
X201132Y251315
X206040Y258205
X183869Y260516
X158869
X157037Y241768
X183869Y235516
Y285516
Y310516
X158869
Y285516
X208869Y310516
X233869
Y285516
Y260516
X231250Y251413
X230757Y243244
X237647Y234976
X258869Y235516
Y260516
X283869
Y285516
Y310516
X308869
Y285516
Y260516
Y235516
Y210516
Y185516
Y160516
X283869Y235516
X258869Y285516
Y310516
X133869
X108869
Y285516
X83868
Y260516
Y235516
Y210516
Y185516
Y160516
X103395Y162535
X102313Y168047
X110825Y173953
X115206Y165839
X123298Y159630
X137313
X123276Y174000
X123238Y189543
X104675Y189898
X111368Y206827
X108869Y235516
X133869
Y260516
X108869
X133869Y285516
X83868Y310516
X150639Y214405
X137746Y201020
X133869Y335516
X108869
X158869
X183869
X208869
X233869
X258869
X283869
T02
X244517Y77890
X254517Y67890
X264517Y77890
T03
X256643Y124642
X221468Y159681
Y195803
X151033Y189012
T04
X106348Y200724
X116191
X126033
Y213323
X116191
X106348
T05
X174143Y69582
X184143
X194143
X204143
X216704Y69622
X226704
T06
X132851Y73362
X142851
X278953Y73362
X288953
T07
X249068Y225016
X269069
X289069
X143569
X123568
X103568
T08
X173659Y271616
Y296616
X218980
Y271616
X282877
Y296616
X109760
Y271616
Y321616
X173659
X218980
X282877
T09
X196318Y287794
Y311416
T10
X79528Y90059
Y93996
Y97933
Y101870
Y105807
X312992
Y101870
Y97933
Y93996
Y90059
X312992Y265059
Y268996
Y272933
Y276870
Y280807
X79626
Y276870
Y272933
Y268996
Y265059
T11
X11811Y11811
X381890
X11811Y381890
X381890Y381890
M30
