G04*
G04 #@! TF.GenerationSoftware,Altium Limited,Altium Designer,19.0.15 (446)*
G04*
G04 Layer_Color=8388736*
%FSLAX25Y25*%
%MOIN*%
G70*
G01*
G75*
%ADD10C,0.11811*%
%ADD32C,0.01968*%
%ADD50C,0.12402*%
%ADD51R,0.06890X0.10433*%
%ADD52R,0.10433X0.06890*%
%ADD53R,0.06890X0.13189*%
%ADD54R,0.02953X0.04331*%
%ADD55R,0.07677X0.02953*%
%ADD56R,0.04331X0.04134*%
%ADD57R,0.04921X0.07480*%
%ADD58R,0.02953X0.06890*%
%ADD59R,0.07677X0.03740*%
%ADD60R,0.06890X0.11614*%
%ADD61R,0.07480X0.04921*%
%ADD62R,0.02953X0.06299*%
%ADD63R,0.13189X0.06890*%
%ADD64R,0.04134X0.04331*%
%ADD65R,0.03740X0.02165*%
%ADD66R,0.07087X0.10433*%
%ADD67R,0.11614X0.06890*%
%ADD68R,0.04528X0.06102*%
%ADD69R,0.06102X0.04528*%
%ADD70C,0.07678*%
%ADD71C,0.07191*%
%ADD72C,0.15355*%
%ADD73C,0.06890*%
%ADD74C,0.06591*%
%ADD75C,0.05315*%
%ADD76R,0.05315X0.05315*%
%ADD77C,0.08859*%
%ADD78C,0.03347*%
%ADD79C,0.04091*%
D10*
X11811Y11811D02*
D03*
X381890D02*
D03*
Y381890D02*
D03*
X11811Y381890D02*
D03*
D32*
X312992Y105807D02*
D03*
Y101870D02*
D03*
Y97933D02*
D03*
Y90059D02*
D03*
Y93996D02*
D03*
X312992Y280807D02*
D03*
Y276870D02*
D03*
Y272933D02*
D03*
Y265059D02*
D03*
Y268996D02*
D03*
X79528Y105807D02*
D03*
Y101870D02*
D03*
Y97933D02*
D03*
Y90059D02*
D03*
Y93996D02*
D03*
X79626Y268996D02*
D03*
Y265059D02*
D03*
Y272933D02*
D03*
Y276870D02*
D03*
Y280807D02*
D03*
D50*
X11811Y11811D02*
D03*
X381890D02*
D03*
Y381890D02*
D03*
X11811D02*
D03*
D51*
X226230Y102056D02*
D03*
Y116007D02*
D03*
D52*
X267772Y109380D02*
D03*
X281723D02*
D03*
D53*
X288336Y163407D02*
D03*
Y143553D02*
D03*
X230758Y206630D02*
D03*
Y186776D02*
D03*
D54*
X164419Y112142D02*
D03*
X171899D02*
D03*
X168159Y121394D02*
D03*
X248172Y112923D02*
D03*
X251913Y102096D02*
D03*
X244432D02*
D03*
X203887Y206630D02*
D03*
X207628Y195803D02*
D03*
X200147D02*
D03*
D55*
X175738Y105075D02*
D03*
Y100075D02*
D03*
Y95075D02*
D03*
Y90075D02*
D03*
X204084Y105075D02*
D03*
Y100075D02*
D03*
Y95075D02*
D03*
Y90075D02*
D03*
D56*
X164321Y100134D02*
D03*
Y106236D02*
D03*
X178199Y118244D02*
D03*
Y112142D02*
D03*
X211860Y105055D02*
D03*
Y98953D02*
D03*
X238330Y102096D02*
D03*
Y108198D02*
D03*
X258015Y102096D02*
D03*
Y108198D02*
D03*
X110777Y178874D02*
D03*
Y184976D02*
D03*
X116880Y178874D02*
D03*
Y184976D02*
D03*
X123238Y178874D02*
D03*
Y184976D02*
D03*
X129340D02*
D03*
Y178874D02*
D03*
X115206Y161157D02*
D03*
Y155055D02*
D03*
X144931Y172575D02*
D03*
Y178677D02*
D03*
X151033Y172575D02*
D03*
Y178677D02*
D03*
X157135D02*
D03*
Y172575D02*
D03*
X163238D02*
D03*
Y178677D02*
D03*
X144931Y144032D02*
D03*
Y150134D02*
D03*
X213828Y195803D02*
D03*
Y201905D02*
D03*
X115206Y143047D02*
D03*
Y149150D02*
D03*
X109104D02*
D03*
Y143047D02*
D03*
X95324Y149150D02*
D03*
Y143047D02*
D03*
D57*
X216558Y90075D02*
D03*
X228172D02*
D03*
X145521Y164799D02*
D03*
X157135D02*
D03*
X281250Y183402D02*
D03*
X292864D02*
D03*
D58*
X203513Y214701D02*
D03*
X213513D02*
D03*
X203513Y240291D02*
D03*
X213513D02*
D03*
D59*
X166529Y216138D02*
D03*
Y226138D02*
D03*
Y246138D02*
D03*
Y236138D02*
D03*
X194088D02*
D03*
Y246138D02*
D03*
Y226138D02*
D03*
Y216138D02*
D03*
D60*
X96112Y168060D02*
D03*
Y184964D02*
D03*
D61*
X137057Y172968D02*
D03*
Y184583D02*
D03*
X210285Y159681D02*
D03*
Y148067D02*
D03*
X200049Y148067D02*
D03*
Y159681D02*
D03*
X190009Y148067D02*
D03*
Y159681D02*
D03*
D62*
X123258Y144032D02*
D03*
X128258D02*
D03*
X133257D02*
D03*
X138258D02*
D03*
X123258Y165488D02*
D03*
X128258D02*
D03*
X133257D02*
D03*
X138258D02*
D03*
X254950Y148165D02*
D03*
X259950D02*
D03*
X264950D02*
D03*
X269951D02*
D03*
X254950Y169622D02*
D03*
X259950D02*
D03*
X264950D02*
D03*
X269951D02*
D03*
D63*
X210271Y130842D02*
D03*
X190417D02*
D03*
X189925Y177201D02*
D03*
X209779D02*
D03*
D64*
X194045Y195803D02*
D03*
X187943D02*
D03*
X255167Y216965D02*
D03*
X249065D02*
D03*
X281250Y191177D02*
D03*
X287352D02*
D03*
X287352Y175626D02*
D03*
X281250D02*
D03*
X264320Y189602D02*
D03*
X270423D02*
D03*
X264320Y183411D02*
D03*
X270423D02*
D03*
X270435Y177210D02*
D03*
X264333D02*
D03*
X269931Y141079D02*
D03*
X263828D02*
D03*
X108317Y156630D02*
D03*
X102214D02*
D03*
D65*
X184990Y207614D02*
D03*
X194045D02*
D03*
D66*
X230758Y220213D02*
D03*
Y234976D02*
D03*
D67*
X287339Y206236D02*
D03*
X270436D02*
D03*
D68*
X247899Y209976D02*
D03*
X255182D02*
D03*
D69*
X102214Y150331D02*
D03*
Y143047D02*
D03*
D70*
X289069Y225016D02*
D03*
X269069D02*
D03*
X249068D02*
D03*
X143569D02*
D03*
X123568D02*
D03*
X103568D02*
D03*
D71*
X226704Y69622D02*
D03*
X216704D02*
D03*
X204143Y69582D02*
D03*
X194143D02*
D03*
X174143D02*
D03*
X184143D02*
D03*
D72*
X196318Y287794D02*
D03*
Y311416D02*
D03*
D73*
X116191Y200724D02*
D03*
X126033D02*
D03*
X106348D02*
D03*
Y213323D02*
D03*
X126033D02*
D03*
X116191D02*
D03*
D74*
X132851Y73362D02*
D03*
X142851D02*
D03*
X278953Y73362D02*
D03*
X288953D02*
D03*
D75*
X244517Y77890D02*
D03*
X254517Y67890D02*
D03*
D76*
X264517Y77890D02*
D03*
D77*
X218980Y296616D02*
D03*
X282877D02*
D03*
X218980Y321616D02*
D03*
X282877D02*
D03*
X218980Y271616D02*
D03*
X282877D02*
D03*
X109760Y296616D02*
D03*
X173659D02*
D03*
X109760Y321616D02*
D03*
X173659D02*
D03*
X109760Y271616D02*
D03*
X173659D02*
D03*
D78*
X258869Y335516D02*
D03*
X108869Y60516D02*
D03*
X233869Y335516D02*
D03*
X83868Y85516D02*
D03*
Y235516D02*
D03*
Y160516D02*
D03*
Y135516D02*
D03*
X233869Y60516D02*
D03*
X83868Y285516D02*
D03*
X283869Y310516D02*
D03*
X308869Y135516D02*
D03*
X83868Y260516D02*
D03*
X308869Y160516D02*
D03*
Y235516D02*
D03*
X83868Y60516D02*
D03*
X208869D02*
D03*
X83868Y310516D02*
D03*
Y185516D02*
D03*
Y110516D02*
D03*
X108869Y335516D02*
D03*
X83868Y210516D02*
D03*
X308869Y85516D02*
D03*
Y185516D02*
D03*
Y210516D02*
D03*
Y260516D02*
D03*
X133869Y335516D02*
D03*
X208869D02*
D03*
X308869Y60516D02*
D03*
X183869D02*
D03*
X308869Y310516D02*
D03*
X183869Y335516D02*
D03*
X308869Y285516D02*
D03*
Y110516D02*
D03*
X283869Y60516D02*
D03*
X108869Y310516D02*
D03*
X133869Y60516D02*
D03*
X158869Y335516D02*
D03*
X258869Y60516D02*
D03*
X283869Y335516D02*
D03*
X158869Y60516D02*
D03*
X171309Y207658D02*
D03*
X178199Y136158D02*
D03*
X171309Y138323D02*
D03*
X178199Y212634D02*
D03*
X206040Y258205D02*
D03*
X231250Y251413D02*
D03*
X201132Y251315D02*
D03*
X123238Y189543D02*
D03*
X115206Y165839D02*
D03*
X102313Y168047D02*
D03*
X133257Y150829D02*
D03*
X120718D02*
D03*
D79*
X256643Y124642D02*
D03*
X221468Y159681D02*
D03*
Y195803D02*
D03*
X151033Y189012D02*
D03*
M02*
