G04*
G04 #@! TF.GenerationSoftware,Altium Limited,Altium Designer,19.0.15 (446)*
G04*
G04 Layer_Color=32896*
%FSLAX25Y25*%
%MOIN*%
G70*
G01*
G75*
%ADD46C,0.00500*%
%ADD48C,0.00591*%
%ADD83C,0.00800*%
D46*
X234068Y286453D02*
G03*
X269069Y251453I35000J0D01*
G01*
Y321453D02*
G03*
X234068Y286453I-0J-35000D01*
G01*
X269069Y321453D02*
G03*
X234068Y286453I-0J-35000D01*
G01*
Y286453D02*
G03*
X269069Y251453I35000J0D01*
G01*
D02*
G03*
X304068Y286453I0J35000D01*
G01*
Y286453D02*
G03*
X269069Y321453I-35000J0D01*
G01*
X304068Y286453D02*
G03*
X269069Y321453I-35000J0D01*
G01*
Y251453D02*
G03*
X304068Y286453I0J35000D01*
G01*
X272604D02*
G03*
X272604Y286453I-3535J0D01*
G01*
D02*
G03*
X272604Y286453I-3535J0D01*
G01*
X88569D02*
G03*
X123568Y251453I35000J0D01*
G01*
Y321453D02*
G03*
X88569Y286453I-0J-35000D01*
G01*
X123568Y321453D02*
G03*
X88569Y286453I-0J-35000D01*
G01*
Y286453D02*
G03*
X123568Y251453I35000J0D01*
G01*
D02*
G03*
X158569Y286453I0J35000D01*
G01*
Y286453D02*
G03*
X123568Y321453I-35000J0D01*
G01*
X158569Y286453D02*
G03*
X123568Y321453I-35000J0D01*
G01*
Y251453D02*
G03*
X158569Y286453I0J35000D01*
G01*
X127103D02*
G03*
X127103Y286453I-3535J0D01*
G01*
D02*
G03*
X127103Y286453I-3535J0D01*
G01*
X234068D02*
X304068D01*
X234068D02*
X304068D01*
X239069Y231516D02*
X299068D01*
X239069D02*
X299068D01*
X269069Y251453D02*
Y321453D01*
Y251453D02*
Y321453D01*
X239069Y231516D02*
Y268953D01*
Y231516D02*
Y268953D01*
X299068Y231516D02*
Y268953D01*
Y231516D02*
Y268953D01*
X88569Y286453D02*
X158569D01*
X88569D02*
X158569D01*
X93568Y231516D02*
X153568D01*
X93568D02*
X153568D01*
X123568Y251453D02*
Y321453D01*
Y251453D02*
Y321453D01*
X93568Y231516D02*
Y268953D01*
Y231516D02*
Y268953D01*
X153568Y231516D02*
Y268953D01*
Y231516D02*
Y268953D01*
D48*
X197919Y334664D02*
X198969D01*
X198444D01*
Y332041D01*
X198969Y331516D01*
X199494D01*
X200019Y332041D01*
X196870Y331516D02*
X195820D01*
X196345D01*
Y334664D01*
X196870Y334139D01*
X278569Y236664D02*
X276469D01*
X277519D01*
Y233516D01*
X273846Y236664D02*
X274895D01*
X275420Y236139D01*
Y234040D01*
X274895Y233516D01*
X273846D01*
X273321Y234040D01*
Y236139D01*
X273846Y236664D01*
X272271Y233516D02*
Y236664D01*
X270172Y233516D01*
Y236664D01*
X267024D02*
X269123D01*
Y233516D01*
X267024D01*
X269123Y235090D02*
X268073D01*
X136068Y236664D02*
Y233516D01*
X133969D01*
X130821Y236664D02*
X132920D01*
Y233516D01*
X130821D01*
X132920Y235090D02*
X131870D01*
X129771Y236664D02*
Y234565D01*
X128722Y233516D01*
X127672Y234565D01*
Y236664D01*
X124524D02*
X126623D01*
Y233516D01*
X124524D01*
X126623Y235090D02*
X125573D01*
X123474Y236664D02*
Y233516D01*
X121375D01*
D83*
X178602Y287794D02*
X186870D01*
X205767D02*
X214036D01*
Y290550D01*
X214019Y290531D02*
Y309906D01*
X178602Y287794D02*
Y340731D01*
X214036Y309054D02*
Y340731D01*
X178602D02*
X214036D01*
M02*
