G04*
G04 #@! TF.GenerationSoftware,Altium Limited,Altium Designer,19.0.15 (446)*
G04*
G04 Layer_Physical_Order=1*
G04 Layer_Color=255*
%FSLAX25Y25*%
%MOIN*%
G70*
G01*
G75*
%ADD10C,0.11811*%
%ADD11R,0.06299X0.09843*%
%ADD12R,0.09843X0.06299*%
%ADD13R,0.06299X0.12598*%
%ADD14R,0.02362X0.03740*%
%ADD15R,0.07087X0.02362*%
%ADD16R,0.03740X0.03543*%
%ADD17R,0.04331X0.06890*%
%ADD18R,0.02362X0.06299*%
%ADD19R,0.07087X0.03150*%
%ADD20R,0.06299X0.11024*%
%ADD21R,0.06890X0.04331*%
%ADD22R,0.02362X0.05709*%
%ADD23R,0.12598X0.06299*%
%ADD24R,0.03543X0.03740*%
%ADD25R,0.03150X0.01575*%
%ADD26R,0.06496X0.09843*%
%ADD27R,0.11024X0.06299*%
%ADD28R,0.03937X0.05512*%
%ADD29R,0.05512X0.03937*%
%ADD30C,0.02400*%
%ADD31C,0.01000*%
%ADD32C,0.01968*%
%ADD33C,0.07087*%
%ADD34C,0.06600*%
%ADD35C,0.14765*%
%ADD36C,0.06299*%
%ADD37C,0.06000*%
%ADD38C,0.04724*%
%ADD39R,0.04724X0.04724*%
%ADD40C,0.08268*%
%ADD41C,0.02756*%
%ADD42C,0.03500*%
G36*
X288004Y323439D02*
X287504Y323339D01*
X287187Y324104D01*
X286397Y325135D01*
X285366Y325925D01*
X284166Y326423D01*
X282877Y326592D01*
X281590Y326423D01*
X280389Y325925D01*
X279359Y325135D01*
X278568Y324104D01*
X278070Y322904D01*
X277901Y321616D01*
X278070Y320328D01*
X278568Y319127D01*
X279359Y318097D01*
X280389Y317306D01*
X281590Y316809D01*
X282877Y316639D01*
X284166Y316809D01*
X285366Y317306D01*
X286397Y318097D01*
X287187Y319127D01*
X287504Y319892D01*
X288004Y319793D01*
Y314516D01*
X288121Y313931D01*
X288452Y313434D01*
X288948Y313103D01*
X289534Y312986D01*
X311039D01*
X311039Y58061D01*
X81598D01*
X81598Y312986D01*
X103098D01*
X103684Y313103D01*
X104180Y313434D01*
X104511Y313931D01*
X104628Y314516D01*
Y319807D01*
X105128Y319907D01*
X105451Y319127D01*
X106242Y318097D01*
X107272Y317306D01*
X108473Y316809D01*
X109361Y316692D01*
Y321616D01*
Y326540D01*
X108473Y326423D01*
X107272Y325925D01*
X106242Y325135D01*
X105451Y324104D01*
X105128Y323325D01*
X104628Y323424D01*
Y340486D01*
X288004D01*
Y323439D01*
D02*
G37*
%LPC*%
G36*
X219379Y326540D02*
Y322016D01*
X223903D01*
X223786Y322904D01*
X223289Y324104D01*
X222498Y325135D01*
X221468Y325925D01*
X220268Y326423D01*
X219379Y326540D01*
D02*
G37*
G36*
X110161D02*
Y322016D01*
X114684D01*
X114567Y322904D01*
X114070Y324104D01*
X113279Y325135D01*
X112249Y325925D01*
X111048Y326423D01*
X110161Y326540D01*
D02*
G37*
G36*
X218580D02*
X217691Y326423D01*
X216491Y325925D01*
X215460Y325135D01*
X214670Y324104D01*
X214173Y322904D01*
X214056Y322016D01*
X218580D01*
Y326540D01*
D02*
G37*
G36*
X223903Y321216D02*
X219379D01*
Y316692D01*
X220268Y316809D01*
X221468Y317306D01*
X222498Y318097D01*
X223289Y319127D01*
X223786Y320328D01*
X223903Y321216D01*
D02*
G37*
G36*
X114684D02*
X110161D01*
Y316692D01*
X111048Y316809D01*
X112249Y317306D01*
X113279Y318097D01*
X114070Y319127D01*
X114567Y320328D01*
X114684Y321216D01*
D02*
G37*
G36*
X218580D02*
X214056D01*
X214173Y320328D01*
X214670Y319127D01*
X215460Y318097D01*
X216491Y317306D01*
X217691Y316809D01*
X218580Y316692D01*
Y321216D01*
D02*
G37*
G36*
X173659Y326592D02*
X172371Y326423D01*
X171170Y325925D01*
X170140Y325135D01*
X169349Y324104D01*
X168851Y322904D01*
X168682Y321616D01*
X168851Y320328D01*
X169349Y319127D01*
X170140Y318097D01*
X171170Y317306D01*
X172371Y316809D01*
X173659Y316639D01*
X174946Y316809D01*
X176147Y317306D01*
X177178Y318097D01*
X177968Y319127D01*
X178465Y320328D01*
X178635Y321616D01*
X178465Y322904D01*
X177968Y324104D01*
X177178Y325135D01*
X176147Y325925D01*
X174946Y326423D01*
X173659Y326592D01*
D02*
G37*
G36*
X282877Y301592D02*
X281590Y301423D01*
X280389Y300925D01*
X279359Y300135D01*
X278568Y299104D01*
X278070Y297904D01*
X277901Y296616D01*
X278070Y295328D01*
X278568Y294127D01*
X279359Y293097D01*
X280389Y292306D01*
X281590Y291809D01*
X282877Y291639D01*
X284166Y291809D01*
X285366Y292306D01*
X286397Y293097D01*
X287187Y294127D01*
X287684Y295328D01*
X287854Y296616D01*
X287684Y297904D01*
X287187Y299104D01*
X286397Y300135D01*
X285366Y300925D01*
X284166Y301423D01*
X282877Y301592D01*
D02*
G37*
G36*
X218980D02*
X217691Y301423D01*
X216491Y300925D01*
X215460Y300135D01*
X214670Y299104D01*
X214173Y297904D01*
X214003Y296616D01*
X214173Y295328D01*
X214670Y294127D01*
X215460Y293097D01*
X216491Y292306D01*
X217691Y291809D01*
X218980Y291639D01*
X220268Y291809D01*
X221468Y292306D01*
X222498Y293097D01*
X223289Y294127D01*
X223786Y295328D01*
X223956Y296616D01*
X223786Y297904D01*
X223289Y299104D01*
X222498Y300135D01*
X221468Y300925D01*
X220268Y301423D01*
X218980Y301592D01*
D02*
G37*
G36*
X173659D02*
X172371Y301423D01*
X171170Y300925D01*
X170140Y300135D01*
X169349Y299104D01*
X168851Y297904D01*
X168682Y296616D01*
X168851Y295328D01*
X169349Y294127D01*
X170140Y293097D01*
X171170Y292306D01*
X172371Y291809D01*
X173659Y291639D01*
X174946Y291809D01*
X176147Y292306D01*
X177178Y293097D01*
X177968Y294127D01*
X178465Y295328D01*
X178635Y296616D01*
X178465Y297904D01*
X177968Y299104D01*
X177178Y300135D01*
X176147Y300925D01*
X174946Y301423D01*
X173659Y301592D01*
D02*
G37*
G36*
X109760D02*
X108473Y301423D01*
X107272Y300925D01*
X106242Y300135D01*
X105451Y299104D01*
X104954Y297904D01*
X104784Y296616D01*
X104954Y295328D01*
X105451Y294127D01*
X106242Y293097D01*
X107272Y292306D01*
X108473Y291809D01*
X109760Y291639D01*
X111048Y291809D01*
X112249Y292306D01*
X113279Y293097D01*
X114070Y294127D01*
X114567Y295328D01*
X114737Y296616D01*
X114567Y297904D01*
X114070Y299104D01*
X113279Y300135D01*
X112249Y300925D01*
X111048Y301423D01*
X109760Y301592D01*
D02*
G37*
G36*
X196719Y295976D02*
Y288194D01*
X204501D01*
X204382Y289398D01*
X203914Y290940D01*
X203155Y292361D01*
X202132Y293607D01*
X200886Y294630D01*
X199465Y295390D01*
X197923Y295858D01*
X196719Y295976D01*
D02*
G37*
G36*
X195919D02*
X194714Y295858D01*
X193172Y295390D01*
X191751Y294630D01*
X190505Y293607D01*
X189482Y292361D01*
X188723Y290940D01*
X188255Y289398D01*
X188136Y288194D01*
X195919D01*
Y295976D01*
D02*
G37*
G36*
X204501Y287394D02*
X196719D01*
Y279611D01*
X197923Y279730D01*
X199465Y280198D01*
X200886Y280958D01*
X202132Y281980D01*
X203155Y283226D01*
X203914Y284647D01*
X204382Y286190D01*
X204501Y287394D01*
D02*
G37*
G36*
X195919D02*
X188136D01*
X188255Y286190D01*
X188723Y284647D01*
X189482Y283226D01*
X190505Y281980D01*
X191751Y280958D01*
X193172Y280198D01*
X194714Y279730D01*
X195919Y279611D01*
Y287394D01*
D02*
G37*
G36*
X282877Y276592D02*
X281590Y276423D01*
X280389Y275925D01*
X279359Y275135D01*
X278568Y274104D01*
X278070Y272904D01*
X277901Y271616D01*
X278070Y270328D01*
X278568Y269127D01*
X279359Y268097D01*
X280389Y267306D01*
X281590Y266809D01*
X282877Y266639D01*
X284166Y266809D01*
X285366Y267306D01*
X286397Y268097D01*
X287187Y269127D01*
X287684Y270328D01*
X287854Y271616D01*
X287684Y272904D01*
X287187Y274104D01*
X286397Y275135D01*
X285366Y275925D01*
X284166Y276423D01*
X282877Y276592D01*
D02*
G37*
G36*
X218980D02*
X217691Y276423D01*
X216491Y275925D01*
X215460Y275135D01*
X214670Y274104D01*
X214173Y272904D01*
X214003Y271616D01*
X214173Y270328D01*
X214670Y269127D01*
X215460Y268097D01*
X216491Y267306D01*
X217691Y266809D01*
X218980Y266639D01*
X220268Y266809D01*
X221468Y267306D01*
X222498Y268097D01*
X223289Y269127D01*
X223786Y270328D01*
X223956Y271616D01*
X223786Y272904D01*
X223289Y274104D01*
X222498Y275135D01*
X221468Y275925D01*
X220268Y276423D01*
X218980Y276592D01*
D02*
G37*
G36*
X173659D02*
X172371Y276423D01*
X171170Y275925D01*
X170140Y275135D01*
X169349Y274104D01*
X168851Y272904D01*
X168682Y271616D01*
X168851Y270328D01*
X169349Y269127D01*
X170140Y268097D01*
X171170Y267306D01*
X172371Y266809D01*
X173659Y266639D01*
X174946Y266809D01*
X176147Y267306D01*
X177178Y268097D01*
X177968Y269127D01*
X178465Y270328D01*
X178635Y271616D01*
X178465Y272904D01*
X177968Y274104D01*
X177178Y275135D01*
X176147Y275925D01*
X174946Y276423D01*
X173659Y276592D01*
D02*
G37*
G36*
X201132Y253536D02*
X200282Y253367D01*
X199561Y252885D01*
X199398Y252640D01*
X199265D01*
X198758Y252539D01*
X198328Y252252D01*
X194588Y248513D01*
X189745D01*
Y243763D01*
X198432D01*
Y248513D01*
X198432Y248513D01*
X198432D01*
X198709Y248884D01*
X199566Y249741D01*
X200282Y249263D01*
X201132Y249094D01*
X201981Y249263D01*
X202702Y249745D01*
X203183Y250465D01*
X203352Y251315D01*
X203183Y252165D01*
X202702Y252885D01*
X201981Y253367D01*
X201132Y253536D01*
D02*
G37*
G36*
X170872Y248513D02*
X162186D01*
Y247463D01*
X161407D01*
X160900Y247362D01*
X160470Y247075D01*
X157326Y243931D01*
X157037Y243988D01*
X156187Y243819D01*
X155467Y243338D01*
X154985Y242618D01*
X154816Y241768D01*
X154985Y240918D01*
X155467Y240197D01*
X156187Y239716D01*
X157037Y239547D01*
X157887Y239716D01*
X158607Y240197D01*
X159089Y240918D01*
X159258Y241768D01*
X159200Y242056D01*
X161686Y244542D01*
X162186Y244335D01*
Y243763D01*
X170872D01*
Y248513D01*
D02*
G37*
G36*
X215494Y244241D02*
X213913D01*
Y240691D01*
X215494D01*
Y244241D01*
D02*
G37*
G36*
X213113D02*
X211532D01*
Y240691D01*
X213113D01*
Y244241D01*
D02*
G37*
G36*
X206040Y260425D02*
X205190Y260256D01*
X204470Y259775D01*
X203989Y259054D01*
X203820Y258205D01*
X203989Y257355D01*
X204470Y256634D01*
X204715Y256471D01*
Y248407D01*
X202576Y246268D01*
X202289Y245838D01*
X202188Y245331D01*
Y244241D01*
X201532D01*
Y237463D01*
X198432D01*
Y238513D01*
X189745D01*
Y233763D01*
X198432D01*
Y234812D01*
X202763D01*
X203270Y234913D01*
X203700Y235201D01*
X204451Y235951D01*
X204712Y236342D01*
X205494D01*
Y244241D01*
X204839D01*
Y244782D01*
X206978Y246920D01*
X207265Y247350D01*
X207366Y247857D01*
Y256471D01*
X207610Y256634D01*
X208092Y257355D01*
X208261Y258205D01*
X208092Y259054D01*
X207610Y259775D01*
X206890Y260256D01*
X206040Y260425D01*
D02*
G37*
G36*
X215494Y239891D02*
X213913D01*
Y236342D01*
X215494D01*
Y239891D01*
D02*
G37*
G36*
X213113D02*
X211532D01*
Y236342D01*
X213113D01*
Y239891D01*
D02*
G37*
G36*
X234806Y240698D02*
X231158D01*
Y235376D01*
X234806D01*
Y240698D01*
D02*
G37*
G36*
X230358D02*
X226710D01*
Y235376D01*
X230358D01*
Y240698D01*
D02*
G37*
G36*
X170872Y238513D02*
X162186D01*
Y237463D01*
X141171D01*
X140664Y237362D01*
X140234Y237075D01*
X133646Y230487D01*
X133358Y230057D01*
X133257Y229550D01*
Y213662D01*
X127846Y208251D01*
X122391D01*
X121884Y208150D01*
X121454Y207862D01*
X117888Y204296D01*
X117222Y204572D01*
X116191Y204708D01*
X115160Y204572D01*
X114199Y204174D01*
X113374Y203541D01*
X112741Y202716D01*
X112343Y201755D01*
X112207Y200724D01*
X112343Y199693D01*
X112741Y198733D01*
X113374Y197908D01*
X114199Y197274D01*
X115160Y196877D01*
X116191Y196741D01*
X117222Y196877D01*
X118182Y197274D01*
X119007Y197908D01*
X119641Y198733D01*
X120038Y199693D01*
X120174Y200724D01*
X120038Y201755D01*
X119762Y202422D01*
X122940Y205600D01*
X128395D01*
X128903Y205701D01*
X129333Y205988D01*
X135520Y212176D01*
X135808Y212606D01*
X135908Y213113D01*
Y229001D01*
X141720Y234812D01*
X162186D01*
Y233763D01*
X170872D01*
Y238513D01*
D02*
G37*
G36*
X234806Y234576D02*
X231158D01*
Y229255D01*
X234806D01*
Y234576D01*
D02*
G37*
G36*
X230358D02*
X226710D01*
Y229255D01*
X230358D01*
Y234576D01*
D02*
G37*
G36*
X198432Y228513D02*
X189745D01*
Y227463D01*
X170872D01*
Y228513D01*
X162186D01*
Y223763D01*
X170872D01*
Y224812D01*
X189745D01*
Y223763D01*
X198432D01*
Y228513D01*
D02*
G37*
G36*
X201132Y222547D02*
X186491D01*
X186479Y222545D01*
X186468Y222547D01*
X186226Y222494D01*
X185984Y222446D01*
X185974Y222440D01*
X185962Y222437D01*
X185759Y222296D01*
X185554Y222159D01*
X185547Y222149D01*
X185538Y222142D01*
X178452Y214804D01*
X178199Y214855D01*
X177349Y214686D01*
X176628Y214204D01*
X176147Y213484D01*
X175978Y212634D01*
X176147Y211784D01*
X176628Y211064D01*
X177349Y210582D01*
X178199Y210413D01*
X179048Y210582D01*
X179769Y211064D01*
X180250Y211784D01*
X180419Y212634D01*
X180354Y212959D01*
X187054Y219896D01*
X200583D01*
X201376Y219103D01*
X201532Y218650D01*
X201532D01*
X201532Y218650D01*
Y210751D01*
X205494D01*
Y218650D01*
X204839D01*
Y218840D01*
X204738Y219347D01*
X204451Y219777D01*
X202069Y222159D01*
X201639Y222446D01*
X201132Y222547D01*
D02*
G37*
G36*
X269069Y229397D02*
X267935Y229247D01*
X266878Y228810D01*
X265971Y228114D01*
X265275Y227206D01*
X264837Y226150D01*
X264687Y225016D01*
X264837Y223882D01*
X265195Y223017D01*
X260369Y218191D01*
X260082Y217761D01*
X259981Y217253D01*
Y204559D01*
X256887Y201465D01*
X256600Y201035D01*
X256499Y200528D01*
Y188083D01*
X256600Y187576D01*
X256887Y187146D01*
X261540Y182493D01*
X261749Y182353D01*
Y180741D01*
X263008D01*
Y179880D01*
X261761D01*
Y174540D01*
X263625D01*
Y173276D01*
X262969D01*
Y165968D01*
X266932D01*
Y173276D01*
X266276D01*
Y174540D01*
X266905D01*
Y179880D01*
X265658D01*
Y180741D01*
X266892D01*
Y186081D01*
X261749D01*
X261749Y186081D01*
Y186081D01*
X261395Y186387D01*
X259150Y188632D01*
Y199978D01*
X262244Y203073D01*
X262531Y203502D01*
X262632Y204010D01*
Y216705D01*
X267070Y221142D01*
X267935Y220784D01*
X269069Y220635D01*
X270202Y220784D01*
X271259Y221222D01*
X272166Y221918D01*
X272863Y222825D01*
X273300Y223882D01*
X273449Y225016D01*
X273300Y226150D01*
X272863Y227206D01*
X272166Y228114D01*
X271259Y228810D01*
X270202Y229247D01*
X269069Y229397D01*
D02*
G37*
G36*
X123568D02*
X122435Y229247D01*
X121378Y228810D01*
X120471Y228114D01*
X119774Y227206D01*
X119337Y226150D01*
X119187Y225016D01*
X119337Y223882D01*
X119774Y222825D01*
X120471Y221918D01*
X121378Y221222D01*
X122435Y220784D01*
X123568Y220635D01*
X124702Y220784D01*
X125759Y221222D01*
X126666Y221918D01*
X127363Y222825D01*
X127800Y223882D01*
X127950Y225016D01*
X127800Y226150D01*
X127363Y227206D01*
X126666Y228114D01*
X125759Y228810D01*
X124702Y229247D01*
X123568Y229397D01*
D02*
G37*
G36*
X103568D02*
X102435Y229247D01*
X101378Y228810D01*
X100471Y228114D01*
X99774Y227206D01*
X99337Y226150D01*
X99187Y225016D01*
X99337Y223882D01*
X99695Y223017D01*
X87793Y211114D01*
X87505Y210684D01*
X87405Y210177D01*
Y160173D01*
X87505Y159666D01*
X87793Y159236D01*
X93999Y153030D01*
Y151721D01*
X92654D01*
Y146578D01*
X97995D01*
Y151721D01*
X96650D01*
Y153579D01*
X96549Y154086D01*
X96262Y154516D01*
X90055Y160722D01*
Y209628D01*
X101570Y221142D01*
X102435Y220784D01*
X103568Y220635D01*
X104702Y220784D01*
X105759Y221222D01*
X106666Y221918D01*
X107363Y222825D01*
X107800Y223882D01*
X107949Y225016D01*
X107800Y226150D01*
X107363Y227206D01*
X106666Y228114D01*
X105759Y228810D01*
X104702Y229247D01*
X103568Y229397D01*
D02*
G37*
G36*
X215494Y218650D02*
X213913D01*
Y215101D01*
X215494D01*
Y218650D01*
D02*
G37*
G36*
X213113D02*
X211532D01*
Y215101D01*
X213113D01*
Y218650D01*
D02*
G37*
G36*
X213513Y214701D02*
D01*
D01*
D01*
D02*
G37*
G36*
X249068Y229397D02*
X247935Y229247D01*
X246878Y228810D01*
X245971Y228114D01*
X245274Y227206D01*
X244837Y226150D01*
X244688Y225016D01*
X244837Y223882D01*
X245274Y222825D01*
X245971Y221918D01*
X246878Y221222D01*
X247743Y220863D01*
Y219635D01*
X246493D01*
Y214295D01*
X251636D01*
Y219635D01*
X250394D01*
Y220863D01*
X251259Y221222D01*
X252166Y221918D01*
X252863Y222825D01*
X253300Y223882D01*
X253450Y225016D01*
X253300Y226150D01*
X252863Y227206D01*
X252166Y228114D01*
X251259Y228810D01*
X250202Y229247D01*
X249068Y229397D01*
D02*
G37*
G36*
X215494Y214301D02*
X213913D01*
Y210751D01*
X215494D01*
Y214301D01*
D02*
G37*
G36*
X213113D02*
X211532D01*
Y210751D01*
X213113D01*
Y214301D01*
D02*
G37*
G36*
X250667Y213532D02*
X248299D01*
Y210376D01*
X250667D01*
Y213532D01*
D02*
G37*
G36*
X247498D02*
X245130D01*
Y210376D01*
X247498D01*
Y213532D01*
D02*
G37*
G36*
X231250Y253634D02*
X230400Y253465D01*
X229679Y252984D01*
X229198Y252263D01*
X229029Y251413D01*
X229198Y250564D01*
X229679Y249843D01*
X230400Y249362D01*
X231250Y249193D01*
X232099Y249362D01*
X232820Y249843D01*
X232983Y250088D01*
X256980D01*
X276479Y230589D01*
Y214154D01*
X272511Y210186D01*
X264124D01*
Y202287D01*
X269097D01*
Y192272D01*
X267851D01*
Y186932D01*
X272994D01*
Y192272D01*
X271748D01*
Y202287D01*
X276747D01*
Y210186D01*
X276747D01*
X276604Y210531D01*
X278742Y212668D01*
X279029Y213098D01*
X279130Y213605D01*
Y231138D01*
X279029Y231645D01*
X278742Y232075D01*
X258466Y252351D01*
X258036Y252638D01*
X257529Y252739D01*
X232983D01*
X232820Y252984D01*
X232099Y253465D01*
X231250Y253634D01*
D02*
G37*
G36*
X126033Y217306D02*
X125002Y217171D01*
X124041Y216773D01*
X123216Y216140D01*
X122583Y215315D01*
X122185Y214354D01*
X122049Y213323D01*
X122185Y212292D01*
X122583Y211331D01*
X123216Y210506D01*
X124041Y209873D01*
X125002Y209475D01*
X126033Y209339D01*
X127064Y209475D01*
X128025Y209873D01*
X128850Y210506D01*
X129483Y211331D01*
X129881Y212292D01*
X130017Y213323D01*
X129881Y214354D01*
X129483Y215315D01*
X128850Y216140D01*
X128025Y216773D01*
X127064Y217171D01*
X126033Y217306D01*
D02*
G37*
G36*
X109760Y276592D02*
X108473Y276423D01*
X107272Y275925D01*
X106242Y275135D01*
X105451Y274104D01*
X104954Y272904D01*
X104784Y271616D01*
X104954Y270328D01*
X105451Y269127D01*
X106242Y268097D01*
X107272Y267306D01*
X108473Y266809D01*
X109760Y266639D01*
X111048Y266809D01*
X112211Y267290D01*
X114865Y264637D01*
Y217049D01*
X114199Y216773D01*
X113374Y216140D01*
X112741Y215315D01*
X112343Y214354D01*
X112207Y213323D01*
X112343Y212292D01*
X112741Y211331D01*
X113374Y210506D01*
X114199Y209873D01*
X115160Y209475D01*
X116191Y209339D01*
X117222Y209475D01*
X118182Y209873D01*
X119007Y210506D01*
X119641Y211331D01*
X120038Y212292D01*
X120174Y213323D01*
X120038Y214354D01*
X119641Y215315D01*
X119007Y216140D01*
X118182Y216773D01*
X117516Y217049D01*
Y265186D01*
X117415Y265693D01*
X117128Y266123D01*
X114086Y269165D01*
X114567Y270328D01*
X114737Y271616D01*
X114567Y272904D01*
X114070Y274104D01*
X113279Y275135D01*
X112249Y275925D01*
X111048Y276423D01*
X109760Y276592D01*
D02*
G37*
G36*
X106348Y217306D02*
X105317Y217171D01*
X104356Y216773D01*
X103531Y216140D01*
X102898Y215315D01*
X102500Y214354D01*
X102365Y213323D01*
X102500Y212292D01*
X102898Y211331D01*
X103531Y210506D01*
X104356Y209873D01*
X105317Y209475D01*
X106348Y209339D01*
X107379Y209475D01*
X108340Y209873D01*
X109165Y210506D01*
X109798Y211331D01*
X110196Y212292D01*
X110332Y213323D01*
X110196Y214354D01*
X109798Y215315D01*
X109165Y216140D01*
X108340Y216773D01*
X107379Y217171D01*
X106348Y217306D01*
D02*
G37*
G36*
X205869Y209300D02*
X204287D01*
Y207030D01*
X205869D01*
Y209300D01*
D02*
G37*
G36*
X203487D02*
X201906D01*
Y207030D01*
X203487D01*
Y209300D01*
D02*
G37*
G36*
X257739Y219635D02*
X252595D01*
Y214295D01*
X253841D01*
Y213532D01*
X252414D01*
Y206420D01*
X257950D01*
Y213532D01*
X256492D01*
Y214295D01*
X257739D01*
Y219635D01*
D02*
G37*
G36*
X250667Y209576D02*
X248299D01*
Y206420D01*
X250667D01*
Y209576D01*
D02*
G37*
G36*
X247498D02*
X245130D01*
Y206420D01*
X247498D01*
Y209576D01*
D02*
G37*
G36*
X170872Y218513D02*
X162186D01*
Y213763D01*
X165204D01*
Y212393D01*
X165305Y211886D01*
X165592Y211456D01*
X169138Y207910D01*
X169088Y207658D01*
X169257Y206808D01*
X169738Y206087D01*
X170459Y205606D01*
X171309Y205437D01*
X172159Y205606D01*
X172879Y206087D01*
X173013Y206289D01*
X182615D01*
Y206027D01*
X187365D01*
Y209202D01*
X182615D01*
Y208940D01*
X173072D01*
X172879Y209228D01*
X172159Y209709D01*
X171309Y209878D01*
X170984Y209814D01*
X167855Y212943D01*
Y213763D01*
X170872D01*
Y218513D01*
D02*
G37*
G36*
X205869Y206230D02*
X204287D01*
Y203960D01*
X205869D01*
Y206230D01*
D02*
G37*
G36*
X203487D02*
X201906D01*
Y203960D01*
X203487D01*
Y206230D01*
D02*
G37*
G36*
X216498Y204477D02*
X214228D01*
Y202306D01*
X216498D01*
Y204477D01*
D02*
G37*
G36*
X213428D02*
X211158D01*
Y202306D01*
X213428D01*
Y204477D01*
D02*
G37*
G36*
X216498Y201505D02*
X214228D01*
Y199334D01*
X216498D01*
Y201505D01*
D02*
G37*
G36*
X213428D02*
X211158D01*
Y199334D01*
X213428D01*
Y201505D01*
D02*
G37*
G36*
X196318Y319637D02*
X194714Y319480D01*
X193172Y319012D01*
X191751Y318252D01*
X190505Y317229D01*
X189482Y315984D01*
X188723Y314562D01*
X188255Y313020D01*
X188097Y311416D01*
X188255Y309812D01*
X188723Y308269D01*
X189482Y306848D01*
X190505Y305602D01*
X191751Y304579D01*
X193172Y303820D01*
X194714Y303352D01*
X196318Y303194D01*
X197923Y303352D01*
X199465Y303820D01*
X200485Y304365D01*
X207360Y297490D01*
Y262732D01*
X207515Y261952D01*
X207957Y261290D01*
X219073Y250175D01*
Y228677D01*
X219228Y227897D01*
X219670Y227235D01*
X226710Y220195D01*
Y214491D01*
X228718D01*
Y213729D01*
X226808D01*
Y204027D01*
X221113Y198333D01*
X220473Y198205D01*
X219930Y197842D01*
X216498D01*
Y198375D01*
X211158D01*
Y197842D01*
X209609D01*
Y198473D01*
X205646D01*
Y196095D01*
X205588Y195803D01*
X205646Y195511D01*
Y193133D01*
X209609D01*
Y193764D01*
X211158D01*
Y193231D01*
X216498D01*
Y193764D01*
X219930D01*
X220473Y193401D01*
X221468Y193203D01*
X222463Y193401D01*
X223306Y193965D01*
X223870Y194808D01*
X223997Y195449D01*
X228079Y199531D01*
X234707D01*
Y213729D01*
X232797D01*
Y214491D01*
X234806D01*
Y225934D01*
X226739D01*
X223151Y229522D01*
Y251020D01*
X222996Y251800D01*
X222554Y252462D01*
X211438Y263577D01*
Y298335D01*
X211283Y299115D01*
X210841Y299777D01*
X203369Y307249D01*
X203914Y308269D01*
X204382Y309812D01*
X204540Y311416D01*
X204382Y313020D01*
X203914Y314562D01*
X203155Y315984D01*
X202132Y317229D01*
X200886Y318252D01*
X199465Y319012D01*
X197923Y319480D01*
X196318Y319637D01*
D02*
G37*
G36*
X126033Y204708D02*
X125002Y204572D01*
X124041Y204174D01*
X123216Y203541D01*
X122583Y202716D01*
X122185Y201755D01*
X122049Y200724D01*
X122185Y199693D01*
X122583Y198733D01*
X123216Y197908D01*
X124041Y197274D01*
X125002Y196877D01*
X126033Y196741D01*
X127064Y196877D01*
X128025Y197274D01*
X128850Y197908D01*
X129483Y198733D01*
X129881Y199693D01*
X130017Y200724D01*
X129881Y201755D01*
X129483Y202716D01*
X128850Y203541D01*
X128025Y204174D01*
X127064Y204572D01*
X126033Y204708D01*
D02*
G37*
G36*
X190514Y198473D02*
X188343D01*
Y196203D01*
X190514D01*
Y198473D01*
D02*
G37*
G36*
X187543D02*
X185371D01*
Y196203D01*
X187543D01*
Y198473D01*
D02*
G37*
G36*
X198432Y218513D02*
X189745D01*
Y213763D01*
X192006D01*
Y209202D01*
X191670D01*
Y206027D01*
X192006D01*
Y198473D01*
X191473D01*
Y193133D01*
X196617D01*
Y193764D01*
X198166D01*
Y193133D01*
X202128D01*
Y195511D01*
X202186Y195803D01*
X202128Y196095D01*
Y198473D01*
X198166D01*
Y197842D01*
X196617D01*
Y198473D01*
X196084D01*
Y206027D01*
X196420D01*
Y209202D01*
X196084D01*
Y213763D01*
X198432D01*
Y218513D01*
D02*
G37*
G36*
X190514Y195403D02*
X188343D01*
Y193133D01*
X190514D01*
Y195403D01*
D02*
G37*
G36*
X187543D02*
X185371D01*
Y193133D01*
X187543D01*
Y195403D01*
D02*
G37*
G36*
X266892Y192272D02*
X264721D01*
Y190002D01*
X266892D01*
Y192272D01*
D02*
G37*
G36*
X263920D02*
X261749D01*
Y190002D01*
X263920D01*
Y192272D01*
D02*
G37*
G36*
X293651Y210186D02*
X281028D01*
Y202287D01*
X286014D01*
Y193847D01*
X284780D01*
Y188507D01*
X289924D01*
Y193847D01*
X288665D01*
Y202287D01*
X293651D01*
Y210186D01*
D02*
G37*
G36*
X234707Y193876D02*
X231158D01*
Y187176D01*
X234707D01*
Y193876D01*
D02*
G37*
G36*
X230358D02*
X226808D01*
Y187176D01*
X230358D01*
Y193876D01*
D02*
G37*
G36*
X266892Y189202D02*
X264721D01*
Y186932D01*
X266892D01*
Y189202D01*
D02*
G37*
G36*
X263920D02*
X261749D01*
Y186932D01*
X263920D01*
Y189202D01*
D02*
G37*
G36*
X106348Y204708D02*
X105317Y204572D01*
X104356Y204174D01*
X103531Y203541D01*
X102898Y202716D01*
X102500Y201755D01*
X102365Y200724D01*
X102500Y199693D01*
X102898Y198733D01*
X103531Y197908D01*
X104356Y197274D01*
X105023Y196999D01*
Y195692D01*
X105123Y195185D01*
X105411Y194755D01*
X109452Y190714D01*
Y187548D01*
X108107D01*
Y186289D01*
X100062D01*
Y191276D01*
X92162D01*
Y178652D01*
X100062D01*
Y183638D01*
X108107D01*
Y182405D01*
X113447D01*
Y187548D01*
X112103D01*
Y191263D01*
X112002Y191770D01*
X111714Y192200D01*
X107674Y196241D01*
Y196999D01*
X108340Y197274D01*
X109165Y197908D01*
X109798Y198733D01*
X110196Y199693D01*
X110332Y200724D01*
X110196Y201755D01*
X109798Y202716D01*
X109165Y203541D01*
X108340Y204174D01*
X107379Y204572D01*
X106348Y204708D01*
D02*
G37*
G36*
X283821Y193847D02*
X278678D01*
Y188507D01*
X279924D01*
Y187646D01*
X278284D01*
Y184737D01*
X272994D01*
Y186081D01*
X267851D01*
Y180741D01*
X269097D01*
Y179880D01*
X267864D01*
Y174540D01*
X268625D01*
Y173276D01*
X267969D01*
Y165968D01*
X271932D01*
Y173276D01*
X271276D01*
Y174540D01*
X273007D01*
Y179880D01*
X271748D01*
Y180741D01*
X272994D01*
Y182086D01*
X278284D01*
Y179157D01*
X284215D01*
Y187646D01*
X282575D01*
Y188507D01*
X283821D01*
Y193847D01*
D02*
G37*
G36*
X123238Y191764D02*
X122388Y191595D01*
X121668Y191113D01*
X121186Y190393D01*
X121017Y189543D01*
X121186Y188693D01*
X121617Y188048D01*
X121532Y187756D01*
X121404Y187548D01*
X120568D01*
Y182405D01*
X125908D01*
Y183651D01*
X126670D01*
Y182405D01*
X132010D01*
Y187548D01*
X126670D01*
Y186302D01*
X125908D01*
Y187548D01*
X125072D01*
X124943Y187756D01*
X124858Y188048D01*
X125289Y188693D01*
X125459Y189543D01*
X125289Y190393D01*
X124808Y191113D01*
X124088Y191595D01*
X123238Y191764D01*
D02*
G37*
G36*
X234707Y186376D02*
X231158D01*
Y179677D01*
X234707D01*
Y186376D01*
D02*
G37*
G36*
X230358D02*
X226808D01*
Y179677D01*
X230358D01*
Y186376D01*
D02*
G37*
G36*
X113447Y181446D02*
X111177D01*
Y179274D01*
X113447D01*
Y181446D01*
D02*
G37*
G36*
X110377D02*
X108107D01*
Y179274D01*
X110377D01*
Y181446D01*
D02*
G37*
G36*
X125908Y181446D02*
X123638D01*
Y179274D01*
X125908D01*
Y181446D01*
D02*
G37*
G36*
X122838D02*
X120568D01*
Y179274D01*
X122838D01*
Y181446D01*
D02*
G37*
G36*
X289069Y229397D02*
X287935Y229247D01*
X286878Y228810D01*
X285971Y228114D01*
X285275Y227206D01*
X284837Y226150D01*
X284687Y225016D01*
X284837Y223882D01*
X285275Y222825D01*
X285971Y221918D01*
X286878Y221222D01*
X287935Y220784D01*
X289069Y220635D01*
X290202Y220784D01*
X291067Y221142D01*
X296361Y215849D01*
Y188773D01*
X295234Y187646D01*
X289898D01*
Y179157D01*
X289898Y179157D01*
X289898D01*
X289594Y178802D01*
X289088Y178296D01*
X284780D01*
Y172956D01*
X289924D01*
Y175382D01*
X293698Y179157D01*
X295829D01*
Y184493D01*
X298624Y187287D01*
X298911Y187717D01*
X299012Y188224D01*
Y216398D01*
X298911Y216905D01*
X298624Y217335D01*
X292942Y223017D01*
X293300Y223882D01*
X293449Y225016D01*
X293300Y226150D01*
X292863Y227206D01*
X292166Y228114D01*
X291259Y228810D01*
X290202Y229247D01*
X289069Y229397D01*
D02*
G37*
G36*
X216878Y181150D02*
X210179D01*
Y177601D01*
X216878D01*
Y181150D01*
D02*
G37*
G36*
X209379D02*
X202680D01*
Y177601D01*
X209379D01*
Y181150D01*
D02*
G37*
G36*
X141302Y187548D02*
X132812D01*
Y182212D01*
X132357Y181757D01*
X132010Y181446D01*
Y181446D01*
X132010Y181446D01*
X126670D01*
Y176302D01*
X132010D01*
Y177753D01*
X132285Y177937D01*
X135966Y181617D01*
X141302D01*
Y187548D01*
D02*
G37*
G36*
X125908Y178474D02*
X123638D01*
Y176302D01*
X125908D01*
Y178474D01*
D02*
G37*
G36*
X122838D02*
X120568D01*
Y176302D01*
X122838D01*
Y178474D01*
D02*
G37*
G36*
X113447Y178474D02*
X111177D01*
Y176302D01*
X113447D01*
Y178474D01*
D02*
G37*
G36*
X110377D02*
X108107D01*
Y176302D01*
X110377D01*
Y178474D01*
D02*
G37*
G36*
X157037Y186114D02*
X156187Y185945D01*
X155467Y185464D01*
X154985Y184743D01*
X154816Y183894D01*
X154985Y183044D01*
X155467Y182324D01*
X155712Y182160D01*
Y181249D01*
X154465D01*
Y176105D01*
X159806D01*
Y177352D01*
X160568D01*
Y176105D01*
X165908D01*
Y181249D01*
X160568D01*
Y180003D01*
X159806D01*
Y181249D01*
X158362D01*
Y182160D01*
X158607Y182324D01*
X159089Y183044D01*
X159258Y183894D01*
X159089Y184743D01*
X158607Y185464D01*
X157887Y185945D01*
X157037Y186114D01*
D02*
G37*
G36*
X216878Y176801D02*
X210179D01*
Y173251D01*
X216878D01*
Y176801D01*
D02*
G37*
G36*
X209379D02*
X202680D01*
Y173251D01*
X209379D01*
Y176801D01*
D02*
G37*
G36*
X165908Y175146D02*
X163638D01*
Y172975D01*
X165908D01*
Y175146D01*
D02*
G37*
G36*
X162838D02*
X160568D01*
Y172975D01*
X162838D01*
Y175146D01*
D02*
G37*
G36*
X256932Y173276D02*
X255350D01*
Y170022D01*
X256932D01*
Y173276D01*
D02*
G37*
G36*
X254551D02*
X252969D01*
Y170022D01*
X254551D01*
Y173276D01*
D02*
G37*
G36*
X153703Y175146D02*
X148363D01*
Y170003D01*
X148363D01*
X148506Y169658D01*
X147892Y169044D01*
X142556D01*
Y160756D01*
X138870Y157070D01*
X131742D01*
X131235Y156969D01*
X130805Y156681D01*
X122320Y148197D01*
X122033Y147767D01*
X122017Y147686D01*
X121276D01*
Y140377D01*
X125239D01*
Y147366D01*
X132291Y154419D01*
X139419D01*
X139926Y154519D01*
X140356Y154807D01*
X146104Y160554D01*
X148487D01*
Y165890D01*
X151970Y169374D01*
X152258Y169804D01*
X152297Y170003D01*
X153703D01*
Y175146D01*
D02*
G37*
G36*
X165908Y172175D02*
X163638D01*
Y170003D01*
X165908D01*
Y172175D01*
D02*
G37*
G36*
X162838D02*
X160568D01*
Y170003D01*
X162838D01*
Y172175D01*
D02*
G37*
G36*
X141302Y175934D02*
X132812D01*
Y174294D01*
X132135D01*
X131628Y174193D01*
X131198Y173906D01*
X127487Y170194D01*
X127199Y169764D01*
X127098Y169257D01*
Y169142D01*
X126276D01*
Y161834D01*
X130239D01*
Y169142D01*
X130239Y169142D01*
X130239D01*
X130541Y169499D01*
X132312Y171270D01*
X132812Y171063D01*
Y170003D01*
X141302D01*
Y171643D01*
X142261D01*
Y170003D01*
X147601D01*
Y175146D01*
X142261D01*
Y174294D01*
X141302D01*
Y175934D01*
D02*
G37*
G36*
X140239Y169142D02*
X136276D01*
Y166814D01*
X135239D01*
Y169142D01*
X131276D01*
Y161838D01*
X125819Y156380D01*
X117876D01*
Y157627D01*
X112536D01*
Y152483D01*
X117876D01*
Y153730D01*
X126368D01*
X126875Y153831D01*
X127305Y154118D01*
X134195Y161008D01*
X134482Y161438D01*
X134561Y161834D01*
X135239D01*
Y164163D01*
X136276D01*
Y161834D01*
X140239D01*
Y169142D01*
D02*
G37*
G36*
X256932Y169222D02*
X255350D01*
Y165968D01*
X256932D01*
Y169222D01*
D02*
G37*
G36*
X254551D02*
X252969D01*
Y165968D01*
X254551D01*
Y169222D01*
D02*
G37*
G36*
X125239Y169142D02*
X123658D01*
Y165888D01*
X125239D01*
Y169142D01*
D02*
G37*
G36*
X122857D02*
X121276D01*
Y165888D01*
X122857D01*
Y169142D01*
D02*
G37*
G36*
X100062Y174372D02*
X92162D01*
Y161748D01*
X100062D01*
Y166734D01*
X100570D01*
X100742Y166477D01*
X101463Y165996D01*
X102313Y165827D01*
X103162Y165996D01*
X103883Y166477D01*
X104364Y167198D01*
X104533Y168047D01*
X104364Y168897D01*
X103883Y169617D01*
X103162Y170099D01*
X102313Y170268D01*
X101463Y170099D01*
X100742Y169617D01*
X100587Y169385D01*
X100062D01*
Y174372D01*
D02*
G37*
G36*
X125239Y165088D02*
X123658D01*
Y161834D01*
X125239D01*
Y165088D01*
D02*
G37*
G36*
X122857D02*
X121276D01*
Y161834D01*
X122857D01*
Y165088D01*
D02*
G37*
G36*
X143569Y229397D02*
X142435Y229247D01*
X141378Y228810D01*
X140471Y228114D01*
X139775Y227206D01*
X139337Y226150D01*
X139188Y225016D01*
X139337Y223882D01*
X139775Y222825D01*
X140471Y221918D01*
X141378Y221222D01*
X142243Y220863D01*
Y195062D01*
X121352D01*
X120845Y194961D01*
X120415Y194674D01*
X115942Y190201D01*
X115655Y189771D01*
X115554Y189264D01*
Y187548D01*
X114209D01*
Y182405D01*
X119550D01*
Y187548D01*
X118205D01*
Y188715D01*
X121901Y192411D01*
X174189D01*
X180049Y186551D01*
X180479Y186264D01*
X180986Y186163D01*
X213622D01*
X237793Y161992D01*
X238223Y161705D01*
X238730Y161604D01*
X257136D01*
X257643Y161705D01*
X258073Y161992D01*
X260888Y164807D01*
X261175Y165237D01*
X261276Y165744D01*
Y165968D01*
X261932D01*
Y173276D01*
X257969D01*
Y165968D01*
X257969Y165968D01*
X257969D01*
X257838Y165506D01*
X256587Y164255D01*
X239279D01*
X215108Y188426D01*
X214678Y188713D01*
X214171Y188814D01*
X181535D01*
X175676Y194674D01*
X175246Y194961D01*
X174739Y195062D01*
X144894D01*
Y220863D01*
X145759Y221222D01*
X146666Y221918D01*
X147363Y222825D01*
X147800Y223882D01*
X147950Y225016D01*
X147800Y226150D01*
X147363Y227206D01*
X146666Y228114D01*
X145759Y228810D01*
X144702Y229247D01*
X143569Y229397D01*
D02*
G37*
G36*
X159806Y175146D02*
X154465D01*
Y170003D01*
X155810D01*
Y169044D01*
X154170D01*
Y160554D01*
X160101D01*
Y169044D01*
X158461D01*
Y170003D01*
X159806D01*
Y175146D01*
D02*
G37*
G36*
X115206Y168060D02*
X114357Y167891D01*
X113636Y167409D01*
X113155Y166689D01*
X112986Y165839D01*
X113155Y164989D01*
X113636Y164269D01*
X113696Y164229D01*
X113544Y163729D01*
X112536D01*
Y158586D01*
X117876D01*
Y163729D01*
X116868D01*
X116717Y164229D01*
X116777Y164269D01*
X117258Y164989D01*
X117427Y165839D01*
X117258Y166689D01*
X116777Y167409D01*
X116056Y167891D01*
X115206Y168060D01*
D02*
G37*
G36*
X214530Y162646D02*
X206040D01*
Y156716D01*
X214530D01*
Y157642D01*
X219930D01*
X220473Y157279D01*
X221468Y157081D01*
X222463Y157279D01*
X223306Y157843D01*
X223870Y158686D01*
X224068Y159681D01*
X223870Y160676D01*
X223306Y161520D01*
X222463Y162083D01*
X221468Y162281D01*
X220473Y162083D01*
X219930Y161720D01*
X214530D01*
Y162646D01*
D02*
G37*
G36*
X283821Y178296D02*
X278678D01*
Y172956D01*
X280089D01*
X280312Y172622D01*
X284387Y168547D01*
Y156308D01*
X292286D01*
Y170506D01*
X286177D01*
X284098Y172585D01*
X283821Y172956D01*
X283821D01*
X283821Y172956D01*
Y178296D01*
D02*
G37*
G36*
X147601Y152706D02*
X145331D01*
Y150534D01*
X147601D01*
Y152706D01*
D02*
G37*
G36*
X144531D02*
X142261D01*
Y150534D01*
X144531D01*
Y152706D01*
D02*
G37*
G36*
X266932Y151820D02*
X262969D01*
Y150205D01*
X261932D01*
Y151820D01*
X257969D01*
Y148457D01*
X257911Y148165D01*
X257969Y147873D01*
Y144511D01*
X261932D01*
Y146126D01*
X262969D01*
Y144511D01*
X266932D01*
Y147873D01*
X266990Y148165D01*
X266932Y148457D01*
Y151820D01*
D02*
G37*
G36*
X119550Y181446D02*
X114209D01*
Y176302D01*
X115554D01*
Y175056D01*
X107379Y166882D01*
X107092Y166452D01*
X106991Y165944D01*
Y159300D01*
X105745D01*
Y153960D01*
X107779D01*
Y151721D01*
X106434D01*
Y146578D01*
X111774D01*
Y147824D01*
X112536D01*
Y146578D01*
X117876D01*
Y147824D01*
X119039D01*
X119546Y147925D01*
X119976Y148212D01*
X120430Y148666D01*
X120718Y148609D01*
X121568Y148778D01*
X122288Y149259D01*
X122770Y149979D01*
X122939Y150829D01*
X122770Y151679D01*
X122288Y152399D01*
X121568Y152881D01*
X120718Y153050D01*
X119868Y152881D01*
X119148Y152399D01*
X118667Y151679D01*
X118570Y151193D01*
X118011Y150906D01*
X117876Y150971D01*
Y151721D01*
X112536D01*
Y150475D01*
X111774D01*
Y151721D01*
X110429D01*
Y153960D01*
X110888D01*
Y159300D01*
X109642D01*
Y165395D01*
X117817Y173570D01*
X118104Y174000D01*
X118205Y174507D01*
Y176302D01*
X119550D01*
Y181446D01*
D02*
G37*
G36*
X194254Y151032D02*
X190410D01*
Y148467D01*
X194254D01*
Y151032D01*
D02*
G37*
G36*
X189610D02*
X185765D01*
Y148467D01*
X189610D01*
Y151032D01*
D02*
G37*
G36*
X147601Y149734D02*
X145331D01*
Y147562D01*
X147601D01*
Y149734D01*
D02*
G37*
G36*
X144531D02*
X142261D01*
Y147562D01*
X144531D01*
Y149734D01*
D02*
G37*
G36*
X104786Y159300D02*
X99642D01*
Y153960D01*
X100889D01*
Y153099D01*
X98658D01*
Y147562D01*
X105770D01*
Y153099D01*
X103540D01*
Y153960D01*
X104786D01*
Y159300D01*
D02*
G37*
G36*
X194254Y147667D02*
X190410D01*
Y145101D01*
X194254D01*
Y147667D01*
D02*
G37*
G36*
X189610D02*
X185765D01*
Y145101D01*
X189610D01*
Y147667D01*
D02*
G37*
G36*
X151033Y191612D02*
X150038Y191414D01*
X149195Y190850D01*
X148631Y190007D01*
X148433Y189012D01*
X148631Y188017D01*
X148994Y187474D01*
Y181249D01*
X148363D01*
Y180716D01*
X147601D01*
Y181249D01*
X142261D01*
Y176105D01*
X147601D01*
Y176638D01*
X148363D01*
Y176105D01*
X153703D01*
Y181249D01*
X153072D01*
Y186973D01*
X167708D01*
X178922Y175759D01*
X178922Y175759D01*
X179584Y175317D01*
X180364Y175162D01*
X180364Y175162D01*
X182826D01*
Y173251D01*
X187886D01*
Y162646D01*
X185765D01*
Y156716D01*
X194254D01*
Y157642D01*
X195804D01*
Y156716D01*
X204294D01*
Y162646D01*
X204294Y162646D01*
X204294D01*
X204438Y163100D01*
X206756Y165418D01*
X221926D01*
X240620Y146723D01*
X241282Y146282D01*
X242062Y146126D01*
X252969D01*
Y144511D01*
X256932D01*
Y147873D01*
X256990Y148165D01*
X256932Y148457D01*
Y151820D01*
X252969D01*
Y150205D01*
X242907D01*
X224213Y168899D01*
X223551Y169341D01*
X222771Y169496D01*
X205911D01*
X205131Y169341D01*
X204469Y168899D01*
X198607Y163036D01*
X198346Y162646D01*
X195804D01*
Y161720D01*
X194254D01*
Y162646D01*
X191964D01*
Y173251D01*
X197025D01*
Y181150D01*
X182826D01*
Y179240D01*
X181209D01*
X169995Y190454D01*
X169333Y190896D01*
X168553Y191051D01*
X152571D01*
X152028Y191414D01*
X151033Y191612D01*
D02*
G37*
G36*
X292286Y150653D02*
X288736D01*
Y143954D01*
X292286D01*
Y150653D01*
D02*
G37*
G36*
X287936D02*
X284387D01*
Y143954D01*
X287936D01*
Y150653D01*
D02*
G37*
G36*
X266400Y143749D02*
X264228D01*
Y141479D01*
X266400D01*
Y143749D01*
D02*
G37*
G36*
X263428D02*
X261257D01*
Y141479D01*
X263428D01*
Y143749D01*
D02*
G37*
G36*
X130239Y147686D02*
X126276D01*
Y140377D01*
X126276Y140377D01*
X126276D01*
X126121Y139931D01*
X124460Y138270D01*
X119987D01*
X118153Y140105D01*
X117876Y140476D01*
X117876D01*
X117876Y140476D01*
Y145619D01*
X112536D01*
Y144373D01*
X111774D01*
Y145619D01*
X106434D01*
Y144373D01*
X105770D01*
Y145816D01*
X98658D01*
Y144373D01*
X97995D01*
Y145619D01*
X92654D01*
Y140476D01*
X97995D01*
Y141722D01*
X98658D01*
Y140279D01*
X105770D01*
Y141722D01*
X106434D01*
Y140476D01*
X111774D01*
Y141722D01*
X112536D01*
Y140476D01*
X114111D01*
X114269Y140240D01*
X118501Y136008D01*
X118931Y135720D01*
X119438Y135619D01*
X125010D01*
X125517Y135720D01*
X125947Y136008D01*
X129195Y139256D01*
X129482Y139686D01*
X129583Y140193D01*
Y140377D01*
X130239D01*
Y147686D01*
D02*
G37*
G36*
X133257Y153050D02*
X132408Y152881D01*
X131687Y152399D01*
X131206Y151679D01*
X131037Y150829D01*
X131206Y149979D01*
X131687Y149259D01*
X131932Y149095D01*
Y147686D01*
X131276D01*
Y140377D01*
X135239D01*
Y147686D01*
X134583D01*
Y149095D01*
X134828Y149259D01*
X135309Y149979D01*
X135478Y150829D01*
X135309Y151679D01*
X134828Y152399D01*
X134107Y152881D01*
X133257Y153050D01*
D02*
G37*
G36*
X266400Y140679D02*
X264228D01*
Y138409D01*
X266400D01*
Y140679D01*
D02*
G37*
G36*
X263428D02*
X261257D01*
Y138409D01*
X263428D01*
Y140679D01*
D02*
G37*
G36*
X292286Y143154D02*
X288736D01*
Y136454D01*
X292286D01*
Y143154D01*
D02*
G37*
G36*
X287936D02*
X284387D01*
Y136454D01*
X287936D01*
Y143154D01*
D02*
G37*
G36*
X271932Y151820D02*
X267969D01*
Y148457D01*
X267911Y148165D01*
Y143749D01*
X267359D01*
Y138521D01*
X261719Y132882D01*
X217370D01*
Y134792D01*
X212310D01*
Y145101D01*
X214530D01*
Y151032D01*
X206040D01*
Y150106D01*
X204294D01*
Y151032D01*
X195804D01*
Y145101D01*
X195804Y145101D01*
X195804D01*
X195616Y144675D01*
X192680Y141740D01*
X184885D01*
X181151Y145474D01*
X180490Y145915D01*
X179710Y146071D01*
X147601D01*
Y146603D01*
X142261D01*
Y146071D01*
X140239D01*
Y147686D01*
X136276D01*
Y144324D01*
X136218Y144032D01*
X136276Y143739D01*
Y140377D01*
X140239D01*
Y141992D01*
X142261D01*
Y141460D01*
X147601D01*
Y141992D01*
X178865D01*
X182598Y138259D01*
X183260Y137817D01*
X184040Y137662D01*
X193525D01*
X194306Y137817D01*
X194967Y138259D01*
X201394Y144686D01*
X201672Y145101D01*
X204294D01*
Y146028D01*
X206040D01*
Y145101D01*
X208232D01*
Y134792D01*
X203172D01*
Y126893D01*
X217370D01*
Y128803D01*
X262564D01*
X263345Y128958D01*
X264006Y129401D01*
X271373Y136767D01*
X271815Y137429D01*
X271970Y138209D01*
Y138409D01*
X272502D01*
Y143749D01*
X271990D01*
Y148165D01*
X271932Y148457D01*
Y151820D01*
D02*
G37*
G36*
X197517Y134792D02*
X190817D01*
Y131243D01*
X197517D01*
Y134792D01*
D02*
G37*
G36*
X190017D02*
X183318D01*
Y131243D01*
X190017D01*
Y134792D01*
D02*
G37*
G36*
X197517Y130443D02*
X190817D01*
Y126893D01*
X197517D01*
Y130443D01*
D02*
G37*
G36*
X190017D02*
X183318D01*
Y126893D01*
X190017D01*
Y130443D01*
D02*
G37*
G36*
X171309Y140543D02*
X170459Y140374D01*
X169738Y139893D01*
X169257Y139173D01*
X169088Y138323D01*
X169257Y137473D01*
X169738Y136753D01*
X169983Y136589D01*
Y125212D01*
X168835Y124064D01*
X166178D01*
Y118724D01*
X170140D01*
Y121620D01*
X172246Y123725D01*
X172533Y124155D01*
X172634Y124663D01*
Y136589D01*
X172879Y136753D01*
X173360Y137473D01*
X173529Y138323D01*
X173360Y139173D01*
X172879Y139893D01*
X172159Y140374D01*
X171309Y140543D01*
D02*
G37*
G36*
X230180Y121728D02*
X226630D01*
Y116407D01*
X230180D01*
Y121728D01*
D02*
G37*
G36*
X225830D02*
X222280D01*
Y116407D01*
X225830D01*
Y121728D01*
D02*
G37*
G36*
X178199Y138378D02*
X177349Y138209D01*
X176628Y137728D01*
X176147Y137007D01*
X175978Y136158D01*
X176147Y135308D01*
X176628Y134587D01*
X176873Y134424D01*
Y120816D01*
X175528D01*
Y115673D01*
X180868D01*
Y120816D01*
X179524D01*
Y134424D01*
X179769Y134587D01*
X180250Y135308D01*
X180419Y136158D01*
X180250Y137007D01*
X179769Y137728D01*
X179048Y138209D01*
X178199Y138378D01*
D02*
G37*
G36*
X250154Y115593D02*
X248572D01*
Y113323D01*
X250154D01*
Y115593D01*
D02*
G37*
G36*
X247773D02*
X246191D01*
Y113323D01*
X247773D01*
Y115593D01*
D02*
G37*
G36*
X173880Y114812D02*
X172299D01*
Y112542D01*
X173880D01*
Y114812D01*
D02*
G37*
G36*
X171499D02*
X169918D01*
Y112542D01*
X171499D01*
Y114812D01*
D02*
G37*
G36*
X230180Y115607D02*
X226630D01*
Y110286D01*
X230180D01*
Y115607D01*
D02*
G37*
G36*
X225830D02*
X222280D01*
Y110286D01*
X225830D01*
Y115607D01*
D02*
G37*
G36*
X250154Y112523D02*
X248572D01*
Y110253D01*
X250154D01*
Y112523D01*
D02*
G37*
G36*
X247773D02*
X246191D01*
Y110253D01*
X247773D01*
Y112523D01*
D02*
G37*
G36*
X287444Y113329D02*
X282123D01*
Y109780D01*
X287444D01*
Y113329D01*
D02*
G37*
G36*
X281323D02*
X276002D01*
Y109780D01*
X281323D01*
Y113329D01*
D02*
G37*
G36*
X173880Y111742D02*
X172299D01*
Y109472D01*
X173880D01*
Y111742D01*
D02*
G37*
G36*
X171499D02*
X169918D01*
Y109472D01*
X171499D01*
Y111742D01*
D02*
G37*
G36*
X260685Y110770D02*
X258415D01*
Y108598D01*
X260685D01*
Y110770D01*
D02*
G37*
G36*
X241000D02*
X238730D01*
Y108598D01*
X241000D01*
Y110770D01*
D02*
G37*
G36*
X237930D02*
X235660D01*
Y108598D01*
X237930D01*
Y110770D01*
D02*
G37*
G36*
X257615D02*
X255345D01*
Y108598D01*
X257615D01*
Y110770D01*
D02*
G37*
G36*
X260685Y107799D02*
X258415D01*
Y105627D01*
X260685D01*
Y107799D01*
D02*
G37*
G36*
X257615D02*
X255345D01*
Y105627D01*
X257615D01*
Y107799D01*
D02*
G37*
G36*
X241000D02*
X238730D01*
Y105627D01*
X241000D01*
Y107799D01*
D02*
G37*
G36*
X237930D02*
X235660D01*
Y105627D01*
X237930D01*
Y107799D01*
D02*
G37*
G36*
X287444Y108980D02*
X282123D01*
Y105430D01*
X287444D01*
Y108980D01*
D02*
G37*
G36*
X281323D02*
X276002D01*
Y105430D01*
X281323D01*
Y108980D01*
D02*
G37*
G36*
X256643Y127242D02*
X255648Y127044D01*
X254805Y126480D01*
X254241Y125637D01*
X254043Y124642D01*
X254241Y123647D01*
X254805Y122803D01*
X255648Y122240D01*
X256289Y122112D01*
X264610Y113791D01*
X264419Y113329D01*
X262051D01*
Y105677D01*
X261162Y104788D01*
X260685Y104668D01*
Y104668D01*
X260685Y104668D01*
X255345D01*
Y104135D01*
X253894D01*
Y104766D01*
X249932D01*
Y102388D01*
X249873Y102096D01*
X249932Y101804D01*
Y99426D01*
X253894D01*
Y100057D01*
X255345D01*
Y99524D01*
X260685D01*
Y100057D01*
X261353D01*
X262134Y100212D01*
X262795Y100654D01*
X267571Y105430D01*
X273493D01*
Y113329D01*
X269811D01*
Y113513D01*
X269656Y114294D01*
X269214Y114955D01*
X259173Y124996D01*
X259045Y125637D01*
X258482Y126480D01*
X257638Y127044D01*
X256643Y127242D01*
D02*
G37*
G36*
X230180Y107777D02*
X222280D01*
Y104095D01*
X221019D01*
X218617Y106497D01*
X217955Y106939D01*
X217175Y107094D01*
X214530D01*
Y107627D01*
X209190D01*
Y107114D01*
X204084D01*
X203792Y107056D01*
X199741D01*
Y103094D01*
X203792D01*
X204084Y103036D01*
X209190D01*
Y102483D01*
X214530D01*
Y103016D01*
X216330D01*
X218732Y100614D01*
X219394Y100172D01*
X220174Y100017D01*
X222280D01*
Y96335D01*
X230180D01*
Y100057D01*
X235660D01*
Y99524D01*
X241000D01*
Y100057D01*
X242451D01*
Y99426D01*
X246413D01*
Y101804D01*
X246472Y102096D01*
X246413Y102388D01*
Y104766D01*
X242451D01*
Y104135D01*
X241000D01*
Y104668D01*
X235660D01*
Y104135D01*
X230180D01*
Y107777D01*
D02*
G37*
G36*
X166400Y114812D02*
X162438D01*
Y109472D01*
X162995D01*
Y108808D01*
X161651D01*
Y103665D01*
X166991D01*
Y108808D01*
X165646D01*
Y109472D01*
X166400D01*
Y114812D01*
D02*
G37*
G36*
X214530Y101524D02*
X212260D01*
Y99353D01*
X214530D01*
Y101524D01*
D02*
G37*
G36*
X211460D02*
X209190D01*
Y99353D01*
X211460D01*
Y101524D01*
D02*
G37*
G36*
X180868Y114713D02*
X175528D01*
Y109570D01*
X180667D01*
X190251Y99986D01*
X188283Y98019D01*
X187996Y97589D01*
X187895Y97081D01*
Y81576D01*
X183206Y76887D01*
X182919Y76457D01*
X182818Y75950D01*
Y73471D01*
X182076Y73163D01*
X181219Y72506D01*
X180562Y71650D01*
X180149Y70652D01*
X180008Y69582D01*
X180149Y68512D01*
X180562Y67514D01*
X181219Y66658D01*
X182076Y66001D01*
X183073Y65588D01*
X184143Y65447D01*
X185214Y65588D01*
X186211Y66001D01*
X187067Y66658D01*
X187725Y67514D01*
X188138Y68512D01*
X188279Y69582D01*
X188138Y70652D01*
X187725Y71650D01*
X187067Y72506D01*
X186211Y73163D01*
X185469Y73471D01*
Y75401D01*
X190158Y80090D01*
X190445Y80520D01*
X190546Y81027D01*
Y96532D01*
X192822Y98808D01*
X199741D01*
Y98094D01*
X208428D01*
Y102056D01*
X199741D01*
Y101459D01*
X192527D01*
X180907Y113079D01*
X180868Y113105D01*
Y114713D01*
D02*
G37*
G36*
X166991Y102706D02*
X161651D01*
Y97562D01*
X166991D01*
Y98749D01*
X171395D01*
Y98094D01*
X180081D01*
Y102056D01*
X171395D01*
Y101400D01*
X166991D01*
Y102706D01*
D02*
G37*
G36*
X214530Y98553D02*
X212260D01*
Y96381D01*
X214530D01*
Y98553D01*
D02*
G37*
G36*
X211460D02*
X209190D01*
Y96381D01*
X211460D01*
Y98553D01*
D02*
G37*
G36*
X180081Y97056D02*
X171395D01*
Y96400D01*
X154564D01*
X154057Y96299D01*
X153627Y96012D01*
X134434Y76820D01*
X133843Y77064D01*
X132851Y77195D01*
X131859Y77064D01*
X130935Y76682D01*
X130141Y76072D01*
X129532Y75279D01*
X129149Y74354D01*
X129018Y73362D01*
X129149Y72370D01*
X129532Y71446D01*
X130141Y70652D01*
X130935Y70043D01*
X131859Y69660D01*
X132851Y69529D01*
X133843Y69660D01*
X134768Y70043D01*
X135561Y70652D01*
X136170Y71446D01*
X136553Y72370D01*
X136684Y73362D01*
X136553Y74354D01*
X136309Y74945D01*
X155113Y93749D01*
X171395D01*
Y93094D01*
X180081D01*
Y97056D01*
D02*
G37*
G36*
Y92056D02*
X176138D01*
Y90475D01*
X180081D01*
Y92056D01*
D02*
G37*
G36*
X175338D02*
X171395D01*
Y90475D01*
X175338D01*
Y92056D01*
D02*
G37*
G36*
X180081Y89675D02*
X176138D01*
Y88094D01*
X180081D01*
Y89675D01*
D02*
G37*
G36*
X175338D02*
X171395D01*
Y88094D01*
X175338D01*
Y89675D01*
D02*
G37*
G36*
X208428Y97056D02*
X199741D01*
Y96394D01*
X199561Y96359D01*
X199131Y96071D01*
X193206Y90146D01*
X192919Y89716D01*
X192818Y89209D01*
Y73471D01*
X192076Y73163D01*
X191219Y72506D01*
X190562Y71650D01*
X190149Y70652D01*
X190008Y69582D01*
X190149Y68512D01*
X190562Y67514D01*
X191219Y66658D01*
X192076Y66001D01*
X193073Y65588D01*
X194143Y65447D01*
X195214Y65588D01*
X196211Y66001D01*
X197067Y66658D01*
X197725Y67514D01*
X198138Y68512D01*
X198279Y69582D01*
X198138Y70652D01*
X197725Y71650D01*
X197067Y72506D01*
X196211Y73163D01*
X195469Y73471D01*
Y88660D01*
X199903Y93094D01*
X208387D01*
X212343Y89138D01*
X212773Y88850D01*
X213280Y88749D01*
X213593D01*
Y85830D01*
X219524D01*
Y94320D01*
X213593D01*
Y92290D01*
X213131Y92098D01*
X209869Y95361D01*
X209438Y95648D01*
X208931Y95749D01*
X208428D01*
Y97056D01*
D02*
G37*
G36*
X231138Y94320D02*
X225207D01*
Y85830D01*
X231138D01*
Y88749D01*
X251783D01*
X261355Y79177D01*
Y74728D01*
X267679D01*
Y81052D01*
X263230D01*
X253270Y91012D01*
X252840Y91299D01*
X252332Y91400D01*
X231138D01*
Y94320D01*
D02*
G37*
G36*
X143251Y77142D02*
Y73762D01*
X146631D01*
X146553Y74354D01*
X146170Y75279D01*
X145561Y76072D01*
X144768Y76682D01*
X143843Y77064D01*
X143251Y77142D01*
D02*
G37*
G36*
X142451D02*
X141859Y77064D01*
X140935Y76682D01*
X140141Y76072D01*
X139532Y75279D01*
X139149Y74354D01*
X139071Y73762D01*
X142451D01*
Y77142D01*
D02*
G37*
G36*
X289353Y77142D02*
Y73762D01*
X292734D01*
X292655Y74354D01*
X292273Y75279D01*
X291664Y76072D01*
X290870Y76682D01*
X289945Y77064D01*
X289353Y77142D01*
D02*
G37*
G36*
X288553D02*
X287961Y77064D01*
X287037Y76682D01*
X286243Y76072D01*
X285634Y75279D01*
X285251Y74354D01*
X285173Y73762D01*
X288553D01*
Y77142D01*
D02*
G37*
G36*
X227104Y73705D02*
Y70022D01*
X230787D01*
X230698Y70692D01*
X230285Y71690D01*
X229628Y72546D01*
X228772Y73203D01*
X227774Y73616D01*
X227104Y73705D01*
D02*
G37*
G36*
X226304D02*
X225634Y73616D01*
X224636Y73203D01*
X223780Y72546D01*
X223123Y71690D01*
X222709Y70692D01*
X222621Y70022D01*
X226304D01*
Y73705D01*
D02*
G37*
G36*
X146631Y72962D02*
X143251D01*
Y69582D01*
X143843Y69660D01*
X144768Y70043D01*
X145561Y70652D01*
X146170Y71446D01*
X146553Y72370D01*
X146631Y72962D01*
D02*
G37*
G36*
X142451D02*
X139071D01*
X139149Y72370D01*
X139532Y71446D01*
X140141Y70652D01*
X140935Y70043D01*
X141859Y69660D01*
X142451Y69582D01*
Y72962D01*
D02*
G37*
G36*
X292734Y72962D02*
X289353D01*
Y69582D01*
X289945Y69660D01*
X290870Y70043D01*
X291664Y70652D01*
X292273Y71446D01*
X292655Y72370D01*
X292734Y72962D01*
D02*
G37*
G36*
X288553D02*
X285173D01*
X285251Y72370D01*
X285634Y71446D01*
X286243Y70652D01*
X287037Y70043D01*
X287961Y69660D01*
X288553Y69582D01*
Y72962D01*
D02*
G37*
G36*
X244517Y81079D02*
X243692Y80970D01*
X242923Y80652D01*
X242262Y80145D01*
X241755Y79484D01*
X241437Y78715D01*
X241328Y77890D01*
X241437Y77064D01*
X241755Y76295D01*
X242262Y75635D01*
X242923Y75128D01*
X243692Y74809D01*
X244517Y74700D01*
X245343Y74809D01*
X245612Y74921D01*
X251548Y68984D01*
X251437Y68715D01*
X251328Y67890D01*
X251437Y67064D01*
X251755Y66295D01*
X252262Y65635D01*
X252923Y65128D01*
X253692Y64809D01*
X254517Y64701D01*
X255343Y64809D01*
X256112Y65128D01*
X256773Y65635D01*
X257279Y66295D01*
X257391Y66564D01*
X273481D01*
X273988Y66665D01*
X274418Y66953D01*
X277370Y69905D01*
X277961Y69660D01*
X278953Y69529D01*
X279945Y69660D01*
X280870Y70043D01*
X281663Y70652D01*
X282273Y71446D01*
X282656Y72370D01*
X282786Y73362D01*
X282656Y74354D01*
X282273Y75279D01*
X281663Y76072D01*
X280870Y76682D01*
X279945Y77064D01*
X278953Y77195D01*
X277961Y77064D01*
X277037Y76682D01*
X276243Y76072D01*
X275634Y75279D01*
X275251Y74354D01*
X275121Y73362D01*
X275251Y72370D01*
X275496Y71779D01*
X272932Y69215D01*
X257391D01*
X257279Y69484D01*
X256773Y70145D01*
X256112Y70652D01*
X255343Y70970D01*
X254517Y71079D01*
X253692Y70970D01*
X253423Y70859D01*
X247486Y76795D01*
X247598Y77064D01*
X247707Y77890D01*
X247598Y78715D01*
X247279Y79484D01*
X246773Y80145D01*
X246112Y80652D01*
X245343Y80970D01*
X244517Y81079D01*
D02*
G37*
G36*
X230787Y69222D02*
X227104D01*
Y65539D01*
X227774Y65628D01*
X228772Y66041D01*
X229628Y66698D01*
X230285Y67554D01*
X230698Y68552D01*
X230787Y69222D01*
D02*
G37*
G36*
X226304D02*
X222621D01*
X222709Y68552D01*
X223123Y67554D01*
X223780Y66698D01*
X224636Y66041D01*
X225634Y65628D01*
X226304Y65539D01*
Y69222D01*
D02*
G37*
G36*
X208428Y92056D02*
X199741D01*
Y88094D01*
X202818D01*
Y73471D01*
X202076Y73163D01*
X201219Y72506D01*
X200562Y71650D01*
X200149Y70652D01*
X200008Y69582D01*
X200149Y68512D01*
X200562Y67514D01*
X201219Y66658D01*
X202076Y66001D01*
X203073Y65588D01*
X204143Y65447D01*
X205214Y65588D01*
X206211Y66001D01*
X207067Y66658D01*
X207725Y67514D01*
X208032Y68257D01*
X212832D01*
X213123Y67554D01*
X213780Y66698D01*
X214636Y66041D01*
X215634Y65628D01*
X216704Y65487D01*
X217774Y65628D01*
X218772Y66041D01*
X219628Y66698D01*
X220285Y67554D01*
X220698Y68552D01*
X220839Y69622D01*
X220698Y70692D01*
X220285Y71690D01*
X219628Y72546D01*
X218772Y73203D01*
X217774Y73616D01*
X216704Y73757D01*
X215634Y73616D01*
X214636Y73203D01*
X213780Y72546D01*
X213123Y71690D01*
X212799Y70907D01*
X208032D01*
X207725Y71650D01*
X207067Y72506D01*
X206211Y73163D01*
X205469Y73471D01*
Y88094D01*
X208428D01*
Y92056D01*
D02*
G37*
G36*
X180081Y107056D02*
X171395D01*
Y103094D01*
X179919D01*
X182424Y100589D01*
Y86056D01*
X173206Y76837D01*
X172919Y76407D01*
X172818Y75900D01*
Y73471D01*
X172076Y73163D01*
X171219Y72506D01*
X170562Y71650D01*
X170149Y70652D01*
X170008Y69582D01*
X170149Y68512D01*
X170562Y67514D01*
X171219Y66658D01*
X172076Y66001D01*
X173073Y65588D01*
X174143Y65447D01*
X175214Y65588D01*
X176211Y66001D01*
X177067Y66658D01*
X177725Y67514D01*
X178138Y68512D01*
X178279Y69582D01*
X178138Y70652D01*
X177725Y71650D01*
X177067Y72506D01*
X176211Y73163D01*
X175469Y73471D01*
Y75351D01*
X184687Y84569D01*
X184974Y84999D01*
X185075Y85506D01*
Y101138D01*
X184974Y101645D01*
X184687Y102075D01*
X180691Y106071D01*
X180261Y106359D01*
X180081Y106394D01*
Y107056D01*
D02*
G37*
%LPD*%
D10*
X11811Y11811D02*
D03*
X381890D02*
D03*
Y381890D02*
D03*
X11811D02*
D03*
Y11811D02*
D03*
X381890D02*
D03*
Y381890D02*
D03*
X11811Y381890D02*
D03*
D11*
X226230Y102056D02*
D03*
Y116007D02*
D03*
D12*
X267772Y109380D02*
D03*
X281723D02*
D03*
D13*
X288336Y163407D02*
D03*
Y143553D02*
D03*
X230758Y206630D02*
D03*
Y186776D02*
D03*
D14*
X164419Y112142D02*
D03*
X171899D02*
D03*
X168159Y121394D02*
D03*
X248172Y112923D02*
D03*
X251913Y102096D02*
D03*
X244432D02*
D03*
X203887Y206630D02*
D03*
X207628Y195803D02*
D03*
X200147D02*
D03*
D15*
X175738Y105075D02*
D03*
Y100075D02*
D03*
Y95075D02*
D03*
Y90075D02*
D03*
X204084Y105075D02*
D03*
Y100075D02*
D03*
Y95075D02*
D03*
Y90075D02*
D03*
D16*
X164321Y100134D02*
D03*
Y106236D02*
D03*
X178199Y118244D02*
D03*
Y112142D02*
D03*
X211860Y105055D02*
D03*
Y98953D02*
D03*
X238330Y102096D02*
D03*
Y108198D02*
D03*
X258015Y102096D02*
D03*
Y108198D02*
D03*
X110777Y178874D02*
D03*
Y184976D02*
D03*
X116880Y178874D02*
D03*
Y184976D02*
D03*
X123238Y178874D02*
D03*
Y184976D02*
D03*
X129340D02*
D03*
Y178874D02*
D03*
X115206Y161157D02*
D03*
Y155055D02*
D03*
X144931Y172575D02*
D03*
Y178677D02*
D03*
X151033Y172575D02*
D03*
Y178677D02*
D03*
X157135D02*
D03*
Y172575D02*
D03*
X163238D02*
D03*
Y178677D02*
D03*
X144931Y144032D02*
D03*
Y150134D02*
D03*
X213828Y195803D02*
D03*
Y201905D02*
D03*
X115206Y143047D02*
D03*
Y149150D02*
D03*
X109104D02*
D03*
Y143047D02*
D03*
X95324Y149150D02*
D03*
Y143047D02*
D03*
D17*
X216558Y90075D02*
D03*
X228172D02*
D03*
X145521Y164799D02*
D03*
X157135D02*
D03*
X281250Y183402D02*
D03*
X292864D02*
D03*
D18*
X203513Y214701D02*
D03*
X213513D02*
D03*
X203513Y240291D02*
D03*
X213513D02*
D03*
D19*
X166529Y216138D02*
D03*
Y226138D02*
D03*
Y246138D02*
D03*
Y236138D02*
D03*
X194088D02*
D03*
Y246138D02*
D03*
Y226138D02*
D03*
Y216138D02*
D03*
D20*
X96112Y168060D02*
D03*
Y184964D02*
D03*
D21*
X137057Y172968D02*
D03*
Y184583D02*
D03*
X210285Y159681D02*
D03*
Y148067D02*
D03*
X200049Y148067D02*
D03*
Y159681D02*
D03*
X190009Y148067D02*
D03*
Y159681D02*
D03*
D22*
X123258Y144032D02*
D03*
X128258D02*
D03*
X133257D02*
D03*
X138258D02*
D03*
X123258Y165488D02*
D03*
X128258D02*
D03*
X133257D02*
D03*
X138258D02*
D03*
X254950Y148165D02*
D03*
X259950D02*
D03*
X264950D02*
D03*
X269951D02*
D03*
X254950Y169622D02*
D03*
X259950D02*
D03*
X264950D02*
D03*
X269951D02*
D03*
D23*
X210271Y130842D02*
D03*
X190417D02*
D03*
X189925Y177201D02*
D03*
X209779D02*
D03*
D24*
X194045Y195803D02*
D03*
X187943D02*
D03*
X255167Y216965D02*
D03*
X249065D02*
D03*
X281250Y191177D02*
D03*
X287352D02*
D03*
X287352Y175626D02*
D03*
X281250D02*
D03*
X264320Y189602D02*
D03*
X270423D02*
D03*
X264320Y183411D02*
D03*
X270423D02*
D03*
X270435Y177210D02*
D03*
X264333D02*
D03*
X269931Y141079D02*
D03*
X263828D02*
D03*
X108317Y156630D02*
D03*
X102214D02*
D03*
D25*
X184990Y207614D02*
D03*
X194045D02*
D03*
D26*
X230758Y220213D02*
D03*
Y234976D02*
D03*
D27*
X287339Y206236D02*
D03*
X270436D02*
D03*
D28*
X247899Y209976D02*
D03*
X255182D02*
D03*
D29*
X102214Y150331D02*
D03*
Y143047D02*
D03*
D30*
X261353Y102096D02*
X267772Y108514D01*
X258015Y102096D02*
X261353D01*
X267772Y108514D02*
Y109380D01*
X229480Y220309D02*
X230758D01*
X267772Y109380D02*
Y113513D01*
X256643Y124642D02*
X267772Y113513D01*
X221112Y228677D02*
X229480Y220309D01*
X221112Y228677D02*
Y251020D01*
X230758Y205093D02*
Y206630D01*
X221468Y195803D02*
X230758Y205093D01*
X199952Y146128D02*
Y148067D01*
X184040Y139701D02*
X193525D01*
X179710Y144032D02*
X184040Y139701D01*
X144931Y144032D02*
X179710D01*
X193525Y139701D02*
X199952Y146128D01*
X205911Y167457D02*
X222771D01*
X200049Y161594D02*
X205911Y167457D01*
X200049Y159681D02*
Y161594D01*
X180364Y177201D02*
X189925D01*
X168553Y189012D02*
X180364Y177201D01*
X151033Y189012D02*
X168553D01*
X210271Y130842D02*
X262564D01*
X269931Y138209D01*
Y141079D01*
X269951Y141098D01*
Y148165D01*
X242062D02*
X254950D01*
X220174Y102056D02*
X226230D01*
X217175Y105055D02*
X220174Y102056D01*
X211860Y105055D02*
X217175D01*
X211840Y105075D02*
X211860Y105055D01*
X204084Y105075D02*
X211840D01*
X226230Y102056D02*
X226270Y102096D01*
X238330D01*
X244432D01*
X251913D02*
X258015D01*
X194045Y195803D02*
X200147D01*
X207628D02*
X213828D01*
X221468D01*
X221468Y159681D02*
X221468Y159681D01*
X210285Y159681D02*
X221468D01*
X259950Y148165D02*
X264950D01*
X222771Y167457D02*
X242062Y148165D01*
X190009Y159681D02*
X200049D01*
X189925Y159765D02*
Y177201D01*
X230758Y206630D02*
Y220213D01*
X209399Y262732D02*
X221112Y251020D01*
X209399Y262732D02*
Y298335D01*
X196318Y311416D02*
X209399Y298335D01*
X194045Y207614D02*
Y216113D01*
Y195803D02*
Y207614D01*
X151033Y178677D02*
Y189012D01*
X144931Y178677D02*
X151033D01*
X138258Y144032D02*
X144931D01*
X200049Y148067D02*
X210257D01*
X210271Y130842D02*
Y148053D01*
D31*
X199265Y251315D02*
X201132D01*
X194088Y246138D02*
X199265Y251315D01*
X262477Y183430D02*
X264302D01*
X257824Y188083D02*
X262477Y183430D01*
X257824Y188083D02*
Y200528D01*
X288336Y163407D02*
Y166472D01*
X281250Y173559D02*
X288336Y166472D01*
X281250Y173559D02*
Y175626D01*
X194143Y89209D02*
X200068Y95134D01*
X194143Y69582D02*
Y89209D01*
X200068Y95134D02*
X204084D01*
X189220Y97081D02*
X192125Y99986D01*
X179970Y112142D02*
X192125Y99986D01*
X178199Y112142D02*
X179970D01*
X174557Y105134D02*
X179753D01*
X183750Y85506D02*
Y101138D01*
X179753Y105134D02*
X183750Y101138D01*
X189220Y81027D02*
Y97081D01*
X192273Y100134D02*
X202903D01*
X261306Y217253D02*
X269069Y225016D01*
X261306Y204010D02*
Y217253D01*
X257824Y200528D02*
X261306Y204010D01*
X277804Y213605D02*
Y231138D01*
X257529Y251413D02*
X277804Y231138D01*
X231250Y251413D02*
X257529D01*
X270436Y206236D02*
X277804Y213605D01*
X119039Y149150D02*
X120718Y150829D01*
X115206Y149150D02*
X119039D01*
X108317Y156630D02*
X109104Y155842D01*
Y149150D02*
Y155842D01*
X126368Y155055D02*
X133257Y161945D01*
X115206Y155055D02*
X126368D01*
X133257Y161945D02*
Y165488D01*
X125010Y136945D02*
X128258Y140193D01*
X119438Y136945D02*
X125010D01*
X115206Y141177D02*
X119438Y136945D01*
X115206Y141177D02*
Y143047D01*
X109104D02*
X115206D01*
X102214D02*
X109104D01*
X96604D02*
X102214D01*
X171309Y207614D02*
X184990D01*
X166529Y212393D02*
X171309Y207614D01*
X168099Y121453D02*
X171309Y124663D01*
X166529Y212393D02*
Y216138D01*
X171309Y124663D02*
Y138323D01*
X128424Y169257D02*
X132135Y172968D01*
X128424Y165654D02*
Y169257D01*
X132135Y172968D02*
X137057D01*
X151033Y170311D02*
Y172575D01*
X145521Y164799D02*
X151033Y170311D01*
X145521Y161847D02*
Y164799D01*
X139419Y155744D02*
X145521Y161847D01*
X131742Y155744D02*
X139419D01*
X289069Y225016D02*
X297686Y216398D01*
Y188224D02*
Y216398D01*
X292864Y183402D02*
X297686Y188224D01*
X264333Y177210D02*
X264950Y176593D01*
Y169622D02*
Y176593D01*
X269951Y176750D02*
X270423Y177223D01*
X269951Y169622D02*
Y176750D01*
X131348Y178874D02*
X137057Y184583D01*
X129340Y178874D02*
X131348D01*
X292864Y180197D02*
Y183402D01*
X288293Y175626D02*
X292864Y180197D01*
X287352Y175626D02*
X288293D01*
X157037Y178776D02*
Y183894D01*
Y178776D02*
X157135Y178677D01*
X214171Y187488D02*
X238730Y162929D01*
X180986Y187488D02*
X214171D01*
X174739Y193736D02*
X180986Y187488D01*
X255167Y209991D02*
X255182Y209976D01*
X255167Y209991D02*
Y216965D01*
X249065D02*
X249068Y216968D01*
Y225016D01*
X257136Y162929D02*
X259950Y165744D01*
Y169622D01*
X238730Y162929D02*
X257136D01*
X132851Y73362D02*
X154564Y95075D01*
X216664Y69582D02*
X216704Y69622D01*
X204143Y69582D02*
X216664D01*
X273481Y67890D02*
X278953Y73362D01*
X254517Y67890D02*
X273481D01*
X244517Y77890D02*
X254517Y67890D01*
X252332Y90075D02*
X264517Y77890D01*
X228172Y90075D02*
X252332D01*
X213280D02*
X216558D01*
X208931Y94424D02*
X213280Y90075D01*
X204736Y94424D02*
X208931D01*
X204084Y95075D02*
X204736Y94424D01*
X184143Y75950D02*
X189220Y81027D01*
X184143Y69582D02*
Y75950D01*
X174143Y75900D02*
X183750Y85506D01*
X174143Y69582D02*
Y75900D01*
X204084Y90075D02*
X204143Y90016D01*
Y69582D02*
Y90016D01*
X178199Y118244D02*
Y136748D01*
X178199Y118244D02*
X178199Y118244D01*
Y212634D02*
X186491Y221222D01*
X201132D01*
X203513Y218840D01*
Y214701D02*
Y218840D01*
X168099Y121453D02*
X168159Y121394D01*
X164321Y112043D02*
X164419Y112142D01*
X164321Y106236D02*
Y112043D01*
Y100134D02*
X164380Y100075D01*
X175738D01*
X154564Y95075D02*
X175738D01*
X206040Y247857D02*
Y258205D01*
X203513Y245331D02*
X206040Y247857D01*
X203513Y240291D02*
Y245331D01*
X264302Y183430D02*
X264320Y183411D01*
X203513Y236888D02*
Y240291D01*
X202763Y236138D02*
X203513Y236888D01*
X194088Y236138D02*
X202763D01*
X270423Y206224D02*
X270436Y206236D01*
X270423Y189602D02*
Y206224D01*
X287339Y191190D02*
X287352Y191177D01*
X287339Y191190D02*
Y206236D01*
X281250Y175626D02*
X281262Y175613D01*
X281240Y183411D02*
X281250Y183420D01*
Y191177D01*
X270423Y183411D02*
X281240D01*
X270423Y177223D02*
Y183411D01*
X264320D02*
X264333Y183398D01*
Y177210D02*
Y183398D01*
X166529Y226138D02*
X194088D01*
X109104Y149150D02*
X115206D01*
X123238Y184976D02*
X129340D01*
X157037Y241768D02*
X161407Y246138D01*
X166529D01*
X157135Y178677D02*
X163238D01*
X143569Y193736D02*
X174739D01*
X128258Y140193D02*
Y144032D01*
X143569Y193736D02*
Y225016D01*
X121352Y193736D02*
X143569D01*
X134583Y213113D02*
Y229550D01*
X128395Y206925D02*
X134583Y213113D01*
X122391Y206925D02*
X128395D01*
X141171Y236138D02*
X166529D01*
X134583Y229550D02*
X141171Y236138D01*
X116191Y200724D02*
X122391Y206925D01*
X109760Y271616D02*
X116191Y265186D01*
Y213323D02*
Y265186D01*
X116880Y189264D02*
X121352Y193736D01*
X116880Y184976D02*
Y189264D01*
X123238Y184976D02*
Y189543D01*
X106348Y195692D02*
X110777Y191263D01*
X106348Y195692D02*
Y200724D01*
X110777Y184976D02*
Y191263D01*
X116880Y184976D02*
X116902Y184999D01*
X110765Y184964D02*
X110777Y184976D01*
X96112Y184964D02*
X110765D01*
X95324Y149150D02*
Y153579D01*
X88730Y160173D02*
X95324Y153579D01*
X88730Y160173D02*
Y210177D01*
X103568Y225016D01*
X116880Y174507D02*
Y178874D01*
X108317Y165944D02*
X116880Y174507D01*
X108317Y156630D02*
Y165944D01*
X115206Y161157D02*
Y165839D01*
X102300Y168060D02*
X102313Y168047D01*
X96112Y168060D02*
X102300D01*
X102214Y150331D02*
Y156630D01*
X123258Y147260D02*
X131742Y155744D01*
X123258Y144032D02*
Y147260D01*
X133257Y144032D02*
Y150829D01*
X144537Y172968D02*
X144931Y172575D01*
X137057Y172968D02*
X144537D01*
X157135Y164799D02*
Y172575D01*
X128258Y165488D02*
X128424Y165654D01*
X133257Y165488D02*
X138258D01*
D32*
X312992Y105807D02*
D03*
Y101870D02*
D03*
Y97933D02*
D03*
Y90059D02*
D03*
Y93996D02*
D03*
X312992Y280807D02*
D03*
Y276870D02*
D03*
Y272933D02*
D03*
Y265059D02*
D03*
Y268996D02*
D03*
X79528Y105807D02*
D03*
Y101870D02*
D03*
Y97933D02*
D03*
Y90059D02*
D03*
Y93996D02*
D03*
X79626Y268996D02*
D03*
Y265059D02*
D03*
Y272933D02*
D03*
Y276870D02*
D03*
Y280807D02*
D03*
D33*
X289069Y225016D02*
D03*
X269069D02*
D03*
X249068D02*
D03*
X143569D02*
D03*
X123568D02*
D03*
X103568D02*
D03*
D34*
X226704Y69622D02*
D03*
X216704D02*
D03*
X204143Y69582D02*
D03*
X194143D02*
D03*
X174143D02*
D03*
X184143D02*
D03*
D35*
X196318Y287794D02*
D03*
Y311416D02*
D03*
D36*
X116191Y200724D02*
D03*
X126033D02*
D03*
X106348D02*
D03*
Y213323D02*
D03*
X126033D02*
D03*
X116191D02*
D03*
D37*
X132851Y73362D02*
D03*
X142851D02*
D03*
X278953Y73362D02*
D03*
X288953D02*
D03*
D38*
X244517Y77890D02*
D03*
X254517Y67890D02*
D03*
D39*
X264517Y77890D02*
D03*
D40*
X218980Y296616D02*
D03*
X282877D02*
D03*
X218980Y321616D02*
D03*
X282877D02*
D03*
X218980Y271616D02*
D03*
X282877D02*
D03*
X109760Y296616D02*
D03*
X173659D02*
D03*
X109760Y321616D02*
D03*
X173659D02*
D03*
X109760Y271616D02*
D03*
X173659D02*
D03*
D41*
X160568Y231925D02*
D03*
X187067Y100036D02*
D03*
X218257Y153050D02*
D03*
X216683Y190685D02*
D03*
X174753Y203665D02*
D03*
X204773Y142358D02*
D03*
X262647Y125921D02*
D03*
X182332Y183651D02*
D03*
X174753Y188814D02*
D03*
X167568Y183303D02*
D03*
X174753Y148609D02*
D03*
Y175134D02*
D03*
X100147Y215980D02*
D03*
X145029Y189898D02*
D03*
X270816Y215587D02*
D03*
X285088Y215685D02*
D03*
X217568Y214713D02*
D03*
X128850Y218835D02*
D03*
X258869Y141139D02*
D03*
X190009Y153099D02*
D03*
X203820Y201709D02*
D03*
X157037Y183894D02*
D03*
X238330Y113323D02*
D03*
X275836Y189701D02*
D03*
X199163Y78284D02*
D03*
X171899Y117063D02*
D03*
X258869Y335516D02*
D03*
X158869Y310516D02*
D03*
X108869Y60516D02*
D03*
X133869Y110516D02*
D03*
X137313Y159630D02*
D03*
X233869Y335516D02*
D03*
X183266Y148100D02*
D03*
X83868Y85516D02*
D03*
X182886Y195850D02*
D03*
X83868Y235516D02*
D03*
X108869Y285516D02*
D03*
X283869D02*
D03*
X83868Y160516D02*
D03*
Y135516D02*
D03*
X200010Y130890D02*
D03*
X233869Y60516D02*
D03*
X83868Y285516D02*
D03*
X208869Y85516D02*
D03*
X158869Y260516D02*
D03*
Y85516D02*
D03*
X283869Y260516D02*
D03*
X208869Y110516D02*
D03*
X233869Y310516D02*
D03*
X283869D02*
D03*
X308869Y135516D02*
D03*
X163298Y167602D02*
D03*
X133869Y135516D02*
D03*
X108869Y110516D02*
D03*
X83868Y260516D02*
D03*
X233869D02*
D03*
X133869Y310516D02*
D03*
X308869Y160516D02*
D03*
X213573Y221047D02*
D03*
X308869Y235516D02*
D03*
X83868Y60516D02*
D03*
X213633Y233941D02*
D03*
X208869Y60516D02*
D03*
X83868Y310516D02*
D03*
Y185516D02*
D03*
X183869Y310516D02*
D03*
X83868Y110516D02*
D03*
X183869Y285516D02*
D03*
X133869Y85516D02*
D03*
X108869Y335516D02*
D03*
X283869Y85516D02*
D03*
X83868Y210516D02*
D03*
X308869Y85516D02*
D03*
Y185516D02*
D03*
X258869Y235516D02*
D03*
X208869Y310516D02*
D03*
X108869Y85516D02*
D03*
X308869Y210516D02*
D03*
X258869Y285516D02*
D03*
Y260516D02*
D03*
X213888Y207071D02*
D03*
X183869Y235516D02*
D03*
X308869Y260516D02*
D03*
X190477Y124689D02*
D03*
X133869Y335516D02*
D03*
X208869D02*
D03*
X308869Y60516D02*
D03*
X213633Y246539D02*
D03*
X183869Y60516D02*
D03*
X308869Y310516D02*
D03*
X183869Y335516D02*
D03*
X308869Y285516D02*
D03*
X200342Y177248D02*
D03*
X133869Y235516D02*
D03*
X144991Y155201D02*
D03*
X133869Y260516D02*
D03*
X108869D02*
D03*
X110825Y173953D02*
D03*
X123298Y159630D02*
D03*
X308869Y110516D02*
D03*
X283869Y60516D02*
D03*
X108869Y135516D02*
D03*
X123276Y174000D02*
D03*
X108869Y310516D02*
D03*
X283869Y235516D02*
D03*
X133869Y60516D02*
D03*
Y285516D02*
D03*
X158869Y335516D02*
D03*
X233869Y285516D02*
D03*
X183869Y260516D02*
D03*
X258869Y310516D02*
D03*
X158869Y285516D02*
D03*
Y135516D02*
D03*
X108869Y235516D02*
D03*
X258869Y60516D02*
D03*
X283869Y335516D02*
D03*
X233869Y85516D02*
D03*
X158869Y110516D02*
D03*
Y60516D02*
D03*
X233869Y135516D02*
D03*
X182332Y170311D02*
D03*
X166289Y148609D02*
D03*
X104675Y189898D02*
D03*
X209202Y240291D02*
D03*
Y214713D02*
D03*
X246878Y157122D02*
D03*
X275639Y177223D02*
D03*
X237647Y234976D02*
D03*
X230757Y243244D02*
D03*
X103395Y162535D02*
D03*
X164419Y200528D02*
D03*
X150639Y214405D02*
D03*
X137746Y201020D02*
D03*
X111368Y206827D02*
D03*
X186565Y213484D02*
D03*
X176427Y220213D02*
D03*
X237352Y186776D02*
D03*
X230659Y177004D02*
D03*
X230757Y196492D02*
D03*
X247899Y203874D02*
D03*
X242470Y209991D02*
D03*
X248179Y107811D02*
D03*
Y117850D02*
D03*
X257950Y112923D02*
D03*
X216878Y98953D02*
D03*
X169088Y90075D02*
D03*
X281663Y102791D02*
D03*
X290386Y109380D02*
D03*
X281663Y115882D02*
D03*
X226270Y124445D02*
D03*
X219734Y116007D02*
D03*
X254950Y175724D02*
D03*
X264333Y194622D02*
D03*
X281840Y143553D02*
D03*
X295128D02*
D03*
X288336Y133795D02*
D03*
X209779Y183598D02*
D03*
X171309Y207658D02*
D03*
X178199Y136158D02*
D03*
X171309Y138323D02*
D03*
X178199Y212634D02*
D03*
X206040Y258205D02*
D03*
X231250Y251413D02*
D03*
X201132Y251315D02*
D03*
X157037Y241768D02*
D03*
X123238Y189543D02*
D03*
X115206Y165839D02*
D03*
X102313Y168047D02*
D03*
X133257Y150829D02*
D03*
X120718D02*
D03*
D42*
X256643Y124642D02*
D03*
X221468Y159681D02*
D03*
Y195803D02*
D03*
X151033Y189012D02*
D03*
M02*
