G04*
G04 #@! TF.GenerationSoftware,Altium Limited,Altium Designer,19.1.5 (86)*
G04*
G04 Layer_Color=65535*
%FSLAX25Y25*%
%MOIN*%
G70*
G01*
G75*
%ADD31C,0.01000*%
%ADD43C,0.00394*%
%ADD44C,0.00787*%
%ADD45C,0.00500*%
%ADD46C,0.00591*%
%ADD47C,0.00591*%
%ADD48R,0.02067X0.05315*%
%ADD49R,0.11417X0.02118*%
D31*
X123284Y86718D02*
X152418D01*
X123284Y64080D02*
Y86718D01*
Y64080D02*
X152418D01*
Y86718D01*
X241364Y64131D02*
X267742D01*
X241364D02*
Y91690D01*
X267742Y64131D02*
Y91690D01*
X241364D02*
X267742D01*
X269386Y86718D02*
X298520D01*
X269386Y64080D02*
Y86718D01*
Y64080D02*
X298520D01*
Y86718D01*
X211929Y337364D02*
X228487D01*
Y348978D01*
Y337364D02*
X273370D01*
X228487Y348978D02*
X273370D01*
Y337364D02*
Y348978D01*
Y337364D02*
X289929D01*
Y256262D02*
Y337364D01*
X267660Y256262D02*
X289929D01*
X234196D02*
X267660D01*
Y244451D02*
Y256262D01*
X234196Y244451D02*
X267660D01*
X234196D02*
Y256262D01*
X211929D02*
X234196D01*
X211929D02*
Y337364D01*
X102709D02*
X119269D01*
Y348978D01*
Y337364D02*
X164151D01*
X119269Y348978D02*
X164151D01*
Y337364D02*
Y348978D01*
Y337364D02*
X180710D01*
Y256262D02*
Y337364D01*
X158441Y256262D02*
X180710D01*
X124978D02*
X158441D01*
Y244451D02*
Y256262D01*
X124978Y244451D02*
X158441D01*
X124978D02*
Y256262D01*
X102709D02*
X124978D01*
X102709D02*
Y337364D01*
D43*
X184793Y104661D02*
G03*
X184793Y104661I-1969J0D01*
G01*
X206151Y221590D02*
G03*
X206151Y221590I-1969J0D01*
G01*
X135285Y155646D02*
G03*
X135285Y155646I-1969J0D01*
G01*
X270718Y163224D02*
G03*
X270718Y163224I-1969J0D01*
G01*
X231348Y100567D02*
X234695Y103913D01*
Y117496D01*
X229773Y100567D02*
X231348D01*
X229773Y117496D02*
X234695D01*
X217765D02*
X222687D01*
X221112Y100567D02*
X222687D01*
X217765Y103913D02*
X221112Y100567D01*
X217765Y103913D02*
Y117496D01*
X266283Y104262D02*
X269629Y100915D01*
X283212D01*
X266283Y104262D02*
Y105836D01*
X283212Y100915D02*
Y105836D01*
Y112923D02*
Y117844D01*
X266283Y112923D02*
Y114498D01*
X269629Y117844D01*
X283212D01*
X275344Y140488D02*
Y161748D01*
Y140488D02*
X284836D01*
X291836D02*
X301328D01*
Y161748D01*
X280069Y166472D02*
X284836D01*
X275344Y161748D02*
X280069Y166472D01*
X296604D02*
X301328Y161748D01*
X291836Y166472D02*
X296604D01*
X162254Y114012D02*
Y119524D01*
X174065Y114012D02*
Y119524D01*
X162254D02*
X174065D01*
X162254Y114012D02*
X174065D01*
X179281Y86945D02*
Y108205D01*
X200541Y86945D02*
Y108205D01*
X179281Y86945D02*
X200541D01*
X179281Y108205D02*
X200541D01*
X165994Y99976D02*
Y106276D01*
X162844Y99976D02*
Y106276D01*
Y99976D02*
X165994D01*
X162844Y106276D02*
X165994D01*
X176624Y118342D02*
X179773D01*
X176624Y112043D02*
X179773D01*
X176624D02*
Y118342D01*
X179773Y112043D02*
Y118342D01*
X216066Y86925D02*
Y93224D01*
X228664Y86925D02*
Y93224D01*
X216066D02*
X228664D01*
X216066Y86925D02*
X228664D01*
X210285Y98854D02*
Y105154D01*
X213435Y98854D02*
Y105154D01*
X210285D02*
X213435D01*
X210285Y98854D02*
X213435D01*
X239905Y101998D02*
Y108297D01*
X236755Y101998D02*
Y108297D01*
Y101998D02*
X239905D01*
X236755Y108297D02*
X239905D01*
X242464Y103966D02*
Y111053D01*
X253881Y103966D02*
Y111053D01*
X242464D02*
X253881D01*
X242464Y103966D02*
X253881D01*
X259590Y101998D02*
Y108297D01*
X256440Y101998D02*
Y108297D01*
Y101998D02*
X259590D01*
X256440Y108297D02*
X259590D01*
X198179Y197673D02*
Y204760D01*
X209596Y197673D02*
Y204760D01*
X198179D02*
X209596D01*
X198179Y197673D02*
X209596D01*
X200639Y218047D02*
X216387D01*
X200639Y236945D02*
X216387D01*
Y218047D02*
Y236945D01*
X200639Y218047D02*
Y236945D01*
X167569Y211453D02*
X193159D01*
X167569D02*
Y250823D01*
X193159D01*
Y211453D02*
Y250823D01*
X106348Y172109D02*
Y189825D01*
X99021D02*
X106348D01*
X84694D02*
X92021D01*
X84694Y172109D02*
Y189825D01*
X99064Y168172D02*
X102411D01*
X106348Y172109D01*
X84694D02*
X88631Y168172D01*
X92021D01*
X112503Y181250D02*
Y187549D01*
X109353Y181250D02*
Y187549D01*
Y181250D02*
X112503D01*
X109353Y187549D02*
X112503D01*
X160482Y153243D02*
Y159543D01*
X157332Y153243D02*
Y159543D01*
Y153243D02*
X160482D01*
X157332Y159543D02*
X160482D01*
X126525Y184976D02*
Y191276D01*
X123375Y184976D02*
Y191276D01*
Y184976D02*
X126525D01*
X123375Y191276D02*
X126525D01*
X117273Y184976D02*
Y191276D01*
X120423Y184976D02*
Y191276D01*
X117273D02*
X120423D01*
X117273Y184976D02*
X120423D01*
X130954Y174346D02*
Y180646D01*
X118356Y174346D02*
Y180646D01*
Y174346D02*
X130954D01*
X118356Y180646D02*
X130954D01*
X109353Y170645D02*
X112503D01*
X109353Y164346D02*
X112503D01*
X109353D02*
Y170645D01*
X112503Y164346D02*
Y170645D01*
X121112Y152102D02*
X136860D01*
X121112Y171787D02*
X136860D01*
X121112Y152102D02*
Y171787D01*
X136860Y152102D02*
Y171787D01*
X132627Y184976D02*
Y191276D01*
X129478Y184976D02*
Y191276D01*
Y184976D02*
X132627D01*
X129478Y191276D02*
X132627D01*
X148572Y174642D02*
Y180941D01*
X145423Y174642D02*
Y180941D01*
Y174642D02*
X148572D01*
X145423Y180941D02*
X148572D01*
X157627Y174642D02*
Y180941D01*
X160777Y174642D02*
Y180941D01*
X157627D02*
X160777D01*
X157627Y174642D02*
X160777D01*
X154675D02*
Y180941D01*
X151525Y174642D02*
Y180941D01*
Y174642D02*
X154675D01*
X151525Y180941D02*
X154675D01*
X146505Y163913D02*
Y170213D01*
X159104Y163913D02*
Y170213D01*
X146505D02*
X159104D01*
X146505Y163913D02*
X159104D01*
X118159Y146379D02*
X124458D01*
X118159Y149529D02*
X124458D01*
X118159Y146379D02*
Y149529D01*
X124458Y146379D02*
Y149529D01*
X187352Y143835D02*
X208612D01*
X187352Y134343D02*
Y143835D01*
Y117850D02*
Y127342D01*
Y117850D02*
X208612D01*
X213336Y134343D02*
Y139110D01*
X208612Y143835D02*
X213336Y139110D01*
X208612Y117850D02*
X213336Y122575D01*
Y127342D01*
X207136Y160173D02*
X213435D01*
X207136Y147575D02*
X213435D01*
Y160173D01*
X207136Y147575D02*
Y160173D01*
X196899Y147575D02*
X203199D01*
X196899Y160173D02*
X203199D01*
X196899Y147575D02*
Y160173D01*
X203199Y147575D02*
Y160173D01*
X186860Y147575D02*
X193159D01*
X186860Y160173D02*
X193159D01*
X186860Y147575D02*
Y160173D01*
X193159Y147575D02*
Y160173D01*
X187844Y197378D02*
X194143D01*
X187844Y194228D02*
X194143D01*
Y197378D01*
X187844Y194228D02*
Y197378D01*
X191584Y164209D02*
X212844D01*
Y173701D01*
Y180701D02*
Y190193D01*
X191584D02*
X212844D01*
X186860Y168933D02*
Y173701D01*
Y168933D02*
X191584Y164209D01*
X186860Y185468D02*
X191584Y190193D01*
X186860Y180701D02*
Y185468D01*
X185974Y204957D02*
Y210272D01*
X193061D01*
Y204957D02*
Y210272D01*
X185974Y204957D02*
X193061D01*
X215403Y195705D02*
Y202004D01*
X212254Y195705D02*
Y202004D01*
Y195705D02*
X215403D01*
X212254Y202004D02*
X215403D01*
X217766Y183711D02*
Y204971D01*
Y183711D02*
X227258D01*
X234258D02*
X243750D01*
Y204971D01*
X222490Y209695D02*
X227258D01*
X217766Y204971D02*
X222490Y209695D01*
X239025D02*
X243750Y204971D01*
X234258Y209695D02*
X239025D01*
X225049Y219721D02*
Y235469D01*
X236466Y219721D02*
Y235469D01*
X225049D02*
X236466D01*
X225049Y219721D02*
X236466D01*
X268061Y217063D02*
X285777D01*
X268061Y209736D02*
Y217063D01*
Y195409D02*
Y202736D01*
Y195409D02*
X285777D01*
X289714Y209780D02*
Y213126D01*
X285777Y217063D02*
X289714Y213126D01*
X285777Y195409D02*
X289714Y199346D01*
Y202736D01*
X247603Y204858D02*
Y209582D01*
X255477Y204858D02*
Y209582D01*
X247603Y204858D02*
X255477D01*
X247603Y209582D02*
X255477D01*
X248966Y215783D02*
X255265D01*
X248966Y212634D02*
X255265D01*
Y215783D01*
X248966Y212634D02*
Y215783D01*
X281151Y189602D02*
X287451D01*
X281151Y192752D02*
X287451D01*
X281151Y189602D02*
Y192752D01*
X287451Y189602D02*
Y192752D01*
X280757Y180252D02*
Y186551D01*
X293356Y180252D02*
Y186551D01*
X280757D02*
X293356D01*
X280757Y180252D02*
X293356D01*
X281151Y177201D02*
X287450D01*
X281151Y174051D02*
X287450D01*
Y177201D01*
X281151Y174051D02*
Y177201D01*
X264222Y188028D02*
X270521D01*
X264222Y191177D02*
X270521D01*
X264222Y188028D02*
Y191177D01*
X270521Y188028D02*
Y191177D01*
X264222Y181836D02*
X270521D01*
X264222Y184986D02*
X270521D01*
X264222Y181836D02*
Y184986D01*
X270521Y181836D02*
Y184986D01*
X264235Y178785D02*
X270534D01*
X264235Y175635D02*
X270534D01*
Y178785D01*
X264235Y175635D02*
Y178785D01*
X263730Y142654D02*
X270029D01*
X263730Y139504D02*
X270029D01*
Y142654D01*
X263730Y139504D02*
Y142654D01*
X272293Y151020D02*
Y166768D01*
X252608Y151020D02*
Y166768D01*
Y151020D02*
X272293D01*
X252608Y166768D02*
X272293D01*
X152903Y145606D02*
Y148756D01*
X146604Y145606D02*
Y148756D01*
X152903D01*
X146604Y145606D02*
X152903D01*
X151230Y159543D02*
X154379D01*
X151230Y153243D02*
X154379D01*
X151230D02*
Y159543D01*
X154379Y153243D02*
Y159543D01*
X145127Y153243D02*
X148277D01*
X145127Y159543D02*
X148277D01*
Y153243D02*
Y159543D01*
X145127Y153243D02*
Y159543D01*
X132892Y149543D02*
X140766D01*
X132892Y144819D02*
X140766D01*
Y149543D01*
X132892Y144819D02*
Y149543D01*
X88238Y210961D02*
X91387D01*
X88238Y204661D02*
X91387D01*
X88238D02*
Y210961D01*
X91387Y204661D02*
Y210961D01*
D44*
X142969Y64307D02*
Y66275D01*
X132733D02*
X142969D01*
X132733Y64307D02*
Y66275D01*
X289071Y64307D02*
Y66275D01*
X278835D02*
X289071D01*
X278835Y64307D02*
Y66275D01*
D45*
X209143Y64582D02*
Y74582D01*
X169143Y64582D02*
Y74581D01*
Y74582D02*
X209143D01*
X169143Y64582D02*
X209143D01*
X214204Y64622D02*
X219204D01*
X214204Y74622D02*
X219204D01*
X224204Y64622D02*
X229204D01*
X224204Y74622D02*
X229204D01*
X211704Y67122D02*
Y72122D01*
X231704Y67122D02*
Y72122D01*
X211704Y67122D02*
X214204Y64622D01*
X211704Y72122D02*
X214204Y74622D01*
X221704Y67122D02*
X224204Y64622D01*
X229204D02*
X231704Y67122D01*
X219204Y74622D02*
X221704Y72122D01*
X229204Y74622D02*
X231704Y72122D01*
X221704D02*
X224204Y74622D01*
X219204Y64622D02*
X221704Y67122D01*
X98474Y200134D02*
X133907D01*
X98474D02*
Y213913D01*
X133907D01*
Y200134D02*
Y213913D01*
D46*
X109694Y220319D02*
X108644D01*
X108119Y219795D01*
Y217695D01*
X108644Y217171D01*
X109694D01*
X110219Y217695D01*
Y219795D01*
X109694Y220319D01*
X111268Y217171D02*
Y220319D01*
X113367Y217171D01*
Y220319D01*
X114417Y218745D02*
X116516D01*
X119140Y220319D02*
X118090D01*
X117565Y219795D01*
Y217695D01*
X118090Y217171D01*
X119140D01*
X119664Y217695D01*
Y219795D01*
X119140Y220319D01*
X122813D02*
X120714D01*
Y218745D01*
X121763D01*
X120714D01*
Y217171D01*
X125961Y220319D02*
X123862D01*
Y218745D01*
X124912D01*
X123862D01*
Y217171D01*
D47*
X176624Y127201D02*
X179772D01*
Y125627D01*
X179247Y125102D01*
X178198D01*
X177673Y125627D01*
Y127201D01*
Y126151D02*
X176624Y125102D01*
X179772Y121953D02*
X179247Y123003D01*
X178198Y124052D01*
X177148D01*
X176624Y123527D01*
Y122478D01*
X177148Y121953D01*
X177673D01*
X178198Y122478D01*
Y124052D01*
X184104Y77004D02*
Y80152D01*
X185678D01*
X186203Y79628D01*
Y78578D01*
X185678Y78053D01*
X184104D01*
X187252Y77004D02*
Y80152D01*
X188827D01*
X189351Y79628D01*
Y78578D01*
X188827Y78053D01*
X187252D01*
X188302D02*
X189351Y77004D01*
X191975Y80152D02*
X190926D01*
X190401Y79628D01*
Y77529D01*
X190926Y77004D01*
X191975D01*
X192500Y77529D01*
Y79628D01*
X191975Y80152D01*
X195649Y79628D02*
X195124Y80152D01*
X194074D01*
X193550Y79628D01*
Y77529D01*
X194074Y77004D01*
X195124D01*
X195649Y77529D01*
Y78578D01*
X194599D01*
X109596Y160272D02*
X112744D01*
Y158697D01*
X112220Y158173D01*
X111170D01*
X110645Y158697D01*
Y160272D01*
Y159222D02*
X109596Y158173D01*
Y157123D02*
Y156074D01*
Y156598D01*
X112744D01*
X112220Y157123D01*
Y154499D02*
X112744Y153974D01*
Y152925D01*
X112220Y152400D01*
X110121D01*
X109596Y152925D01*
Y153974D01*
X110121Y154499D01*
X112220D01*
X212679Y208017D02*
X212154Y208542D01*
X211105D01*
X210580Y208017D01*
Y205918D01*
X211105Y205394D01*
X212154D01*
X212679Y205918D01*
X213729Y205394D02*
X214778D01*
X214253D01*
Y208542D01*
X213729Y208017D01*
X216353Y205394D02*
X217402D01*
X216877D01*
Y208542D01*
X216353Y208017D01*
X198179Y199531D02*
Y202679D01*
X199753D01*
X200278Y202154D01*
Y201105D01*
X199753Y200580D01*
X198179D01*
X199228D02*
X200278Y199531D01*
X203426Y202679D02*
X201327D01*
Y199531D01*
X203426D01*
X201327Y201105D02*
X202377D01*
X206575Y202154D02*
X206050Y202679D01*
X205001D01*
X204476Y202154D01*
Y200056D01*
X205001Y199531D01*
X206050D01*
X206575Y200056D01*
Y201105D01*
X205525D01*
X209724Y199531D02*
X207625D01*
X209724Y201630D01*
Y202154D01*
X209199Y202679D01*
X208149D01*
X207625Y202154D01*
X179116Y196852D02*
X178591Y197377D01*
X177542D01*
X177017Y196852D01*
Y194753D01*
X177542Y194228D01*
X178591D01*
X179116Y194753D01*
X180166Y194228D02*
X181215D01*
X180691D01*
Y197377D01*
X180166Y196852D01*
X184889Y194228D02*
X182790D01*
X184889Y196327D01*
Y196852D01*
X184364Y197377D01*
X183314D01*
X182790Y196852D01*
X243061Y105842D02*
Y108991D01*
X244635D01*
X245160Y108466D01*
Y107417D01*
X244635Y106892D01*
X243061D01*
X244110D02*
X245160Y105842D01*
X248308Y108991D02*
X246209D01*
Y105842D01*
X248308D01*
X246209Y107417D02*
X247259D01*
X251457Y108466D02*
X250932Y108991D01*
X249883D01*
X249358Y108466D01*
Y106367D01*
X249883Y105842D01*
X250932D01*
X251457Y106367D01*
Y107417D01*
X250407D01*
X252506Y105842D02*
X253556D01*
X253031D01*
Y108991D01*
X252506Y108466D01*
X187647Y99247D02*
Y96623D01*
X188172Y96099D01*
X189222D01*
X189746Y96623D01*
Y99247D01*
X190796Y96099D02*
X191845D01*
X191321D01*
Y99247D01*
X190796Y98722D01*
X252694Y187929D02*
Y191078D01*
X254268D01*
X254793Y190553D01*
Y189503D01*
X254268Y188979D01*
X252694D01*
X253743D02*
X254793Y187929D01*
X257941D02*
X255842D01*
X257941Y190028D01*
Y190553D01*
X257417Y191078D01*
X256367D01*
X255842Y190553D01*
X258991D02*
X259516Y191078D01*
X260565D01*
X261090Y190553D01*
Y190028D01*
X260565Y189503D01*
X260040D01*
X260565D01*
X261090Y188979D01*
Y188454D01*
X260565Y187929D01*
X259516D01*
X258991Y188454D01*
X291092Y189307D02*
Y192456D01*
X292667D01*
X293191Y191931D01*
Y190881D01*
X292667Y190357D01*
X291092D01*
X292142D02*
X293191Y189307D01*
X296340D02*
X294241D01*
X296340Y191406D01*
Y191931D01*
X295815Y192456D01*
X294765D01*
X294241Y191931D01*
X299488Y189307D02*
X297389D01*
X299488Y191406D01*
Y191931D01*
X298964Y192456D01*
X297914D01*
X297389Y191931D01*
X291191Y173749D02*
Y176897D01*
X292765D01*
X293290Y176373D01*
Y175323D01*
X292765Y174798D01*
X291191D01*
X292240D02*
X293290Y173749D01*
X296438D02*
X294339D01*
X296438Y175848D01*
Y176373D01*
X295914Y176897D01*
X294864D01*
X294339Y176373D01*
X297488Y173749D02*
X298537D01*
X298013D01*
Y176897D01*
X297488Y176373D01*
X252116Y217850D02*
Y220999D01*
X253690D01*
X254215Y220474D01*
Y219425D01*
X253690Y218900D01*
X252116D01*
X253165D02*
X254215Y217850D01*
X257363D02*
X255264D01*
X257363Y219950D01*
Y220474D01*
X256838Y220999D01*
X255789D01*
X255264Y220474D01*
X258413D02*
X258938Y220999D01*
X259987D01*
X260512Y220474D01*
Y218375D01*
X259987Y217850D01*
X258938D01*
X258413Y218375D01*
Y220474D01*
X252903Y181728D02*
Y184877D01*
X254478D01*
X255002Y184352D01*
Y183303D01*
X254478Y182778D01*
X252903D01*
X253953D02*
X255002Y181728D01*
X256052D02*
X257101D01*
X256576D01*
Y184877D01*
X256052Y184352D01*
X258676Y182253D02*
X259200Y181728D01*
X260250D01*
X260775Y182253D01*
Y184352D01*
X260250Y184877D01*
X259200D01*
X258676Y184352D01*
Y183827D01*
X259200Y183303D01*
X260775D01*
X88041Y222870D02*
X91189D01*
Y221296D01*
X90665Y220771D01*
X89615D01*
X89090Y221296D01*
Y222870D01*
Y221821D02*
X88041Y220771D01*
Y219722D02*
Y218672D01*
Y219197D01*
X91189D01*
X90665Y219722D01*
Y217098D02*
X91189Y216573D01*
Y215523D01*
X90665Y214999D01*
X90140D01*
X89615Y215523D01*
X89090Y214999D01*
X88565D01*
X88041Y215523D01*
Y216573D01*
X88565Y217098D01*
X89090D01*
X89615Y216573D01*
X90140Y217098D01*
X90665D01*
X89615Y216573D02*
Y215523D01*
X157778Y149543D02*
X160927D01*
Y147969D01*
X160402Y147444D01*
X159353D01*
X158828Y147969D01*
Y149543D01*
Y148494D02*
X157778Y147444D01*
Y146395D02*
Y145345D01*
Y145870D01*
X160927D01*
X160402Y146395D01*
X160927Y143771D02*
Y141672D01*
X160402D01*
X158303Y143771D01*
X157778D01*
X146309Y140587D02*
Y143735D01*
X147883D01*
X148407Y143210D01*
Y142161D01*
X147883Y141636D01*
X146309D01*
X147358D02*
X148407Y140587D01*
X149457D02*
X150507D01*
X149982D01*
Y143735D01*
X149457Y143210D01*
X154180Y143735D02*
X153130Y143210D01*
X152081Y142161D01*
Y141111D01*
X152606Y140587D01*
X153655D01*
X154180Y141111D01*
Y141636D01*
X153655Y142161D01*
X152081D01*
X145324Y139012D02*
X148473D01*
Y137437D01*
X147948Y136913D01*
X146898D01*
X146374Y137437D01*
Y139012D01*
Y137962D02*
X145324Y136913D01*
Y135863D02*
Y134814D01*
Y135338D01*
X148473D01*
X147948Y135863D01*
X148473Y131140D02*
Y133239D01*
X146898D01*
X147423Y132190D01*
Y131665D01*
X146898Y131140D01*
X145849D01*
X145324Y131665D01*
Y132715D01*
X145849Y133239D01*
X145324Y192358D02*
X148473D01*
Y190784D01*
X147948Y190259D01*
X146898D01*
X146374Y190784D01*
Y192358D01*
Y191309D02*
X145324Y190259D01*
Y189210D02*
Y188160D01*
Y188685D01*
X148473D01*
X147948Y189210D01*
X145324Y185012D02*
X148473D01*
X146898Y186586D01*
Y184487D01*
X163041Y181925D02*
X166189D01*
Y180351D01*
X165665Y179826D01*
X164615D01*
X164090Y180351D01*
Y181925D01*
Y180876D02*
X163041Y179826D01*
Y178777D02*
Y177727D01*
Y178252D01*
X166189D01*
X165665Y178777D01*
Y176153D02*
X166189Y175628D01*
Y174578D01*
X165665Y174054D01*
X165140D01*
X164615Y174578D01*
Y175103D01*
Y174578D01*
X164090Y174054D01*
X163566D01*
X163041Y174578D01*
Y175628D01*
X163566Y176153D01*
X151623Y192457D02*
X154772D01*
Y190882D01*
X154247Y190358D01*
X153198D01*
X152673Y190882D01*
Y192457D01*
Y191407D02*
X151623Y190358D01*
Y189308D02*
Y188259D01*
Y188783D01*
X154772D01*
X154247Y189308D01*
X151623Y184585D02*
Y186684D01*
X153723Y184585D01*
X154247D01*
X154772Y185110D01*
Y186160D01*
X154247Y186684D01*
X109497Y197575D02*
X112646D01*
Y196001D01*
X112121Y195476D01*
X111072D01*
X110547Y196001D01*
Y197575D01*
Y196525D02*
X109497Y195476D01*
Y194426D02*
Y193377D01*
Y193902D01*
X112646D01*
X112121Y194426D01*
X109497Y191802D02*
Y190753D01*
Y191278D01*
X112646D01*
X112121Y191802D01*
X129084Y193638D02*
Y196786D01*
X130658D01*
X131183Y196262D01*
Y195212D01*
X130658Y194687D01*
X129084D01*
X130134D02*
X131183Y193638D01*
X132233Y194163D02*
X132757Y193638D01*
X133807D01*
X134332Y194163D01*
Y196262D01*
X133807Y196786D01*
X132757D01*
X132233Y196262D01*
Y195737D01*
X132757Y195212D01*
X134332D01*
X115993Y193835D02*
Y196983D01*
X117568D01*
X118093Y196458D01*
Y195409D01*
X117568Y194884D01*
X115993D01*
X117043D02*
X118093Y193835D01*
X119142Y196458D02*
X119667Y196983D01*
X120716D01*
X121241Y196458D01*
Y195934D01*
X120716Y195409D01*
X121241Y194884D01*
Y194359D01*
X120716Y193835D01*
X119667D01*
X119142Y194359D01*
Y194884D01*
X119667Y195409D01*
X119142Y195934D01*
Y196458D01*
X119667Y195409D02*
X120716D01*
X122883Y193638D02*
Y196786D01*
X124458D01*
X124982Y196262D01*
Y195212D01*
X124458Y194687D01*
X122883D01*
X123933D02*
X124982Y193638D01*
X126032Y196786D02*
X128131D01*
Y196262D01*
X126032Y194163D01*
Y193638D01*
X162745Y96827D02*
X165894D01*
Y95253D01*
X165369Y94728D01*
X164320D01*
X163795Y95253D01*
Y96827D01*
Y95777D02*
X162745Y94728D01*
X165894Y91579D02*
Y93678D01*
X164320D01*
X164845Y92629D01*
Y92104D01*
X164320Y91579D01*
X163270D01*
X162745Y92104D01*
Y93153D01*
X163270Y93678D01*
X231958Y88402D02*
Y91550D01*
X233532D01*
X234057Y91025D01*
Y89976D01*
X233532Y89451D01*
X231958D01*
X233008D02*
X234057Y88402D01*
X236681D02*
Y91550D01*
X235107Y89976D01*
X237206D01*
X187352Y152399D02*
Y155548D01*
X188926D01*
X189451Y155023D01*
Y153974D01*
X188926Y153449D01*
X187352D01*
X188401D02*
X189451Y152399D01*
X190501Y155023D02*
X191025Y155548D01*
X192075D01*
X192600Y155023D01*
Y154499D01*
X192075Y153974D01*
X191550D01*
X192075D01*
X192600Y153449D01*
Y152924D01*
X192075Y152399D01*
X191025D01*
X190501Y152924D01*
X197517Y152299D02*
Y155448D01*
X199091D01*
X199616Y154923D01*
Y153874D01*
X199091Y153349D01*
X197517D01*
X198566D02*
X199616Y152299D01*
X202764D02*
X200665D01*
X202764Y154398D01*
Y154923D01*
X202239Y155448D01*
X201190D01*
X200665Y154923D01*
X208363Y152299D02*
Y155448D01*
X209938D01*
X210462Y154923D01*
Y153874D01*
X209938Y153349D01*
X208363D01*
X209413D02*
X210462Y152299D01*
X211512D02*
X212561D01*
X212037D01*
Y155448D01*
X211512Y154923D01*
X163467Y120934D02*
Y123033D01*
X162942Y123558D01*
X161892D01*
X161368Y123033D01*
Y120934D01*
X161892Y120410D01*
X162942D01*
X162417Y121459D02*
X163467Y120410D01*
X162942D02*
X163467Y120934D01*
X164516Y120410D02*
X165566D01*
X165041D01*
Y123558D01*
X164516Y123033D01*
X215698Y76682D02*
Y79830D01*
X216748Y78781D01*
X217797Y79830D01*
Y76682D01*
X220421Y79830D02*
X219372D01*
X218847Y79305D01*
Y77206D01*
X219372Y76682D01*
X220421D01*
X220946Y77206D01*
Y79305D01*
X220421Y79830D01*
X221995D02*
Y76682D01*
X223570D01*
X224095Y77206D01*
Y79305D01*
X223570Y79830D01*
X221995D01*
X227243D02*
X225144D01*
Y76682D01*
X227243D01*
X225144Y78256D02*
X226193D01*
X278678Y92160D02*
Y89012D01*
X280777D01*
X283926Y92160D02*
X281827D01*
Y89012D01*
X283926D01*
X281827Y90586D02*
X282876D01*
X284975Y92160D02*
Y89012D01*
X286549D01*
X287074Y89537D01*
Y91636D01*
X286549Y92160D01*
X284975D01*
X205364Y229759D02*
Y226610D01*
Y227660D01*
X207463Y229759D01*
X205889Y228185D01*
X207463Y226610D01*
X210612D02*
X208512D01*
X210612Y228709D01*
Y229234D01*
X210087Y229759D01*
X209037D01*
X208512Y229234D01*
X177903Y233007D02*
Y229858D01*
Y230908D01*
X180002Y233007D01*
X178428Y231433D01*
X180002Y229858D01*
X181052D02*
X182101D01*
X181577D01*
Y233007D01*
X181052Y232482D01*
X257628Y159778D02*
X258677D01*
X258152D01*
Y156630D01*
X257628D01*
X258677D01*
X262351Y159254D02*
X261826Y159778D01*
X260776D01*
X260251Y159254D01*
Y157155D01*
X260776Y156630D01*
X261826D01*
X262351Y157155D01*
X265499Y156630D02*
X263400D01*
X265499Y158729D01*
Y159254D01*
X264974Y159778D01*
X263925D01*
X263400Y159254D01*
X124950Y165232D02*
X126000D01*
X125475D01*
Y162083D01*
X124950D01*
X126000D01*
X129673Y164707D02*
X129148Y165232D01*
X128099D01*
X127574Y164707D01*
Y162608D01*
X128099Y162083D01*
X129148D01*
X129673Y162608D01*
X130723Y162083D02*
X131772D01*
X131247D01*
Y165232D01*
X130723Y164707D01*
X136927Y92357D02*
X134828D01*
Y90783D01*
X135877D01*
X134828D01*
Y89209D01*
X140075Y91833D02*
X139551Y92357D01*
X138501D01*
X137976Y91833D01*
Y91308D01*
X138501Y90783D01*
X139551D01*
X140075Y90258D01*
Y89733D01*
X139551Y89209D01*
X138501D01*
X137976Y89733D01*
X141125Y92357D02*
Y89209D01*
X142174Y90258D01*
X143224Y89209D01*
Y92357D01*
X176525Y209483D02*
Y206335D01*
X178100D01*
X178624Y206859D01*
Y208959D01*
X178100Y209483D01*
X176525D01*
X181773Y206335D02*
X179674D01*
X181773Y208434D01*
Y208959D01*
X181248Y209483D01*
X180199D01*
X179674Y208959D01*
X240894Y228579D02*
X237746D01*
Y227004D01*
X238270Y226480D01*
X240370D01*
X240894Y227004D01*
Y228579D01*
X237746Y225430D02*
Y224381D01*
Y224905D01*
X240894D01*
X240370Y225430D01*
X293716Y217536D02*
X294240Y218060D01*
Y219110D01*
X293716Y219635D01*
X291617D01*
X291092Y219110D01*
Y218060D01*
X291617Y217536D01*
X291092Y214387D02*
Y216486D01*
X293191Y214387D01*
X293716D01*
X294240Y214912D01*
Y215961D01*
X293716Y216486D01*
X291092Y211238D02*
Y213337D01*
X293191Y211238D01*
X293716D01*
X294240Y211763D01*
Y212813D01*
X293716Y213337D01*
X252738Y202069D02*
X252214Y202593D01*
X251164D01*
X250639Y202069D01*
Y199970D01*
X251164Y199445D01*
X252214D01*
X252738Y199970D01*
X255887Y199445D02*
X253788D01*
X255887Y201544D01*
Y202069D01*
X255362Y202593D01*
X254313D01*
X253788Y202069D01*
X256936D02*
X257461Y202593D01*
X258511D01*
X259035Y202069D01*
Y199970D01*
X258511Y199445D01*
X257461D01*
X256936Y199970D01*
Y202069D01*
X295455Y138880D02*
X294930Y139404D01*
X293881D01*
X293356Y138880D01*
Y136781D01*
X293881Y136256D01*
X294930D01*
X295455Y136781D01*
X298604Y136256D02*
X296504D01*
X298604Y138355D01*
Y138880D01*
X298079Y139404D01*
X297029D01*
X296504Y138880D01*
X299653Y136256D02*
X300703D01*
X300178D01*
Y139404D01*
X299653Y138880D01*
X299294Y184155D02*
X298769Y184680D01*
X297719D01*
X297195Y184155D01*
Y182056D01*
X297719Y181532D01*
X298769D01*
X299294Y182056D01*
X300343Y181532D02*
X301393D01*
X300868D01*
Y184680D01*
X300343Y184155D01*
X302967Y182056D02*
X303492Y181532D01*
X304541D01*
X305066Y182056D01*
Y184155D01*
X304541Y184680D01*
X303492D01*
X302967Y184155D01*
Y183631D01*
X303492Y183106D01*
X305066D01*
X254805Y178053D02*
X254281Y178578D01*
X253231D01*
X252706Y178053D01*
Y175954D01*
X253231Y175429D01*
X254281D01*
X254805Y175954D01*
X255855Y175429D02*
X256905D01*
X256380D01*
Y178578D01*
X255855Y178053D01*
X258479D02*
X259003Y178578D01*
X260053D01*
X260578Y178053D01*
Y177528D01*
X260053Y177003D01*
X260578Y176479D01*
Y175954D01*
X260053Y175429D01*
X259003D01*
X258479Y175954D01*
Y176479D01*
X259003Y177003D01*
X258479Y177528D01*
Y178053D01*
X259003Y177003D02*
X260053D01*
X154149Y136716D02*
X154674Y137241D01*
Y138290D01*
X154149Y138815D01*
X152050D01*
X151525Y138290D01*
Y137241D01*
X152050Y136716D01*
X151525Y135666D02*
Y134617D01*
Y135142D01*
X154674D01*
X154149Y135666D01*
X154674Y133043D02*
Y130944D01*
X154149D01*
X152050Y133043D01*
X151525D01*
X135526Y142029D02*
X135002Y142554D01*
X133952D01*
X133427Y142029D01*
Y139930D01*
X133952Y139406D01*
X135002D01*
X135526Y139930D01*
X136576Y139406D02*
X137626D01*
X137101D01*
Y142554D01*
X136576Y142029D01*
X141299Y142554D02*
X140249Y142029D01*
X139200Y140980D01*
Y139930D01*
X139725Y139406D01*
X140774D01*
X141299Y139930D01*
Y140455D01*
X140774Y140980D01*
X139200D01*
X164451Y167578D02*
X163926Y168103D01*
X162876D01*
X162352Y167578D01*
Y165479D01*
X162876Y164955D01*
X163926D01*
X164451Y165479D01*
X165500Y164955D02*
X166550D01*
X166025D01*
Y168103D01*
X165500Y167578D01*
X170223Y168103D02*
X168124D01*
Y166529D01*
X169174Y167054D01*
X169699D01*
X170223Y166529D01*
Y165479D01*
X169699Y164955D01*
X168649D01*
X168124Y165479D01*
X85514Y193433D02*
X84989Y193958D01*
X83940D01*
X83415Y193433D01*
Y191334D01*
X83940Y190810D01*
X84989D01*
X85514Y191334D01*
X86563Y190810D02*
X87613D01*
X87088D01*
Y193958D01*
X86563Y193433D01*
X90762Y190810D02*
Y193958D01*
X89187Y192384D01*
X91286D01*
X136695Y178644D02*
X136170Y179168D01*
X135121D01*
X134596Y178644D01*
Y176544D01*
X135121Y176020D01*
X136170D01*
X136695Y176544D01*
X137744Y176020D02*
X138794D01*
X138269D01*
Y179168D01*
X137744Y178644D01*
X140368D02*
X140893Y179168D01*
X141943D01*
X142467Y178644D01*
Y178119D01*
X141943Y177594D01*
X141418D01*
X141943D01*
X142467Y177069D01*
Y176544D01*
X141943Y176020D01*
X140893D01*
X140368Y176544D01*
X239188Y121165D02*
X239713Y121689D01*
Y122739D01*
X239188Y123264D01*
X237089D01*
X236564Y122739D01*
Y121689D01*
X237089Y121165D01*
X236564Y120115D02*
Y119066D01*
Y119590D01*
X239713D01*
X239188Y120115D01*
Y117491D02*
X239713Y116967D01*
Y115917D01*
X239188Y115392D01*
X237089D01*
X236564Y115917D01*
Y116967D01*
X237089Y117491D01*
X239188D01*
X213696Y112110D02*
X214221Y112634D01*
Y113684D01*
X213696Y114209D01*
X211597D01*
X211072Y113684D01*
Y112634D01*
X211597Y112110D01*
Y111060D02*
X211072Y110535D01*
Y109486D01*
X211597Y108961D01*
X213696D01*
X214221Y109486D01*
Y110535D01*
X213696Y111060D01*
X213171D01*
X212647Y110535D01*
Y108961D01*
X258972Y118015D02*
X259496Y118540D01*
Y119589D01*
X258972Y120114D01*
X256873D01*
X256348Y119589D01*
Y118540D01*
X256873Y118015D01*
X258972Y116966D02*
X259496Y116441D01*
Y115391D01*
X258972Y114866D01*
X258447D01*
X257922Y115391D01*
X257397Y114866D01*
X256873D01*
X256348Y115391D01*
Y116441D01*
X256873Y116966D01*
X257397D01*
X257922Y116441D01*
X258447Y116966D01*
X258972D01*
X257922Y116441D02*
Y115391D01*
X219077Y121065D02*
X218552Y121590D01*
X217503D01*
X216978Y121065D01*
Y118966D01*
X217503Y118441D01*
X218552D01*
X219077Y118966D01*
X220127Y121590D02*
X222226D01*
Y121065D01*
X220127Y118966D01*
Y118441D01*
X286629Y116932D02*
X287154Y117457D01*
Y118507D01*
X286629Y119032D01*
X284530D01*
X284005Y118507D01*
Y117457D01*
X284530Y116932D01*
X287154Y113784D02*
X286629Y114833D01*
X285580Y115883D01*
X284530D01*
X284005Y115358D01*
Y114309D01*
X284530Y113784D01*
X285055D01*
X285580Y114309D01*
Y115883D01*
X257069Y142029D02*
X256544Y142554D01*
X255495D01*
X254970Y142029D01*
Y139930D01*
X255495Y139406D01*
X256544D01*
X257069Y139930D01*
X260218Y142554D02*
X258119D01*
Y140980D01*
X259168Y141505D01*
X259693D01*
X260218Y140980D01*
Y139930D01*
X259693Y139406D01*
X258644D01*
X258119Y139930D01*
X121636Y143112D02*
X121111Y143637D01*
X120062D01*
X119537Y143112D01*
Y141013D01*
X120062Y140488D01*
X121111D01*
X121636Y141013D01*
X124260Y140488D02*
Y143637D01*
X122685Y142062D01*
X124785D01*
X216137Y170476D02*
X216662Y171001D01*
Y172050D01*
X216137Y172575D01*
X214038D01*
X213513Y172050D01*
Y171001D01*
X214038Y170476D01*
X216137Y169426D02*
X216662Y168902D01*
Y167852D01*
X216137Y167327D01*
X215613D01*
X215088Y167852D01*
Y168377D01*
Y167852D01*
X214563Y167327D01*
X214038D01*
X213513Y167852D01*
Y168902D01*
X214038Y169426D01*
X185744Y123724D02*
X186268Y124249D01*
Y125298D01*
X185744Y125823D01*
X183644D01*
X183120Y125298D01*
Y124249D01*
X183644Y123724D01*
X183120Y120575D02*
Y122674D01*
X185219Y120575D01*
X185744D01*
X186268Y121100D01*
Y122150D01*
X185744Y122674D01*
X238368Y181990D02*
X237844Y182515D01*
X236794D01*
X236269Y181990D01*
Y179891D01*
X236794Y179366D01*
X237844D01*
X238368Y179891D01*
X239418Y179366D02*
X240468D01*
X239943D01*
Y182515D01*
X239418Y181990D01*
X139104Y215972D02*
X135956D01*
Y214397D01*
X136480Y213873D01*
X137005D01*
X137530Y214397D01*
Y215972D01*
Y214397D01*
X138055Y213873D01*
X138580D01*
X139104Y214397D01*
Y215972D01*
Y212823D02*
X136480D01*
X135956Y212298D01*
Y211249D01*
X136480Y210724D01*
X139104D01*
Y207575D02*
Y209675D01*
X137530D01*
Y208625D01*
Y209675D01*
X135956D01*
X139104Y204427D02*
Y206526D01*
X137530D01*
Y205476D01*
Y206526D01*
X135956D01*
X139104Y201278D02*
Y203377D01*
X135956D01*
Y201278D01*
X137530Y203377D02*
Y202328D01*
X135956Y200229D02*
X139104D01*
Y198654D01*
X138580Y198130D01*
X137530D01*
X137005Y198654D01*
Y200229D01*
Y199179D02*
X135956Y198130D01*
X246191Y96786D02*
Y93638D01*
X247766D01*
X248290Y94163D01*
Y94687D01*
X247766Y95212D01*
X246191D01*
X247766D01*
X248290Y95737D01*
Y96262D01*
X247766Y96786D01*
X246191D01*
X249340Y93638D02*
Y96786D01*
X250914D01*
X251439Y96262D01*
Y95212D01*
X250914Y94687D01*
X249340D01*
X250390D02*
X251439Y93638D01*
X252488Y96786D02*
X253538D01*
X253013D01*
Y93638D01*
X252488D01*
X253538D01*
X257211Y96262D02*
X256687Y96786D01*
X255637D01*
X255112Y96262D01*
Y94163D01*
X255637Y93638D01*
X256687D01*
X257211Y94163D01*
Y95212D01*
X256162D01*
X258261Y96786D02*
Y93638D01*
Y95212D01*
X260360D01*
Y96786D01*
Y93638D01*
X261410Y96786D02*
X263509D01*
X262459D01*
Y93638D01*
X236003Y331764D02*
X234953D01*
X234429Y331240D01*
Y329140D01*
X234953Y328616D01*
X236003D01*
X236528Y329140D01*
Y331240D01*
X236003Y331764D01*
X237577D02*
Y329140D01*
X238102Y328616D01*
X239151D01*
X239676Y329140D01*
Y331764D01*
X240726D02*
X242825D01*
X241775D01*
Y328616D01*
X243874D02*
Y331764D01*
X245449D01*
X245973Y331240D01*
Y330190D01*
X245449Y329665D01*
X243874D01*
X247023Y331764D02*
Y329140D01*
X247548Y328616D01*
X248597D01*
X249122Y329140D01*
Y331764D01*
X250171D02*
X252271D01*
X251221D01*
Y328616D01*
X127709Y331764D02*
X128759D01*
X128234D01*
Y328616D01*
X127709D01*
X128759D01*
X130333D02*
Y331764D01*
X132432Y328616D01*
Y331764D01*
X133482Y328616D02*
Y331764D01*
X135056D01*
X135581Y331240D01*
Y330190D01*
X135056Y329665D01*
X133482D01*
X136630Y331764D02*
Y329140D01*
X137155Y328616D01*
X138205D01*
X138730Y329140D01*
Y331764D01*
X139779D02*
X141878D01*
X140829D01*
Y328616D01*
D48*
X192027Y207614D02*
D03*
D49*
X230758Y220780D02*
D03*
M02*
