G04*
G04 #@! TF.GenerationSoftware,Altium Limited,Altium Designer,20.1.11 (218)*
G04*
G04 Layer_Color=32896*
%FSLAX25Y25*%
%MOIN*%
G70*
G04*
G04 #@! TF.SameCoordinates,FE814F26-7F82-419D-9895-0DDABB92EEBD*
G04*
G04*
G04 #@! TF.FilePolarity,Positive*
G04*
G01*
G75*
%ADD13C,0.00394*%
%ADD15C,0.00591*%
D13*
X326172Y153013D02*
X325734Y153907D01*
X325186Y154739D01*
X324538Y155494D01*
X323799Y156162D01*
X322983Y156732D01*
X322100Y157193D01*
X321167Y157540D01*
X320197Y157766D01*
X319207Y157868D01*
X318211Y157844D01*
X317227Y157695D01*
X316269Y157422D01*
X315353Y157031D01*
X314494Y156528D01*
X313706Y155920D01*
X313000Y155218D01*
Y144782D02*
X313706Y144080D01*
X314494Y143472D01*
X315353Y142969D01*
X316269Y142578D01*
X317227Y142305D01*
X318211Y142156D01*
X319207Y142132D01*
X320197Y142234D01*
X321167Y142460D01*
X322100Y142807D01*
X322983Y143268D01*
X323799Y143838D01*
X324538Y144506D01*
X325186Y145261D01*
X325734Y146093D01*
X326172Y146987D01*
X326172Y172698D02*
X325734Y173592D01*
X325186Y174424D01*
X324538Y175180D01*
X323799Y175847D01*
X322983Y176417D01*
X322100Y176878D01*
X321167Y177225D01*
X320197Y177451D01*
X319207Y177553D01*
X318211Y177529D01*
X317227Y177380D01*
X316269Y177107D01*
X315354Y176716D01*
X314494Y176213D01*
X313706Y175605D01*
X313000Y174902D01*
Y164468D02*
X313706Y163765D01*
X314494Y163157D01*
X315354Y162654D01*
X316269Y162263D01*
X317227Y161990D01*
X318211Y161841D01*
X319207Y161817D01*
X320197Y161919D01*
X321167Y162145D01*
X322100Y162492D01*
X322983Y162953D01*
X323799Y163523D01*
X324538Y164191D01*
X325186Y164946D01*
X325734Y165778D01*
X326172Y166672D01*
X326015Y192383D02*
X325576Y193277D01*
X325029Y194109D01*
X324380Y194864D01*
X323642Y195532D01*
X322825Y196102D01*
X321943Y196563D01*
X321009Y196910D01*
X320040Y197136D01*
X319049Y197238D01*
X318054Y197214D01*
X317070Y197065D01*
X316112Y196792D01*
X315196Y196401D01*
X314337Y195898D01*
X313548Y195290D01*
X312843Y194588D01*
Y184153D02*
X313548Y183450D01*
X314337Y182842D01*
X315196Y182339D01*
X316112Y181948D01*
X317070Y181675D01*
X318054Y181526D01*
X319049Y181502D01*
X320040Y181604D01*
X321009Y181830D01*
X321943Y182177D01*
X322825Y182639D01*
X323642Y183208D01*
X324380Y183876D01*
X325029Y184631D01*
X325576Y185463D01*
X326015Y186357D01*
X326172Y212068D02*
X325734Y212962D01*
X325186Y213794D01*
X324538Y214549D01*
X323799Y215217D01*
X322983Y215787D01*
X322100Y216248D01*
X321167Y216595D01*
X320197Y216821D01*
X319207Y216923D01*
X318211Y216899D01*
X317227Y216750D01*
X316269Y216477D01*
X315354Y216087D01*
X314494Y215583D01*
X313706Y214975D01*
X313000Y214273D01*
Y203838D02*
X313706Y203135D01*
X314494Y202527D01*
X315354Y202024D01*
X316269Y201633D01*
X317227Y201360D01*
X318211Y201211D01*
X319207Y201187D01*
X320197Y201289D01*
X321167Y201515D01*
X322100Y201862D01*
X322983Y202324D01*
X323799Y202893D01*
X324538Y203561D01*
X325186Y204316D01*
X325734Y205148D01*
X326172Y206042D01*
X413001Y206042D02*
X413439Y205148D01*
X413987Y204316D01*
X414635Y203561D01*
X415374Y202893D01*
X416191Y202324D01*
X417073Y201862D01*
X418006Y201515D01*
X418976Y201289D01*
X419967Y201187D01*
X420962Y201211D01*
X421946Y201360D01*
X422904Y201633D01*
X423820Y202024D01*
X424679Y202527D01*
X425467Y203135D01*
X426173Y203838D01*
Y214273D02*
X425467Y214975D01*
X424679Y215583D01*
X423820Y216086D01*
X422904Y216477D01*
X421946Y216750D01*
X420962Y216899D01*
X419967Y216923D01*
X418976Y216821D01*
X418006Y216595D01*
X417073Y216248D01*
X416191Y215787D01*
X415374Y215217D01*
X414635Y214549D01*
X413987Y213794D01*
X413439Y212962D01*
X413001Y212068D01*
X411478Y11820D02*
X412372Y12258D01*
X413203Y12806D01*
X413959Y13454D01*
X414627Y14193D01*
X415196Y15010D01*
X415658Y15892D01*
X416004Y16825D01*
X416230Y17795D01*
X416332Y18785D01*
X416308Y19781D01*
X416159Y20765D01*
X415887Y21723D01*
X415496Y22639D01*
X414992Y23498D01*
X414384Y24286D01*
X413682Y24992D01*
X403247D02*
X402544Y24286D01*
X401937Y23498D01*
X401433Y22639D01*
X401042Y21723D01*
X400770Y20765D01*
X400620Y19781D01*
X400597Y18785D01*
X400698Y17795D01*
X400924Y16825D01*
X401271Y15892D01*
X401733Y15010D01*
X402302Y14193D01*
X402970Y13454D01*
X403726Y12806D01*
X404557Y12258D01*
X405451Y11820D01*
X413001Y186357D02*
X413439Y185463D01*
X413987Y184631D01*
X414635Y183876D01*
X415374Y183208D01*
X416191Y182639D01*
X417073Y182177D01*
X418006Y181830D01*
X418976Y181604D01*
X419967Y181502D01*
X420962Y181526D01*
X421946Y181675D01*
X422904Y181948D01*
X423820Y182339D01*
X424679Y182842D01*
X425467Y183450D01*
X426173Y184153D01*
Y194588D02*
X425467Y195290D01*
X424679Y195898D01*
X423820Y196401D01*
X422904Y196792D01*
X421946Y197065D01*
X420962Y197214D01*
X419967Y197238D01*
X418976Y197136D01*
X418006Y196910D01*
X417073Y196563D01*
X416191Y196102D01*
X415374Y195532D01*
X414635Y194864D01*
X413987Y194109D01*
X413439Y193277D01*
X413001Y192383D01*
X391793Y11820D02*
X392687Y12258D01*
X393518Y12806D01*
X394274Y13454D01*
X394942Y14193D01*
X395511Y15010D01*
X395973Y15892D01*
X396319Y16825D01*
X396545Y17795D01*
X396647Y18785D01*
X396623Y19781D01*
X396474Y20765D01*
X396202Y21723D01*
X395811Y22639D01*
X395307Y23498D01*
X394699Y24286D01*
X393997Y24992D01*
X383562D02*
X382859Y24286D01*
X382252Y23498D01*
X381748Y22639D01*
X381357Y21723D01*
X381085Y20765D01*
X380935Y19781D01*
X380911Y18785D01*
X381013Y17795D01*
X381240Y16825D01*
X381586Y15892D01*
X382048Y15010D01*
X382617Y14193D01*
X383285Y13454D01*
X384041Y12806D01*
X384872Y12258D01*
X385766Y11820D01*
X413001Y166672D02*
X413439Y165778D01*
X413987Y164946D01*
X414635Y164191D01*
X415374Y163523D01*
X416191Y162953D01*
X417073Y162492D01*
X418006Y162145D01*
X418976Y161919D01*
X419966Y161817D01*
X420962Y161841D01*
X421946Y161990D01*
X422904Y162263D01*
X423820Y162654D01*
X424679Y163157D01*
X425467Y163765D01*
X426173Y164468D01*
Y174902D02*
X425467Y175605D01*
X424679Y176213D01*
X423820Y176716D01*
X422904Y177107D01*
X421946Y177380D01*
X420962Y177529D01*
X419966Y177553D01*
X418976Y177451D01*
X418006Y177225D01*
X417073Y176878D01*
X416191Y176417D01*
X415374Y175847D01*
X414635Y175179D01*
X413987Y174424D01*
X413439Y173592D01*
X413001Y172698D01*
X372108Y11820D02*
X373002Y12258D01*
X373833Y12806D01*
X374589Y13454D01*
X375257Y14193D01*
X375826Y15010D01*
X376288Y15892D01*
X376634Y16825D01*
X376860Y17795D01*
X376962Y18785D01*
X376939Y19781D01*
X376789Y20765D01*
X376517Y21723D01*
X376126Y22639D01*
X375622Y23498D01*
X375014Y24286D01*
X374312Y24992D01*
X363877D02*
X363174Y24286D01*
X362567Y23498D01*
X362063Y22639D01*
X361672Y21723D01*
X361400Y20765D01*
X361250Y19781D01*
X361227Y18785D01*
X361328Y17795D01*
X361555Y16825D01*
X361901Y15892D01*
X362363Y15010D01*
X362932Y14193D01*
X363600Y13454D01*
X364356Y12806D01*
X365187Y12258D01*
X366081Y11820D01*
X413001Y146987D02*
X413439Y146093D01*
X413987Y145261D01*
X414635Y144506D01*
X415374Y143838D01*
X416191Y143268D01*
X417073Y142807D01*
X418006Y142460D01*
X418976Y142234D01*
X419967Y142132D01*
X420962Y142156D01*
X421946Y142305D01*
X422904Y142578D01*
X423820Y142969D01*
X424679Y143472D01*
X425467Y144080D01*
X426173Y144782D01*
Y155218D02*
X425467Y155920D01*
X424679Y156528D01*
X423820Y157031D01*
X422904Y157422D01*
X421946Y157695D01*
X420962Y157844D01*
X419967Y157868D01*
X418976Y157766D01*
X418006Y157540D01*
X417073Y157193D01*
X416191Y156732D01*
X415374Y156162D01*
X414635Y155494D01*
X413987Y154739D01*
X413439Y153907D01*
X413001Y153013D01*
X352423Y11820D02*
X353317Y12258D01*
X354148Y12806D01*
X354904Y13454D01*
X355572Y14193D01*
X356141Y15010D01*
X356603Y15892D01*
X356949Y16825D01*
X357175Y17795D01*
X357277Y18785D01*
X357254Y19781D01*
X357104Y20765D01*
X356832Y21723D01*
X356441Y22639D01*
X355937Y23498D01*
X355329Y24286D01*
X354627Y24992D01*
X344192D02*
X343489Y24286D01*
X342882Y23498D01*
X342378Y22639D01*
X341987Y21723D01*
X341715Y20765D01*
X341565Y19781D01*
X341542Y18785D01*
X341643Y17795D01*
X341869Y16825D01*
X342216Y15892D01*
X342678Y15010D01*
X343247Y14193D01*
X343915Y13454D01*
X344671Y12806D01*
X345502Y12258D01*
X346396Y11820D01*
X312996Y144787D02*
Y155213D01*
X312996Y164472D02*
Y174898D01*
X312839Y184157D02*
Y194583D01*
X312996Y203842D02*
Y214268D01*
X426177Y203842D02*
Y214268D01*
X403252Y24996D02*
X413677D01*
X426177Y184157D02*
Y194583D01*
X383567Y24996D02*
X393992D01*
X426177Y164472D02*
Y174898D01*
X363882Y24996D02*
X374307D01*
X426177Y144787D02*
Y155213D01*
X344197Y24996D02*
X354622D01*
X48622Y192520D02*
X86024D01*
X48622Y237795D02*
X86024D01*
Y192520D02*
Y237795D01*
X48622Y192520D02*
Y237795D01*
X140551Y165551D02*
X177953D01*
X140551Y120276D02*
X177953D01*
X140551D02*
Y165551D01*
X177953Y120276D02*
Y165551D01*
X276575Y121260D02*
Y158661D01*
X231299Y121260D02*
Y158661D01*
X276575D01*
X231299Y121260D02*
X276575D01*
X140551Y192520D02*
X177953D01*
X140551Y237795D02*
X177953D01*
Y192520D02*
Y237795D01*
X140551Y192520D02*
Y237795D01*
X232283Y192520D02*
X269685D01*
X232283Y237795D02*
X269685D01*
Y192520D02*
Y237795D01*
X232283Y192520D02*
Y237795D01*
X396260Y155118D02*
Y203937D01*
X343504D02*
X362382D01*
X396260D01*
X343504Y155118D02*
X362382D01*
X396260D01*
X343504D02*
Y203937D01*
D15*
X369488Y180577D02*
X370013Y181102D01*
X371062D01*
X371587Y180577D01*
Y180052D01*
X371062Y179528D01*
X370013D01*
X369488Y179003D01*
Y178478D01*
X370013Y177953D01*
X371062D01*
X371587Y178478D01*
X368439Y177953D02*
X367389D01*
X367914D01*
Y181102D01*
X368439Y180577D01*
X415924Y38387D02*
Y35239D01*
X414350D01*
X413825Y35763D01*
Y37862D01*
X414350Y38387D01*
X415924D01*
X412776Y37862D02*
X412251Y38387D01*
X411201D01*
X410677Y37862D01*
Y37338D01*
X411201Y36813D01*
X411726D01*
X411201D01*
X410677Y36288D01*
Y35763D01*
X411201Y35239D01*
X412251D01*
X412776Y35763D01*
X409627Y34714D02*
X407528D01*
X406479Y38387D02*
X404380D01*
Y37862D01*
X406479Y35763D01*
Y35239D01*
X396224Y38387D02*
Y35239D01*
X394650D01*
X394125Y35763D01*
Y37862D01*
X394650Y38387D01*
X396224D01*
X390977Y35239D02*
X393076D01*
X390977Y37338D01*
Y37862D01*
X391501Y38387D01*
X392551D01*
X393076Y37862D01*
X389927Y34714D02*
X387828D01*
X384680Y38387D02*
X385729Y37862D01*
X386779Y36813D01*
Y35763D01*
X386254Y35239D01*
X385204D01*
X384680Y35763D01*
Y36288D01*
X385204Y36813D01*
X386779D01*
X376624Y38387D02*
Y35239D01*
X375050D01*
X374525Y35763D01*
Y37862D01*
X375050Y38387D01*
X376624D01*
X373476Y35239D02*
X372426D01*
X372951D01*
Y38387D01*
X373476Y37862D01*
X370852Y34714D02*
X368753D01*
X365604Y38387D02*
X367703D01*
Y36813D01*
X366654Y37338D01*
X366129D01*
X365604Y36813D01*
Y35763D01*
X366129Y35239D01*
X367179D01*
X367703Y35763D01*
X356924Y38387D02*
Y35239D01*
X355350D01*
X354825Y35763D01*
Y37862D01*
X355350Y38387D01*
X356924D01*
X353776Y37862D02*
X353251Y38387D01*
X352202D01*
X351677Y37862D01*
Y35763D01*
X352202Y35239D01*
X353251D01*
X353776Y35763D01*
Y37862D01*
X350627Y34714D02*
X348528D01*
X345904Y35239D02*
Y38387D01*
X347479Y36813D01*
X345380D01*
X76244Y217618D02*
Y215518D01*
X75194Y214469D01*
X74145Y215518D01*
Y217618D01*
X71521D02*
X72571D01*
X73095Y217093D01*
Y214994D01*
X72571Y214469D01*
X71521D01*
X70996Y214994D01*
Y217093D01*
X71521Y217618D01*
X69947D02*
Y214469D01*
X67848D01*
X66798Y217618D02*
Y214994D01*
X66273Y214469D01*
X65224D01*
X64699Y214994D01*
Y217618D01*
X63649Y214469D02*
Y217618D01*
X62600Y216568D01*
X61550Y217618D01*
Y214469D01*
X58402Y217618D02*
X60501D01*
Y214469D01*
X58402D01*
X60501Y216043D02*
X59451D01*
X164335Y145519D02*
Y148668D01*
X162761D01*
X162236Y148143D01*
Y147094D01*
X162761Y146569D01*
X164335D01*
X159613Y148668D02*
X160662D01*
X161187Y148143D01*
Y146044D01*
X160662Y145519D01*
X159613D01*
X159088Y146044D01*
Y148143D01*
X159613Y148668D01*
X158038D02*
X155939D01*
X156989D01*
Y145519D01*
X154890Y148143D02*
X154365Y148668D01*
X153315D01*
X152791Y148143D01*
Y147618D01*
X153315Y147094D01*
X153840D01*
X153315D01*
X152791Y146569D01*
Y146044D01*
X153315Y145519D01*
X154365D01*
X154890Y146044D01*
X266107Y138583D02*
Y141732D01*
X264533D01*
X264008Y141207D01*
Y140157D01*
X264533Y139633D01*
X266107D01*
X261384Y141732D02*
X262434D01*
X262959Y141207D01*
Y139108D01*
X262434Y138583D01*
X261384D01*
X260859Y139108D01*
Y141207D01*
X261384Y141732D01*
X259810D02*
X257711D01*
X258760D01*
Y138583D01*
X254562D02*
X256661D01*
X254562Y140682D01*
Y141207D01*
X255087Y141732D01*
X256136D01*
X256661Y141207D01*
X164992Y213288D02*
Y216437D01*
X163417D01*
X162893Y215912D01*
Y214862D01*
X163417Y214337D01*
X164992D01*
X160269Y216437D02*
X161318D01*
X161843Y215912D01*
Y213813D01*
X161318Y213288D01*
X160269D01*
X159744Y213813D01*
Y215912D01*
X160269Y216437D01*
X158695D02*
X156596D01*
X157645D01*
Y213288D01*
X155546D02*
X154496D01*
X155021D01*
Y216437D01*
X155546Y215912D01*
X255871Y215158D02*
Y218307D01*
X254296D01*
X253772Y217782D01*
Y216732D01*
X254296Y216208D01*
X255871D01*
X251148Y218307D02*
X252198D01*
X252722Y217782D01*
Y215683D01*
X252198Y215158D01*
X251148D01*
X250623Y215683D01*
Y217782D01*
X251148Y218307D01*
X249574D02*
X247475D01*
X248524D01*
Y215158D01*
X246425Y217782D02*
X245900Y218307D01*
X244851D01*
X244326Y217782D01*
Y215683D01*
X244851Y215158D01*
X245900D01*
X246425Y215683D01*
Y217782D01*
X300919Y196478D02*
X304068D01*
Y194904D01*
X303543Y194379D01*
X301444D01*
X300919Y194904D01*
Y196478D01*
Y191231D02*
Y193330D01*
X302494D01*
X301969Y192280D01*
Y191755D01*
X302494Y191231D01*
X303543D01*
X304068Y191755D01*
Y192805D01*
X303543Y193330D01*
X304593Y190181D02*
Y188082D01*
X304068Y187032D02*
Y185983D01*
Y186508D01*
X300919D01*
X301444Y187032D01*
Y184409D02*
X300919Y183884D01*
Y182834D01*
X301444Y182310D01*
X301969D01*
X302494Y182834D01*
Y183359D01*
Y182834D01*
X303018Y182310D01*
X303543D01*
X304068Y182834D01*
Y183884D01*
X303543Y184409D01*
X402494Y195962D02*
X405643D01*
Y194388D01*
X405118Y193863D01*
X403019D01*
X402494Y194388D01*
Y195962D01*
X405643Y190715D02*
Y192814D01*
X403544Y190715D01*
X403019D01*
X402494Y191239D01*
Y192289D01*
X403019Y192814D01*
X406167Y189665D02*
Y187566D01*
X405643Y186516D02*
Y185467D01*
Y185992D01*
X402494D01*
X403019Y186516D01*
Y183893D02*
X402494Y183368D01*
Y182318D01*
X403019Y181794D01*
X405118D01*
X405643Y182318D01*
Y183368D01*
X405118Y183893D01*
X403019D01*
X301116Y176573D02*
X304265D01*
Y174998D01*
X303740Y174474D01*
X301641D01*
X301116Y174998D01*
Y176573D01*
Y171325D02*
X301641Y172374D01*
X302690Y173424D01*
X303740D01*
X304265Y172899D01*
Y171850D01*
X303740Y171325D01*
X303215D01*
X302690Y171850D01*
Y173424D01*
X304789Y170275D02*
Y168176D01*
X304265Y167127D02*
Y166077D01*
Y166602D01*
X301116D01*
X301641Y167127D01*
X304265Y162929D02*
X301116D01*
X302690Y164503D01*
Y162404D01*
X301215Y157281D02*
X304363D01*
Y155707D01*
X303838Y155182D01*
X301739D01*
X301215Y155707D01*
Y157281D01*
Y154133D02*
Y152033D01*
X301739D01*
X303838Y154133D01*
X304363D01*
X304888Y150984D02*
Y148885D01*
X304363Y147835D02*
Y146786D01*
Y147311D01*
X301215D01*
X301739Y147835D01*
X301215Y143113D02*
Y145212D01*
X302789D01*
X302264Y144162D01*
Y143637D01*
X302789Y143113D01*
X303838D01*
X304363Y143637D01*
Y144687D01*
X303838Y145212D01*
X402691Y155477D02*
X405839D01*
Y153903D01*
X405315Y153378D01*
X403216D01*
X402691Y153903D01*
Y155477D01*
X403216Y152329D02*
X402691Y151804D01*
Y150754D01*
X403216Y150230D01*
X405315D01*
X405839Y150754D01*
Y151804D01*
X405315Y152329D01*
X403216D01*
X406364Y149180D02*
Y147081D01*
X403216Y146031D02*
X402691Y145507D01*
Y144457D01*
X403216Y143932D01*
X403740D01*
X404265Y144457D01*
X404790Y143932D01*
X405315D01*
X405839Y144457D01*
Y145507D01*
X405315Y146031D01*
X404790D01*
X404265Y145507D01*
X403740Y146031D01*
X403216D01*
X404265Y145507D02*
Y144457D01*
X402100Y215516D02*
X405249D01*
Y213942D01*
X404724Y213417D01*
X402625D01*
X402100Y213942D01*
Y215516D01*
X402625Y212368D02*
X402100Y211843D01*
Y210793D01*
X402625Y210269D01*
X403150D01*
X403675Y210793D01*
Y211318D01*
Y210793D01*
X404199Y210269D01*
X404724D01*
X405249Y210793D01*
Y211843D01*
X404724Y212368D01*
X405774Y209219D02*
Y207120D01*
X405249Y206070D02*
Y205021D01*
Y205546D01*
X402100D01*
X402625Y206070D01*
X405249Y203447D02*
Y202397D01*
Y202922D01*
X402100D01*
X402625Y203447D01*
X402691Y174900D02*
X405839D01*
Y173326D01*
X405315Y172801D01*
X403216D01*
X402691Y173326D01*
Y174900D01*
X405839Y171751D02*
Y170702D01*
Y171226D01*
X402691D01*
X403216Y171751D01*
X406364Y169127D02*
Y167028D01*
X405315Y165979D02*
X405839Y165454D01*
Y164404D01*
X405315Y163880D01*
X403216D01*
X402691Y164404D01*
Y165454D01*
X403216Y165979D01*
X403740D01*
X404265Y165454D01*
Y163880D01*
X301018Y216041D02*
X304166D01*
Y214467D01*
X303641Y213942D01*
X301542D01*
X301018Y214467D01*
Y216041D01*
X304166Y211318D02*
X301018D01*
X302592Y212892D01*
Y210793D01*
X304691Y209744D02*
Y207645D01*
X304166Y206595D02*
Y205546D01*
Y206070D01*
X301018D01*
X301542Y206595D01*
X304166Y201872D02*
Y203971D01*
X302067Y201872D01*
X301542D01*
X301018Y202397D01*
Y203447D01*
X301542Y203971D01*
M02*
