G04*
G04 #@! TF.GenerationSoftware,Altium Limited,Altium Designer,20.1.11 (218)*
G04*
G04 Layer_Color=8421504*
%FSLAX25Y25*%
%MOIN*%
G70*
G04*
G04 #@! TF.SameCoordinates,FE814F26-7F82-419D-9895-0DDABB92EEBD*
G04*
G04*
G04 #@! TF.FilePolarity,Positive*
G04*
G01*
G75*
%ADD19R,0.01181X0.05709*%
%ADD20R,0.07480X0.04331*%
%ADD21R,0.02362X0.05906*%
%ADD22R,0.05906X0.02362*%
%ADD23R,0.03622X0.03858*%
%ADD24R,0.08661X0.02362*%
%ADD25R,0.02362X0.07480*%
%ADD26R,0.03543X0.03740*%
%ADD27R,0.03740X0.03543*%
%ADD28R,0.02362X0.04724*%
%ADD29R,0.09843X0.06496*%
%ADD30R,0.06299X0.12598*%
%ADD31R,0.12598X0.06299*%
%ADD32R,0.03543X0.08465*%
%ADD33R,0.12598X0.08465*%
%ADD34R,0.07087X0.03150*%
%ADD35R,0.04331X0.06890*%
%ADD36R,0.05709X0.02362*%
%ADD37R,0.02362X0.06299*%
%ADD38R,0.03543X0.02165*%
%ADD39R,0.06890X0.04331*%
%ADD40R,0.04724X0.02362*%
%ADD41R,0.01575X0.03150*%
%ADD42R,0.04724X0.03150*%
%ADD43R,0.06299X0.09843*%
%ADD44R,0.03150X0.01575*%
%ADD45R,0.05315X0.07087*%
%ADD46R,0.09843X0.06299*%
D19*
X116680Y96457D02*
D03*
X114711D02*
D03*
X112742D02*
D03*
X110774D02*
D03*
X108806D02*
D03*
Y78937D02*
D03*
X110774D02*
D03*
X112742D02*
D03*
X114711D02*
D03*
X116680D02*
D03*
D20*
X15157Y63681D02*
D03*
Y53838D02*
D03*
D21*
X198917Y90551D02*
D03*
X202067D02*
D03*
X205217D02*
D03*
X208366D02*
D03*
X211516D02*
D03*
X214665D02*
D03*
X217815D02*
D03*
X220965D02*
D03*
X224114D02*
D03*
X227264D02*
D03*
X230413D02*
D03*
Y45276D02*
D03*
X227264D02*
D03*
X224114D02*
D03*
X220965D02*
D03*
X217815D02*
D03*
X214665D02*
D03*
X211516D02*
D03*
X208366D02*
D03*
X205217D02*
D03*
X202067D02*
D03*
X198917D02*
D03*
D22*
X237303Y83661D02*
D03*
Y80512D02*
D03*
Y77362D02*
D03*
Y74213D02*
D03*
Y71063D02*
D03*
Y67913D02*
D03*
Y64764D02*
D03*
Y61614D02*
D03*
Y58465D02*
D03*
Y55315D02*
D03*
Y52165D02*
D03*
X192027D02*
D03*
Y55315D02*
D03*
Y58465D02*
D03*
Y61614D02*
D03*
Y64764D02*
D03*
Y67913D02*
D03*
Y71063D02*
D03*
Y74213D02*
D03*
Y77362D02*
D03*
Y80512D02*
D03*
Y83661D02*
D03*
D23*
X256799Y64862D02*
D03*
X250689D02*
D03*
D24*
X25394Y101279D02*
D03*
Y96279D02*
D03*
Y91279D02*
D03*
Y86279D02*
D03*
Y81279D02*
D03*
Y76279D02*
D03*
Y71279D02*
D03*
Y66279D02*
D03*
Y61279D02*
D03*
Y56279D02*
D03*
Y51279D02*
D03*
Y46279D02*
D03*
Y41279D02*
D03*
Y36279D02*
D03*
X61614D02*
D03*
Y41279D02*
D03*
Y46279D02*
D03*
Y51279D02*
D03*
Y56279D02*
D03*
Y61279D02*
D03*
Y66279D02*
D03*
Y71279D02*
D03*
Y76279D02*
D03*
Y81279D02*
D03*
Y86279D02*
D03*
Y91279D02*
D03*
Y96279D02*
D03*
Y101279D02*
D03*
D25*
X342480Y98917D02*
D03*
X347480D02*
D03*
X352480D02*
D03*
X357480D02*
D03*
X362480D02*
D03*
X367480D02*
D03*
X372480D02*
D03*
X377480D02*
D03*
X382480D02*
D03*
X387480D02*
D03*
X392480D02*
D03*
X397480D02*
D03*
X342480Y136319D02*
D03*
X347480D02*
D03*
X352480D02*
D03*
X357480D02*
D03*
X362480D02*
D03*
X367480D02*
D03*
X372480D02*
D03*
X377480D02*
D03*
X382480D02*
D03*
X387480D02*
D03*
X392480D02*
D03*
X397480D02*
D03*
D26*
X120813Y71791D02*
D03*
X114711D02*
D03*
X217618Y97736D02*
D03*
X211516D02*
D03*
X148425Y151772D02*
D03*
X154527D02*
D03*
X148327Y139417D02*
D03*
X154429D02*
D03*
X327362Y220571D02*
D03*
X321260D02*
D03*
X343406Y219193D02*
D03*
X349508D02*
D03*
X349508Y198622D02*
D03*
X343406D02*
D03*
X381890Y220571D02*
D03*
X387992D02*
D03*
X367028Y197047D02*
D03*
X373130D02*
D03*
X385728Y197047D02*
D03*
X391831D02*
D03*
X364370Y91142D02*
D03*
X358268D02*
D03*
X215059Y38189D02*
D03*
X221161D02*
D03*
X208110Y19094D02*
D03*
X202008D02*
D03*
X57579Y121161D02*
D03*
X63681D02*
D03*
Y108760D02*
D03*
X57579D02*
D03*
Y114961D02*
D03*
X63681D02*
D03*
D27*
X184843Y71063D02*
D03*
Y64961D02*
D03*
X52457Y29248D02*
D03*
Y23146D02*
D03*
X225098Y125197D02*
D03*
Y131299D02*
D03*
X190256D02*
D03*
Y125197D02*
D03*
X41535Y160236D02*
D03*
Y154134D02*
D03*
X35335D02*
D03*
Y160236D02*
D03*
X41535Y172343D02*
D03*
Y166240D02*
D03*
X29134Y160236D02*
D03*
Y154134D02*
D03*
Y166240D02*
D03*
Y172343D02*
D03*
X359882Y202756D02*
D03*
Y208858D02*
D03*
X335039Y136319D02*
D03*
Y130217D02*
D03*
X304527Y51575D02*
D03*
Y57677D02*
D03*
X268996Y59646D02*
D03*
Y53543D02*
D03*
X244587Y64665D02*
D03*
Y70768D02*
D03*
X77165Y159095D02*
D03*
Y152992D02*
D03*
Y144095D02*
D03*
Y137992D02*
D03*
X111713Y110494D02*
D03*
Y116596D02*
D03*
X105512D02*
D03*
Y110494D02*
D03*
X108465Y131791D02*
D03*
Y137894D02*
D03*
X101865D02*
D03*
Y131791D02*
D03*
X70079Y91279D02*
D03*
Y85177D02*
D03*
X16240Y76279D02*
D03*
Y70177D02*
D03*
X7382Y63681D02*
D03*
Y57579D02*
D03*
X25394Y114370D02*
D03*
Y108268D02*
D03*
X19193D02*
D03*
Y114370D02*
D03*
X41535Y126969D02*
D03*
Y133071D02*
D03*
Y139094D02*
D03*
Y145197D02*
D03*
X25984Y132480D02*
D03*
Y138583D02*
D03*
D28*
X38579Y29248D02*
D03*
X46059D02*
D03*
Y19406D02*
D03*
X42319D02*
D03*
X38579D02*
D03*
D29*
X235728Y167717D02*
D03*
X220965D02*
D03*
D30*
X241831Y125197D02*
D03*
Y145050D02*
D03*
D31*
X186839Y167717D02*
D03*
X206693D02*
D03*
X133071Y77658D02*
D03*
X152924D02*
D03*
X151787Y122835D02*
D03*
X131933D02*
D03*
D32*
X207677Y125197D02*
D03*
X216732D02*
D03*
X198622D02*
D03*
D33*
X207677Y148228D02*
D03*
D34*
X92071Y157441D02*
D03*
Y167441D02*
D03*
Y187441D02*
D03*
Y177441D02*
D03*
X119630D02*
D03*
Y187441D02*
D03*
Y167441D02*
D03*
Y157441D02*
D03*
D35*
X250650Y33416D02*
D03*
X262264D02*
D03*
X138189Y33858D02*
D03*
X126575D02*
D03*
X415512Y88976D02*
D03*
X427126D02*
D03*
D36*
X70079Y129095D02*
D03*
Y134095D02*
D03*
Y139094D02*
D03*
Y144095D02*
D03*
Y149094D02*
D03*
Y154095D02*
D03*
Y159095D02*
D03*
X48622Y129095D02*
D03*
Y134095D02*
D03*
Y139094D02*
D03*
Y144095D02*
D03*
Y149094D02*
D03*
Y154095D02*
D03*
Y159095D02*
D03*
X364370Y49902D02*
D03*
Y54902D02*
D03*
Y59902D02*
D03*
Y64902D02*
D03*
Y69902D02*
D03*
Y74902D02*
D03*
Y79902D02*
D03*
Y84902D02*
D03*
X343307Y49902D02*
D03*
Y54902D02*
D03*
Y59902D02*
D03*
Y64902D02*
D03*
Y69902D02*
D03*
Y74902D02*
D03*
Y79902D02*
D03*
Y84902D02*
D03*
X297539Y53524D02*
D03*
Y58524D02*
D03*
Y63524D02*
D03*
Y68524D02*
D03*
X276083Y53524D02*
D03*
Y58524D02*
D03*
Y63524D02*
D03*
Y68524D02*
D03*
D37*
X128465Y151772D02*
D03*
X138465D02*
D03*
X128465Y177362D02*
D03*
X138465D02*
D03*
D38*
X129606Y141976D02*
D03*
X138465Y144535D02*
D03*
Y139417D02*
D03*
D39*
X151787Y106004D02*
D03*
Y94390D02*
D03*
X142402Y106004D02*
D03*
Y94390D02*
D03*
X133071Y106004D02*
D03*
Y94390D02*
D03*
X404331Y76279D02*
D03*
Y64665D02*
D03*
X33773Y138583D02*
D03*
Y126969D02*
D03*
D40*
X343406Y205118D02*
D03*
Y212598D02*
D03*
X353248D02*
D03*
Y208858D02*
D03*
Y205118D02*
D03*
D41*
X399213Y212894D02*
D03*
Y203839D02*
D03*
D42*
X367028Y203858D02*
D03*
Y208858D02*
D03*
Y213858D02*
D03*
X391831Y203858D02*
D03*
Y213858D02*
D03*
D43*
X89995Y129095D02*
D03*
Y143046D02*
D03*
X93539Y102645D02*
D03*
Y116596D02*
D03*
X75787Y102645D02*
D03*
Y116596D02*
D03*
X17028Y154134D02*
D03*
Y168085D02*
D03*
D44*
X119630Y148819D02*
D03*
X110575D02*
D03*
D45*
X77854Y80177D02*
D03*
Y91279D02*
D03*
X14665Y100177D02*
D03*
Y89075D02*
D03*
D46*
X48622Y114370D02*
D03*
X34671D02*
D03*
M02*
