G04*
G04 #@! TF.GenerationSoftware,Altium Limited,Altium Designer,20.1.11 (218)*
G04*
G04 Layer_Color=8388736*
%FSLAX25Y25*%
%MOIN*%
G70*
G04*
G04 #@! TF.SameCoordinates,FE814F26-7F82-419D-9895-0DDABB92EEBD*
G04*
G04*
G04 #@! TF.FilePolarity,Negative*
G04*
G01*
G75*
%ADD47R,0.01772X0.06299*%
%ADD48R,0.08071X0.04921*%
%ADD49R,0.02953X0.06496*%
%ADD50R,0.06496X0.02953*%
%ADD51R,0.04213X0.04449*%
%ADD52R,0.09252X0.02953*%
%ADD53R,0.02953X0.08071*%
%ADD54R,0.04134X0.04331*%
%ADD55R,0.04331X0.04134*%
%ADD56R,0.02953X0.05315*%
%ADD57R,0.10433X0.07087*%
%ADD58R,0.06890X0.13189*%
%ADD59R,0.13189X0.06890*%
%ADD60R,0.04134X0.09055*%
%ADD61R,0.13189X0.09055*%
%ADD62R,0.07677X0.03740*%
%ADD63R,0.04921X0.07480*%
%ADD64R,0.06299X0.02953*%
%ADD65R,0.02953X0.06890*%
%ADD66R,0.04134X0.02756*%
%ADD67R,0.07480X0.04921*%
%ADD68R,0.05315X0.02953*%
%ADD69R,0.02165X0.03740*%
%ADD70R,0.05315X0.03740*%
%ADD71R,0.06890X0.10433*%
%ADD72R,0.03740X0.02165*%
%ADD73R,0.05906X0.07677*%
%ADD74R,0.10433X0.06890*%
%ADD75C,0.06102*%
%ADD76C,0.07284*%
%ADD77C,0.07191*%
%ADD78C,0.06591*%
%ADD79R,0.05315X0.05315*%
%ADD80C,0.05315*%
%ADD81R,0.05315X0.05315*%
%ADD82C,0.08859*%
%ADD83C,0.09587*%
%ADD84C,0.10114*%
%ADD85C,0.02756*%
%ADD86C,0.08071*%
%ADD87C,0.03347*%
%ADD88C,0.04134*%
%ADD89C,0.06496*%
D47*
X116680Y96457D02*
D03*
X114711D02*
D03*
X112742D02*
D03*
X110774D02*
D03*
X108806D02*
D03*
Y78937D02*
D03*
X110774D02*
D03*
X112742D02*
D03*
X114711D02*
D03*
X116680D02*
D03*
D48*
X15157Y63681D02*
D03*
Y53838D02*
D03*
D49*
X198917Y90551D02*
D03*
X202067D02*
D03*
X205217D02*
D03*
X208366D02*
D03*
X211516D02*
D03*
X214665D02*
D03*
X217815D02*
D03*
X220965D02*
D03*
X224114D02*
D03*
X227264D02*
D03*
X230413D02*
D03*
Y45276D02*
D03*
X227264D02*
D03*
X224114D02*
D03*
X220965D02*
D03*
X217815D02*
D03*
X214665D02*
D03*
X211516D02*
D03*
X208366D02*
D03*
X205217D02*
D03*
X202067D02*
D03*
X198917D02*
D03*
D50*
X237303Y83661D02*
D03*
Y80512D02*
D03*
Y77362D02*
D03*
Y74213D02*
D03*
Y71063D02*
D03*
Y67913D02*
D03*
Y64764D02*
D03*
Y61614D02*
D03*
Y58465D02*
D03*
Y55315D02*
D03*
Y52165D02*
D03*
X192027D02*
D03*
Y55315D02*
D03*
Y58465D02*
D03*
Y61614D02*
D03*
Y64764D02*
D03*
Y67913D02*
D03*
Y71063D02*
D03*
Y74213D02*
D03*
Y77362D02*
D03*
Y80512D02*
D03*
Y83661D02*
D03*
D51*
X256799Y64862D02*
D03*
X250689D02*
D03*
D52*
X25394Y101279D02*
D03*
Y96279D02*
D03*
Y91279D02*
D03*
Y86279D02*
D03*
Y81279D02*
D03*
Y76279D02*
D03*
Y71279D02*
D03*
Y66279D02*
D03*
Y61279D02*
D03*
Y56279D02*
D03*
Y51279D02*
D03*
Y46279D02*
D03*
Y41279D02*
D03*
Y36279D02*
D03*
X61614D02*
D03*
Y41279D02*
D03*
Y46279D02*
D03*
Y51279D02*
D03*
Y56279D02*
D03*
Y61279D02*
D03*
Y66279D02*
D03*
Y71279D02*
D03*
Y76279D02*
D03*
Y81279D02*
D03*
Y86279D02*
D03*
Y91279D02*
D03*
Y96279D02*
D03*
Y101279D02*
D03*
D53*
X342480Y98917D02*
D03*
X347480D02*
D03*
X352480D02*
D03*
X357480D02*
D03*
X362480D02*
D03*
X367480D02*
D03*
X372480D02*
D03*
X377480D02*
D03*
X382480D02*
D03*
X387480D02*
D03*
X392480D02*
D03*
X397480D02*
D03*
X342480Y136319D02*
D03*
X347480D02*
D03*
X352480D02*
D03*
X357480D02*
D03*
X362480D02*
D03*
X367480D02*
D03*
X372480D02*
D03*
X377480D02*
D03*
X382480D02*
D03*
X387480D02*
D03*
X392480D02*
D03*
X397480D02*
D03*
D54*
X120813Y71791D02*
D03*
X114711D02*
D03*
X217618Y97736D02*
D03*
X211516D02*
D03*
X148425Y151772D02*
D03*
X154527D02*
D03*
X148327Y139417D02*
D03*
X154429D02*
D03*
X327362Y220571D02*
D03*
X321260D02*
D03*
X343406Y219193D02*
D03*
X349508D02*
D03*
X349508Y198622D02*
D03*
X343406D02*
D03*
X381890Y220571D02*
D03*
X387992D02*
D03*
X367028Y197047D02*
D03*
X373130D02*
D03*
X385728Y197047D02*
D03*
X391831D02*
D03*
X364370Y91142D02*
D03*
X358268D02*
D03*
X215059Y38189D02*
D03*
X221161D02*
D03*
X208110Y19094D02*
D03*
X202008D02*
D03*
X57579Y121161D02*
D03*
X63681D02*
D03*
Y108760D02*
D03*
X57579D02*
D03*
Y114961D02*
D03*
X63681D02*
D03*
D55*
X184843Y71063D02*
D03*
Y64961D02*
D03*
X52457Y29248D02*
D03*
Y23146D02*
D03*
X225098Y125197D02*
D03*
Y131299D02*
D03*
X190256D02*
D03*
Y125197D02*
D03*
X41535Y160236D02*
D03*
Y154134D02*
D03*
X35335D02*
D03*
Y160236D02*
D03*
X41535Y172343D02*
D03*
Y166240D02*
D03*
X29134Y160236D02*
D03*
Y154134D02*
D03*
Y166240D02*
D03*
Y172343D02*
D03*
X359882Y202756D02*
D03*
Y208858D02*
D03*
X335039Y136319D02*
D03*
Y130217D02*
D03*
X304527Y51575D02*
D03*
Y57677D02*
D03*
X268996Y59646D02*
D03*
Y53543D02*
D03*
X244587Y64665D02*
D03*
Y70768D02*
D03*
X77165Y159095D02*
D03*
Y152992D02*
D03*
Y144095D02*
D03*
Y137992D02*
D03*
X111713Y110494D02*
D03*
Y116596D02*
D03*
X105512D02*
D03*
Y110494D02*
D03*
X108465Y131791D02*
D03*
Y137894D02*
D03*
X101865D02*
D03*
Y131791D02*
D03*
X70079Y91279D02*
D03*
Y85177D02*
D03*
X16240Y76279D02*
D03*
Y70177D02*
D03*
X7382Y63681D02*
D03*
Y57579D02*
D03*
X25394Y114370D02*
D03*
Y108268D02*
D03*
X19193D02*
D03*
Y114370D02*
D03*
X41535Y126969D02*
D03*
Y133071D02*
D03*
Y139094D02*
D03*
Y145197D02*
D03*
X25984Y132480D02*
D03*
Y138583D02*
D03*
D56*
X38579Y29248D02*
D03*
X46059D02*
D03*
Y19406D02*
D03*
X42319D02*
D03*
X38579D02*
D03*
D57*
X235728Y167717D02*
D03*
X220965D02*
D03*
D58*
X241831Y125197D02*
D03*
Y145050D02*
D03*
D59*
X186839Y167717D02*
D03*
X206693D02*
D03*
X133071Y77658D02*
D03*
X152924D02*
D03*
X151787Y122835D02*
D03*
X131933D02*
D03*
D60*
X207677Y125197D02*
D03*
X216732D02*
D03*
X198622D02*
D03*
D61*
X207677Y148228D02*
D03*
D62*
X92071Y157441D02*
D03*
Y167441D02*
D03*
Y187441D02*
D03*
Y177441D02*
D03*
X119630D02*
D03*
Y187441D02*
D03*
Y167441D02*
D03*
Y157441D02*
D03*
D63*
X250650Y33416D02*
D03*
X262264D02*
D03*
X138189Y33858D02*
D03*
X126575D02*
D03*
X415512Y88976D02*
D03*
X427126D02*
D03*
D64*
X70079Y129095D02*
D03*
Y134095D02*
D03*
Y139094D02*
D03*
Y144095D02*
D03*
Y149094D02*
D03*
Y154095D02*
D03*
Y159095D02*
D03*
X48622Y129095D02*
D03*
Y134095D02*
D03*
Y139094D02*
D03*
Y144095D02*
D03*
Y149094D02*
D03*
Y154095D02*
D03*
Y159095D02*
D03*
X364370Y49902D02*
D03*
Y54902D02*
D03*
Y59902D02*
D03*
Y64902D02*
D03*
Y69902D02*
D03*
Y74902D02*
D03*
Y79902D02*
D03*
Y84902D02*
D03*
X343307Y49902D02*
D03*
Y54902D02*
D03*
Y59902D02*
D03*
Y64902D02*
D03*
Y69902D02*
D03*
Y74902D02*
D03*
Y79902D02*
D03*
Y84902D02*
D03*
X297539Y53524D02*
D03*
Y58524D02*
D03*
Y63524D02*
D03*
Y68524D02*
D03*
X276083Y53524D02*
D03*
Y58524D02*
D03*
Y63524D02*
D03*
Y68524D02*
D03*
D65*
X128465Y151772D02*
D03*
X138465D02*
D03*
X128465Y177362D02*
D03*
X138465D02*
D03*
D66*
X129606Y141976D02*
D03*
X138465Y144535D02*
D03*
Y139417D02*
D03*
D67*
X151787Y106004D02*
D03*
Y94390D02*
D03*
X142402Y106004D02*
D03*
Y94390D02*
D03*
X133071Y106004D02*
D03*
Y94390D02*
D03*
X404331Y76279D02*
D03*
Y64665D02*
D03*
X33773Y138583D02*
D03*
Y126969D02*
D03*
D68*
X343406Y205118D02*
D03*
Y212598D02*
D03*
X353248D02*
D03*
Y208858D02*
D03*
Y205118D02*
D03*
D69*
X399213Y212894D02*
D03*
Y203839D02*
D03*
D70*
X367028Y203858D02*
D03*
Y208858D02*
D03*
Y213858D02*
D03*
X391831Y203858D02*
D03*
Y213858D02*
D03*
D71*
X89995Y129095D02*
D03*
Y143046D02*
D03*
X93539Y102645D02*
D03*
Y116596D02*
D03*
X75787Y102645D02*
D03*
Y116596D02*
D03*
X17028Y154134D02*
D03*
Y168085D02*
D03*
D72*
X119630Y148819D02*
D03*
X110575D02*
D03*
D73*
X77854Y80177D02*
D03*
Y91279D02*
D03*
X14665Y100177D02*
D03*
Y89075D02*
D03*
D74*
X48622Y114370D02*
D03*
X34671D02*
D03*
D75*
X308898Y150000D02*
D03*
X318898D02*
D03*
X328898D02*
D03*
X308898Y169685D02*
D03*
X318898D02*
D03*
X328898D02*
D03*
X308740Y189370D02*
D03*
X318740D02*
D03*
X328740D02*
D03*
X308898Y209055D02*
D03*
X318898D02*
D03*
X328898D02*
D03*
X430276Y209055D02*
D03*
X420276D02*
D03*
X410276D02*
D03*
X408464Y29094D02*
D03*
Y19094D02*
D03*
Y9094D02*
D03*
X430276Y189370D02*
D03*
X420276D02*
D03*
X410276D02*
D03*
X388779Y29094D02*
D03*
Y19094D02*
D03*
Y9094D02*
D03*
X430276Y169685D02*
D03*
X420276D02*
D03*
X410276D02*
D03*
X369094Y29094D02*
D03*
Y19094D02*
D03*
Y9094D02*
D03*
X430276Y150000D02*
D03*
X420276D02*
D03*
X410276D02*
D03*
X349409Y29094D02*
D03*
Y19094D02*
D03*
Y9094D02*
D03*
D76*
X57480Y188583D02*
D03*
X67323D02*
D03*
X77165D02*
D03*
X169095Y169488D02*
D03*
X159252D02*
D03*
X149409D02*
D03*
X280512Y130118D02*
D03*
Y139961D02*
D03*
Y149803D02*
D03*
X149409Y188583D02*
D03*
X159252D02*
D03*
X169095D02*
D03*
X241142D02*
D03*
X250984D02*
D03*
X260827D02*
D03*
D77*
X176772Y10531D02*
D03*
X166772D02*
D03*
X47657Y10614D02*
D03*
X37657D02*
D03*
X17658D02*
D03*
X27657D02*
D03*
X208110Y10531D02*
D03*
X218110D02*
D03*
X238110D02*
D03*
X228110D02*
D03*
X198110D02*
D03*
X188110D02*
D03*
D78*
X329508Y14862D02*
D03*
X319508D02*
D03*
X270236D02*
D03*
X260236D02*
D03*
X143071Y14961D02*
D03*
X133071D02*
D03*
X209842Y193307D02*
D03*
X199843D02*
D03*
X83346Y14961D02*
D03*
X73347D02*
D03*
D79*
X294882Y28775D02*
D03*
X108160Y28775D02*
D03*
D80*
X304882Y18775D02*
D03*
X294882Y8775D02*
D03*
X417126Y99016D02*
D03*
X407126Y109016D02*
D03*
X385335Y79902D02*
D03*
X395335Y69902D02*
D03*
X118160Y18775D02*
D03*
X108160Y8775D02*
D03*
D81*
X427126Y109016D02*
D03*
X375335Y69902D02*
D03*
D82*
X178071Y210039D02*
D03*
X114173D02*
D03*
X178071Y260039D02*
D03*
X114173D02*
D03*
X178071Y235039D02*
D03*
X114173D02*
D03*
X94941Y210039D02*
D03*
X31043D02*
D03*
X94941Y260039D02*
D03*
X31043D02*
D03*
X94941Y235039D02*
D03*
X31043D02*
D03*
X295276Y210039D02*
D03*
X231378D02*
D03*
X295276Y260039D02*
D03*
X231378D02*
D03*
X295276Y235039D02*
D03*
X231378D02*
D03*
D83*
X338583Y232480D02*
D03*
X327362Y235630D02*
D03*
X349803D02*
D03*
X393110D02*
D03*
X370669D02*
D03*
X381890Y232480D02*
D03*
D84*
X325590Y267126D02*
D03*
X351575D02*
D03*
X394882D02*
D03*
X368898D02*
D03*
D85*
X338583Y273031D02*
D03*
Y245472D02*
D03*
X381890D02*
D03*
Y273031D02*
D03*
D86*
X397441Y189370D02*
D03*
Y169685D02*
D03*
X340354Y179527D02*
D03*
Y189370D02*
D03*
Y169685D02*
D03*
D87*
X282476Y83563D02*
D03*
X166142Y32874D02*
D03*
X208110Y26890D02*
D03*
X120544Y78937D02*
D03*
X108563Y85925D02*
D03*
X212992Y69494D02*
D03*
X287858Y78569D02*
D03*
X282476Y70368D02*
D03*
X291142Y69289D02*
D03*
X253724Y78569D02*
D03*
X224115D02*
D03*
X229331Y73223D02*
D03*
X267126Y69902D02*
D03*
X262803Y74213D02*
D03*
Y83563D02*
D03*
X202698Y51772D02*
D03*
Y57500D02*
D03*
X218799Y83563D02*
D03*
X92071Y183292D02*
D03*
X85876Y177455D02*
D03*
X117172Y116596D02*
D03*
X387480Y46457D02*
D03*
X381890D02*
D03*
X375984D02*
D03*
X357480D02*
D03*
X297243Y199212D02*
D03*
X326015Y86221D02*
D03*
X116680Y133169D02*
D03*
X33773Y146929D02*
D03*
X323276Y52165D02*
D03*
X70079Y61279D02*
D03*
Y66279D02*
D03*
Y71279D02*
D03*
X190236Y90551D02*
D03*
X85728Y102645D02*
D03*
X50984Y107185D02*
D03*
X191432Y33071D02*
D03*
X195650Y37402D02*
D03*
X187311Y28799D02*
D03*
X336411Y120866D02*
D03*
X313794Y130399D02*
D03*
X325295Y125295D02*
D03*
X377480Y151575D02*
D03*
X372480Y147539D02*
D03*
X367421Y143405D02*
D03*
X382480Y151575D02*
D03*
X387480Y147539D02*
D03*
X392480Y143405D02*
D03*
X401850Y136319D02*
D03*
X202698Y62992D02*
D03*
X180236Y57500D02*
D03*
X180709Y51968D02*
D03*
X181023Y46279D02*
D03*
X202067Y71398D02*
D03*
X283563Y107972D02*
D03*
D88*
X202008Y24705D02*
D03*
X114711Y66279D02*
D03*
X389366Y126775D02*
D03*
X119630Y144488D02*
D03*
X159055Y94390D02*
D03*
X58071Y29248D02*
D03*
X27657Y25591D02*
D03*
X370079Y91142D02*
D03*
X314961Y220571D02*
D03*
X366967Y191142D02*
D03*
X359822Y197047D02*
D03*
X337932Y198622D02*
D03*
X179429Y71063D02*
D03*
X217618Y103150D02*
D03*
X55020Y149094D02*
D03*
X63681D02*
D03*
X63386Y126083D02*
D03*
X133071Y87599D02*
D03*
X82579Y144095D02*
D03*
X151787Y114173D02*
D03*
X17520Y41279D02*
D03*
X70079Y79882D02*
D03*
X10827Y76279D02*
D03*
X329641Y136319D02*
D03*
X215551Y33268D02*
D03*
X304523Y63524D02*
D03*
X256799Y70177D02*
D03*
X282476Y58524D02*
D03*
X263533Y53519D02*
D03*
D89*
X206693Y176378D02*
D03*
X183858Y125197D02*
D03*
X232283Y125197D02*
D03*
M02*
