G04*
G04 #@! TF.GenerationSoftware,Altium Limited,Altium Designer,20.1.11 (218)*
G04*
G04 Layer_Physical_Order=1*
G04 Layer_Color=255*
%FSLAX25Y25*%
%MOIN*%
G70*
G04*
G04 #@! TF.SameCoordinates,FE814F26-7F82-419D-9895-0DDABB92EEBD*
G04*
G04*
G04 #@! TF.FilePolarity,Positive*
G04*
G01*
G75*
%ADD19R,0.01181X0.05709*%
%ADD20R,0.07480X0.04331*%
%ADD21R,0.02362X0.05906*%
%ADD22R,0.05906X0.02362*%
%ADD23R,0.03622X0.03858*%
%ADD24R,0.08661X0.02362*%
%ADD25R,0.02362X0.07480*%
%ADD26R,0.03543X0.03740*%
%ADD27R,0.03740X0.03543*%
%ADD28R,0.02362X0.04724*%
%ADD29R,0.09843X0.06496*%
%ADD30R,0.06299X0.12598*%
%ADD31R,0.12598X0.06299*%
%ADD32R,0.03543X0.08465*%
%ADD33R,0.12598X0.08465*%
%ADD34R,0.07087X0.03150*%
%ADD35R,0.04331X0.06890*%
%ADD36R,0.05709X0.02362*%
%ADD37R,0.02362X0.06299*%
%ADD38R,0.03543X0.02165*%
%ADD39R,0.06890X0.04331*%
%ADD40R,0.04724X0.02362*%
%ADD41R,0.01575X0.03150*%
%ADD42R,0.04724X0.03150*%
%ADD43R,0.06299X0.09843*%
%ADD44R,0.03150X0.01575*%
%ADD45R,0.05315X0.07087*%
%ADD46R,0.09843X0.06299*%
%ADD85C,0.02756*%
%ADD90C,0.00598*%
%ADD91C,0.01000*%
%ADD92C,0.02402*%
%ADD93C,0.03201*%
%ADD94C,0.01598*%
%ADD95C,0.02400*%
%ADD96C,0.01626*%
%ADD97C,0.03200*%
%ADD98C,0.01600*%
%ADD99C,0.02366*%
%ADD100C,0.02000*%
%ADD101C,0.05512*%
%ADD102C,0.06693*%
%ADD103C,0.06600*%
%ADD104C,0.06000*%
%ADD105R,0.04724X0.04724*%
%ADD106C,0.04724*%
%ADD107R,0.04724X0.04724*%
%ADD108C,0.08268*%
%ADD109C,0.08996*%
%ADD110C,0.09524*%
%ADD111C,0.02165*%
%ADD112C,0.07480*%
%ADD113C,0.03543*%
%ADD114C,0.05906*%
G36*
X412575Y254331D02*
X412637Y254020D01*
X412813Y253757D01*
X413075Y253582D01*
X413386Y253520D01*
X436197D01*
X436197Y811D01*
X811D01*
X811Y253520D01*
X23622D01*
X23932Y253582D01*
X24195Y253757D01*
X24371Y254020D01*
X24433Y254331D01*
Y281079D01*
X168095D01*
Y275984D01*
X168156Y275677D01*
X168330Y275417D01*
X168590Y275243D01*
X168898Y275182D01*
X184229D01*
Y226772D01*
X184290Y226461D01*
X184466Y226198D01*
X184729Y226023D01*
X185039Y225961D01*
X224375D01*
X224685Y226023D01*
X224948Y226198D01*
X225124Y226461D01*
X225186Y226772D01*
Y275182D01*
X240945D01*
X241252Y275243D01*
X241512Y275417D01*
X241687Y275677D01*
X241748Y275984D01*
Y281079D01*
X412575D01*
Y254331D01*
D02*
G37*
%LPC*%
G36*
X381890Y276423D02*
X381012Y276307D01*
X380194Y275968D01*
X379492Y275429D01*
X378953Y274727D01*
X378614Y273909D01*
X378499Y273031D01*
X378614Y272154D01*
X378953Y271336D01*
X379492Y270634D01*
X380194Y270095D01*
X381012Y269756D01*
X381890Y269640D01*
X382768Y269756D01*
X383585Y270095D01*
X384288Y270634D01*
X384827Y271336D01*
X385165Y272154D01*
X385281Y273031D01*
X385165Y273909D01*
X384827Y274727D01*
X384288Y275429D01*
X383585Y275968D01*
X382768Y276307D01*
X381890Y276423D01*
D02*
G37*
G36*
X338583D02*
X337705Y276307D01*
X336887Y275968D01*
X336185Y275429D01*
X335646Y274727D01*
X335307Y273909D01*
X335191Y273031D01*
X335307Y272154D01*
X335646Y271336D01*
X336185Y270634D01*
X336887Y270095D01*
X337705Y269756D01*
X338583Y269640D01*
X339460Y269756D01*
X340278Y270095D01*
X340981Y270634D01*
X341519Y271336D01*
X341858Y272154D01*
X341974Y273031D01*
X341858Y273909D01*
X341519Y274727D01*
X340981Y275429D01*
X340278Y275968D01*
X339460Y276307D01*
X338583Y276423D01*
D02*
G37*
G36*
X394882Y272937D02*
X393378Y272740D01*
X391976Y272159D01*
X390773Y271235D01*
X389849Y270032D01*
X389268Y268630D01*
X389191Y268041D01*
X374589D01*
X374511Y268630D01*
X373931Y270032D01*
X373007Y271235D01*
X371803Y272159D01*
X370402Y272740D01*
X368898Y272937D01*
X367393Y272740D01*
X365992Y272159D01*
X364788Y271235D01*
X363865Y270032D01*
X363284Y268630D01*
X363086Y267126D01*
X363284Y265622D01*
X363865Y264220D01*
X364788Y263017D01*
X365992Y262093D01*
X367393Y261512D01*
X368898Y261314D01*
X370402Y261512D01*
X371803Y262093D01*
X373007Y263017D01*
X373931Y264220D01*
X374511Y265622D01*
X374589Y266211D01*
X389191D01*
X389268Y265622D01*
X389849Y264220D01*
X390773Y263017D01*
X391976Y262093D01*
X393378Y261512D01*
X394882Y261314D01*
X396386Y261512D01*
X397788Y262093D01*
X398259Y262455D01*
X400364Y260349D01*
Y215268D01*
X397626D01*
Y213962D01*
X394992D01*
Y216232D01*
X388669D01*
Y211484D01*
X394992D01*
Y212132D01*
X397626D01*
Y210520D01*
X400799D01*
Y212182D01*
X400897Y212202D01*
X401194Y212400D01*
X401927Y213132D01*
X401927Y213132D01*
X402125Y213429D01*
X402195Y213779D01*
X402195Y213780D01*
Y260728D01*
X402195Y260728D01*
X402125Y261079D01*
X401927Y261375D01*
X401927Y261375D01*
X399553Y263749D01*
X399915Y264220D01*
X400495Y265622D01*
X400693Y267126D01*
X400495Y268630D01*
X399915Y270032D01*
X398991Y271235D01*
X397788Y272159D01*
X396386Y272740D01*
X394882Y272937D01*
D02*
G37*
G36*
X351575D02*
X350071Y272740D01*
X348669Y272159D01*
X347465Y271235D01*
X346542Y270032D01*
X345961Y268630D01*
X345884Y268041D01*
X331282D01*
X331204Y268630D01*
X330624Y270032D01*
X329700Y271235D01*
X328496Y272159D01*
X327095Y272740D01*
X325590Y272937D01*
X324086Y272740D01*
X322685Y272159D01*
X321481Y271235D01*
X320558Y270032D01*
X319977Y268630D01*
X319779Y267126D01*
X319977Y265622D01*
X320558Y264220D01*
X321481Y263017D01*
X322685Y262093D01*
X324086Y261512D01*
X325590Y261314D01*
X327095Y261512D01*
X328496Y262093D01*
X329700Y263017D01*
X330624Y264220D01*
X331204Y265622D01*
X331282Y266211D01*
X345884D01*
X345961Y265622D01*
X346542Y264220D01*
X347465Y263017D01*
X348669Y262093D01*
X350071Y261512D01*
X351575Y261314D01*
X353079Y261512D01*
X354481Y262093D01*
X354952Y262455D01*
X359321Y258085D01*
Y226462D01*
X352967Y220108D01*
X352079D01*
Y221862D01*
X346937D01*
Y216524D01*
X352079D01*
Y218278D01*
X353346D01*
X353346Y218278D01*
X353697Y218347D01*
X353994Y218546D01*
X360883Y225435D01*
X360883Y225435D01*
X361082Y225732D01*
X361152Y226083D01*
X361151Y226083D01*
Y258465D01*
X361082Y258815D01*
X360883Y259112D01*
X360883Y259112D01*
X356246Y263749D01*
X356608Y264220D01*
X357188Y265622D01*
X357386Y267126D01*
X357188Y268630D01*
X356608Y270032D01*
X355684Y271235D01*
X354481Y272159D01*
X353079Y272740D01*
X351575Y272937D01*
D02*
G37*
G36*
X114673Y265152D02*
Y260539D01*
X119286D01*
X119175Y261380D01*
X118658Y262629D01*
X117835Y263701D01*
X116762Y264524D01*
X115514Y265041D01*
X114673Y265152D01*
D02*
G37*
G36*
X113673D02*
X112833Y265041D01*
X111584Y264524D01*
X110512Y263701D01*
X109689Y262629D01*
X109171Y261380D01*
X109061Y260539D01*
X113673D01*
Y265152D01*
D02*
G37*
G36*
X31543D02*
Y260539D01*
X36156D01*
X36045Y261380D01*
X35528Y262629D01*
X34705Y263701D01*
X33632Y264524D01*
X32383Y265041D01*
X31543Y265152D01*
D02*
G37*
G36*
X30543D02*
X29703Y265041D01*
X28454Y264524D01*
X27382Y263701D01*
X26559Y262629D01*
X26041Y261380D01*
X25931Y260539D01*
X30543D01*
Y265152D01*
D02*
G37*
G36*
X231878D02*
Y260539D01*
X236490D01*
X236379Y261380D01*
X235862Y262629D01*
X235039Y263701D01*
X233967Y264524D01*
X232718Y265041D01*
X231878Y265152D01*
D02*
G37*
G36*
X230878Y265152D02*
X230037Y265041D01*
X228788Y264524D01*
X227716Y263701D01*
X226893Y262629D01*
X226376Y261380D01*
X226265Y260539D01*
X230878D01*
Y265152D01*
D02*
G37*
G36*
X236490Y259539D02*
X231878D01*
Y254927D01*
X232718Y255037D01*
X233967Y255555D01*
X235039Y256378D01*
X235862Y257450D01*
X236379Y258699D01*
X236490Y259539D01*
D02*
G37*
G36*
X36156Y259539D02*
X31543D01*
Y254927D01*
X32383Y255037D01*
X33632Y255555D01*
X34705Y256378D01*
X35528Y257450D01*
X36045Y258699D01*
X36156Y259539D01*
D02*
G37*
G36*
X113673Y259539D02*
X109061D01*
X109171Y258699D01*
X109689Y257450D01*
X110512Y256378D01*
X111584Y255555D01*
X112833Y255037D01*
X113673Y254927D01*
Y259539D01*
D02*
G37*
G36*
X119286D02*
X114673D01*
Y254927D01*
X115514Y255037D01*
X116762Y255555D01*
X117835Y256378D01*
X118658Y257450D01*
X119175Y258699D01*
X119286Y259539D01*
D02*
G37*
G36*
X30543Y259539D02*
X25931D01*
X26041Y258699D01*
X26559Y257450D01*
X27382Y256378D01*
X28454Y255555D01*
X29703Y255037D01*
X30543Y254927D01*
Y259539D01*
D02*
G37*
G36*
X230878Y259539D02*
X226265D01*
X226376Y258699D01*
X226893Y257450D01*
X227716Y256378D01*
X228788Y255555D01*
X230037Y255037D01*
X230878Y254927D01*
Y259539D01*
D02*
G37*
G36*
X295276Y265218D02*
X293935Y265041D01*
X292686Y264524D01*
X291614Y263701D01*
X290791Y262629D01*
X290274Y261380D01*
X290097Y260039D01*
X290274Y258699D01*
X290791Y257450D01*
X291266Y256832D01*
X287739Y253305D01*
X287540Y253008D01*
X287471Y252658D01*
X287471Y252657D01*
Y113174D01*
X284335Y110039D01*
X283563Y110192D01*
X282714Y110023D01*
X281993Y109542D01*
X281512Y108822D01*
X281343Y107972D01*
X281512Y107123D01*
X281993Y106403D01*
X282714Y105922D01*
X283563Y105753D01*
X284413Y105922D01*
X285133Y106403D01*
X285614Y107123D01*
X285783Y107972D01*
X285629Y108744D01*
X289033Y112148D01*
X289033Y112148D01*
X289231Y112445D01*
X289301Y112795D01*
X289301Y112795D01*
Y252278D01*
X292625Y255602D01*
X292686Y255555D01*
X293935Y255037D01*
X295276Y254861D01*
X296616Y255037D01*
X297865Y255555D01*
X298937Y256378D01*
X299760Y257450D01*
X300277Y258699D01*
X300454Y260039D01*
X300277Y261380D01*
X299760Y262629D01*
X298937Y263701D01*
X297865Y264524D01*
X296616Y265041D01*
X295276Y265218D01*
D02*
G37*
G36*
X178071D02*
X176731Y265041D01*
X175482Y264524D01*
X174410Y263701D01*
X173587Y262629D01*
X173069Y261380D01*
X172893Y260039D01*
X173069Y258699D01*
X173587Y257450D01*
X174410Y256378D01*
X175482Y255555D01*
X176731Y255037D01*
X178071Y254861D01*
X179411Y255037D01*
X180660Y255555D01*
X181733Y256378D01*
X182556Y257450D01*
X183073Y258699D01*
X183249Y260039D01*
X183073Y261380D01*
X182556Y262629D01*
X181733Y263701D01*
X180660Y264524D01*
X179411Y265041D01*
X178071Y265218D01*
D02*
G37*
G36*
X94941D02*
X93601Y265041D01*
X92352Y264524D01*
X91280Y263701D01*
X90457Y262629D01*
X89939Y261380D01*
X89763Y260039D01*
X89939Y258699D01*
X90457Y257450D01*
X91280Y256378D01*
X92352Y255555D01*
X93601Y255037D01*
X94941Y254861D01*
X96281Y255037D01*
X97530Y255555D01*
X98603Y256378D01*
X99426Y257450D01*
X99943Y258699D01*
X100119Y260039D01*
X99943Y261380D01*
X99426Y262629D01*
X98603Y263701D01*
X97530Y264524D01*
X96281Y265041D01*
X94941Y265218D01*
D02*
G37*
G36*
X381890Y248864D02*
X381012Y248748D01*
X380194Y248409D01*
X379492Y247870D01*
X378953Y247168D01*
X378614Y246350D01*
X378499Y245472D01*
X378614Y244595D01*
X378953Y243777D01*
X379492Y243074D01*
X380194Y242536D01*
X381012Y242197D01*
X381890Y242081D01*
X382768Y242197D01*
X383585Y242536D01*
X384288Y243074D01*
X384827Y243777D01*
X385165Y244595D01*
X385281Y245472D01*
X385165Y246350D01*
X384827Y247168D01*
X384288Y247870D01*
X383585Y248409D01*
X382768Y248748D01*
X381890Y248864D01*
D02*
G37*
G36*
X338583D02*
X337705Y248748D01*
X336887Y248409D01*
X336185Y247870D01*
X335646Y247168D01*
X335307Y246350D01*
X335191Y245472D01*
X335307Y244595D01*
X335646Y243777D01*
X336185Y243074D01*
X336887Y242536D01*
X337705Y242197D01*
X338583Y242081D01*
X339460Y242197D01*
X340278Y242536D01*
X340981Y243074D01*
X341519Y243777D01*
X341858Y244595D01*
X341974Y245472D01*
X341858Y246350D01*
X341519Y247168D01*
X340981Y247870D01*
X340278Y248409D01*
X339460Y248748D01*
X338583Y248864D01*
D02*
G37*
G36*
X393110Y241175D02*
X391675Y240986D01*
X390337Y240432D01*
X389189Y239551D01*
X388308Y238403D01*
X387919Y237464D01*
X385875D01*
X385173Y237325D01*
X384871Y237123D01*
X384663Y237283D01*
X383325Y237837D01*
X381890Y238026D01*
X380454Y237837D01*
X379117Y237283D01*
X377969Y236402D01*
X377087Y235253D01*
X376533Y233916D01*
X376344Y232480D01*
X376533Y231045D01*
X377087Y229708D01*
X377969Y228559D01*
X379117Y227678D01*
X380055Y227289D01*
Y223240D01*
X379319D01*
Y217902D01*
X384461D01*
Y223240D01*
X383724D01*
Y227289D01*
X384663Y227678D01*
X385811Y228559D01*
X386692Y229708D01*
X387246Y231045D01*
X387435Y232480D01*
X387351Y233123D01*
X387769Y233552D01*
X388035Y233517D01*
X388308Y232857D01*
X389189Y231709D01*
X390337Y230827D01*
X391675Y230273D01*
X393110Y230084D01*
X394546Y230273D01*
X395883Y230827D01*
X397031Y231709D01*
X397913Y232857D01*
X398467Y234195D01*
X398656Y235630D01*
X398467Y237065D01*
X397913Y238403D01*
X397031Y239551D01*
X395883Y240432D01*
X394546Y240986D01*
X393110Y241175D01*
D02*
G37*
G36*
X350303Y241110D02*
Y236130D01*
X355283D01*
X355160Y237065D01*
X354606Y238403D01*
X353724Y239551D01*
X352576Y240432D01*
X351238Y240986D01*
X350303Y241110D01*
D02*
G37*
G36*
X349303D02*
X348368Y240986D01*
X347030Y240432D01*
X345882Y239551D01*
X345001Y238403D01*
X344447Y237065D01*
X344323Y236130D01*
X349303D01*
Y241110D01*
D02*
G37*
G36*
X339083Y237960D02*
Y232980D01*
X344062D01*
X343939Y233916D01*
X343385Y235253D01*
X342504Y236402D01*
X341355Y237283D01*
X340018Y237837D01*
X339083Y237960D01*
D02*
G37*
G36*
X338083D02*
X337147Y237837D01*
X335810Y237283D01*
X334661Y236402D01*
X333780Y235253D01*
X333226Y233916D01*
X333103Y232980D01*
X338083D01*
Y237960D01*
D02*
G37*
G36*
X355283Y235130D02*
X350303D01*
Y230150D01*
X351238Y230273D01*
X352576Y230827D01*
X353724Y231709D01*
X354606Y232857D01*
X355160Y234195D01*
X355283Y235130D01*
D02*
G37*
G36*
X349303D02*
X344323D01*
X344447Y234195D01*
X345001Y232857D01*
X345882Y231709D01*
X347030Y230827D01*
X348368Y230273D01*
X349303Y230150D01*
Y235130D01*
D02*
G37*
G36*
X295276Y240218D02*
X293935Y240041D01*
X292686Y239524D01*
X291614Y238701D01*
X290791Y237629D01*
X290274Y236380D01*
X290097Y235039D01*
X290274Y233699D01*
X290791Y232450D01*
X291614Y231378D01*
X292686Y230555D01*
X293935Y230037D01*
X295276Y229861D01*
X296616Y230037D01*
X297865Y230555D01*
X298937Y231378D01*
X299760Y232450D01*
X300277Y233699D01*
X300454Y235039D01*
X300277Y236380D01*
X299760Y237629D01*
X298937Y238701D01*
X297865Y239524D01*
X296616Y240041D01*
X295276Y240218D01*
D02*
G37*
G36*
X231378D02*
X230037Y240041D01*
X228788Y239524D01*
X227716Y238701D01*
X226893Y237629D01*
X226376Y236380D01*
X226199Y235039D01*
X226376Y233699D01*
X226893Y232450D01*
X227716Y231378D01*
X228788Y230555D01*
X230037Y230037D01*
X231378Y229861D01*
X232718Y230037D01*
X233967Y230555D01*
X235039Y231378D01*
X235862Y232450D01*
X236379Y233699D01*
X236556Y235039D01*
X236379Y236380D01*
X235862Y237629D01*
X235039Y238701D01*
X233967Y239524D01*
X232718Y240041D01*
X231378Y240218D01*
D02*
G37*
G36*
X178071D02*
X176731Y240041D01*
X175482Y239524D01*
X174410Y238701D01*
X173587Y237629D01*
X173069Y236380D01*
X172893Y235039D01*
X173069Y233699D01*
X173587Y232450D01*
X174410Y231378D01*
X175482Y230555D01*
X176731Y230037D01*
X178071Y229861D01*
X179411Y230037D01*
X180660Y230555D01*
X181733Y231378D01*
X182556Y232450D01*
X183073Y233699D01*
X183249Y235039D01*
X183073Y236380D01*
X182556Y237629D01*
X181733Y238701D01*
X180660Y239524D01*
X179411Y240041D01*
X178071Y240218D01*
D02*
G37*
G36*
X114173D02*
X112833Y240041D01*
X111584Y239524D01*
X110512Y238701D01*
X109689Y237629D01*
X109171Y236380D01*
X108995Y235039D01*
X109171Y233699D01*
X109689Y232450D01*
X110512Y231378D01*
X111584Y230555D01*
X112833Y230037D01*
X114173Y229861D01*
X115514Y230037D01*
X116762Y230555D01*
X117835Y231378D01*
X118658Y232450D01*
X119175Y233699D01*
X119351Y235039D01*
X119175Y236380D01*
X118658Y237629D01*
X117835Y238701D01*
X116762Y239524D01*
X115514Y240041D01*
X114173Y240218D01*
D02*
G37*
G36*
X94941D02*
X93601Y240041D01*
X92352Y239524D01*
X91280Y238701D01*
X90457Y237629D01*
X89939Y236380D01*
X89763Y235039D01*
X89939Y233699D01*
X90457Y232450D01*
X91280Y231378D01*
X92352Y230555D01*
X93601Y230037D01*
X94941Y229861D01*
X96281Y230037D01*
X97530Y230555D01*
X98603Y231378D01*
X99426Y232450D01*
X99943Y233699D01*
X100119Y235039D01*
X99943Y236380D01*
X99426Y237629D01*
X98603Y238701D01*
X97530Y239524D01*
X96281Y240041D01*
X94941Y240218D01*
D02*
G37*
G36*
X31043D02*
X29703Y240041D01*
X28454Y239524D01*
X27382Y238701D01*
X26559Y237629D01*
X26041Y236380D01*
X25865Y235039D01*
X26041Y233699D01*
X26559Y232450D01*
X27382Y231378D01*
X28454Y230555D01*
X29703Y230037D01*
X31043Y229861D01*
X32383Y230037D01*
X33632Y230555D01*
X34705Y231378D01*
X35528Y232450D01*
X36045Y233699D01*
X36221Y235039D01*
X36045Y236380D01*
X35528Y237629D01*
X34705Y238701D01*
X33632Y239524D01*
X32383Y240041D01*
X31043Y240218D01*
D02*
G37*
G36*
X344062Y231980D02*
X339083D01*
Y227001D01*
X340018Y227124D01*
X341355Y227678D01*
X342504Y228559D01*
X343385Y229708D01*
X343939Y231045D01*
X344062Y231980D01*
D02*
G37*
G36*
X338083D02*
X333103D01*
X333226Y231045D01*
X333780Y229708D01*
X334661Y228559D01*
X335810Y227678D01*
X337147Y227124D01*
X338083Y227001D01*
Y231980D01*
D02*
G37*
G36*
X323831Y223240D02*
X318689D01*
Y222405D01*
X316793D01*
X316257Y222816D01*
X315632Y223076D01*
X314961Y223164D01*
X314289Y223076D01*
X313664Y222816D01*
X313127Y222404D01*
X312715Y221867D01*
X312456Y221242D01*
X312368Y220571D01*
X312456Y219900D01*
X312715Y219274D01*
X313127Y218737D01*
X313664Y218325D01*
X314289Y218066D01*
X314961Y217978D01*
X315632Y218066D01*
X316257Y218325D01*
X316793Y218736D01*
X318689D01*
Y217902D01*
X323831D01*
Y223240D01*
D02*
G37*
G36*
X390563D02*
X388392D01*
Y220971D01*
X390563D01*
Y223240D01*
D02*
G37*
G36*
X387593D02*
X385421D01*
Y220971D01*
X387593D01*
Y223240D01*
D02*
G37*
G36*
X390563Y220171D02*
X388392D01*
Y217902D01*
X390563D01*
Y220171D01*
D02*
G37*
G36*
X387593D02*
X385421D01*
Y217902D01*
X387593D01*
Y220171D01*
D02*
G37*
G36*
X327362Y241175D02*
X325927Y240986D01*
X324589Y240432D01*
X323441Y239551D01*
X322560Y238403D01*
X322006Y237065D01*
X321817Y235630D01*
X322006Y234195D01*
X322560Y232857D01*
X323441Y231709D01*
X324589Y230827D01*
X325528Y230439D01*
Y223240D01*
X324791D01*
Y217902D01*
X329933D01*
Y223240D01*
X329197D01*
Y230439D01*
X330135Y230827D01*
X331283Y231709D01*
X332165Y232857D01*
X332719Y234195D01*
X332908Y235630D01*
X332719Y237065D01*
X332165Y238403D01*
X331283Y239551D01*
X330135Y240432D01*
X328798Y240986D01*
X327362Y241175D01*
D02*
G37*
G36*
X370189Y216232D02*
X367427D01*
Y214258D01*
X370189D01*
Y216232D01*
D02*
G37*
G36*
X366628D02*
X363866D01*
Y214258D01*
X366628D01*
Y216232D01*
D02*
G37*
G36*
X356410Y214579D02*
X353648D01*
Y212998D01*
X356410D01*
Y214579D01*
D02*
G37*
G36*
X352849D02*
X350087D01*
Y212998D01*
X352849D01*
Y214579D01*
D02*
G37*
G36*
X345976Y221862D02*
X340835D01*
Y216524D01*
X342490D01*
Y214579D01*
X340244D01*
Y210618D01*
X346567D01*
Y214579D01*
X344321D01*
Y216524D01*
X345976D01*
Y221862D01*
D02*
G37*
G36*
X370189Y213459D02*
X367028D01*
X363866D01*
Y211732D01*
X363866Y211358D01*
X363866Y210984D01*
Y209773D01*
X362551D01*
Y211429D01*
X357213D01*
Y209773D01*
X356410D01*
Y212199D01*
X353248D01*
X350087D01*
Y209773D01*
X339173D01*
X338823Y209704D01*
X338526Y209505D01*
X338526Y209505D01*
X329148Y200128D01*
X299250D01*
X298813Y200781D01*
X298093Y201263D01*
X297243Y201432D01*
X296394Y201263D01*
X295674Y200781D01*
X295193Y200061D01*
X295024Y199212D01*
X295193Y198362D01*
X295674Y197642D01*
X296394Y197161D01*
X297243Y196992D01*
X298093Y197161D01*
X298813Y197642D01*
X299251Y198297D01*
X329527D01*
X329528Y198297D01*
X329878Y198367D01*
X330175Y198565D01*
X339552Y207943D01*
X350087D01*
Y203138D01*
X356410D01*
Y207943D01*
X357213D01*
Y206287D01*
X362551D01*
Y207943D01*
X363513D01*
X363866Y207590D01*
X363866Y206358D01*
X363866Y205984D01*
Y201484D01*
X365193D01*
Y199716D01*
X364457D01*
Y194378D01*
X365133D01*
Y192974D01*
X364722Y192438D01*
X364463Y191813D01*
X364374Y191142D01*
X364463Y190471D01*
X364722Y189845D01*
X365134Y189308D01*
X365671Y188896D01*
X366296Y188637D01*
X366967Y188549D01*
X367638Y188637D01*
X368264Y188896D01*
X368801Y189308D01*
X369213Y189845D01*
X369472Y190471D01*
X369560Y191142D01*
X369472Y191813D01*
X369213Y192438D01*
X368802Y192974D01*
Y194378D01*
X369598D01*
Y199716D01*
X368862D01*
Y201484D01*
X370189D01*
Y205984D01*
X370189Y206358D01*
X370189Y206732D01*
Y210984D01*
X370189Y211358D01*
X370189Y211732D01*
Y213459D01*
D02*
G37*
G36*
X328898Y212843D02*
X327917Y212714D01*
X327004Y212336D01*
X326219Y211734D01*
X325617Y210949D01*
X325238Y210036D01*
X325109Y209055D01*
X325238Y208075D01*
X325617Y207161D01*
X326219Y206376D01*
X327004Y205774D01*
X327917Y205396D01*
X328898Y205267D01*
X329878Y205396D01*
X330792Y205774D01*
X331576Y206376D01*
X332178Y207161D01*
X332557Y208075D01*
X332686Y209055D01*
X332557Y210036D01*
X332178Y210949D01*
X331576Y211734D01*
X330792Y212336D01*
X329878Y212714D01*
X328898Y212843D01*
D02*
G37*
G36*
X318898D02*
X317917Y212714D01*
X317003Y212336D01*
X316219Y211734D01*
X315617Y210949D01*
X315238Y210036D01*
X315109Y209055D01*
X315238Y208075D01*
X315617Y207161D01*
X316219Y206376D01*
X317003Y205774D01*
X317917Y205396D01*
X318898Y205267D01*
X319878Y205396D01*
X320792Y205774D01*
X321576Y206376D01*
X322178Y207161D01*
X322557Y208075D01*
X322686Y209055D01*
X322557Y210036D01*
X322178Y210949D01*
X321576Y211734D01*
X320792Y212336D01*
X319878Y212714D01*
X318898Y212843D01*
D02*
G37*
G36*
X308898D02*
X307917Y212714D01*
X307003Y212336D01*
X306219Y211734D01*
X305617Y210949D01*
X305238Y210036D01*
X305109Y209055D01*
X305238Y208075D01*
X305617Y207161D01*
X306219Y206376D01*
X307003Y205774D01*
X307917Y205396D01*
X308898Y205267D01*
X309878Y205396D01*
X310792Y205774D01*
X311576Y206376D01*
X312178Y207161D01*
X312557Y208075D01*
X312686Y209055D01*
X312557Y210036D01*
X312178Y210949D01*
X311576Y211734D01*
X310792Y212336D01*
X309878Y212714D01*
X308898Y212843D01*
D02*
G37*
G36*
X430276Y212843D02*
X429295Y212714D01*
X428381Y212336D01*
X427597Y211734D01*
X426995Y210949D01*
X426616Y210036D01*
X426487Y209055D01*
X426616Y208075D01*
X426937Y207300D01*
X418394Y198758D01*
X409842D01*
X409414Y198672D01*
X409051Y198430D01*
X404129Y193508D01*
X403887Y193145D01*
X403801Y192717D01*
Y180484D01*
X402259Y178942D01*
X402016Y178578D01*
X401931Y178150D01*
Y172441D01*
X401431Y172271D01*
X400822Y173066D01*
X399832Y173826D01*
X398678Y174303D01*
X397441Y174466D01*
X396203Y174303D01*
X395050Y173826D01*
X394060Y173066D01*
X393300Y172075D01*
X392823Y170923D01*
X392660Y169685D01*
X392823Y168448D01*
X393300Y167295D01*
X393498Y167037D01*
X384133Y157672D01*
X307839D01*
X307839Y157672D01*
X307489Y157602D01*
X307192Y157404D01*
X300534Y150746D01*
X300336Y150449D01*
X300266Y150098D01*
X300266Y150098D01*
Y105240D01*
X285607Y90581D01*
X259683D01*
X259333Y90511D01*
X259036Y90312D01*
X259036Y90312D01*
X244442Y75718D01*
X241055D01*
Y77038D01*
X243799D01*
X243799Y77038D01*
X244149Y77107D01*
X244446Y77306D01*
X248285Y81144D01*
X248483Y81441D01*
X248553Y81791D01*
X248553Y81791D01*
Y85349D01*
X254907Y91703D01*
X281496D01*
X281496Y91703D01*
X281846Y91773D01*
X282143Y91971D01*
X298383Y108211D01*
X298383Y108211D01*
X298582Y108508D01*
X298651Y108858D01*
Y154148D01*
X303922Y159419D01*
X342618D01*
X342618Y159419D01*
X342968Y159489D01*
X343265Y159687D01*
X349072Y165495D01*
X349072Y165495D01*
X349271Y165791D01*
X349340Y166142D01*
X349340Y166142D01*
Y181299D01*
X349271Y181649D01*
X349072Y181946D01*
X349072Y181946D01*
X344297Y186722D01*
X344495Y186979D01*
X344972Y188133D01*
X345135Y189370D01*
X344972Y190608D01*
X344495Y191761D01*
X343735Y192751D01*
X342745Y193511D01*
X341592Y193988D01*
X340354Y194151D01*
X339117Y193988D01*
X337964Y193511D01*
X336974Y192751D01*
X336214Y191761D01*
X335736Y190608D01*
X335573Y189370D01*
X335736Y188133D01*
X336214Y186979D01*
X336974Y185989D01*
X337964Y185230D01*
X339117Y184752D01*
X339504Y184701D01*
Y184197D01*
X339117Y184146D01*
X337964Y183668D01*
X336974Y182908D01*
X336214Y181918D01*
X335736Y180765D01*
X335639Y180027D01*
X340354D01*
X345070D01*
X344972Y180765D01*
X344495Y181918D01*
X343735Y182908D01*
X342745Y183668D01*
X341592Y184146D01*
X341205Y184197D01*
Y184701D01*
X341592Y184752D01*
X342745Y185230D01*
X343003Y185427D01*
X347510Y180920D01*
Y166521D01*
X342239Y161250D01*
X303543D01*
X303543Y161250D01*
X303193Y161180D01*
X302896Y160982D01*
X302896Y160982D01*
X297089Y155175D01*
X296891Y154878D01*
X296821Y154528D01*
X296821Y154527D01*
Y109237D01*
X281117Y93533D01*
X254528D01*
X254528Y93533D01*
X254177Y93464D01*
X253880Y93265D01*
X253880Y93265D01*
X246991Y86375D01*
X246792Y86079D01*
X246723Y85728D01*
X246723Y85728D01*
Y82170D01*
X243420Y78868D01*
X241055D01*
Y80248D01*
X242580D01*
X242580Y80248D01*
X242931Y80317D01*
X243228Y80516D01*
X245529Y82817D01*
X245529Y82817D01*
X245727Y83114D01*
X245797Y83465D01*
X245797Y83465D01*
Y90861D01*
X249592Y94656D01*
X277165D01*
X277165Y94656D01*
X277516Y94725D01*
X277813Y94924D01*
X294250Y111361D01*
X294250Y111361D01*
X294448Y111658D01*
X294518Y112008D01*
Y157790D01*
X299493Y162766D01*
X334350D01*
X334350Y162766D01*
X334701Y162836D01*
X334998Y163034D01*
X337706Y165742D01*
X337964Y165544D01*
X339117Y165067D01*
X340354Y164904D01*
X341592Y165067D01*
X342745Y165544D01*
X343735Y166304D01*
X344495Y167295D01*
X344972Y168448D01*
X345135Y169685D01*
X344972Y170923D01*
X344495Y172075D01*
X343735Y173066D01*
X342745Y173826D01*
X341592Y174303D01*
X341205Y174354D01*
Y174858D01*
X341592Y174909D01*
X342745Y175387D01*
X343735Y176147D01*
X344495Y177137D01*
X344972Y178290D01*
X345070Y179027D01*
X340354D01*
X335639D01*
X335736Y178290D01*
X336214Y177137D01*
X336974Y176147D01*
X337964Y175387D01*
X339117Y174909D01*
X339504Y174858D01*
Y174354D01*
X339117Y174303D01*
X337964Y173826D01*
X336974Y173066D01*
X336214Y172075D01*
X335736Y170923D01*
X335573Y169685D01*
X335736Y168448D01*
X336214Y167295D01*
X336412Y167037D01*
X333971Y164596D01*
X299114D01*
X299114Y164596D01*
X298764Y164527D01*
X298467Y164328D01*
X298467Y164328D01*
X292955Y158817D01*
X292757Y158519D01*
X292687Y158169D01*
X292687Y158169D01*
Y112387D01*
X276786Y96486D01*
X249213D01*
X249213Y96486D01*
X248862Y96416D01*
X248565Y96218D01*
X248565Y96218D01*
X244235Y91887D01*
X244036Y91590D01*
X243967Y91240D01*
X243967Y91240D01*
Y83844D01*
X242201Y82078D01*
X241055D01*
Y85642D01*
X240687D01*
Y90422D01*
X273036Y122771D01*
X273279Y123134D01*
X273364Y123563D01*
Y131229D01*
X278308Y136173D01*
X278320Y136164D01*
X279377Y135726D01*
X280512Y135577D01*
X281646Y135726D01*
X282704Y136164D01*
X283612Y136861D01*
X284308Y137769D01*
X284746Y138826D01*
X284896Y139961D01*
X284746Y141095D01*
X284308Y142153D01*
X283612Y143061D01*
X282704Y143757D01*
X281646Y144195D01*
X280512Y144345D01*
X279377Y144195D01*
X278320Y143757D01*
X277412Y143061D01*
X276715Y142153D01*
X276277Y141095D01*
X276128Y139961D01*
X276277Y138826D01*
X276715Y137769D01*
X276724Y137757D01*
X271452Y132485D01*
X271209Y132122D01*
X271124Y131693D01*
Y124027D01*
X238775Y91678D01*
X238532Y91314D01*
X238447Y90886D01*
Y85642D01*
X233551D01*
Y81681D01*
Y78531D01*
Y75382D01*
Y72232D01*
Y69083D01*
Y68313D01*
X241055D01*
Y69083D01*
Y73888D01*
X244821D01*
X244821Y73888D01*
X245171Y73958D01*
X245468Y74156D01*
X260063Y88750D01*
X285986D01*
X285986Y88750D01*
X286336Y88820D01*
X286633Y89018D01*
X301828Y104214D01*
X301828Y104214D01*
X302027Y104510D01*
X302096Y104861D01*
X302096Y104861D01*
Y149719D01*
X308218Y155841D01*
X384512D01*
X384512Y155841D01*
X384863Y155911D01*
X385160Y156109D01*
X394793Y165742D01*
X395050Y165544D01*
X396203Y165067D01*
X397441Y164904D01*
X398678Y165067D01*
X399832Y165544D01*
X400822Y166304D01*
X401431Y167099D01*
X401931Y166929D01*
Y159519D01*
X398027Y155615D01*
X397784Y155251D01*
X397699Y154823D01*
Y145571D01*
X397784Y145142D01*
X398027Y144779D01*
X404884Y137922D01*
Y135405D01*
X391957Y122478D01*
X388386D01*
X387957Y122393D01*
X387594Y122150D01*
X381688Y116245D01*
X381446Y115881D01*
X381360Y115453D01*
Y103457D01*
X380500D01*
Y94378D01*
X384461D01*
Y103457D01*
X383600D01*
Y114989D01*
X388850Y120238D01*
X392421D01*
X392850Y120324D01*
X393213Y120566D01*
X406796Y134149D01*
X407039Y134512D01*
X407124Y134941D01*
Y138386D01*
X407039Y138814D01*
X406796Y139178D01*
X399939Y146035D01*
Y154359D01*
X403843Y158263D01*
X404086Y158626D01*
X404171Y159055D01*
Y177686D01*
X405713Y179228D01*
X405956Y179591D01*
X406041Y180020D01*
Y188928D01*
X406541Y188961D01*
X406616Y188390D01*
X406995Y187476D01*
X407597Y186691D01*
X408381Y186089D01*
X409295Y185711D01*
X410276Y185582D01*
X411256Y185711D01*
X412170Y186089D01*
X412954Y186691D01*
X413556Y187476D01*
X413935Y188390D01*
X414064Y189370D01*
X413935Y190351D01*
X413556Y191264D01*
X412954Y192049D01*
X412170Y192651D01*
X411256Y193029D01*
X410276Y193158D01*
X409295Y193029D01*
X408381Y192651D01*
X407597Y192049D01*
X406995Y191264D01*
X406616Y190351D01*
X406541Y189780D01*
X406041Y189812D01*
Y192253D01*
X410306Y196518D01*
X418858D01*
X419287Y196603D01*
X419650Y196846D01*
X428521Y205717D01*
X429295Y205396D01*
X430276Y205267D01*
X431256Y205396D01*
X432170Y205774D01*
X432954Y206376D01*
X433556Y207161D01*
X433935Y208075D01*
X434064Y209055D01*
X433935Y210036D01*
X433556Y210949D01*
X432954Y211734D01*
X432170Y212336D01*
X431256Y212714D01*
X430276Y212843D01*
D02*
G37*
G36*
X420276D02*
X419295Y212714D01*
X418381Y212336D01*
X417597Y211734D01*
X416995Y210949D01*
X416616Y210036D01*
X416487Y209055D01*
X416616Y208075D01*
X416995Y207161D01*
X417597Y206376D01*
X418381Y205774D01*
X419295Y205396D01*
X420276Y205267D01*
X421256Y205396D01*
X422170Y205774D01*
X422954Y206376D01*
X423556Y207161D01*
X423935Y208075D01*
X424064Y209055D01*
X423935Y210036D01*
X423556Y210949D01*
X422954Y211734D01*
X422170Y212336D01*
X421256Y212714D01*
X420276Y212843D01*
D02*
G37*
G36*
X410276D02*
X409295Y212714D01*
X408381Y212336D01*
X407597Y211734D01*
X406995Y210949D01*
X406616Y210036D01*
X406487Y209055D01*
X406616Y208075D01*
X406995Y207161D01*
X407597Y206376D01*
X408381Y205774D01*
X409295Y205396D01*
X410276Y205267D01*
X411256Y205396D01*
X412170Y205774D01*
X412954Y206376D01*
X413556Y207161D01*
X413935Y208075D01*
X414064Y209055D01*
X413935Y210036D01*
X413556Y210949D01*
X412954Y211734D01*
X412170Y212336D01*
X411256Y212714D01*
X410276Y212843D01*
D02*
G37*
G36*
X295276Y215218D02*
X293935Y215041D01*
X292686Y214524D01*
X291614Y213701D01*
X290791Y212629D01*
X290274Y211380D01*
X290097Y210039D01*
X290274Y208699D01*
X290791Y207450D01*
X291614Y206378D01*
X292686Y205555D01*
X293935Y205037D01*
X295276Y204861D01*
X296616Y205037D01*
X297865Y205555D01*
X298937Y206378D01*
X299760Y207450D01*
X300277Y208699D01*
X300454Y210039D01*
X300277Y211380D01*
X299760Y212629D01*
X298937Y213701D01*
X297865Y214524D01*
X296616Y215041D01*
X295276Y215218D01*
D02*
G37*
G36*
X178071D02*
X176731Y215041D01*
X175482Y214524D01*
X174410Y213701D01*
X173587Y212629D01*
X173069Y211380D01*
X172893Y210039D01*
X173069Y208699D01*
X173587Y207450D01*
X174410Y206378D01*
X175482Y205555D01*
X176731Y205037D01*
X178071Y204861D01*
X179411Y205037D01*
X180660Y205555D01*
X181733Y206378D01*
X182556Y207450D01*
X183073Y208699D01*
X183249Y210039D01*
X183073Y211380D01*
X182556Y212629D01*
X181733Y213701D01*
X180660Y214524D01*
X179411Y215041D01*
X178071Y215218D01*
D02*
G37*
G36*
X94941D02*
X93601Y215041D01*
X92352Y214524D01*
X91280Y213701D01*
X90457Y212629D01*
X89939Y211380D01*
X89763Y210039D01*
X89939Y208699D01*
X90457Y207450D01*
X91280Y206378D01*
X92352Y205555D01*
X93601Y205037D01*
X94941Y204861D01*
X96281Y205037D01*
X97530Y205555D01*
X98603Y206378D01*
X99426Y207450D01*
X99943Y208699D01*
X100119Y210039D01*
X99943Y211380D01*
X99426Y212629D01*
X98603Y213701D01*
X97530Y214524D01*
X96281Y215041D01*
X94941Y215218D01*
D02*
G37*
G36*
X31043D02*
X29703Y215041D01*
X28454Y214524D01*
X27382Y213701D01*
X26559Y212629D01*
X26041Y211380D01*
X25865Y210039D01*
X26041Y208699D01*
X26559Y207450D01*
X27382Y206378D01*
X28454Y205555D01*
X29703Y205037D01*
X31043Y204861D01*
X32383Y205037D01*
X33632Y205555D01*
X34705Y206378D01*
X35528Y207450D01*
X36045Y208699D01*
X36221Y210039D01*
X36045Y211380D01*
X35528Y212629D01*
X34705Y213701D01*
X33632Y214524D01*
X32383Y215041D01*
X31043Y215218D01*
D02*
G37*
G36*
X394992Y206232D02*
X388669D01*
Y201484D01*
X390915D01*
Y199716D01*
X389260D01*
Y194378D01*
X394402D01*
Y199716D01*
X392746D01*
Y201484D01*
X394992D01*
Y202923D01*
X397626D01*
Y201465D01*
X400799D01*
Y206213D01*
X397626D01*
Y204754D01*
X394992D01*
Y206232D01*
D02*
G37*
G36*
X346567Y207098D02*
X340244D01*
Y203138D01*
X341571D01*
Y201291D01*
X340835D01*
Y200457D01*
X339764D01*
X339228Y200868D01*
X338603Y201127D01*
X337932Y201215D01*
X337261Y201127D01*
X336635Y200868D01*
X336098Y200456D01*
X335686Y199919D01*
X335427Y199293D01*
X335339Y198622D01*
X335427Y197951D01*
X335686Y197326D01*
X336098Y196789D01*
X336635Y196376D01*
X337261Y196117D01*
X337932Y196029D01*
X338603Y196117D01*
X339228Y196376D01*
X339764Y196788D01*
X340835D01*
Y195953D01*
X345976D01*
Y201291D01*
X345240D01*
Y203138D01*
X346567D01*
Y207098D01*
D02*
G37*
G36*
X352079Y201291D02*
X349907D01*
Y199022D01*
X352079D01*
Y201291D01*
D02*
G37*
G36*
X349108D02*
X346937D01*
Y199022D01*
X349108D01*
Y201291D01*
D02*
G37*
G36*
X375701Y199716D02*
X373530D01*
Y197447D01*
X375701D01*
Y199716D01*
D02*
G37*
G36*
X372730D02*
X370559D01*
Y197447D01*
X372730D01*
Y199716D01*
D02*
G37*
G36*
X352079Y198222D02*
X349907D01*
Y195953D01*
X352079D01*
Y198222D01*
D02*
G37*
G36*
X349108D02*
X346937D01*
Y195953D01*
X349108D01*
Y198222D01*
D02*
G37*
G36*
X362551Y205327D02*
X357213D01*
Y200185D01*
X357987D01*
Y198880D01*
X357576Y198344D01*
X357317Y197718D01*
X357229Y197047D01*
X357317Y196376D01*
X357576Y195751D01*
X357988Y195214D01*
X358525Y194802D01*
X359151Y194543D01*
X359822Y194454D01*
X360493Y194543D01*
X361118Y194802D01*
X361655Y195214D01*
X362067Y195751D01*
X362326Y196376D01*
X362415Y197047D01*
X362326Y197718D01*
X362067Y198344D01*
X361656Y198880D01*
Y200185D01*
X362551D01*
Y205327D01*
D02*
G37*
G36*
X375701Y196648D02*
X373530D01*
Y194378D01*
X375701D01*
Y196648D01*
D02*
G37*
G36*
X372730D02*
X370559D01*
Y194378D01*
X372730D01*
Y196648D01*
D02*
G37*
G36*
X370669Y241175D02*
X369234Y240986D01*
X367897Y240432D01*
X366748Y239551D01*
X365867Y238403D01*
X365313Y237065D01*
X365124Y235630D01*
X365313Y234195D01*
X365867Y232857D01*
X366748Y231709D01*
X367897Y230827D01*
X369234Y230273D01*
X369754Y230205D01*
Y221945D01*
X369754Y221945D01*
X369824Y221595D01*
X370022Y221298D01*
X384813Y206507D01*
Y199716D01*
X383157D01*
Y194378D01*
X388299D01*
Y199716D01*
X386644D01*
Y206886D01*
X386644Y206886D01*
X386574Y207236D01*
X386375Y207533D01*
X386375Y207533D01*
X371585Y222324D01*
Y230205D01*
X372105Y230273D01*
X373442Y230827D01*
X374590Y231709D01*
X375472Y232857D01*
X376026Y234195D01*
X376215Y235630D01*
X376026Y237065D01*
X375472Y238403D01*
X374590Y239551D01*
X373442Y240432D01*
X372105Y240986D01*
X370669Y241175D01*
D02*
G37*
G36*
X210343Y197276D02*
Y193807D01*
X213811D01*
X213740Y194351D01*
X213336Y195324D01*
X212695Y196160D01*
X211860Y196801D01*
X210887Y197204D01*
X210343Y197276D01*
D02*
G37*
G36*
X209343Y197276D02*
X208798Y197204D01*
X207825Y196801D01*
X206990Y196160D01*
X206348Y195324D01*
X205945Y194351D01*
X205874Y193807D01*
X209343D01*
Y197276D01*
D02*
G37*
G36*
X397941Y194085D02*
Y189870D01*
X402156D01*
X402059Y190608D01*
X401581Y191761D01*
X400822Y192751D01*
X399832Y193511D01*
X398678Y193988D01*
X397941Y194085D01*
D02*
G37*
G36*
X396941Y194085D02*
X396203Y193988D01*
X395050Y193511D01*
X394060Y192751D01*
X393300Y191761D01*
X392823Y190608D01*
X392726Y189870D01*
X396941D01*
Y194085D01*
D02*
G37*
G36*
X209343Y192807D02*
X205874D01*
X205945Y192263D01*
X206348Y191290D01*
X206990Y190454D01*
X207825Y189813D01*
X208798Y189410D01*
X209343Y189338D01*
Y192807D01*
D02*
G37*
G36*
X213811D02*
X210343D01*
Y189338D01*
X210887Y189410D01*
X211860Y189813D01*
X212695Y190454D01*
X213336Y191290D01*
X213740Y192263D01*
X213811Y192807D01*
D02*
G37*
G36*
X199843Y197342D02*
X198798Y197204D01*
X197825Y196801D01*
X196990Y196160D01*
X196349Y195324D01*
X195946Y194351D01*
X195808Y193307D01*
X195946Y192263D01*
X196349Y191290D01*
X196990Y190454D01*
X197825Y189813D01*
X198798Y189410D01*
X199843Y189273D01*
X200887Y189410D01*
X201860Y189813D01*
X202695Y190454D01*
X203337Y191290D01*
X203740Y192263D01*
X203877Y193307D01*
X203740Y194351D01*
X203337Y195324D01*
X202695Y196160D01*
X201860Y196801D01*
X200887Y197204D01*
X199843Y197342D01*
D02*
G37*
G36*
X169595Y192901D02*
Y189083D01*
X173413D01*
X173329Y189717D01*
X172891Y190775D01*
X172194Y191683D01*
X171286Y192379D01*
X170229Y192817D01*
X169595Y192901D01*
D02*
G37*
G36*
X261327Y192901D02*
Y189083D01*
X265145D01*
X265061Y189717D01*
X264623Y190775D01*
X263927Y191683D01*
X263019Y192379D01*
X261961Y192817D01*
X261327Y192901D01*
D02*
G37*
G36*
X260327Y192901D02*
X259692Y192817D01*
X258635Y192379D01*
X257727Y191683D01*
X257030Y190775D01*
X256592Y189717D01*
X256509Y189083D01*
X260327D01*
Y192901D01*
D02*
G37*
G36*
X168595Y192901D02*
X167960Y192817D01*
X166902Y192379D01*
X165995Y191683D01*
X165298Y190775D01*
X164860Y189717D01*
X164776Y189083D01*
X168595D01*
Y192901D01*
D02*
G37*
G36*
X430276Y193158D02*
X429295Y193029D01*
X428381Y192651D01*
X427597Y192049D01*
X426995Y191264D01*
X426616Y190351D01*
X426487Y189370D01*
X426616Y188390D01*
X426937Y187615D01*
X420461Y181140D01*
X411417D01*
X410989Y181054D01*
X410625Y180812D01*
X405015Y175201D01*
X404772Y174838D01*
X404687Y174409D01*
Y158239D01*
X400783Y154335D01*
X400540Y153972D01*
X400455Y153543D01*
Y146752D01*
X400540Y146323D01*
X400783Y145960D01*
X407738Y139005D01*
Y132354D01*
X393827Y118443D01*
X392224D01*
X391796Y118358D01*
X391432Y118115D01*
X386688Y113371D01*
X386446Y113007D01*
X386360Y112579D01*
Y103457D01*
X385500D01*
Y94378D01*
X389461D01*
Y103457D01*
X388600D01*
Y112115D01*
X392688Y116203D01*
X394291D01*
X394720Y116288D01*
X395083Y116531D01*
X409650Y131098D01*
X409893Y131461D01*
X409978Y131890D01*
Y139469D01*
X409893Y139897D01*
X409650Y140260D01*
X402695Y147216D01*
Y153079D01*
X406599Y156984D01*
X406842Y157347D01*
X406927Y157776D01*
Y167058D01*
X407427Y167228D01*
X407597Y167006D01*
X408381Y166404D01*
X409295Y166026D01*
X410276Y165897D01*
X411256Y166026D01*
X412170Y166404D01*
X412954Y167006D01*
X413556Y167791D01*
X413935Y168704D01*
X414064Y169685D01*
X413935Y170666D01*
X413556Y171579D01*
X412954Y172364D01*
X412170Y172966D01*
X411256Y173344D01*
X410276Y173473D01*
X409295Y173344D01*
X408381Y172966D01*
X407597Y172364D01*
X407427Y172143D01*
X406927Y172312D01*
Y173946D01*
X411881Y178900D01*
X420925D01*
X421354Y178985D01*
X421717Y179228D01*
X428521Y186031D01*
X429295Y185711D01*
X430276Y185582D01*
X431256Y185711D01*
X432170Y186089D01*
X432954Y186691D01*
X433556Y187476D01*
X433935Y188390D01*
X434064Y189370D01*
X433935Y190351D01*
X433556Y191264D01*
X432954Y192049D01*
X432170Y192651D01*
X431256Y193029D01*
X430276Y193158D01*
D02*
G37*
G36*
X420276D02*
X419295Y193029D01*
X418381Y192651D01*
X417597Y192049D01*
X416995Y191264D01*
X416616Y190351D01*
X416487Y189370D01*
X416616Y188390D01*
X416995Y187476D01*
X417597Y186691D01*
X418381Y186089D01*
X419295Y185711D01*
X420276Y185582D01*
X421256Y185711D01*
X422170Y186089D01*
X422954Y186691D01*
X423556Y187476D01*
X423935Y188390D01*
X424064Y189370D01*
X423935Y190351D01*
X423556Y191264D01*
X422954Y192049D01*
X422170Y192651D01*
X421256Y193029D01*
X420276Y193158D01*
D02*
G37*
G36*
X328740Y193158D02*
X327760Y193029D01*
X326846Y192651D01*
X326061Y192049D01*
X325459Y191264D01*
X325081Y190351D01*
X324952Y189370D01*
X325081Y188390D01*
X325459Y187476D01*
X326061Y186691D01*
X326846Y186089D01*
X327760Y185711D01*
X328740Y185582D01*
X329721Y185711D01*
X330634Y186089D01*
X331419Y186691D01*
X332021Y187476D01*
X332399Y188390D01*
X332528Y189370D01*
X332399Y190351D01*
X332021Y191264D01*
X331419Y192049D01*
X330634Y192651D01*
X329721Y193029D01*
X328740Y193158D01*
D02*
G37*
G36*
X318740D02*
X317760Y193029D01*
X316846Y192651D01*
X316061Y192049D01*
X315459Y191264D01*
X315081Y190351D01*
X314952Y189370D01*
X315081Y188390D01*
X315459Y187476D01*
X316061Y186691D01*
X316846Y186089D01*
X317760Y185711D01*
X318740Y185582D01*
X319721Y185711D01*
X320634Y186089D01*
X321419Y186691D01*
X322021Y187476D01*
X322399Y188390D01*
X322529Y189370D01*
X322399Y190351D01*
X322021Y191264D01*
X321419Y192049D01*
X320634Y192651D01*
X319721Y193029D01*
X318740Y193158D01*
D02*
G37*
G36*
X308740D02*
X307760Y193029D01*
X306846Y192651D01*
X306061Y192049D01*
X305459Y191264D01*
X305081Y190351D01*
X304952Y189370D01*
X305081Y188390D01*
X305459Y187476D01*
X306061Y186691D01*
X306846Y186089D01*
X307760Y185711D01*
X308740Y185582D01*
X309721Y185711D01*
X310634Y186089D01*
X311419Y186691D01*
X312021Y187476D01*
X312399Y188390D01*
X312528Y189370D01*
X312399Y190351D01*
X312021Y191264D01*
X311419Y192049D01*
X310634Y192651D01*
X309721Y193029D01*
X308740Y193158D01*
D02*
G37*
G36*
X105890Y202301D02*
X57972D01*
X57544Y202216D01*
X57181Y201973D01*
X30121Y174913D01*
X26465D01*
Y173462D01*
X25295D01*
X24867Y173377D01*
X24503Y173134D01*
X21438Y170069D01*
X20976Y170261D01*
Y173805D01*
X13079D01*
Y162365D01*
X20976D01*
Y167019D01*
X21091D01*
X21520Y167104D01*
X21883Y167347D01*
X25759Y171223D01*
X26465D01*
Y169772D01*
X31803D01*
Y173428D01*
X58436Y200061D01*
X105426D01*
X115400Y190087D01*
X115287Y189815D01*
X115287D01*
Y185067D01*
X123972D01*
Y189815D01*
X118261D01*
Y189930D01*
X118176Y190358D01*
X117933Y190722D01*
X106682Y201973D01*
X106318Y202216D01*
X105890Y202301D01*
D02*
G37*
G36*
X402156Y188870D02*
X397941D01*
Y184655D01*
X398678Y184752D01*
X399832Y185230D01*
X400822Y185989D01*
X401581Y186979D01*
X402059Y188133D01*
X402156Y188870D01*
D02*
G37*
G36*
X396941D02*
X392726D01*
X392823Y188133D01*
X393300Y186979D01*
X394060Y185989D01*
X395050Y185230D01*
X396203Y184752D01*
X396941Y184655D01*
Y188870D01*
D02*
G37*
G36*
X260327Y188083D02*
X256509D01*
X256592Y187448D01*
X257030Y186391D01*
X257727Y185483D01*
X258635Y184786D01*
X259692Y184348D01*
X260327Y184265D01*
Y188083D01*
D02*
G37*
G36*
X173413D02*
X169595D01*
Y184265D01*
X170229Y184348D01*
X171286Y184786D01*
X172194Y185483D01*
X172891Y186391D01*
X173329Y187448D01*
X173413Y188083D01*
D02*
G37*
G36*
X168595D02*
X164776D01*
X164860Y187448D01*
X165298Y186391D01*
X165995Y185483D01*
X166902Y184786D01*
X167960Y184348D01*
X168595Y184265D01*
Y188083D01*
D02*
G37*
G36*
X265145D02*
X261327D01*
Y184265D01*
X261961Y184348D01*
X263019Y184786D01*
X263927Y185483D01*
X264623Y186391D01*
X265061Y187448D01*
X265145Y188083D01*
D02*
G37*
G36*
X241142Y192967D02*
X240007Y192817D01*
X238950Y192379D01*
X238042Y191683D01*
X237345Y190775D01*
X236907Y189717D01*
X236758Y188583D01*
X236907Y187448D01*
X237345Y186391D01*
X238042Y185483D01*
X238950Y184786D01*
X240007Y184348D01*
X241142Y184199D01*
X242276Y184348D01*
X243334Y184786D01*
X244242Y185483D01*
X244938Y186391D01*
X245376Y187448D01*
X245526Y188583D01*
X245376Y189717D01*
X244938Y190775D01*
X244242Y191683D01*
X243334Y192379D01*
X242276Y192817D01*
X241142Y192967D01*
D02*
G37*
G36*
X149409D02*
X148275Y192817D01*
X147217Y192379D01*
X146309Y191683D01*
X145613Y190775D01*
X145175Y189717D01*
X145026Y188583D01*
X145175Y187448D01*
X145613Y186391D01*
X146309Y185483D01*
X147217Y184786D01*
X148275Y184348D01*
X149409Y184199D01*
X150544Y184348D01*
X151601Y184786D01*
X152509Y185483D01*
X153206Y186391D01*
X153644Y187448D01*
X153793Y188583D01*
X153644Y189717D01*
X153206Y190775D01*
X152509Y191683D01*
X151601Y192379D01*
X150544Y192817D01*
X149409Y192967D01*
D02*
G37*
G36*
X77165D02*
X76031Y192817D01*
X74973Y192379D01*
X74065Y191683D01*
X73369Y190775D01*
X72931Y189717D01*
X72781Y188583D01*
X72931Y187448D01*
X73369Y186391D01*
X73378Y186379D01*
X62559Y175560D01*
X62316Y175196D01*
X62230Y174768D01*
Y157516D01*
X62316Y157087D01*
X62559Y156724D01*
X65980Y153303D01*
X66343Y153060D01*
X66425Y153043D01*
Y152114D01*
X73732D01*
Y152974D01*
X74496D01*
Y150421D01*
X79835D01*
Y150849D01*
X95008D01*
X105795Y140062D01*
Y135323D01*
X111134D01*
Y135619D01*
X112646D01*
X114565Y133700D01*
X114460Y133169D01*
X114629Y132320D01*
X115110Y131600D01*
X115830Y131119D01*
X116680Y130949D01*
X117529Y131119D01*
X118249Y131600D01*
X118730Y132320D01*
X118899Y133169D01*
X118730Y134019D01*
X118249Y134739D01*
X117529Y135220D01*
X116680Y135389D01*
X116149Y135284D01*
X113902Y137531D01*
X113539Y137773D01*
X113110Y137858D01*
X111134D01*
Y140465D01*
X108215D01*
X108159Y140745D01*
X107916Y141109D01*
X96264Y152760D01*
X95901Y153003D01*
X95472Y153088D01*
X79835D01*
Y155563D01*
X74496D01*
Y155214D01*
X73732D01*
Y156075D01*
X66425D01*
X66425Y156075D01*
Y156075D01*
X66070Y156380D01*
X64470Y157980D01*
Y174304D01*
X74962Y184795D01*
X74973Y184786D01*
X76031Y184348D01*
X77165Y184199D01*
X78300Y184348D01*
X79357Y184786D01*
X80265Y185483D01*
X80962Y186391D01*
X81400Y187448D01*
X81549Y188583D01*
X81400Y189717D01*
X80962Y190775D01*
X80265Y191683D01*
X79357Y192379D01*
X78300Y192817D01*
X77165Y192967D01*
D02*
G37*
G36*
X96413Y189815D02*
X87728D01*
Y185067D01*
X90037D01*
X90304Y184567D01*
X90020Y184142D01*
X89851Y183292D01*
X90020Y182442D01*
X90501Y181722D01*
X91221Y181241D01*
X92071Y181072D01*
X92920Y181241D01*
X93641Y181722D01*
X94122Y182442D01*
X94291Y183292D01*
X94122Y184142D01*
X93837Y184567D01*
X94105Y185067D01*
X96413D01*
Y189815D01*
D02*
G37*
G36*
Y179815D02*
X87728D01*
Y179433D01*
X87228Y179170D01*
X86725Y179506D01*
X85876Y179675D01*
X85027Y179506D01*
X84306Y179025D01*
X83825Y178305D01*
X83656Y177455D01*
X83825Y176606D01*
X84306Y175886D01*
X85027Y175405D01*
X85876Y175236D01*
X86725Y175405D01*
X87228Y175741D01*
X87728Y175478D01*
Y175067D01*
X96413D01*
Y179815D01*
D02*
G37*
G36*
X114173Y215218D02*
X112833Y215041D01*
X111584Y214524D01*
X110512Y213701D01*
X109689Y212629D01*
X109171Y211380D01*
X108995Y210039D01*
X109171Y208699D01*
X109689Y207450D01*
X110512Y206378D01*
X111584Y205555D01*
X112833Y205037D01*
X114173Y204861D01*
X115514Y205037D01*
X116762Y205555D01*
X116939Y205690D01*
X127266Y195363D01*
Y181311D01*
X126484D01*
Y178561D01*
X123972D01*
Y179815D01*
X115287D01*
Y175067D01*
X123972D01*
Y176321D01*
X126484D01*
Y173413D01*
X130445D01*
Y181311D01*
X129506D01*
Y195827D01*
X129420Y196255D01*
X129178Y196619D01*
X118523Y207274D01*
X118658Y207450D01*
X119175Y208699D01*
X119351Y210039D01*
X119175Y211380D01*
X118658Y212629D01*
X117835Y213701D01*
X116762Y214524D01*
X115514Y215041D01*
X114173Y215218D01*
D02*
G37*
G36*
X140445Y181311D02*
X138864D01*
Y177762D01*
X140445D01*
Y181311D01*
D02*
G37*
G36*
X138065D02*
X136484D01*
Y177762D01*
X138065D01*
Y181311D01*
D02*
G37*
G36*
X140445Y176963D02*
X138864D01*
Y173413D01*
X140445D01*
Y176963D01*
D02*
G37*
G36*
X138065D02*
X136484D01*
Y173413D01*
X138065D01*
Y176963D01*
D02*
G37*
G36*
X149909Y173806D02*
Y169988D01*
X153727D01*
X153644Y170623D01*
X153206Y171680D01*
X152509Y172588D01*
X151601Y173285D01*
X150544Y173723D01*
X149909Y173806D01*
D02*
G37*
G36*
X148909D02*
X148275Y173723D01*
X147217Y173285D01*
X146309Y172588D01*
X145613Y171680D01*
X145175Y170623D01*
X145091Y169988D01*
X148909D01*
Y173806D01*
D02*
G37*
G36*
X123972Y169815D02*
X115287D01*
Y168561D01*
X96413D01*
Y169815D01*
X87728D01*
Y165067D01*
X96413D01*
Y166321D01*
X115287D01*
Y165067D01*
X123972D01*
Y169815D01*
D02*
G37*
G36*
X241449Y171764D02*
X236128D01*
Y168116D01*
X241449D01*
Y171764D01*
D02*
G37*
G36*
X235329D02*
X230008D01*
Y168116D01*
X235329D01*
Y171764D01*
D02*
G37*
G36*
X193938Y171665D02*
X187239D01*
Y168116D01*
X193938D01*
Y171665D01*
D02*
G37*
G36*
X186440D02*
X179741D01*
Y168116D01*
X186440D01*
Y171665D01*
D02*
G37*
G36*
X31803Y168811D02*
X29533D01*
Y166640D01*
X31803D01*
Y168811D01*
D02*
G37*
G36*
X28734D02*
X26465D01*
Y166640D01*
X28734D01*
Y168811D01*
D02*
G37*
G36*
X328898Y173473D02*
X327917Y173344D01*
X327004Y172966D01*
X326219Y172364D01*
X325617Y171579D01*
X325238Y170666D01*
X325109Y169685D01*
X325238Y168704D01*
X325617Y167791D01*
X326219Y167006D01*
X327004Y166404D01*
X327917Y166026D01*
X328898Y165897D01*
X329878Y166026D01*
X330792Y166404D01*
X331576Y167006D01*
X332178Y167791D01*
X332557Y168704D01*
X332686Y169685D01*
X332557Y170666D01*
X332178Y171579D01*
X331576Y172364D01*
X330792Y172966D01*
X329878Y173344D01*
X328898Y173473D01*
D02*
G37*
G36*
X318898D02*
X317917Y173344D01*
X317003Y172966D01*
X316219Y172364D01*
X315617Y171579D01*
X315238Y170666D01*
X315109Y169685D01*
X315238Y168704D01*
X315617Y167791D01*
X316219Y167006D01*
X317003Y166404D01*
X317917Y166026D01*
X318898Y165897D01*
X319878Y166026D01*
X320792Y166404D01*
X321576Y167006D01*
X322178Y167791D01*
X322557Y168704D01*
X322686Y169685D01*
X322557Y170666D01*
X322178Y171579D01*
X321576Y172364D01*
X320792Y172966D01*
X319878Y173344D01*
X318898Y173473D01*
D02*
G37*
G36*
X308898D02*
X307917Y173344D01*
X307003Y172966D01*
X306219Y172364D01*
X305617Y171579D01*
X305238Y170666D01*
X305109Y169685D01*
X305238Y168704D01*
X305617Y167791D01*
X306219Y167006D01*
X307003Y166404D01*
X307917Y166026D01*
X308898Y165897D01*
X309878Y166026D01*
X310792Y166404D01*
X311576Y167006D01*
X312178Y167791D01*
X312557Y168704D01*
X312686Y169685D01*
X312557Y170666D01*
X312178Y171579D01*
X311576Y172364D01*
X310792Y172966D01*
X309878Y173344D01*
X308898Y173473D01*
D02*
G37*
G36*
X430276Y173473D02*
X429295Y173344D01*
X428381Y172966D01*
X427597Y172364D01*
X426995Y171579D01*
X426616Y170666D01*
X426487Y169685D01*
X426616Y168704D01*
X426937Y167930D01*
X420166Y161159D01*
X412008D01*
X411579Y161074D01*
X411216Y160831D01*
X403539Y153154D01*
X403296Y152791D01*
X403211Y152362D01*
Y147932D01*
X403296Y147503D01*
X403539Y147140D01*
X410494Y140185D01*
Y129303D01*
X391688Y110497D01*
X391446Y110133D01*
X391360Y109705D01*
Y103457D01*
X390500D01*
Y94378D01*
X394461D01*
Y103457D01*
X393600D01*
Y109241D01*
X412406Y128047D01*
X412649Y128410D01*
X412734Y128839D01*
Y140649D01*
X412649Y141077D01*
X412406Y141441D01*
X405451Y148396D01*
Y151898D01*
X412472Y158919D01*
X420630D01*
X421059Y159005D01*
X421422Y159248D01*
X428521Y166347D01*
X429295Y166026D01*
X430276Y165897D01*
X431256Y166026D01*
X432170Y166404D01*
X432954Y167006D01*
X433556Y167791D01*
X433935Y168704D01*
X434064Y169685D01*
X433935Y170666D01*
X433556Y171579D01*
X432954Y172364D01*
X432170Y172966D01*
X431256Y173344D01*
X430276Y173473D01*
D02*
G37*
G36*
X420276D02*
X419295Y173344D01*
X418381Y172966D01*
X417597Y172364D01*
X416995Y171579D01*
X416616Y170666D01*
X416487Y169685D01*
X416616Y168704D01*
X416995Y167791D01*
X417597Y167006D01*
X418381Y166404D01*
X419295Y166026D01*
X420276Y165897D01*
X421256Y166026D01*
X422170Y166404D01*
X422954Y167006D01*
X423556Y167791D01*
X423935Y168704D01*
X424064Y169685D01*
X423935Y170666D01*
X423556Y171579D01*
X422954Y172364D01*
X422170Y172966D01*
X421256Y173344D01*
X420276Y173473D01*
D02*
G37*
G36*
X153727Y168988D02*
X149909D01*
Y165170D01*
X150544Y165254D01*
X151601Y165692D01*
X152509Y166388D01*
X153206Y167296D01*
X153644Y168353D01*
X153727Y168988D01*
D02*
G37*
G36*
X148909D02*
X145091D01*
X145175Y168353D01*
X145613Y167296D01*
X146309Y166388D01*
X147217Y165692D01*
X148275Y165254D01*
X148909Y165170D01*
Y168988D01*
D02*
G37*
G36*
X169095Y173872D02*
X167960Y173723D01*
X166902Y173285D01*
X165995Y172588D01*
X165298Y171680D01*
X164860Y170623D01*
X164710Y169488D01*
X164860Y168353D01*
X165298Y167296D01*
X165995Y166388D01*
X166902Y165692D01*
X167960Y165254D01*
X169095Y165104D01*
X170229Y165254D01*
X171286Y165692D01*
X172194Y166388D01*
X172891Y167296D01*
X173329Y168353D01*
X173478Y169488D01*
X173329Y170623D01*
X172891Y171680D01*
X172194Y172588D01*
X171286Y173285D01*
X170229Y173723D01*
X169095Y173872D01*
D02*
G37*
G36*
X193938Y167317D02*
X187239D01*
Y163768D01*
X193938D01*
Y167317D01*
D02*
G37*
G36*
X186440D02*
X179741D01*
Y163768D01*
X186440D01*
Y167317D01*
D02*
G37*
G36*
X31803Y165841D02*
X29533D01*
Y163669D01*
X31803D01*
Y165841D01*
D02*
G37*
G36*
X28734D02*
X26465D01*
Y163669D01*
X28734D01*
Y165841D01*
D02*
G37*
G36*
X241449Y167317D02*
X236128D01*
Y163669D01*
X241449D01*
Y167317D01*
D02*
G37*
G36*
X235329D02*
X230008D01*
Y163669D01*
X235329D01*
Y167317D01*
D02*
G37*
G36*
X206693Y180162D02*
X205713Y180033D01*
X204801Y179655D01*
X204017Y179054D01*
X203416Y178270D01*
X203038Y177357D01*
X202909Y176378D01*
X203038Y175399D01*
X203416Y174486D01*
X204017Y173702D01*
X204451Y173369D01*
Y171665D01*
X199594D01*
Y163768D01*
X213791D01*
Y165475D01*
X215244D01*
Y163669D01*
X226685D01*
Y171764D01*
X215244D01*
Y169958D01*
X213791D01*
Y171665D01*
X208935D01*
Y173369D01*
X209369Y173702D01*
X209970Y174486D01*
X210348Y175399D01*
X210477Y176378D01*
X210348Y177357D01*
X209970Y178270D01*
X209369Y179054D01*
X208585Y179655D01*
X207672Y180033D01*
X206693Y180162D01*
D02*
G37*
G36*
X138878Y162332D02*
X138878Y162332D01*
X134646D01*
X134646Y162332D01*
X134295Y162263D01*
X133999Y162065D01*
X133999Y162065D01*
X127817Y155883D01*
X127708Y155720D01*
X126484D01*
Y147823D01*
X130445D01*
Y155720D01*
X130445Y155720D01*
X130445D01*
X130656Y156133D01*
X135025Y160502D01*
X138499D01*
X145854Y153147D01*
Y149102D01*
X150996D01*
Y154441D01*
X147149D01*
X139525Y162065D01*
X139228Y162263D01*
X138878Y162332D01*
D02*
G37*
G36*
X80945Y196947D02*
X74567D01*
X74138Y196862D01*
X73775Y196619D01*
X69527Y192370D01*
X69515Y192379D01*
X68458Y192817D01*
X67323Y192967D01*
X66188Y192817D01*
X65131Y192379D01*
X64223Y191683D01*
X63526Y190775D01*
X63088Y189717D01*
X63086Y189703D01*
X61717D01*
X61715Y189717D01*
X61277Y190775D01*
X60580Y191683D01*
X59672Y192379D01*
X58615Y192817D01*
X57480Y192967D01*
X56346Y192817D01*
X55288Y192379D01*
X54380Y191683D01*
X53684Y190775D01*
X53246Y189717D01*
X53096Y188583D01*
X53246Y187448D01*
X53684Y186391D01*
X53693Y186379D01*
X42227Y174913D01*
X38866D01*
Y169772D01*
X44205D01*
Y173723D01*
X55277Y184795D01*
X55288Y184786D01*
X56346Y184348D01*
X57480Y184199D01*
X58615Y184348D01*
X59672Y184786D01*
X60580Y185483D01*
X61277Y186391D01*
X61715Y187448D01*
X61717Y187463D01*
X63086D01*
X63088Y187448D01*
X63526Y186391D01*
X64223Y185483D01*
X65131Y184786D01*
X66188Y184348D01*
X67323Y184199D01*
X68458Y184348D01*
X69515Y184786D01*
X70423Y185483D01*
X71119Y186391D01*
X71557Y187448D01*
X71707Y188583D01*
X71557Y189717D01*
X71119Y190775D01*
X71110Y190786D01*
X75031Y194707D01*
X80481D01*
X83132Y192056D01*
Y185503D01*
X76373Y178745D01*
X76131Y178381D01*
X76045Y177953D01*
Y161665D01*
X74496D01*
Y160214D01*
X73732D01*
Y161075D01*
X66425D01*
Y157114D01*
X73732D01*
Y157975D01*
X74496D01*
Y156524D01*
X79835D01*
Y161665D01*
X78285D01*
Y177489D01*
X85044Y184247D01*
X85286Y184610D01*
X85372Y185039D01*
Y192520D01*
X85286Y192949D01*
X85044Y193312D01*
X81737Y196619D01*
X81374Y196862D01*
X80945Y196947D01*
D02*
G37*
G36*
X31803Y162807D02*
X26465D01*
Y157665D01*
X31803D01*
Y159116D01*
X32665D01*
Y157665D01*
X38004D01*
Y159116D01*
X38866D01*
Y157665D01*
X44205D01*
Y157975D01*
X44969D01*
Y157114D01*
X52276D01*
Y161075D01*
X44969D01*
Y160214D01*
X44205D01*
Y162807D01*
X38866D01*
Y161356D01*
X38004D01*
Y162807D01*
X32665D01*
Y161356D01*
X31803D01*
Y162807D01*
D02*
G37*
G36*
X44205Y168811D02*
X38866D01*
Y163669D01*
X44205D01*
Y165120D01*
X51898D01*
X56459Y160560D01*
Y156861D01*
X54978Y155381D01*
X52276D01*
Y156075D01*
X44969D01*
Y155214D01*
X44205D01*
Y156705D01*
X38866D01*
Y155254D01*
X38004D01*
Y156705D01*
X32665D01*
Y151563D01*
X38004D01*
Y153014D01*
X38866D01*
Y151563D01*
X44205D01*
Y152974D01*
X44969D01*
Y152114D01*
X52276D01*
Y153141D01*
X55442D01*
X55870Y153226D01*
X56234Y153469D01*
X58371Y155606D01*
X58613Y155969D01*
X58699Y156398D01*
Y161024D01*
X58613Y161452D01*
X58371Y161816D01*
X53154Y167032D01*
X52791Y167275D01*
X52362Y167360D01*
X44205D01*
Y168811D01*
D02*
G37*
G36*
X140445Y155720D02*
X138864D01*
Y152171D01*
X140445D01*
Y155720D01*
D02*
G37*
G36*
X138065D02*
X136484D01*
Y152171D01*
X138065D01*
Y155720D01*
D02*
G37*
G36*
X20976Y159854D02*
X13079D01*
Y148413D01*
X20976D01*
Y153014D01*
X26465D01*
Y151563D01*
X31803D01*
Y156705D01*
X26465D01*
Y155254D01*
X20976D01*
Y159854D01*
D02*
G37*
G36*
X55020Y151688D02*
X54348Y151599D01*
X53723Y151340D01*
X53187Y150929D01*
X52276D01*
Y151075D01*
X44969D01*
Y150929D01*
X44370D01*
X43668Y150789D01*
X43073Y150392D01*
X40908Y148226D01*
X40601Y147768D01*
X38866D01*
Y142626D01*
X44205D01*
Y146335D01*
X44984Y147114D01*
X52276D01*
Y147260D01*
X53187D01*
X53723Y146849D01*
X54348Y146590D01*
X55020Y146501D01*
X55691Y146590D01*
X56316Y146849D01*
X56853Y147261D01*
X57265Y147798D01*
X57524Y148423D01*
X57613Y149094D01*
X57524Y149766D01*
X57265Y150391D01*
X56853Y150928D01*
X56316Y151340D01*
X55691Y151599D01*
X55020Y151688D01*
D02*
G37*
G36*
X281012Y154121D02*
Y150303D01*
X284830D01*
X284746Y150938D01*
X284308Y151995D01*
X283612Y152903D01*
X282704Y153600D01*
X281646Y154038D01*
X281012Y154121D01*
D02*
G37*
G36*
X280012Y154121D02*
X279377Y154038D01*
X278320Y153600D01*
X277412Y152903D01*
X276715Y151995D01*
X276277Y150938D01*
X276194Y150303D01*
X280012D01*
Y154121D01*
D02*
G37*
G36*
X214776Y153260D02*
X208077D01*
Y148628D01*
X214776D01*
Y153260D01*
D02*
G37*
G36*
X207278D02*
X200579D01*
Y148628D01*
X207278D01*
Y153260D01*
D02*
G37*
G36*
X140445Y151372D02*
X138864D01*
Y147823D01*
X140445D01*
Y151372D01*
D02*
G37*
G36*
X138065D02*
X136484D01*
Y147823D01*
X138065D01*
Y151372D01*
D02*
G37*
G36*
X63681Y151688D02*
X63010Y151599D01*
X62384Y151340D01*
X61848Y150928D01*
X61435Y150391D01*
X61176Y149766D01*
X61088Y149094D01*
X61176Y148423D01*
X61435Y147798D01*
X61848Y147261D01*
X62384Y146849D01*
X63010Y146590D01*
X63681Y146501D01*
X64352Y146590D01*
X64978Y146849D01*
X65515Y147261D01*
X65528Y147278D01*
X66425D01*
Y147114D01*
X73732D01*
Y151075D01*
X66425D01*
Y150911D01*
X65528D01*
X65515Y150928D01*
X64978Y151340D01*
X64352Y151599D01*
X63681Y151688D01*
D02*
G37*
G36*
X420276Y153788D02*
X419295Y153659D01*
X418381Y153281D01*
X417597Y152679D01*
X416995Y151894D01*
X416616Y150980D01*
X416487Y150000D01*
X416616Y149020D01*
X416995Y148106D01*
X417597Y147321D01*
X418381Y146719D01*
X419295Y146341D01*
X420276Y146212D01*
X421256Y146341D01*
X422170Y146719D01*
X422954Y147321D01*
X423556Y148106D01*
X423935Y149020D01*
X424064Y150000D01*
X423935Y150980D01*
X423556Y151894D01*
X422954Y152679D01*
X422170Y153281D01*
X421256Y153659D01*
X420276Y153788D01*
D02*
G37*
G36*
X410276D02*
X409295Y153659D01*
X408381Y153281D01*
X407597Y152679D01*
X406995Y151894D01*
X406616Y150980D01*
X406487Y150000D01*
X406616Y149020D01*
X406995Y148106D01*
X407597Y147321D01*
X408381Y146719D01*
X409295Y146341D01*
X410276Y146212D01*
X411256Y146341D01*
X412170Y146719D01*
X412954Y147321D01*
X413556Y148106D01*
X413935Y149020D01*
X414064Y150000D01*
X413935Y150980D01*
X413556Y151894D01*
X412954Y152679D01*
X412170Y153281D01*
X411256Y153659D01*
X410276Y153788D01*
D02*
G37*
G36*
X318898D02*
X317917Y153659D01*
X317003Y153281D01*
X316219Y152679D01*
X315617Y151894D01*
X315238Y150980D01*
X315109Y150000D01*
X315238Y149020D01*
X315617Y148106D01*
X316219Y147321D01*
X317003Y146719D01*
X317917Y146341D01*
X318898Y146212D01*
X319878Y146341D01*
X320792Y146719D01*
X321576Y147321D01*
X322178Y148106D01*
X322557Y149020D01*
X322686Y150000D01*
X322557Y150980D01*
X322178Y151894D01*
X321576Y152679D01*
X320792Y153281D01*
X319878Y153659D01*
X318898Y153788D01*
D02*
G37*
G36*
X82579Y146687D02*
X81908Y146599D01*
X81282Y146340D01*
X80745Y145928D01*
X80732Y145911D01*
X79835D01*
Y146665D01*
X74496D01*
Y145911D01*
X73732D01*
Y146075D01*
X66425D01*
Y142114D01*
X73732D01*
Y142278D01*
X74496D01*
Y141524D01*
X79835D01*
Y142278D01*
X80732D01*
X80745Y142261D01*
X81282Y141849D01*
X81908Y141590D01*
X82579Y141501D01*
X83250Y141590D01*
X83875Y141849D01*
X84412Y142261D01*
X84824Y142798D01*
X85083Y143423D01*
X85172Y144095D01*
X85083Y144766D01*
X84824Y145391D01*
X84412Y145928D01*
X83875Y146340D01*
X83250Y146599D01*
X82579Y146687D01*
D02*
G37*
G36*
X280012Y149303D02*
X276194D01*
X276277Y148669D01*
X276715Y147611D01*
X277412Y146703D01*
X278320Y146007D01*
X279377Y145569D01*
X280012Y145485D01*
Y149303D01*
D02*
G37*
G36*
X284830D02*
X281012D01*
Y145485D01*
X281646Y145569D01*
X282704Y146007D01*
X283612Y146703D01*
X284308Y147611D01*
X284746Y148669D01*
X284830Y149303D01*
D02*
G37*
G36*
X245779Y152149D02*
X242230D01*
Y145450D01*
X245779D01*
Y152149D01*
D02*
G37*
G36*
X241431D02*
X237882D01*
Y145450D01*
X241431D01*
Y152149D01*
D02*
G37*
G36*
X141035Y146416D02*
X138864D01*
Y144934D01*
X141035D01*
Y146416D01*
D02*
G37*
G36*
X138065D02*
X135894D01*
Y144934D01*
X138065D01*
Y146416D01*
D02*
G37*
G36*
X52276Y146075D02*
X49022D01*
Y144494D01*
X52276D01*
Y146075D01*
D02*
G37*
G36*
X48222D02*
X44969D01*
Y144494D01*
X48222D01*
Y146075D01*
D02*
G37*
G36*
X214776Y147829D02*
X208077D01*
Y143197D01*
X214776D01*
Y147829D01*
D02*
G37*
G36*
X207278D02*
X200579D01*
Y143197D01*
X207278D01*
Y147829D01*
D02*
G37*
G36*
X141035Y144135D02*
X138864D01*
Y142653D01*
X141035D01*
Y144135D01*
D02*
G37*
G36*
X138065D02*
X135894D01*
Y142653D01*
X138065D01*
Y144135D01*
D02*
G37*
G36*
X52276Y143695D02*
X49022D01*
Y142114D01*
X52276D01*
Y143695D01*
D02*
G37*
G36*
X48222D02*
X44969D01*
Y142114D01*
X48222D01*
Y143695D01*
D02*
G37*
G36*
X123972Y159815D02*
X115287D01*
Y155067D01*
X118191D01*
Y150406D01*
X117256D01*
Y147232D01*
X118191D01*
Y146624D01*
X117796Y146322D01*
X117384Y145785D01*
X117125Y145159D01*
X117037Y144488D01*
X117125Y143817D01*
X117384Y143192D01*
X117796Y142655D01*
X118333Y142243D01*
X118959Y141983D01*
X119630Y141895D01*
X120301Y141983D01*
X120926Y142243D01*
X121464Y142655D01*
X121876Y143192D01*
X122135Y143817D01*
X122223Y144488D01*
X122135Y145159D01*
X121876Y145785D01*
X121464Y146322D01*
X121069Y146624D01*
Y147232D01*
X122004D01*
Y150406D01*
X121069D01*
Y155067D01*
X123972D01*
Y159815D01*
D02*
G37*
G36*
X150898Y142086D02*
X145756D01*
Y140332D01*
X141035D01*
Y141298D01*
X135894D01*
Y137535D01*
X141035D01*
Y138501D01*
X145756D01*
Y136747D01*
X150898D01*
Y142086D01*
D02*
G37*
G36*
X96413Y159815D02*
X87728D01*
Y155067D01*
X96413D01*
Y156002D01*
X104213D01*
X109136Y151079D01*
Y150406D01*
X108201D01*
Y147232D01*
X109136D01*
Y145672D01*
X109136Y145672D01*
X109245Y145121D01*
X109557Y144654D01*
X115812Y138399D01*
X115812Y138399D01*
X116279Y138087D01*
X116830Y137977D01*
X116830Y137978D01*
X122062D01*
X122062Y137977D01*
X122613Y138087D01*
X123079Y138399D01*
X125217Y140536D01*
X127035D01*
Y140094D01*
X132177D01*
Y143858D01*
X127035D01*
Y143415D01*
X124621D01*
X124621Y143415D01*
X124070Y143305D01*
X123603Y142993D01*
X123603Y142993D01*
X121466Y140856D01*
X117426D01*
X112014Y146268D01*
Y147232D01*
X112949D01*
Y150406D01*
X112014D01*
Y151675D01*
X112014Y151676D01*
X111904Y152226D01*
X111592Y152693D01*
X111592Y152693D01*
X105827Y158458D01*
X105360Y158771D01*
X104809Y158880D01*
X104809Y158880D01*
X96413D01*
Y159815D01*
D02*
G37*
G36*
X33773Y149149D02*
X32923Y148980D01*
X32203Y148499D01*
X31722Y147779D01*
X31553Y146929D01*
X31722Y146080D01*
X32203Y145360D01*
X32653Y145059D01*
Y141547D01*
X29528D01*
Y139703D01*
X28654D01*
Y141154D01*
X23315D01*
Y136012D01*
X28654D01*
Y137463D01*
X29528D01*
Y135618D01*
X38017D01*
Y141547D01*
X34892D01*
Y145059D01*
X35342Y145360D01*
X35823Y146080D01*
X35992Y146929D01*
X35823Y147779D01*
X35342Y148499D01*
X34622Y148980D01*
X33773Y149149D01*
D02*
G37*
G36*
X79835Y140563D02*
X77565D01*
Y138392D01*
X79835D01*
Y140563D01*
D02*
G37*
G36*
X76766D02*
X74496D01*
Y138392D01*
X76766D01*
Y140563D01*
D02*
G37*
G36*
X344461Y140858D02*
X340500D01*
Y138153D01*
X337709D01*
Y138890D01*
X332370D01*
Y138153D01*
X331473D01*
X330937Y138565D01*
X330312Y138824D01*
X329641Y138912D01*
X328970Y138824D01*
X328344Y138565D01*
X327807Y138152D01*
X327395Y137615D01*
X327136Y136990D01*
X327048Y136319D01*
X327136Y135648D01*
X327395Y135022D01*
X327807Y134485D01*
X328344Y134073D01*
X328970Y133814D01*
X329641Y133726D01*
X330312Y133814D01*
X330937Y134073D01*
X331473Y134484D01*
X332370D01*
Y133748D01*
X337709D01*
Y134484D01*
X340500D01*
Y131780D01*
X344461D01*
Y140858D01*
D02*
G37*
G36*
X245779Y144651D02*
X242230D01*
Y137952D01*
X245779D01*
Y144651D01*
D02*
G37*
G36*
X241431D02*
X237882D01*
Y137952D01*
X241431D01*
Y144651D01*
D02*
G37*
G36*
X44205Y141665D02*
X38866D01*
Y136524D01*
X40415D01*
Y135642D01*
X38866D01*
Y130500D01*
X44205D01*
Y135642D01*
X42655D01*
Y136524D01*
X44205D01*
Y137975D01*
X44969D01*
Y137114D01*
X52276D01*
Y141075D01*
X44969D01*
Y140214D01*
X44205D01*
Y141665D01*
D02*
G37*
G36*
X359461Y140858D02*
X357880D01*
Y136718D01*
X359461D01*
Y140858D01*
D02*
G37*
G36*
X357081D02*
X355500D01*
Y136718D01*
X357081D01*
Y140858D01*
D02*
G37*
G36*
X79835Y137592D02*
X77565D01*
Y135421D01*
X79835D01*
Y137592D01*
D02*
G37*
G36*
X76766D02*
X74496D01*
Y135421D01*
X76766D01*
Y137592D01*
D02*
G37*
G36*
X93944Y148766D02*
X86046D01*
Y137325D01*
X93944D01*
Y141926D01*
X96250D01*
X99196Y138979D01*
Y135323D01*
X104535D01*
Y140465D01*
X100878D01*
X97505Y143838D01*
X97142Y144080D01*
X96713Y144166D01*
X93944D01*
Y148766D01*
D02*
G37*
G36*
X399461Y140858D02*
X395500D01*
Y131780D01*
X399461D01*
Y135199D01*
X399980D01*
X400281Y134749D01*
X401001Y134268D01*
X401850Y134099D01*
X402700Y134268D01*
X403420Y134749D01*
X403901Y135469D01*
X404070Y136319D01*
X403901Y137168D01*
X403420Y137889D01*
X402700Y138370D01*
X401850Y138539D01*
X401001Y138370D01*
X400281Y137889D01*
X399980Y137439D01*
X399461D01*
Y140858D01*
D02*
G37*
G36*
X111134Y134362D02*
X105795D01*
Y132911D01*
X104535D01*
Y134362D01*
X99196D01*
Y129220D01*
X104535D01*
Y130671D01*
X105795D01*
Y129220D01*
X109550D01*
X120675Y118095D01*
Y100070D01*
X119686Y99081D01*
X118069D01*
Y100110D01*
X115831D01*
Y107533D01*
X115746Y107962D01*
X115503Y108325D01*
X114382Y109446D01*
Y113065D01*
X109043D01*
Y111614D01*
X108181D01*
Y113065D01*
X102842D01*
Y107923D01*
X108181D01*
Y109374D01*
X109043D01*
Y107923D01*
X112737D01*
X113591Y107069D01*
Y100110D01*
X113142D01*
Y96456D01*
Y92803D01*
X118069D01*
Y96841D01*
X120150D01*
X120579Y96927D01*
X120942Y97169D01*
X122587Y98814D01*
X122830Y99178D01*
X122915Y99606D01*
Y118559D01*
X122830Y118988D01*
X122587Y119351D01*
X111134Y130804D01*
Y134362D01*
D02*
G37*
G36*
X28654Y135051D02*
X26384D01*
Y132880D01*
X28654D01*
Y135051D01*
D02*
G37*
G36*
X25585D02*
X23315D01*
Y132880D01*
X25585D01*
Y135051D01*
D02*
G37*
G36*
X392480Y145625D02*
X391631Y145456D01*
X390911Y144975D01*
X390429Y144255D01*
X390261Y143405D01*
X390429Y142556D01*
X390911Y141836D01*
X391360Y141535D01*
Y140858D01*
X390500D01*
Y131780D01*
X394461D01*
Y140858D01*
X393600D01*
Y141535D01*
X394050Y141836D01*
X394531Y142556D01*
X394700Y143405D01*
X394531Y144255D01*
X394050Y144975D01*
X393330Y145456D01*
X392480Y145625D01*
D02*
G37*
G36*
X387480Y149759D02*
X386631Y149590D01*
X385911Y149109D01*
X385430Y148389D01*
X385261Y147539D01*
X385430Y146690D01*
X385911Y145970D01*
X386360Y145669D01*
Y140858D01*
X385500D01*
Y131780D01*
X389461D01*
Y140858D01*
X388600D01*
Y145669D01*
X389050Y145970D01*
X389531Y146690D01*
X389700Y147539D01*
X389531Y148389D01*
X389050Y149109D01*
X388330Y149590D01*
X387480Y149759D01*
D02*
G37*
G36*
X382480Y153795D02*
X381631Y153626D01*
X380911Y153144D01*
X380430Y152424D01*
X380260Y151575D01*
X380430Y150725D01*
X380911Y150005D01*
X381360Y149705D01*
Y140858D01*
X380500D01*
Y131780D01*
X384461D01*
Y140858D01*
X383600D01*
Y149705D01*
X384050Y150005D01*
X384531Y150725D01*
X384700Y151575D01*
X384531Y152424D01*
X384050Y153144D01*
X383330Y153626D01*
X382480Y153795D01*
D02*
G37*
G36*
X377480D02*
X376631Y153626D01*
X375911Y153144D01*
X375430Y152424D01*
X375260Y151575D01*
X375430Y150725D01*
X375911Y150005D01*
X376360Y149705D01*
Y140858D01*
X375500D01*
Y131780D01*
X379461D01*
Y140858D01*
X378600D01*
Y149705D01*
X379050Y150005D01*
X379531Y150725D01*
X379700Y151575D01*
X379531Y152424D01*
X379050Y153144D01*
X378330Y153626D01*
X377480Y153795D01*
D02*
G37*
G36*
X372480Y149759D02*
X371631Y149590D01*
X370911Y149109D01*
X370429Y148389D01*
X370261Y147539D01*
X370429Y146690D01*
X370911Y145970D01*
X371360Y145669D01*
Y140858D01*
X370500D01*
Y131780D01*
X374461D01*
Y140858D01*
X373600D01*
Y145669D01*
X374050Y145970D01*
X374531Y146690D01*
X374700Y147539D01*
X374531Y148389D01*
X374050Y149109D01*
X373330Y149590D01*
X372480Y149759D01*
D02*
G37*
G36*
X367421Y145625D02*
X366572Y145456D01*
X365852Y144975D01*
X365370Y144255D01*
X365201Y143405D01*
X365370Y142556D01*
X365852Y141836D01*
X366360Y141496D01*
Y140858D01*
X365500D01*
Y131780D01*
X369461D01*
Y140858D01*
X368600D01*
Y141575D01*
X368991Y141836D01*
X369472Y142556D01*
X369641Y143405D01*
X369472Y144255D01*
X368991Y144975D01*
X368271Y145456D01*
X367421Y145625D01*
D02*
G37*
G36*
X328898Y153788D02*
X327917Y153659D01*
X327004Y153281D01*
X326219Y152679D01*
X325617Y151894D01*
X325238Y150980D01*
X325109Y150000D01*
X325238Y149020D01*
X325617Y148106D01*
X326219Y147321D01*
X327004Y146719D01*
X327917Y146341D01*
X328898Y146212D01*
X329878Y146341D01*
X330792Y146719D01*
X331576Y147321D01*
X332178Y148106D01*
X332499Y148880D01*
X356327D01*
X361360Y143847D01*
Y140858D01*
X360500D01*
Y131780D01*
X364461D01*
Y140858D01*
X363600D01*
Y144311D01*
X363515Y144740D01*
X363272Y145103D01*
X357583Y150792D01*
X357220Y151035D01*
X356791Y151120D01*
X332499D01*
X332178Y151894D01*
X331576Y152679D01*
X330792Y153281D01*
X329878Y153659D01*
X328898Y153788D01*
D02*
G37*
G36*
X359461Y135919D02*
X357880D01*
Y131780D01*
X359461D01*
Y135919D01*
D02*
G37*
G36*
X357081D02*
X355500D01*
Y131780D01*
X357081D01*
Y135919D01*
D02*
G37*
G36*
X354461Y140858D02*
X350500D01*
Y131780D01*
X354461D01*
Y140858D01*
D02*
G37*
G36*
X192925Y133870D02*
X190656D01*
Y131699D01*
X192925D01*
Y133870D01*
D02*
G37*
G36*
X227768D02*
X225498D01*
Y131699D01*
X227768D01*
Y133870D01*
D02*
G37*
G36*
X224699D02*
X222429D01*
Y131699D01*
X224699D01*
Y133870D01*
D02*
G37*
G36*
X189856D02*
X187587D01*
Y131699D01*
X189856D01*
Y133870D01*
D02*
G37*
G36*
X337709Y132787D02*
X335439D01*
Y130616D01*
X337709D01*
Y132787D01*
D02*
G37*
G36*
X334640D02*
X332370D01*
Y130616D01*
X334640D01*
Y132787D01*
D02*
G37*
G36*
X28654Y132081D02*
X26384D01*
Y129910D01*
X28654D01*
Y132081D01*
D02*
G37*
G36*
X25585D02*
X23315D01*
Y129910D01*
X25585D01*
Y132081D01*
D02*
G37*
G36*
X227768Y130900D02*
X225498D01*
Y128728D01*
X227768D01*
Y130900D01*
D02*
G37*
G36*
X224699D02*
X222429D01*
Y128728D01*
X224699D01*
Y130900D01*
D02*
G37*
G36*
X192925D02*
X190656D01*
Y128728D01*
X192925D01*
Y130900D01*
D02*
G37*
G36*
X189856D02*
X187587D01*
Y128728D01*
X189856D01*
Y130900D01*
D02*
G37*
G36*
X337709Y129817D02*
X335439D01*
Y127646D01*
X337709D01*
Y129817D01*
D02*
G37*
G36*
X334640D02*
X332370D01*
Y127646D01*
X334640D01*
Y129817D01*
D02*
G37*
G36*
X201193Y130228D02*
X196051D01*
Y127438D01*
X192925D01*
Y127768D01*
X187587D01*
Y127438D01*
X186867D01*
X186534Y127873D01*
X185750Y128474D01*
X184838Y128852D01*
X183858Y128981D01*
X182879Y128852D01*
X181966Y128474D01*
X181182Y127873D01*
X180581Y127089D01*
X180203Y126176D01*
X180074Y125197D01*
X180203Y124217D01*
X180581Y123305D01*
X181182Y122521D01*
X181966Y121920D01*
X182879Y121541D01*
X183858Y121413D01*
X184838Y121541D01*
X185750Y121920D01*
X186534Y122521D01*
X186868Y122955D01*
X187587D01*
Y122626D01*
X192925D01*
Y122955D01*
X196051D01*
Y120165D01*
X201193D01*
Y130228D01*
D02*
G37*
G36*
X245779Y132295D02*
X237882D01*
Y127438D01*
X235293D01*
X234959Y127873D01*
X234176Y128474D01*
X233263Y128852D01*
X232283Y128981D01*
X231304Y128852D01*
X230391Y128474D01*
X229608Y127873D01*
X229274Y127438D01*
X227768D01*
Y127768D01*
X222429D01*
Y127438D01*
X219303D01*
Y130228D01*
X214161D01*
Y120165D01*
X219303D01*
Y122955D01*
X222429D01*
Y122626D01*
X227768D01*
Y122955D01*
X229274D01*
X229608Y122521D01*
X230391Y121920D01*
X231304Y121542D01*
X232283Y121413D01*
X233263Y121542D01*
X234176Y121920D01*
X234959Y122521D01*
X235293Y122955D01*
X237882D01*
Y118098D01*
X245779D01*
Y132295D01*
D02*
G37*
G36*
X280512Y134502D02*
X279377Y134353D01*
X278320Y133915D01*
X277412Y133218D01*
X276715Y132310D01*
X276277Y131253D01*
X276128Y130118D01*
X276277Y128983D01*
X276715Y127926D01*
X277412Y127018D01*
X278320Y126321D01*
X279377Y125883D01*
X280512Y125734D01*
X281646Y125883D01*
X282704Y126321D01*
X283612Y127018D01*
X284308Y127926D01*
X284746Y128983D01*
X284896Y130118D01*
X284746Y131253D01*
X284308Y132310D01*
X283612Y133218D01*
X282704Y133915D01*
X281646Y134353D01*
X280512Y134502D01*
D02*
G37*
G36*
X210248Y130228D02*
X208077D01*
Y125596D01*
X210248D01*
Y130228D01*
D02*
G37*
G36*
X207278D02*
X205106D01*
Y125596D01*
X207278D01*
Y130228D01*
D02*
G37*
G36*
X38017Y129933D02*
X29528D01*
Y124004D01*
X38017D01*
Y125849D01*
X38866D01*
Y124398D01*
X44205D01*
Y129539D01*
X38866D01*
Y128088D01*
X38017D01*
Y129933D01*
D02*
G37*
G36*
X349461Y140858D02*
X345500D01*
Y131780D01*
X346055D01*
Y131654D01*
X346164Y131108D01*
X346473Y130646D01*
X351351Y125768D01*
X351813Y125459D01*
X352359Y125350D01*
X387219D01*
X387533Y124942D01*
X388070Y124530D01*
X388695Y124271D01*
X389366Y124182D01*
X390037Y124271D01*
X390663Y124530D01*
X391200Y124942D01*
X391612Y125479D01*
X391871Y126104D01*
X391959Y126775D01*
X391871Y127446D01*
X391612Y128072D01*
X391200Y128609D01*
X390663Y129021D01*
X390037Y129280D01*
X389366Y129368D01*
X388695Y129280D01*
X388070Y129021D01*
X387533Y128609D01*
X387219Y128200D01*
X352949D01*
X349739Y131410D01*
X349461Y131780D01*
X349461D01*
X349461Y131780D01*
Y140858D01*
D02*
G37*
G36*
X73732Y136075D02*
X66425D01*
Y132114D01*
X68959D01*
Y131075D01*
X66425D01*
Y127114D01*
X73732D01*
Y127974D01*
X86046D01*
Y123374D01*
X93944D01*
Y134815D01*
X86046D01*
Y130214D01*
X73732D01*
Y131075D01*
X71199D01*
Y132114D01*
X73732D01*
Y136075D01*
D02*
G37*
G36*
X139032Y126784D02*
X132333D01*
Y123234D01*
X139032D01*
Y126784D01*
D02*
G37*
G36*
X131533D02*
X124835D01*
Y123234D01*
X131533D01*
Y126784D01*
D02*
G37*
G36*
X210248Y124797D02*
X208077D01*
Y120165D01*
X210248D01*
Y124797D01*
D02*
G37*
G36*
X207278D02*
X205106D01*
Y120165D01*
X207278D01*
Y124797D01*
D02*
G37*
G36*
X139032Y122435D02*
X132333D01*
Y118886D01*
X139032D01*
Y122435D01*
D02*
G37*
G36*
X131533D02*
X124835D01*
Y118886D01*
X131533D01*
Y122435D01*
D02*
G37*
G36*
X63386Y128676D02*
X62715Y128587D01*
X62089Y128328D01*
X61552Y127916D01*
X61140Y127379D01*
X60881Y126754D01*
X60793Y126083D01*
X60881Y125412D01*
X61140Y124786D01*
X61490Y124331D01*
X61382Y123935D01*
X61325Y123831D01*
X61110D01*
Y118492D01*
X66252D01*
Y123831D01*
X65413D01*
X65282Y124331D01*
X65631Y124786D01*
X65891Y125412D01*
X65979Y126083D01*
X65891Y126754D01*
X65631Y127379D01*
X65219Y127916D01*
X64682Y128328D01*
X64057Y128587D01*
X63386Y128676D01*
D02*
G37*
G36*
X40391Y118319D02*
X28950D01*
Y115490D01*
X28063D01*
Y116941D01*
X22724D01*
Y111799D01*
X28063D01*
Y113250D01*
X28950D01*
Y110421D01*
X40391D01*
Y118319D01*
D02*
G37*
G36*
X66252Y117630D02*
X64081D01*
Y115360D01*
X66252D01*
Y117630D01*
D02*
G37*
G36*
X63281D02*
X61110D01*
Y115360D01*
X63281D01*
Y117630D01*
D02*
G37*
G36*
X21862Y116941D02*
X19592D01*
Y114770D01*
X21862D01*
Y116941D01*
D02*
G37*
G36*
X18793D02*
X16524D01*
Y114770D01*
X18793D01*
Y116941D01*
D02*
G37*
G36*
X114382Y119167D02*
X109043D01*
Y114025D01*
X114382D01*
Y115476D01*
X115302D01*
X115602Y115026D01*
X116322Y114545D01*
X117172Y114376D01*
X118021Y114545D01*
X118741Y115026D01*
X119222Y115747D01*
X119392Y116596D01*
X119222Y117446D01*
X118741Y118166D01*
X118021Y118647D01*
X117172Y118816D01*
X116322Y118647D01*
X115602Y118166D01*
X115302Y117716D01*
X114382D01*
Y119167D01*
D02*
G37*
G36*
X97487Y122317D02*
X89590D01*
Y110876D01*
X97487D01*
Y115476D01*
X102842D01*
Y114025D01*
X108181D01*
Y119167D01*
X102842D01*
Y117716D01*
X97487D01*
Y122317D01*
D02*
G37*
G36*
X66252Y114561D02*
X64081D01*
Y112291D01*
X66252D01*
Y114561D01*
D02*
G37*
G36*
X63281D02*
X61110D01*
Y112291D01*
X63281D01*
Y114561D01*
D02*
G37*
G36*
X21862Y113970D02*
X19592D01*
Y111799D01*
X21862D01*
Y113970D01*
D02*
G37*
G36*
X18793D02*
X16524D01*
Y111799D01*
X18793D01*
Y113970D01*
D02*
G37*
G36*
X79736Y122317D02*
X71838D01*
Y113473D01*
X71838D01*
X71409Y113388D01*
X71046Y113145D01*
X67781Y109880D01*
X66252D01*
Y111429D01*
X61110D01*
Y106091D01*
X66252D01*
Y107640D01*
X68245D01*
X68674Y107725D01*
X69037Y107968D01*
X71945Y110876D01*
X79736D01*
Y122317D01*
D02*
G37*
G36*
X28063Y110838D02*
X22724D01*
Y109388D01*
X21862D01*
Y110838D01*
X16524D01*
Y105697D01*
X21862D01*
Y107148D01*
X22724D01*
Y105697D01*
X24274D01*
Y103260D01*
X20264D01*
Y99299D01*
X24274D01*
Y98260D01*
X20264D01*
Y94299D01*
X30523D01*
Y98260D01*
X26514D01*
Y99299D01*
X30523D01*
Y103260D01*
X26514D01*
Y105697D01*
X28063D01*
Y110838D01*
D02*
G37*
G36*
X158885Y126784D02*
X144688D01*
Y118886D01*
X149953D01*
Y116007D01*
X149541Y115470D01*
X149282Y114844D01*
X149194Y114173D01*
X149282Y113502D01*
X149541Y112877D01*
X149953Y112340D01*
Y108968D01*
X147543D01*
Y107838D01*
X146646D01*
Y108968D01*
X138157D01*
Y103039D01*
X146646D01*
Y104170D01*
X147543D01*
Y103039D01*
X156031D01*
Y108968D01*
X153620D01*
Y112340D01*
X154032Y112877D01*
X154291Y113502D01*
X154380Y114173D01*
X154291Y114844D01*
X154032Y115470D01*
X153620Y116007D01*
Y118886D01*
X158885D01*
Y126784D01*
D02*
G37*
G36*
X354331Y107214D02*
X354331Y107214D01*
X340188D01*
X340188Y107214D01*
X339838Y107145D01*
X339541Y106946D01*
X339541Y106946D01*
X325368Y92773D01*
X325169Y92476D01*
X325100Y92126D01*
X325100Y92126D01*
Y88227D01*
X324445Y87790D01*
X323964Y87070D01*
X323795Y86221D01*
X323964Y85371D01*
X324445Y84651D01*
X325165Y84170D01*
X326015Y84001D01*
X326864Y84170D01*
X327585Y84651D01*
X328066Y85371D01*
X328235Y86221D01*
X328066Y87070D01*
X327585Y87790D01*
X326930Y88227D01*
Y91747D01*
X340567Y105384D01*
X353952D01*
X355611Y103725D01*
X355500Y103457D01*
X355500D01*
Y94378D01*
X359461D01*
Y103457D01*
X358291D01*
X358271Y103555D01*
X358073Y103852D01*
X358072Y103852D01*
X354978Y106946D01*
X354681Y107145D01*
X354331Y107214D01*
D02*
G37*
G36*
X137315Y108968D02*
X133470D01*
Y106404D01*
X137315D01*
Y108968D01*
D02*
G37*
G36*
X132671D02*
X128827D01*
Y106404D01*
X132671D01*
Y108968D01*
D02*
G37*
G36*
X73732Y141075D02*
X66425D01*
Y139891D01*
X66310D01*
X65882Y139805D01*
X65518Y139563D01*
X56787Y130831D01*
X56544Y130468D01*
X56459Y130039D01*
Y123831D01*
X55008D01*
Y118492D01*
X56459D01*
Y117630D01*
X55008D01*
Y112291D01*
X56459D01*
Y111429D01*
X55008D01*
Y106091D01*
X60150D01*
Y111429D01*
X58699D01*
Y112291D01*
X60150D01*
Y117630D01*
X58699D01*
Y118492D01*
X60150D01*
Y123831D01*
X58699D01*
Y129576D01*
X66017Y136893D01*
X66425Y137114D01*
Y137114D01*
X66425Y137114D01*
X73732D01*
Y141075D01*
D02*
G37*
G36*
X52276Y136075D02*
X44969D01*
Y132114D01*
X47502D01*
Y131075D01*
X44969D01*
Y127114D01*
X47502D01*
Y118319D01*
X42902D01*
Y110421D01*
X47502D01*
Y109547D01*
X47587Y109119D01*
X47830Y108755D01*
X48870Y107715D01*
X48764Y107185D01*
X48933Y106336D01*
X49415Y105615D01*
X50135Y105134D01*
X50984Y104965D01*
X51834Y105134D01*
X52554Y105615D01*
X53035Y106336D01*
X53204Y107185D01*
X53035Y108035D01*
X52554Y108755D01*
X51834Y109236D01*
X50984Y109405D01*
X50454Y109299D01*
X49832Y109921D01*
X49959Y110421D01*
X54343D01*
Y118319D01*
X49742D01*
Y127114D01*
X52276D01*
Y131075D01*
X49742D01*
Y132114D01*
X52276D01*
Y136075D01*
D02*
G37*
G36*
X97487Y108365D02*
X89590D01*
Y103765D01*
X87599D01*
X87298Y104215D01*
X86578Y104696D01*
X85728Y104865D01*
X84879Y104696D01*
X84159Y104215D01*
X83678Y103494D01*
X83508Y102645D01*
X83678Y101795D01*
X84159Y101075D01*
X84879Y100594D01*
X85728Y100425D01*
X86578Y100594D01*
X87298Y101075D01*
X87599Y101525D01*
X89590D01*
Y96924D01*
X97487D01*
Y108365D01*
D02*
G37*
G36*
X137315Y105604D02*
X133470D01*
Y103039D01*
X137315D01*
Y105604D01*
D02*
G37*
G36*
X132671D02*
X128827D01*
Y103039D01*
X132671D01*
Y105604D01*
D02*
G37*
G36*
X79736Y108365D02*
X71838D01*
Y102399D01*
X66743D01*
Y103260D01*
X56484D01*
Y99299D01*
X66743D01*
Y100160D01*
X71838D01*
Y96924D01*
X79736D01*
Y108365D01*
D02*
G37*
G36*
X18122Y104520D02*
X15065D01*
Y100577D01*
X18122D01*
Y104520D01*
D02*
G37*
G36*
X14266D02*
X11209D01*
Y100577D01*
X14266D01*
Y104520D01*
D02*
G37*
G36*
X344461Y103457D02*
X342880D01*
Y99317D01*
X344461D01*
Y103457D01*
D02*
G37*
G36*
X342081D02*
X340500D01*
Y99317D01*
X342081D01*
Y103457D01*
D02*
G37*
G36*
X214087Y100406D02*
X211915D01*
Y98136D01*
X214087D01*
Y100406D01*
D02*
G37*
G36*
X211116D02*
X208945D01*
Y98136D01*
X211116D01*
Y100406D01*
D02*
G37*
G36*
X146646Y97354D02*
X138157D01*
Y96223D01*
X137315D01*
Y97354D01*
X128827D01*
Y91425D01*
X131237D01*
Y89432D01*
X130825Y88895D01*
X130566Y88270D01*
X130478Y87599D01*
X130566Y86927D01*
X130825Y86302D01*
X131237Y85765D01*
Y81606D01*
X125972D01*
Y73709D01*
X140169D01*
Y81606D01*
X134905D01*
Y85765D01*
X135317Y86302D01*
X135575Y86927D01*
X135664Y87599D01*
X135575Y88270D01*
X135317Y88895D01*
X134905Y89432D01*
Y91425D01*
X137315D01*
Y92556D01*
X138157D01*
Y91425D01*
X146646D01*
Y97354D01*
D02*
G37*
G36*
X18122Y99778D02*
X15065D01*
Y95835D01*
X18122D01*
Y99778D01*
D02*
G37*
G36*
X14266D02*
X11209D01*
Y95835D01*
X14266D01*
Y99778D01*
D02*
G37*
G36*
X407126Y112407D02*
X406248Y112291D01*
X405431Y111952D01*
X404728Y111414D01*
X404189Y110711D01*
X403851Y109893D01*
X403735Y109016D01*
X403851Y108138D01*
X404189Y107320D01*
X404728Y106618D01*
X405431Y106079D01*
X406248Y105740D01*
X407126Y105625D01*
X408004Y105740D01*
X408274Y105852D01*
X413963Y100164D01*
X413850Y99893D01*
X413735Y99016D01*
X413850Y98138D01*
X414189Y97320D01*
X414728Y96618D01*
X415430Y96079D01*
X416248Y95740D01*
X417126Y95625D01*
X418004Y95740D01*
X418821Y96079D01*
X419524Y96618D01*
X420063Y97320D01*
X420401Y98138D01*
X420517Y99016D01*
X420401Y99893D01*
X420063Y100711D01*
X419524Y101414D01*
X418821Y101952D01*
X418004Y102291D01*
X417126Y102407D01*
X416248Y102291D01*
X415978Y102179D01*
X410289Y107868D01*
X410401Y108138D01*
X410517Y109016D01*
X410401Y109893D01*
X410063Y110711D01*
X409524Y111414D01*
X408821Y111952D01*
X408004Y112291D01*
X407126Y112407D01*
D02*
G37*
G36*
X214087Y97337D02*
X211915D01*
Y95067D01*
X214087D01*
Y97337D01*
D02*
G37*
G36*
X211116D02*
X208945D01*
Y95067D01*
X211116D01*
Y97337D01*
D02*
G37*
G36*
X430276Y153788D02*
X429295Y153659D01*
X428381Y153281D01*
X427597Y152679D01*
X426995Y151894D01*
X426616Y150980D01*
X426487Y150000D01*
X426616Y149020D01*
X426995Y148106D01*
X427597Y147321D01*
X428381Y146719D01*
X428871Y146516D01*
Y139707D01*
X396688Y107524D01*
X396446Y107161D01*
X396360Y106732D01*
Y103457D01*
X395500D01*
Y94378D01*
X399461D01*
Y103457D01*
X398600D01*
Y106268D01*
X430783Y138451D01*
X431026Y138815D01*
X431111Y139243D01*
Y146322D01*
X431256Y146341D01*
X432170Y146719D01*
X432954Y147321D01*
X433556Y148106D01*
X433935Y149020D01*
X434064Y150000D01*
X433935Y150980D01*
X433556Y151894D01*
X432954Y152679D01*
X432170Y153281D01*
X431256Y153659D01*
X430276Y153788D01*
D02*
G37*
G36*
X336411Y123086D02*
X335562Y122917D01*
X334841Y122436D01*
X334360Y121716D01*
X334191Y120866D01*
X334360Y120017D01*
X334841Y119297D01*
X335562Y118815D01*
X336411Y118646D01*
X337261Y118815D01*
X337981Y119297D01*
X338281Y119746D01*
X370402D01*
X376360Y113788D01*
Y103457D01*
X375500D01*
Y94378D01*
X379461D01*
Y103457D01*
X378600D01*
Y114252D01*
X378515Y114681D01*
X378272Y115044D01*
X371658Y121658D01*
X371295Y121901D01*
X370866Y121986D01*
X338281D01*
X337981Y122436D01*
X337261Y122917D01*
X336411Y123086D01*
D02*
G37*
G36*
X325295Y127515D02*
X324446Y127346D01*
X323726Y126865D01*
X323244Y126145D01*
X323076Y125295D01*
X323244Y124446D01*
X323726Y123726D01*
X324446Y123244D01*
X325295Y123075D01*
X325826Y123181D01*
X333066Y115940D01*
X333430Y115698D01*
X333858Y115612D01*
X366662D01*
X371360Y110914D01*
Y103457D01*
X370500D01*
Y94378D01*
X374461D01*
Y103457D01*
X373600D01*
Y111378D01*
X373515Y111807D01*
X373272Y112170D01*
X367918Y117524D01*
X367555Y117767D01*
X367126Y117852D01*
X334322D01*
X327410Y124765D01*
X327515Y125295D01*
X327346Y126145D01*
X326865Y126865D01*
X326145Y127346D01*
X325295Y127515D01*
D02*
G37*
G36*
X313794Y132619D02*
X312944Y132450D01*
X312224Y131969D01*
X311743Y131249D01*
X311574Y130399D01*
X311743Y129550D01*
X312224Y128830D01*
X312944Y128348D01*
X313794Y128179D01*
X314324Y128285D01*
X329976Y112633D01*
X330339Y112390D01*
X330768Y112305D01*
X362312D01*
X366360Y108257D01*
Y103457D01*
X365500D01*
Y94378D01*
X369461D01*
Y103457D01*
X368600D01*
Y108721D01*
X368515Y109149D01*
X368272Y109512D01*
X363568Y114217D01*
X363204Y114460D01*
X362776Y114545D01*
X331232D01*
X315908Y129869D01*
X316014Y130399D01*
X315844Y131249D01*
X315363Y131969D01*
X314643Y132450D01*
X313794Y132619D01*
D02*
G37*
G36*
X308898Y153788D02*
X307917Y153659D01*
X307003Y153281D01*
X306219Y152679D01*
X305617Y151894D01*
X305238Y150980D01*
X305109Y150000D01*
X305238Y149020D01*
X305617Y148106D01*
X306219Y147321D01*
X307003Y146719D01*
X307778Y146399D01*
Y129291D01*
X307863Y128863D01*
X308106Y128499D01*
X327259Y109346D01*
X327623Y109103D01*
X328051Y109018D01*
X357804D01*
X361262Y105560D01*
Y103457D01*
X360500D01*
Y94378D01*
X364461D01*
Y103457D01*
X363502D01*
Y106024D01*
X363417Y106452D01*
X363174Y106816D01*
X359060Y110930D01*
X358696Y111172D01*
X358268Y111258D01*
X328515D01*
X310018Y129755D01*
Y146399D01*
X310792Y146719D01*
X311576Y147321D01*
X312178Y148106D01*
X312557Y149020D01*
X312686Y150000D01*
X312557Y150980D01*
X312178Y151894D01*
X311576Y152679D01*
X310792Y153281D01*
X309878Y153659D01*
X308898Y153788D01*
D02*
G37*
G36*
X344461Y98518D02*
X342880D01*
Y94378D01*
X344461D01*
Y98518D01*
D02*
G37*
G36*
X342081D02*
X340500D01*
Y94378D01*
X342081D01*
Y98518D01*
D02*
G37*
G36*
X231378Y215218D02*
X230037Y215041D01*
X228788Y214524D01*
X227716Y213701D01*
X226893Y212629D01*
X226376Y211380D01*
X226199Y210039D01*
X226376Y208699D01*
X226893Y207450D01*
X227716Y206378D01*
X228788Y205555D01*
X230037Y205037D01*
X230258Y205009D01*
Y187066D01*
X230343Y186637D01*
X230586Y186274D01*
X251569Y165291D01*
Y120771D01*
X226856Y96058D01*
X226856Y96058D01*
X226613Y95695D01*
X226528Y95266D01*
Y94303D01*
X225923D01*
Y107240D01*
X225838Y107669D01*
X225595Y108032D01*
X219647Y113981D01*
X219283Y114224D01*
X218855Y114309D01*
X182400D01*
X177695Y119014D01*
Y173819D01*
X177610Y174248D01*
X177367Y174611D01*
X173823Y178154D01*
X173460Y178397D01*
X173032Y178482D01*
X165267D01*
X160372Y183377D01*
Y184346D01*
X160387Y184348D01*
X161444Y184786D01*
X162352Y185483D01*
X163049Y186391D01*
X163487Y187448D01*
X163636Y188583D01*
X163487Y189717D01*
X163049Y190775D01*
X162352Y191683D01*
X161444Y192379D01*
X160387Y192817D01*
X159252Y192967D01*
X158117Y192817D01*
X157060Y192379D01*
X156152Y191683D01*
X155455Y190775D01*
X155017Y189717D01*
X154868Y188583D01*
X155017Y187448D01*
X155455Y186391D01*
X156152Y185483D01*
X157060Y184786D01*
X158117Y184348D01*
X158132Y184346D01*
Y182913D01*
X158217Y182485D01*
X158460Y182122D01*
X164011Y176570D01*
X164375Y176328D01*
X164803Y176242D01*
X172568D01*
X175455Y173355D01*
Y118550D01*
X175540Y118122D01*
X175783Y117759D01*
X181144Y112397D01*
X181508Y112154D01*
X181936Y112069D01*
X218391D01*
X223683Y106776D01*
Y94303D01*
X223069D01*
Y104921D01*
X222984Y105350D01*
X222741Y105713D01*
X220280Y108174D01*
X219917Y108417D01*
X219488Y108502D01*
X179696D01*
X172380Y115818D01*
Y147244D01*
X172294Y147673D01*
X172052Y148036D01*
X160372Y159716D01*
Y165252D01*
X160387Y165254D01*
X161444Y165692D01*
X162352Y166388D01*
X163049Y167296D01*
X163487Y168353D01*
X163636Y169488D01*
X163487Y170623D01*
X163049Y171680D01*
X162352Y172588D01*
X161444Y173285D01*
X160387Y173723D01*
X159252Y173872D01*
X158117Y173723D01*
X157060Y173285D01*
X156152Y172588D01*
X155455Y171680D01*
X155017Y170623D01*
X154868Y169488D01*
X155017Y168353D01*
X155455Y167296D01*
X156152Y166388D01*
X157060Y165692D01*
X158117Y165254D01*
X158132Y165252D01*
Y159252D01*
X158217Y158823D01*
X158460Y158460D01*
X170140Y146780D01*
Y115354D01*
X170225Y114926D01*
X170468Y114562D01*
X178440Y106590D01*
X178804Y106347D01*
X179232Y106262D01*
X219024D01*
X220829Y104457D01*
Y94644D01*
X220611Y94318D01*
X220608Y94303D01*
X219649D01*
Y95067D01*
X220189D01*
Y100406D01*
X219453D01*
Y101317D01*
X219864Y101853D01*
X220123Y102479D01*
X220211Y103150D01*
X220123Y103821D01*
X219864Y104446D01*
X219452Y104983D01*
X218915Y105395D01*
X218289Y105654D01*
X217618Y105743D01*
X216947Y105654D01*
X216322Y105395D01*
X215785Y104983D01*
X215372Y104446D01*
X215113Y103821D01*
X215025Y103150D01*
X215113Y102479D01*
X215372Y101853D01*
X215784Y101317D01*
Y100406D01*
X215047D01*
Y95067D01*
X215981D01*
Y94303D01*
X215065D01*
Y90551D01*
Y86799D01*
X232394D01*
Y89597D01*
X232509D01*
X232937Y89683D01*
X233301Y89925D01*
X264350Y120975D01*
X264593Y121338D01*
X264678Y121767D01*
Y170374D01*
X264593Y170802D01*
X264350Y171166D01*
X252104Y183411D01*
Y184346D01*
X252119Y184348D01*
X253176Y184786D01*
X254084Y185483D01*
X254781Y186391D01*
X255219Y187448D01*
X255368Y188583D01*
X255219Y189717D01*
X254781Y190775D01*
X254084Y191683D01*
X253176Y192379D01*
X252119Y192817D01*
X250984Y192967D01*
X249850Y192817D01*
X248792Y192379D01*
X247884Y191683D01*
X247188Y190775D01*
X246750Y189717D01*
X246600Y188583D01*
X246750Y187448D01*
X247188Y186391D01*
X247884Y185483D01*
X248792Y184786D01*
X249850Y184348D01*
X249864Y184346D01*
Y182948D01*
X249950Y182519D01*
X250192Y182156D01*
X262438Y169910D01*
Y122231D01*
X232856Y92648D01*
X232394Y92839D01*
Y94303D01*
X228770D01*
X228769Y94803D01*
X253481Y119515D01*
X253724Y119878D01*
X253809Y120307D01*
Y165755D01*
X253724Y166183D01*
X253481Y166546D01*
X232498Y187530D01*
Y205009D01*
X232718Y205037D01*
X233967Y205555D01*
X235039Y206378D01*
X235862Y207450D01*
X236379Y208699D01*
X236556Y210039D01*
X236379Y211380D01*
X235862Y212629D01*
X235039Y213701D01*
X233967Y214524D01*
X232718Y215041D01*
X231378Y215218D01*
D02*
G37*
G36*
X157098Y154441D02*
X151957D01*
Y149102D01*
X157098D01*
Y150056D01*
X157560Y150247D01*
X165620Y142187D01*
Y111516D01*
X165620Y111516D01*
X165690Y111165D01*
X165888Y110869D01*
X174057Y102699D01*
X174057Y102699D01*
X174355Y102501D01*
X174705Y102431D01*
X200802D01*
X206569Y96664D01*
Y94303D01*
X205640D01*
Y94980D01*
X205640Y94980D01*
X205570Y95331D01*
X205372Y95627D01*
X205371Y95627D01*
X202616Y98383D01*
X202319Y98582D01*
X201969Y98651D01*
X201969Y98651D01*
X172722D01*
X163907Y107466D01*
Y135138D01*
X163907Y135138D01*
X163838Y135488D01*
X163639Y135785D01*
X163639Y135785D01*
X159361Y140064D01*
X159064Y140262D01*
X158713Y140332D01*
X158713Y140332D01*
X157000D01*
Y142086D01*
X151858D01*
Y136747D01*
X157000D01*
Y138501D01*
X158334D01*
X162077Y134759D01*
Y107087D01*
X162077Y107087D01*
X162147Y106736D01*
X162345Y106439D01*
X171695Y97089D01*
X171695Y97089D01*
X171992Y96891D01*
X172343Y96821D01*
X201589D01*
X203607Y94803D01*
X203400Y94303D01*
X201972D01*
X200844Y95431D01*
X200547Y95629D01*
X200197Y95699D01*
X200197Y95699D01*
X194468D01*
X194468Y95699D01*
X194118Y95629D01*
X193821Y95431D01*
X193821Y95431D01*
X191008Y92617D01*
X190236Y92771D01*
X189387Y92602D01*
X188667Y92121D01*
X188185Y91401D01*
X188016Y90551D01*
X188185Y89702D01*
X188667Y88981D01*
X189387Y88500D01*
X190236Y88331D01*
X191086Y88500D01*
X191806Y88981D01*
X192287Y89702D01*
X192456Y90551D01*
X192303Y91323D01*
X194848Y93868D01*
X196937D01*
Y86799D01*
X214266D01*
Y90551D01*
Y94303D01*
X208400D01*
Y97043D01*
X208330Y97394D01*
X208131Y97690D01*
X208131Y97690D01*
X201828Y103994D01*
X201531Y104192D01*
X201181Y104262D01*
X201181Y104262D01*
X175084D01*
X167451Y111895D01*
Y142566D01*
X167451Y142566D01*
X167381Y142916D01*
X167183Y143213D01*
X167183Y143213D01*
X157977Y152419D01*
X157680Y152617D01*
X157330Y152687D01*
X157098Y153088D01*
Y154441D01*
D02*
G37*
G36*
X66743Y98260D02*
X56484D01*
Y94299D01*
X66743D01*
Y98260D01*
D02*
G37*
G36*
X112343Y100110D02*
X111174D01*
Y96457D01*
Y92803D01*
X112343D01*
Y96456D01*
Y100110D01*
D02*
G37*
G36*
X81311Y95622D02*
X74398D01*
Y92704D01*
X72748D01*
Y93850D01*
X67409D01*
Y92704D01*
X66743D01*
Y93260D01*
X56484D01*
Y89299D01*
X66743D01*
Y89854D01*
X67409D01*
Y88709D01*
X72748D01*
Y89854D01*
X74398D01*
Y86937D01*
X81311D01*
Y95622D01*
D02*
G37*
G36*
X156031Y97354D02*
X147543D01*
Y91425D01*
X156031D01*
Y92555D01*
X157223D01*
X157759Y92144D01*
X158384Y91885D01*
X159055Y91797D01*
X159726Y91885D01*
X160352Y92144D01*
X160889Y92556D01*
X161301Y93093D01*
X161560Y93719D01*
X161648Y94390D01*
X161560Y95061D01*
X161301Y95686D01*
X160889Y96223D01*
X160352Y96635D01*
X159726Y96895D01*
X159055Y96983D01*
X158384Y96895D01*
X157759Y96635D01*
X157223Y96224D01*
X156031D01*
Y97354D01*
D02*
G37*
G36*
X360839Y93811D02*
X358667D01*
Y91541D01*
X360839D01*
Y93811D01*
D02*
G37*
G36*
X357868D02*
X355697D01*
Y91541D01*
X357868D01*
Y93811D01*
D02*
G37*
G36*
X418476Y93221D02*
X415911D01*
Y89376D01*
X418476D01*
Y93221D01*
D02*
G37*
G36*
X415112D02*
X412547D01*
Y89376D01*
X415112D01*
Y93221D01*
D02*
G37*
G36*
X18122Y93417D02*
X11209D01*
Y84732D01*
X18122D01*
Y89445D01*
X20264D01*
Y89299D01*
X30523D01*
Y93260D01*
X20264D01*
Y93114D01*
X18122D01*
Y93417D01*
D02*
G37*
G36*
X366941Y93811D02*
X361799D01*
Y88472D01*
X362536D01*
Y86882D01*
X360717D01*
Y82921D01*
X368024D01*
Y86882D01*
X366205D01*
Y88472D01*
X366941D01*
Y89307D01*
X368246D01*
X368782Y88896D01*
X369408Y88637D01*
X370079Y88549D01*
X370750Y88637D01*
X371375Y88896D01*
X371912Y89308D01*
X372324Y89845D01*
X372583Y90471D01*
X372672Y91142D01*
X372583Y91813D01*
X372324Y92438D01*
X371912Y92975D01*
X371375Y93387D01*
X370750Y93646D01*
X370079Y93735D01*
X369408Y93646D01*
X368782Y93387D01*
X368246Y92976D01*
X366941D01*
Y93811D01*
D02*
G37*
G36*
X360839Y90742D02*
X358667D01*
Y88472D01*
X360839D01*
Y90742D01*
D02*
G37*
G36*
X357868D02*
X355697D01*
Y88472D01*
X357868D01*
Y90742D01*
D02*
G37*
G36*
X66743Y88260D02*
X62013D01*
Y86679D01*
X66743D01*
Y88260D01*
D02*
G37*
G36*
X30523D02*
X25793D01*
Y86679D01*
X30523D01*
Y88260D01*
D02*
G37*
G36*
X61214D02*
X56484D01*
Y86679D01*
X61214D01*
Y88260D01*
D02*
G37*
G36*
X24994D02*
X20264D01*
Y86679D01*
X24994D01*
Y88260D01*
D02*
G37*
G36*
X346961Y86882D02*
X343707D01*
Y85301D01*
X346961D01*
Y86882D01*
D02*
G37*
G36*
X342908D02*
X339653D01*
Y85301D01*
X342908D01*
Y86882D01*
D02*
G37*
G36*
X430488Y112378D02*
X423764D01*
Y105654D01*
X425701D01*
Y93221D01*
X424161D01*
Y84732D01*
X430091D01*
Y93221D01*
X428551D01*
Y105654D01*
X430488D01*
Y112378D01*
D02*
G37*
G36*
X418476Y88577D02*
X415911D01*
Y84732D01*
X418476D01*
Y88577D01*
D02*
G37*
G36*
X415112D02*
X412547D01*
Y84732D01*
X415112D01*
Y88577D01*
D02*
G37*
G36*
X218799Y85783D02*
X217950Y85614D01*
X217230Y85133D01*
X216792Y84478D01*
X195780D01*
Y85642D01*
X188276D01*
Y84577D01*
X175295D01*
X175295Y84577D01*
X174945Y84507D01*
X174648Y84309D01*
X153263Y62923D01*
X112781D01*
X110750Y64954D01*
Y73780D01*
X111421Y74451D01*
X111421Y74451D01*
X111620Y74748D01*
X111689Y75098D01*
Y75283D01*
X113591D01*
Y74461D01*
X112140D01*
Y69122D01*
X112876D01*
Y68112D01*
X112465Y67576D01*
X112206Y66951D01*
X112118Y66279D01*
X112206Y65608D01*
X112465Y64983D01*
X112877Y64446D01*
X113415Y64034D01*
X114040Y63775D01*
X114711Y63686D01*
X115382Y63775D01*
X116007Y64034D01*
X116545Y64446D01*
X116957Y64983D01*
X117216Y65608D01*
X117304Y66279D01*
X117216Y66951D01*
X116957Y67576D01*
X116545Y68112D01*
Y69122D01*
X117282D01*
Y74461D01*
X115831D01*
Y75283D01*
X118069D01*
Y77817D01*
X118674D01*
X118974Y77367D01*
X119695Y76886D01*
X120544Y76717D01*
X121394Y76886D01*
X122114Y77367D01*
X122595Y78087D01*
X122764Y78937D01*
X122595Y79786D01*
X122114Y80507D01*
X121394Y80988D01*
X120544Y81157D01*
X119695Y80988D01*
X118974Y80507D01*
X118674Y80057D01*
X118069D01*
Y82591D01*
X107416D01*
Y77726D01*
X107318Y77706D01*
X107021Y77508D01*
X107021Y77508D01*
X104865Y75352D01*
X104666Y75055D01*
X104597Y74705D01*
X104597Y74705D01*
Y61516D01*
X104597Y61516D01*
X104666Y61165D01*
X104865Y60869D01*
X107916Y57817D01*
X107916Y57817D01*
X108213Y57619D01*
X108563Y57549D01*
X108563Y57549D01*
X157874D01*
X157874Y57549D01*
X158224Y57619D01*
X158521Y57817D01*
X177151Y76447D01*
X188276D01*
Y72897D01*
X187512D01*
Y73634D01*
X182173D01*
Y72897D01*
X181262D01*
X180726Y73309D01*
X180100Y73568D01*
X179429Y73656D01*
X178758Y73568D01*
X178133Y73309D01*
X177596Y72897D01*
X177183Y72360D01*
X176924Y71734D01*
X176836Y71063D01*
X176924Y70392D01*
X177183Y69766D01*
X177596Y69229D01*
X178133Y68817D01*
X178758Y68558D01*
X179429Y68470D01*
X180100Y68558D01*
X180726Y68817D01*
X181262Y69229D01*
X182173D01*
Y68492D01*
X187512D01*
Y69229D01*
X188276D01*
Y68313D01*
X195780D01*
Y69083D01*
Y72805D01*
X196570D01*
X198625Y70750D01*
X198625Y70750D01*
X198921Y70552D01*
X199272Y70482D01*
X199272Y70482D01*
X200060D01*
X200497Y69828D01*
X201217Y69347D01*
X202067Y69178D01*
X202916Y69347D01*
X203637Y69828D01*
X204118Y70548D01*
X204287Y71398D01*
X204118Y72247D01*
X203637Y72967D01*
X202916Y73448D01*
X202067Y73617D01*
X201217Y73448D01*
X200497Y72967D01*
X200116Y72397D01*
X199599Y72364D01*
X197596Y74368D01*
X197299Y74566D01*
X196949Y74636D01*
X196949Y74636D01*
X195780D01*
Y76042D01*
X204062D01*
X207527Y72576D01*
X207527Y72576D01*
X207824Y72378D01*
X208174Y72308D01*
X227324D01*
X227761Y71654D01*
X228481Y71173D01*
X229331Y71004D01*
X230180Y71173D01*
X230900Y71654D01*
X231382Y72374D01*
X231551Y73223D01*
X231382Y74073D01*
X230900Y74793D01*
X230180Y75274D01*
X229331Y75443D01*
X228481Y75274D01*
X227761Y74793D01*
X227324Y74139D01*
X208553D01*
X205088Y77604D01*
X204791Y77803D01*
X204441Y77872D01*
X204441Y77872D01*
X195780D01*
Y79301D01*
X207020D01*
X208399Y77922D01*
X208399Y77922D01*
X208696Y77724D01*
X209047Y77654D01*
X222108D01*
X222545Y76999D01*
X223266Y76518D01*
X224115Y76349D01*
X224964Y76518D01*
X225685Y76999D01*
X226166Y77720D01*
X226335Y78569D01*
X226166Y79419D01*
X225685Y80139D01*
X224964Y80620D01*
X224115Y80789D01*
X223266Y80620D01*
X222545Y80139D01*
X222108Y79484D01*
X209426D01*
X208046Y80864D01*
X207749Y81062D01*
X207399Y81132D01*
X207399Y81132D01*
X195780D01*
Y82648D01*
X216792D01*
X217230Y81993D01*
X217950Y81512D01*
X218799Y81343D01*
X219649Y81512D01*
X220369Y81993D01*
X220850Y82714D01*
X221019Y83563D01*
X220850Y84412D01*
X220369Y85133D01*
X219649Y85614D01*
X218799Y85783D01*
D02*
G37*
G36*
X66743Y85880D02*
X62013D01*
Y84299D01*
X66743D01*
Y85880D01*
D02*
G37*
G36*
X61214D02*
X56484D01*
Y84299D01*
X61214D01*
Y85880D01*
D02*
G37*
G36*
X30523D02*
X25793D01*
Y84299D01*
X30523D01*
Y85880D01*
D02*
G37*
G36*
X24994D02*
X20264D01*
Y84299D01*
X24994D01*
Y85880D01*
D02*
G37*
G36*
X110374Y100110D02*
X107416D01*
Y96184D01*
X107318Y96165D01*
X107021Y95966D01*
X107021Y95966D01*
X106190Y95135D01*
X105991Y94838D01*
X105922Y94488D01*
X105922Y94488D01*
Y87651D01*
X105922Y87651D01*
X105991Y87301D01*
X106190Y87004D01*
X106497Y86697D01*
X106343Y85925D01*
X106512Y85076D01*
X106993Y84356D01*
X107713Y83874D01*
X108563Y83705D01*
X109413Y83874D01*
X110133Y84356D01*
X110614Y85076D01*
X110783Y85925D01*
X110614Y86775D01*
X110133Y87495D01*
X109413Y87976D01*
X108563Y88145D01*
X108252Y88083D01*
X107752Y88494D01*
Y92803D01*
X110374D01*
Y96457D01*
Y100110D01*
D02*
G37*
G36*
X346961Y84502D02*
X343707D01*
Y82921D01*
X346961D01*
Y84502D01*
D02*
G37*
G36*
X342908D02*
X339653D01*
Y82921D01*
X342908D01*
Y84502D01*
D02*
G37*
G36*
X66743Y83260D02*
X62013D01*
Y81679D01*
X66743D01*
Y83260D01*
D02*
G37*
G36*
X61214D02*
X56484D01*
Y81679D01*
X61214D01*
Y83260D01*
D02*
G37*
G36*
X385335Y83293D02*
X384457Y83177D01*
X383639Y82838D01*
X382937Y82299D01*
X382398Y81597D01*
X382286Y81327D01*
X368024D01*
Y81882D01*
X360717D01*
Y77921D01*
X368024D01*
Y78476D01*
X382286D01*
X382398Y78206D01*
X382937Y77504D01*
X383639Y76965D01*
X384457Y76626D01*
X385335Y76511D01*
X386212Y76626D01*
X386482Y76738D01*
X392171Y71049D01*
X392059Y70779D01*
X391944Y69902D01*
X392059Y69024D01*
X392398Y68206D01*
X392937Y67504D01*
X393639Y66965D01*
X394457Y66626D01*
X395335Y66511D01*
X396212Y66626D01*
X397030Y66965D01*
X397732Y67504D01*
X398271Y68206D01*
X398610Y69024D01*
X398726Y69902D01*
X398610Y70779D01*
X398271Y71597D01*
X397732Y72299D01*
X397030Y72838D01*
X396212Y73177D01*
X395335Y73293D01*
X394457Y73177D01*
X394187Y73065D01*
X388498Y78754D01*
X388610Y79024D01*
X388726Y79902D01*
X388610Y80779D01*
X388271Y81597D01*
X387733Y82299D01*
X387030Y82838D01*
X386212Y83177D01*
X385335Y83293D01*
D02*
G37*
G36*
X349461Y103457D02*
X345500D01*
Y94378D01*
X346565D01*
Y91594D01*
X346565Y91594D01*
X346635Y91244D01*
X346833Y90947D01*
X348494Y89286D01*
Y83155D01*
X347399Y82059D01*
X346961Y81882D01*
Y81882D01*
X346961Y81882D01*
X339653D01*
Y80817D01*
X323656D01*
X320262Y84210D01*
X319965Y84409D01*
X319615Y84478D01*
X319615Y84478D01*
X284483D01*
X284046Y85133D01*
X283326Y85614D01*
X282476Y85783D01*
X281627Y85614D01*
X280907Y85133D01*
X280470Y84478D01*
X264810D01*
X264373Y85133D01*
X263653Y85614D01*
X262803Y85783D01*
X261954Y85614D01*
X261233Y85133D01*
X260752Y84412D01*
X260583Y83563D01*
X260752Y82714D01*
X261233Y81993D01*
X261954Y81512D01*
X262803Y81343D01*
X263653Y81512D01*
X264373Y81993D01*
X264810Y82648D01*
X280470D01*
X280907Y81993D01*
X281627Y81512D01*
X282476Y81343D01*
X283326Y81512D01*
X284046Y81993D01*
X284483Y82648D01*
X319236D01*
X322629Y79254D01*
X322629Y79254D01*
X322926Y79056D01*
X323276Y78986D01*
X323276Y78986D01*
X339653D01*
Y77921D01*
X346961D01*
Y79106D01*
X347183Y79254D01*
X350057Y82128D01*
X350057Y82128D01*
X350255Y82425D01*
X350325Y82776D01*
Y89665D01*
X350325Y89665D01*
X350255Y90016D01*
X350057Y90312D01*
X350057Y90312D01*
X348395Y91974D01*
Y94378D01*
X349461D01*
Y103457D01*
D02*
G37*
G36*
X81311Y84520D02*
X78254D01*
Y80577D01*
X81311D01*
Y84520D01*
D02*
G37*
G36*
X77455D02*
X74398D01*
Y80577D01*
X77455D01*
Y84520D01*
D02*
G37*
G36*
X287858Y80789D02*
X287009Y80620D01*
X286289Y80139D01*
X285866Y79506D01*
X255717D01*
X255294Y80139D01*
X254574Y80620D01*
X253724Y80789D01*
X252875Y80620D01*
X252155Y80139D01*
X251673Y79419D01*
X251504Y78569D01*
X251673Y77720D01*
X252155Y76999D01*
X252875Y76518D01*
X253724Y76349D01*
X254574Y76518D01*
X255294Y76999D01*
X255745Y77675D01*
X285837D01*
X286289Y76999D01*
X287009Y76518D01*
X287858Y76349D01*
X288708Y76518D01*
X289428Y76999D01*
X289909Y77720D01*
X290078Y78569D01*
X289909Y79419D01*
X289428Y80139D01*
X288708Y80620D01*
X287858Y80789D01*
D02*
G37*
G36*
X66743Y80880D02*
X62013D01*
Y79299D01*
X66743D01*
Y80880D01*
D02*
G37*
G36*
X61214D02*
X56484D01*
Y79299D01*
X61214D01*
Y80880D01*
D02*
G37*
G36*
X30523Y83260D02*
X20264D01*
Y79299D01*
X30523D01*
Y83260D01*
D02*
G37*
G36*
X160023Y81606D02*
X153324D01*
Y78057D01*
X160023D01*
Y81606D01*
D02*
G37*
G36*
X152525D02*
X145826D01*
Y78057D01*
X152525D01*
Y81606D01*
D02*
G37*
G36*
X72748Y87748D02*
X67409D01*
Y82606D01*
X68244D01*
Y81714D01*
X67833Y81178D01*
X67574Y80553D01*
X67486Y79882D01*
X67574Y79211D01*
X67833Y78585D01*
X68245Y78048D01*
X68782Y77636D01*
X69408Y77377D01*
X70079Y77289D01*
X70750Y77377D01*
X71375Y77636D01*
X71912Y78048D01*
X72324Y78585D01*
X72583Y79211D01*
X72672Y79882D01*
X72583Y80553D01*
X72324Y81178D01*
X71913Y81714D01*
Y82606D01*
X72748D01*
Y87748D01*
D02*
G37*
G36*
X408575Y79244D02*
X404730D01*
Y76679D01*
X408575D01*
Y79244D01*
D02*
G37*
G36*
X403931D02*
X400087D01*
Y76679D01*
X403931D01*
Y79244D01*
D02*
G37*
G36*
X81311Y79777D02*
X78254D01*
Y75835D01*
X81311D01*
Y79777D01*
D02*
G37*
G36*
X77455D02*
X74398D01*
Y75835D01*
X77455D01*
Y79777D01*
D02*
G37*
G36*
X354461Y103457D02*
X350500D01*
Y94378D01*
X351742D01*
Y78529D01*
X349030Y75817D01*
X346961D01*
Y76882D01*
X339653D01*
Y75128D01*
X264810D01*
X264373Y75782D01*
X263653Y76263D01*
X262803Y76432D01*
X261954Y76263D01*
X261233Y75782D01*
X260752Y75062D01*
X260583Y74213D01*
X260752Y73363D01*
X261233Y72643D01*
X261954Y72162D01*
X262803Y71993D01*
X263653Y72162D01*
X264373Y72643D01*
X264810Y73297D01*
X285896D01*
Y69080D01*
X281255Y64439D01*
X279736D01*
Y65504D01*
X272429D01*
Y61543D01*
X279736D01*
Y62608D01*
X281634D01*
X281634Y62608D01*
X281984Y62678D01*
X282281Y62876D01*
X287458Y68054D01*
X287458Y68054D01*
X287657Y68350D01*
X287726Y68701D01*
Y73297D01*
X339653D01*
Y72921D01*
X346961D01*
Y73986D01*
X349409D01*
X349409Y73986D01*
X349760Y74056D01*
X350057Y74254D01*
X353305Y77502D01*
X353305Y77502D01*
X353503Y77799D01*
X353573Y78150D01*
X353573Y78150D01*
Y94378D01*
X354461D01*
Y103457D01*
D02*
G37*
G36*
X10827Y78873D02*
X10156Y78784D01*
X9530Y78525D01*
X8993Y78113D01*
X8581Y77576D01*
X8322Y76951D01*
X8234Y76279D01*
X8322Y75608D01*
X8581Y74983D01*
X8993Y74446D01*
X9530Y74034D01*
X10156Y73775D01*
X10827Y73686D01*
X11498Y73775D01*
X12123Y74034D01*
X12659Y74445D01*
X13571D01*
Y73709D01*
X18909D01*
Y74445D01*
X20264D01*
Y74299D01*
X30523D01*
Y74445D01*
X34878D01*
Y69461D01*
X33531Y68114D01*
X30523D01*
Y68260D01*
X20264D01*
Y64299D01*
X30523D01*
Y64445D01*
X34291D01*
X34993Y64585D01*
X35588Y64982D01*
X38010Y67404D01*
X38407Y67999D01*
X38547Y68701D01*
Y74445D01*
X56484D01*
Y74299D01*
X66743D01*
Y78260D01*
X56484D01*
Y78114D01*
X30523D01*
Y78260D01*
X20264D01*
Y78114D01*
X18909D01*
Y78850D01*
X13571D01*
Y78114D01*
X12659D01*
X12123Y78525D01*
X11498Y78784D01*
X10827Y78873D01*
D02*
G37*
G36*
X160023Y77258D02*
X153324D01*
Y73709D01*
X160023D01*
Y77258D01*
D02*
G37*
G36*
X152525D02*
X145826D01*
Y73709D01*
X152525D01*
Y77258D01*
D02*
G37*
G36*
X408575Y75880D02*
X404730D01*
Y73315D01*
X408575D01*
Y75880D01*
D02*
G37*
G36*
X403931D02*
X400087D01*
Y73315D01*
X403931D01*
Y75880D01*
D02*
G37*
G36*
X368024Y76882D02*
X360717D01*
Y72921D01*
X368024D01*
Y76882D01*
D02*
G37*
G36*
X70079Y73499D02*
X69229Y73330D01*
X68509Y72849D01*
X68072Y72195D01*
X66743D01*
Y73260D01*
X56484D01*
Y69299D01*
X66743D01*
Y70364D01*
X68072D01*
X68509Y69710D01*
X69229Y69229D01*
X70079Y69060D01*
X70928Y69229D01*
X71648Y69710D01*
X72130Y70430D01*
X72299Y71279D01*
X72130Y72129D01*
X71648Y72849D01*
X70928Y73330D01*
X70079Y73499D01*
D02*
G37*
G36*
X123384Y74461D02*
X121213D01*
Y72191D01*
X123384D01*
Y74461D01*
D02*
G37*
G36*
X120414D02*
X118243D01*
Y72191D01*
X120414D01*
Y74461D01*
D02*
G37*
G36*
X30523Y73260D02*
X25793D01*
Y71679D01*
X30523D01*
Y73260D01*
D02*
G37*
G36*
X24994D02*
X20264D01*
Y71679D01*
X24994D01*
Y73260D01*
D02*
G37*
G36*
X247256Y73339D02*
X244986D01*
Y71167D01*
X247256D01*
Y73339D01*
D02*
G37*
G36*
X244187D02*
X241917D01*
Y71167D01*
X244187D01*
Y73339D01*
D02*
G37*
G36*
X18909Y72748D02*
X16640D01*
Y70577D01*
X18909D01*
Y72748D01*
D02*
G37*
G36*
X15841D02*
X13571D01*
Y70577D01*
X15841D01*
Y72748D01*
D02*
G37*
G36*
X368024Y71882D02*
X364770D01*
Y70301D01*
X368024D01*
Y71882D01*
D02*
G37*
G36*
X363970D02*
X360717D01*
Y70301D01*
X363970D01*
Y71882D01*
D02*
G37*
G36*
X282476Y72588D02*
X281627Y72419D01*
X280907Y71938D01*
X280426Y71218D01*
X280257Y70368D01*
X280274Y70283D01*
X279838Y69911D01*
X279736Y69948D01*
Y70504D01*
X272429D01*
Y66543D01*
X279736D01*
Y67608D01*
X280632D01*
X280632Y67608D01*
X280982Y67678D01*
X281279Y67876D01*
X281705Y68302D01*
X282476Y68148D01*
X283326Y68317D01*
X284046Y68799D01*
X284527Y69519D01*
X284696Y70368D01*
X284527Y71218D01*
X284046Y71938D01*
X283326Y72419D01*
X282476Y72588D01*
D02*
G37*
G36*
X30523Y70880D02*
X25793D01*
Y69299D01*
X30523D01*
Y70880D01*
D02*
G37*
G36*
X24994D02*
X20264D01*
Y69299D01*
X24994D01*
Y70880D01*
D02*
G37*
G36*
X123384Y71392D02*
X121213D01*
Y69122D01*
X123384D01*
Y71392D01*
D02*
G37*
G36*
X120414D02*
X118243D01*
Y69122D01*
X120414D01*
Y71392D01*
D02*
G37*
G36*
X301193Y70504D02*
X297939D01*
Y68923D01*
X301193D01*
Y70504D01*
D02*
G37*
G36*
X297140D02*
X293886D01*
Y68923D01*
X297140D01*
Y70504D01*
D02*
G37*
G36*
X247256Y70368D02*
X244986D01*
Y68197D01*
X247256D01*
Y70368D01*
D02*
G37*
G36*
X244187D02*
X241917D01*
Y68197D01*
X244187D01*
Y70368D01*
D02*
G37*
G36*
X368024Y69502D02*
X364770D01*
Y67921D01*
X368024D01*
Y69502D01*
D02*
G37*
G36*
X363970D02*
X360717D01*
Y67921D01*
X363970D01*
Y69502D01*
D02*
G37*
G36*
X267126Y72121D02*
X266277Y71952D01*
X265556Y71471D01*
X265075Y70751D01*
X264906Y69902D01*
X265075Y69052D01*
X265556Y68332D01*
X265807Y68164D01*
X265856Y67667D01*
X259636Y61447D01*
X241718D01*
X241055Y62109D01*
Y62929D01*
X241917D01*
Y62094D01*
X247256D01*
Y62831D01*
X248079D01*
Y62134D01*
X253299D01*
Y67590D01*
X248079D01*
Y66500D01*
X247256D01*
Y67236D01*
X241917D01*
Y66598D01*
X241055D01*
Y67514D01*
X233551D01*
Y65933D01*
Y62783D01*
Y59634D01*
Y56484D01*
Y53335D01*
Y50185D01*
X237989D01*
X239215Y48959D01*
X239215Y48959D01*
X239512Y48761D01*
X239862Y48691D01*
X248794D01*
X257778Y39707D01*
X257778Y39707D01*
X258075Y39509D01*
X258425Y39439D01*
X258425Y39439D01*
X311465D01*
X311465Y39439D01*
X311816Y39509D01*
X312113Y39707D01*
X322504Y50099D01*
X323276Y49946D01*
X324126Y50115D01*
X324846Y50596D01*
X325327Y51316D01*
X325496Y52165D01*
X325327Y53015D01*
X324846Y53735D01*
X324126Y54216D01*
X323276Y54385D01*
X322427Y54216D01*
X321707Y53735D01*
X321226Y53015D01*
X321057Y52165D01*
X321210Y51393D01*
X311086Y41270D01*
X258804D01*
X249820Y50253D01*
X249523Y50452D01*
X249173Y50521D01*
X249173Y50521D01*
X241055D01*
Y54006D01*
X247751D01*
X257719Y44038D01*
X257719Y44038D01*
X258016Y43839D01*
X258366Y43770D01*
X258366Y43770D01*
X307480D01*
X307480Y43770D01*
X307831Y43839D01*
X308127Y44038D01*
X333076Y68986D01*
X339653D01*
Y67921D01*
X346961D01*
Y71882D01*
X339653D01*
Y70817D01*
X332697D01*
X332347Y70747D01*
X332050Y70549D01*
X332050Y70549D01*
X307101Y45600D01*
X258745D01*
X248777Y55568D01*
X248480Y55767D01*
X248130Y55836D01*
X248130Y55836D01*
X241055D01*
Y56868D01*
X252574D01*
X261368Y48073D01*
X261368Y48073D01*
X261665Y47875D01*
X262016Y47805D01*
X289764D01*
X289764Y47805D01*
X290114Y47875D01*
X290411Y48073D01*
X293551Y51214D01*
X293886Y51543D01*
Y51543D01*
X293886Y51543D01*
X301193D01*
Y51931D01*
X301858D01*
Y49004D01*
X307197D01*
Y54146D01*
X301858D01*
Y53762D01*
X301193D01*
Y55504D01*
X293886D01*
Y54137D01*
X289385Y49636D01*
X262395D01*
X253600Y58430D01*
X253303Y58629D01*
X252953Y58698D01*
X252953Y58698D01*
X241199D01*
X241078Y59197D01*
X241339Y59616D01*
X260015D01*
X260015Y59616D01*
X260365Y59686D01*
X260662Y59884D01*
X267773Y66996D01*
X267773Y66996D01*
X267971Y67292D01*
X268041Y67643D01*
X268041Y67643D01*
Y67895D01*
X268696Y68332D01*
X269177Y69052D01*
X269346Y69902D01*
X269177Y70751D01*
X268696Y71471D01*
X267975Y71952D01*
X267126Y72121D01*
D02*
G37*
G36*
X18909Y69778D02*
X16640D01*
Y67606D01*
X18909D01*
Y69778D01*
D02*
G37*
G36*
X15841D02*
X13571D01*
Y67606D01*
X15841D01*
Y69778D01*
D02*
G37*
G36*
X70079Y68499D02*
X69229Y68330D01*
X68509Y67849D01*
X68072Y67195D01*
X66743D01*
Y68260D01*
X56484D01*
Y64299D01*
X66743D01*
Y65364D01*
X68072D01*
X68509Y64710D01*
X69229Y64229D01*
X70079Y64060D01*
X70928Y64229D01*
X71648Y64710D01*
X72130Y65430D01*
X72299Y66279D01*
X72130Y67129D01*
X71648Y67849D01*
X70928Y68330D01*
X70079Y68499D01*
D02*
G37*
G36*
X301193Y68124D02*
X297939D01*
Y66543D01*
X301193D01*
Y68124D01*
D02*
G37*
G36*
X297140D02*
X293886D01*
Y66543D01*
X297140D01*
Y68124D01*
D02*
G37*
G36*
X187512Y67532D02*
X185242D01*
Y65360D01*
X187512D01*
Y67532D01*
D02*
G37*
G36*
X184443D02*
X182173D01*
Y65360D01*
X184443D01*
Y67532D01*
D02*
G37*
G36*
X304523Y66117D02*
X303852Y66028D01*
X303227Y65769D01*
X302691Y65358D01*
X301193D01*
Y65504D01*
X293886D01*
Y61543D01*
X301193D01*
Y61689D01*
X302689D01*
Y60248D01*
X301858D01*
Y55106D01*
X307197D01*
Y60248D01*
X306358D01*
Y61691D01*
X306769Y62227D01*
X307028Y62853D01*
X307117Y63524D01*
X307028Y64195D01*
X306769Y64820D01*
X306357Y65357D01*
X305820Y65769D01*
X305195Y66028D01*
X304523Y66117D01*
D02*
G37*
G36*
X19697Y66646D02*
X10618D01*
Y64801D01*
X10051D01*
Y66252D01*
X4713D01*
Y61110D01*
X10051D01*
Y62561D01*
X10618D01*
Y60716D01*
X17963D01*
X18191Y60488D01*
X18555Y60245D01*
X18983Y60159D01*
X20264D01*
Y59299D01*
X30523D01*
Y63260D01*
X20264D01*
Y62399D01*
X19697D01*
Y66646D01*
D02*
G37*
G36*
X346961Y66882D02*
X339653D01*
Y66022D01*
X339114D01*
X338686Y65936D01*
X338322Y65693D01*
X329129Y56501D01*
X328887Y56137D01*
X328801Y55709D01*
Y40157D01*
X328887Y39729D01*
X329129Y39366D01*
X340192Y28303D01*
X340556Y28060D01*
X340984Y27975D01*
X345808D01*
X346129Y27200D01*
X346731Y26416D01*
X347515Y25814D01*
X348429Y25435D01*
X349409Y25306D01*
X350390Y25435D01*
X351304Y25814D01*
X352088Y26416D01*
X352690Y27200D01*
X353069Y28114D01*
X353198Y29094D01*
X353069Y30075D01*
X352690Y30989D01*
X352088Y31773D01*
X351304Y32375D01*
X350390Y32754D01*
X349409Y32883D01*
X348429Y32754D01*
X347515Y32375D01*
X346731Y31773D01*
X346129Y30989D01*
X345808Y30214D01*
X341448D01*
X331041Y40621D01*
Y55245D01*
X339154Y63357D01*
X339653Y63150D01*
Y62921D01*
X346961D01*
Y66882D01*
D02*
G37*
G36*
X187512Y64561D02*
X185242D01*
Y62390D01*
X187512D01*
Y64561D01*
D02*
G37*
G36*
X184443D02*
X182173D01*
Y62390D01*
X184443D01*
Y64561D01*
D02*
G37*
G36*
X70079Y63499D02*
X69229Y63330D01*
X68509Y62849D01*
X68072Y62195D01*
X66743D01*
Y63260D01*
X56484D01*
Y59299D01*
X66743D01*
Y60364D01*
X68072D01*
X68509Y59710D01*
X69229Y59229D01*
X70079Y59060D01*
X70928Y59229D01*
X71648Y59710D01*
X72130Y60430D01*
X72299Y61279D01*
X72130Y62129D01*
X71648Y62849D01*
X70928Y63330D01*
X70079Y63499D01*
D02*
G37*
G36*
X256799Y72770D02*
X256128Y72682D01*
X255503Y72423D01*
X254965Y72011D01*
X254553Y71474D01*
X254294Y70848D01*
X254206Y70177D01*
X254294Y69506D01*
X254553Y68881D01*
X254965Y68345D01*
Y67590D01*
X254189D01*
Y62134D01*
X259409D01*
Y67590D01*
X258633D01*
Y68345D01*
X259045Y68881D01*
X259304Y69506D01*
X259392Y70177D01*
X259304Y70848D01*
X259045Y71474D01*
X258633Y72011D01*
X258096Y72423D01*
X257470Y72682D01*
X256799Y72770D01*
D02*
G37*
G36*
X378697Y73264D02*
X371973D01*
Y66540D01*
X376680D01*
X380350Y62870D01*
X380813Y62561D01*
X381358Y62452D01*
X400087D01*
Y61701D01*
X408575D01*
Y67630D01*
X400087D01*
Y65304D01*
X381949D01*
X378697Y68556D01*
Y73264D01*
D02*
G37*
G36*
X282476Y61117D02*
X281805Y61028D01*
X281180Y60769D01*
X280644Y60358D01*
X279736D01*
Y60504D01*
X272429D01*
Y56543D01*
X279736D01*
Y56689D01*
X280644D01*
X281180Y56278D01*
X281805Y56019D01*
X282476Y55931D01*
X283148Y56019D01*
X283773Y56278D01*
X284310Y56690D01*
X284722Y57227D01*
X284981Y57853D01*
X285069Y58524D01*
X284981Y59195D01*
X284722Y59820D01*
X284310Y60357D01*
X283773Y60769D01*
X283148Y61028D01*
X282476Y61117D01*
D02*
G37*
G36*
X271665Y62217D02*
X269396D01*
Y60045D01*
X271665D01*
Y62217D01*
D02*
G37*
G36*
X268597D02*
X266327D01*
Y60045D01*
X268597D01*
Y62217D01*
D02*
G37*
G36*
X212992Y71714D02*
X212143Y71545D01*
X211422Y71064D01*
X210941Y70344D01*
X210772Y69494D01*
X210941Y68645D01*
X210944Y68641D01*
X209851Y67549D01*
X200394D01*
X200044Y67479D01*
X199747Y67281D01*
X199747Y67281D01*
X197680Y65214D01*
X197481Y64917D01*
X197412Y64567D01*
X197412Y64567D01*
Y60163D01*
X196629Y59380D01*
X195780D01*
Y62783D01*
Y65933D01*
Y67514D01*
X188276D01*
Y65933D01*
Y62783D01*
Y59634D01*
Y56208D01*
X188036Y56160D01*
X187739Y55962D01*
X187739Y55962D01*
X185180Y53403D01*
X184981Y53106D01*
X184912Y52756D01*
X184912Y52756D01*
Y45753D01*
X176639Y37481D01*
X169833D01*
X169833Y37481D01*
X169483Y37411D01*
X169186Y37213D01*
X169186Y37213D01*
X166914Y34940D01*
X166142Y35094D01*
X165292Y34925D01*
X164572Y34444D01*
X164091Y33724D01*
X163922Y32874D01*
X164091Y32024D01*
X164572Y31304D01*
X165292Y30823D01*
X166142Y30654D01*
X166991Y30823D01*
X167711Y31304D01*
X168193Y32024D01*
X168361Y32874D01*
X168208Y33646D01*
X170212Y35650D01*
X177018D01*
X177018Y35650D01*
X177368Y35720D01*
X177665Y35918D01*
X186474Y44727D01*
X186474Y44727D01*
X186672Y45024D01*
X186742Y45374D01*
X186742Y45374D01*
Y52377D01*
X187829Y53464D01*
X188276Y53203D01*
Y50185D01*
X190908D01*
Y45543D01*
X175284Y29919D01*
X157570D01*
X152839Y34650D01*
X152476Y34893D01*
X152047Y34978D01*
X141154D01*
Y38102D01*
X135224D01*
Y29614D01*
X141154D01*
Y32738D01*
X151583D01*
X156315Y28007D01*
X156678Y27764D01*
X157106Y27679D01*
X175748D01*
X176177Y27764D01*
X176540Y28007D01*
X192819Y44287D01*
X193062Y44650D01*
X193148Y45079D01*
Y50185D01*
X195780D01*
Y53335D01*
Y57549D01*
X197008D01*
X197008Y57549D01*
X197358Y57619D01*
X197655Y57817D01*
X198974Y59136D01*
X198974Y59136D01*
X199172Y59433D01*
X199242Y59784D01*
Y64188D01*
X200773Y65719D01*
X210230D01*
X210230Y65719D01*
X210580Y65788D01*
X210877Y65987D01*
X212302Y67412D01*
X212992Y67274D01*
X213842Y67443D01*
X214562Y67924D01*
X215043Y68645D01*
X215212Y69494D01*
X215043Y70344D01*
X214562Y71064D01*
X213842Y71545D01*
X212992Y71714D01*
D02*
G37*
G36*
X10051Y60150D02*
X7781D01*
Y57978D01*
X10051D01*
Y60150D01*
D02*
G37*
G36*
X6982D02*
X4713D01*
Y57978D01*
X6982D01*
Y60150D01*
D02*
G37*
G36*
X346961Y61882D02*
X339653D01*
Y61022D01*
X339429D01*
X339001Y60936D01*
X338637Y60694D01*
X332574Y54631D01*
X332331Y54267D01*
X332246Y53839D01*
Y41535D01*
X332331Y41107D01*
X332574Y40743D01*
X338480Y34838D01*
X338843Y34595D01*
X339272Y34510D01*
X362095D01*
X365756Y30849D01*
X365435Y30075D01*
X365306Y29094D01*
X365435Y28114D01*
X365814Y27200D01*
X366416Y26416D01*
X367200Y25814D01*
X368114Y25435D01*
X369094Y25306D01*
X370075Y25435D01*
X370989Y25814D01*
X371773Y26416D01*
X372375Y27200D01*
X372754Y28114D01*
X372883Y29094D01*
X372754Y30075D01*
X372375Y30989D01*
X371773Y31773D01*
X370989Y32375D01*
X370075Y32754D01*
X369094Y32883D01*
X368114Y32754D01*
X367340Y32433D01*
X363351Y36422D01*
X362988Y36665D01*
X362559Y36750D01*
X339736D01*
X334486Y41999D01*
Y53375D01*
X339214Y58103D01*
X339653Y57921D01*
Y57921D01*
X346961D01*
Y61882D01*
D02*
G37*
G36*
X271665Y59246D02*
X269396D01*
Y57075D01*
X271665D01*
Y59246D01*
D02*
G37*
G36*
X268597D02*
X266327D01*
Y57075D01*
X268597D01*
Y59246D01*
D02*
G37*
G36*
X66743Y58260D02*
X62013D01*
Y56679D01*
X66743D01*
Y58260D01*
D02*
G37*
G36*
X61214D02*
X56484D01*
Y56679D01*
X61214D01*
Y58260D01*
D02*
G37*
G36*
X291142Y71509D02*
X290292Y71340D01*
X289572Y70859D01*
X289091Y70139D01*
X288922Y69289D01*
X289091Y68440D01*
X289572Y67720D01*
X290227Y67282D01*
Y61713D01*
X290227Y61713D01*
X290296Y61362D01*
X290494Y61066D01*
X293684Y57876D01*
X293684Y57876D01*
X293886Y57741D01*
Y56543D01*
X301193D01*
Y60504D01*
X293886D01*
X293886Y60504D01*
Y60504D01*
X293458Y60690D01*
X292057Y62092D01*
Y67282D01*
X292711Y67720D01*
X293193Y68440D01*
X293361Y69289D01*
X293193Y70139D01*
X292711Y70859D01*
X291991Y71340D01*
X291142Y71509D01*
D02*
G37*
G36*
X271665Y56114D02*
X266327D01*
Y55353D01*
X265366D01*
X264830Y55764D01*
X264205Y56023D01*
X263533Y56112D01*
X262862Y56023D01*
X262237Y55764D01*
X261700Y55352D01*
X261288Y54815D01*
X261029Y54190D01*
X260940Y53519D01*
X261029Y52848D01*
X261288Y52222D01*
X261700Y51685D01*
X262237Y51273D01*
X262862Y51014D01*
X263533Y50926D01*
X264205Y51014D01*
X264830Y51273D01*
X265366Y51684D01*
X266327D01*
Y50972D01*
X271665D01*
Y51689D01*
X272429D01*
Y51543D01*
X279736D01*
Y55504D01*
X272429D01*
Y55358D01*
X271665D01*
Y56114D01*
D02*
G37*
G36*
X180236Y59720D02*
X179387Y59551D01*
X178667Y59070D01*
X178185Y58350D01*
X178016Y57500D01*
X178170Y56728D01*
X174129Y52687D01*
X66743D01*
Y53260D01*
X56484D01*
Y49299D01*
X66743D01*
Y50856D01*
X174508D01*
X174508Y50856D01*
X174858Y50926D01*
X175155Y51125D01*
X179464Y55434D01*
X180236Y55280D01*
X181086Y55449D01*
X181806Y55930D01*
X182287Y56651D01*
X182456Y57500D01*
X182287Y58350D01*
X181806Y59070D01*
X181086Y59551D01*
X180236Y59720D01*
D02*
G37*
G36*
X10051Y57179D02*
X7781D01*
Y55008D01*
X10051D01*
Y57179D01*
D02*
G37*
G36*
X6982D02*
X4713D01*
Y55008D01*
X6982D01*
Y57179D01*
D02*
G37*
G36*
X66743Y55880D02*
X62013D01*
Y54299D01*
X66743D01*
Y55880D01*
D02*
G37*
G36*
X61214D02*
X56484D01*
Y54299D01*
X61214D01*
Y55880D01*
D02*
G37*
G36*
X30523Y58260D02*
X20264D01*
Y57399D01*
X18983D01*
X18555Y57314D01*
X18191Y57071D01*
X17923Y56803D01*
X10618D01*
Y50874D01*
X19697D01*
Y55159D01*
X20264D01*
Y54299D01*
X30523D01*
Y58260D01*
D02*
G37*
G36*
Y53260D02*
X25793D01*
Y51679D01*
X30523D01*
Y53260D01*
D02*
G37*
G36*
X24994D02*
X20264D01*
Y51679D01*
X24994D01*
Y53260D01*
D02*
G37*
G36*
X180709Y54188D02*
X179859Y54019D01*
X179139Y53538D01*
X178658Y52818D01*
X178489Y51968D01*
X178642Y51197D01*
X175113Y47667D01*
X66743D01*
Y48260D01*
X56484D01*
Y44299D01*
X66743D01*
Y45837D01*
X175492D01*
X175492Y45837D01*
X175842Y45906D01*
X176139Y46105D01*
X179937Y49902D01*
X180709Y49749D01*
X181558Y49918D01*
X182278Y50399D01*
X182759Y51119D01*
X182929Y51968D01*
X182759Y52818D01*
X182278Y53538D01*
X181558Y54019D01*
X180709Y54188D01*
D02*
G37*
G36*
X30523Y50880D02*
X25793D01*
Y49299D01*
X30523D01*
Y50880D01*
D02*
G37*
G36*
X24994D02*
X20264D01*
Y49299D01*
X24994D01*
Y50880D01*
D02*
G37*
G36*
X202698Y65212D02*
X201849Y65043D01*
X201128Y64562D01*
X200647Y63842D01*
X200478Y62992D01*
X200647Y62143D01*
X201128Y61422D01*
X201849Y60941D01*
X202698Y60772D01*
X203548Y60941D01*
X204268Y61422D01*
X204705Y62077D01*
X220192D01*
X226348Y55920D01*
Y49027D01*
X225029D01*
Y54035D01*
X225029Y54036D01*
X224960Y54386D01*
X224761Y54683D01*
X224761Y54683D01*
X221297Y58147D01*
X221000Y58346D01*
X220650Y58415D01*
X220650Y58415D01*
X204705D01*
X204268Y59070D01*
X203548Y59551D01*
X202698Y59720D01*
X201849Y59551D01*
X201128Y59070D01*
X200647Y58350D01*
X200478Y57500D01*
X200647Y56651D01*
X201128Y55930D01*
X201849Y55449D01*
X202698Y55280D01*
X203548Y55449D01*
X204268Y55930D01*
X204705Y56585D01*
X220270D01*
X223199Y53656D01*
Y49027D01*
X221880D01*
Y52264D01*
X221880Y52264D01*
X221810Y52614D01*
X221612Y52911D01*
X221612Y52911D01*
X219919Y54604D01*
X219622Y54802D01*
X219272Y54872D01*
X219272Y54872D01*
X216358D01*
X216358Y54872D01*
X216008Y54802D01*
X215711Y54604D01*
X215711Y54604D01*
X213794Y52687D01*
X204705D01*
X204268Y53341D01*
X203548Y53822D01*
X202698Y53992D01*
X201849Y53822D01*
X201128Y53341D01*
X200647Y52621D01*
X200478Y51772D01*
X200647Y50922D01*
X201128Y50202D01*
X201849Y49721D01*
X202698Y49552D01*
X203548Y49721D01*
X204268Y50202D01*
X204705Y50856D01*
X214173D01*
X214173Y50856D01*
X214524Y50926D01*
X214820Y51125D01*
X216737Y53041D01*
X218893D01*
X220049Y51885D01*
Y49027D01*
X218215D01*
Y45276D01*
Y41524D01*
X232394D01*
Y44360D01*
X248145D01*
X255541Y36963D01*
Y28642D01*
X255541Y28642D01*
X255611Y28291D01*
X255809Y27994D01*
X266821Y16983D01*
X266742Y16879D01*
X266339Y15906D01*
X266202Y14862D01*
X266339Y13818D01*
X266742Y12845D01*
X267383Y12009D01*
X268219Y11368D01*
X269192Y10965D01*
X270236Y10828D01*
X271280Y10965D01*
X272253Y11368D01*
X273089Y12009D01*
X273730Y12845D01*
X274133Y13818D01*
X274271Y14862D01*
X274133Y15906D01*
X273730Y16879D01*
X273089Y17715D01*
X272253Y18356D01*
X271280Y18759D01*
X270236Y18897D01*
X269192Y18759D01*
X268219Y18356D01*
X268116Y18277D01*
X257372Y29021D01*
Y37343D01*
X257372Y37343D01*
X257302Y37693D01*
X257104Y37990D01*
X257104Y37990D01*
X249171Y45923D01*
X248874Y46121D01*
X248524Y46191D01*
X248524Y46191D01*
X232394D01*
Y49027D01*
X228179D01*
Y56299D01*
X228109Y56650D01*
X227911Y56946D01*
X227911Y56946D01*
X221218Y63639D01*
X220921Y63838D01*
X220571Y63907D01*
X220571Y63907D01*
X204705D01*
X204268Y64562D01*
X203548Y65043D01*
X202698Y65212D01*
D02*
G37*
G36*
X368024Y51882D02*
X360717D01*
Y50980D01*
X360497Y50936D01*
X360133Y50694D01*
X358011Y48571D01*
X357480Y48676D01*
X356631Y48507D01*
X355911Y48026D01*
X355430Y47306D01*
X355260Y46457D01*
X355430Y45607D01*
X355911Y44887D01*
X356631Y44406D01*
X357480Y44237D01*
X358330Y44406D01*
X359050Y44887D01*
X359531Y45607D01*
X359700Y46457D01*
X359595Y46987D01*
X360308Y47700D01*
X360717Y47921D01*
Y47921D01*
X360717Y47921D01*
X368024D01*
Y51882D01*
D02*
G37*
G36*
X30523Y48260D02*
X25793D01*
Y46679D01*
X30523D01*
Y48260D01*
D02*
G37*
G36*
X24994D02*
X20264D01*
Y46679D01*
X24994D01*
Y48260D01*
D02*
G37*
G36*
X30523Y45880D02*
X25793D01*
Y44299D01*
X30523D01*
Y45880D01*
D02*
G37*
G36*
X24994D02*
X20264D01*
Y44299D01*
X24994D01*
Y45880D01*
D02*
G37*
G36*
X368024Y66882D02*
X360717D01*
Y62921D01*
X368024D01*
Y63782D01*
X372922D01*
X386360Y50343D01*
Y48327D01*
X385911Y48026D01*
X385430Y47306D01*
X385261Y46457D01*
X385430Y45607D01*
X385911Y44887D01*
X386631Y44406D01*
X387480Y44237D01*
X388330Y44406D01*
X389050Y44887D01*
X389531Y45607D01*
X389700Y46457D01*
X389531Y47306D01*
X389050Y48026D01*
X388600Y48327D01*
Y50807D01*
X388515Y51236D01*
X388272Y51599D01*
X374178Y65693D01*
X373814Y65936D01*
X373386Y66022D01*
X368024D01*
Y66882D01*
D02*
G37*
G36*
Y61882D02*
X360717D01*
Y57921D01*
X368024D01*
Y58782D01*
X369950D01*
X380190Y48541D01*
X380320Y48026D01*
X379839Y47306D01*
X379670Y46457D01*
X379839Y45607D01*
X380320Y44887D01*
X381040Y44406D01*
X381890Y44237D01*
X382739Y44406D01*
X383459Y44887D01*
X383941Y45607D01*
X384110Y46457D01*
X383941Y47306D01*
X383459Y48026D01*
X382762Y48492D01*
Y48673D01*
X382677Y49101D01*
X382434Y49465D01*
X371205Y60694D01*
X370842Y60936D01*
X370413Y61022D01*
X368024D01*
Y61882D01*
D02*
G37*
G36*
Y56882D02*
X360717D01*
Y52921D01*
X367936D01*
X373870Y46987D01*
X373764Y46457D01*
X373933Y45607D01*
X374415Y44887D01*
X375135Y44406D01*
X375984Y44237D01*
X376834Y44406D01*
X377554Y44887D01*
X378035Y45607D01*
X378204Y46457D01*
X378035Y47306D01*
X377554Y48026D01*
X376834Y48507D01*
X375984Y48676D01*
X375454Y48571D01*
X368331Y55694D01*
X368024Y55899D01*
Y56882D01*
D02*
G37*
G36*
X181023Y48498D02*
X180173Y48329D01*
X179453Y47848D01*
X178972Y47128D01*
X178803Y46279D01*
X178956Y45507D01*
X175408Y41958D01*
X66743D01*
Y43260D01*
X56484D01*
Y39299D01*
X66743D01*
Y40128D01*
X175787D01*
X175787Y40128D01*
X176138Y40198D01*
X176435Y40396D01*
X180251Y44212D01*
X181023Y44059D01*
X181872Y44228D01*
X182592Y44709D01*
X183073Y45429D01*
X183242Y46279D01*
X183073Y47128D01*
X182592Y47848D01*
X181872Y48329D01*
X181023Y48498D01*
D02*
G37*
G36*
X17520Y43872D02*
X16849Y43784D01*
X16223Y43525D01*
X15686Y43113D01*
X15274Y42576D01*
X15015Y41951D01*
X14927Y41279D01*
X15015Y40608D01*
X15274Y39983D01*
X15686Y39446D01*
X16223Y39034D01*
X16849Y38775D01*
X17520Y38686D01*
X18191Y38775D01*
X18816Y39034D01*
X19352Y39445D01*
X20264D01*
Y39299D01*
X30523D01*
Y43260D01*
X20264D01*
Y43114D01*
X19352D01*
X18816Y43525D01*
X18191Y43784D01*
X17520Y43872D01*
D02*
G37*
G36*
X223732Y40858D02*
X221561D01*
Y38589D01*
X223732D01*
Y40858D01*
D02*
G37*
G36*
X220762D02*
X218591D01*
Y38589D01*
X220762D01*
Y40858D01*
D02*
G37*
G36*
X223732Y37789D02*
X221561D01*
Y35520D01*
X223732D01*
Y37789D01*
D02*
G37*
G36*
X220762D02*
X218591D01*
Y35520D01*
X220762D01*
Y37789D01*
D02*
G37*
G36*
X217415Y49027D02*
X196937D01*
Y45003D01*
X196839Y44984D01*
X196542Y44785D01*
X196542Y44785D01*
X174719Y22963D01*
X140157D01*
X140157Y22963D01*
X139807Y22893D01*
X139510Y22694D01*
X139510Y22694D01*
X135191Y18375D01*
X135088Y18455D01*
X134115Y18858D01*
X133071Y18995D01*
X132027Y18858D01*
X131054Y18455D01*
X130218Y17813D01*
X129577Y16978D01*
X129174Y16005D01*
X129036Y14961D01*
X129174Y13916D01*
X129577Y12943D01*
X130218Y12108D01*
X131054Y11467D01*
X132027Y11064D01*
X133071Y10926D01*
X134115Y11064D01*
X135088Y11467D01*
X135924Y12108D01*
X136565Y12943D01*
X136968Y13916D01*
X137105Y14961D01*
X136968Y16005D01*
X136565Y16978D01*
X136486Y17081D01*
X140536Y21132D01*
X175098D01*
X175098Y21132D01*
X175449Y21202D01*
X175746Y21400D01*
X196475Y42130D01*
X196937Y41938D01*
Y41524D01*
X199615D01*
X199807Y41062D01*
X197672Y38927D01*
X197219Y38971D01*
X196499Y39452D01*
X195650Y39621D01*
X194800Y39452D01*
X194080Y38971D01*
X193599Y38251D01*
X193430Y37402D01*
X193599Y36552D01*
X194080Y35832D01*
X194800Y35351D01*
X195650Y35182D01*
X196499Y35351D01*
X197219Y35832D01*
X197690Y36536D01*
X197791Y36556D01*
X198088Y36754D01*
X202714Y41380D01*
X202714Y41380D01*
X202810Y41524D01*
X204203D01*
Y38232D01*
X199957Y33986D01*
X193439D01*
X193002Y34640D01*
X192282Y35122D01*
X191432Y35291D01*
X190583Y35122D01*
X189863Y34640D01*
X189382Y33920D01*
X189213Y33071D01*
X189382Y32221D01*
X189863Y31501D01*
X190583Y31020D01*
X191432Y30851D01*
X192282Y31020D01*
X193002Y31501D01*
X193439Y32156D01*
X200336D01*
X200336Y32156D01*
X200686Y32225D01*
X200983Y32424D01*
X205765Y37206D01*
X205765Y37206D01*
X205964Y37503D01*
X206033Y37853D01*
Y41524D01*
X207057D01*
Y33548D01*
X203223Y29714D01*
X189318D01*
X188881Y30369D01*
X188161Y30850D01*
X187311Y31019D01*
X186462Y30850D01*
X185742Y30369D01*
X185261Y29649D01*
X185092Y28799D01*
X185261Y27950D01*
X185742Y27230D01*
X186462Y26748D01*
X187311Y26579D01*
X188161Y26748D01*
X188881Y27230D01*
X189318Y27884D01*
X203602D01*
X203602Y27884D01*
X203953Y27954D01*
X204250Y28152D01*
X208620Y32522D01*
X208620Y32522D01*
X208818Y32819D01*
X208888Y33169D01*
X208888Y33169D01*
Y41524D01*
X209715D01*
Y31046D01*
X209800Y30617D01*
X210043Y30254D01*
X212870Y27426D01*
X213234Y27183D01*
X213662Y27098D01*
X230541D01*
X230970Y27183D01*
X231333Y27426D01*
X236203Y32296D01*
X247685D01*
Y29172D01*
X253614D01*
Y37660D01*
X247685D01*
Y34536D01*
X235739D01*
X235310Y34451D01*
X234947Y34208D01*
X230077Y29338D01*
X214126D01*
X211955Y31510D01*
Y41524D01*
X212832D01*
Y40858D01*
X212488D01*
Y35520D01*
X213569D01*
Y34908D01*
X213305Y34564D01*
X213047Y33939D01*
X212958Y33268D01*
X213047Y32597D01*
X213305Y31971D01*
X213718Y31434D01*
X214255Y31022D01*
X214880Y30763D01*
X215551Y30675D01*
X216222Y30763D01*
X216848Y31022D01*
X217385Y31434D01*
X217797Y31971D01*
X218056Y32597D01*
X218144Y33268D01*
X218056Y33939D01*
X217797Y34564D01*
X217447Y35020D01*
X217463Y35078D01*
X217630Y35520D01*
X217630Y35520D01*
X217630Y35520D01*
Y40858D01*
X216499D01*
Y41524D01*
X217415D01*
Y45276D01*
Y49027D01*
D02*
G37*
G36*
X40559Y32409D02*
X38978D01*
Y29648D01*
X40559D01*
Y32409D01*
D02*
G37*
G36*
X38179D02*
X36598D01*
Y29648D01*
X38179D01*
Y32409D01*
D02*
G37*
G36*
X129539Y38102D02*
X123610D01*
Y34978D01*
X113244D01*
X112815Y34893D01*
X112452Y34650D01*
X109938Y32137D01*
X104798D01*
Y25413D01*
X111522D01*
Y30553D01*
X113707Y32738D01*
X123610D01*
Y29614D01*
X129539D01*
Y38102D01*
D02*
G37*
G36*
X48039Y32409D02*
X44079D01*
Y26087D01*
X48039D01*
Y27413D01*
X49787D01*
Y26677D01*
X55126D01*
Y27413D01*
X56238D01*
X56774Y27002D01*
X57400Y26743D01*
X58071Y26655D01*
X58742Y26743D01*
X59367Y27002D01*
X59904Y27414D01*
X60316Y27951D01*
X60575Y28577D01*
X60664Y29248D01*
X60575Y29919D01*
X60316Y30544D01*
X59904Y31082D01*
X59367Y31494D01*
X58742Y31753D01*
X58071Y31841D01*
X57400Y31753D01*
X56774Y31494D01*
X56238Y31082D01*
X55126D01*
Y31819D01*
X49787D01*
Y31082D01*
X48039D01*
Y32409D01*
D02*
G37*
G36*
X40559Y28848D02*
X38978D01*
Y26087D01*
X40559D01*
Y28848D01*
D02*
G37*
G36*
X38179D02*
X36598D01*
Y26087D01*
X38179D01*
Y28848D01*
D02*
G37*
G36*
X265228Y37660D02*
X259299D01*
Y29172D01*
X265228D01*
Y32296D01*
X289777D01*
X291520Y30553D01*
Y25413D01*
X298244D01*
Y32137D01*
X293104D01*
X291033Y34208D01*
X290669Y34451D01*
X290241Y34536D01*
X265228D01*
Y37660D01*
D02*
G37*
G36*
X346961Y51882D02*
X339653D01*
Y47921D01*
X342187D01*
Y45079D01*
X342272Y44650D01*
X342515Y44287D01*
X345074Y41728D01*
X345438Y41485D01*
X345866Y41400D01*
X394575D01*
X405126Y30849D01*
X404805Y30075D01*
X404676Y29094D01*
X404805Y28114D01*
X405184Y27200D01*
X405786Y26416D01*
X406570Y25814D01*
X407484Y25435D01*
X408464Y25306D01*
X409445Y25435D01*
X410359Y25814D01*
X411143Y26416D01*
X411745Y27200D01*
X412124Y28114D01*
X412253Y29094D01*
X412124Y30075D01*
X411745Y30989D01*
X411143Y31773D01*
X410359Y32375D01*
X409445Y32754D01*
X408464Y32883D01*
X407484Y32754D01*
X406710Y32433D01*
X395831Y43312D01*
X395468Y43554D01*
X395039Y43640D01*
X346330D01*
X344427Y45543D01*
Y47921D01*
X346961D01*
Y51882D01*
D02*
G37*
G36*
Y56882D02*
X339653D01*
Y55816D01*
X339539D01*
X339110Y55731D01*
X338747Y55488D01*
X336019Y52760D01*
X335776Y52397D01*
X335691Y51968D01*
Y45866D01*
X335776Y45438D01*
X336019Y45074D01*
X342810Y38283D01*
X343174Y38040D01*
X343602Y37955D01*
X378335D01*
X385441Y30849D01*
X385120Y30075D01*
X384991Y29094D01*
X385120Y28114D01*
X385499Y27200D01*
X386101Y26416D01*
X386885Y25814D01*
X387799Y25435D01*
X388779Y25306D01*
X389760Y25435D01*
X390674Y25814D01*
X391458Y26416D01*
X392060Y27200D01*
X392439Y28114D01*
X392568Y29094D01*
X392439Y30075D01*
X392060Y30989D01*
X391458Y31773D01*
X390674Y32375D01*
X389760Y32754D01*
X388779Y32883D01*
X387799Y32754D01*
X387025Y32433D01*
X379591Y39867D01*
X379228Y40110D01*
X378799Y40195D01*
X344066D01*
X337931Y46330D01*
Y51505D01*
X339197Y52771D01*
X339653Y52921D01*
Y52921D01*
X339654Y52921D01*
X346961D01*
Y56882D01*
D02*
G37*
G36*
X55126Y25717D02*
X52856D01*
Y23545D01*
X55126D01*
Y25717D01*
D02*
G37*
G36*
X52057D02*
X49787D01*
Y23545D01*
X52057D01*
Y25717D01*
D02*
G37*
G36*
X55126Y22746D02*
X52856D01*
Y20575D01*
X55126D01*
Y22746D01*
D02*
G37*
G36*
X52057D02*
X49787D01*
Y20575D01*
X52057D01*
Y22746D01*
D02*
G37*
G36*
X66743Y38260D02*
X56484D01*
Y34299D01*
X61290D01*
Y24296D01*
X53656Y16663D01*
X51265D01*
X49663Y18265D01*
X49366Y18464D01*
X49016Y18533D01*
X49016Y18533D01*
X48039D01*
Y22567D01*
X42718D01*
Y19406D01*
Y16244D01*
X45144D01*
Y14105D01*
X44591Y13681D01*
X43901Y12783D01*
X43468Y11737D01*
X43320Y10614D01*
X43468Y9492D01*
X43901Y8446D01*
X44591Y7547D01*
X45489Y6858D01*
X46535Y6425D01*
X47657Y6277D01*
X48780Y6425D01*
X49826Y6858D01*
X50724Y7547D01*
X51414Y8446D01*
X51847Y9492D01*
X51995Y10614D01*
X51847Y11737D01*
X51414Y12783D01*
X50724Y13681D01*
X49826Y14370D01*
X48780Y14804D01*
X47657Y14951D01*
X47350Y14911D01*
X46974Y15240D01*
Y16244D01*
X48039D01*
Y16703D01*
X48637D01*
X50239Y15101D01*
X50239Y15101D01*
X50536Y14902D01*
X50886Y14833D01*
X54035D01*
X54035Y14833D01*
X54386Y14902D01*
X54683Y15101D01*
X62852Y23270D01*
X62852Y23270D01*
X63050Y23567D01*
X63120Y23917D01*
X63120Y23917D01*
Y34299D01*
X66743D01*
Y38260D01*
D02*
G37*
G36*
X143571Y18929D02*
Y15461D01*
X147040D01*
X146968Y16005D01*
X146565Y16978D01*
X145924Y17813D01*
X145088Y18455D01*
X144115Y18858D01*
X143571Y18929D01*
D02*
G37*
G36*
X142571Y18929D02*
X142027Y18858D01*
X141054Y18455D01*
X140218Y17813D01*
X139577Y16978D01*
X139174Y16005D01*
X139102Y15461D01*
X142571D01*
Y18929D01*
D02*
G37*
G36*
X83846Y18929D02*
Y15461D01*
X87315D01*
X87243Y16005D01*
X86840Y16978D01*
X86199Y17813D01*
X85364Y18455D01*
X84391Y18858D01*
X83846Y18929D01*
D02*
G37*
G36*
X82846Y18929D02*
X82302Y18858D01*
X81329Y18455D01*
X80494Y17813D01*
X79852Y16978D01*
X79449Y16005D01*
X79378Y15461D01*
X82846D01*
Y18929D01*
D02*
G37*
G36*
X260736Y18831D02*
Y15362D01*
X264205D01*
X264133Y15906D01*
X263730Y16879D01*
X263089Y17715D01*
X262253Y18356D01*
X261280Y18759D01*
X260736Y18831D01*
D02*
G37*
G36*
X259736Y18831D02*
X259192Y18759D01*
X258219Y18356D01*
X257383Y17715D01*
X256742Y16879D01*
X256339Y15906D01*
X256267Y15362D01*
X259736D01*
Y18831D01*
D02*
G37*
G36*
X330008Y18831D02*
Y15362D01*
X333476D01*
X333405Y15906D01*
X333002Y16879D01*
X332361Y17715D01*
X331525Y18356D01*
X330552Y18759D01*
X330008Y18831D01*
D02*
G37*
G36*
X329008Y18831D02*
X328464Y18759D01*
X327491Y18356D01*
X326655Y17715D01*
X326014Y16879D01*
X325611Y15906D01*
X325539Y15362D01*
X329008D01*
Y18831D01*
D02*
G37*
G36*
X408464Y22883D02*
X407484Y22754D01*
X406570Y22375D01*
X405786Y21773D01*
X405184Y20989D01*
X404805Y20075D01*
X404676Y19094D01*
X404805Y18114D01*
X405184Y17200D01*
X405786Y16416D01*
X406570Y15814D01*
X407484Y15435D01*
X408464Y15306D01*
X409445Y15435D01*
X410359Y15814D01*
X411143Y16416D01*
X411745Y17200D01*
X412124Y18114D01*
X412253Y19094D01*
X412124Y20075D01*
X411745Y20989D01*
X411143Y21773D01*
X410359Y22375D01*
X409445Y22754D01*
X408464Y22883D01*
D02*
G37*
G36*
X388779D02*
X387799Y22754D01*
X386885Y22375D01*
X386101Y21773D01*
X385499Y20989D01*
X385120Y20075D01*
X384991Y19094D01*
X385120Y18114D01*
X385499Y17200D01*
X386101Y16416D01*
X386885Y15814D01*
X387799Y15435D01*
X388779Y15306D01*
X389760Y15435D01*
X390674Y15814D01*
X391458Y16416D01*
X392060Y17200D01*
X392439Y18114D01*
X392568Y19094D01*
X392439Y20075D01*
X392060Y20989D01*
X391458Y21773D01*
X390674Y22375D01*
X389760Y22754D01*
X388779Y22883D01*
D02*
G37*
G36*
X369094D02*
X368114Y22754D01*
X367200Y22375D01*
X366416Y21773D01*
X365814Y20989D01*
X365435Y20075D01*
X365306Y19094D01*
X365435Y18114D01*
X365814Y17200D01*
X366416Y16416D01*
X367200Y15814D01*
X368114Y15435D01*
X369094Y15306D01*
X370075Y15435D01*
X370989Y15814D01*
X371773Y16416D01*
X372375Y17200D01*
X372754Y18114D01*
X372883Y19094D01*
X372754Y20075D01*
X372375Y20989D01*
X371773Y21773D01*
X370989Y22375D01*
X370075Y22754D01*
X369094Y22883D01*
D02*
G37*
G36*
X349409D02*
X348429Y22754D01*
X347515Y22375D01*
X346731Y21773D01*
X346129Y20989D01*
X345750Y20075D01*
X345621Y19094D01*
X345750Y18114D01*
X346129Y17200D01*
X346731Y16416D01*
X347515Y15814D01*
X348429Y15435D01*
X349409Y15306D01*
X350390Y15435D01*
X351304Y15814D01*
X352088Y16416D01*
X352690Y17200D01*
X353069Y18114D01*
X353198Y19094D01*
X353069Y20075D01*
X352690Y20989D01*
X352088Y21773D01*
X351304Y22375D01*
X350390Y22754D01*
X349409Y22883D01*
D02*
G37*
G36*
X202008Y27298D02*
X201337Y27209D01*
X200711Y26950D01*
X200174Y26538D01*
X199762Y26001D01*
X199503Y25376D01*
X199415Y24705D01*
X199503Y24034D01*
X199762Y23408D01*
X200173Y22872D01*
Y21764D01*
X199437D01*
Y16425D01*
X200173D01*
Y15189D01*
X199567Y14582D01*
X199233Y14721D01*
X198110Y14869D01*
X196988Y14721D01*
X195942Y14288D01*
X195044Y13598D01*
X194354Y12700D01*
X193921Y11654D01*
X193773Y10531D01*
X193921Y9409D01*
X194354Y8363D01*
X195044Y7465D01*
X195942Y6775D01*
X196988Y6342D01*
X198110Y6194D01*
X199233Y6342D01*
X200279Y6775D01*
X201177Y7465D01*
X201866Y8363D01*
X202300Y9409D01*
X202447Y10531D01*
X202300Y11654D01*
X202161Y11988D01*
X203305Y13132D01*
X203703Y13727D01*
X203842Y14429D01*
Y16425D01*
X204579D01*
Y21764D01*
X203842D01*
Y22872D01*
X204254Y23408D01*
X204513Y24034D01*
X204601Y24705D01*
X204513Y25376D01*
X204254Y26001D01*
X203841Y26538D01*
X203304Y26950D01*
X202679Y27209D01*
X202008Y27298D01*
D02*
G37*
G36*
X118160Y22166D02*
X117282Y22050D01*
X116464Y21711D01*
X115762Y21172D01*
X115223Y20470D01*
X114884Y19652D01*
X114769Y18775D01*
X114884Y17897D01*
X115123Y17322D01*
X109613Y11812D01*
X109038Y12050D01*
X108160Y12166D01*
X107282Y12050D01*
X106465Y11711D01*
X105762Y11173D01*
X105223Y10470D01*
X104985Y9895D01*
X79996D01*
X76872Y13019D01*
X77244Y13916D01*
X77381Y14961D01*
X77244Y16005D01*
X76840Y16978D01*
X76199Y17813D01*
X75364Y18455D01*
X74391Y18858D01*
X73347Y18995D01*
X72302Y18858D01*
X71329Y18455D01*
X70494Y17813D01*
X69852Y16978D01*
X69449Y16005D01*
X69312Y14961D01*
X69449Y13916D01*
X69852Y12943D01*
X70494Y12108D01*
X71329Y11467D01*
X72302Y11064D01*
X73347Y10926D01*
X74391Y11064D01*
X75288Y11435D01*
X78741Y7983D01*
X79104Y7740D01*
X79532Y7655D01*
X104985D01*
X105223Y7079D01*
X105762Y6377D01*
X106465Y5838D01*
X107282Y5499D01*
X108160Y5384D01*
X109038Y5499D01*
X109855Y5838D01*
X110558Y6377D01*
X111097Y7079D01*
X111435Y7897D01*
X111551Y8775D01*
X111435Y9652D01*
X111197Y10228D01*
X116707Y15738D01*
X117282Y15499D01*
X118160Y15384D01*
X119038Y15499D01*
X119855Y15838D01*
X120558Y16377D01*
X121097Y17079D01*
X121435Y17897D01*
X121551Y18775D01*
X121435Y19652D01*
X121097Y20470D01*
X120558Y21172D01*
X119855Y21711D01*
X119038Y22050D01*
X118160Y22166D01*
D02*
G37*
G36*
X18158Y14885D02*
Y11114D01*
X21929D01*
X21847Y11737D01*
X21414Y12783D01*
X20724Y13681D01*
X19826Y14370D01*
X18780Y14804D01*
X18158Y14885D01*
D02*
G37*
G36*
X17157D02*
X16535Y14804D01*
X15489Y14370D01*
X14591Y13681D01*
X13901Y12783D01*
X13468Y11737D01*
X13386Y11114D01*
X17157D01*
Y14885D01*
D02*
G37*
G36*
X188610Y14803D02*
Y11032D01*
X192382D01*
X192300Y11654D01*
X191866Y12700D01*
X191177Y13598D01*
X190279Y14288D01*
X189233Y14721D01*
X188610Y14803D01*
D02*
G37*
G36*
X187610D02*
X186988Y14721D01*
X185942Y14288D01*
X185044Y13598D01*
X184354Y12700D01*
X183921Y11654D01*
X183839Y11032D01*
X187610D01*
Y14803D01*
D02*
G37*
G36*
X87315Y14461D02*
X83846D01*
Y10992D01*
X84391Y11064D01*
X85364Y11467D01*
X86199Y12108D01*
X86840Y12943D01*
X87243Y13916D01*
X87315Y14461D01*
D02*
G37*
G36*
X147040Y14461D02*
X143571D01*
Y10992D01*
X144115Y11064D01*
X145088Y11467D01*
X145924Y12108D01*
X146565Y12943D01*
X146968Y13916D01*
X147040Y14461D01*
D02*
G37*
G36*
X142571D02*
X139102D01*
X139174Y13916D01*
X139577Y12943D01*
X140218Y12108D01*
X141054Y11467D01*
X142027Y11064D01*
X142571Y10992D01*
Y14461D01*
D02*
G37*
G36*
X82846Y14461D02*
X79378D01*
X79449Y13916D01*
X79852Y12943D01*
X80494Y12108D01*
X81329Y11467D01*
X82302Y11064D01*
X82846Y10992D01*
Y14461D01*
D02*
G37*
G36*
X259736Y14362D02*
X256267D01*
X256339Y13818D01*
X256742Y12845D01*
X257383Y12009D01*
X258219Y11368D01*
X259192Y10965D01*
X259736Y10893D01*
Y14362D01*
D02*
G37*
G36*
X329008Y14362D02*
X325539D01*
X325611Y13818D01*
X326014Y12845D01*
X326655Y12009D01*
X327491Y11368D01*
X328464Y10965D01*
X329008Y10893D01*
Y14362D01*
D02*
G37*
G36*
X333476D02*
X330008D01*
Y10893D01*
X330552Y10965D01*
X331525Y11368D01*
X332361Y12009D01*
X333002Y12845D01*
X333405Y13818D01*
X333476Y14362D01*
D02*
G37*
G36*
X264205Y14362D02*
X260736D01*
Y10893D01*
X261280Y10965D01*
X262253Y11368D01*
X263089Y12009D01*
X263730Y12845D01*
X264133Y13818D01*
X264205Y14362D01*
D02*
G37*
G36*
X304882Y22166D02*
X304004Y22050D01*
X303186Y21711D01*
X302484Y21172D01*
X301945Y20470D01*
X301606Y19652D01*
X301491Y18775D01*
X301606Y17897D01*
X301845Y17321D01*
X296335Y11812D01*
X295760Y12050D01*
X294882Y12166D01*
X294004Y12050D01*
X293186Y11711D01*
X292484Y11173D01*
X291945Y10470D01*
X291606Y9652D01*
X291491Y8775D01*
X291606Y7897D01*
X291945Y7079D01*
X292484Y6377D01*
X293186Y5838D01*
X294004Y5499D01*
X294882Y5384D01*
X295760Y5499D01*
X296577Y5838D01*
X297280Y6377D01*
X297819Y7079D01*
X298157Y7897D01*
X298273Y8775D01*
X298157Y9652D01*
X297919Y10228D01*
X303429Y15738D01*
X304004Y15499D01*
X304882Y15384D01*
X305760Y15499D01*
X306577Y15838D01*
X307280Y16377D01*
X307819Y17079D01*
X308057Y17655D01*
X315131D01*
X315983Y16804D01*
X315611Y15906D01*
X315473Y14862D01*
X315611Y13818D01*
X316014Y12845D01*
X316655Y12009D01*
X317491Y11368D01*
X318464Y10965D01*
X319508Y10828D01*
X320552Y10965D01*
X321525Y11368D01*
X322361Y12009D01*
X323002Y12845D01*
X323405Y13818D01*
X323542Y14862D01*
X323405Y15906D01*
X323002Y16879D01*
X322361Y17715D01*
X321525Y18356D01*
X320552Y18759D01*
X319508Y18897D01*
X318464Y18759D01*
X317566Y18387D01*
X316387Y19567D01*
X316024Y19809D01*
X315595Y19895D01*
X308057D01*
X307819Y20470D01*
X307280Y21172D01*
X306577Y21711D01*
X305760Y22050D01*
X304882Y22166D01*
D02*
G37*
G36*
X21929Y10114D02*
X18158D01*
Y6343D01*
X18780Y6425D01*
X19826Y6858D01*
X20724Y7547D01*
X21414Y8446D01*
X21847Y9492D01*
X21929Y10114D01*
D02*
G37*
G36*
X17157D02*
X13386D01*
X13468Y9492D01*
X13901Y8446D01*
X14591Y7547D01*
X15489Y6858D01*
X16535Y6425D01*
X17157Y6343D01*
Y10114D01*
D02*
G37*
G36*
X30523Y38260D02*
X20264D01*
Y34299D01*
X30523D01*
Y34299D01*
X30819Y34422D01*
X31762Y33479D01*
Y22654D01*
X31762Y22654D01*
X31832Y22303D01*
X32030Y22006D01*
X35278Y18758D01*
X35278Y18758D01*
X35575Y18560D01*
X35925Y18490D01*
X36598D01*
Y16244D01*
X37663D01*
Y14957D01*
X37657Y14951D01*
X36535Y14804D01*
X35489Y14370D01*
X34591Y13681D01*
X33901Y12783D01*
X33468Y11737D01*
X33320Y10614D01*
X33468Y9492D01*
X33901Y8446D01*
X34591Y7547D01*
X35489Y6858D01*
X36535Y6425D01*
X37657Y6277D01*
X38780Y6425D01*
X39826Y6858D01*
X40724Y7547D01*
X41414Y8446D01*
X41847Y9492D01*
X41995Y10614D01*
X41847Y11737D01*
X41414Y12783D01*
X40724Y13681D01*
X39826Y14370D01*
X39494Y14508D01*
Y16244D01*
X41919D01*
Y19406D01*
Y22567D01*
X36598D01*
Y20734D01*
X36098Y20527D01*
X33592Y23033D01*
Y33858D01*
X33523Y34209D01*
X33324Y34505D01*
X33324Y34506D01*
X30918Y36911D01*
X30621Y37110D01*
X30523Y37129D01*
Y38260D01*
D02*
G37*
G36*
X27657Y28184D02*
X26986Y28095D01*
X26361Y27836D01*
X25824Y27424D01*
X25412Y26887D01*
X25153Y26262D01*
X25064Y25591D01*
X25153Y24919D01*
X25412Y24294D01*
X25823Y23758D01*
Y14509D01*
X25489Y14370D01*
X24591Y13681D01*
X23901Y12783D01*
X23468Y11737D01*
X23320Y10614D01*
X23468Y9492D01*
X23901Y8446D01*
X24591Y7547D01*
X25489Y6858D01*
X26535Y6425D01*
X27657Y6277D01*
X28780Y6425D01*
X29826Y6858D01*
X30724Y7547D01*
X31413Y8446D01*
X31847Y9492D01*
X31995Y10614D01*
X31847Y11737D01*
X31413Y12783D01*
X30724Y13681D01*
X29826Y14370D01*
X29492Y14509D01*
Y23758D01*
X29903Y24294D01*
X30162Y24919D01*
X30250Y25591D01*
X30162Y26262D01*
X29903Y26887D01*
X29491Y27424D01*
X28954Y27836D01*
X28329Y28095D01*
X27657Y28184D01*
D02*
G37*
G36*
X192382Y10031D02*
X188610D01*
Y6260D01*
X189233Y6342D01*
X190279Y6775D01*
X191177Y7465D01*
X191866Y8363D01*
X192300Y9409D01*
X192382Y10031D01*
D02*
G37*
G36*
X187610D02*
X183839D01*
X183921Y9409D01*
X184354Y8363D01*
X185044Y7465D01*
X185942Y6775D01*
X186988Y6342D01*
X187610Y6260D01*
Y10031D01*
D02*
G37*
G36*
X176772Y14869D02*
X175649Y14721D01*
X174603Y14288D01*
X173705Y13598D01*
X173016Y12700D01*
X172582Y11654D01*
X172434Y10531D01*
X172582Y9409D01*
X173016Y8363D01*
X173705Y7465D01*
X174603Y6775D01*
X175649Y6342D01*
X176772Y6194D01*
X177894Y6342D01*
X178940Y6775D01*
X179838Y7465D01*
X180528Y8363D01*
X180961Y9409D01*
X181109Y10531D01*
X180961Y11654D01*
X180528Y12700D01*
X179838Y13598D01*
X178940Y14288D01*
X177894Y14721D01*
X176772Y14869D01*
D02*
G37*
G36*
X166772D02*
X165649Y14721D01*
X164603Y14288D01*
X163705Y13598D01*
X163016Y12700D01*
X162582Y11654D01*
X162434Y10531D01*
X162582Y9409D01*
X163016Y8363D01*
X163705Y7465D01*
X164603Y6775D01*
X165649Y6342D01*
X166772Y6194D01*
X167894Y6342D01*
X168940Y6775D01*
X169838Y7465D01*
X170528Y8363D01*
X170961Y9409D01*
X171109Y10531D01*
X170961Y11654D01*
X170528Y12700D01*
X169838Y13598D01*
X168940Y14288D01*
X167894Y14721D01*
X166772Y14869D01*
D02*
G37*
G36*
X238110Y14869D02*
X236988Y14721D01*
X235942Y14288D01*
X235043Y13598D01*
X234354Y12700D01*
X233921Y11654D01*
X233773Y10531D01*
X233921Y9409D01*
X234354Y8363D01*
X235043Y7465D01*
X235942Y6775D01*
X236988Y6342D01*
X238110Y6194D01*
X239233Y6342D01*
X240279Y6775D01*
X241177Y7465D01*
X241866Y8363D01*
X242300Y9409D01*
X242447Y10531D01*
X242300Y11654D01*
X241866Y12700D01*
X241177Y13598D01*
X240279Y14288D01*
X239233Y14721D01*
X238110Y14869D01*
D02*
G37*
G36*
X228110D02*
X226988Y14721D01*
X225942Y14288D01*
X225043Y13598D01*
X224354Y12700D01*
X223921Y11654D01*
X223773Y10531D01*
X223921Y9409D01*
X224354Y8363D01*
X225043Y7465D01*
X225942Y6775D01*
X226988Y6342D01*
X228110Y6194D01*
X229233Y6342D01*
X230279Y6775D01*
X231177Y7465D01*
X231866Y8363D01*
X232300Y9409D01*
X232447Y10531D01*
X232300Y11654D01*
X231866Y12700D01*
X231177Y13598D01*
X230279Y14288D01*
X229233Y14721D01*
X228110Y14869D01*
D02*
G37*
G36*
X218110D02*
X216988Y14721D01*
X215942Y14288D01*
X215043Y13598D01*
X214354Y12700D01*
X213921Y11654D01*
X213773Y10531D01*
X213921Y9409D01*
X214354Y8363D01*
X215043Y7465D01*
X215942Y6775D01*
X216988Y6342D01*
X218110Y6194D01*
X219233Y6342D01*
X220279Y6775D01*
X221177Y7465D01*
X221866Y8363D01*
X222300Y9409D01*
X222447Y10531D01*
X222300Y11654D01*
X221866Y12700D01*
X221177Y13598D01*
X220279Y14288D01*
X219233Y14721D01*
X218110Y14869D01*
D02*
G37*
G36*
X208110Y29110D02*
X207261Y28941D01*
X206541Y28459D01*
X206059Y27739D01*
X205890Y26890D01*
X206059Y26040D01*
X206541Y25320D01*
X207195Y24883D01*
Y21764D01*
X205539D01*
Y16425D01*
X207195D01*
Y14748D01*
X206988Y14721D01*
X205942Y14288D01*
X205043Y13598D01*
X204354Y12700D01*
X203921Y11654D01*
X203773Y10531D01*
X203921Y9409D01*
X204354Y8363D01*
X205043Y7465D01*
X205942Y6775D01*
X206988Y6342D01*
X208110Y6194D01*
X209233Y6342D01*
X210279Y6775D01*
X211177Y7465D01*
X211866Y8363D01*
X212300Y9409D01*
X212447Y10531D01*
X212300Y11654D01*
X211866Y12700D01*
X211177Y13598D01*
X210279Y14288D01*
X209233Y14721D01*
X209026Y14748D01*
Y16425D01*
X210681D01*
Y21764D01*
X209026D01*
Y24883D01*
X209680Y25320D01*
X210161Y26040D01*
X210330Y26890D01*
X210161Y27739D01*
X209680Y28459D01*
X208960Y28941D01*
X208110Y29110D01*
D02*
G37*
G36*
X408464Y12883D02*
X407484Y12754D01*
X406570Y12375D01*
X405786Y11773D01*
X405184Y10989D01*
X404805Y10075D01*
X404676Y9094D01*
X404805Y8114D01*
X405184Y7200D01*
X405786Y6416D01*
X406570Y5814D01*
X407484Y5435D01*
X408464Y5306D01*
X409445Y5435D01*
X410359Y5814D01*
X411143Y6416D01*
X411745Y7200D01*
X412124Y8114D01*
X412253Y9094D01*
X412124Y10075D01*
X411745Y10989D01*
X411143Y11773D01*
X410359Y12375D01*
X409445Y12754D01*
X408464Y12883D01*
D02*
G37*
G36*
X388779D02*
X387799Y12754D01*
X386885Y12375D01*
X386101Y11773D01*
X385499Y10989D01*
X385120Y10075D01*
X384991Y9094D01*
X385120Y8114D01*
X385499Y7200D01*
X386101Y6416D01*
X386885Y5814D01*
X387799Y5435D01*
X388779Y5306D01*
X389760Y5435D01*
X390674Y5814D01*
X391458Y6416D01*
X392060Y7200D01*
X392439Y8114D01*
X392568Y9094D01*
X392439Y10075D01*
X392060Y10989D01*
X391458Y11773D01*
X390674Y12375D01*
X389760Y12754D01*
X388779Y12883D01*
D02*
G37*
G36*
X369094D02*
X368114Y12754D01*
X367200Y12375D01*
X366416Y11773D01*
X365814Y10989D01*
X365435Y10075D01*
X365306Y9094D01*
X365435Y8114D01*
X365814Y7200D01*
X366416Y6416D01*
X367200Y5814D01*
X368114Y5435D01*
X369094Y5306D01*
X370075Y5435D01*
X370989Y5814D01*
X371773Y6416D01*
X372375Y7200D01*
X372754Y8114D01*
X372883Y9094D01*
X372754Y10075D01*
X372375Y10989D01*
X371773Y11773D01*
X370989Y12375D01*
X370075Y12754D01*
X369094Y12883D01*
D02*
G37*
G36*
X349409D02*
X348429Y12754D01*
X347515Y12375D01*
X346731Y11773D01*
X346129Y10989D01*
X345750Y10075D01*
X345621Y9094D01*
X345750Y8114D01*
X346129Y7200D01*
X346731Y6416D01*
X347515Y5814D01*
X348429Y5435D01*
X349409Y5306D01*
X350390Y5435D01*
X351304Y5814D01*
X352088Y6416D01*
X352690Y7200D01*
X353069Y8114D01*
X353198Y9094D01*
X353069Y10075D01*
X352690Y10989D01*
X352088Y11773D01*
X351304Y12375D01*
X350390Y12754D01*
X349409Y12883D01*
D02*
G37*
%LPD*%
G36*
X188276Y78277D02*
X176772D01*
X176772Y78277D01*
X176421Y78208D01*
X176125Y78009D01*
X176125Y78009D01*
X157495Y59380D01*
X108942D01*
X106427Y61895D01*
Y74326D01*
X107071Y74969D01*
X107416Y75283D01*
Y75283D01*
X107416Y75283D01*
X109011D01*
X109127Y75004D01*
X109172Y74783D01*
X108989Y74509D01*
X108919Y74159D01*
X108919Y74159D01*
Y64575D01*
X108919Y64575D01*
X108989Y64225D01*
X109187Y63928D01*
X111754Y61361D01*
X111754Y61361D01*
X112051Y61162D01*
X112402Y61093D01*
X112402Y61093D01*
X153642D01*
X153642Y61093D01*
X153992Y61162D01*
X154289Y61361D01*
X175674Y82746D01*
X188276D01*
Y78277D01*
D02*
G37*
D19*
X116680Y96457D02*
D03*
X114711D02*
D03*
X112742D02*
D03*
X110774D02*
D03*
X108806D02*
D03*
Y78937D02*
D03*
X110774D02*
D03*
X112742D02*
D03*
X114711D02*
D03*
X116680D02*
D03*
D20*
X15157Y63681D02*
D03*
Y53838D02*
D03*
D21*
X198917Y90551D02*
D03*
X202067D02*
D03*
X205217D02*
D03*
X208366D02*
D03*
X211516D02*
D03*
X214665D02*
D03*
X217815D02*
D03*
X220965D02*
D03*
X224114D02*
D03*
X227264D02*
D03*
X230413D02*
D03*
Y45276D02*
D03*
X227264D02*
D03*
X224114D02*
D03*
X220965D02*
D03*
X217815D02*
D03*
X214665D02*
D03*
X211516D02*
D03*
X208366D02*
D03*
X205217D02*
D03*
X202067D02*
D03*
X198917D02*
D03*
D22*
X237303Y83661D02*
D03*
Y80512D02*
D03*
Y77362D02*
D03*
Y74213D02*
D03*
Y71063D02*
D03*
Y67913D02*
D03*
Y64764D02*
D03*
Y61614D02*
D03*
Y58465D02*
D03*
Y55315D02*
D03*
Y52165D02*
D03*
X192027D02*
D03*
Y55315D02*
D03*
Y58465D02*
D03*
Y61614D02*
D03*
Y64764D02*
D03*
Y67913D02*
D03*
Y71063D02*
D03*
Y74213D02*
D03*
Y77362D02*
D03*
Y80512D02*
D03*
Y83661D02*
D03*
D23*
X256799Y64862D02*
D03*
X250689D02*
D03*
D24*
X25394Y101279D02*
D03*
Y96279D02*
D03*
Y91279D02*
D03*
Y86279D02*
D03*
Y81279D02*
D03*
Y76279D02*
D03*
Y71279D02*
D03*
Y66279D02*
D03*
Y61279D02*
D03*
Y56279D02*
D03*
Y51279D02*
D03*
Y46279D02*
D03*
Y41279D02*
D03*
Y36279D02*
D03*
X61614D02*
D03*
Y41279D02*
D03*
Y46279D02*
D03*
Y51279D02*
D03*
Y56279D02*
D03*
Y61279D02*
D03*
Y66279D02*
D03*
Y71279D02*
D03*
Y76279D02*
D03*
Y81279D02*
D03*
Y86279D02*
D03*
Y91279D02*
D03*
Y96279D02*
D03*
Y101279D02*
D03*
D25*
X342480Y98917D02*
D03*
X347480D02*
D03*
X352480D02*
D03*
X357480D02*
D03*
X362480D02*
D03*
X367480D02*
D03*
X372480D02*
D03*
X377480D02*
D03*
X382480D02*
D03*
X387480D02*
D03*
X392480D02*
D03*
X397480D02*
D03*
X342480Y136319D02*
D03*
X347480D02*
D03*
X352480D02*
D03*
X357480D02*
D03*
X362480D02*
D03*
X367480D02*
D03*
X372480D02*
D03*
X377480D02*
D03*
X382480D02*
D03*
X387480D02*
D03*
X392480D02*
D03*
X397480D02*
D03*
D26*
X120813Y71791D02*
D03*
X114711D02*
D03*
X217618Y97736D02*
D03*
X211516D02*
D03*
X148425Y151772D02*
D03*
X154527D02*
D03*
X148327Y139417D02*
D03*
X154429D02*
D03*
X327362Y220571D02*
D03*
X321260D02*
D03*
X343406Y219193D02*
D03*
X349508D02*
D03*
X349508Y198622D02*
D03*
X343406D02*
D03*
X381890Y220571D02*
D03*
X387992D02*
D03*
X367028Y197047D02*
D03*
X373130D02*
D03*
X385728Y197047D02*
D03*
X391831D02*
D03*
X364370Y91142D02*
D03*
X358268D02*
D03*
X215059Y38189D02*
D03*
X221161D02*
D03*
X208110Y19094D02*
D03*
X202008D02*
D03*
X57579Y121161D02*
D03*
X63681D02*
D03*
Y108760D02*
D03*
X57579D02*
D03*
Y114961D02*
D03*
X63681D02*
D03*
D27*
X184843Y71063D02*
D03*
Y64961D02*
D03*
X52457Y29248D02*
D03*
Y23146D02*
D03*
X225098Y125197D02*
D03*
Y131299D02*
D03*
X190256D02*
D03*
Y125197D02*
D03*
X41535Y160236D02*
D03*
Y154134D02*
D03*
X35335D02*
D03*
Y160236D02*
D03*
X41535Y172343D02*
D03*
Y166240D02*
D03*
X29134Y160236D02*
D03*
Y154134D02*
D03*
Y166240D02*
D03*
Y172343D02*
D03*
X359882Y202756D02*
D03*
Y208858D02*
D03*
X335039Y136319D02*
D03*
Y130217D02*
D03*
X304527Y51575D02*
D03*
Y57677D02*
D03*
X268996Y59646D02*
D03*
Y53543D02*
D03*
X244587Y64665D02*
D03*
Y70768D02*
D03*
X77165Y159095D02*
D03*
Y152992D02*
D03*
Y144095D02*
D03*
Y137992D02*
D03*
X111713Y110494D02*
D03*
Y116596D02*
D03*
X105512D02*
D03*
Y110494D02*
D03*
X108465Y131791D02*
D03*
Y137894D02*
D03*
X101865D02*
D03*
Y131791D02*
D03*
X70079Y91279D02*
D03*
Y85177D02*
D03*
X16240Y76279D02*
D03*
Y70177D02*
D03*
X7382Y63681D02*
D03*
Y57579D02*
D03*
X25394Y114370D02*
D03*
Y108268D02*
D03*
X19193D02*
D03*
Y114370D02*
D03*
X41535Y126969D02*
D03*
Y133071D02*
D03*
Y139094D02*
D03*
Y145197D02*
D03*
X25984Y132480D02*
D03*
Y138583D02*
D03*
D28*
X38579Y29248D02*
D03*
X46059D02*
D03*
Y19406D02*
D03*
X42319D02*
D03*
X38579D02*
D03*
D29*
X235728Y167717D02*
D03*
X220965D02*
D03*
D30*
X241831Y125197D02*
D03*
Y145050D02*
D03*
D31*
X186839Y167717D02*
D03*
X206693D02*
D03*
X133071Y77658D02*
D03*
X152924D02*
D03*
X151787Y122835D02*
D03*
X131933D02*
D03*
D32*
X207677Y125197D02*
D03*
X216732D02*
D03*
X198622D02*
D03*
D33*
X207677Y148228D02*
D03*
D34*
X92071Y157441D02*
D03*
Y167441D02*
D03*
Y187441D02*
D03*
Y177441D02*
D03*
X119630D02*
D03*
Y187441D02*
D03*
Y167441D02*
D03*
Y157441D02*
D03*
D35*
X250650Y33416D02*
D03*
X262264D02*
D03*
X138189Y33858D02*
D03*
X126575D02*
D03*
X415512Y88976D02*
D03*
X427126D02*
D03*
D36*
X70079Y129095D02*
D03*
Y134095D02*
D03*
Y139094D02*
D03*
Y144095D02*
D03*
Y149094D02*
D03*
Y154095D02*
D03*
Y159095D02*
D03*
X48622Y129095D02*
D03*
Y134095D02*
D03*
Y139094D02*
D03*
Y144095D02*
D03*
Y149094D02*
D03*
Y154095D02*
D03*
Y159095D02*
D03*
X364370Y49902D02*
D03*
Y54902D02*
D03*
Y59902D02*
D03*
Y64902D02*
D03*
Y69902D02*
D03*
Y74902D02*
D03*
Y79902D02*
D03*
Y84902D02*
D03*
X343307Y49902D02*
D03*
Y54902D02*
D03*
Y59902D02*
D03*
Y64902D02*
D03*
Y69902D02*
D03*
Y74902D02*
D03*
Y79902D02*
D03*
Y84902D02*
D03*
X297539Y53524D02*
D03*
Y58524D02*
D03*
Y63524D02*
D03*
Y68524D02*
D03*
X276083Y53524D02*
D03*
Y58524D02*
D03*
Y63524D02*
D03*
Y68524D02*
D03*
D37*
X128465Y151772D02*
D03*
X138465D02*
D03*
X128465Y177362D02*
D03*
X138465D02*
D03*
D38*
X129606Y141976D02*
D03*
X138465Y144535D02*
D03*
Y139417D02*
D03*
D39*
X151787Y106004D02*
D03*
Y94390D02*
D03*
X142402Y106004D02*
D03*
Y94390D02*
D03*
X133071Y106004D02*
D03*
Y94390D02*
D03*
X404331Y76279D02*
D03*
Y64665D02*
D03*
X33773Y138583D02*
D03*
Y126969D02*
D03*
D40*
X343406Y205118D02*
D03*
Y212598D02*
D03*
X353248D02*
D03*
Y208858D02*
D03*
Y205118D02*
D03*
D41*
X399213Y212894D02*
D03*
Y203839D02*
D03*
D42*
X367028Y203858D02*
D03*
Y208858D02*
D03*
Y213858D02*
D03*
X391831Y203858D02*
D03*
Y213858D02*
D03*
D43*
X89995Y129095D02*
D03*
Y143046D02*
D03*
X93539Y102645D02*
D03*
Y116596D02*
D03*
X75787Y102645D02*
D03*
Y116596D02*
D03*
X17028Y154134D02*
D03*
Y168085D02*
D03*
D44*
X119630Y148819D02*
D03*
X110575D02*
D03*
D45*
X77854Y80177D02*
D03*
Y91279D02*
D03*
X14665Y100177D02*
D03*
Y89075D02*
D03*
D46*
X48622Y114370D02*
D03*
X34671D02*
D03*
D85*
X282476Y83563D02*
D03*
X163055Y141015D02*
D03*
X95768Y87988D02*
D03*
X331496Y63381D02*
D03*
X331299Y27747D02*
D03*
X281299Y27751D02*
D03*
X42319Y24700D02*
D03*
X14266Y106820D02*
D03*
X56234Y229528D02*
D03*
X81299D02*
D03*
X175295Y33416D02*
D03*
X116770Y25245D02*
D03*
X147259D02*
D03*
X171260D02*
D03*
X166142Y32874D02*
D03*
X247244Y18602D02*
D03*
X213779D02*
D03*
X222441D02*
D03*
X232677D02*
D03*
X181299D02*
D03*
X208110Y26890D02*
D03*
X120544Y78937D02*
D03*
X108563Y85925D02*
D03*
X120813Y67323D02*
D03*
X109153Y61614D02*
D03*
X111713Y91142D02*
D03*
X123731Y86495D02*
D03*
X111857Y101969D02*
D03*
X157480Y62008D02*
D03*
X354724Y225590D02*
D03*
X207677Y141015D02*
D03*
X207677Y155512D02*
D03*
X212205Y125197D02*
D03*
X203150D02*
D03*
X45965Y163386D02*
D03*
X23425Y157579D02*
D03*
X25984Y146929D02*
D03*
X59744Y163878D02*
D03*
X54284Y159095D02*
D03*
X101992Y150138D02*
D03*
X152657Y158858D02*
D03*
X124114Y148819D02*
D03*
X115354D02*
D03*
X379921Y130020D02*
D03*
X379528Y118504D02*
D03*
X387008Y35630D02*
D03*
X333858Y195177D02*
D03*
X367028Y218307D02*
D03*
X348327Y212598D02*
D03*
X216142Y65748D02*
D03*
X198228Y54823D02*
D03*
X186417Y60039D02*
D03*
X417028Y113327D02*
D03*
X82579Y148819D02*
D03*
X291043Y117815D02*
D03*
X270609Y37025D02*
D03*
X181201Y110395D02*
D03*
X217224Y110236D02*
D03*
X186024Y94390D02*
D03*
X168602Y105413D02*
D03*
X171260Y110925D02*
D03*
X12657Y58760D02*
D03*
X2854Y57579D02*
D03*
X148819Y211417D02*
D03*
X265158Y220374D02*
D03*
X314272Y100000D02*
D03*
X281299Y18775D02*
D03*
X31594Y18500D02*
D03*
X96126Y136024D02*
D03*
X30504Y132480D02*
D03*
X36713Y143405D02*
D03*
X52457Y18602D02*
D03*
X106299D02*
D03*
X156299D02*
D03*
X242323Y88213D02*
D03*
X357425Y130020D02*
D03*
X102819Y204331D02*
D03*
X397480Y142717D02*
D03*
X394685Y152165D02*
D03*
X399803Y176969D02*
D03*
X258425Y81102D02*
D03*
X182283Y229528D02*
D03*
X69784Y43898D02*
D03*
Y49311D02*
D03*
X188878Y48031D02*
D03*
X195079D02*
D03*
X207972Y70177D02*
D03*
X329921Y77067D02*
D03*
X286939Y63189D02*
D03*
X329921Y71358D02*
D03*
X303256Y68524D02*
D03*
X229162Y81088D02*
D03*
X211417Y81102D02*
D03*
X209547Y75886D02*
D03*
X214665Y60335D02*
D03*
X207677D02*
D03*
X207677Y54921D02*
D03*
X213779D02*
D03*
X118148Y108223D02*
D03*
X116770Y128150D02*
D03*
X349311Y78740D02*
D03*
X337992Y40748D02*
D03*
X340453Y46260D02*
D03*
X377756Y56496D02*
D03*
X373524Y52854D02*
D03*
X342480Y32283D02*
D03*
X231890Y67913D02*
D03*
X226673Y67736D02*
D03*
X221457D02*
D03*
X387992Y117028D02*
D03*
X392126Y113189D02*
D03*
X396161Y109350D02*
D03*
X371457Y116339D02*
D03*
X367224Y112795D02*
D03*
X362894Y109350D02*
D03*
X358169Y106299D02*
D03*
X299306Y159939D02*
D03*
X300394Y153248D02*
D03*
X298721Y178248D02*
D03*
X305118Y126772D02*
D03*
Y134941D02*
D03*
X167323Y146161D02*
D03*
X235728Y161417D02*
D03*
X288090Y102854D02*
D03*
X292028Y99410D02*
D03*
X248524Y90748D02*
D03*
X253051Y87106D02*
D03*
X167913Y49213D02*
D03*
X164961Y43996D02*
D03*
X77421Y62402D02*
D03*
X80492Y67323D02*
D03*
X200984Y37343D02*
D03*
X203937Y32874D02*
D03*
X257677Y57677D02*
D03*
X255020Y51968D02*
D03*
X245177Y52264D02*
D03*
X196063Y100492D02*
D03*
X267189Y154355D02*
D03*
X314630Y66166D02*
D03*
X349669Y57111D02*
D03*
X347543Y124433D02*
D03*
X375260Y223744D02*
D03*
X391835Y209079D02*
D03*
X353311Y167764D02*
D03*
X318803Y179551D02*
D03*
X336776Y153591D02*
D03*
X395398Y129158D02*
D03*
X96126Y146481D02*
D03*
X43173Y180756D02*
D03*
X117780Y198055D02*
D03*
X166598Y90575D02*
D03*
X291859Y187721D02*
D03*
X257543Y154355D02*
D03*
X280122Y167740D02*
D03*
X302390Y216977D02*
D03*
X335496Y216953D02*
D03*
X297603Y79667D02*
D03*
X184906Y80399D02*
D03*
X302425Y169315D02*
D03*
X349571Y189394D02*
D03*
X377622Y160654D02*
D03*
X365811Y149573D02*
D03*
X371323Y153567D02*
D03*
X389062Y156780D02*
D03*
X415764Y202670D02*
D03*
X415701Y184276D02*
D03*
X415638Y164491D02*
D03*
X415575Y138410D02*
D03*
X376441Y85851D02*
D03*
X385398Y70496D02*
D03*
X354457Y25020D02*
D03*
X402425Y24899D02*
D03*
X370535Y46481D02*
D03*
X394055Y46382D02*
D03*
X378862Y24875D02*
D03*
X371717Y35457D02*
D03*
X338055Y84925D02*
D03*
X394189Y24899D02*
D03*
X361480Y24875D02*
D03*
X235865Y38213D02*
D03*
X311528Y44709D02*
D03*
X294964Y48252D02*
D03*
X262327Y67667D02*
D03*
X270634Y86662D02*
D03*
X267547Y105456D02*
D03*
X267484Y126008D02*
D03*
X242611Y105433D02*
D03*
X228902Y108795D02*
D03*
X172504Y152386D02*
D03*
X183528Y25245D02*
D03*
X156362Y37891D02*
D03*
X132347Y37867D02*
D03*
X106362Y37843D02*
D03*
X81362Y37819D02*
D03*
X235890Y88213D02*
D03*
X194532D02*
D03*
X235802Y48252D02*
D03*
X140614Y86495D02*
D03*
X86515Y108390D02*
D03*
X69818Y104236D02*
D03*
X41008Y101303D02*
D03*
X41795Y120496D02*
D03*
X52454Y123744D02*
D03*
X63452Y130976D02*
D03*
X85137Y118109D02*
D03*
X103008Y124138D02*
D03*
X102882Y162425D02*
D03*
X102819Y183316D02*
D03*
X84315Y163434D02*
D03*
X70599Y163410D02*
D03*
X53213Y172512D02*
D03*
X70535Y172489D02*
D03*
X81594Y172465D02*
D03*
X62337Y180733D02*
D03*
X62274Y194709D02*
D03*
X434118Y155241D02*
D03*
X156299Y229528D02*
D03*
X131299D02*
D03*
X106299D02*
D03*
X353937Y198622D02*
D03*
X392642Y220571D02*
D03*
X377559Y197047D02*
D03*
X338583Y98917D02*
D03*
X329641Y130217D02*
D03*
X357480Y142913D02*
D03*
X420472Y88976D02*
D03*
X404331Y71260D02*
D03*
X410630Y88976D02*
D03*
X404331Y81496D02*
D03*
X358661Y69902D02*
D03*
X358268Y86614D02*
D03*
X268971Y64173D02*
D03*
X221161Y33416D02*
D03*
X217815Y50787D02*
D03*
X249125Y70866D02*
D03*
X197441Y67913D02*
D03*
X180236Y64961D02*
D03*
X211516Y102362D02*
D03*
X186839Y161811D02*
D03*
X196063Y167717D02*
D03*
X186839Y173819D02*
D03*
X235728Y174016D02*
D03*
X243307Y167717D02*
D03*
X241831Y135827D02*
D03*
X248031Y145050D02*
D03*
X241831Y154331D02*
D03*
X235728Y145050D02*
D03*
X190256Y136221D02*
D03*
X225098D02*
D03*
X198622Y148228D02*
D03*
X216732D02*
D03*
X207677Y132283D02*
D03*
Y118110D02*
D03*
X33760Y166240D02*
D03*
X68245Y115003D02*
D03*
X77165Y133465D02*
D03*
X53891Y144095D02*
D03*
X25984Y127953D02*
D03*
X19193Y118898D02*
D03*
X38579Y34646D02*
D03*
X68504Y56279D02*
D03*
X54724D02*
D03*
X18576Y46359D02*
D03*
X32283Y46279D02*
D03*
Y51279D02*
D03*
Y71279D02*
D03*
X11417Y70177D02*
D03*
X32283Y86279D02*
D03*
X54724Y81279D02*
D03*
Y86279D02*
D03*
X77854Y74008D02*
D03*
X83465Y80177D02*
D03*
X143996Y77658D02*
D03*
X152924Y71791D02*
D03*
X161811Y77658D02*
D03*
X126949Y106004D02*
D03*
X133071Y101156D02*
D03*
X131933Y116929D02*
D03*
X141339Y122835D02*
D03*
X131933Y128937D02*
D03*
X142126Y151772D02*
D03*
X138465Y157441D02*
D03*
X134646Y151772D02*
D03*
X142913Y144488D02*
D03*
X134252Y144535D02*
D03*
X134646Y177362D02*
D03*
X138465Y171653D02*
D03*
X142126Y177362D02*
D03*
X138465Y183071D02*
D03*
X356299Y251686D02*
D03*
X227756Y272663D02*
D03*
X181693Y272946D02*
D03*
X3150Y52449D02*
D03*
Y28654D02*
D03*
Y78654D02*
D03*
X433858Y251181D02*
D03*
X3150D02*
D03*
Y228150D02*
D03*
X434055D02*
D03*
Y203150D02*
D03*
Y178150D02*
D03*
Y128150D02*
D03*
Y103150D02*
D03*
Y78150D02*
D03*
Y53150D02*
D03*
Y28150D02*
D03*
Y3150D02*
D03*
X406299Y278150D02*
D03*
Y251181D02*
D03*
Y228150D02*
D03*
Y3150D02*
D03*
X381299Y278150D02*
D03*
Y251181D02*
D03*
Y3150D02*
D03*
X356299Y278150D02*
D03*
Y3150D02*
D03*
X331299Y278150D02*
D03*
Y251181D02*
D03*
Y3150D02*
D03*
X306299Y278150D02*
D03*
Y251181D02*
D03*
Y3150D02*
D03*
X281299Y278150D02*
D03*
Y251181D02*
D03*
Y3150D02*
D03*
X256299Y278150D02*
D03*
Y251181D02*
D03*
Y3150D02*
D03*
X228150Y251181D02*
D03*
X231299Y3150D02*
D03*
X206299D02*
D03*
X181693Y251181D02*
D03*
X181299Y3150D02*
D03*
X156299Y278150D02*
D03*
Y251181D02*
D03*
Y3150D02*
D03*
X131299Y278150D02*
D03*
Y251181D02*
D03*
Y3150D02*
D03*
X106299Y278150D02*
D03*
Y251181D02*
D03*
Y3150D02*
D03*
X81299Y278150D02*
D03*
Y251181D02*
D03*
Y3150D02*
D03*
X56299Y278150D02*
D03*
Y251181D02*
D03*
Y204331D02*
D03*
Y3150D02*
D03*
X31299Y278150D02*
D03*
Y251181D02*
D03*
X30118Y178150D02*
D03*
X31299Y3150D02*
D03*
X3150Y203150D02*
D03*
Y178150D02*
D03*
Y153150D02*
D03*
Y128150D02*
D03*
Y103150D02*
D03*
Y3150D02*
D03*
X212992Y69494D02*
D03*
X287858Y78569D02*
D03*
X282476Y70368D02*
D03*
X291142Y69289D02*
D03*
X253724Y78569D02*
D03*
X224115D02*
D03*
X229331Y73223D02*
D03*
X267126Y69902D02*
D03*
X262803Y74213D02*
D03*
Y83563D02*
D03*
X202698Y51772D02*
D03*
Y57500D02*
D03*
X218799Y83563D02*
D03*
X92071Y183292D02*
D03*
X85876Y177455D02*
D03*
X117172Y116596D02*
D03*
X387480Y46457D02*
D03*
X381890D02*
D03*
X375984D02*
D03*
X357480D02*
D03*
X297243Y199212D02*
D03*
X326015Y86221D02*
D03*
X116680Y133169D02*
D03*
X33773Y146929D02*
D03*
X323276Y52165D02*
D03*
X70079Y61279D02*
D03*
Y66279D02*
D03*
Y71279D02*
D03*
X190236Y90551D02*
D03*
X85728Y102645D02*
D03*
X50984Y107185D02*
D03*
X191432Y33071D02*
D03*
X195650Y37402D02*
D03*
X187311Y28799D02*
D03*
X336411Y120866D02*
D03*
X313794Y130399D02*
D03*
X325295Y125295D02*
D03*
X377480Y151575D02*
D03*
X372480Y147539D02*
D03*
X367421Y143405D02*
D03*
X382480Y151575D02*
D03*
X387480Y147539D02*
D03*
X392480Y143405D02*
D03*
X401850Y136319D02*
D03*
X202698Y62992D02*
D03*
X180236Y57500D02*
D03*
X180709Y51968D02*
D03*
X181023Y46279D02*
D03*
X202067Y71398D02*
D03*
X283563Y107972D02*
D03*
D90*
X262803Y83563D02*
X282476D01*
X282476Y83563D01*
X319615D01*
X303543Y160335D02*
X342618D01*
X297736Y154528D02*
X303543Y160335D01*
X342618D02*
X348425Y166142D01*
X166535Y111516D02*
Y142566D01*
X157330Y151772D02*
X166535Y142566D01*
X154527Y151772D02*
X157330D01*
X138878Y161417D02*
X148425Y151870D01*
X134646Y161417D02*
X138878D01*
X148425Y151772D02*
Y151870D01*
X128465Y155236D02*
X134646Y161417D01*
X128465Y151772D02*
Y155236D01*
X381890Y220571D02*
X381890Y220571D01*
X392642Y213047D02*
X400547D01*
X394882Y267126D02*
X401279Y260728D01*
Y213779D02*
Y260728D01*
X368898Y267126D02*
X394882D01*
X325590D02*
X351575D01*
X360236Y258465D01*
Y226083D02*
Y258465D01*
X166142Y32874D02*
X169833Y36566D01*
X177018D01*
X208110Y10531D02*
Y19094D01*
Y26890D01*
X256457Y28642D02*
X270236Y14862D01*
X256457Y28642D02*
Y37343D01*
X105512Y61516D02*
Y74705D01*
X108806Y77152D02*
Y78937D01*
X105512Y74705D02*
X107668Y76861D01*
X108514D02*
X108806Y77152D01*
X107668Y76861D02*
X108514D01*
X110774Y75098D02*
Y78937D01*
X109835Y74159D02*
X110774Y75098D01*
X109835Y64575D02*
Y74159D01*
X106837Y87651D02*
Y94488D01*
Y87651D02*
X108563Y85925D01*
X108806Y95610D02*
Y96457D01*
X108514Y95319D02*
X108806Y95610D01*
X107668Y95319D02*
X108514D01*
X106837Y94488D02*
X107668Y95319D01*
X109835Y64575D02*
X112402Y62008D01*
X105512Y61516D02*
X108563Y58465D01*
X112402Y62008D02*
X153642D01*
X108563Y58465D02*
X157874D01*
X153642Y62008D02*
X175295Y83661D01*
X157874Y58465D02*
X176772Y77362D01*
X244882Y83465D02*
Y91240D01*
X249213Y95571D01*
X277165D01*
X247638Y81791D02*
Y85728D01*
X254528Y92618D02*
X281496D01*
X247638Y85728D02*
X254528Y92618D01*
X244821Y74803D02*
X259683Y89665D01*
X285986D01*
X200394Y66634D02*
X210230D01*
X212992Y69396D02*
Y69396D01*
X210230Y66634D02*
X212992Y69396D01*
X174705Y103347D02*
X201181D01*
X207484Y91433D02*
Y97043D01*
X201181Y103347D02*
X207484Y97043D01*
X201969Y97736D02*
X204724Y94980D01*
Y91043D02*
Y94980D01*
X172343Y97736D02*
X201969D01*
X204724Y91043D02*
X205217Y90551D01*
X46059Y13837D02*
Y18500D01*
Y19406D01*
Y18500D02*
X46941Y17618D01*
X49016D01*
X50886Y15748D01*
X54035D01*
X62205Y23917D02*
Y35688D01*
X54035Y15748D02*
X62205Y23917D01*
X46059Y13837D02*
X47657Y12238D01*
Y10614D02*
Y12238D01*
X243799Y77953D02*
X247638Y81791D01*
X242580Y81163D02*
X244882Y83465D01*
X204441Y76957D02*
X208174Y73223D01*
X229331D01*
X192433Y76957D02*
X204441D01*
X175295Y83661D02*
X192027D01*
X287837Y78591D02*
X287858Y78569D01*
X253724D02*
X253746Y78591D01*
X287837D01*
X343307Y79902D02*
X346535D01*
X323276D02*
X343307D01*
X262803Y74213D02*
X286811D01*
X262016D02*
X262803D01*
X140157Y22047D02*
X175098D01*
X197189Y44138D02*
X198035D01*
X198917Y45020D01*
Y45276D01*
X175098Y22047D02*
X197189Y44138D01*
X216358Y53957D02*
X219272D01*
X220965Y52264D01*
Y45276D02*
Y52264D01*
X241339Y60532D02*
X260015D01*
X237303Y61614D02*
X240256D01*
X241339Y60532D01*
X237984Y57784D02*
X240341D01*
X252953Y57783D02*
X262016Y48720D01*
X240341Y57784D02*
X240342Y57783D01*
X237303Y58465D02*
X237984Y57784D01*
X240342Y57783D02*
X252953D01*
X198327Y59784D02*
Y64567D01*
X197008Y58465D02*
X198327Y59784D01*
Y64567D02*
X200394Y66634D01*
X280632Y68524D02*
X282476Y70368D01*
X276083Y68524D02*
X280632D01*
X282297Y70368D02*
X282476D01*
X281634Y63524D02*
X286811Y68701D01*
Y74213D01*
X342618D01*
X343307Y74902D02*
X349409D01*
X342618Y74213D02*
X343307Y74902D01*
X291142Y61713D02*
Y69289D01*
X207399Y80216D02*
X209047Y78569D01*
X224115D01*
X267126Y67643D02*
Y69902D01*
X192323Y80216D02*
X207399D01*
X289764Y48720D02*
X294567Y53524D01*
X297539D01*
X262016Y48720D02*
X289764D01*
X297539Y53524D02*
X298217Y52846D01*
X224114Y45276D02*
Y54036D01*
X202698Y57500D02*
X220650D01*
X224114Y54036D01*
X214173Y51772D02*
X216358Y53957D01*
X202698Y51772D02*
X214173D01*
X346535Y79902D02*
X349409Y82776D01*
Y89665D01*
X192126Y83563D02*
X218799D01*
X192027Y83661D02*
X192126Y83563D01*
X162992Y107087D02*
Y135138D01*
Y107087D02*
X172343Y97736D01*
X277165Y95571D02*
X293602Y112008D01*
Y158169D02*
X299114Y163681D01*
X293602Y112008D02*
Y158169D01*
X281496Y92618D02*
X297736Y108858D01*
Y154528D01*
X299114Y163681D02*
X334350D01*
X301181Y104861D02*
Y150098D01*
X307839Y156757D01*
X384512D01*
X334350Y163681D02*
X340354Y169685D01*
X285986Y89665D02*
X301181Y104861D01*
X177018Y36566D02*
X185827Y45374D01*
X61614Y41279D02*
X61850Y41043D01*
X175787D02*
X181023Y46279D01*
X61850Y41043D02*
X175787D01*
X61614Y46279D02*
X62086Y46752D01*
X175492D02*
X180709Y51968D01*
X62086Y46752D02*
X175492D01*
X61614Y51279D02*
X62106Y51772D01*
X174508D02*
X180236Y57500D01*
X62106Y51772D02*
X174508D01*
X200336Y33071D02*
X205118Y37853D01*
X191432Y33071D02*
X200336D01*
X205118Y37853D02*
Y45177D01*
X187311Y28799D02*
X203602D01*
X207972Y33169D02*
Y44882D01*
X203602Y28799D02*
X207972Y33169D01*
X239862Y49606D02*
X249173D01*
X237303Y52165D02*
X239862Y49606D01*
X249173D02*
X258425Y40354D01*
X237697Y54921D02*
X248130D01*
X258366Y44685D02*
X307480D01*
X248130Y54921D02*
X258366Y44685D01*
X166535Y111516D02*
X174705Y103347D01*
X248524Y45276D02*
X256457Y37343D01*
X230413Y45276D02*
X248524D01*
X138465Y139417D02*
X148327D01*
X353346Y219193D02*
X360236Y226083D01*
X176772Y77362D02*
X192027D01*
X158713Y139417D02*
X162992Y135138D01*
X154429Y139417D02*
X158713D01*
X260015Y60532D02*
X267126Y67643D01*
X32677Y22654D02*
Y33858D01*
X25394Y36279D02*
X25409Y36264D01*
X30271D01*
X32677Y33858D01*
Y22654D02*
X35925Y19406D01*
X38579D01*
Y11535D02*
Y19406D01*
X37657Y10614D02*
X38579Y11535D01*
X61614Y36279D02*
X62205Y35688D01*
X133071Y14961D02*
X140157Y22047D01*
X307480Y44685D02*
X332697Y69902D01*
X343307D01*
X352658Y78150D02*
Y98740D01*
X349409Y74902D02*
X352658Y78150D01*
X297243Y199212D02*
X297244Y199213D01*
X347480Y91594D02*
X349409Y89665D01*
X347480Y91594D02*
Y98917D01*
X319615Y83563D02*
X323276Y79902D01*
X326015Y86221D02*
Y92126D01*
X340188Y106299D01*
X352480Y98917D02*
X352658Y98740D01*
X340188Y106299D02*
X354331D01*
X349508Y219193D02*
X353346D01*
X329528Y199213D02*
X339173Y208858D01*
X297244Y199213D02*
X329528D01*
X385728Y197047D02*
Y206886D01*
X370669Y221945D02*
Y232677D01*
Y221945D02*
X385728Y206886D01*
X391831Y197047D02*
Y203858D01*
X391850Y203839D02*
X399213D01*
X391831Y203858D02*
X391850Y203839D01*
X391831Y213858D02*
X392642Y213047D01*
X400547D02*
X401279Y213779D01*
X353248Y208858D02*
X359882D01*
X367028D01*
X343406Y212598D02*
Y219193D01*
X339173Y208858D02*
X353248D01*
X258425Y40354D02*
X311465D01*
X323276Y52165D01*
X354331Y106299D02*
X357425Y103205D01*
Y98972D02*
X357480Y98917D01*
X357425Y98972D02*
Y103205D01*
X61614Y61279D02*
X70079D01*
X61614Y66279D02*
X70079D01*
X61614Y71279D02*
X70079D01*
X190236Y90551D02*
X194468Y94784D01*
X190236Y90551D02*
Y90551D01*
X194468Y94784D02*
X200197D01*
X283563Y107972D02*
X288386Y112795D01*
Y252658D02*
X295276Y259547D01*
X288386Y112795D02*
Y252658D01*
X295276Y259547D02*
Y259646D01*
X185827Y45374D02*
Y52756D01*
X200197Y94784D02*
X201772Y93209D01*
Y90847D02*
Y93209D01*
Y90847D02*
X202067Y90551D01*
X207484Y91433D02*
X208366Y90551D01*
X291142Y61713D02*
X291142Y61713D01*
X237303Y74213D02*
X237894Y74803D01*
X244821D01*
X197441Y37402D02*
X202067Y42028D01*
X195650Y37402D02*
X197441D01*
X192027Y58465D02*
X197008D01*
X215403Y33416D02*
X215551Y33268D01*
X303256Y52846D02*
X304527Y51575D01*
X298217Y52846D02*
X303256D01*
X291142Y61713D02*
X294331Y58524D01*
X297539D01*
X237303Y55315D02*
X237697Y54921D01*
X202067Y42028D02*
Y45276D01*
X205118Y45177D02*
X205217Y45276D01*
X207972Y44882D02*
X208366Y45276D01*
X192520Y73721D02*
X196949D01*
X199272Y71398D02*
X202067D01*
X196949Y73721D02*
X199272Y71398D01*
X192027Y74213D02*
X192520Y73721D01*
X188386Y55315D02*
X192027D01*
X185827Y52756D02*
X188386Y55315D01*
X192027Y80512D02*
X192323Y80216D01*
X203346Y62992D02*
X220571D01*
X227264Y56299D01*
Y45276D02*
Y56299D01*
X340354Y189370D02*
X348425Y181299D01*
Y166142D02*
Y181299D01*
X384512Y156757D02*
X397441Y169685D01*
X237894Y77953D02*
X243799D01*
X237303Y77362D02*
X237894Y77953D01*
X237303Y80512D02*
X237954Y81163D01*
X242580D01*
X192027Y77362D02*
X192433Y76957D01*
X276083Y63524D02*
X281634D01*
D91*
X114711Y96457D02*
Y107533D01*
X113083Y109161D02*
Y109222D01*
X111811Y110494D02*
X113083Y109222D01*
Y109161D02*
X114711Y107533D01*
X111713Y110494D02*
X111811D01*
X105512D02*
X111811D01*
X111713Y116596D02*
X117172D01*
X304882Y18775D02*
X315595D01*
X319508Y14862D01*
X294882Y8775D02*
X304882Y18775D01*
X262264Y33416D02*
X290241D01*
X294882Y28775D01*
X235739Y33416D02*
X250650D01*
X230541Y28218D02*
X235739Y33416D01*
X116680Y78937D02*
X120544D01*
X114711Y71791D02*
Y78937D01*
X120150Y97961D02*
X121795Y99606D01*
X116680Y96457D02*
Y97871D01*
X116770Y97961D01*
X120150D01*
X221646Y93890D02*
X221949Y94193D01*
X219488Y107382D02*
X221949Y104921D01*
Y94193D02*
Y104921D01*
X224114Y90551D02*
X224795Y91232D01*
X218855Y113189D02*
X224803Y107240D01*
X224795Y93582D02*
X224803Y93590D01*
X224795Y91232D02*
Y93582D01*
X224803Y93590D02*
Y107240D01*
X221646Y91232D02*
Y93890D01*
X52362Y166240D02*
X57579Y161024D01*
X41535Y166240D02*
X52362D01*
X57579Y156398D02*
Y161024D01*
X55442Y154261D02*
X57579Y156398D01*
X48788Y154261D02*
X55442D01*
X328898Y150000D02*
X356791D01*
X362480Y136319D02*
Y144311D01*
X356791Y150000D02*
X362480Y144311D01*
X105890Y201181D02*
X117141Y189930D01*
X30504Y173713D02*
X57972Y201181D01*
X105890D01*
X192027Y45079D02*
Y52165D01*
X157106Y28799D02*
X175748D01*
X192027Y45079D01*
X329921Y40157D02*
Y55709D01*
X340984Y29094D02*
X349409D01*
X329921Y40157D02*
X340984Y29094D01*
X339272Y35630D02*
X362559D01*
X333366Y41535D02*
Y53839D01*
Y41535D02*
X339272Y35630D01*
X343602Y39075D02*
X378799D01*
X336811Y45866D02*
X343602Y39075D01*
X336811Y45866D02*
Y51968D01*
X373386Y64902D02*
X387480Y50807D01*
X364370Y64902D02*
X373386D01*
X387480Y46457D02*
Y50807D01*
X370413Y59902D02*
X381642Y48673D01*
X364370Y59902D02*
X370413D01*
X381642Y46704D02*
Y48673D01*
Y46704D02*
X381890Y46457D01*
X394291Y117323D02*
X408858Y131890D01*
Y139469D01*
X392224Y117323D02*
X394291D01*
X388386Y121358D02*
X392421D01*
X406004Y134941D02*
Y138386D01*
X392421Y121358D02*
X406004Y134941D01*
X387480Y112579D02*
X392224Y117323D01*
X382480Y98917D02*
Y115453D01*
X388386Y121358D01*
X387480Y98917D02*
Y112579D01*
X392480Y98917D02*
Y109705D01*
X411614Y128839D02*
Y140649D01*
X392480Y109705D02*
X411614Y128839D01*
X397480Y98917D02*
Y106732D01*
X429991Y139243D02*
Y149716D01*
X397480Y106732D02*
X429991Y139243D01*
X336411Y120866D02*
X370866D01*
X377480Y114252D01*
Y98917D02*
Y114252D01*
X367126Y116732D02*
X372480Y111378D01*
X333858Y116732D02*
X367126D01*
X372480Y98917D02*
Y111378D01*
X367480Y98917D02*
Y108721D01*
X330768Y113425D02*
X362776D01*
X367480Y108721D01*
X358268Y110138D02*
X362382Y106024D01*
Y99016D02*
Y106024D01*
X328051Y110138D02*
X358268D01*
X239567Y90886D02*
X272244Y123563D01*
X239567Y84342D02*
Y90886D01*
X272244Y123563D02*
Y131693D01*
X171260Y115354D02*
X179232Y107382D01*
X219488D01*
X171260Y115354D02*
Y147244D01*
X409842Y197638D02*
X418858D01*
X404921Y180020D02*
Y192717D01*
X409842Y197638D01*
X418858D02*
X430276Y209055D01*
X411417Y180020D02*
X420925D01*
X405807Y157776D02*
Y174409D01*
X411417Y180020D01*
X420925D02*
X430276Y189370D01*
X114173Y210039D02*
X128386Y195827D01*
X92071Y183292D02*
Y187441D01*
X85876Y177441D02*
X92071D01*
X118216Y187441D02*
X119630D01*
X117141Y188516D02*
X118216Y187441D01*
X117141Y188516D02*
Y189930D01*
X128386Y177441D02*
Y195827D01*
X119630Y177441D02*
X128386D01*
X85876Y176668D02*
Y177441D01*
X85088Y177455D02*
X85876Y176668D01*
X92071Y167441D02*
X119630D01*
X70079Y154095D02*
X76063D01*
X66772D02*
X70079D01*
X77165Y152992D02*
X78189Y151969D01*
X76063Y154095D02*
X77165Y152992D01*
X78189Y151969D02*
X95472D01*
X227264Y90551D02*
X227648Y90936D01*
Y95266D01*
X237303Y83661D02*
X238886D01*
X239567Y84342D01*
X220965Y90551D02*
X221646Y91232D01*
X77165Y177953D02*
X84252Y185039D01*
Y192520D01*
X77165Y159095D02*
Y177953D01*
X108563Y131791D02*
X121795Y118559D01*
Y99606D02*
Y118559D01*
X101865Y131791D02*
X108563D01*
X95472Y151969D02*
X107124Y140317D01*
X63350Y157516D02*
X66772Y154095D01*
X63350Y157516D02*
Y174768D01*
X210835Y31046D02*
X213662Y28218D01*
X230541D01*
X210835Y31046D02*
Y44594D01*
X79532Y8775D02*
X108160D01*
X73347Y14961D02*
X79532Y8775D01*
X108160D02*
X118160Y18775D01*
X113244Y33858D02*
X126575D01*
X108160Y28775D02*
X113244Y33858D01*
X138189D02*
X152047D01*
X157106Y28799D01*
X231378Y187066D02*
Y210039D01*
X367539Y54902D02*
X375984Y46457D01*
X364370Y54902D02*
X367539D01*
X357480Y46457D02*
X360925Y49902D01*
X364370D01*
X339114Y64902D02*
X343307D01*
X329921Y55709D02*
X339114Y64902D01*
X339429Y59902D02*
X343307D01*
X333366Y53839D02*
X339429Y59902D01*
X336811Y51968D02*
X339539Y54696D01*
X343102D01*
X343307Y54902D01*
X362559Y35630D02*
X369094Y29094D01*
X378799Y39075D02*
X388779Y29094D01*
X395039Y42520D02*
X408464Y29094D01*
X343307Y45079D02*
X345866Y42520D01*
X395039D01*
X343307Y45079D02*
Y49902D01*
X107124Y139165D02*
Y140317D01*
X108396Y137894D02*
X108465D01*
X107124Y139165D02*
X108396Y137894D01*
X108465D02*
X109620Y136739D01*
X113110D02*
X116680Y133169D01*
X109620Y136739D02*
X113110D01*
X159252Y182913D02*
Y188583D01*
Y182913D02*
X164803Y177362D01*
X29134Y172343D02*
X29232D01*
X30504Y173614D01*
Y173713D01*
X74567Y195827D02*
X80945D01*
X84252Y192520D01*
X67323Y188583D02*
X74567Y195827D01*
X77165Y188583D02*
Y188583D01*
X63350Y174768D02*
X77165Y188583D01*
X70079Y159095D02*
X77165D01*
X33773Y138583D02*
Y146929D01*
X57480Y188583D02*
X67323D01*
X41535Y172343D02*
X41634D01*
X42906Y173614D01*
Y174008D01*
X57480Y188583D01*
X313794Y130399D02*
X330768Y113425D01*
X308898Y129291D02*
X328051Y110138D01*
X325295Y125295D02*
X333858Y116732D01*
X227648Y95266D02*
X252689Y120307D01*
Y165755D01*
X159252Y159252D02*
Y169488D01*
Y159252D02*
X171260Y147244D01*
X176575Y118550D02*
Y173819D01*
X164803Y177362D02*
X173032D01*
X176575Y173819D01*
X181936Y113189D02*
X218855D01*
X176575Y118550D02*
X181936Y113189D01*
X272244Y131693D02*
X280512Y139961D01*
X231378Y187066D02*
X252689Y165755D01*
X263558Y121767D02*
Y170374D01*
X250984Y182948D02*
Y188583D01*
Y182948D02*
X263558Y170374D01*
X230413Y90551D02*
X230580Y90717D01*
X232509D01*
X263558Y121767D01*
X85728Y102645D02*
X93539D01*
X48622Y109547D02*
X50984Y107185D01*
X48622Y109547D02*
Y114370D01*
X93539Y116596D02*
X105512D01*
X89995Y143046D02*
X96713D01*
X101178Y138581D01*
Y138482D02*
Y138581D01*
Y138482D02*
X101767Y137894D01*
X101865D01*
X70079Y129095D02*
X89995D01*
X68245Y108760D02*
X71838Y112353D01*
X73137D01*
X63681Y108760D02*
X68245D01*
X75787Y115003D02*
Y116596D01*
X73137Y112353D02*
X75787Y115003D01*
X7382Y63681D02*
X15157D01*
X18983Y56279D02*
X25394D01*
X18398Y55694D02*
X18983Y56279D01*
X18398Y55504D02*
Y55694D01*
X16732Y53838D02*
X18398Y55504D01*
X15157Y53838D02*
X16732D01*
X18983Y61279D02*
X25394D01*
X18398Y61865D02*
X18983Y61279D01*
X18398Y61865D02*
Y62016D01*
X16732Y63681D02*
X18398Y62016D01*
X15157Y63681D02*
X16732D01*
X25295Y172343D02*
X29134D01*
X17028Y168085D02*
X17081Y168139D01*
X21091D02*
X25295Y172343D01*
X17081Y168139D02*
X21091D01*
X61614Y101279D02*
X74422D01*
X75787Y102645D01*
X57579Y121161D02*
Y130039D01*
X69755Y138771D02*
X70079Y139094D01*
X66310Y138771D02*
X69755D01*
X57579Y130039D02*
X66310Y138771D01*
X70079Y129095D02*
Y134095D01*
X57579Y114961D02*
Y121161D01*
Y108760D02*
Y114961D01*
X25394Y96279D02*
Y101279D01*
Y108268D01*
X19193D02*
X25394D01*
Y114370D02*
X34671D01*
X48622Y114370D02*
Y129095D01*
X48622Y114370D02*
X48622Y114370D01*
Y129095D02*
Y134095D01*
X41535Y139094D02*
X48622D01*
X41535Y133071D02*
Y139094D01*
X33773Y126969D02*
X41535D01*
X25984Y138583D02*
X33773D01*
X48622Y154095D02*
X48788Y154261D01*
X41535Y154134D02*
X41575Y154095D01*
X48622D01*
X35335Y154134D02*
X41535D01*
X42677Y159095D02*
X48622D01*
X41535Y160236D02*
X42677Y159095D01*
X35335Y160236D02*
X41535D01*
X29134Y160236D02*
X35335D01*
X35335Y160236D01*
X17028Y154134D02*
X29134D01*
X29134Y154134D01*
X308898Y129291D02*
Y150000D01*
X377480Y136319D02*
Y151575D01*
X372480Y136319D02*
Y147539D01*
X367421Y143405D02*
X367480Y143347D01*
Y136319D02*
Y143347D01*
X429991Y149716D02*
X430276Y150000D01*
X362382Y99016D02*
X362480Y98917D01*
X403051Y178150D02*
X404921Y180020D01*
X382480Y136319D02*
Y151575D01*
X387480Y136319D02*
Y147539D01*
X392480Y136319D02*
Y143405D01*
X397480Y136319D02*
X401850D01*
X397480Y136319D02*
X397480Y136319D01*
X398819Y145571D02*
X406004Y138386D01*
X401575Y146752D02*
X408858Y139469D01*
X404331Y147932D02*
X411614Y140649D01*
X398819Y154823D02*
X403051Y159055D01*
Y178150D01*
X398819Y145571D02*
Y154823D01*
X401575Y146752D02*
Y153543D01*
X405807Y157776D01*
X404331Y147932D02*
Y152362D01*
X412008Y160039D02*
X420630D01*
X404331Y152362D02*
X412008Y160039D01*
X420630D02*
X430276Y169685D01*
X210835Y44594D02*
X211516Y45276D01*
D92*
X381890Y232480D02*
X382725D01*
X385875Y235630D01*
X393110D01*
X381890Y220571D02*
Y232480D01*
X198110Y10531D02*
X202008Y14429D01*
Y19094D01*
Y25098D01*
X114711Y66279D02*
Y71791D01*
X327362Y220571D02*
Y235630D01*
X314961Y220571D02*
X321260D01*
X217323Y97736D02*
X217815Y97244D01*
X217323Y97736D02*
X217618Y98032D01*
X48622Y149094D02*
X55020D01*
X44370D02*
X48622D01*
X63386Y126083D02*
Y126476D01*
Y126083D02*
X63389Y126080D01*
Y121454D02*
Y126080D01*
X151787Y94390D02*
X151787Y94390D01*
X159055D01*
X63389Y121454D02*
X63681Y121161D01*
X27657Y10614D02*
Y25591D01*
X46059Y29248D02*
X52457D01*
X58071D01*
X364370Y84902D02*
Y91142D01*
X370079D01*
X367028Y197047D02*
Y203858D01*
X366967Y196987D02*
X367028Y197047D01*
X366967Y191142D02*
Y196987D01*
X359822Y202696D02*
X359882Y202756D01*
X359822Y197047D02*
Y202696D01*
X343406Y198622D02*
Y205118D01*
X343406Y198622D02*
X343406Y198622D01*
X343406Y198622D02*
X343406Y198622D01*
X337932Y198622D02*
X343406D01*
X42205Y145768D02*
Y146929D01*
X44370Y149094D01*
X41535Y145197D02*
X41634D01*
X42205Y145768D01*
X16823Y91279D02*
X25394D01*
X14665Y89122D02*
X16823Y91279D01*
X14665Y89075D02*
Y89122D01*
X179429Y71063D02*
X184843D01*
X192027D01*
X217618Y98032D02*
Y103150D01*
X25394Y66279D02*
X34291D01*
X36713Y68701D02*
Y76279D01*
X34291Y66279D02*
X36713Y68701D01*
X25394Y76279D02*
X36713D01*
X61614D01*
X17520Y41279D02*
X25394D01*
X70079Y79882D02*
Y85177D01*
X16240Y76279D02*
X16240Y76279D01*
X10827Y76279D02*
X16240D01*
X256799Y64862D02*
X256799Y64862D01*
X256799Y64862D02*
Y70177D01*
X335039Y136319D02*
X342480D01*
X342480Y136319D01*
X329641Y136319D02*
X335039D01*
X297539Y63524D02*
X304523D01*
Y57681D02*
Y63524D01*
X269016Y53524D02*
X276083D01*
X268996Y53543D02*
X269016Y53524D01*
X268971Y53519D02*
X268996Y53543D01*
X263533Y53519D02*
X268971D01*
X263533D02*
X263558Y53543D01*
X276083Y58524D02*
X282476D01*
X244587Y64665D02*
X250492D01*
X250689Y64862D01*
X237303Y64764D02*
X244488D01*
X244587Y64665D01*
X217815Y90551D02*
Y97244D01*
X16240Y76279D02*
X25394D01*
D93*
X206693Y167717D02*
Y176378D01*
Y167717D02*
X220965D01*
X225098Y125197D02*
X225098Y125197D01*
X225098D02*
X225098Y125197D01*
D94*
X352359Y126775D02*
X389366D01*
X347480Y131654D02*
X352359Y126775D01*
X407126Y109016D02*
X417126Y99016D01*
X347480Y131654D02*
Y136319D01*
X70079Y91279D02*
X77854D01*
X61614D02*
X70079D01*
X427126Y88976D02*
Y109016D01*
D95*
X214665Y38189D02*
Y45276D01*
X133071Y87599D02*
Y94390D01*
X133071Y77658D02*
Y87598D01*
X133071Y87599D02*
X133071Y87598D01*
X133071Y94390D02*
X142402D01*
X151787Y106004D02*
Y122835D01*
X142402Y106004D02*
X151787D01*
X215403Y33416D02*
Y37845D01*
X215059Y38189D02*
X215403Y37845D01*
D96*
X116830Y139417D02*
X122062D01*
X124621Y141976D01*
X129606D01*
X110575Y145672D02*
X116830Y139417D01*
X110575Y145672D02*
Y148819D01*
X104809Y157441D02*
X110575Y151676D01*
X92071Y157441D02*
X104809D01*
X110575Y148819D02*
Y151676D01*
X119630Y148819D02*
Y157441D01*
X119630Y148819D02*
X119630Y148819D01*
X119630Y144488D02*
Y148819D01*
D97*
X183858Y125197D02*
X190256D01*
X198622D01*
X232283Y125197D02*
X241831D01*
X232283Y125197D02*
X232283Y125197D01*
X225098Y125197D02*
X232283D01*
X216732D02*
X225098D01*
D98*
X375335Y69902D02*
X381358Y63878D01*
X403543D01*
X404331Y64665D01*
X385335Y79902D02*
X395335Y69902D01*
X364370Y79902D02*
X385335D01*
D99*
X63681Y149094D02*
X70079D01*
X77165Y144095D02*
X82579D01*
X70079Y144095D02*
X77165D01*
X77165Y144095D01*
D100*
X304523Y57681D02*
X304527Y57677D01*
D101*
X308898Y150000D02*
D03*
X318898D02*
D03*
X328898D02*
D03*
X308898Y169685D02*
D03*
X318898D02*
D03*
X328898D02*
D03*
X308740Y189370D02*
D03*
X318740D02*
D03*
X328740D02*
D03*
X308898Y209055D02*
D03*
X318898D02*
D03*
X328898D02*
D03*
X430276Y209055D02*
D03*
X420276D02*
D03*
X410276D02*
D03*
X408464Y29094D02*
D03*
Y19094D02*
D03*
Y9094D02*
D03*
X430276Y189370D02*
D03*
X420276D02*
D03*
X410276D02*
D03*
X388779Y29094D02*
D03*
Y19094D02*
D03*
Y9094D02*
D03*
X430276Y169685D02*
D03*
X420276D02*
D03*
X410276D02*
D03*
X369094Y29094D02*
D03*
Y19094D02*
D03*
Y9094D02*
D03*
X430276Y150000D02*
D03*
X420276D02*
D03*
X410276D02*
D03*
X349409Y29094D02*
D03*
Y19094D02*
D03*
Y9094D02*
D03*
D102*
X57480Y188583D02*
D03*
X67323D02*
D03*
X77165D02*
D03*
X169095Y169488D02*
D03*
X159252D02*
D03*
X149409D02*
D03*
X280512Y130118D02*
D03*
Y139961D02*
D03*
Y149803D02*
D03*
X149409Y188583D02*
D03*
X159252D02*
D03*
X169095D02*
D03*
X241142D02*
D03*
X250984D02*
D03*
X260827D02*
D03*
D103*
X176772Y10531D02*
D03*
X166772D02*
D03*
X47657Y10614D02*
D03*
X37657D02*
D03*
X17658D02*
D03*
X27657D02*
D03*
X208110Y10531D02*
D03*
X218110D02*
D03*
X238110D02*
D03*
X228110D02*
D03*
X198110D02*
D03*
X188110D02*
D03*
D104*
X329508Y14862D02*
D03*
X319508D02*
D03*
X270236D02*
D03*
X260236D02*
D03*
X143071Y14961D02*
D03*
X133071D02*
D03*
X209842Y193307D02*
D03*
X199843D02*
D03*
X83346Y14961D02*
D03*
X73347D02*
D03*
D105*
X294882Y28775D02*
D03*
X108160Y28775D02*
D03*
D106*
X304882Y18775D02*
D03*
X294882Y8775D02*
D03*
X417126Y99016D02*
D03*
X407126Y109016D02*
D03*
X385335Y79902D02*
D03*
X395335Y69902D02*
D03*
X118160Y18775D02*
D03*
X108160Y8775D02*
D03*
D107*
X427126Y109016D02*
D03*
X375335Y69902D02*
D03*
D108*
X178071Y210039D02*
D03*
X114173D02*
D03*
X178071Y260039D02*
D03*
X114173D02*
D03*
X178071Y235039D02*
D03*
X114173D02*
D03*
X94941Y210039D02*
D03*
X31043D02*
D03*
X94941Y260039D02*
D03*
X31043D02*
D03*
X94941Y235039D02*
D03*
X31043D02*
D03*
X295276Y210039D02*
D03*
X231378D02*
D03*
X295276Y260039D02*
D03*
X231378D02*
D03*
X295276Y235039D02*
D03*
X231378D02*
D03*
D109*
X338583Y232480D02*
D03*
X327362Y235630D02*
D03*
X349803D02*
D03*
X393110D02*
D03*
X370669D02*
D03*
X381890Y232480D02*
D03*
D110*
X325590Y267126D02*
D03*
X351575D02*
D03*
X394882D02*
D03*
X368898D02*
D03*
D111*
X338583Y273031D02*
D03*
Y245472D02*
D03*
X381890D02*
D03*
Y273031D02*
D03*
D112*
X397441Y189370D02*
D03*
Y169685D02*
D03*
X340354Y179527D02*
D03*
Y189370D02*
D03*
Y169685D02*
D03*
D113*
X202008Y24705D02*
D03*
X114711Y66279D02*
D03*
X389366Y126775D02*
D03*
X119630Y144488D02*
D03*
X159055Y94390D02*
D03*
X58071Y29248D02*
D03*
X27657Y25591D02*
D03*
X370079Y91142D02*
D03*
X314961Y220571D02*
D03*
X366967Y191142D02*
D03*
X359822Y197047D02*
D03*
X337932Y198622D02*
D03*
X179429Y71063D02*
D03*
X217618Y103150D02*
D03*
X55020Y149094D02*
D03*
X63681D02*
D03*
X63386Y126083D02*
D03*
X133071Y87599D02*
D03*
X82579Y144095D02*
D03*
X151787Y114173D02*
D03*
X17520Y41279D02*
D03*
X70079Y79882D02*
D03*
X10827Y76279D02*
D03*
X329641Y136319D02*
D03*
X215551Y33268D02*
D03*
X304523Y63524D02*
D03*
X256799Y70177D02*
D03*
X282476Y58524D02*
D03*
X263533Y53519D02*
D03*
D114*
X206693Y176378D02*
D03*
X183858Y125197D02*
D03*
X232283Y125197D02*
D03*
M02*
