G04*
G04 #@! TF.GenerationSoftware,Altium Limited,Altium Designer,20.1.11 (218)*
G04*
G04 Layer_Color=16711935*
%FSLAX25Y25*%
%MOIN*%
G70*
G04*
G04 #@! TF.SameCoordinates,FE814F26-7F82-419D-9895-0DDABB92EEBD*
G04*
G04*
G04 #@! TF.FilePolarity,Negative*
G04*
G01*
G75*
%ADD75C,0.06102*%
%ADD76C,0.07284*%
%ADD77C,0.07191*%
%ADD78C,0.06591*%
%ADD79R,0.05315X0.05315*%
%ADD80C,0.05315*%
%ADD81R,0.05315X0.05315*%
%ADD82C,0.08859*%
%ADD83C,0.09587*%
%ADD84C,0.10114*%
%ADD85C,0.02756*%
%ADD86C,0.08071*%
%ADD87C,0.03347*%
%ADD88C,0.04134*%
%ADD89C,0.06496*%
D75*
X308898Y150000D02*
D03*
X318898D02*
D03*
X328898D02*
D03*
X308898Y169685D02*
D03*
X318898D02*
D03*
X328898D02*
D03*
X308740Y189370D02*
D03*
X318740D02*
D03*
X328740D02*
D03*
X308898Y209055D02*
D03*
X318898D02*
D03*
X328898D02*
D03*
X430276Y209055D02*
D03*
X420276D02*
D03*
X410276D02*
D03*
X408464Y29094D02*
D03*
Y19094D02*
D03*
Y9094D02*
D03*
X430276Y189370D02*
D03*
X420276D02*
D03*
X410276D02*
D03*
X388779Y29094D02*
D03*
Y19094D02*
D03*
Y9094D02*
D03*
X430276Y169685D02*
D03*
X420276D02*
D03*
X410276D02*
D03*
X369094Y29094D02*
D03*
Y19094D02*
D03*
Y9094D02*
D03*
X430276Y150000D02*
D03*
X420276D02*
D03*
X410276D02*
D03*
X349409Y29094D02*
D03*
Y19094D02*
D03*
Y9094D02*
D03*
D76*
X57480Y188583D02*
D03*
X67323D02*
D03*
X77165D02*
D03*
X169095Y169488D02*
D03*
X159252D02*
D03*
X149409D02*
D03*
X280512Y130118D02*
D03*
Y139961D02*
D03*
Y149803D02*
D03*
X149409Y188583D02*
D03*
X159252D02*
D03*
X169095D02*
D03*
X241142D02*
D03*
X250984D02*
D03*
X260827D02*
D03*
D77*
X176772Y10531D02*
D03*
X166772D02*
D03*
X47657Y10614D02*
D03*
X37657D02*
D03*
X17658D02*
D03*
X27657D02*
D03*
X208110Y10531D02*
D03*
X218110D02*
D03*
X238110D02*
D03*
X228110D02*
D03*
X198110D02*
D03*
X188110D02*
D03*
D78*
X329508Y14862D02*
D03*
X319508D02*
D03*
X270236D02*
D03*
X260236D02*
D03*
X143071Y14961D02*
D03*
X133071D02*
D03*
X209842Y193307D02*
D03*
X199843D02*
D03*
X83346Y14961D02*
D03*
X73347D02*
D03*
D79*
X294882Y28775D02*
D03*
X108160Y28775D02*
D03*
D80*
X304882Y18775D02*
D03*
X294882Y8775D02*
D03*
X417126Y99016D02*
D03*
X407126Y109016D02*
D03*
X385335Y79902D02*
D03*
X395335Y69902D02*
D03*
X118160Y18775D02*
D03*
X108160Y8775D02*
D03*
D81*
X427126Y109016D02*
D03*
X375335Y69902D02*
D03*
D82*
X178071Y210039D02*
D03*
X114173D02*
D03*
X178071Y260039D02*
D03*
X114173D02*
D03*
X178071Y235039D02*
D03*
X114173D02*
D03*
X94941Y210039D02*
D03*
X31043D02*
D03*
X94941Y260039D02*
D03*
X31043D02*
D03*
X94941Y235039D02*
D03*
X31043D02*
D03*
X295276Y210039D02*
D03*
X231378D02*
D03*
X295276Y260039D02*
D03*
X231378D02*
D03*
X295276Y235039D02*
D03*
X231378D02*
D03*
D83*
X338583Y232480D02*
D03*
X327362Y235630D02*
D03*
X349803D02*
D03*
X393110D02*
D03*
X370669D02*
D03*
X381890Y232480D02*
D03*
D84*
X325590Y267126D02*
D03*
X351575D02*
D03*
X394882D02*
D03*
X368898D02*
D03*
D85*
X338583Y273031D02*
D03*
Y245472D02*
D03*
X381890D02*
D03*
Y273031D02*
D03*
D86*
X397441Y189370D02*
D03*
Y169685D02*
D03*
X340354Y179527D02*
D03*
Y189370D02*
D03*
Y169685D02*
D03*
D87*
X282476Y83563D02*
D03*
X166142Y32874D02*
D03*
X208110Y26890D02*
D03*
X120544Y78937D02*
D03*
X108563Y85925D02*
D03*
X212992Y69494D02*
D03*
X287858Y78569D02*
D03*
X282476Y70368D02*
D03*
X291142Y69289D02*
D03*
X253724Y78569D02*
D03*
X224115D02*
D03*
X229331Y73223D02*
D03*
X267126Y69902D02*
D03*
X262803Y74213D02*
D03*
Y83563D02*
D03*
X202698Y51772D02*
D03*
Y57500D02*
D03*
X218799Y83563D02*
D03*
X92071Y183292D02*
D03*
X85876Y177455D02*
D03*
X117172Y116596D02*
D03*
X387480Y46457D02*
D03*
X381890D02*
D03*
X375984D02*
D03*
X357480D02*
D03*
X297243Y199212D02*
D03*
X326015Y86221D02*
D03*
X116680Y133169D02*
D03*
X33773Y146929D02*
D03*
X323276Y52165D02*
D03*
X70079Y61279D02*
D03*
Y66279D02*
D03*
Y71279D02*
D03*
X190236Y90551D02*
D03*
X85728Y102645D02*
D03*
X50984Y107185D02*
D03*
X191432Y33071D02*
D03*
X195650Y37402D02*
D03*
X187311Y28799D02*
D03*
X336411Y120866D02*
D03*
X313794Y130399D02*
D03*
X325295Y125295D02*
D03*
X377480Y151575D02*
D03*
X372480Y147539D02*
D03*
X367421Y143405D02*
D03*
X382480Y151575D02*
D03*
X387480Y147539D02*
D03*
X392480Y143405D02*
D03*
X401850Y136319D02*
D03*
X202698Y62992D02*
D03*
X180236Y57500D02*
D03*
X180709Y51968D02*
D03*
X181023Y46279D02*
D03*
X202067Y71398D02*
D03*
X283563Y107972D02*
D03*
D88*
X202008Y24705D02*
D03*
X114711Y66279D02*
D03*
X389366Y126775D02*
D03*
X119630Y144488D02*
D03*
X159055Y94390D02*
D03*
X58071Y29248D02*
D03*
X27657Y25591D02*
D03*
X370079Y91142D02*
D03*
X314961Y220571D02*
D03*
X366967Y191142D02*
D03*
X359822Y197047D02*
D03*
X337932Y198622D02*
D03*
X179429Y71063D02*
D03*
X217618Y103150D02*
D03*
X55020Y149094D02*
D03*
X63681D02*
D03*
X63386Y126083D02*
D03*
X133071Y87599D02*
D03*
X82579Y144095D02*
D03*
X151787Y114173D02*
D03*
X17520Y41279D02*
D03*
X70079Y79882D02*
D03*
X10827Y76279D02*
D03*
X329641Y136319D02*
D03*
X215551Y33268D02*
D03*
X304523Y63524D02*
D03*
X256799Y70177D02*
D03*
X282476Y58524D02*
D03*
X263533Y53519D02*
D03*
D89*
X206693Y176378D02*
D03*
X183858Y125197D02*
D03*
X232283Y125197D02*
D03*
M02*
