G04*
G04 #@! TF.GenerationSoftware,Altium Limited,Altium Designer,20.1.11 (218)*
G04*
G04 Layer_Physical_Order=3*
G04 Layer_Color=16440176*
%FSLAX25Y25*%
%MOIN*%
G70*
G04*
G04 #@! TF.SameCoordinates,FE814F26-7F82-419D-9895-0DDABB92EEBD*
G04*
G04*
G04 #@! TF.FilePolarity,Positive*
G04*
G01*
G75*
%ADD85C,0.02756*%
%ADD101C,0.05512*%
%ADD102C,0.06693*%
%ADD103C,0.06600*%
%ADD104C,0.06000*%
%ADD108C,0.08268*%
%ADD113C,0.03543*%
%ADD114C,0.05906*%
G36*
X401003Y218278D02*
X401081Y217887D01*
X401302Y217557D01*
X401633Y217336D01*
X402023Y217258D01*
X424866Y217258D01*
X424866Y112378D01*
X423764D01*
Y105654D01*
X424866D01*
X424866Y14460D01*
X340581Y14460D01*
X340581Y20866D01*
X340556Y20995D01*
Y21949D01*
X306004Y21949D01*
X305760Y22050D01*
X304882Y22166D01*
X304004Y22050D01*
X303759Y21949D01*
X119282Y21949D01*
X119038Y22050D01*
X118160Y22166D01*
X117282Y22050D01*
X117038Y21949D01*
X7024Y21949D01*
X7024Y225984D01*
X184922Y225984D01*
X185039Y225961D01*
X224375D01*
X224685Y226023D01*
X224948Y226198D01*
X225124Y226461D01*
X225186Y226772D01*
Y247012D01*
X335131Y247012D01*
X335409Y246596D01*
X335307Y246350D01*
X335191Y245472D01*
X335307Y244595D01*
X335646Y243777D01*
X336185Y243074D01*
X336887Y242536D01*
X337705Y242197D01*
X338583Y242081D01*
X339460Y242197D01*
X340278Y242536D01*
X340981Y243074D01*
X341519Y243777D01*
X341858Y244595D01*
X341974Y245472D01*
X341858Y246350D01*
X341756Y246596D01*
X342034Y247012D01*
X378438Y247012D01*
X378716Y246596D01*
X378614Y246350D01*
X378499Y245472D01*
X378614Y244595D01*
X378953Y243777D01*
X379492Y243074D01*
X380194Y242536D01*
X381012Y242197D01*
X381890Y242081D01*
X382768Y242197D01*
X383585Y242536D01*
X384288Y243074D01*
X384827Y243777D01*
X385165Y244595D01*
X385281Y245472D01*
X385165Y246350D01*
X385064Y246596D01*
X385341Y247012D01*
X401003D01*
X401003Y218278D01*
D02*
G37*
G36*
X412575Y254331D02*
X412637Y254020D01*
X412813Y253757D01*
X413075Y253582D01*
X413386Y253520D01*
X436197D01*
X436197Y811D01*
X811D01*
X811Y253520D01*
X23622D01*
X23932Y253582D01*
X24195Y253757D01*
X24371Y254020D01*
X24433Y254331D01*
Y281079D01*
X168095D01*
Y275984D01*
X168156Y275677D01*
X168330Y275417D01*
X168590Y275243D01*
X168898Y275182D01*
X184229D01*
Y227067D01*
X6004Y227067D01*
X6004Y20866D01*
X114966Y20866D01*
X115180Y20366D01*
X114884Y19652D01*
X114769Y18775D01*
X114884Y17897D01*
X115223Y17079D01*
X115762Y16377D01*
X116464Y15838D01*
X117282Y15499D01*
X118160Y15384D01*
X119038Y15499D01*
X119855Y15838D01*
X120558Y16377D01*
X121097Y17079D01*
X121435Y17897D01*
X121551Y18775D01*
X121435Y19652D01*
X121140Y20366D01*
X121354Y20866D01*
X301688Y20866D01*
X301902Y20366D01*
X301606Y19652D01*
X301491Y18775D01*
X301606Y17897D01*
X301945Y17079D01*
X302484Y16377D01*
X303186Y15838D01*
X304004Y15499D01*
X304882Y15384D01*
X305760Y15499D01*
X306577Y15838D01*
X307280Y16377D01*
X307819Y17079D01*
X308157Y17897D01*
X308273Y18775D01*
X308157Y19652D01*
X307862Y20366D01*
X308076Y20866D01*
X339562Y20866D01*
X339562Y13440D01*
X425886Y13440D01*
X425886Y105654D01*
X430488D01*
Y112378D01*
X425886D01*
X425886Y218278D01*
X402023Y218278D01*
X402023Y248031D01*
X384078D01*
X383585Y248409D01*
X382768Y248748D01*
X381890Y248864D01*
X381012Y248748D01*
X380194Y248409D01*
X379702Y248031D01*
X340771Y248031D01*
X340278Y248409D01*
X339460Y248748D01*
X338583Y248864D01*
X337705Y248748D01*
X336887Y248409D01*
X336395Y248031D01*
X225186Y248031D01*
Y275182D01*
X240945D01*
X241252Y275243D01*
X241512Y275417D01*
X241687Y275677D01*
X241748Y275984D01*
Y281079D01*
X412575D01*
Y254331D01*
D02*
G37*
%LPC*%
G36*
X231878Y240152D02*
Y235539D01*
X236490D01*
X236379Y236380D01*
X235862Y237629D01*
X235039Y238701D01*
X233967Y239524D01*
X232718Y240041D01*
X231878Y240152D01*
D02*
G37*
G36*
X230878Y240152D02*
X230037Y240041D01*
X228788Y239524D01*
X227716Y238701D01*
X226893Y237629D01*
X226376Y236380D01*
X226265Y235539D01*
X230878D01*
Y240152D01*
D02*
G37*
G36*
X393110Y241175D02*
X391675Y240986D01*
X390337Y240432D01*
X389189Y239551D01*
X388308Y238403D01*
X387754Y237065D01*
X387565Y235630D01*
X387754Y234195D01*
X388308Y232857D01*
X389189Y231709D01*
X390337Y230827D01*
X391675Y230273D01*
X393110Y230084D01*
X394546Y230273D01*
X395883Y230827D01*
X397031Y231709D01*
X397913Y232857D01*
X398467Y234195D01*
X398656Y235630D01*
X398467Y237065D01*
X397913Y238403D01*
X397031Y239551D01*
X395883Y240432D01*
X394546Y240986D01*
X393110Y241175D01*
D02*
G37*
G36*
X370669D02*
X369234Y240986D01*
X367897Y240432D01*
X366748Y239551D01*
X365867Y238403D01*
X365313Y237065D01*
X365124Y235630D01*
X365313Y234195D01*
X365867Y232857D01*
X366748Y231709D01*
X367897Y230827D01*
X369234Y230273D01*
X370669Y230084D01*
X372105Y230273D01*
X373442Y230827D01*
X374590Y231709D01*
X375472Y232857D01*
X376026Y234195D01*
X376215Y235630D01*
X376026Y237065D01*
X375472Y238403D01*
X374590Y239551D01*
X373442Y240432D01*
X372105Y240986D01*
X370669Y241175D01*
D02*
G37*
G36*
X349803D02*
X348368Y240986D01*
X347030Y240432D01*
X345882Y239551D01*
X345001Y238403D01*
X344447Y237065D01*
X344258Y235630D01*
X344447Y234195D01*
X345001Y232857D01*
X345882Y231709D01*
X347030Y230827D01*
X348368Y230273D01*
X349803Y230084D01*
X351238Y230273D01*
X352576Y230827D01*
X353724Y231709D01*
X354606Y232857D01*
X355160Y234195D01*
X355349Y235630D01*
X355160Y237065D01*
X354606Y238403D01*
X353724Y239551D01*
X352576Y240432D01*
X351238Y240986D01*
X349803Y241175D01*
D02*
G37*
G36*
X327362D02*
X325927Y240986D01*
X324589Y240432D01*
X323441Y239551D01*
X322560Y238403D01*
X322006Y237065D01*
X321817Y235630D01*
X322006Y234195D01*
X322560Y232857D01*
X323441Y231709D01*
X324589Y230827D01*
X325927Y230273D01*
X327362Y230084D01*
X328798Y230273D01*
X330135Y230827D01*
X331283Y231709D01*
X332165Y232857D01*
X332719Y234195D01*
X332908Y235630D01*
X332719Y237065D01*
X332165Y238403D01*
X331283Y239551D01*
X330135Y240432D01*
X328798Y240986D01*
X327362Y241175D01*
D02*
G37*
G36*
X236490Y234539D02*
X231878D01*
Y229927D01*
X232718Y230037D01*
X233967Y230555D01*
X235039Y231378D01*
X235862Y232450D01*
X236379Y233699D01*
X236490Y234539D01*
D02*
G37*
G36*
X230878D02*
X226265D01*
X226376Y233699D01*
X226893Y232450D01*
X227716Y231378D01*
X228788Y230555D01*
X230037Y230037D01*
X230878Y229927D01*
Y234539D01*
D02*
G37*
G36*
X295276Y240218D02*
X293935Y240041D01*
X292686Y239524D01*
X291614Y238701D01*
X290791Y237629D01*
X290274Y236380D01*
X290097Y235039D01*
X290274Y233699D01*
X290791Y232450D01*
X291614Y231378D01*
X292686Y230555D01*
X293935Y230037D01*
X295276Y229861D01*
X296616Y230037D01*
X297865Y230555D01*
X298937Y231378D01*
X299760Y232450D01*
X300277Y233699D01*
X300454Y235039D01*
X300277Y236380D01*
X299760Y237629D01*
X298937Y238701D01*
X297865Y239524D01*
X296616Y240041D01*
X295276Y240218D01*
D02*
G37*
G36*
X381890Y238026D02*
X380454Y237837D01*
X379117Y237283D01*
X377969Y236402D01*
X377087Y235253D01*
X376533Y233916D01*
X376344Y232480D01*
X376533Y231045D01*
X377087Y229708D01*
X377969Y228559D01*
X379117Y227678D01*
X380454Y227124D01*
X381890Y226935D01*
X383325Y227124D01*
X384663Y227678D01*
X385811Y228559D01*
X386692Y229708D01*
X387246Y231045D01*
X387435Y232480D01*
X387246Y233916D01*
X386692Y235253D01*
X385811Y236402D01*
X384663Y237283D01*
X383325Y237837D01*
X381890Y238026D01*
D02*
G37*
G36*
X338583D02*
X337147Y237837D01*
X335810Y237283D01*
X334661Y236402D01*
X333780Y235253D01*
X333226Y233916D01*
X333037Y232480D01*
X333226Y231045D01*
X333780Y229708D01*
X334661Y228559D01*
X335810Y227678D01*
X337147Y227124D01*
X338583Y226935D01*
X340018Y227124D01*
X341355Y227678D01*
X342504Y228559D01*
X343385Y229708D01*
X343939Y231045D01*
X344128Y232480D01*
X343939Y233916D01*
X343385Y235253D01*
X342504Y236402D01*
X341355Y237283D01*
X340018Y237837D01*
X338583Y238026D01*
D02*
G37*
G36*
X354724Y227810D02*
X353875Y227641D01*
X353155Y227160D01*
X352674Y226440D01*
X352505Y225590D01*
X352674Y224741D01*
X353155Y224021D01*
X353875Y223540D01*
X354724Y223371D01*
X355574Y223540D01*
X356294Y224021D01*
X356775Y224741D01*
X356944Y225590D01*
X356775Y226440D01*
X356294Y227160D01*
X355574Y227641D01*
X354724Y227810D01*
D02*
G37*
G36*
X375260Y225964D02*
X374411Y225795D01*
X373690Y225314D01*
X373209Y224594D01*
X373040Y223744D01*
X373209Y222895D01*
X373690Y222175D01*
X374411Y221693D01*
X375260Y221525D01*
X376109Y221693D01*
X376830Y222175D01*
X377311Y222895D01*
X377480Y223744D01*
X377311Y224594D01*
X376830Y225314D01*
X376109Y225795D01*
X375260Y225964D01*
D02*
G37*
G36*
X392642Y222791D02*
X391792Y222622D01*
X391072Y222141D01*
X390591Y221420D01*
X390422Y220571D01*
X390591Y219721D01*
X391072Y219001D01*
X391792Y218520D01*
X392642Y218351D01*
X393491Y218520D01*
X394212Y219001D01*
X394693Y219721D01*
X394862Y220571D01*
X394693Y221420D01*
X394212Y222141D01*
X393491Y222622D01*
X392642Y222791D01*
D02*
G37*
G36*
X265158Y222594D02*
X264308Y222425D01*
X263588Y221944D01*
X263107Y221223D01*
X262938Y220374D01*
X263107Y219525D01*
X263588Y218804D01*
X264308Y218323D01*
X265158Y218154D01*
X266007Y218323D01*
X266727Y218804D01*
X267208Y219525D01*
X267377Y220374D01*
X267208Y221223D01*
X266727Y221944D01*
X266007Y222425D01*
X265158Y222594D01*
D02*
G37*
G36*
X367028Y220527D02*
X366178Y220358D01*
X365458Y219877D01*
X364977Y219157D01*
X364808Y218307D01*
X364977Y217458D01*
X365458Y216737D01*
X366178Y216256D01*
X367028Y216087D01*
X367877Y216256D01*
X368597Y216737D01*
X369078Y217458D01*
X369247Y218307D01*
X369078Y219157D01*
X368597Y219877D01*
X367877Y220358D01*
X367028Y220527D01*
D02*
G37*
G36*
X302390Y219197D02*
X301540Y219028D01*
X300820Y218547D01*
X300339Y217826D01*
X300170Y216977D01*
X300339Y216127D01*
X300820Y215407D01*
X301540Y214926D01*
X302390Y214757D01*
X303239Y214926D01*
X303959Y215407D01*
X304440Y216127D01*
X304609Y216977D01*
X304440Y217826D01*
X303959Y218547D01*
X303239Y219028D01*
X302390Y219197D01*
D02*
G37*
G36*
X335496Y219173D02*
X334647Y219004D01*
X333927Y218523D01*
X333445Y217803D01*
X333276Y216953D01*
X333445Y216104D01*
X333927Y215383D01*
X334647Y214902D01*
X335496Y214733D01*
X336346Y214902D01*
X337066Y215383D01*
X337547Y216104D01*
X337716Y216953D01*
X337547Y217803D01*
X337066Y218523D01*
X336346Y219004D01*
X335496Y219173D01*
D02*
G37*
G36*
X348327Y214818D02*
X347477Y214649D01*
X346757Y214168D01*
X346276Y213448D01*
X346107Y212598D01*
X346276Y211749D01*
X346757Y211029D01*
X347477Y210548D01*
X348327Y210379D01*
X349176Y210548D01*
X349896Y211029D01*
X350378Y211749D01*
X350547Y212598D01*
X350378Y213448D01*
X349896Y214168D01*
X349176Y214649D01*
X348327Y214818D01*
D02*
G37*
G36*
X319398Y212778D02*
Y209555D01*
X322620D01*
X322557Y210036D01*
X322178Y210949D01*
X321576Y211734D01*
X320792Y212336D01*
X319878Y212714D01*
X319398Y212778D01*
D02*
G37*
G36*
X318398Y212778D02*
X317917Y212714D01*
X317003Y212336D01*
X316219Y211734D01*
X315617Y210949D01*
X315238Y210036D01*
X315175Y209555D01*
X318398D01*
Y212778D01*
D02*
G37*
G36*
X420776Y212778D02*
Y209555D01*
X423998D01*
X423935Y210036D01*
X423556Y210949D01*
X422954Y211734D01*
X422170Y212336D01*
X421256Y212714D01*
X420776Y212778D01*
D02*
G37*
G36*
X419776D02*
X419295Y212714D01*
X418381Y212336D01*
X417597Y211734D01*
X416995Y210949D01*
X416616Y210036D01*
X416553Y209555D01*
X419776D01*
Y212778D01*
D02*
G37*
G36*
X148819Y213637D02*
X147969Y213468D01*
X147249Y212987D01*
X146768Y212267D01*
X146599Y211417D01*
X146768Y210568D01*
X147249Y209848D01*
X147969Y209366D01*
X148819Y209197D01*
X149668Y209366D01*
X150389Y209848D01*
X150870Y210568D01*
X151039Y211417D01*
X150870Y212267D01*
X150389Y212987D01*
X149668Y213468D01*
X148819Y213637D01*
D02*
G37*
G36*
X391835Y211299D02*
X390985Y211130D01*
X390265Y210649D01*
X389784Y209928D01*
X389615Y209079D01*
X389784Y208229D01*
X390265Y207509D01*
X390985Y207028D01*
X391835Y206859D01*
X392684Y207028D01*
X393404Y207509D01*
X393885Y208229D01*
X394055Y209079D01*
X393885Y209928D01*
X393404Y210649D01*
X392684Y211130D01*
X391835Y211299D01*
D02*
G37*
G36*
X322620Y208555D02*
X319398D01*
Y205333D01*
X319878Y205396D01*
X320792Y205774D01*
X321576Y206376D01*
X322178Y207161D01*
X322557Y208075D01*
X322620Y208555D01*
D02*
G37*
G36*
X318398D02*
X315175D01*
X315238Y208075D01*
X315617Y207161D01*
X316219Y206376D01*
X317003Y205774D01*
X317917Y205396D01*
X318398Y205333D01*
Y208555D01*
D02*
G37*
G36*
X423998Y208555D02*
X420776D01*
Y205333D01*
X421256Y205396D01*
X422170Y205774D01*
X422954Y206376D01*
X423556Y207161D01*
X423935Y208075D01*
X423998Y208555D01*
D02*
G37*
G36*
X419776D02*
X416553D01*
X416616Y208075D01*
X416995Y207161D01*
X417597Y206376D01*
X418381Y205774D01*
X419295Y205396D01*
X419776Y205333D01*
Y208555D01*
D02*
G37*
G36*
X328898Y212843D02*
X327917Y212714D01*
X327004Y212336D01*
X326219Y211734D01*
X325617Y210949D01*
X325238Y210036D01*
X325109Y209055D01*
X325238Y208075D01*
X325617Y207161D01*
X326219Y206376D01*
X327004Y205774D01*
X327917Y205396D01*
X328898Y205267D01*
X329878Y205396D01*
X330792Y205774D01*
X331576Y206376D01*
X332178Y207161D01*
X332557Y208075D01*
X332686Y209055D01*
X332557Y210036D01*
X332178Y210949D01*
X331576Y211734D01*
X330792Y212336D01*
X329878Y212714D01*
X328898Y212843D01*
D02*
G37*
G36*
X308898D02*
X307917Y212714D01*
X307003Y212336D01*
X306219Y211734D01*
X305617Y210949D01*
X305238Y210036D01*
X305109Y209055D01*
X305238Y208075D01*
X305617Y207161D01*
X306219Y206376D01*
X307003Y205774D01*
X307917Y205396D01*
X308898Y205267D01*
X309878Y205396D01*
X310792Y205774D01*
X311576Y206376D01*
X312178Y207161D01*
X312557Y208075D01*
X312686Y209055D01*
X312557Y210036D01*
X312178Y210949D01*
X311576Y211734D01*
X310792Y212336D01*
X309878Y212714D01*
X308898Y212843D01*
D02*
G37*
G36*
X410276Y212843D02*
X409295Y212714D01*
X408381Y212336D01*
X407597Y211734D01*
X406995Y210949D01*
X406616Y210036D01*
X406487Y209055D01*
X406616Y208075D01*
X406995Y207161D01*
X407597Y206376D01*
X408381Y205774D01*
X409295Y205396D01*
X410276Y205267D01*
X411256Y205396D01*
X412170Y205774D01*
X412954Y206376D01*
X413556Y207161D01*
X413935Y208075D01*
X414064Y209055D01*
X413935Y210036D01*
X413556Y210949D01*
X412954Y211734D01*
X412170Y212336D01*
X411256Y212714D01*
X410276Y212843D01*
D02*
G37*
G36*
X295276Y215218D02*
X293935Y215041D01*
X292686Y214524D01*
X291614Y213701D01*
X290791Y212629D01*
X290274Y211380D01*
X290097Y210039D01*
X290274Y208699D01*
X290791Y207450D01*
X291614Y206378D01*
X292686Y205555D01*
X293935Y205037D01*
X295276Y204861D01*
X296616Y205037D01*
X297865Y205555D01*
X298937Y206378D01*
X299760Y207450D01*
X300277Y208699D01*
X300454Y210039D01*
X300277Y211380D01*
X299760Y212629D01*
X298937Y213701D01*
X297865Y214524D01*
X296616Y215041D01*
X295276Y215218D01*
D02*
G37*
G36*
X231378D02*
X230037Y215041D01*
X228788Y214524D01*
X227716Y213701D01*
X226893Y212629D01*
X226376Y211380D01*
X226199Y210039D01*
X226376Y208699D01*
X226893Y207450D01*
X227716Y206378D01*
X228788Y205555D01*
X230037Y205037D01*
X231378Y204861D01*
X232718Y205037D01*
X233967Y205555D01*
X235039Y206378D01*
X235862Y207450D01*
X236379Y208699D01*
X236556Y210039D01*
X236379Y211380D01*
X235862Y212629D01*
X235039Y213701D01*
X233967Y214524D01*
X232718Y215041D01*
X231378Y215218D01*
D02*
G37*
G36*
X178071D02*
X176731Y215041D01*
X175482Y214524D01*
X174410Y213701D01*
X173587Y212629D01*
X173069Y211380D01*
X172893Y210039D01*
X173069Y208699D01*
X173587Y207450D01*
X174410Y206378D01*
X175482Y205555D01*
X176731Y205037D01*
X178071Y204861D01*
X179411Y205037D01*
X180660Y205555D01*
X181733Y206378D01*
X182556Y207450D01*
X183073Y208699D01*
X183249Y210039D01*
X183073Y211380D01*
X182556Y212629D01*
X181733Y213701D01*
X180660Y214524D01*
X179411Y215041D01*
X178071Y215218D01*
D02*
G37*
G36*
X114173D02*
X112833Y215041D01*
X111584Y214524D01*
X110512Y213701D01*
X109689Y212629D01*
X109171Y211380D01*
X108995Y210039D01*
X109171Y208699D01*
X109689Y207450D01*
X110512Y206378D01*
X111584Y205555D01*
X112833Y205037D01*
X114173Y204861D01*
X115514Y205037D01*
X116762Y205555D01*
X117835Y206378D01*
X118658Y207450D01*
X119175Y208699D01*
X119351Y210039D01*
X119175Y211380D01*
X118658Y212629D01*
X117835Y213701D01*
X116762Y214524D01*
X115514Y215041D01*
X114173Y215218D01*
D02*
G37*
G36*
X94941D02*
X93601Y215041D01*
X92352Y214524D01*
X91280Y213701D01*
X90457Y212629D01*
X89939Y211380D01*
X89763Y210039D01*
X89939Y208699D01*
X90457Y207450D01*
X91280Y206378D01*
X92352Y205555D01*
X93601Y205037D01*
X94941Y204861D01*
X96281Y205037D01*
X97530Y205555D01*
X98603Y206378D01*
X99426Y207450D01*
X99943Y208699D01*
X100119Y210039D01*
X99943Y211380D01*
X99426Y212629D01*
X98603Y213701D01*
X97530Y214524D01*
X96281Y215041D01*
X94941Y215218D01*
D02*
G37*
G36*
X31043D02*
X29703Y215041D01*
X28454Y214524D01*
X27382Y213701D01*
X26559Y212629D01*
X26041Y211380D01*
X25865Y210039D01*
X26041Y208699D01*
X26559Y207450D01*
X27382Y206378D01*
X28454Y205555D01*
X29703Y205037D01*
X31043Y204861D01*
X32383Y205037D01*
X33632Y205555D01*
X34705Y206378D01*
X35528Y207450D01*
X36045Y208699D01*
X36221Y210039D01*
X36045Y211380D01*
X35528Y212629D01*
X34705Y213701D01*
X33632Y214524D01*
X32383Y215041D01*
X31043Y215218D01*
D02*
G37*
G36*
X102819Y206551D02*
X101970Y206382D01*
X101249Y205900D01*
X100768Y205180D01*
X100599Y204331D01*
X100768Y203481D01*
X101249Y202761D01*
X101970Y202280D01*
X102819Y202111D01*
X103668Y202280D01*
X104389Y202761D01*
X104870Y203481D01*
X105039Y204331D01*
X104870Y205180D01*
X104389Y205900D01*
X103668Y206382D01*
X102819Y206551D01*
D02*
G37*
G36*
X56299D02*
X55450Y206382D01*
X54730Y205900D01*
X54248Y205180D01*
X54079Y204331D01*
X54248Y203481D01*
X54730Y202761D01*
X55450Y202280D01*
X56299Y202111D01*
X57149Y202280D01*
X57869Y202761D01*
X58350Y203481D01*
X58519Y204331D01*
X58350Y205180D01*
X57869Y205900D01*
X57149Y206382D01*
X56299Y206551D01*
D02*
G37*
G36*
X415764Y204890D02*
X414915Y204721D01*
X414195Y204240D01*
X413713Y203520D01*
X413544Y202670D01*
X413713Y201821D01*
X414195Y201100D01*
X414915Y200619D01*
X415764Y200450D01*
X416614Y200619D01*
X417334Y201100D01*
X417815Y201821D01*
X417984Y202670D01*
X417815Y203520D01*
X417334Y204240D01*
X416614Y204721D01*
X415764Y204890D01*
D02*
G37*
G36*
X297243Y201432D02*
X296394Y201263D01*
X295674Y200781D01*
X295193Y200061D01*
X295024Y199212D01*
X295193Y198362D01*
X295674Y197642D01*
X296394Y197161D01*
X297243Y196992D01*
X298093Y197161D01*
X298813Y197642D01*
X299294Y198362D01*
X299463Y199212D01*
X299294Y200061D01*
X298813Y200781D01*
X298093Y201263D01*
X297243Y201432D01*
D02*
G37*
G36*
X353937Y200842D02*
X353087Y200673D01*
X352367Y200192D01*
X351886Y199471D01*
X351717Y198622D01*
X351886Y197773D01*
X352367Y197052D01*
X353087Y196571D01*
X353937Y196402D01*
X354786Y196571D01*
X355507Y197052D01*
X355988Y197773D01*
X356157Y198622D01*
X355988Y199471D01*
X355507Y200192D01*
X354786Y200673D01*
X353937Y200842D01*
D02*
G37*
G36*
X117780Y200275D02*
X116930Y200106D01*
X116210Y199625D01*
X115729Y198905D01*
X115560Y198055D01*
X115729Y197206D01*
X116210Y196486D01*
X116930Y196004D01*
X117780Y195835D01*
X118629Y196004D01*
X119349Y196486D01*
X119831Y197206D01*
X119999Y198055D01*
X119831Y198905D01*
X119349Y199625D01*
X118629Y200106D01*
X117780Y200275D01*
D02*
G37*
G36*
X377559Y199267D02*
X376710Y199098D01*
X375989Y198617D01*
X375508Y197897D01*
X375339Y197047D01*
X375508Y196198D01*
X375989Y195478D01*
X376710Y194996D01*
X377559Y194827D01*
X378409Y194996D01*
X379129Y195478D01*
X379610Y196198D01*
X379779Y197047D01*
X379610Y197897D01*
X379129Y198617D01*
X378409Y199098D01*
X377559Y199267D01*
D02*
G37*
G36*
X333858Y197397D02*
X333009Y197228D01*
X332289Y196747D01*
X331807Y196027D01*
X331639Y195177D01*
X331807Y194328D01*
X332289Y193607D01*
X333009Y193126D01*
X333858Y192957D01*
X334708Y193126D01*
X335428Y193607D01*
X335909Y194328D01*
X336078Y195177D01*
X335909Y196027D01*
X335428Y196747D01*
X334708Y197228D01*
X333858Y197397D01*
D02*
G37*
G36*
X62274Y196929D02*
X61425Y196760D01*
X60704Y196279D01*
X60223Y195559D01*
X60054Y194709D01*
X60223Y193860D01*
X60704Y193140D01*
X61425Y192658D01*
X62274Y192489D01*
X63124Y192658D01*
X63844Y193140D01*
X64325Y193860D01*
X64494Y194709D01*
X64325Y195559D01*
X63844Y196279D01*
X63124Y196760D01*
X62274Y196929D01*
D02*
G37*
G36*
X420776Y193093D02*
Y189870D01*
X423998D01*
X423935Y190351D01*
X423556Y191264D01*
X422954Y192049D01*
X422170Y192651D01*
X421256Y193029D01*
X420776Y193093D01*
D02*
G37*
G36*
X419776D02*
X419295Y193029D01*
X418381Y192651D01*
X417597Y192049D01*
X416995Y191264D01*
X416616Y190351D01*
X416553Y189870D01*
X419776D01*
Y193093D01*
D02*
G37*
G36*
X319240Y193093D02*
Y189870D01*
X322463D01*
X322399Y190351D01*
X322021Y191264D01*
X321419Y192049D01*
X320634Y192651D01*
X319721Y193029D01*
X319240Y193093D01*
D02*
G37*
G36*
X318240D02*
X317760Y193029D01*
X316846Y192651D01*
X316061Y192049D01*
X315459Y191264D01*
X315081Y190351D01*
X315018Y189870D01*
X318240D01*
Y193093D01*
D02*
G37*
G36*
X149909Y192901D02*
Y189083D01*
X153728D01*
X153644Y189717D01*
X153206Y190775D01*
X152509Y191683D01*
X151601Y192379D01*
X150544Y192817D01*
X149909Y192901D01*
D02*
G37*
G36*
X241642Y192901D02*
Y189083D01*
X245460D01*
X245376Y189717D01*
X244938Y190775D01*
X244242Y191683D01*
X243334Y192379D01*
X242276Y192817D01*
X241642Y192901D01*
D02*
G37*
G36*
X240642Y192901D02*
X240007Y192817D01*
X238950Y192379D01*
X238042Y191683D01*
X237345Y190775D01*
X236907Y189717D01*
X236824Y189083D01*
X240642D01*
Y192901D01*
D02*
G37*
G36*
X148909Y192901D02*
X148275Y192817D01*
X147217Y192379D01*
X146309Y191683D01*
X145613Y190775D01*
X145175Y189717D01*
X145091Y189083D01*
X148909D01*
Y192901D01*
D02*
G37*
G36*
X349571Y191614D02*
X348722Y191445D01*
X348001Y190964D01*
X347520Y190243D01*
X347351Y189394D01*
X347520Y188544D01*
X348001Y187824D01*
X348722Y187343D01*
X349571Y187174D01*
X350420Y187343D01*
X351141Y187824D01*
X351622Y188544D01*
X351791Y189394D01*
X351622Y190243D01*
X351141Y190964D01*
X350420Y191445D01*
X349571Y191614D01*
D02*
G37*
G36*
X423998Y188870D02*
X420776D01*
Y185648D01*
X421256Y185711D01*
X422170Y186089D01*
X422954Y186691D01*
X423556Y187476D01*
X423935Y188390D01*
X423998Y188870D01*
D02*
G37*
G36*
X419776D02*
X416553D01*
X416616Y188390D01*
X416995Y187476D01*
X417597Y186691D01*
X418381Y186089D01*
X419295Y185711D01*
X419776Y185648D01*
Y188870D01*
D02*
G37*
G36*
X322463Y188870D02*
X319240D01*
Y185648D01*
X319721Y185711D01*
X320634Y186089D01*
X321419Y186691D01*
X322021Y187476D01*
X322399Y188390D01*
X322463Y188870D01*
D02*
G37*
G36*
X318240D02*
X315018D01*
X315081Y188390D01*
X315459Y187476D01*
X316061Y186691D01*
X316846Y186089D01*
X317760Y185711D01*
X318240Y185648D01*
Y188870D01*
D02*
G37*
G36*
X410276Y193158D02*
X409295Y193029D01*
X408381Y192651D01*
X407597Y192049D01*
X406995Y191264D01*
X406616Y190351D01*
X406487Y189370D01*
X406616Y188390D01*
X406995Y187476D01*
X407597Y186691D01*
X408381Y186089D01*
X409295Y185711D01*
X410276Y185582D01*
X411256Y185711D01*
X412170Y186089D01*
X412954Y186691D01*
X413556Y187476D01*
X413935Y188390D01*
X414064Y189370D01*
X413935Y190351D01*
X413556Y191264D01*
X412954Y192049D01*
X412170Y192651D01*
X411256Y193029D01*
X410276Y193158D01*
D02*
G37*
G36*
X328740Y193158D02*
X327760Y193029D01*
X326846Y192651D01*
X326061Y192049D01*
X325459Y191264D01*
X325081Y190351D01*
X324952Y189370D01*
X325081Y188390D01*
X325459Y187476D01*
X326061Y186691D01*
X326846Y186089D01*
X327760Y185711D01*
X328740Y185582D01*
X329721Y185711D01*
X330634Y186089D01*
X331419Y186691D01*
X332021Y187476D01*
X332399Y188390D01*
X332528Y189370D01*
X332399Y190351D01*
X332021Y191264D01*
X331419Y192049D01*
X330634Y192651D01*
X329721Y193029D01*
X328740Y193158D01*
D02*
G37*
G36*
X308740D02*
X307760Y193029D01*
X306846Y192651D01*
X306061Y192049D01*
X305459Y191264D01*
X305081Y190351D01*
X304952Y189370D01*
X305081Y188390D01*
X305459Y187476D01*
X306061Y186691D01*
X306846Y186089D01*
X307760Y185711D01*
X308740Y185582D01*
X309721Y185711D01*
X310634Y186089D01*
X311419Y186691D01*
X312021Y187476D01*
X312399Y188390D01*
X312528Y189370D01*
X312399Y190351D01*
X312021Y191264D01*
X311419Y192049D01*
X310634Y192651D01*
X309721Y193029D01*
X308740Y193158D01*
D02*
G37*
G36*
X291859Y189941D02*
X291009Y189772D01*
X290289Y189290D01*
X289808Y188570D01*
X289639Y187721D01*
X289808Y186871D01*
X290289Y186151D01*
X291009Y185670D01*
X291859Y185501D01*
X292708Y185670D01*
X293428Y186151D01*
X293909Y186871D01*
X294078Y187721D01*
X293909Y188570D01*
X293428Y189290D01*
X292708Y189772D01*
X291859Y189941D01*
D02*
G37*
G36*
X397441Y194151D02*
X396203Y193988D01*
X395050Y193511D01*
X394060Y192751D01*
X393300Y191761D01*
X392823Y190608D01*
X392660Y189370D01*
X392823Y188133D01*
X393300Y186979D01*
X394060Y185989D01*
X395050Y185230D01*
X396203Y184752D01*
X397441Y184589D01*
X398678Y184752D01*
X399832Y185230D01*
X400822Y185989D01*
X401581Y186979D01*
X402059Y188133D01*
X402222Y189370D01*
X402059Y190608D01*
X401581Y191761D01*
X400822Y192751D01*
X399832Y193511D01*
X398678Y193988D01*
X397441Y194151D01*
D02*
G37*
G36*
X240642Y188083D02*
X236824D01*
X236907Y187448D01*
X237345Y186391D01*
X238042Y185483D01*
X238950Y184786D01*
X240007Y184348D01*
X240642Y184265D01*
Y188083D01*
D02*
G37*
G36*
X153727D02*
X149909D01*
Y184265D01*
X150544Y184348D01*
X151601Y184786D01*
X152509Y185483D01*
X153206Y186391D01*
X153644Y187448D01*
X153727Y188083D01*
D02*
G37*
G36*
X148909D02*
X145091D01*
X145175Y187448D01*
X145613Y186391D01*
X146309Y185483D01*
X147217Y184786D01*
X148275Y184348D01*
X148909Y184265D01*
Y188083D01*
D02*
G37*
G36*
X245460D02*
X241642D01*
Y184265D01*
X242276Y184348D01*
X243334Y184786D01*
X244242Y185483D01*
X244938Y186391D01*
X245376Y187448D01*
X245460Y188083D01*
D02*
G37*
G36*
X260827Y192967D02*
X259692Y192817D01*
X258635Y192379D01*
X257727Y191683D01*
X257030Y190775D01*
X256592Y189717D01*
X256443Y188583D01*
X256592Y187448D01*
X257030Y186391D01*
X257727Y185483D01*
X258635Y184786D01*
X259692Y184348D01*
X260827Y184199D01*
X261961Y184348D01*
X263019Y184786D01*
X263927Y185483D01*
X264623Y186391D01*
X265061Y187448D01*
X265211Y188583D01*
X265061Y189717D01*
X264623Y190775D01*
X263927Y191683D01*
X263019Y192379D01*
X261961Y192817D01*
X260827Y192967D01*
D02*
G37*
G36*
X250984D02*
X249850Y192817D01*
X248792Y192379D01*
X247884Y191683D01*
X247188Y190775D01*
X246750Y189717D01*
X246600Y188583D01*
X246750Y187448D01*
X247188Y186391D01*
X247884Y185483D01*
X248792Y184786D01*
X249850Y184348D01*
X250984Y184199D01*
X252119Y184348D01*
X253176Y184786D01*
X254084Y185483D01*
X254781Y186391D01*
X255219Y187448D01*
X255368Y188583D01*
X255219Y189717D01*
X254781Y190775D01*
X254084Y191683D01*
X253176Y192379D01*
X252119Y192817D01*
X250984Y192967D01*
D02*
G37*
G36*
X169095D02*
X167960Y192817D01*
X166902Y192379D01*
X165995Y191683D01*
X165298Y190775D01*
X164860Y189717D01*
X164710Y188583D01*
X164860Y187448D01*
X165298Y186391D01*
X165995Y185483D01*
X166902Y184786D01*
X167960Y184348D01*
X169095Y184199D01*
X170229Y184348D01*
X171286Y184786D01*
X172194Y185483D01*
X172891Y186391D01*
X173329Y187448D01*
X173478Y188583D01*
X173329Y189717D01*
X172891Y190775D01*
X172194Y191683D01*
X171286Y192379D01*
X170229Y192817D01*
X169095Y192967D01*
D02*
G37*
G36*
X159252D02*
X158117Y192817D01*
X157060Y192379D01*
X156152Y191683D01*
X155455Y190775D01*
X155017Y189717D01*
X154868Y188583D01*
X155017Y187448D01*
X155455Y186391D01*
X156152Y185483D01*
X157060Y184786D01*
X158117Y184348D01*
X159252Y184199D01*
X160387Y184348D01*
X161444Y184786D01*
X162352Y185483D01*
X163049Y186391D01*
X163487Y187448D01*
X163636Y188583D01*
X163487Y189717D01*
X163049Y190775D01*
X162352Y191683D01*
X161444Y192379D01*
X160387Y192817D01*
X159252Y192967D01*
D02*
G37*
G36*
X77165D02*
X76031Y192817D01*
X74973Y192379D01*
X74065Y191683D01*
X73369Y190775D01*
X72931Y189717D01*
X72781Y188583D01*
X72931Y187448D01*
X73369Y186391D01*
X74065Y185483D01*
X74973Y184786D01*
X76031Y184348D01*
X77165Y184199D01*
X78300Y184348D01*
X79357Y184786D01*
X80265Y185483D01*
X80962Y186391D01*
X81400Y187448D01*
X81549Y188583D01*
X81400Y189717D01*
X80962Y190775D01*
X80265Y191683D01*
X79357Y192379D01*
X78300Y192817D01*
X77165Y192967D01*
D02*
G37*
G36*
X67323D02*
X66188Y192817D01*
X65131Y192379D01*
X64223Y191683D01*
X63526Y190775D01*
X63088Y189717D01*
X62939Y188583D01*
X63088Y187448D01*
X63526Y186391D01*
X64223Y185483D01*
X65131Y184786D01*
X66188Y184348D01*
X67323Y184199D01*
X68458Y184348D01*
X69515Y184786D01*
X70423Y185483D01*
X71119Y186391D01*
X71557Y187448D01*
X71707Y188583D01*
X71557Y189717D01*
X71119Y190775D01*
X70423Y191683D01*
X69515Y192379D01*
X68458Y192817D01*
X67323Y192967D01*
D02*
G37*
G36*
X57480D02*
X56346Y192817D01*
X55288Y192379D01*
X54380Y191683D01*
X53684Y190775D01*
X53246Y189717D01*
X53096Y188583D01*
X53246Y187448D01*
X53684Y186391D01*
X54380Y185483D01*
X55288Y184786D01*
X56346Y184348D01*
X57480Y184199D01*
X58615Y184348D01*
X59672Y184786D01*
X60580Y185483D01*
X61277Y186391D01*
X61715Y187448D01*
X61864Y188583D01*
X61715Y189717D01*
X61277Y190775D01*
X60580Y191683D01*
X59672Y192379D01*
X58615Y192817D01*
X57480Y192967D01*
D02*
G37*
G36*
X415701Y186496D02*
X414852Y186327D01*
X414131Y185845D01*
X413650Y185125D01*
X413481Y184276D01*
X413650Y183426D01*
X414131Y182706D01*
X414852Y182225D01*
X415701Y182056D01*
X416551Y182225D01*
X417271Y182706D01*
X417752Y183426D01*
X417921Y184276D01*
X417752Y185125D01*
X417271Y185845D01*
X416551Y186327D01*
X415701Y186496D01*
D02*
G37*
G36*
X102819Y185536D02*
X101970Y185367D01*
X101249Y184886D01*
X100768Y184165D01*
X100599Y183316D01*
X100768Y182466D01*
X101249Y181746D01*
X101970Y181265D01*
X102819Y181096D01*
X103668Y181265D01*
X104389Y181746D01*
X104870Y182466D01*
X105039Y183316D01*
X104870Y184165D01*
X104389Y184886D01*
X103668Y185367D01*
X102819Y185536D01*
D02*
G37*
G36*
X92071Y185512D02*
X91221Y185343D01*
X90501Y184862D01*
X90020Y184142D01*
X89851Y183292D01*
X90020Y182442D01*
X90501Y181722D01*
X91221Y181241D01*
X92071Y181072D01*
X92920Y181241D01*
X93641Y181722D01*
X94122Y182442D01*
X94291Y183292D01*
X94122Y184142D01*
X93641Y184862D01*
X92920Y185343D01*
X92071Y185512D01*
D02*
G37*
G36*
X138465Y185291D02*
X137615Y185122D01*
X136895Y184641D01*
X136414Y183920D01*
X136245Y183071D01*
X136414Y182221D01*
X136895Y181501D01*
X137615Y181020D01*
X138465Y180851D01*
X139314Y181020D01*
X140034Y181501D01*
X140515Y182221D01*
X140684Y183071D01*
X140515Y183920D01*
X140034Y184641D01*
X139314Y185122D01*
X138465Y185291D01*
D02*
G37*
G36*
X43173Y182976D02*
X42324Y182807D01*
X41604Y182326D01*
X41122Y181606D01*
X40953Y180756D01*
X41122Y179907D01*
X41604Y179187D01*
X42324Y178706D01*
X43173Y178537D01*
X44023Y178706D01*
X44743Y179187D01*
X45224Y179907D01*
X45393Y180756D01*
X45224Y181606D01*
X44743Y182326D01*
X44023Y182807D01*
X43173Y182976D01*
D02*
G37*
G36*
X62337Y182952D02*
X61488Y182783D01*
X60768Y182302D01*
X60286Y181582D01*
X60117Y180733D01*
X60286Y179883D01*
X60768Y179163D01*
X61488Y178682D01*
X62337Y178513D01*
X63187Y178682D01*
X63907Y179163D01*
X64388Y179883D01*
X64557Y180733D01*
X64388Y181582D01*
X63907Y182302D01*
X63187Y182783D01*
X62337Y182952D01*
D02*
G37*
G36*
X318803Y181771D02*
X317954Y181602D01*
X317234Y181121D01*
X316752Y180401D01*
X316583Y179551D01*
X316752Y178702D01*
X317234Y177982D01*
X317954Y177501D01*
X318803Y177332D01*
X319653Y177501D01*
X320373Y177982D01*
X320854Y178702D01*
X321023Y179551D01*
X320854Y180401D01*
X320373Y181121D01*
X319653Y181602D01*
X318803Y181771D01*
D02*
G37*
G36*
X298721Y180468D02*
X297871Y180299D01*
X297151Y179818D01*
X296670Y179097D01*
X296501Y178248D01*
X296670Y177399D01*
X297151Y176678D01*
X297871Y176197D01*
X298721Y176028D01*
X299570Y176197D01*
X300290Y176678D01*
X300771Y177399D01*
X300940Y178248D01*
X300771Y179097D01*
X300290Y179818D01*
X299570Y180299D01*
X298721Y180468D01*
D02*
G37*
G36*
X30118Y180369D02*
X29269Y180200D01*
X28548Y179719D01*
X28067Y178999D01*
X27898Y178150D01*
X28067Y177300D01*
X28548Y176580D01*
X29269Y176099D01*
X30118Y175930D01*
X30968Y176099D01*
X31688Y176580D01*
X32169Y177300D01*
X32338Y178150D01*
X32169Y178999D01*
X31688Y179719D01*
X30968Y180200D01*
X30118Y180369D01*
D02*
G37*
G36*
X85876Y179675D02*
X85027Y179506D01*
X84306Y179025D01*
X83825Y178305D01*
X83656Y177455D01*
X83825Y176606D01*
X84306Y175886D01*
X85027Y175405D01*
X85876Y175236D01*
X86725Y175405D01*
X87446Y175886D01*
X87927Y176606D01*
X88096Y177455D01*
X87927Y178305D01*
X87446Y179025D01*
X86725Y179506D01*
X85876Y179675D01*
D02*
G37*
G36*
X142126Y179582D02*
X141277Y179413D01*
X140556Y178932D01*
X140075Y178212D01*
X139906Y177362D01*
X140075Y176513D01*
X140556Y175793D01*
X141277Y175311D01*
X142126Y175142D01*
X142975Y175311D01*
X143696Y175793D01*
X144177Y176513D01*
X144346Y177362D01*
X144177Y178212D01*
X143696Y178932D01*
X142975Y179413D01*
X142126Y179582D01*
D02*
G37*
G36*
X134646D02*
X133796Y179413D01*
X133076Y178932D01*
X132595Y178212D01*
X132426Y177362D01*
X132595Y176513D01*
X133076Y175793D01*
X133796Y175311D01*
X134646Y175142D01*
X135495Y175311D01*
X136215Y175793D01*
X136697Y176513D01*
X136865Y177362D01*
X136697Y178212D01*
X136215Y178932D01*
X135495Y179413D01*
X134646Y179582D01*
D02*
G37*
G36*
X399803Y179188D02*
X398954Y179019D01*
X398234Y178538D01*
X397752Y177818D01*
X397583Y176969D01*
X397752Y176119D01*
X398234Y175399D01*
X398954Y174918D01*
X399803Y174749D01*
X400653Y174918D01*
X401373Y175399D01*
X401854Y176119D01*
X402023Y176969D01*
X401854Y177818D01*
X401373Y178538D01*
X400653Y179019D01*
X399803Y179188D01*
D02*
G37*
G36*
X235728Y176236D02*
X234879Y176067D01*
X234159Y175585D01*
X233678Y174865D01*
X233508Y174016D01*
X233678Y173166D01*
X234159Y172446D01*
X234879Y171965D01*
X235728Y171796D01*
X236578Y171965D01*
X237298Y172446D01*
X237779Y173166D01*
X237948Y174016D01*
X237779Y174865D01*
X237298Y175585D01*
X236578Y176067D01*
X235728Y176236D01*
D02*
G37*
G36*
X53213Y174732D02*
X52363Y174563D01*
X51643Y174082D01*
X51162Y173362D01*
X50993Y172512D01*
X51162Y171663D01*
X51643Y170943D01*
X52363Y170462D01*
X53213Y170293D01*
X54062Y170462D01*
X54782Y170943D01*
X55264Y171663D01*
X55432Y172512D01*
X55264Y173362D01*
X54782Y174082D01*
X54062Y174563D01*
X53213Y174732D01*
D02*
G37*
G36*
X70535Y174708D02*
X69686Y174539D01*
X68966Y174058D01*
X68485Y173338D01*
X68316Y172489D01*
X68485Y171639D01*
X68966Y170919D01*
X69686Y170438D01*
X70535Y170269D01*
X71385Y170438D01*
X72105Y170919D01*
X72586Y171639D01*
X72755Y172489D01*
X72586Y173338D01*
X72105Y174058D01*
X71385Y174539D01*
X70535Y174708D01*
D02*
G37*
G36*
X81594Y174685D02*
X80744Y174516D01*
X80024Y174034D01*
X79543Y173314D01*
X79374Y172465D01*
X79543Y171615D01*
X80024Y170895D01*
X80744Y170414D01*
X81594Y170245D01*
X82443Y170414D01*
X83163Y170895D01*
X83645Y171615D01*
X83814Y172465D01*
X83645Y173314D01*
X83163Y174034D01*
X82443Y174516D01*
X81594Y174685D01*
D02*
G37*
G36*
X319398Y173407D02*
Y170185D01*
X322620D01*
X322557Y170666D01*
X322178Y171579D01*
X321576Y172364D01*
X320792Y172966D01*
X319878Y173344D01*
X319398Y173407D01*
D02*
G37*
G36*
X318398Y173407D02*
X317917Y173344D01*
X317003Y172966D01*
X316219Y172364D01*
X315617Y171579D01*
X315238Y170666D01*
X315175Y170185D01*
X318398D01*
Y173407D01*
D02*
G37*
G36*
X420776Y173407D02*
Y170185D01*
X423998D01*
X423935Y170666D01*
X423556Y171579D01*
X422954Y172364D01*
X422170Y172966D01*
X421256Y173344D01*
X420776Y173407D01*
D02*
G37*
G36*
X419776D02*
X419295Y173344D01*
X418381Y172966D01*
X417597Y172364D01*
X416995Y171579D01*
X416616Y170666D01*
X416553Y170185D01*
X419776D01*
Y173407D01*
D02*
G37*
G36*
X169595Y173806D02*
Y169988D01*
X173413D01*
X173329Y170623D01*
X172891Y171680D01*
X172194Y172588D01*
X171286Y173285D01*
X170229Y173723D01*
X169595Y173806D01*
D02*
G37*
G36*
X168595D02*
X167960Y173723D01*
X166902Y173285D01*
X165995Y172588D01*
X165298Y171680D01*
X164860Y170623D01*
X164776Y169988D01*
X168595D01*
Y173806D01*
D02*
G37*
G36*
X138465Y173873D02*
X137615Y173704D01*
X136895Y173223D01*
X136414Y172503D01*
X136245Y171653D01*
X136414Y170804D01*
X136895Y170084D01*
X137615Y169603D01*
X138465Y169434D01*
X139314Y169603D01*
X140034Y170084D01*
X140515Y170804D01*
X140684Y171653D01*
X140515Y172503D01*
X140034Y173223D01*
X139314Y173704D01*
X138465Y173873D01*
D02*
G37*
G36*
X302425Y171535D02*
X301576Y171366D01*
X300856Y170885D01*
X300375Y170165D01*
X300205Y169315D01*
X300375Y168466D01*
X300856Y167746D01*
X301576Y167264D01*
X302425Y167095D01*
X303275Y167264D01*
X303995Y167746D01*
X304476Y168466D01*
X304645Y169315D01*
X304476Y170165D01*
X303995Y170885D01*
X303275Y171366D01*
X302425Y171535D01*
D02*
G37*
G36*
X322620Y169185D02*
X319398D01*
Y165963D01*
X319878Y166026D01*
X320792Y166404D01*
X321576Y167006D01*
X322178Y167791D01*
X322557Y168704D01*
X322620Y169185D01*
D02*
G37*
G36*
X318398D02*
X315175D01*
X315238Y168704D01*
X315617Y167791D01*
X316219Y167006D01*
X317003Y166404D01*
X317917Y166026D01*
X318398Y165963D01*
Y169185D01*
D02*
G37*
G36*
X423998Y169185D02*
X420776D01*
Y165963D01*
X421256Y166026D01*
X422170Y166404D01*
X422954Y167006D01*
X423556Y167791D01*
X423935Y168704D01*
X423998Y169185D01*
D02*
G37*
G36*
X419776D02*
X416553D01*
X416616Y168704D01*
X416995Y167791D01*
X417597Y167006D01*
X418381Y166404D01*
X419295Y166026D01*
X419776Y165963D01*
Y169185D01*
D02*
G37*
G36*
X328898Y173473D02*
X327917Y173344D01*
X327004Y172966D01*
X326219Y172364D01*
X325617Y171579D01*
X325238Y170666D01*
X325109Y169685D01*
X325238Y168704D01*
X325617Y167791D01*
X326219Y167006D01*
X327004Y166404D01*
X327917Y166026D01*
X328898Y165897D01*
X329878Y166026D01*
X330792Y166404D01*
X331576Y167006D01*
X332178Y167791D01*
X332557Y168704D01*
X332686Y169685D01*
X332557Y170666D01*
X332178Y171579D01*
X331576Y172364D01*
X330792Y172966D01*
X329878Y173344D01*
X328898Y173473D01*
D02*
G37*
G36*
X308898D02*
X307917Y173344D01*
X307003Y172966D01*
X306219Y172364D01*
X305617Y171579D01*
X305238Y170666D01*
X305109Y169685D01*
X305238Y168704D01*
X305617Y167791D01*
X306219Y167006D01*
X307003Y166404D01*
X307917Y166026D01*
X308898Y165897D01*
X309878Y166026D01*
X310792Y166404D01*
X311576Y167006D01*
X312178Y167791D01*
X312557Y168704D01*
X312686Y169685D01*
X312557Y170666D01*
X312178Y171579D01*
X311576Y172364D01*
X310792Y172966D01*
X309878Y173344D01*
X308898Y173473D01*
D02*
G37*
G36*
X410276Y173473D02*
X409295Y173344D01*
X408381Y172966D01*
X407597Y172364D01*
X406995Y171579D01*
X406616Y170666D01*
X406487Y169685D01*
X406616Y168704D01*
X406995Y167791D01*
X407597Y167006D01*
X408381Y166404D01*
X409295Y166026D01*
X410276Y165897D01*
X411256Y166026D01*
X412170Y166404D01*
X412954Y167006D01*
X413556Y167791D01*
X413935Y168704D01*
X414064Y169685D01*
X413935Y170666D01*
X413556Y171579D01*
X412954Y172364D01*
X412170Y172966D01*
X411256Y173344D01*
X410276Y173473D01*
D02*
G37*
G36*
X353311Y169984D02*
X352462Y169815D01*
X351742Y169334D01*
X351260Y168614D01*
X351091Y167764D01*
X351260Y166915D01*
X351742Y166195D01*
X352462Y165713D01*
X353311Y165544D01*
X354161Y165713D01*
X354881Y166195D01*
X355362Y166915D01*
X355531Y167764D01*
X355362Y168614D01*
X354881Y169334D01*
X354161Y169815D01*
X353311Y169984D01*
D02*
G37*
G36*
X280122Y169960D02*
X279272Y169791D01*
X278552Y169310D01*
X278071Y168590D01*
X277902Y167740D01*
X278071Y166891D01*
X278552Y166171D01*
X279272Y165690D01*
X280122Y165521D01*
X280971Y165690D01*
X281691Y166171D01*
X282172Y166891D01*
X282342Y167740D01*
X282172Y168590D01*
X281691Y169310D01*
X280971Y169791D01*
X280122Y169960D01*
D02*
G37*
G36*
X243307Y169936D02*
X242458Y169767D01*
X241737Y169286D01*
X241256Y168566D01*
X241087Y167717D01*
X241256Y166867D01*
X241737Y166147D01*
X242458Y165666D01*
X243307Y165497D01*
X244157Y165666D01*
X244877Y166147D01*
X245358Y166867D01*
X245527Y167717D01*
X245358Y168566D01*
X244877Y169286D01*
X244157Y169767D01*
X243307Y169936D01*
D02*
G37*
G36*
X173413Y168988D02*
X169595D01*
Y165170D01*
X170229Y165254D01*
X171286Y165692D01*
X172194Y166388D01*
X172891Y167296D01*
X173329Y168353D01*
X173413Y168988D01*
D02*
G37*
G36*
X168595D02*
X164776D01*
X164860Y168353D01*
X165298Y167296D01*
X165995Y166388D01*
X166902Y165692D01*
X167960Y165254D01*
X168595Y165170D01*
Y168988D01*
D02*
G37*
G36*
X159252Y173872D02*
X158117Y173723D01*
X157060Y173285D01*
X156152Y172588D01*
X155455Y171680D01*
X155017Y170623D01*
X154868Y169488D01*
X155017Y168353D01*
X155455Y167296D01*
X156152Y166388D01*
X157060Y165692D01*
X158117Y165254D01*
X159252Y165104D01*
X160387Y165254D01*
X161444Y165692D01*
X162352Y166388D01*
X163049Y167296D01*
X163487Y168353D01*
X163636Y169488D01*
X163487Y170623D01*
X163049Y171680D01*
X162352Y172588D01*
X161444Y173285D01*
X160387Y173723D01*
X159252Y173872D01*
D02*
G37*
G36*
X149409D02*
X148275Y173723D01*
X147217Y173285D01*
X146309Y172588D01*
X145613Y171680D01*
X145175Y170623D01*
X145026Y169488D01*
X145175Y168353D01*
X145613Y167296D01*
X146309Y166388D01*
X147217Y165692D01*
X148275Y165254D01*
X149409Y165104D01*
X150544Y165254D01*
X151601Y165692D01*
X152509Y166388D01*
X153206Y167296D01*
X153644Y168353D01*
X153793Y169488D01*
X153644Y170623D01*
X153206Y171680D01*
X152509Y172588D01*
X151601Y173285D01*
X150544Y173723D01*
X149409Y173872D01*
D02*
G37*
G36*
X397441Y174466D02*
X396203Y174303D01*
X395050Y173826D01*
X394060Y173066D01*
X393300Y172075D01*
X392823Y170923D01*
X392660Y169685D01*
X392823Y168448D01*
X393300Y167295D01*
X394060Y166304D01*
X395050Y165544D01*
X396203Y165067D01*
X397441Y164904D01*
X398678Y165067D01*
X399832Y165544D01*
X400822Y166304D01*
X401581Y167295D01*
X402059Y168448D01*
X402222Y169685D01*
X402059Y170923D01*
X401581Y172075D01*
X400822Y173066D01*
X399832Y173826D01*
X398678Y174303D01*
X397441Y174466D01*
D02*
G37*
G36*
X340354Y194151D02*
X339117Y193988D01*
X337964Y193511D01*
X336974Y192751D01*
X336214Y191761D01*
X335736Y190608D01*
X335573Y189370D01*
X335736Y188133D01*
X336214Y186979D01*
X336974Y185989D01*
X337964Y185230D01*
X339117Y184752D01*
X339504Y184701D01*
Y184197D01*
X339117Y184146D01*
X337964Y183668D01*
X336974Y182908D01*
X336214Y181918D01*
X335736Y180765D01*
X335573Y179527D01*
X335736Y178290D01*
X336214Y177137D01*
X336974Y176147D01*
X337964Y175387D01*
X339117Y174909D01*
X339504Y174858D01*
Y174354D01*
X339117Y174303D01*
X337964Y173826D01*
X336974Y173066D01*
X336214Y172075D01*
X335736Y170923D01*
X335573Y169685D01*
X335736Y168448D01*
X336214Y167295D01*
X336974Y166304D01*
X337964Y165544D01*
X339117Y165067D01*
X340354Y164904D01*
X341592Y165067D01*
X342745Y165544D01*
X343735Y166304D01*
X344495Y167295D01*
X344972Y168448D01*
X345135Y169685D01*
X344972Y170923D01*
X344495Y172075D01*
X343735Y173066D01*
X342745Y173826D01*
X341592Y174303D01*
X341205Y174354D01*
Y174858D01*
X341592Y174909D01*
X342745Y175387D01*
X343735Y176147D01*
X344495Y177137D01*
X344972Y178290D01*
X345135Y179527D01*
X344972Y180765D01*
X344495Y181918D01*
X343735Y182908D01*
X342745Y183668D01*
X341592Y184146D01*
X341205Y184197D01*
Y184701D01*
X341592Y184752D01*
X342745Y185230D01*
X343735Y185989D01*
X344495Y186979D01*
X344972Y188133D01*
X345135Y189370D01*
X344972Y190608D01*
X344495Y191761D01*
X343735Y192751D01*
X342745Y193511D01*
X341592Y193988D01*
X340354Y194151D01*
D02*
G37*
G36*
X33760Y168460D02*
X32910Y168291D01*
X32190Y167810D01*
X31709Y167090D01*
X31540Y166240D01*
X31709Y165391D01*
X32190Y164671D01*
X32910Y164189D01*
X33760Y164020D01*
X34609Y164189D01*
X35329Y164671D01*
X35811Y165391D01*
X35980Y166240D01*
X35811Y167090D01*
X35329Y167810D01*
X34609Y168291D01*
X33760Y168460D01*
D02*
G37*
G36*
X415638Y166711D02*
X414788Y166542D01*
X414068Y166061D01*
X413587Y165341D01*
X413418Y164491D01*
X413587Y163642D01*
X414068Y162922D01*
X414788Y162441D01*
X415638Y162272D01*
X416488Y162441D01*
X417208Y162922D01*
X417689Y163642D01*
X417858Y164491D01*
X417689Y165341D01*
X417208Y166061D01*
X416488Y166542D01*
X415638Y166711D01*
D02*
G37*
G36*
X59744Y166098D02*
X58895Y165929D01*
X58175Y165448D01*
X57693Y164727D01*
X57524Y163878D01*
X57693Y163029D01*
X58175Y162308D01*
X58895Y161827D01*
X59744Y161658D01*
X60594Y161827D01*
X61314Y162308D01*
X61795Y163029D01*
X61964Y163878D01*
X61795Y164727D01*
X61314Y165448D01*
X60594Y165929D01*
X59744Y166098D01*
D02*
G37*
G36*
X84315Y165653D02*
X83465Y165484D01*
X82745Y165003D01*
X82264Y164283D01*
X82095Y163434D01*
X82264Y162584D01*
X82745Y161864D01*
X83465Y161383D01*
X84315Y161214D01*
X85164Y161383D01*
X85884Y161864D01*
X86366Y162584D01*
X86535Y163434D01*
X86366Y164283D01*
X85884Y165003D01*
X85164Y165484D01*
X84315Y165653D01*
D02*
G37*
G36*
X70599Y165629D02*
X69749Y165461D01*
X69029Y164979D01*
X68548Y164259D01*
X68379Y163410D01*
X68548Y162560D01*
X69029Y161840D01*
X69749Y161359D01*
X70599Y161190D01*
X71448Y161359D01*
X72168Y161840D01*
X72650Y162560D01*
X72818Y163410D01*
X72650Y164259D01*
X72168Y164979D01*
X71448Y165461D01*
X70599Y165629D01*
D02*
G37*
G36*
X45965Y165606D02*
X45115Y165437D01*
X44395Y164955D01*
X43914Y164235D01*
X43745Y163386D01*
X43914Y162536D01*
X44395Y161816D01*
X45115Y161335D01*
X45965Y161166D01*
X46814Y161335D01*
X47534Y161816D01*
X48015Y162536D01*
X48184Y163386D01*
X48015Y164235D01*
X47534Y164955D01*
X46814Y165437D01*
X45965Y165606D01*
D02*
G37*
G36*
X102882Y164645D02*
X102033Y164476D01*
X101312Y163995D01*
X100831Y163275D01*
X100662Y162425D01*
X100831Y161576D01*
X101312Y160856D01*
X102033Y160375D01*
X102882Y160206D01*
X103732Y160375D01*
X104452Y160856D01*
X104933Y161576D01*
X105102Y162425D01*
X104933Y163275D01*
X104452Y163995D01*
X103732Y164476D01*
X102882Y164645D01*
D02*
G37*
G36*
X235728Y163637D02*
X234879Y163468D01*
X234159Y162987D01*
X233678Y162267D01*
X233508Y161417D01*
X233678Y160568D01*
X234159Y159848D01*
X234879Y159367D01*
X235728Y159197D01*
X236578Y159367D01*
X237298Y159848D01*
X237779Y160568D01*
X237948Y161417D01*
X237779Y162267D01*
X237298Y162987D01*
X236578Y163468D01*
X235728Y163637D01*
D02*
G37*
G36*
X377622Y162874D02*
X376773Y162705D01*
X376052Y162223D01*
X375571Y161503D01*
X375402Y160654D01*
X375571Y159804D01*
X376052Y159084D01*
X376773Y158603D01*
X377622Y158434D01*
X378472Y158603D01*
X379192Y159084D01*
X379673Y159804D01*
X379842Y160654D01*
X379673Y161503D01*
X379192Y162223D01*
X378472Y162705D01*
X377622Y162874D01*
D02*
G37*
G36*
X299306Y162159D02*
X298457Y161990D01*
X297737Y161509D01*
X297255Y160789D01*
X297087Y159939D01*
X297255Y159090D01*
X297737Y158370D01*
X298457Y157888D01*
X299306Y157720D01*
X300156Y157888D01*
X300876Y158370D01*
X301357Y159090D01*
X301526Y159939D01*
X301357Y160789D01*
X300876Y161509D01*
X300156Y161990D01*
X299306Y162159D01*
D02*
G37*
G36*
X54284Y161314D02*
X53435Y161145D01*
X52715Y160664D01*
X52233Y159944D01*
X52065Y159095D01*
X52233Y158245D01*
X52715Y157525D01*
X53435Y157044D01*
X54284Y156875D01*
X55134Y157044D01*
X55854Y157525D01*
X56335Y158245D01*
X56504Y159095D01*
X56335Y159944D01*
X55854Y160664D01*
X55134Y161145D01*
X54284Y161314D01*
D02*
G37*
G36*
X152657Y161078D02*
X151808Y160909D01*
X151088Y160428D01*
X150607Y159708D01*
X150438Y158858D01*
X150607Y158009D01*
X151088Y157289D01*
X151808Y156807D01*
X152657Y156639D01*
X153507Y156807D01*
X154227Y157289D01*
X154708Y158009D01*
X154877Y158858D01*
X154708Y159708D01*
X154227Y160428D01*
X153507Y160909D01*
X152657Y161078D01*
D02*
G37*
G36*
X23425Y159799D02*
X22576Y159630D01*
X21856Y159148D01*
X21374Y158428D01*
X21205Y157579D01*
X21374Y156729D01*
X21856Y156009D01*
X22576Y155528D01*
X23425Y155359D01*
X24275Y155528D01*
X24995Y156009D01*
X25476Y156729D01*
X25645Y157579D01*
X25476Y158428D01*
X24995Y159148D01*
X24275Y159630D01*
X23425Y159799D01*
D02*
G37*
G36*
X138465Y159661D02*
X137615Y159492D01*
X136895Y159011D01*
X136414Y158290D01*
X136245Y157441D01*
X136414Y156591D01*
X136895Y155871D01*
X137615Y155390D01*
X138465Y155221D01*
X139314Y155390D01*
X140034Y155871D01*
X140515Y156591D01*
X140684Y157441D01*
X140515Y158290D01*
X140034Y159011D01*
X139314Y159492D01*
X138465Y159661D01*
D02*
G37*
G36*
X389062Y159000D02*
X388212Y158831D01*
X387492Y158350D01*
X387011Y157630D01*
X386842Y156780D01*
X387011Y155931D01*
X387492Y155211D01*
X388212Y154730D01*
X389062Y154561D01*
X389911Y154730D01*
X390631Y155211D01*
X391112Y155931D01*
X391281Y156780D01*
X391112Y157630D01*
X390631Y158350D01*
X389911Y158831D01*
X389062Y159000D01*
D02*
G37*
G36*
X224021Y200232D02*
X183073Y200232D01*
X182683Y200155D01*
X182352Y199934D01*
X182131Y199603D01*
X182053Y199213D01*
X182053Y156531D01*
X159361Y156531D01*
X158970Y156454D01*
X158640Y156233D01*
X158419Y155902D01*
X158341Y155512D01*
Y139107D01*
X105829Y139107D01*
X105829Y152953D01*
X105751Y153343D01*
X105530Y153674D01*
X105200Y153895D01*
X104809Y153972D01*
X73622Y153972D01*
X73232Y153895D01*
X73134Y153829D01*
X72976Y153934D01*
X72586Y154012D01*
X47830Y154012D01*
X47440Y153934D01*
X47109Y153713D01*
X46888Y153382D01*
X46811Y152992D01*
X46810Y97244D01*
X46888Y96854D01*
X47109Y96523D01*
X47440Y96302D01*
X47830Y96224D01*
X102838Y96224D01*
X102838Y72397D01*
X102916Y72006D01*
X102996Y71887D01*
X102916Y71767D01*
X102838Y71377D01*
X102838Y57500D01*
X102916Y57110D01*
X103137Y56779D01*
X103468Y56558D01*
X103858Y56480D01*
X174057Y56480D01*
X174448Y56558D01*
X174778Y56779D01*
X174999Y57110D01*
X175077Y57500D01*
X175077Y114348D01*
X206299Y114348D01*
X206689Y114426D01*
X207020Y114647D01*
X207241Y114978D01*
X207319Y115368D01*
Y115596D01*
X207677Y115890D01*
X208527Y116059D01*
X209247Y116541D01*
X209728Y117261D01*
X209897Y118110D01*
X209728Y118960D01*
X209247Y119680D01*
X208527Y120161D01*
X207677Y120330D01*
X207319Y120624D01*
Y129770D01*
X207677Y130064D01*
X208527Y130233D01*
X209247Y130714D01*
X209728Y131434D01*
X209897Y132283D01*
X209728Y133133D01*
X209247Y133853D01*
X208527Y134334D01*
X207677Y134503D01*
X207319Y134797D01*
X207319Y138501D01*
X207677Y138795D01*
X208527Y138964D01*
X209247Y139446D01*
X209728Y140166D01*
X209897Y141015D01*
X209728Y141865D01*
X209247Y142585D01*
X208527Y143066D01*
X207677Y143235D01*
X207319Y143529D01*
Y152998D01*
X207677Y153292D01*
X208527Y153461D01*
X209247Y153942D01*
X209643Y154535D01*
X209698Y154512D01*
X209718D01*
X209738Y154505D01*
X209818Y154508D01*
X209897Y154492D01*
X224375Y154492D01*
X224765Y154570D01*
X225096Y154791D01*
X225317Y155122D01*
X225394Y155512D01*
X225395Y198859D01*
X225317Y199249D01*
X225096Y199580D01*
X224742Y199934D01*
X224412Y200155D01*
X224021Y200232D01*
D02*
G37*
G36*
X267189Y156574D02*
X266340Y156405D01*
X265619Y155924D01*
X265138Y155204D01*
X264969Y154355D01*
X265138Y153505D01*
X265619Y152785D01*
X266340Y152304D01*
X267189Y152135D01*
X268039Y152304D01*
X268759Y152785D01*
X269240Y153505D01*
X269409Y154355D01*
X269240Y155204D01*
X268759Y155924D01*
X268039Y156405D01*
X267189Y156574D01*
D02*
G37*
G36*
X257543D02*
X256694Y156405D01*
X255974Y155924D01*
X255493Y155204D01*
X255324Y154355D01*
X255493Y153505D01*
X255974Y152785D01*
X256694Y152304D01*
X257543Y152135D01*
X258393Y152304D01*
X259113Y152785D01*
X259594Y153505D01*
X259763Y154355D01*
X259594Y155204D01*
X259113Y155924D01*
X258393Y156405D01*
X257543Y156574D01*
D02*
G37*
G36*
X241831Y156551D02*
X240981Y156381D01*
X240261Y155900D01*
X239780Y155180D01*
X239611Y154331D01*
X239780Y153481D01*
X240261Y152761D01*
X240981Y152280D01*
X241831Y152111D01*
X242680Y152280D01*
X243400Y152761D01*
X243882Y153481D01*
X244050Y154331D01*
X243882Y155180D01*
X243400Y155900D01*
X242680Y156381D01*
X241831Y156551D01*
D02*
G37*
G36*
X336776Y155811D02*
X335926Y155642D01*
X335206Y155161D01*
X334725Y154440D01*
X334556Y153591D01*
X334725Y152742D01*
X335206Y152021D01*
X335926Y151540D01*
X336776Y151371D01*
X337625Y151540D01*
X338345Y152021D01*
X338826Y152742D01*
X338996Y153591D01*
X338826Y154440D01*
X338345Y155161D01*
X337625Y155642D01*
X336776Y155811D01*
D02*
G37*
G36*
X371323Y155787D02*
X370474Y155618D01*
X369753Y155137D01*
X369272Y154417D01*
X369103Y153567D01*
X369272Y152718D01*
X369753Y151997D01*
X370474Y151516D01*
X371323Y151347D01*
X372172Y151516D01*
X372893Y151997D01*
X373374Y152718D01*
X373543Y153567D01*
X373374Y154417D01*
X372893Y155137D01*
X372172Y155618D01*
X371323Y155787D01*
D02*
G37*
G36*
X300394Y155468D02*
X299544Y155299D01*
X298824Y154818D01*
X298343Y154097D01*
X298174Y153248D01*
X298343Y152399D01*
X298824Y151678D01*
X299544Y151197D01*
X300394Y151028D01*
X301243Y151197D01*
X301963Y151678D01*
X302445Y152399D01*
X302613Y153248D01*
X302445Y154097D01*
X301963Y154818D01*
X301243Y155299D01*
X300394Y155468D01*
D02*
G37*
G36*
X319398Y153723D02*
Y150500D01*
X322620D01*
X322557Y150980D01*
X322178Y151894D01*
X321576Y152679D01*
X320792Y153281D01*
X319878Y153659D01*
X319398Y153723D01*
D02*
G37*
G36*
X318398Y153723D02*
X317917Y153659D01*
X317003Y153281D01*
X316219Y152679D01*
X315617Y151894D01*
X315238Y150980D01*
X315175Y150500D01*
X318398D01*
Y153723D01*
D02*
G37*
G36*
X420776Y153723D02*
Y150500D01*
X423998D01*
X423935Y150980D01*
X423556Y151894D01*
X422954Y152679D01*
X422170Y153281D01*
X421256Y153659D01*
X420776Y153723D01*
D02*
G37*
G36*
X419776D02*
X419295Y153659D01*
X418381Y153281D01*
X417597Y152679D01*
X416995Y151894D01*
X416616Y150980D01*
X416553Y150500D01*
X419776D01*
Y153723D01*
D02*
G37*
G36*
X394685Y154385D02*
X393836Y154216D01*
X393115Y153735D01*
X392634Y153015D01*
X392465Y152165D01*
X392634Y151316D01*
X393115Y150596D01*
X393836Y150115D01*
X394685Y149945D01*
X395534Y150115D01*
X396255Y150596D01*
X396736Y151316D01*
X396905Y152165D01*
X396736Y153015D01*
X396255Y153735D01*
X395534Y154216D01*
X394685Y154385D01*
D02*
G37*
G36*
X142126Y153991D02*
X141277Y153823D01*
X140556Y153341D01*
X140075Y152621D01*
X139906Y151772D01*
X140075Y150922D01*
X140556Y150202D01*
X141277Y149721D01*
X142126Y149552D01*
X142975Y149721D01*
X143696Y150202D01*
X144177Y150922D01*
X144346Y151772D01*
X144177Y152621D01*
X143696Y153341D01*
X142975Y153823D01*
X142126Y153991D01*
D02*
G37*
G36*
X134646D02*
X133796Y153823D01*
X133076Y153341D01*
X132595Y152621D01*
X132426Y151772D01*
X132595Y150922D01*
X133076Y150202D01*
X133796Y149721D01*
X134646Y149552D01*
X135495Y149721D01*
X136215Y150202D01*
X136697Y150922D01*
X136865Y151772D01*
X136697Y152621D01*
X136215Y153341D01*
X135495Y153823D01*
X134646Y153991D01*
D02*
G37*
G36*
X382480Y153795D02*
X381631Y153626D01*
X380911Y153144D01*
X380430Y152424D01*
X380260Y151575D01*
X380430Y150725D01*
X380911Y150005D01*
X381631Y149524D01*
X382480Y149355D01*
X383330Y149524D01*
X384050Y150005D01*
X384531Y150725D01*
X384700Y151575D01*
X384531Y152424D01*
X384050Y153144D01*
X383330Y153626D01*
X382480Y153795D01*
D02*
G37*
G36*
X377480D02*
X376631Y153626D01*
X375911Y153144D01*
X375430Y152424D01*
X375260Y151575D01*
X375430Y150725D01*
X375911Y150005D01*
X376631Y149524D01*
X377480Y149355D01*
X378330Y149524D01*
X379050Y150005D01*
X379531Y150725D01*
X379700Y151575D01*
X379531Y152424D01*
X379050Y153144D01*
X378330Y153626D01*
X377480Y153795D01*
D02*
G37*
G36*
X365811Y151793D02*
X364962Y151623D01*
X364242Y151142D01*
X363760Y150422D01*
X363591Y149573D01*
X363760Y148723D01*
X364242Y148003D01*
X364962Y147522D01*
X365811Y147353D01*
X366661Y147522D01*
X367381Y148003D01*
X367862Y148723D01*
X368031Y149573D01*
X367862Y150422D01*
X367381Y151142D01*
X366661Y151623D01*
X365811Y151793D01*
D02*
G37*
G36*
X124114Y151039D02*
X123265Y150870D01*
X122545Y150389D01*
X122063Y149668D01*
X121894Y148819D01*
X122063Y147969D01*
X122545Y147249D01*
X123265Y146768D01*
X124114Y146599D01*
X124964Y146768D01*
X125684Y147249D01*
X126165Y147969D01*
X126334Y148819D01*
X126165Y149668D01*
X125684Y150389D01*
X124964Y150870D01*
X124114Y151039D01*
D02*
G37*
G36*
X115354D02*
X114505Y150870D01*
X113785Y150389D01*
X113303Y149668D01*
X113135Y148819D01*
X113303Y147969D01*
X113785Y147249D01*
X114505Y146768D01*
X115354Y146599D01*
X116204Y146768D01*
X116924Y147249D01*
X117405Y147969D01*
X117574Y148819D01*
X117405Y149668D01*
X116924Y150389D01*
X116204Y150870D01*
X115354Y151039D01*
D02*
G37*
G36*
X318398Y149500D02*
X315175D01*
X315238Y149020D01*
X315617Y148106D01*
X316219Y147321D01*
X317003Y146719D01*
X317917Y146341D01*
X318398Y146277D01*
Y149500D01*
D02*
G37*
G36*
X423998Y149500D02*
X420776D01*
Y146277D01*
X421256Y146341D01*
X422170Y146719D01*
X422954Y147321D01*
X423556Y148106D01*
X423935Y149020D01*
X423998Y149500D01*
D02*
G37*
G36*
X419776D02*
X416553D01*
X416616Y149020D01*
X416995Y148106D01*
X417597Y147321D01*
X418381Y146719D01*
X419295Y146341D01*
X419776Y146277D01*
Y149500D01*
D02*
G37*
G36*
X322620Y149500D02*
X319398D01*
Y146277D01*
X319878Y146341D01*
X320792Y146719D01*
X321576Y147321D01*
X322178Y148106D01*
X322557Y149020D01*
X322620Y149500D01*
D02*
G37*
G36*
X410276Y153788D02*
X409295Y153659D01*
X408381Y153281D01*
X407597Y152679D01*
X406995Y151894D01*
X406616Y150980D01*
X406487Y150000D01*
X406616Y149020D01*
X406995Y148106D01*
X407597Y147321D01*
X408381Y146719D01*
X409295Y146341D01*
X410276Y146212D01*
X411256Y146341D01*
X412170Y146719D01*
X412954Y147321D01*
X413556Y148106D01*
X413935Y149020D01*
X414064Y150000D01*
X413935Y150980D01*
X413556Y151894D01*
X412954Y152679D01*
X412170Y153281D01*
X411256Y153659D01*
X410276Y153788D01*
D02*
G37*
G36*
X328898D02*
X327917Y153659D01*
X327004Y153281D01*
X326219Y152679D01*
X325617Y151894D01*
X325238Y150980D01*
X325109Y150000D01*
X325238Y149020D01*
X325617Y148106D01*
X326219Y147321D01*
X327004Y146719D01*
X327917Y146341D01*
X328898Y146212D01*
X329878Y146341D01*
X330792Y146719D01*
X331576Y147321D01*
X332178Y148106D01*
X332557Y149020D01*
X332686Y150000D01*
X332557Y150980D01*
X332178Y151894D01*
X331576Y152679D01*
X330792Y153281D01*
X329878Y153659D01*
X328898Y153788D01*
D02*
G37*
G36*
X308898D02*
X307917Y153659D01*
X307003Y153281D01*
X306219Y152679D01*
X305617Y151894D01*
X305238Y150980D01*
X305109Y150000D01*
X305238Y149020D01*
X305617Y148106D01*
X306219Y147321D01*
X307003Y146719D01*
X307917Y146341D01*
X308898Y146212D01*
X309878Y146341D01*
X310792Y146719D01*
X311576Y147321D01*
X312178Y148106D01*
X312557Y149020D01*
X312686Y150000D01*
X312557Y150980D01*
X312178Y151894D01*
X311576Y152679D01*
X310792Y153281D01*
X309878Y153659D01*
X308898Y153788D01*
D02*
G37*
G36*
X216732Y150448D02*
X215883Y150279D01*
X215163Y149798D01*
X214681Y149078D01*
X214512Y148228D01*
X214681Y147379D01*
X215163Y146659D01*
X215883Y146177D01*
X216732Y146009D01*
X217582Y146177D01*
X218302Y146659D01*
X218783Y147379D01*
X218952Y148228D01*
X218783Y149078D01*
X218302Y149798D01*
X217582Y150279D01*
X216732Y150448D01*
D02*
G37*
G36*
X280512Y154187D02*
X279377Y154038D01*
X278320Y153600D01*
X277412Y152903D01*
X276715Y151995D01*
X276277Y150938D01*
X276128Y149803D01*
X276277Y148669D01*
X276715Y147611D01*
X277412Y146703D01*
X278320Y146007D01*
X279377Y145569D01*
X280512Y145419D01*
X281646Y145569D01*
X282704Y146007D01*
X283612Y146703D01*
X284308Y147611D01*
X284746Y148669D01*
X284896Y149803D01*
X284746Y150938D01*
X284308Y151995D01*
X283612Y152903D01*
X282704Y153600D01*
X281646Y154038D01*
X280512Y154187D01*
D02*
G37*
G36*
X387480Y149759D02*
X386631Y149590D01*
X385911Y149109D01*
X385430Y148389D01*
X385261Y147539D01*
X385430Y146690D01*
X385911Y145970D01*
X386631Y145489D01*
X387480Y145320D01*
X388330Y145489D01*
X389050Y145970D01*
X389531Y146690D01*
X389700Y147539D01*
X389531Y148389D01*
X389050Y149109D01*
X388330Y149590D01*
X387480Y149759D01*
D02*
G37*
G36*
X372480D02*
X371631Y149590D01*
X370911Y149109D01*
X370429Y148389D01*
X370261Y147539D01*
X370429Y146690D01*
X370911Y145970D01*
X371631Y145489D01*
X372480Y145320D01*
X373330Y145489D01*
X374050Y145970D01*
X374531Y146690D01*
X374700Y147539D01*
X374531Y148389D01*
X374050Y149109D01*
X373330Y149590D01*
X372480Y149759D01*
D02*
G37*
G36*
X25984Y149149D02*
X25135Y148980D01*
X24415Y148499D01*
X23933Y147779D01*
X23765Y146929D01*
X23933Y146080D01*
X24415Y145360D01*
X25135Y144878D01*
X25984Y144709D01*
X26834Y144878D01*
X27554Y145360D01*
X28035Y146080D01*
X28204Y146929D01*
X28035Y147779D01*
X27554Y148499D01*
X26834Y148980D01*
X25984Y149149D01*
D02*
G37*
G36*
X248031Y147270D02*
X247182Y147101D01*
X246462Y146620D01*
X245981Y145900D01*
X245812Y145050D01*
X245981Y144201D01*
X246462Y143481D01*
X247182Y142999D01*
X248031Y142831D01*
X248881Y142999D01*
X249601Y143481D01*
X250082Y144201D01*
X250251Y145050D01*
X250082Y145900D01*
X249601Y146620D01*
X248881Y147101D01*
X248031Y147270D01*
D02*
G37*
G36*
X235728D02*
X234879Y147101D01*
X234159Y146620D01*
X233678Y145900D01*
X233508Y145050D01*
X233678Y144201D01*
X234159Y143481D01*
X234879Y142999D01*
X235728Y142831D01*
X236578Y142999D01*
X237298Y143481D01*
X237779Y144201D01*
X237948Y145050D01*
X237779Y145900D01*
X237298Y146620D01*
X236578Y147101D01*
X235728Y147270D01*
D02*
G37*
G36*
X134252Y146754D02*
X133403Y146586D01*
X132682Y146104D01*
X132201Y145384D01*
X132032Y144535D01*
X132201Y143685D01*
X132682Y142965D01*
X133403Y142484D01*
X134252Y142315D01*
X135101Y142484D01*
X135822Y142965D01*
X136303Y143685D01*
X136472Y144535D01*
X136303Y145384D01*
X135822Y146104D01*
X135101Y146586D01*
X134252Y146754D01*
D02*
G37*
G36*
X142913Y146708D02*
X142064Y146539D01*
X141344Y146058D01*
X140863Y145338D01*
X140694Y144488D01*
X140863Y143639D01*
X141344Y142919D01*
X142064Y142437D01*
X142913Y142268D01*
X143763Y142437D01*
X144483Y142919D01*
X144964Y143639D01*
X145133Y144488D01*
X144964Y145338D01*
X144483Y146058D01*
X143763Y146539D01*
X142913Y146708D01*
D02*
G37*
G36*
X392480Y145625D02*
X391631Y145456D01*
X390911Y144975D01*
X390429Y144255D01*
X390261Y143405D01*
X390429Y142556D01*
X390911Y141836D01*
X391631Y141355D01*
X392480Y141186D01*
X393330Y141355D01*
X394050Y141836D01*
X394531Y142556D01*
X394700Y143405D01*
X394531Y144255D01*
X394050Y144975D01*
X393330Y145456D01*
X392480Y145625D01*
D02*
G37*
G36*
X367421D02*
X366572Y145456D01*
X365852Y144975D01*
X365370Y144255D01*
X365201Y143405D01*
X365370Y142556D01*
X365852Y141836D01*
X366572Y141355D01*
X367421Y141186D01*
X368271Y141355D01*
X368991Y141836D01*
X369472Y142556D01*
X369641Y143405D01*
X369472Y144255D01*
X368991Y144975D01*
X368271Y145456D01*
X367421Y145625D01*
D02*
G37*
G36*
X33773Y149149D02*
X32923Y148980D01*
X32203Y148499D01*
X31722Y147779D01*
X31553Y146929D01*
X31722Y146080D01*
X32203Y145360D01*
X32923Y144878D01*
X33773Y144709D01*
X34455Y144845D01*
X34776Y144425D01*
X34662Y144255D01*
X34493Y143405D01*
X34662Y142556D01*
X35143Y141836D01*
X35863Y141355D01*
X36713Y141186D01*
X37562Y141355D01*
X38282Y141836D01*
X38763Y142556D01*
X38932Y143405D01*
X38763Y144255D01*
X38282Y144975D01*
X37562Y145456D01*
X36713Y145625D01*
X36030Y145490D01*
X35709Y145909D01*
X35823Y146080D01*
X35992Y146929D01*
X35823Y147779D01*
X35342Y148499D01*
X34622Y148980D01*
X33773Y149149D01*
D02*
G37*
G36*
X357480Y145133D02*
X356631Y144964D01*
X355911Y144483D01*
X355430Y143763D01*
X355260Y142913D01*
X355430Y142064D01*
X355911Y141344D01*
X356631Y140863D01*
X357480Y140694D01*
X358330Y140863D01*
X359050Y141344D01*
X359531Y142064D01*
X359700Y142913D01*
X359531Y143763D01*
X359050Y144483D01*
X358330Y144964D01*
X357480Y145133D01*
D02*
G37*
G36*
X397480Y144936D02*
X396631Y144767D01*
X395911Y144286D01*
X395429Y143566D01*
X395261Y142717D01*
X395429Y141867D01*
X395911Y141147D01*
X396631Y140666D01*
X397480Y140497D01*
X398330Y140666D01*
X399050Y141147D01*
X399531Y141867D01*
X399700Y142717D01*
X399531Y143566D01*
X399050Y144286D01*
X398330Y144767D01*
X397480Y144936D01*
D02*
G37*
G36*
X415575Y140629D02*
X414725Y140461D01*
X414005Y139979D01*
X413524Y139259D01*
X413355Y138410D01*
X413524Y137560D01*
X414005Y136840D01*
X414725Y136359D01*
X415575Y136190D01*
X416424Y136359D01*
X417144Y136840D01*
X417626Y137560D01*
X417795Y138410D01*
X417626Y139259D01*
X417144Y139979D01*
X416424Y140461D01*
X415575Y140629D01*
D02*
G37*
G36*
X280512Y144345D02*
X279377Y144195D01*
X278320Y143757D01*
X277412Y143061D01*
X276715Y142153D01*
X276277Y141095D01*
X276128Y139961D01*
X276277Y138826D01*
X276715Y137769D01*
X277412Y136861D01*
X278320Y136164D01*
X279377Y135726D01*
X280512Y135577D01*
X281646Y135726D01*
X282704Y136164D01*
X283612Y136861D01*
X284308Y137769D01*
X284746Y138826D01*
X284896Y139961D01*
X284746Y141095D01*
X284308Y142153D01*
X283612Y143061D01*
X282704Y143757D01*
X281646Y144195D01*
X280512Y144345D01*
D02*
G37*
G36*
X401850Y138539D02*
X401001Y138370D01*
X400281Y137889D01*
X399799Y137168D01*
X399630Y136319D01*
X399799Y135469D01*
X400281Y134749D01*
X401001Y134268D01*
X401850Y134099D01*
X402700Y134268D01*
X403420Y134749D01*
X403901Y135469D01*
X404070Y136319D01*
X403901Y137168D01*
X403420Y137889D01*
X402700Y138370D01*
X401850Y138539D01*
D02*
G37*
G36*
X225098Y138440D02*
X224249Y138271D01*
X223529Y137790D01*
X223048Y137070D01*
X222879Y136221D01*
X223048Y135371D01*
X223529Y134651D01*
X224249Y134170D01*
X225098Y134001D01*
X225948Y134170D01*
X226668Y134651D01*
X227149Y135371D01*
X227318Y136221D01*
X227149Y137070D01*
X226668Y137790D01*
X225948Y138271D01*
X225098Y138440D01*
D02*
G37*
G36*
X241831Y138047D02*
X240981Y137878D01*
X240261Y137396D01*
X239780Y136676D01*
X239611Y135827D01*
X239780Y134977D01*
X240261Y134257D01*
X240981Y133776D01*
X241831Y133607D01*
X242680Y133776D01*
X243400Y134257D01*
X243882Y134977D01*
X244050Y135827D01*
X243882Y136676D01*
X243400Y137396D01*
X242680Y137878D01*
X241831Y138047D01*
D02*
G37*
G36*
X305118Y137161D02*
X304269Y136992D01*
X303549Y136511D01*
X303067Y135790D01*
X302898Y134941D01*
X303067Y134091D01*
X303549Y133371D01*
X304269Y132890D01*
X305118Y132721D01*
X305968Y132890D01*
X306688Y133371D01*
X307169Y134091D01*
X307338Y134941D01*
X307169Y135790D01*
X306688Y136511D01*
X305968Y136992D01*
X305118Y137161D01*
D02*
G37*
G36*
X281012Y134436D02*
Y130618D01*
X284830D01*
X284746Y131253D01*
X284308Y132310D01*
X283612Y133218D01*
X282704Y133915D01*
X281646Y134353D01*
X281012Y134436D01*
D02*
G37*
G36*
X280012Y134436D02*
X279377Y134353D01*
X278320Y133915D01*
X277412Y133218D01*
X276715Y132310D01*
X276277Y131253D01*
X276194Y130618D01*
X280012D01*
Y134436D01*
D02*
G37*
G36*
X30504Y134700D02*
X29654Y134531D01*
X28934Y134050D01*
X28453Y133330D01*
X28284Y132480D01*
X28453Y131631D01*
X28934Y130911D01*
X29654Y130429D01*
X30504Y130261D01*
X31353Y130429D01*
X32074Y130911D01*
X32555Y131631D01*
X32724Y132480D01*
X32555Y133330D01*
X32074Y134050D01*
X31353Y134531D01*
X30504Y134700D01*
D02*
G37*
G36*
X313794Y132619D02*
X312944Y132450D01*
X312224Y131969D01*
X311743Y131249D01*
X311574Y130399D01*
X311743Y129550D01*
X312224Y128830D01*
X312944Y128348D01*
X313794Y128179D01*
X314643Y128348D01*
X315363Y128830D01*
X315844Y129550D01*
X316014Y130399D01*
X315844Y131249D01*
X315363Y131969D01*
X314643Y132450D01*
X313794Y132619D01*
D02*
G37*
G36*
X329641Y132436D02*
X328791Y132267D01*
X328071Y131786D01*
X327590Y131066D01*
X327421Y130217D01*
X327590Y129367D01*
X328071Y128647D01*
X328791Y128166D01*
X329641Y127997D01*
X330490Y128166D01*
X331210Y128647D01*
X331692Y129367D01*
X331861Y130217D01*
X331692Y131066D01*
X331210Y131786D01*
X330490Y132267D01*
X329641Y132436D01*
D02*
G37*
G36*
X379921Y132239D02*
X379072Y132071D01*
X378352Y131589D01*
X377870Y130869D01*
X377701Y130020D01*
X377870Y129170D01*
X378352Y128450D01*
X379072Y127969D01*
X379921Y127800D01*
X380771Y127969D01*
X381491Y128450D01*
X381972Y129170D01*
X382141Y130020D01*
X381972Y130869D01*
X381491Y131589D01*
X380771Y132071D01*
X379921Y132239D01*
D02*
G37*
G36*
X357425D02*
X356576Y132071D01*
X355856Y131589D01*
X355375Y130869D01*
X355206Y130020D01*
X355375Y129170D01*
X355856Y128450D01*
X356576Y127969D01*
X357425Y127800D01*
X358275Y127969D01*
X358995Y128450D01*
X359476Y129170D01*
X359645Y130020D01*
X359476Y130869D01*
X358995Y131589D01*
X358275Y132071D01*
X357425Y132239D01*
D02*
G37*
G36*
X395398Y131377D02*
X394548Y131209D01*
X393828Y130727D01*
X393347Y130007D01*
X393178Y129158D01*
X393347Y128308D01*
X393828Y127588D01*
X394548Y127107D01*
X395398Y126938D01*
X396247Y127107D01*
X396967Y127588D01*
X397449Y128308D01*
X397618Y129158D01*
X397449Y130007D01*
X396967Y130727D01*
X396247Y131209D01*
X395398Y131377D01*
D02*
G37*
G36*
X280012Y129618D02*
X276194D01*
X276277Y128983D01*
X276715Y127926D01*
X277412Y127018D01*
X278320Y126321D01*
X279377Y125883D01*
X280012Y125800D01*
Y129618D01*
D02*
G37*
G36*
X284830D02*
X281012D01*
Y125800D01*
X281646Y125883D01*
X282704Y126321D01*
X283612Y127018D01*
X284308Y127926D01*
X284746Y128983D01*
X284830Y129618D01*
D02*
G37*
G36*
X25984Y130173D02*
X25135Y130004D01*
X24415Y129522D01*
X23933Y128802D01*
X23764Y127953D01*
X23933Y127103D01*
X24415Y126383D01*
X25135Y125902D01*
X25984Y125733D01*
X26834Y125902D01*
X27554Y126383D01*
X28035Y127103D01*
X28204Y127953D01*
X28035Y128802D01*
X27554Y129522D01*
X26834Y130004D01*
X25984Y130173D01*
D02*
G37*
G36*
X305118Y128991D02*
X304269Y128823D01*
X303549Y128341D01*
X303067Y127621D01*
X302898Y126772D01*
X303067Y125922D01*
X303549Y125202D01*
X304269Y124721D01*
X305118Y124552D01*
X305968Y124721D01*
X306688Y125202D01*
X307169Y125922D01*
X307338Y126772D01*
X307169Y127621D01*
X306688Y128341D01*
X305968Y128823D01*
X305118Y128991D01*
D02*
G37*
G36*
X389366Y129368D02*
X388695Y129280D01*
X388070Y129021D01*
X387533Y128609D01*
X387121Y128072D01*
X386862Y127446D01*
X386773Y126775D01*
X386862Y126104D01*
X387121Y125479D01*
X387533Y124942D01*
X388070Y124530D01*
X388695Y124271D01*
X389366Y124182D01*
X390037Y124271D01*
X390663Y124530D01*
X391200Y124942D01*
X391612Y125479D01*
X391871Y126104D01*
X391959Y126775D01*
X391871Y127446D01*
X391612Y128072D01*
X391200Y128609D01*
X390663Y129021D01*
X390037Y129280D01*
X389366Y129368D01*
D02*
G37*
G36*
X267484Y128228D02*
X266635Y128059D01*
X265915Y127578D01*
X265434Y126858D01*
X265265Y126008D01*
X265434Y125159D01*
X265915Y124439D01*
X266635Y123957D01*
X267484Y123788D01*
X268334Y123957D01*
X269054Y124439D01*
X269535Y125159D01*
X269704Y126008D01*
X269535Y126858D01*
X269054Y127578D01*
X268334Y128059D01*
X267484Y128228D01*
D02*
G37*
G36*
X325295Y127515D02*
X324446Y127346D01*
X323726Y126865D01*
X323244Y126145D01*
X323076Y125295D01*
X323244Y124446D01*
X323726Y123726D01*
X324446Y123244D01*
X325295Y123075D01*
X326145Y123244D01*
X326865Y123726D01*
X327346Y124446D01*
X327515Y125295D01*
X327346Y126145D01*
X326865Y126865D01*
X326145Y127346D01*
X325295Y127515D01*
D02*
G37*
G36*
X212205Y127417D02*
X211355Y127248D01*
X210635Y126767D01*
X210154Y126046D01*
X209985Y125197D01*
X210154Y124347D01*
X210635Y123627D01*
X211355Y123146D01*
X212205Y122977D01*
X213054Y123146D01*
X213774Y123627D01*
X214255Y124347D01*
X214424Y125197D01*
X214255Y126046D01*
X213774Y126767D01*
X213054Y127248D01*
X212205Y127417D01*
D02*
G37*
G36*
X347543Y126653D02*
X346694Y126484D01*
X345974Y126003D01*
X345493Y125283D01*
X345324Y124433D01*
X345493Y123584D01*
X345974Y122864D01*
X346694Y122382D01*
X347543Y122213D01*
X348393Y122382D01*
X349113Y122864D01*
X349594Y123584D01*
X349763Y124433D01*
X349594Y125283D01*
X349113Y126003D01*
X348393Y126484D01*
X347543Y126653D01*
D02*
G37*
G36*
X336411Y123086D02*
X335562Y122917D01*
X334841Y122436D01*
X334360Y121716D01*
X334191Y120866D01*
X334360Y120017D01*
X334841Y119297D01*
X335562Y118815D01*
X336411Y118646D01*
X337261Y118815D01*
X337981Y119297D01*
X338462Y120017D01*
X338631Y120866D01*
X338462Y121716D01*
X337981Y122436D01*
X337261Y122917D01*
X336411Y123086D01*
D02*
G37*
G36*
X41795Y122716D02*
X40946Y122547D01*
X40226Y122066D01*
X39744Y121346D01*
X39576Y120496D01*
X39744Y119647D01*
X40226Y118927D01*
X40946Y118446D01*
X41795Y118277D01*
X42645Y118446D01*
X43365Y118927D01*
X43846Y119647D01*
X44015Y120496D01*
X43846Y121346D01*
X43365Y122066D01*
X42645Y122547D01*
X41795Y122716D01*
D02*
G37*
G36*
X19193Y121117D02*
X18343Y120949D01*
X17623Y120467D01*
X17142Y119747D01*
X16973Y118898D01*
X17142Y118048D01*
X17623Y117328D01*
X18343Y116847D01*
X19193Y116678D01*
X20042Y116847D01*
X20763Y117328D01*
X21244Y118048D01*
X21413Y118898D01*
X21244Y119747D01*
X20763Y120467D01*
X20042Y120949D01*
X19193Y121117D01*
D02*
G37*
G36*
X379528Y120724D02*
X378678Y120555D01*
X377958Y120074D01*
X377477Y119353D01*
X377308Y118504D01*
X377477Y117654D01*
X377958Y116934D01*
X378678Y116453D01*
X379528Y116284D01*
X380377Y116453D01*
X381097Y116934D01*
X381578Y117654D01*
X381747Y118504D01*
X381578Y119353D01*
X381097Y120074D01*
X380377Y120555D01*
X379528Y120724D01*
D02*
G37*
G36*
X291043Y120035D02*
X290194Y119866D01*
X289474Y119385D01*
X288993Y118664D01*
X288824Y117815D01*
X288993Y116965D01*
X289474Y116245D01*
X290194Y115764D01*
X291043Y115595D01*
X291893Y115764D01*
X292613Y116245D01*
X293094Y116965D01*
X293263Y117815D01*
X293094Y118664D01*
X292613Y119385D01*
X291893Y119866D01*
X291043Y120035D01*
D02*
G37*
G36*
X387992Y119247D02*
X387143Y119078D01*
X386422Y118597D01*
X385941Y117877D01*
X385772Y117028D01*
X385941Y116178D01*
X386422Y115458D01*
X387143Y114977D01*
X387992Y114808D01*
X388842Y114977D01*
X389562Y115458D01*
X390043Y116178D01*
X390212Y117028D01*
X390043Y117877D01*
X389562Y118597D01*
X388842Y119078D01*
X387992Y119247D01*
D02*
G37*
G36*
X371457Y118558D02*
X370607Y118389D01*
X369887Y117908D01*
X369406Y117188D01*
X369237Y116339D01*
X369406Y115489D01*
X369887Y114769D01*
X370607Y114288D01*
X371457Y114119D01*
X372306Y114288D01*
X373026Y114769D01*
X373507Y115489D01*
X373676Y116339D01*
X373507Y117188D01*
X373026Y117908D01*
X372306Y118389D01*
X371457Y118558D01*
D02*
G37*
G36*
X417028Y115547D02*
X416178Y115378D01*
X415458Y114896D01*
X414977Y114176D01*
X414808Y113327D01*
X414977Y112477D01*
X415458Y111757D01*
X416178Y111276D01*
X417028Y111107D01*
X417877Y111276D01*
X418597Y111757D01*
X419078Y112477D01*
X419247Y113327D01*
X419078Y114176D01*
X418597Y114896D01*
X417877Y115378D01*
X417028Y115547D01*
D02*
G37*
G36*
X392126Y115409D02*
X391277Y115240D01*
X390556Y114759D01*
X390075Y114038D01*
X389906Y113189D01*
X390075Y112339D01*
X390556Y111619D01*
X391277Y111138D01*
X392126Y110969D01*
X392975Y111138D01*
X393696Y111619D01*
X394177Y112339D01*
X394346Y113189D01*
X394177Y114038D01*
X393696Y114759D01*
X392975Y115240D01*
X392126Y115409D01*
D02*
G37*
G36*
X367224Y115015D02*
X366375Y114846D01*
X365655Y114365D01*
X365174Y113645D01*
X365005Y112795D01*
X365174Y111946D01*
X365655Y111226D01*
X366375Y110744D01*
X367224Y110575D01*
X368074Y110744D01*
X368794Y111226D01*
X369275Y111946D01*
X369444Y112795D01*
X369275Y113645D01*
X368794Y114365D01*
X368074Y114846D01*
X367224Y115015D01*
D02*
G37*
G36*
X181201Y112615D02*
X180351Y112446D01*
X179631Y111965D01*
X179150Y111245D01*
X178981Y110395D01*
X179150Y109546D01*
X179631Y108826D01*
X180351Y108344D01*
X181201Y108176D01*
X182050Y108344D01*
X182770Y108826D01*
X183252Y109546D01*
X183421Y110395D01*
X183252Y111245D01*
X182770Y111965D01*
X182050Y112446D01*
X181201Y112615D01*
D02*
G37*
G36*
X217224Y112456D02*
X216375Y112287D01*
X215655Y111806D01*
X215174Y111086D01*
X215005Y110236D01*
X215174Y109387D01*
X215655Y108667D01*
X216375Y108185D01*
X217224Y108016D01*
X218074Y108185D01*
X218794Y108667D01*
X219275Y109387D01*
X219444Y110236D01*
X219275Y111086D01*
X218794Y111806D01*
X218074Y112287D01*
X217224Y112456D01*
D02*
G37*
G36*
X396161Y111570D02*
X395312Y111401D01*
X394592Y110920D01*
X394111Y110200D01*
X393942Y109350D01*
X394111Y108501D01*
X394592Y107781D01*
X395312Y107299D01*
X396161Y107131D01*
X397011Y107299D01*
X397731Y107781D01*
X398212Y108501D01*
X398381Y109350D01*
X398212Y110200D01*
X397731Y110920D01*
X397011Y111401D01*
X396161Y111570D01*
D02*
G37*
G36*
X362894D02*
X362044Y111401D01*
X361324Y110920D01*
X360843Y110200D01*
X360674Y109350D01*
X360843Y108501D01*
X361324Y107781D01*
X362044Y107299D01*
X362894Y107131D01*
X363743Y107299D01*
X364463Y107781D01*
X364945Y108501D01*
X365113Y109350D01*
X364945Y110200D01*
X364463Y110920D01*
X363743Y111401D01*
X362894Y111570D01*
D02*
G37*
G36*
X228902Y111015D02*
X228052Y110846D01*
X227332Y110365D01*
X226851Y109644D01*
X226682Y108795D01*
X226851Y107946D01*
X227332Y107225D01*
X228052Y106744D01*
X228902Y106575D01*
X229751Y106744D01*
X230471Y107225D01*
X230952Y107946D01*
X231121Y108795D01*
X230952Y109644D01*
X230471Y110365D01*
X229751Y110846D01*
X228902Y111015D01*
D02*
G37*
G36*
X283563Y110192D02*
X282714Y110023D01*
X281993Y109542D01*
X281512Y108822D01*
X281343Y107972D01*
X281512Y107123D01*
X281993Y106403D01*
X282714Y105922D01*
X283563Y105753D01*
X284413Y105922D01*
X285133Y106403D01*
X285614Y107123D01*
X285783Y107972D01*
X285614Y108822D01*
X285133Y109542D01*
X284413Y110023D01*
X283563Y110192D01*
D02*
G37*
G36*
X407126Y112407D02*
X406248Y112291D01*
X405431Y111952D01*
X404728Y111414D01*
X404189Y110711D01*
X403851Y109893D01*
X403735Y109016D01*
X403851Y108138D01*
X404189Y107320D01*
X404728Y106618D01*
X405431Y106079D01*
X406248Y105740D01*
X407126Y105625D01*
X408004Y105740D01*
X408821Y106079D01*
X409524Y106618D01*
X410063Y107320D01*
X410401Y108138D01*
X410517Y109016D01*
X410401Y109893D01*
X410063Y110711D01*
X409524Y111414D01*
X408821Y111952D01*
X408004Y112291D01*
X407126Y112407D01*
D02*
G37*
G36*
X14266Y109040D02*
X13416Y108871D01*
X12696Y108390D01*
X12215Y107670D01*
X12046Y106820D01*
X12215Y105971D01*
X12696Y105251D01*
X13416Y104770D01*
X14266Y104601D01*
X15115Y104770D01*
X15835Y105251D01*
X16317Y105971D01*
X16486Y106820D01*
X16317Y107670D01*
X15835Y108390D01*
X15115Y108871D01*
X14266Y109040D01*
D02*
G37*
G36*
X358169Y108519D02*
X357320Y108350D01*
X356600Y107869D01*
X356118Y107149D01*
X355949Y106299D01*
X356118Y105450D01*
X356600Y104730D01*
X357320Y104248D01*
X358169Y104079D01*
X359019Y104248D01*
X359739Y104730D01*
X360220Y105450D01*
X360389Y106299D01*
X360220Y107149D01*
X359739Y107869D01*
X359019Y108350D01*
X358169Y108519D01*
D02*
G37*
G36*
X267547Y107676D02*
X266698Y107507D01*
X265978Y107026D01*
X265497Y106306D01*
X265328Y105456D01*
X265497Y104607D01*
X265978Y103887D01*
X266698Y103406D01*
X267547Y103237D01*
X268397Y103406D01*
X269117Y103887D01*
X269598Y104607D01*
X269767Y105456D01*
X269598Y106306D01*
X269117Y107026D01*
X268397Y107507D01*
X267547Y107676D01*
D02*
G37*
G36*
X242611Y107652D02*
X241761Y107483D01*
X241041Y107002D01*
X240560Y106282D01*
X240391Y105433D01*
X240560Y104583D01*
X241041Y103863D01*
X241761Y103382D01*
X242611Y103213D01*
X243460Y103382D01*
X244180Y103863D01*
X244662Y104583D01*
X244831Y105433D01*
X244662Y106282D01*
X244180Y107002D01*
X243460Y107483D01*
X242611Y107652D01*
D02*
G37*
G36*
X288090Y105074D02*
X287241Y104905D01*
X286521Y104424D01*
X286040Y103704D01*
X285871Y102854D01*
X286040Y102005D01*
X286521Y101285D01*
X287241Y100803D01*
X288090Y100635D01*
X288940Y100803D01*
X289660Y101285D01*
X290141Y102005D01*
X290310Y102854D01*
X290141Y103704D01*
X289660Y104424D01*
X288940Y104905D01*
X288090Y105074D01*
D02*
G37*
G36*
X211516Y104582D02*
X210666Y104413D01*
X209946Y103932D01*
X209465Y103212D01*
X209296Y102362D01*
X209465Y101513D01*
X209946Y100793D01*
X210666Y100311D01*
X211516Y100142D01*
X212365Y100311D01*
X213085Y100793D01*
X213567Y101513D01*
X213736Y102362D01*
X213567Y103212D01*
X213085Y103932D01*
X212365Y104413D01*
X211516Y104582D01*
D02*
G37*
G36*
X41008Y103523D02*
X40159Y103354D01*
X39438Y102873D01*
X38957Y102153D01*
X38788Y101303D01*
X38957Y100454D01*
X39438Y99734D01*
X40159Y99252D01*
X41008Y99084D01*
X41857Y99252D01*
X42578Y99734D01*
X43059Y100454D01*
X43228Y101303D01*
X43059Y102153D01*
X42578Y102873D01*
X41857Y103354D01*
X41008Y103523D01*
D02*
G37*
G36*
X196063Y102712D02*
X195213Y102543D01*
X194493Y102062D01*
X194012Y101342D01*
X193843Y100492D01*
X194012Y99643D01*
X194493Y98922D01*
X195213Y98441D01*
X196063Y98272D01*
X196913Y98441D01*
X197633Y98922D01*
X198114Y99643D01*
X198283Y100492D01*
X198114Y101342D01*
X197633Y102062D01*
X196913Y102543D01*
X196063Y102712D01*
D02*
G37*
G36*
X314272Y102220D02*
X313422Y102051D01*
X312702Y101570D01*
X312221Y100849D01*
X312052Y100000D01*
X312221Y99151D01*
X312702Y98430D01*
X313422Y97949D01*
X314272Y97780D01*
X315121Y97949D01*
X315841Y98430D01*
X316322Y99151D01*
X316491Y100000D01*
X316322Y100849D01*
X315841Y101570D01*
X315121Y102051D01*
X314272Y102220D01*
D02*
G37*
G36*
X292028Y101629D02*
X291178Y101460D01*
X290458Y100979D01*
X289977Y100259D01*
X289808Y99410D01*
X289977Y98560D01*
X290458Y97840D01*
X291178Y97359D01*
X292028Y97190D01*
X292877Y97359D01*
X293597Y97840D01*
X294078Y98560D01*
X294247Y99410D01*
X294078Y100259D01*
X293597Y100979D01*
X292877Y101460D01*
X292028Y101629D01*
D02*
G37*
G36*
X338583Y101137D02*
X337733Y100968D01*
X337013Y100487D01*
X336532Y99767D01*
X336363Y98917D01*
X336532Y98068D01*
X337013Y97348D01*
X337733Y96866D01*
X338583Y96697D01*
X339432Y96866D01*
X340152Y97348D01*
X340634Y98068D01*
X340803Y98917D01*
X340634Y99767D01*
X340152Y100487D01*
X339432Y100968D01*
X338583Y101137D01*
D02*
G37*
G36*
X417126Y102407D02*
X416248Y102291D01*
X415430Y101952D01*
X414728Y101414D01*
X414189Y100711D01*
X413850Y99893D01*
X413735Y99016D01*
X413850Y98138D01*
X414189Y97320D01*
X414728Y96618D01*
X415430Y96079D01*
X416248Y95740D01*
X417126Y95625D01*
X418004Y95740D01*
X418821Y96079D01*
X419524Y96618D01*
X420063Y97320D01*
X420401Y98138D01*
X420517Y99016D01*
X420401Y99893D01*
X420063Y100711D01*
X419524Y101414D01*
X418821Y101952D01*
X418004Y102291D01*
X417126Y102407D01*
D02*
G37*
G36*
X186024Y96610D02*
X185174Y96441D01*
X184454Y95959D01*
X183973Y95239D01*
X183804Y94390D01*
X183973Y93540D01*
X184454Y92820D01*
X185174Y92339D01*
X186024Y92170D01*
X186873Y92339D01*
X187593Y92820D01*
X188075Y93540D01*
X188243Y94390D01*
X188075Y95239D01*
X187593Y95959D01*
X186873Y96441D01*
X186024Y96610D01*
D02*
G37*
G36*
X248524Y92968D02*
X247674Y92799D01*
X246954Y92318D01*
X246473Y91597D01*
X246304Y90748D01*
X246473Y89899D01*
X246954Y89178D01*
X247674Y88697D01*
X248524Y88528D01*
X249373Y88697D01*
X250093Y89178D01*
X250574Y89899D01*
X250743Y90748D01*
X250574Y91597D01*
X250093Y92318D01*
X249373Y92799D01*
X248524Y92968D01*
D02*
G37*
G36*
X190236Y92771D02*
X189387Y92602D01*
X188667Y92121D01*
X188185Y91401D01*
X188016Y90551D01*
X188185Y89702D01*
X188667Y88981D01*
X189387Y88500D01*
X190236Y88331D01*
X191086Y88500D01*
X191806Y88981D01*
X192287Y89702D01*
X192456Y90551D01*
X192287Y91401D01*
X191806Y92121D01*
X191086Y92602D01*
X190236Y92771D01*
D02*
G37*
G36*
X410630Y91196D02*
X409780Y91027D01*
X409060Y90546D01*
X408579Y89826D01*
X408410Y88976D01*
X408579Y88127D01*
X409060Y87407D01*
X409780Y86926D01*
X410630Y86757D01*
X411479Y86926D01*
X412199Y87407D01*
X412681Y88127D01*
X412850Y88976D01*
X412681Y89826D01*
X412199Y90546D01*
X411479Y91027D01*
X410630Y91196D01*
D02*
G37*
G36*
X420472Y91196D02*
X419623Y91027D01*
X418903Y90546D01*
X418422Y89826D01*
X418253Y88976D01*
X418422Y88127D01*
X418903Y87407D01*
X419623Y86926D01*
X420472Y86757D01*
X421322Y86926D01*
X422042Y87407D01*
X422523Y88127D01*
X422692Y88976D01*
X422523Y89826D01*
X422042Y90546D01*
X421322Y91027D01*
X420472Y91196D01*
D02*
G37*
G36*
X242323Y90433D02*
X241473Y90264D01*
X240753Y89783D01*
X240272Y89062D01*
X240103Y88213D01*
X240272Y87363D01*
X240753Y86643D01*
X241473Y86162D01*
X242323Y85993D01*
X243172Y86162D01*
X243893Y86643D01*
X244374Y87363D01*
X244543Y88213D01*
X244374Y89062D01*
X243893Y89783D01*
X243172Y90264D01*
X242323Y90433D01*
D02*
G37*
G36*
X235890D02*
X235040Y90264D01*
X234320Y89783D01*
X233839Y89062D01*
X233670Y88213D01*
X233839Y87363D01*
X234320Y86643D01*
X235040Y86162D01*
X235890Y85993D01*
X236739Y86162D01*
X237459Y86643D01*
X237941Y87363D01*
X238110Y88213D01*
X237941Y89062D01*
X237459Y89783D01*
X236739Y90264D01*
X235890Y90433D01*
D02*
G37*
G36*
X194532D02*
X193682Y90264D01*
X192962Y89783D01*
X192481Y89062D01*
X192312Y88213D01*
X192481Y87363D01*
X192962Y86643D01*
X193682Y86162D01*
X194532Y85993D01*
X195381Y86162D01*
X196101Y86643D01*
X196582Y87363D01*
X196751Y88213D01*
X196582Y89062D01*
X196101Y89783D01*
X195381Y90264D01*
X194532Y90433D01*
D02*
G37*
G36*
X95768Y90207D02*
X94918Y90038D01*
X94198Y89557D01*
X93717Y88837D01*
X93548Y87988D01*
X93717Y87138D01*
X94198Y86418D01*
X94918Y85937D01*
X95768Y85768D01*
X96617Y85937D01*
X97337Y86418D01*
X97819Y87138D01*
X97988Y87988D01*
X97819Y88837D01*
X97337Y89557D01*
X96617Y90038D01*
X95768Y90207D01*
D02*
G37*
G36*
X253051Y89326D02*
X252202Y89157D01*
X251482Y88676D01*
X251000Y87956D01*
X250831Y87106D01*
X251000Y86257D01*
X251482Y85537D01*
X252202Y85056D01*
X253051Y84886D01*
X253901Y85056D01*
X254621Y85537D01*
X255102Y86257D01*
X255271Y87106D01*
X255102Y87956D01*
X254621Y88676D01*
X253901Y89157D01*
X253051Y89326D01*
D02*
G37*
G36*
X270634Y88882D02*
X269784Y88713D01*
X269064Y88231D01*
X268583Y87511D01*
X268414Y86662D01*
X268583Y85812D01*
X269064Y85092D01*
X269784Y84611D01*
X270634Y84442D01*
X271483Y84611D01*
X272204Y85092D01*
X272685Y85812D01*
X272854Y86662D01*
X272685Y87511D01*
X272204Y88231D01*
X271483Y88713D01*
X270634Y88882D01*
D02*
G37*
G36*
X358268Y88834D02*
X357418Y88665D01*
X356698Y88184D01*
X356217Y87464D01*
X356048Y86614D01*
X356217Y85765D01*
X356698Y85044D01*
X357418Y84563D01*
X358268Y84394D01*
X359117Y84563D01*
X359837Y85044D01*
X360319Y85765D01*
X360488Y86614D01*
X360319Y87464D01*
X359837Y88184D01*
X359117Y88665D01*
X358268Y88834D01*
D02*
G37*
G36*
X54724Y88499D02*
X53875Y88330D01*
X53155Y87849D01*
X52674Y87129D01*
X52505Y86279D01*
X52674Y85430D01*
X53155Y84710D01*
X53875Y84229D01*
X54724Y84060D01*
X55574Y84229D01*
X56294Y84710D01*
X56775Y85430D01*
X56944Y86279D01*
X56775Y87129D01*
X56294Y87849D01*
X55574Y88330D01*
X54724Y88499D01*
D02*
G37*
G36*
X32283D02*
X31434Y88330D01*
X30714Y87849D01*
X30233Y87129D01*
X30064Y86279D01*
X30233Y85430D01*
X30714Y84710D01*
X31434Y84229D01*
X32283Y84060D01*
X33133Y84229D01*
X33853Y84710D01*
X34334Y85430D01*
X34503Y86279D01*
X34334Y87129D01*
X33853Y87849D01*
X33133Y88330D01*
X32283Y88499D01*
D02*
G37*
G36*
X326015Y88440D02*
X325165Y88271D01*
X324445Y87790D01*
X323964Y87070D01*
X323795Y86221D01*
X323964Y85371D01*
X324445Y84651D01*
X325165Y84170D01*
X326015Y84001D01*
X326864Y84170D01*
X327585Y84651D01*
X328066Y85371D01*
X328235Y86221D01*
X328066Y87070D01*
X327585Y87790D01*
X326864Y88271D01*
X326015Y88440D01*
D02*
G37*
G36*
X376441Y88070D02*
X375592Y87902D01*
X374871Y87420D01*
X374390Y86700D01*
X374221Y85851D01*
X374390Y85001D01*
X374871Y84281D01*
X375592Y83800D01*
X376441Y83631D01*
X377291Y83800D01*
X378011Y84281D01*
X378492Y85001D01*
X378661Y85851D01*
X378492Y86700D01*
X378011Y87420D01*
X377291Y87902D01*
X376441Y88070D01*
D02*
G37*
G36*
X338055Y87145D02*
X337206Y86976D01*
X336486Y86495D01*
X336004Y85775D01*
X335835Y84925D01*
X336004Y84076D01*
X336486Y83356D01*
X337206Y82875D01*
X338055Y82706D01*
X338905Y82875D01*
X339625Y83356D01*
X340106Y84076D01*
X340275Y84925D01*
X340106Y85775D01*
X339625Y86495D01*
X338905Y86976D01*
X338055Y87145D01*
D02*
G37*
G36*
X282476Y85783D02*
X281627Y85614D01*
X280907Y85133D01*
X280426Y84412D01*
X280257Y83563D01*
X280426Y82714D01*
X280907Y81993D01*
X281627Y81512D01*
X282476Y81343D01*
X283326Y81512D01*
X284046Y81993D01*
X284527Y82714D01*
X284696Y83563D01*
X284527Y84412D01*
X284046Y85133D01*
X283326Y85614D01*
X282476Y85783D01*
D02*
G37*
G36*
X262803Y85783D02*
X261954Y85614D01*
X261233Y85133D01*
X260752Y84412D01*
X260583Y83563D01*
X260752Y82714D01*
X261233Y81993D01*
X261954Y81512D01*
X262803Y81343D01*
X263653Y81512D01*
X264373Y81993D01*
X264854Y82714D01*
X265023Y83563D01*
X264854Y84412D01*
X264373Y85133D01*
X263653Y85614D01*
X262803Y85783D01*
D02*
G37*
G36*
X218799D02*
X217950Y85614D01*
X217230Y85133D01*
X216748Y84412D01*
X216579Y83563D01*
X216748Y82714D01*
X217230Y81993D01*
X217950Y81512D01*
X218799Y81343D01*
X219649Y81512D01*
X220369Y81993D01*
X220850Y82714D01*
X221019Y83563D01*
X220850Y84412D01*
X220369Y85133D01*
X219649Y85614D01*
X218799Y85783D01*
D02*
G37*
G36*
X404331Y83716D02*
X403481Y83547D01*
X402761Y83066D01*
X402280Y82345D01*
X402111Y81496D01*
X402280Y80647D01*
X402761Y79926D01*
X403481Y79445D01*
X404331Y79276D01*
X405180Y79445D01*
X405900Y79926D01*
X406382Y80647D01*
X406551Y81496D01*
X406382Y82345D01*
X405900Y83066D01*
X405180Y83547D01*
X404331Y83716D01*
D02*
G37*
G36*
X54724Y83499D02*
X53875Y83330D01*
X53155Y82849D01*
X52674Y82129D01*
X52505Y81279D01*
X52674Y80430D01*
X53155Y79710D01*
X53875Y79229D01*
X54724Y79060D01*
X55574Y79229D01*
X56294Y79710D01*
X56775Y80430D01*
X56944Y81279D01*
X56775Y82129D01*
X56294Y82849D01*
X55574Y83330D01*
X54724Y83499D01*
D02*
G37*
G36*
X258425Y83322D02*
X257576Y83153D01*
X256856Y82672D01*
X256374Y81952D01*
X256205Y81102D01*
X256374Y80253D01*
X256856Y79533D01*
X257576Y79052D01*
X258425Y78883D01*
X259275Y79052D01*
X259995Y79533D01*
X260476Y80253D01*
X260645Y81102D01*
X260476Y81952D01*
X259995Y82672D01*
X259275Y83153D01*
X258425Y83322D01*
D02*
G37*
G36*
X211417D02*
X210568Y83153D01*
X209848Y82672D01*
X209366Y81952D01*
X209197Y81102D01*
X209366Y80253D01*
X209848Y79533D01*
X210568Y79052D01*
X211417Y78883D01*
X212267Y79052D01*
X212987Y79533D01*
X213468Y80253D01*
X213637Y81102D01*
X213468Y81952D01*
X212987Y82672D01*
X212267Y83153D01*
X211417Y83322D01*
D02*
G37*
G36*
X229162Y83308D02*
X228312Y83139D01*
X227592Y82658D01*
X227111Y81937D01*
X226942Y81088D01*
X227111Y80239D01*
X227592Y79518D01*
X228312Y79037D01*
X229162Y78868D01*
X230011Y79037D01*
X230731Y79518D01*
X231212Y80239D01*
X231381Y81088D01*
X231212Y81937D01*
X230731Y82658D01*
X230011Y83139D01*
X229162Y83308D01*
D02*
G37*
G36*
X184906Y82619D02*
X184056Y82450D01*
X183336Y81969D01*
X182855Y81249D01*
X182686Y80399D01*
X182855Y79550D01*
X183336Y78830D01*
X184056Y78349D01*
X184906Y78180D01*
X185755Y78349D01*
X186475Y78830D01*
X186956Y79550D01*
X187125Y80399D01*
X186956Y81249D01*
X186475Y81969D01*
X185755Y82450D01*
X184906Y82619D01*
D02*
G37*
G36*
X83465Y82397D02*
X82615Y82228D01*
X81895Y81747D01*
X81414Y81027D01*
X81245Y80177D01*
X81414Y79328D01*
X81895Y78607D01*
X82615Y78126D01*
X83465Y77957D01*
X84314Y78126D01*
X85034Y78607D01*
X85515Y79328D01*
X85684Y80177D01*
X85515Y81027D01*
X85034Y81747D01*
X84314Y82228D01*
X83465Y82397D01*
D02*
G37*
G36*
X297603Y81887D02*
X296753Y81718D01*
X296033Y81237D01*
X295552Y80517D01*
X295383Y79667D01*
X295552Y78818D01*
X296033Y78097D01*
X296753Y77616D01*
X297603Y77447D01*
X298452Y77616D01*
X299172Y78097D01*
X299653Y78818D01*
X299822Y79667D01*
X299653Y80517D01*
X299172Y81237D01*
X298452Y81718D01*
X297603Y81887D01*
D02*
G37*
G36*
X349311Y80960D02*
X348462Y80791D01*
X347741Y80310D01*
X347260Y79590D01*
X347091Y78740D01*
X347260Y77891D01*
X347741Y77170D01*
X348462Y76689D01*
X349311Y76520D01*
X350161Y76689D01*
X350881Y77170D01*
X351362Y77891D01*
X351531Y78740D01*
X351362Y79590D01*
X350881Y80310D01*
X350161Y80791D01*
X349311Y80960D01*
D02*
G37*
G36*
X385335Y83293D02*
X384457Y83177D01*
X383639Y82838D01*
X382937Y82299D01*
X382398Y81597D01*
X382059Y80779D01*
X381944Y79902D01*
X382059Y79024D01*
X382398Y78206D01*
X382937Y77504D01*
X383639Y76965D01*
X384457Y76626D01*
X385335Y76511D01*
X386212Y76626D01*
X387030Y76965D01*
X387733Y77504D01*
X388271Y78206D01*
X388610Y79024D01*
X388726Y79902D01*
X388610Y80779D01*
X388271Y81597D01*
X387733Y82299D01*
X387030Y82838D01*
X386212Y83177D01*
X385335Y83293D01*
D02*
G37*
G36*
X287858Y80789D02*
X287009Y80620D01*
X286289Y80139D01*
X285807Y79419D01*
X285638Y78569D01*
X285807Y77720D01*
X286289Y76999D01*
X287009Y76518D01*
X287858Y76349D01*
X288708Y76518D01*
X289428Y76999D01*
X289909Y77720D01*
X290078Y78569D01*
X289909Y79419D01*
X289428Y80139D01*
X288708Y80620D01*
X287858Y80789D01*
D02*
G37*
G36*
X253724D02*
X252875Y80620D01*
X252155Y80139D01*
X251673Y79419D01*
X251504Y78569D01*
X251673Y77720D01*
X252155Y76999D01*
X252875Y76518D01*
X253724Y76349D01*
X254574Y76518D01*
X255294Y76999D01*
X255775Y77720D01*
X255944Y78569D01*
X255775Y79419D01*
X255294Y80139D01*
X254574Y80620D01*
X253724Y80789D01*
D02*
G37*
G36*
X224115D02*
X223266Y80620D01*
X222545Y80139D01*
X222064Y79419D01*
X221895Y78569D01*
X222064Y77720D01*
X222545Y76999D01*
X223266Y76518D01*
X224115Y76349D01*
X224964Y76518D01*
X225685Y76999D01*
X226166Y77720D01*
X226335Y78569D01*
X226166Y79419D01*
X225685Y80139D01*
X224964Y80620D01*
X224115Y80789D01*
D02*
G37*
G36*
X329921Y79287D02*
X329072Y79118D01*
X328352Y78637D01*
X327870Y77916D01*
X327701Y77067D01*
X327870Y76217D01*
X328352Y75497D01*
X329072Y75016D01*
X329921Y74847D01*
X330771Y75016D01*
X331491Y75497D01*
X331972Y76217D01*
X332141Y77067D01*
X331972Y77916D01*
X331491Y78637D01*
X330771Y79118D01*
X329921Y79287D01*
D02*
G37*
G36*
X209547Y78106D02*
X208698Y77937D01*
X207978Y77456D01*
X207496Y76735D01*
X207327Y75886D01*
X207496Y75036D01*
X207978Y74316D01*
X208698Y73835D01*
X209547Y73666D01*
X210397Y73835D01*
X211117Y74316D01*
X211598Y75036D01*
X211767Y75886D01*
X211598Y76735D01*
X211117Y77456D01*
X210397Y77937D01*
X209547Y78106D01*
D02*
G37*
G36*
X262803Y76432D02*
X261954Y76263D01*
X261233Y75782D01*
X260752Y75062D01*
X260583Y74213D01*
X260752Y73363D01*
X261233Y72643D01*
X261954Y72162D01*
X262803Y71993D01*
X263653Y72162D01*
X264373Y72643D01*
X264854Y73363D01*
X265023Y74213D01*
X264854Y75062D01*
X264373Y75782D01*
X263653Y76263D01*
X262803Y76432D01*
D02*
G37*
G36*
X77854Y76228D02*
X77005Y76059D01*
X76285Y75577D01*
X75803Y74857D01*
X75634Y74008D01*
X75803Y73158D01*
X76285Y72438D01*
X77005Y71957D01*
X77854Y71788D01*
X78704Y71957D01*
X79424Y72438D01*
X79905Y73158D01*
X80074Y74008D01*
X79905Y74857D01*
X79424Y75577D01*
X78704Y76059D01*
X77854Y76228D01*
D02*
G37*
G36*
X229331Y75443D02*
X228481Y75274D01*
X227761Y74793D01*
X227280Y74073D01*
X227111Y73223D01*
X227280Y72374D01*
X227761Y71654D01*
X228481Y71173D01*
X229331Y71004D01*
X230180Y71173D01*
X230900Y71654D01*
X231382Y72374D01*
X231551Y73223D01*
X231382Y74073D01*
X230900Y74793D01*
X230180Y75274D01*
X229331Y75443D01*
D02*
G37*
G36*
X202067Y73617D02*
X201217Y73448D01*
X200497Y72967D01*
X200016Y72247D01*
X199847Y71398D01*
X200016Y70548D01*
X200497Y69828D01*
X201217Y69347D01*
X202067Y69178D01*
X202916Y69347D01*
X203637Y69828D01*
X204118Y70548D01*
X204287Y71398D01*
X204118Y72247D01*
X203637Y72967D01*
X202916Y73448D01*
X202067Y73617D01*
D02*
G37*
G36*
X329921Y73578D02*
X329072Y73409D01*
X328352Y72928D01*
X327870Y72208D01*
X327701Y71358D01*
X327870Y70509D01*
X328352Y69789D01*
X329072Y69307D01*
X329921Y69138D01*
X330771Y69307D01*
X331491Y69789D01*
X331972Y70509D01*
X332141Y71358D01*
X331972Y72208D01*
X331491Y72928D01*
X330771Y73409D01*
X329921Y73578D01*
D02*
G37*
G36*
X70079Y73499D02*
X69229Y73330D01*
X68509Y72849D01*
X68028Y72129D01*
X67859Y71279D01*
X68028Y70430D01*
X68509Y69710D01*
X69229Y69229D01*
X70079Y69060D01*
X70928Y69229D01*
X71648Y69710D01*
X72130Y70430D01*
X72299Y71279D01*
X72130Y72129D01*
X71648Y72849D01*
X70928Y73330D01*
X70079Y73499D01*
D02*
G37*
G36*
X32283D02*
X31434Y73330D01*
X30714Y72849D01*
X30233Y72129D01*
X30064Y71279D01*
X30233Y70430D01*
X30714Y69710D01*
X31434Y69229D01*
X32283Y69060D01*
X33133Y69229D01*
X33853Y69710D01*
X34334Y70430D01*
X34503Y71279D01*
X34334Y72129D01*
X33853Y72849D01*
X33133Y73330D01*
X32283Y73499D01*
D02*
G37*
G36*
X404331Y73480D02*
X403481Y73311D01*
X402761Y72830D01*
X402280Y72109D01*
X402111Y71260D01*
X402280Y70410D01*
X402761Y69690D01*
X403481Y69209D01*
X404331Y69040D01*
X405180Y69209D01*
X405900Y69690D01*
X406382Y70410D01*
X406551Y71260D01*
X406382Y72109D01*
X405900Y72830D01*
X405180Y73311D01*
X404331Y73480D01*
D02*
G37*
G36*
X249125Y73086D02*
X248275Y72917D01*
X247555Y72436D01*
X247074Y71716D01*
X246905Y70866D01*
X247074Y70017D01*
X247555Y69296D01*
X248275Y68815D01*
X249125Y68646D01*
X249974Y68815D01*
X250694Y69296D01*
X251175Y70017D01*
X251344Y70866D01*
X251175Y71716D01*
X250694Y72436D01*
X249974Y72917D01*
X249125Y73086D01*
D02*
G37*
G36*
X385398Y72716D02*
X384548Y72547D01*
X383828Y72066D01*
X383347Y71346D01*
X383178Y70496D01*
X383347Y69647D01*
X383828Y68927D01*
X384548Y68445D01*
X385398Y68277D01*
X386247Y68445D01*
X386967Y68927D01*
X387449Y69647D01*
X387617Y70496D01*
X387449Y71346D01*
X386967Y72066D01*
X386247Y72547D01*
X385398Y72716D01*
D02*
G37*
G36*
X282476Y72588D02*
X281627Y72419D01*
X280907Y71938D01*
X280426Y71218D01*
X280257Y70368D01*
X280426Y69519D01*
X280907Y68799D01*
X281627Y68317D01*
X282476Y68148D01*
X283326Y68317D01*
X284046Y68799D01*
X284527Y69519D01*
X284696Y70368D01*
X284527Y71218D01*
X284046Y71938D01*
X283326Y72419D01*
X282476Y72588D01*
D02*
G37*
G36*
X207972Y72397D02*
X207123Y72228D01*
X206403Y71747D01*
X205922Y71027D01*
X205753Y70177D01*
X205922Y69328D01*
X206403Y68607D01*
X207123Y68126D01*
X207972Y67957D01*
X208822Y68126D01*
X209542Y68607D01*
X210023Y69328D01*
X210192Y70177D01*
X210023Y71027D01*
X209542Y71747D01*
X208822Y72228D01*
X207972Y72397D01*
D02*
G37*
G36*
X11417Y72397D02*
X10568Y72228D01*
X9848Y71747D01*
X9366Y71027D01*
X9198Y70177D01*
X9366Y69328D01*
X9848Y68607D01*
X10568Y68126D01*
X11417Y67957D01*
X12267Y68126D01*
X12987Y68607D01*
X13468Y69328D01*
X13637Y70177D01*
X13468Y71027D01*
X12987Y71747D01*
X12267Y72228D01*
X11417Y72397D01*
D02*
G37*
G36*
X358661Y72121D02*
X357812Y71952D01*
X357092Y71471D01*
X356611Y70751D01*
X356442Y69902D01*
X356611Y69052D01*
X357092Y68332D01*
X357812Y67851D01*
X358661Y67682D01*
X359511Y67851D01*
X360231Y68332D01*
X360712Y69052D01*
X360881Y69902D01*
X360712Y70751D01*
X360231Y71471D01*
X359511Y71952D01*
X358661Y72121D01*
D02*
G37*
G36*
X267126D02*
X266277Y71952D01*
X265556Y71471D01*
X265075Y70751D01*
X264906Y69902D01*
X265075Y69052D01*
X265556Y68332D01*
X266277Y67851D01*
X267126Y67682D01*
X267975Y67851D01*
X268696Y68332D01*
X269177Y69052D01*
X269346Y69902D01*
X269177Y70751D01*
X268696Y71471D01*
X267975Y71952D01*
X267126Y72121D01*
D02*
G37*
G36*
X212992Y71714D02*
X212143Y71545D01*
X211422Y71064D01*
X210941Y70344D01*
X210772Y69494D01*
X210941Y68645D01*
X211422Y67924D01*
X212143Y67443D01*
X212992Y67274D01*
X213842Y67443D01*
X214562Y67924D01*
X215043Y68645D01*
X215212Y69494D01*
X215043Y70344D01*
X214562Y71064D01*
X213842Y71545D01*
X212992Y71714D01*
D02*
G37*
G36*
X291142Y71509D02*
X290292Y71340D01*
X289572Y70859D01*
X289091Y70139D01*
X288922Y69289D01*
X289091Y68440D01*
X289572Y67720D01*
X290292Y67238D01*
X291142Y67069D01*
X291991Y67238D01*
X292711Y67720D01*
X293193Y68440D01*
X293361Y69289D01*
X293193Y70139D01*
X292711Y70859D01*
X291991Y71340D01*
X291142Y71509D01*
D02*
G37*
G36*
X378697Y73264D02*
X371973D01*
Y66540D01*
X378697D01*
Y73264D01*
D02*
G37*
G36*
X395335Y73293D02*
X394457Y73177D01*
X393639Y72838D01*
X392937Y72299D01*
X392398Y71597D01*
X392059Y70779D01*
X391944Y69902D01*
X392059Y69024D01*
X392398Y68206D01*
X392937Y67504D01*
X393639Y66965D01*
X394457Y66626D01*
X395335Y66511D01*
X396212Y66626D01*
X397030Y66965D01*
X397732Y67504D01*
X398271Y68206D01*
X398610Y69024D01*
X398726Y69902D01*
X398610Y70779D01*
X398271Y71597D01*
X397732Y72299D01*
X397030Y72838D01*
X396212Y73177D01*
X395335Y73293D01*
D02*
G37*
G36*
X303256Y70743D02*
X302406Y70574D01*
X301686Y70093D01*
X301205Y69373D01*
X301036Y68524D01*
X301205Y67674D01*
X301686Y66954D01*
X302406Y66473D01*
X303256Y66304D01*
X304105Y66473D01*
X304825Y66954D01*
X305307Y67674D01*
X305476Y68524D01*
X305307Y69373D01*
X304825Y70093D01*
X304105Y70574D01*
X303256Y70743D01*
D02*
G37*
G36*
X231890Y70133D02*
X231040Y69964D01*
X230320Y69483D01*
X229839Y68763D01*
X229670Y67913D01*
X229839Y67064D01*
X230320Y66344D01*
X231040Y65863D01*
X231890Y65694D01*
X232739Y65863D01*
X233459Y66344D01*
X233941Y67064D01*
X234110Y67913D01*
X233941Y68763D01*
X233459Y69483D01*
X232739Y69964D01*
X231890Y70133D01*
D02*
G37*
G36*
X197441D02*
X196591Y69964D01*
X195871Y69483D01*
X195390Y68763D01*
X195221Y67913D01*
X195390Y67064D01*
X195871Y66344D01*
X196591Y65863D01*
X197441Y65694D01*
X198290Y65863D01*
X199011Y66344D01*
X199492Y67064D01*
X199661Y67913D01*
X199492Y68763D01*
X199011Y69483D01*
X198290Y69964D01*
X197441Y70133D01*
D02*
G37*
G36*
X226673Y69956D02*
X225824Y69787D01*
X225104Y69306D01*
X224622Y68586D01*
X224453Y67736D01*
X224622Y66887D01*
X225104Y66167D01*
X225824Y65685D01*
X226673Y65516D01*
X227523Y65685D01*
X228243Y66167D01*
X228724Y66887D01*
X228893Y67736D01*
X228724Y68586D01*
X228243Y69306D01*
X227523Y69787D01*
X226673Y69956D01*
D02*
G37*
G36*
X221457D02*
X220607Y69787D01*
X219887Y69306D01*
X219406Y68586D01*
X219237Y67736D01*
X219406Y66887D01*
X219887Y66167D01*
X220607Y65685D01*
X221457Y65516D01*
X222306Y65685D01*
X223026Y66167D01*
X223507Y66887D01*
X223676Y67736D01*
X223507Y68586D01*
X223026Y69306D01*
X222306Y69787D01*
X221457Y69956D01*
D02*
G37*
G36*
X262327Y69886D02*
X261477Y69717D01*
X260757Y69236D01*
X260276Y68516D01*
X260107Y67667D01*
X260276Y66817D01*
X260757Y66097D01*
X261477Y65616D01*
X262327Y65447D01*
X263176Y65616D01*
X263896Y66097D01*
X264378Y66817D01*
X264547Y67667D01*
X264378Y68516D01*
X263896Y69236D01*
X263176Y69717D01*
X262327Y69886D01*
D02*
G37*
G36*
X80492Y69543D02*
X79643Y69374D01*
X78923Y68893D01*
X78441Y68172D01*
X78272Y67323D01*
X78441Y66473D01*
X78923Y65753D01*
X79643Y65272D01*
X80492Y65103D01*
X81342Y65272D01*
X82062Y65753D01*
X82543Y66473D01*
X82712Y67323D01*
X82543Y68172D01*
X82062Y68893D01*
X81342Y69374D01*
X80492Y69543D01*
D02*
G37*
G36*
X70079Y68499D02*
X69229Y68330D01*
X68509Y67849D01*
X68028Y67129D01*
X67859Y66279D01*
X68028Y65430D01*
X68509Y64710D01*
X69229Y64229D01*
X70079Y64060D01*
X70928Y64229D01*
X71648Y64710D01*
X72130Y65430D01*
X72299Y66279D01*
X72130Y67129D01*
X71648Y67849D01*
X70928Y68330D01*
X70079Y68499D01*
D02*
G37*
G36*
X314630Y68385D02*
X313780Y68216D01*
X313060Y67735D01*
X312579Y67015D01*
X312410Y66166D01*
X312579Y65316D01*
X313060Y64596D01*
X313780Y64115D01*
X314630Y63946D01*
X315479Y64115D01*
X316200Y64596D01*
X316681Y65316D01*
X316850Y66166D01*
X316681Y67015D01*
X316200Y67735D01*
X315479Y68216D01*
X314630Y68385D01*
D02*
G37*
G36*
X216142Y67968D02*
X215292Y67799D01*
X214572Y67318D01*
X214091Y66597D01*
X213922Y65748D01*
X214091Y64899D01*
X214572Y64178D01*
X215292Y63697D01*
X216142Y63528D01*
X216991Y63697D01*
X217711Y64178D01*
X218193Y64899D01*
X218361Y65748D01*
X218193Y66597D01*
X217711Y67318D01*
X216991Y67799D01*
X216142Y67968D01*
D02*
G37*
G36*
X180236Y67180D02*
X179387Y67011D01*
X178667Y66530D01*
X178185Y65810D01*
X178016Y64961D01*
X178185Y64111D01*
X178667Y63391D01*
X179387Y62910D01*
X180236Y62741D01*
X181086Y62910D01*
X181806Y63391D01*
X182287Y64111D01*
X182456Y64961D01*
X182287Y65810D01*
X181806Y66530D01*
X181086Y67011D01*
X180236Y67180D01*
D02*
G37*
G36*
X268971Y66393D02*
X268122Y66224D01*
X267402Y65743D01*
X266921Y65023D01*
X266752Y64173D01*
X266921Y63324D01*
X267402Y62604D01*
X268122Y62122D01*
X268971Y61953D01*
X269821Y62122D01*
X270541Y62604D01*
X271022Y63324D01*
X271191Y64173D01*
X271022Y65023D01*
X270541Y65743D01*
X269821Y66224D01*
X268971Y66393D01*
D02*
G37*
G36*
X331496Y65601D02*
X330647Y65432D01*
X329926Y64951D01*
X329445Y64231D01*
X329276Y63381D01*
X329445Y62532D01*
X329926Y61812D01*
X330647Y61330D01*
X331496Y61162D01*
X332346Y61330D01*
X333066Y61812D01*
X333547Y62532D01*
X333716Y63381D01*
X333547Y64231D01*
X333066Y64951D01*
X332346Y65432D01*
X331496Y65601D01*
D02*
G37*
G36*
X286939Y65409D02*
X286090Y65240D01*
X285369Y64759D01*
X284888Y64038D01*
X284719Y63189D01*
X284888Y62340D01*
X285369Y61619D01*
X286090Y61138D01*
X286939Y60969D01*
X287789Y61138D01*
X288509Y61619D01*
X288990Y62340D01*
X289159Y63189D01*
X288990Y64038D01*
X288509Y64759D01*
X287789Y65240D01*
X286939Y65409D01*
D02*
G37*
G36*
X202698Y65212D02*
X201849Y65043D01*
X201128Y64562D01*
X200647Y63842D01*
X200478Y62992D01*
X200647Y62143D01*
X201128Y61422D01*
X201849Y60941D01*
X202698Y60772D01*
X203548Y60941D01*
X204268Y61422D01*
X204749Y62143D01*
X204918Y62992D01*
X204749Y63842D01*
X204268Y64562D01*
X203548Y65043D01*
X202698Y65212D01*
D02*
G37*
G36*
X77421Y64621D02*
X76572Y64452D01*
X75852Y63971D01*
X75371Y63251D01*
X75201Y62402D01*
X75371Y61552D01*
X75852Y60832D01*
X76572Y60351D01*
X77421Y60182D01*
X78271Y60351D01*
X78991Y60832D01*
X79472Y61552D01*
X79641Y62402D01*
X79472Y63251D01*
X78991Y63971D01*
X78271Y64452D01*
X77421Y64621D01*
D02*
G37*
G36*
X70079Y63499D02*
X69229Y63330D01*
X68509Y62849D01*
X68028Y62129D01*
X67859Y61279D01*
X68028Y60430D01*
X68509Y59710D01*
X69229Y59229D01*
X70079Y59060D01*
X70928Y59229D01*
X71648Y59710D01*
X72130Y60430D01*
X72299Y61279D01*
X72130Y62129D01*
X71648Y62849D01*
X70928Y63330D01*
X70079Y63499D01*
D02*
G37*
G36*
X214665Y62554D02*
X213816Y62385D01*
X213096Y61904D01*
X212614Y61184D01*
X212445Y60335D01*
X212614Y59485D01*
X213096Y58765D01*
X213816Y58284D01*
X214665Y58115D01*
X215515Y58284D01*
X216235Y58765D01*
X216716Y59485D01*
X216885Y60335D01*
X216716Y61184D01*
X216235Y61904D01*
X215515Y62385D01*
X214665Y62554D01*
D02*
G37*
G36*
X207677D02*
X206828Y62385D01*
X206107Y61904D01*
X205626Y61184D01*
X205457Y60335D01*
X205626Y59485D01*
X206107Y58765D01*
X206828Y58284D01*
X207677Y58115D01*
X208527Y58284D01*
X209247Y58765D01*
X209728Y59485D01*
X209897Y60335D01*
X209728Y61184D01*
X209247Y61904D01*
X208527Y62385D01*
X207677Y62554D01*
D02*
G37*
G36*
X186417Y62259D02*
X185568Y62090D01*
X184848Y61609D01*
X184367Y60889D01*
X184197Y60039D01*
X184367Y59190D01*
X184848Y58470D01*
X185568Y57989D01*
X186417Y57820D01*
X187267Y57989D01*
X187987Y58470D01*
X188468Y59190D01*
X188637Y60039D01*
X188468Y60889D01*
X187987Y61609D01*
X187267Y62090D01*
X186417Y62259D01*
D02*
G37*
G36*
X12657Y60980D02*
X11808Y60811D01*
X11088Y60330D01*
X10607Y59609D01*
X10438Y58760D01*
X10607Y57910D01*
X11088Y57190D01*
X11808Y56709D01*
X12657Y56540D01*
X13507Y56709D01*
X14227Y57190D01*
X14708Y57910D01*
X14877Y58760D01*
X14708Y59609D01*
X14227Y60330D01*
X13507Y60811D01*
X12657Y60980D01*
D02*
G37*
G36*
X257677Y59897D02*
X256828Y59728D01*
X256107Y59247D01*
X255626Y58527D01*
X255457Y57677D01*
X255626Y56828D01*
X256107Y56107D01*
X256828Y55626D01*
X257677Y55457D01*
X258527Y55626D01*
X259247Y56107D01*
X259728Y56828D01*
X259897Y57677D01*
X259728Y58527D01*
X259247Y59247D01*
X258527Y59728D01*
X257677Y59897D01*
D02*
G37*
G36*
X202698Y59720D02*
X201849Y59551D01*
X201128Y59070D01*
X200647Y58350D01*
X200478Y57500D01*
X200647Y56651D01*
X201128Y55930D01*
X201849Y55449D01*
X202698Y55280D01*
X203548Y55449D01*
X204268Y55930D01*
X204749Y56651D01*
X204918Y57500D01*
X204749Y58350D01*
X204268Y59070D01*
X203548Y59551D01*
X202698Y59720D01*
D02*
G37*
G36*
X180236D02*
X179387Y59551D01*
X178667Y59070D01*
X178185Y58350D01*
X178016Y57500D01*
X178185Y56651D01*
X178667Y55930D01*
X179387Y55449D01*
X180236Y55280D01*
X181086Y55449D01*
X181806Y55930D01*
X182287Y56651D01*
X182456Y57500D01*
X182287Y58350D01*
X181806Y59070D01*
X181086Y59551D01*
X180236Y59720D01*
D02*
G37*
G36*
X349669Y59330D02*
X348820Y59161D01*
X348100Y58680D01*
X347619Y57960D01*
X347450Y57111D01*
X347619Y56261D01*
X348100Y55541D01*
X348820Y55060D01*
X349669Y54891D01*
X350519Y55060D01*
X351239Y55541D01*
X351720Y56261D01*
X351889Y57111D01*
X351720Y57960D01*
X351239Y58680D01*
X350519Y59161D01*
X349669Y59330D01*
D02*
G37*
G36*
X377756Y58716D02*
X376906Y58547D01*
X376186Y58066D01*
X375705Y57345D01*
X375536Y56496D01*
X375705Y55647D01*
X376186Y54926D01*
X376906Y54445D01*
X377756Y54276D01*
X378605Y54445D01*
X379326Y54926D01*
X379807Y55647D01*
X379976Y56496D01*
X379807Y57345D01*
X379326Y58066D01*
X378605Y58547D01*
X377756Y58716D01*
D02*
G37*
G36*
X68504Y58499D02*
X67654Y58330D01*
X66934Y57849D01*
X66453Y57129D01*
X66284Y56279D01*
X66453Y55430D01*
X66934Y54710D01*
X67654Y54229D01*
X68504Y54060D01*
X69353Y54229D01*
X70074Y54710D01*
X70555Y55430D01*
X70724Y56279D01*
X70555Y57129D01*
X70074Y57849D01*
X69353Y58330D01*
X68504Y58499D01*
D02*
G37*
G36*
X54724D02*
X53875Y58330D01*
X53155Y57849D01*
X52674Y57129D01*
X52505Y56279D01*
X52674Y55430D01*
X53155Y54710D01*
X53875Y54229D01*
X54724Y54060D01*
X55574Y54229D01*
X56294Y54710D01*
X56775Y55430D01*
X56944Y56279D01*
X56775Y57129D01*
X56294Y57849D01*
X55574Y58330D01*
X54724Y58499D01*
D02*
G37*
G36*
X213779Y57141D02*
X212930Y56972D01*
X212210Y56491D01*
X211729Y55771D01*
X211560Y54921D01*
X211729Y54072D01*
X212210Y53352D01*
X212930Y52870D01*
X213779Y52701D01*
X214629Y52870D01*
X215349Y53352D01*
X215830Y54072D01*
X215999Y54921D01*
X215830Y55771D01*
X215349Y56491D01*
X214629Y56972D01*
X213779Y57141D01*
D02*
G37*
G36*
X207677D02*
X206828Y56972D01*
X206107Y56491D01*
X205626Y55771D01*
X205457Y54921D01*
X205626Y54072D01*
X206107Y53352D01*
X206828Y52870D01*
X207677Y52701D01*
X208527Y52870D01*
X209247Y53352D01*
X209728Y54072D01*
X209897Y54921D01*
X209728Y55771D01*
X209247Y56491D01*
X208527Y56972D01*
X207677Y57141D01*
D02*
G37*
G36*
X198228Y57043D02*
X197379Y56874D01*
X196659Y56393D01*
X196177Y55672D01*
X196009Y54823D01*
X196177Y53973D01*
X196659Y53253D01*
X197379Y52772D01*
X198228Y52603D01*
X199078Y52772D01*
X199798Y53253D01*
X200279Y53973D01*
X200448Y54823D01*
X200279Y55672D01*
X199798Y56393D01*
X199078Y56874D01*
X198228Y57043D01*
D02*
G37*
G36*
X373524Y55074D02*
X372674Y54905D01*
X371954Y54424D01*
X371473Y53704D01*
X371304Y52854D01*
X371473Y52005D01*
X371954Y51285D01*
X372674Y50804D01*
X373524Y50634D01*
X374373Y50804D01*
X375093Y51285D01*
X375574Y52005D01*
X375743Y52854D01*
X375574Y53704D01*
X375093Y54424D01*
X374373Y54905D01*
X373524Y55074D01*
D02*
G37*
G36*
X245177Y54484D02*
X244328Y54315D01*
X243607Y53833D01*
X243126Y53113D01*
X242957Y52264D01*
X243126Y51414D01*
X243607Y50694D01*
X244328Y50213D01*
X245177Y50044D01*
X246027Y50213D01*
X246747Y50694D01*
X247228Y51414D01*
X247397Y52264D01*
X247228Y53113D01*
X246747Y53833D01*
X246027Y54315D01*
X245177Y54484D01*
D02*
G37*
G36*
X323276Y54385D02*
X322427Y54216D01*
X321707Y53735D01*
X321226Y53015D01*
X321057Y52165D01*
X321226Y51316D01*
X321707Y50596D01*
X322427Y50115D01*
X323276Y49946D01*
X324126Y50115D01*
X324846Y50596D01*
X325327Y51316D01*
X325496Y52165D01*
X325327Y53015D01*
X324846Y53735D01*
X324126Y54216D01*
X323276Y54385D01*
D02*
G37*
G36*
X255020Y54188D02*
X254170Y54019D01*
X253450Y53538D01*
X252969Y52818D01*
X252800Y51968D01*
X252969Y51119D01*
X253450Y50399D01*
X254170Y49918D01*
X255020Y49749D01*
X255869Y49918D01*
X256589Y50399D01*
X257070Y51119D01*
X257240Y51968D01*
X257070Y52818D01*
X256589Y53538D01*
X255869Y54019D01*
X255020Y54188D01*
D02*
G37*
G36*
X180709D02*
X179859Y54019D01*
X179139Y53538D01*
X178658Y52818D01*
X178489Y51968D01*
X178658Y51119D01*
X179139Y50399D01*
X179859Y49918D01*
X180709Y49749D01*
X181558Y49918D01*
X182278Y50399D01*
X182759Y51119D01*
X182929Y51968D01*
X182759Y52818D01*
X182278Y53538D01*
X181558Y54019D01*
X180709Y54188D01*
D02*
G37*
G36*
X202698Y53992D02*
X201849Y53822D01*
X201128Y53341D01*
X200647Y52621D01*
X200478Y51772D01*
X200647Y50922D01*
X201128Y50202D01*
X201849Y49721D01*
X202698Y49552D01*
X203548Y49721D01*
X204268Y50202D01*
X204749Y50922D01*
X204918Y51772D01*
X204749Y52621D01*
X204268Y53341D01*
X203548Y53822D01*
X202698Y53992D01*
D02*
G37*
G36*
X32283Y53499D02*
X31434Y53330D01*
X30714Y52849D01*
X30233Y52129D01*
X30064Y51279D01*
X30233Y50430D01*
X30714Y49710D01*
X31434Y49229D01*
X32283Y49060D01*
X33133Y49229D01*
X33853Y49710D01*
X34334Y50430D01*
X34503Y51279D01*
X34334Y52129D01*
X33853Y52849D01*
X33133Y53330D01*
X32283Y53499D01*
D02*
G37*
G36*
X217815Y53007D02*
X216966Y52838D01*
X216245Y52357D01*
X215764Y51637D01*
X215595Y50787D01*
X215764Y49938D01*
X216245Y49218D01*
X216966Y48737D01*
X217815Y48568D01*
X218664Y48737D01*
X219385Y49218D01*
X219866Y49938D01*
X220035Y50787D01*
X219866Y51637D01*
X219385Y52357D01*
X218664Y52838D01*
X217815Y53007D01*
D02*
G37*
G36*
X69784Y51531D02*
X68934Y51362D01*
X68214Y50881D01*
X67733Y50160D01*
X67564Y49311D01*
X67733Y48461D01*
X68214Y47741D01*
X68934Y47260D01*
X69784Y47091D01*
X70633Y47260D01*
X71353Y47741D01*
X71834Y48461D01*
X72003Y49311D01*
X71834Y50160D01*
X71353Y50881D01*
X70633Y51362D01*
X69784Y51531D01*
D02*
G37*
G36*
X167913Y51432D02*
X167064Y51263D01*
X166344Y50782D01*
X165863Y50062D01*
X165694Y49213D01*
X165863Y48363D01*
X166344Y47643D01*
X167064Y47162D01*
X167913Y46993D01*
X168763Y47162D01*
X169483Y47643D01*
X169964Y48363D01*
X170133Y49213D01*
X169964Y50062D01*
X169483Y50782D01*
X168763Y51263D01*
X167913Y51432D01*
D02*
G37*
G36*
X294964Y50472D02*
X294114Y50303D01*
X293394Y49822D01*
X292913Y49102D01*
X292744Y48252D01*
X292913Y47403D01*
X293394Y46683D01*
X294114Y46201D01*
X294964Y46032D01*
X295813Y46201D01*
X296533Y46683D01*
X297015Y47403D01*
X297184Y48252D01*
X297015Y49102D01*
X296533Y49822D01*
X295813Y50303D01*
X294964Y50472D01*
D02*
G37*
G36*
X235802D02*
X234952Y50303D01*
X234232Y49822D01*
X233751Y49102D01*
X233582Y48252D01*
X233751Y47403D01*
X234232Y46683D01*
X234952Y46201D01*
X235802Y46032D01*
X236651Y46201D01*
X237371Y46683D01*
X237853Y47403D01*
X238022Y48252D01*
X237853Y49102D01*
X237371Y49822D01*
X236651Y50303D01*
X235802Y50472D01*
D02*
G37*
G36*
X195079Y50251D02*
X194229Y50082D01*
X193509Y49601D01*
X193028Y48881D01*
X192859Y48031D01*
X193028Y47182D01*
X193509Y46462D01*
X194229Y45981D01*
X195079Y45812D01*
X195928Y45981D01*
X196648Y46462D01*
X197130Y47182D01*
X197299Y48031D01*
X197130Y48881D01*
X196648Y49601D01*
X195928Y50082D01*
X195079Y50251D01*
D02*
G37*
G36*
X188878D02*
X188029Y50082D01*
X187308Y49601D01*
X186827Y48881D01*
X186658Y48031D01*
X186827Y47182D01*
X187308Y46462D01*
X188029Y45981D01*
X188878Y45812D01*
X189727Y45981D01*
X190448Y46462D01*
X190929Y47182D01*
X191098Y48031D01*
X190929Y48881D01*
X190448Y49601D01*
X189727Y50082D01*
X188878Y50251D01*
D02*
G37*
G36*
X370535Y48700D02*
X369686Y48531D01*
X368966Y48050D01*
X368485Y47330D01*
X368316Y46481D01*
X368485Y45631D01*
X368966Y44911D01*
X369686Y44430D01*
X370535Y44261D01*
X371385Y44430D01*
X372105Y44911D01*
X372586Y45631D01*
X372755Y46481D01*
X372586Y47330D01*
X372105Y48050D01*
X371385Y48531D01*
X370535Y48700D01*
D02*
G37*
G36*
X387480Y48676D02*
X386631Y48507D01*
X385911Y48026D01*
X385430Y47306D01*
X385261Y46457D01*
X385430Y45607D01*
X385911Y44887D01*
X386631Y44406D01*
X387480Y44237D01*
X388330Y44406D01*
X389050Y44887D01*
X389531Y45607D01*
X389700Y46457D01*
X389531Y47306D01*
X389050Y48026D01*
X388330Y48507D01*
X387480Y48676D01*
D02*
G37*
G36*
X381890D02*
X381040Y48507D01*
X380320Y48026D01*
X379839Y47306D01*
X379670Y46457D01*
X379839Y45607D01*
X380320Y44887D01*
X381040Y44406D01*
X381890Y44237D01*
X382739Y44406D01*
X383459Y44887D01*
X383941Y45607D01*
X384110Y46457D01*
X383941Y47306D01*
X383459Y48026D01*
X382739Y48507D01*
X381890Y48676D01*
D02*
G37*
G36*
X375984D02*
X375135Y48507D01*
X374415Y48026D01*
X373933Y47306D01*
X373764Y46457D01*
X373933Y45607D01*
X374415Y44887D01*
X375135Y44406D01*
X375984Y44237D01*
X376834Y44406D01*
X377554Y44887D01*
X378035Y45607D01*
X378204Y46457D01*
X378035Y47306D01*
X377554Y48026D01*
X376834Y48507D01*
X375984Y48676D01*
D02*
G37*
G36*
X357480D02*
X356631Y48507D01*
X355911Y48026D01*
X355430Y47306D01*
X355260Y46457D01*
X355430Y45607D01*
X355911Y44887D01*
X356631Y44406D01*
X357480Y44237D01*
X358330Y44406D01*
X359050Y44887D01*
X359531Y45607D01*
X359700Y46457D01*
X359531Y47306D01*
X359050Y48026D01*
X358330Y48507D01*
X357480Y48676D01*
D02*
G37*
G36*
X394055Y48602D02*
X393206Y48433D01*
X392485Y47952D01*
X392004Y47232D01*
X391835Y46382D01*
X392004Y45533D01*
X392485Y44813D01*
X393206Y44331D01*
X394055Y44162D01*
X394905Y44331D01*
X395625Y44813D01*
X396106Y45533D01*
X396275Y46382D01*
X396106Y47232D01*
X395625Y47952D01*
X394905Y48433D01*
X394055Y48602D01*
D02*
G37*
G36*
X18576Y48579D02*
X17727Y48410D01*
X17007Y47929D01*
X16525Y47209D01*
X16356Y46359D01*
X16525Y45510D01*
X17007Y44790D01*
X17727Y44308D01*
X18576Y44139D01*
X19426Y44308D01*
X20146Y44790D01*
X20627Y45510D01*
X20796Y46359D01*
X20627Y47209D01*
X20146Y47929D01*
X19426Y48410D01*
X18576Y48579D01*
D02*
G37*
G36*
X32283Y48499D02*
X31434Y48330D01*
X30714Y47849D01*
X30233Y47129D01*
X30064Y46279D01*
X30233Y45430D01*
X30714Y44710D01*
X31434Y44229D01*
X32283Y44060D01*
X33133Y44229D01*
X33853Y44710D01*
X34334Y45430D01*
X34503Y46279D01*
X34334Y47129D01*
X33853Y47849D01*
X33133Y48330D01*
X32283Y48499D01*
D02*
G37*
G36*
X181023Y48498D02*
X180173Y48329D01*
X179453Y47848D01*
X178972Y47128D01*
X178803Y46279D01*
X178972Y45429D01*
X179453Y44709D01*
X180173Y44228D01*
X181023Y44059D01*
X181872Y44228D01*
X182592Y44709D01*
X183073Y45429D01*
X183242Y46279D01*
X183073Y47128D01*
X182592Y47848D01*
X181872Y48329D01*
X181023Y48498D01*
D02*
G37*
G36*
X340453Y48480D02*
X339603Y48311D01*
X338883Y47829D01*
X338402Y47109D01*
X338233Y46260D01*
X338402Y45410D01*
X338883Y44690D01*
X339603Y44209D01*
X340453Y44040D01*
X341302Y44209D01*
X342022Y44690D01*
X342504Y45410D01*
X342673Y46260D01*
X342504Y47109D01*
X342022Y47829D01*
X341302Y48311D01*
X340453Y48480D01*
D02*
G37*
G36*
X311528Y46929D02*
X310679Y46760D01*
X309959Y46279D01*
X309478Y45558D01*
X309309Y44709D01*
X309478Y43859D01*
X309959Y43139D01*
X310679Y42658D01*
X311528Y42489D01*
X312378Y42658D01*
X313098Y43139D01*
X313579Y43859D01*
X313748Y44709D01*
X313579Y45558D01*
X313098Y46279D01*
X312378Y46760D01*
X311528Y46929D01*
D02*
G37*
G36*
X164961Y46216D02*
X164111Y46047D01*
X163391Y45566D01*
X162910Y44846D01*
X162741Y43996D01*
X162910Y43147D01*
X163391Y42426D01*
X164111Y41945D01*
X164961Y41776D01*
X165810Y41945D01*
X166530Y42426D01*
X167011Y43147D01*
X167180Y43996D01*
X167011Y44846D01*
X166530Y45566D01*
X165810Y46047D01*
X164961Y46216D01*
D02*
G37*
G36*
X69784Y46117D02*
X68934Y45948D01*
X68214Y45467D01*
X67733Y44747D01*
X67564Y43898D01*
X67733Y43048D01*
X68214Y42328D01*
X68934Y41847D01*
X69784Y41678D01*
X70633Y41847D01*
X71353Y42328D01*
X71834Y43048D01*
X72003Y43898D01*
X71834Y44747D01*
X71353Y45467D01*
X70633Y45948D01*
X69784Y46117D01*
D02*
G37*
G36*
X337992Y42968D02*
X337143Y42799D01*
X336422Y42318D01*
X335941Y41598D01*
X335772Y40748D01*
X335941Y39899D01*
X336422Y39178D01*
X337143Y38697D01*
X337992Y38528D01*
X338842Y38697D01*
X339562Y39178D01*
X340043Y39899D01*
X340212Y40748D01*
X340043Y41598D01*
X339562Y42318D01*
X338842Y42799D01*
X337992Y42968D01*
D02*
G37*
G36*
X235865Y40433D02*
X235016Y40264D01*
X234295Y39783D01*
X233814Y39062D01*
X233645Y38213D01*
X233814Y37363D01*
X234295Y36643D01*
X235016Y36162D01*
X235865Y35993D01*
X236715Y36162D01*
X237435Y36643D01*
X237916Y37363D01*
X238085Y38213D01*
X237916Y39062D01*
X237435Y39783D01*
X236715Y40264D01*
X235865Y40433D01*
D02*
G37*
G36*
X156362Y40110D02*
X155513Y39942D01*
X154793Y39460D01*
X154312Y38740D01*
X154142Y37891D01*
X154312Y37041D01*
X154793Y36321D01*
X155513Y35840D01*
X156362Y35671D01*
X157212Y35840D01*
X157932Y36321D01*
X158413Y37041D01*
X158582Y37891D01*
X158413Y38740D01*
X157932Y39460D01*
X157212Y39942D01*
X156362Y40110D01*
D02*
G37*
G36*
X132347Y40087D02*
X131497Y39918D01*
X130777Y39437D01*
X130296Y38716D01*
X130127Y37867D01*
X130296Y37017D01*
X130777Y36297D01*
X131497Y35816D01*
X132347Y35647D01*
X133196Y35816D01*
X133916Y36297D01*
X134397Y37017D01*
X134566Y37867D01*
X134397Y38716D01*
X133916Y39437D01*
X133196Y39918D01*
X132347Y40087D01*
D02*
G37*
G36*
X106362Y40063D02*
X105513Y39894D01*
X104793Y39413D01*
X104312Y38693D01*
X104142Y37843D01*
X104312Y36994D01*
X104793Y36273D01*
X105513Y35792D01*
X106362Y35623D01*
X107212Y35792D01*
X107932Y36273D01*
X108413Y36994D01*
X108582Y37843D01*
X108413Y38693D01*
X107932Y39413D01*
X107212Y39894D01*
X106362Y40063D01*
D02*
G37*
G36*
X81362Y40039D02*
X80513Y39870D01*
X79793Y39389D01*
X79312Y38669D01*
X79142Y37819D01*
X79312Y36970D01*
X79793Y36250D01*
X80513Y35768D01*
X81362Y35599D01*
X82212Y35768D01*
X82932Y36250D01*
X83413Y36970D01*
X83582Y37819D01*
X83413Y38669D01*
X82932Y39389D01*
X82212Y39870D01*
X81362Y40039D01*
D02*
G37*
G36*
X195650Y39621D02*
X194800Y39452D01*
X194080Y38971D01*
X193599Y38251D01*
X193430Y37402D01*
X193599Y36552D01*
X194080Y35832D01*
X194800Y35351D01*
X195650Y35182D01*
X196499Y35351D01*
X197219Y35832D01*
X197701Y36552D01*
X197870Y37402D01*
X197701Y38251D01*
X197219Y38971D01*
X196499Y39452D01*
X195650Y39621D01*
D02*
G37*
G36*
X200984Y39562D02*
X200135Y39393D01*
X199415Y38912D01*
X198933Y38192D01*
X198764Y37343D01*
X198933Y36493D01*
X199415Y35773D01*
X200135Y35292D01*
X200984Y35123D01*
X201834Y35292D01*
X202554Y35773D01*
X203035Y36493D01*
X203204Y37343D01*
X203035Y38192D01*
X202554Y38912D01*
X201834Y39393D01*
X200984Y39562D01*
D02*
G37*
G36*
X270609Y39245D02*
X269760Y39076D01*
X269040Y38594D01*
X268558Y37874D01*
X268389Y37025D01*
X268558Y36175D01*
X269040Y35455D01*
X269760Y34974D01*
X270609Y34805D01*
X271459Y34974D01*
X272179Y35455D01*
X272660Y36175D01*
X272829Y37025D01*
X272660Y37874D01*
X272179Y38594D01*
X271459Y39076D01*
X270609Y39245D01*
D02*
G37*
G36*
X387008Y37850D02*
X386158Y37681D01*
X385438Y37200D01*
X384957Y36479D01*
X384788Y35630D01*
X384957Y34780D01*
X385438Y34060D01*
X386158Y33579D01*
X387008Y33410D01*
X387857Y33579D01*
X388578Y34060D01*
X389059Y34780D01*
X389228Y35630D01*
X389059Y36479D01*
X388578Y37200D01*
X387857Y37681D01*
X387008Y37850D01*
D02*
G37*
G36*
X371717Y37677D02*
X370867Y37508D01*
X370147Y37027D01*
X369666Y36306D01*
X369497Y35457D01*
X369666Y34607D01*
X370147Y33887D01*
X370867Y33406D01*
X371717Y33237D01*
X372566Y33406D01*
X373286Y33887D01*
X373767Y34607D01*
X373936Y35457D01*
X373767Y36306D01*
X373286Y37027D01*
X372566Y37508D01*
X371717Y37677D01*
D02*
G37*
G36*
X38579Y36865D02*
X37729Y36696D01*
X37009Y36215D01*
X36528Y35495D01*
X36359Y34646D01*
X36528Y33796D01*
X37009Y33076D01*
X37729Y32595D01*
X38579Y32426D01*
X39428Y32595D01*
X40148Y33076D01*
X40630Y33796D01*
X40799Y34646D01*
X40630Y35495D01*
X40148Y36215D01*
X39428Y36696D01*
X38579Y36865D01*
D02*
G37*
G36*
X221161Y35636D02*
X220312Y35467D01*
X219592Y34986D01*
X219111Y34265D01*
X218942Y33416D01*
X219111Y32566D01*
X219592Y31846D01*
X220312Y31365D01*
X221161Y31196D01*
X222011Y31365D01*
X222731Y31846D01*
X223212Y32566D01*
X223381Y33416D01*
X223212Y34265D01*
X222731Y34986D01*
X222011Y35467D01*
X221161Y35636D01*
D02*
G37*
G36*
X175295D02*
X174446Y35467D01*
X173726Y34986D01*
X173244Y34265D01*
X173075Y33416D01*
X173244Y32566D01*
X173726Y31846D01*
X174446Y31365D01*
X175295Y31196D01*
X176145Y31365D01*
X176865Y31846D01*
X177346Y32566D01*
X177515Y33416D01*
X177346Y34265D01*
X176865Y34986D01*
X176145Y35467D01*
X175295Y35636D01*
D02*
G37*
G36*
X191432Y35291D02*
X190583Y35122D01*
X189863Y34640D01*
X189382Y33920D01*
X189213Y33071D01*
X189382Y32221D01*
X189863Y31501D01*
X190583Y31020D01*
X191432Y30851D01*
X192282Y31020D01*
X193002Y31501D01*
X193483Y32221D01*
X193652Y33071D01*
X193483Y33920D01*
X193002Y34640D01*
X192282Y35122D01*
X191432Y35291D01*
D02*
G37*
G36*
X203937Y35094D02*
X203087Y34925D01*
X202367Y34444D01*
X201886Y33724D01*
X201717Y32874D01*
X201886Y32024D01*
X202367Y31304D01*
X203087Y30823D01*
X203937Y30654D01*
X204786Y30823D01*
X205507Y31304D01*
X205988Y32024D01*
X206157Y32874D01*
X205988Y33724D01*
X205507Y34444D01*
X204786Y34925D01*
X203937Y35094D01*
D02*
G37*
G36*
X166142D02*
X165292Y34925D01*
X164572Y34444D01*
X164091Y33724D01*
X163922Y32874D01*
X164091Y32024D01*
X164572Y31304D01*
X165292Y30823D01*
X166142Y30654D01*
X166991Y30823D01*
X167711Y31304D01*
X168193Y32024D01*
X168361Y32874D01*
X168193Y33724D01*
X167711Y34444D01*
X166991Y34925D01*
X166142Y35094D01*
D02*
G37*
G36*
X342480Y34503D02*
X341631Y34334D01*
X340911Y33853D01*
X340429Y33133D01*
X340261Y32283D01*
X340429Y31434D01*
X340911Y30714D01*
X341631Y30233D01*
X342480Y30064D01*
X343330Y30233D01*
X344050Y30714D01*
X344531Y31434D01*
X344700Y32283D01*
X344531Y33133D01*
X344050Y33853D01*
X343330Y34334D01*
X342480Y34503D01*
D02*
G37*
G36*
X187311Y31019D02*
X186462Y30850D01*
X185742Y30369D01*
X185261Y29649D01*
X185092Y28799D01*
X185261Y27950D01*
X185742Y27230D01*
X186462Y26748D01*
X187311Y26579D01*
X188161Y26748D01*
X188881Y27230D01*
X189362Y27950D01*
X189531Y28799D01*
X189362Y29649D01*
X188881Y30369D01*
X188161Y30850D01*
X187311Y31019D01*
D02*
G37*
G36*
X281299Y29971D02*
X280450Y29802D01*
X279730Y29321D01*
X279248Y28601D01*
X279079Y27751D01*
X279248Y26902D01*
X279730Y26182D01*
X280450Y25701D01*
X281299Y25532D01*
X282149Y25701D01*
X282869Y26182D01*
X283350Y26902D01*
X283519Y27751D01*
X283350Y28601D01*
X282869Y29321D01*
X282149Y29802D01*
X281299Y29971D01*
D02*
G37*
G36*
X331299Y29967D02*
X330450Y29798D01*
X329730Y29316D01*
X329248Y28596D01*
X329079Y27747D01*
X329248Y26897D01*
X329730Y26177D01*
X330450Y25696D01*
X331299Y25527D01*
X332149Y25696D01*
X332869Y26177D01*
X333350Y26897D01*
X333519Y27747D01*
X333350Y28596D01*
X332869Y29316D01*
X332149Y29798D01*
X331299Y29967D01*
D02*
G37*
G36*
X111522Y32137D02*
X104798D01*
Y25413D01*
X111522D01*
Y32137D01*
D02*
G37*
G36*
X298244Y32137D02*
X291520D01*
Y25413D01*
X298244D01*
Y32137D01*
D02*
G37*
G36*
X408464Y32883D02*
X407484Y32754D01*
X406570Y32375D01*
X405786Y31773D01*
X405184Y30989D01*
X404805Y30075D01*
X404676Y29094D01*
X404805Y28114D01*
X405184Y27200D01*
X405786Y26416D01*
X406570Y25814D01*
X407484Y25435D01*
X408464Y25306D01*
X409445Y25435D01*
X410359Y25814D01*
X411143Y26416D01*
X411745Y27200D01*
X412124Y28114D01*
X412253Y29094D01*
X412124Y30075D01*
X411745Y30989D01*
X411143Y31773D01*
X410359Y32375D01*
X409445Y32754D01*
X408464Y32883D01*
D02*
G37*
G36*
X388779D02*
X387799Y32754D01*
X386885Y32375D01*
X386101Y31773D01*
X385499Y30989D01*
X385120Y30075D01*
X384991Y29094D01*
X385120Y28114D01*
X385499Y27200D01*
X386101Y26416D01*
X386885Y25814D01*
X387799Y25435D01*
X388779Y25306D01*
X389760Y25435D01*
X390674Y25814D01*
X391458Y26416D01*
X392060Y27200D01*
X392439Y28114D01*
X392568Y29094D01*
X392439Y30075D01*
X392060Y30989D01*
X391458Y31773D01*
X390674Y32375D01*
X389760Y32754D01*
X388779Y32883D01*
D02*
G37*
G36*
X369094D02*
X368114Y32754D01*
X367200Y32375D01*
X366416Y31773D01*
X365814Y30989D01*
X365435Y30075D01*
X365306Y29094D01*
X365435Y28114D01*
X365814Y27200D01*
X366416Y26416D01*
X367200Y25814D01*
X368114Y25435D01*
X369094Y25306D01*
X370075Y25435D01*
X370989Y25814D01*
X371773Y26416D01*
X372375Y27200D01*
X372754Y28114D01*
X372883Y29094D01*
X372754Y30075D01*
X372375Y30989D01*
X371773Y31773D01*
X370989Y32375D01*
X370075Y32754D01*
X369094Y32883D01*
D02*
G37*
G36*
X349409D02*
X348429Y32754D01*
X347515Y32375D01*
X346731Y31773D01*
X346129Y30989D01*
X345750Y30075D01*
X345621Y29094D01*
X345750Y28114D01*
X346129Y27200D01*
X346731Y26416D01*
X347515Y25814D01*
X348429Y25435D01*
X349409Y25306D01*
X350390Y25435D01*
X351304Y25814D01*
X352088Y26416D01*
X352690Y27200D01*
X353069Y28114D01*
X353198Y29094D01*
X353069Y30075D01*
X352690Y30989D01*
X352088Y31773D01*
X351304Y32375D01*
X350390Y32754D01*
X349409Y32883D01*
D02*
G37*
G36*
X208110Y29110D02*
X207261Y28941D01*
X206541Y28459D01*
X206059Y27739D01*
X205890Y26890D01*
X206059Y26040D01*
X206541Y25320D01*
X207261Y24839D01*
X208110Y24670D01*
X208960Y24839D01*
X209680Y25320D01*
X210161Y26040D01*
X210330Y26890D01*
X210161Y27739D01*
X209680Y28459D01*
X208960Y28941D01*
X208110Y29110D01*
D02*
G37*
G36*
X183528Y27464D02*
X182678Y27295D01*
X181958Y26814D01*
X181477Y26094D01*
X181308Y25245D01*
X181477Y24395D01*
X181958Y23675D01*
X182678Y23194D01*
X183528Y23025D01*
X184377Y23194D01*
X185097Y23675D01*
X185579Y24395D01*
X185748Y25245D01*
X185579Y26094D01*
X185097Y26814D01*
X184377Y27295D01*
X183528Y27464D01*
D02*
G37*
G36*
X171260D02*
X170410Y27295D01*
X169690Y26814D01*
X169209Y26094D01*
X169040Y25245D01*
X169209Y24395D01*
X169690Y23675D01*
X170410Y23194D01*
X171260Y23025D01*
X172109Y23194D01*
X172829Y23675D01*
X173311Y24395D01*
X173480Y25245D01*
X173311Y26094D01*
X172829Y26814D01*
X172109Y27295D01*
X171260Y27464D01*
D02*
G37*
G36*
X147259D02*
X146409Y27295D01*
X145689Y26814D01*
X145208Y26094D01*
X145039Y25245D01*
X145208Y24395D01*
X145689Y23675D01*
X146409Y23194D01*
X147259Y23025D01*
X148108Y23194D01*
X148829Y23675D01*
X149310Y24395D01*
X149479Y25245D01*
X149310Y26094D01*
X148829Y26814D01*
X148108Y27295D01*
X147259Y27464D01*
D02*
G37*
G36*
X116770D02*
X115921Y27295D01*
X115200Y26814D01*
X114719Y26094D01*
X114550Y25245D01*
X114719Y24395D01*
X115200Y23675D01*
X115921Y23194D01*
X116770Y23025D01*
X117620Y23194D01*
X118340Y23675D01*
X118821Y24395D01*
X118990Y25245D01*
X118821Y26094D01*
X118340Y26814D01*
X117620Y27295D01*
X116770Y27464D01*
D02*
G37*
G36*
X354457Y27240D02*
X353607Y27071D01*
X352887Y26590D01*
X352406Y25869D01*
X352237Y25020D01*
X352406Y24170D01*
X352887Y23450D01*
X353607Y22969D01*
X354457Y22800D01*
X355306Y22969D01*
X356027Y23450D01*
X356508Y24170D01*
X356677Y25020D01*
X356508Y25869D01*
X356027Y26590D01*
X355306Y27071D01*
X354457Y27240D01*
D02*
G37*
G36*
X402425Y27118D02*
X401576Y26949D01*
X400856Y26468D01*
X400375Y25748D01*
X400206Y24899D01*
X400375Y24049D01*
X400856Y23329D01*
X401576Y22848D01*
X402425Y22679D01*
X403275Y22848D01*
X403995Y23329D01*
X404476Y24049D01*
X404645Y24899D01*
X404476Y25748D01*
X403995Y26468D01*
X403275Y26949D01*
X402425Y27118D01*
D02*
G37*
G36*
X394189D02*
X393340Y26949D01*
X392620Y26468D01*
X392139Y25748D01*
X391970Y24899D01*
X392139Y24049D01*
X392620Y23329D01*
X393340Y22848D01*
X394189Y22679D01*
X395039Y22848D01*
X395759Y23329D01*
X396240Y24049D01*
X396409Y24899D01*
X396240Y25748D01*
X395759Y26468D01*
X395039Y26949D01*
X394189Y27118D01*
D02*
G37*
G36*
X378862Y27095D02*
X378013Y26926D01*
X377293Y26444D01*
X376811Y25724D01*
X376642Y24875D01*
X376811Y24025D01*
X377293Y23305D01*
X378013Y22824D01*
X378862Y22655D01*
X379712Y22824D01*
X380432Y23305D01*
X380913Y24025D01*
X381082Y24875D01*
X380913Y25724D01*
X380432Y26444D01*
X379712Y26926D01*
X378862Y27095D01*
D02*
G37*
G36*
X361480D02*
X360631Y26926D01*
X359911Y26444D01*
X359430Y25724D01*
X359261Y24875D01*
X359430Y24025D01*
X359911Y23305D01*
X360631Y22824D01*
X361480Y22655D01*
X362330Y22824D01*
X363050Y23305D01*
X363531Y24025D01*
X363700Y24875D01*
X363531Y25724D01*
X363050Y26444D01*
X362330Y26926D01*
X361480Y27095D01*
D02*
G37*
G36*
X42319Y26920D02*
X41469Y26751D01*
X40749Y26270D01*
X40268Y25550D01*
X40099Y24700D01*
X40268Y23851D01*
X40749Y23131D01*
X41469Y22649D01*
X42319Y22480D01*
X43168Y22649D01*
X43889Y23131D01*
X44370Y23851D01*
X44539Y24700D01*
X44370Y25550D01*
X43889Y26270D01*
X43168Y26751D01*
X42319Y26920D01*
D02*
G37*
G36*
X408964Y22817D02*
Y19594D01*
X412187D01*
X412124Y20075D01*
X411745Y20989D01*
X411143Y21773D01*
X410359Y22375D01*
X409445Y22754D01*
X408964Y22817D01*
D02*
G37*
G36*
X407964Y22817D02*
X407484Y22754D01*
X406570Y22375D01*
X405786Y21773D01*
X405184Y20989D01*
X404805Y20075D01*
X404742Y19594D01*
X407964D01*
Y22817D01*
D02*
G37*
G36*
X349909D02*
Y19594D01*
X353132D01*
X353069Y20075D01*
X352690Y20989D01*
X352088Y21773D01*
X351304Y22375D01*
X350390Y22754D01*
X349909Y22817D01*
D02*
G37*
G36*
X348909Y22817D02*
X348429Y22754D01*
X347515Y22375D01*
X346731Y21773D01*
X346129Y20989D01*
X345750Y20075D01*
X345687Y19594D01*
X348909D01*
Y22817D01*
D02*
G37*
G36*
X389279Y22817D02*
Y19594D01*
X392502D01*
X392439Y20075D01*
X392060Y20989D01*
X391458Y21773D01*
X390674Y22375D01*
X389760Y22754D01*
X389279Y22817D01*
D02*
G37*
G36*
X388279Y22817D02*
X387799Y22754D01*
X386885Y22375D01*
X386101Y21773D01*
X385499Y20989D01*
X385120Y20075D01*
X385057Y19594D01*
X388279D01*
Y22817D01*
D02*
G37*
G36*
X369595Y22817D02*
Y19594D01*
X372817D01*
X372754Y20075D01*
X372375Y20989D01*
X371773Y21773D01*
X370989Y22375D01*
X370075Y22754D01*
X369595Y22817D01*
D02*
G37*
G36*
X368595Y22817D02*
X368114Y22754D01*
X367200Y22375D01*
X366416Y21773D01*
X365814Y20989D01*
X365435Y20075D01*
X365372Y19594D01*
X368595D01*
Y22817D01*
D02*
G37*
G36*
X372817Y18595D02*
X369595D01*
Y15372D01*
X370075Y15435D01*
X370989Y15814D01*
X371773Y16416D01*
X372375Y17200D01*
X372754Y18114D01*
X372817Y18595D01*
D02*
G37*
G36*
X392502Y18595D02*
X389279D01*
Y15372D01*
X389760Y15435D01*
X390674Y15814D01*
X391458Y16416D01*
X392060Y17200D01*
X392439Y18114D01*
X392502Y18595D01*
D02*
G37*
G36*
X353132Y18595D02*
X349909D01*
Y15372D01*
X350390Y15435D01*
X351304Y15814D01*
X352088Y16416D01*
X352690Y17200D01*
X353069Y18114D01*
X353132Y18595D01*
D02*
G37*
G36*
X407964Y18595D02*
X404742D01*
X404805Y18114D01*
X405184Y17200D01*
X405786Y16416D01*
X406570Y15814D01*
X407484Y15435D01*
X407964Y15372D01*
Y18595D01*
D02*
G37*
G36*
X412187D02*
X408964D01*
Y15372D01*
X409445Y15435D01*
X410359Y15814D01*
X411143Y16416D01*
X411745Y17200D01*
X412124Y18114D01*
X412187Y18595D01*
D02*
G37*
G36*
X348909Y18595D02*
X345687D01*
X345750Y18114D01*
X346129Y17200D01*
X346731Y16416D01*
X347515Y15814D01*
X348429Y15435D01*
X348909Y15372D01*
Y18595D01*
D02*
G37*
G36*
X388279Y18595D02*
X385057D01*
X385120Y18114D01*
X385499Y17200D01*
X386101Y16416D01*
X386885Y15814D01*
X387799Y15435D01*
X388279Y15372D01*
Y18595D01*
D02*
G37*
G36*
X368595Y18595D02*
X365372D01*
X365435Y18114D01*
X365814Y17200D01*
X366416Y16416D01*
X367200Y15814D01*
X368114Y15435D01*
X368595Y15372D01*
Y18595D01*
D02*
G37*
%LPD*%
G36*
X224375Y198859D02*
X224375Y155512D01*
X209897Y155512D01*
X209897Y155512D01*
X209728Y156361D01*
X209247Y157081D01*
X208527Y157563D01*
X207677Y157732D01*
X206828Y157563D01*
X206107Y157081D01*
X205626Y156361D01*
X205457Y155512D01*
X205626Y154662D01*
X206107Y153942D01*
X206299Y153814D01*
Y142713D01*
X206107Y142585D01*
X205626Y141865D01*
X205457Y141015D01*
X205626Y140166D01*
X206107Y139446D01*
X206299Y139318D01*
X206299Y133981D01*
X206107Y133853D01*
X205626Y133133D01*
X205457Y132283D01*
X205626Y131434D01*
X206107Y130714D01*
X206299Y130586D01*
Y119808D01*
X206107Y119680D01*
X205626Y118960D01*
X205457Y118110D01*
X205626Y117261D01*
X206107Y116541D01*
X206299Y116412D01*
Y115368D01*
X174057Y115368D01*
X174057Y57500D01*
X103858Y57500D01*
X103858Y71377D01*
X145275Y71377D01*
X145378Y71398D01*
X146358D01*
X146358Y100098D01*
X159361Y100099D01*
Y103269D01*
X159361Y138087D01*
Y155512D01*
X183073Y155512D01*
X183073Y199213D01*
X224021Y199213D01*
X224375Y198859D01*
D02*
G37*
G36*
X104809Y152953D02*
X104809Y138087D01*
X158341Y138087D01*
X158341Y101156D01*
X146358Y101156D01*
X146358Y113800D01*
X145352D01*
X145276Y113815D01*
X73622Y113815D01*
X73622Y152953D01*
X104809Y152953D01*
D02*
G37*
G36*
X72586Y112795D02*
X145276Y112795D01*
X145276Y79938D01*
X145117Y79853D01*
X144775Y79722D01*
X143996Y79877D01*
X143147Y79708D01*
X142426Y79227D01*
X141945Y78507D01*
X141776Y77658D01*
X141945Y76808D01*
X142426Y76088D01*
X143147Y75607D01*
X143996Y75438D01*
X144775Y75593D01*
X145117Y75461D01*
X145275Y75377D01*
X145275Y72397D01*
X103858Y72397D01*
X103858Y97244D01*
X47830Y97244D01*
X47830Y152992D01*
X72586Y152992D01*
X72586Y112795D01*
D02*
G37*
%LPC*%
G36*
X209842Y197342D02*
X208798Y197204D01*
X207825Y196801D01*
X206990Y196160D01*
X206348Y195324D01*
X205945Y194351D01*
X205808Y193307D01*
X205945Y192263D01*
X206348Y191290D01*
X206990Y190454D01*
X207825Y189813D01*
X208798Y189410D01*
X209842Y189273D01*
X210887Y189410D01*
X211860Y189813D01*
X212695Y190454D01*
X213336Y191290D01*
X213740Y192263D01*
X213877Y193307D01*
X213740Y194351D01*
X213336Y195324D01*
X212695Y196160D01*
X211860Y196801D01*
X210887Y197204D01*
X209842Y197342D01*
D02*
G37*
G36*
X199843D02*
X198798Y197204D01*
X197825Y196801D01*
X196990Y196160D01*
X196349Y195324D01*
X195946Y194351D01*
X195808Y193307D01*
X195946Y192263D01*
X196349Y191290D01*
X196990Y190454D01*
X197825Y189813D01*
X198798Y189410D01*
X199843Y189273D01*
X200887Y189410D01*
X201860Y189813D01*
X202695Y190454D01*
X203337Y191290D01*
X203740Y192263D01*
X203877Y193307D01*
X203740Y194351D01*
X203337Y195324D01*
X202695Y196160D01*
X201860Y196801D01*
X200887Y197204D01*
X199843Y197342D01*
D02*
G37*
G36*
X186839Y176039D02*
X185990Y175870D01*
X185270Y175389D01*
X184789Y174669D01*
X184620Y173819D01*
X184789Y172969D01*
X185270Y172249D01*
X185990Y171768D01*
X186839Y171599D01*
X187689Y171768D01*
X188409Y172249D01*
X188890Y172969D01*
X189059Y173819D01*
X188890Y174669D01*
X188409Y175389D01*
X187689Y175870D01*
X186839Y176039D01*
D02*
G37*
G36*
X196063Y169936D02*
X195213Y169767D01*
X194493Y169286D01*
X194012Y168566D01*
X193843Y167717D01*
X194012Y166867D01*
X194493Y166147D01*
X195213Y165666D01*
X196063Y165497D01*
X196913Y165666D01*
X197633Y166147D01*
X198114Y166867D01*
X198283Y167717D01*
X198114Y168566D01*
X197633Y169286D01*
X196913Y169767D01*
X196063Y169936D01*
D02*
G37*
G36*
X186839Y164031D02*
X185990Y163862D01*
X185270Y163381D01*
X184789Y162661D01*
X184620Y161811D01*
X184789Y160961D01*
X185270Y160241D01*
X185990Y159760D01*
X186839Y159591D01*
X187689Y159760D01*
X188409Y160241D01*
X188890Y160961D01*
X189059Y161811D01*
X188890Y162661D01*
X188409Y163381D01*
X187689Y163862D01*
X186839Y164031D01*
D02*
G37*
G36*
X172504Y154606D02*
X171655Y154437D01*
X170934Y153956D01*
X170453Y153235D01*
X170284Y152386D01*
X170453Y151537D01*
X170934Y150816D01*
X171655Y150335D01*
X172504Y150166D01*
X173354Y150335D01*
X174074Y150816D01*
X174555Y151537D01*
X174724Y152386D01*
X174555Y153235D01*
X174074Y153956D01*
X173354Y154437D01*
X172504Y154606D01*
D02*
G37*
G36*
X198622Y150448D02*
X197773Y150279D01*
X197052Y149798D01*
X196571Y149078D01*
X196402Y148228D01*
X196571Y147379D01*
X197052Y146659D01*
X197773Y146177D01*
X198622Y146009D01*
X199471Y146177D01*
X200192Y146659D01*
X200673Y147379D01*
X200842Y148228D01*
X200673Y149078D01*
X200192Y149798D01*
X199471Y150279D01*
X198622Y150448D01*
D02*
G37*
G36*
X167323Y148381D02*
X166473Y148212D01*
X165753Y147731D01*
X165272Y147011D01*
X165103Y146161D01*
X165272Y145312D01*
X165753Y144592D01*
X166473Y144111D01*
X167323Y143942D01*
X168172Y144111D01*
X168893Y144592D01*
X169374Y145312D01*
X169543Y146161D01*
X169374Y147011D01*
X168893Y147731D01*
X168172Y148212D01*
X167323Y148381D01*
D02*
G37*
G36*
X163055Y143235D02*
X162206Y143066D01*
X161486Y142585D01*
X161004Y141865D01*
X160835Y141015D01*
X161004Y140166D01*
X161486Y139446D01*
X162206Y138964D01*
X163055Y138795D01*
X163905Y138964D01*
X164625Y139446D01*
X165106Y140166D01*
X165275Y141015D01*
X165106Y141865D01*
X164625Y142585D01*
X163905Y143066D01*
X163055Y143235D01*
D02*
G37*
G36*
X190256Y138440D02*
X189406Y138271D01*
X188686Y137790D01*
X188205Y137070D01*
X188036Y136221D01*
X188205Y135371D01*
X188686Y134651D01*
X189406Y134170D01*
X190256Y134001D01*
X191105Y134170D01*
X191826Y134651D01*
X192307Y135371D01*
X192476Y136221D01*
X192307Y137070D01*
X191826Y137790D01*
X191105Y138271D01*
X190256Y138440D01*
D02*
G37*
G36*
X203150Y127417D02*
X202300Y127248D01*
X201580Y126767D01*
X201099Y126046D01*
X200930Y125197D01*
X201099Y124347D01*
X201580Y123627D01*
X202300Y123146D01*
X203150Y122977D01*
X203999Y123146D01*
X204719Y123627D01*
X205200Y124347D01*
X205369Y125197D01*
X205200Y126046D01*
X204719Y126767D01*
X203999Y127248D01*
X203150Y127417D01*
D02*
G37*
G36*
X171260Y113145D02*
X170410Y112976D01*
X169690Y112495D01*
X169209Y111775D01*
X169040Y110925D01*
X169209Y110076D01*
X169690Y109355D01*
X170410Y108874D01*
X171260Y108705D01*
X172109Y108874D01*
X172829Y109355D01*
X173311Y110076D01*
X173480Y110925D01*
X173311Y111775D01*
X172829Y112495D01*
X172109Y112976D01*
X171260Y113145D01*
D02*
G37*
G36*
X168602Y107633D02*
X167753Y107464D01*
X167033Y106983D01*
X166551Y106263D01*
X166383Y105413D01*
X166551Y104564D01*
X167033Y103844D01*
X167753Y103363D01*
X168602Y103194D01*
X169452Y103363D01*
X170172Y103844D01*
X170653Y104564D01*
X170822Y105413D01*
X170653Y106263D01*
X170172Y106983D01*
X169452Y107464D01*
X168602Y107633D01*
D02*
G37*
G36*
X166598Y92795D02*
X165749Y92626D01*
X165029Y92145D01*
X164548Y91425D01*
X164379Y90575D01*
X164548Y89726D01*
X165029Y89005D01*
X165749Y88524D01*
X166598Y88355D01*
X167448Y88524D01*
X168168Y89005D01*
X168649Y89726D01*
X168818Y90575D01*
X168649Y91425D01*
X168168Y92145D01*
X167448Y92626D01*
X166598Y92795D01*
D02*
G37*
G36*
X161811Y79877D02*
X160961Y79708D01*
X160241Y79227D01*
X159760Y78507D01*
X159591Y77658D01*
X159760Y76808D01*
X160241Y76088D01*
X160961Y75607D01*
X161811Y75438D01*
X162661Y75607D01*
X163381Y76088D01*
X163862Y76808D01*
X164031Y77658D01*
X163862Y78507D01*
X163381Y79227D01*
X162661Y79708D01*
X161811Y79877D01*
D02*
G37*
G36*
X152924Y74011D02*
X152075Y73842D01*
X151355Y73361D01*
X150874Y72641D01*
X150705Y71791D01*
X150874Y70942D01*
X151355Y70222D01*
X152075Y69740D01*
X152924Y69572D01*
X153774Y69740D01*
X154494Y70222D01*
X154975Y70942D01*
X155144Y71791D01*
X154975Y72641D01*
X154494Y73361D01*
X153774Y73842D01*
X152924Y74011D01*
D02*
G37*
G36*
X120813Y69543D02*
X119964Y69374D01*
X119244Y68893D01*
X118763Y68172D01*
X118594Y67323D01*
X118763Y66473D01*
X119244Y65753D01*
X119964Y65272D01*
X120813Y65103D01*
X121663Y65272D01*
X122383Y65753D01*
X122864Y66473D01*
X123033Y67323D01*
X122864Y68172D01*
X122383Y68893D01*
X121663Y69374D01*
X120813Y69543D01*
D02*
G37*
G36*
X157480Y64228D02*
X156631Y64059D01*
X155911Y63578D01*
X155429Y62857D01*
X155261Y62008D01*
X155429Y61158D01*
X155911Y60438D01*
X156631Y59957D01*
X157480Y59788D01*
X158330Y59957D01*
X159050Y60438D01*
X159531Y61158D01*
X159700Y62008D01*
X159531Y62857D01*
X159050Y63578D01*
X158330Y64059D01*
X157480Y64228D01*
D02*
G37*
G36*
X109153Y63834D02*
X108304Y63665D01*
X107584Y63184D01*
X107103Y62464D01*
X106934Y61614D01*
X107103Y60765D01*
X107584Y60044D01*
X108304Y59563D01*
X109153Y59394D01*
X110003Y59563D01*
X110723Y60044D01*
X111204Y60765D01*
X111373Y61614D01*
X111204Y62464D01*
X110723Y63184D01*
X110003Y63665D01*
X109153Y63834D01*
D02*
G37*
G36*
X101992Y152358D02*
X101143Y152189D01*
X100423Y151707D01*
X99941Y150987D01*
X99772Y150138D01*
X99941Y149288D01*
X100423Y148568D01*
X101143Y148087D01*
X101992Y147918D01*
X102842Y148087D01*
X103562Y148568D01*
X104043Y149288D01*
X104212Y150138D01*
X104043Y150987D01*
X103562Y151707D01*
X102842Y152189D01*
X101992Y152358D01*
D02*
G37*
G36*
X82579Y151039D02*
X81729Y150870D01*
X81009Y150389D01*
X80528Y149668D01*
X80359Y148819D01*
X80528Y147969D01*
X81009Y147249D01*
X81729Y146768D01*
X82579Y146599D01*
X83428Y146768D01*
X84148Y147249D01*
X84629Y147969D01*
X84799Y148819D01*
X84629Y149668D01*
X84148Y150389D01*
X83428Y150870D01*
X82579Y151039D01*
D02*
G37*
G36*
X96126Y148700D02*
X95277Y148531D01*
X94556Y148050D01*
X94075Y147330D01*
X93906Y146481D01*
X94075Y145631D01*
X94556Y144911D01*
X95277Y144430D01*
X96126Y144261D01*
X96976Y144430D01*
X97696Y144911D01*
X98177Y145631D01*
X98346Y146481D01*
X98177Y147330D01*
X97696Y148050D01*
X96976Y148531D01*
X96126Y148700D01*
D02*
G37*
G36*
Y138243D02*
X95277Y138075D01*
X94556Y137593D01*
X94075Y136873D01*
X93906Y136024D01*
X94075Y135174D01*
X94556Y134454D01*
X95277Y133973D01*
X96126Y133804D01*
X96976Y133973D01*
X97696Y134454D01*
X98177Y135174D01*
X98346Y136024D01*
X98177Y136873D01*
X97696Y137593D01*
X96976Y138075D01*
X96126Y138243D01*
D02*
G37*
G36*
X77165Y135684D02*
X76316Y135515D01*
X75596Y135034D01*
X75115Y134314D01*
X74945Y133465D01*
X75115Y132615D01*
X75596Y131895D01*
X76316Y131414D01*
X77165Y131245D01*
X78015Y131414D01*
X78735Y131895D01*
X79216Y132615D01*
X79385Y133465D01*
X79216Y134314D01*
X78735Y135034D01*
X78015Y135515D01*
X77165Y135684D01*
D02*
G37*
G36*
X116680Y135389D02*
X115830Y135220D01*
X115110Y134739D01*
X114629Y134019D01*
X114460Y133169D01*
X114629Y132320D01*
X115110Y131600D01*
X115830Y131119D01*
X116680Y130949D01*
X117529Y131119D01*
X118249Y131600D01*
X118730Y132320D01*
X118899Y133169D01*
X118730Y134019D01*
X118249Y134739D01*
X117529Y135220D01*
X116680Y135389D01*
D02*
G37*
G36*
X131933Y131157D02*
X131084Y130988D01*
X130363Y130507D01*
X129882Y129787D01*
X129713Y128937D01*
X129882Y128087D01*
X130363Y127367D01*
X131084Y126886D01*
X131933Y126717D01*
X132782Y126886D01*
X133503Y127367D01*
X133984Y128087D01*
X134153Y128937D01*
X133984Y129787D01*
X133503Y130507D01*
X132782Y130988D01*
X131933Y131157D01*
D02*
G37*
G36*
X116770Y130369D02*
X115921Y130200D01*
X115200Y129719D01*
X114719Y128999D01*
X114550Y128150D01*
X114719Y127300D01*
X115200Y126580D01*
X115921Y126099D01*
X116770Y125930D01*
X117620Y126099D01*
X118340Y126580D01*
X118821Y127300D01*
X118990Y128150D01*
X118821Y128999D01*
X118340Y129719D01*
X117620Y130200D01*
X116770Y130369D01*
D02*
G37*
G36*
X103008Y126358D02*
X102159Y126189D01*
X101439Y125708D01*
X100958Y124987D01*
X100788Y124138D01*
X100958Y123289D01*
X101439Y122568D01*
X102159Y122087D01*
X103008Y121918D01*
X103858Y122087D01*
X104578Y122568D01*
X105059Y123289D01*
X105228Y124138D01*
X105059Y124987D01*
X104578Y125708D01*
X103858Y126189D01*
X103008Y126358D01*
D02*
G37*
G36*
X141339Y125055D02*
X140489Y124885D01*
X139769Y124404D01*
X139288Y123684D01*
X139119Y122835D01*
X139288Y121985D01*
X139769Y121265D01*
X140489Y120784D01*
X141339Y120615D01*
X142188Y120784D01*
X142908Y121265D01*
X143389Y121985D01*
X143558Y122835D01*
X143389Y123684D01*
X142908Y124404D01*
X142188Y124885D01*
X141339Y125055D01*
D02*
G37*
G36*
X85137Y120329D02*
X84288Y120160D01*
X83568Y119678D01*
X83086Y118958D01*
X82917Y118109D01*
X83086Y117259D01*
X83568Y116539D01*
X84288Y116058D01*
X85137Y115889D01*
X85987Y116058D01*
X86707Y116539D01*
X87188Y117259D01*
X87357Y118109D01*
X87188Y118958D01*
X86707Y119678D01*
X85987Y120160D01*
X85137Y120329D01*
D02*
G37*
G36*
X131933Y119149D02*
X131084Y118980D01*
X130363Y118499D01*
X129882Y117779D01*
X129713Y116929D01*
X129882Y116080D01*
X130363Y115359D01*
X131084Y114878D01*
X131933Y114709D01*
X132782Y114878D01*
X133503Y115359D01*
X133984Y116080D01*
X134153Y116929D01*
X133984Y117779D01*
X133503Y118499D01*
X132782Y118980D01*
X131933Y119149D01*
D02*
G37*
G36*
X117172Y118816D02*
X116322Y118647D01*
X115602Y118166D01*
X115121Y117446D01*
X114952Y116596D01*
X115121Y115747D01*
X115602Y115026D01*
X116322Y114545D01*
X117172Y114376D01*
X118021Y114545D01*
X118741Y115026D01*
X119222Y115747D01*
X119392Y116596D01*
X119222Y117446D01*
X118741Y118166D01*
X118021Y118647D01*
X117172Y118816D01*
D02*
G37*
G36*
X53891Y146314D02*
X53041Y146145D01*
X52321Y145664D01*
X51840Y144944D01*
X51671Y144095D01*
X51840Y143245D01*
X52321Y142525D01*
X53041Y142044D01*
X53891Y141875D01*
X54740Y142044D01*
X55460Y142525D01*
X55941Y143245D01*
X56110Y144095D01*
X55941Y144944D01*
X55460Y145664D01*
X54740Y146145D01*
X53891Y146314D01*
D02*
G37*
G36*
X63452Y133196D02*
X62603Y133027D01*
X61882Y132545D01*
X61401Y131825D01*
X61232Y130976D01*
X61401Y130126D01*
X61882Y129406D01*
X62603Y128925D01*
X63452Y128756D01*
X64302Y128925D01*
X65022Y129406D01*
X65503Y130126D01*
X65672Y130976D01*
X65503Y131825D01*
X65022Y132545D01*
X64302Y133027D01*
X63452Y133196D01*
D02*
G37*
G36*
X52454Y125964D02*
X51604Y125795D01*
X50884Y125314D01*
X50403Y124594D01*
X50234Y123744D01*
X50403Y122895D01*
X50884Y122175D01*
X51604Y121694D01*
X52454Y121525D01*
X53303Y121694D01*
X54023Y122175D01*
X54505Y122895D01*
X54673Y123744D01*
X54505Y124594D01*
X54023Y125314D01*
X53303Y125795D01*
X52454Y125964D01*
D02*
G37*
G36*
X68245Y117222D02*
X67396Y117053D01*
X66675Y116572D01*
X66194Y115852D01*
X66025Y115003D01*
X66194Y114153D01*
X66675Y113433D01*
X67396Y112952D01*
X68245Y112783D01*
X69094Y112952D01*
X69815Y113433D01*
X70296Y114153D01*
X70465Y115003D01*
X70296Y115852D01*
X69815Y116572D01*
X69094Y117053D01*
X68245Y117222D01*
D02*
G37*
G36*
X86515Y110610D02*
X85666Y110441D01*
X84945Y109960D01*
X84464Y109239D01*
X84295Y108390D01*
X84464Y107541D01*
X84945Y106820D01*
X85666Y106339D01*
X86515Y106170D01*
X87365Y106339D01*
X88085Y106820D01*
X88566Y107541D01*
X88735Y108390D01*
X88566Y109239D01*
X88085Y109960D01*
X87365Y110441D01*
X86515Y110610D01*
D02*
G37*
G36*
X118148Y110443D02*
X117298Y110274D01*
X116578Y109793D01*
X116097Y109072D01*
X115928Y108223D01*
X116097Y107374D01*
X116578Y106653D01*
X117298Y106172D01*
X118148Y106003D01*
X118997Y106172D01*
X119718Y106653D01*
X120199Y107374D01*
X120368Y108223D01*
X120199Y109072D01*
X119718Y109793D01*
X118997Y110274D01*
X118148Y110443D01*
D02*
G37*
G36*
X50984Y109405D02*
X50135Y109236D01*
X49415Y108755D01*
X48933Y108035D01*
X48764Y107185D01*
X48933Y106336D01*
X49415Y105615D01*
X50135Y105134D01*
X50984Y104965D01*
X51834Y105134D01*
X52554Y105615D01*
X53035Y106336D01*
X53204Y107185D01*
X53035Y108035D01*
X52554Y108755D01*
X51834Y109236D01*
X50984Y109405D01*
D02*
G37*
G36*
X126949Y108224D02*
X126099Y108055D01*
X125379Y107574D01*
X124898Y106853D01*
X124729Y106004D01*
X124898Y105155D01*
X125379Y104434D01*
X126099Y103953D01*
X126949Y103784D01*
X127798Y103953D01*
X128518Y104434D01*
X129000Y105155D01*
X129169Y106004D01*
X129000Y106853D01*
X128518Y107574D01*
X127798Y108055D01*
X126949Y108224D01*
D02*
G37*
G36*
X69818Y106456D02*
X68969Y106287D01*
X68249Y105806D01*
X67767Y105086D01*
X67598Y104236D01*
X67767Y103387D01*
X68249Y102667D01*
X68969Y102186D01*
X69818Y102017D01*
X70668Y102186D01*
X71388Y102667D01*
X71869Y103387D01*
X72038Y104236D01*
X71869Y105086D01*
X71388Y105806D01*
X70668Y106287D01*
X69818Y106456D01*
D02*
G37*
G36*
X85728Y104865D02*
X84879Y104696D01*
X84159Y104215D01*
X83678Y103494D01*
X83508Y102645D01*
X83678Y101795D01*
X84159Y101075D01*
X84879Y100594D01*
X85728Y100425D01*
X86578Y100594D01*
X87298Y101075D01*
X87779Y101795D01*
X87948Y102645D01*
X87779Y103494D01*
X87298Y104215D01*
X86578Y104696D01*
X85728Y104865D01*
D02*
G37*
G36*
X111857Y104188D02*
X111007Y104019D01*
X110287Y103538D01*
X109806Y102818D01*
X109637Y101969D01*
X109806Y101119D01*
X110287Y100399D01*
X111007Y99918D01*
X111857Y99749D01*
X112706Y99918D01*
X113426Y100399D01*
X113908Y101119D01*
X114076Y101969D01*
X113908Y102818D01*
X113426Y103538D01*
X112706Y104019D01*
X111857Y104188D01*
D02*
G37*
G36*
X133071Y103376D02*
X132221Y103207D01*
X131501Y102726D01*
X131020Y102005D01*
X130851Y101156D01*
X131020Y100306D01*
X131501Y99586D01*
X132221Y99105D01*
X133071Y98936D01*
X133920Y99105D01*
X134641Y99586D01*
X135122Y100306D01*
X135291Y101156D01*
X135122Y102005D01*
X134641Y102726D01*
X133920Y103207D01*
X133071Y103376D01*
D02*
G37*
G36*
X111713Y93362D02*
X110863Y93193D01*
X110143Y92711D01*
X109662Y91991D01*
X109493Y91142D01*
X109662Y90292D01*
X110143Y89572D01*
X110863Y89091D01*
X111713Y88922D01*
X112562Y89091D01*
X113282Y89572D01*
X113763Y90292D01*
X113932Y91142D01*
X113763Y91991D01*
X113282Y92711D01*
X112562Y93193D01*
X111713Y93362D01*
D02*
G37*
G36*
X140614Y88715D02*
X139765Y88546D01*
X139045Y88064D01*
X138563Y87344D01*
X138394Y86495D01*
X138563Y85645D01*
X139045Y84925D01*
X139765Y84444D01*
X140614Y84275D01*
X141464Y84444D01*
X142184Y84925D01*
X142665Y85645D01*
X142834Y86495D01*
X142665Y87344D01*
X142184Y88064D01*
X141464Y88546D01*
X140614Y88715D01*
D02*
G37*
G36*
X123731D02*
X122881Y88546D01*
X122161Y88064D01*
X121680Y87344D01*
X121511Y86495D01*
X121680Y85645D01*
X122161Y84925D01*
X122881Y84444D01*
X123731Y84275D01*
X124580Y84444D01*
X125301Y84925D01*
X125782Y85645D01*
X125951Y86495D01*
X125782Y87344D01*
X125301Y88064D01*
X124580Y88546D01*
X123731Y88715D01*
D02*
G37*
G36*
X108563Y88145D02*
X107713Y87976D01*
X106993Y87495D01*
X106512Y86775D01*
X106343Y85925D01*
X106512Y85076D01*
X106993Y84356D01*
X107713Y83874D01*
X108563Y83705D01*
X109413Y83874D01*
X110133Y84356D01*
X110614Y85076D01*
X110783Y85925D01*
X110614Y86775D01*
X110133Y87495D01*
X109413Y87976D01*
X108563Y88145D01*
D02*
G37*
G36*
X381890Y276423D02*
X381012Y276307D01*
X380194Y275968D01*
X379492Y275429D01*
X378953Y274727D01*
X378614Y273909D01*
X378499Y273031D01*
X378614Y272154D01*
X378953Y271336D01*
X379492Y270634D01*
X380194Y270095D01*
X381012Y269756D01*
X381890Y269640D01*
X382768Y269756D01*
X383585Y270095D01*
X384288Y270634D01*
X384827Y271336D01*
X385165Y272154D01*
X385281Y273031D01*
X385165Y273909D01*
X384827Y274727D01*
X384288Y275429D01*
X383585Y275968D01*
X382768Y276307D01*
X381890Y276423D01*
D02*
G37*
G36*
X338583D02*
X337705Y276307D01*
X336887Y275968D01*
X336185Y275429D01*
X335646Y274727D01*
X335307Y273909D01*
X335191Y273031D01*
X335307Y272154D01*
X335646Y271336D01*
X336185Y270634D01*
X336887Y270095D01*
X337705Y269756D01*
X338583Y269640D01*
X339460Y269756D01*
X340278Y270095D01*
X340981Y270634D01*
X341519Y271336D01*
X341858Y272154D01*
X341974Y273031D01*
X341858Y273909D01*
X341519Y274727D01*
X340981Y275429D01*
X340278Y275968D01*
X339460Y276307D01*
X338583Y276423D01*
D02*
G37*
G36*
X394882Y272937D02*
X393378Y272740D01*
X391976Y272159D01*
X390773Y271235D01*
X389849Y270032D01*
X389268Y268630D01*
X389070Y267126D01*
X389268Y265622D01*
X389849Y264220D01*
X390773Y263017D01*
X391976Y262093D01*
X393378Y261512D01*
X394882Y261314D01*
X396386Y261512D01*
X397788Y262093D01*
X398991Y263017D01*
X399915Y264220D01*
X400495Y265622D01*
X400693Y267126D01*
X400495Y268630D01*
X399915Y270032D01*
X398991Y271235D01*
X397788Y272159D01*
X396386Y272740D01*
X394882Y272937D01*
D02*
G37*
G36*
X368898D02*
X367393Y272740D01*
X365992Y272159D01*
X364788Y271235D01*
X363865Y270032D01*
X363284Y268630D01*
X363086Y267126D01*
X363284Y265622D01*
X363865Y264220D01*
X364788Y263017D01*
X365992Y262093D01*
X367393Y261512D01*
X368898Y261314D01*
X370402Y261512D01*
X371803Y262093D01*
X373007Y263017D01*
X373931Y264220D01*
X374511Y265622D01*
X374709Y267126D01*
X374511Y268630D01*
X373931Y270032D01*
X373007Y271235D01*
X371803Y272159D01*
X370402Y272740D01*
X368898Y272937D01*
D02*
G37*
G36*
X351575D02*
X350071Y272740D01*
X348669Y272159D01*
X347465Y271235D01*
X346542Y270032D01*
X345961Y268630D01*
X345763Y267126D01*
X345961Y265622D01*
X346542Y264220D01*
X347465Y263017D01*
X348669Y262093D01*
X350071Y261512D01*
X351575Y261314D01*
X353079Y261512D01*
X354481Y262093D01*
X355684Y263017D01*
X356608Y264220D01*
X357188Y265622D01*
X357386Y267126D01*
X357188Y268630D01*
X356608Y270032D01*
X355684Y271235D01*
X354481Y272159D01*
X353079Y272740D01*
X351575Y272937D01*
D02*
G37*
G36*
X325590D02*
X324086Y272740D01*
X322685Y272159D01*
X321481Y271235D01*
X320558Y270032D01*
X319977Y268630D01*
X319779Y267126D01*
X319977Y265622D01*
X320558Y264220D01*
X321481Y263017D01*
X322685Y262093D01*
X324086Y261512D01*
X325590Y261314D01*
X327095Y261512D01*
X328496Y262093D01*
X329700Y263017D01*
X330624Y264220D01*
X331204Y265622D01*
X331402Y267126D01*
X331204Y268630D01*
X330624Y270032D01*
X329700Y271235D01*
X328496Y272159D01*
X327095Y272740D01*
X325590Y272937D01*
D02*
G37*
G36*
X114673Y265152D02*
Y260539D01*
X119286D01*
X119175Y261380D01*
X118658Y262629D01*
X117835Y263701D01*
X116762Y264524D01*
X115514Y265041D01*
X114673Y265152D01*
D02*
G37*
G36*
X113673D02*
X112833Y265041D01*
X111584Y264524D01*
X110512Y263701D01*
X109689Y262629D01*
X109171Y261380D01*
X109061Y260539D01*
X113673D01*
Y265152D01*
D02*
G37*
G36*
X31543D02*
Y260539D01*
X36156D01*
X36045Y261380D01*
X35528Y262629D01*
X34705Y263701D01*
X33632Y264524D01*
X32383Y265041D01*
X31543Y265152D01*
D02*
G37*
G36*
X30543D02*
X29703Y265041D01*
X28454Y264524D01*
X27382Y263701D01*
X26559Y262629D01*
X26041Y261380D01*
X25931Y260539D01*
X30543D01*
Y265152D01*
D02*
G37*
G36*
X231878D02*
Y260539D01*
X236490D01*
X236379Y261380D01*
X235862Y262629D01*
X235039Y263701D01*
X233967Y264524D01*
X232718Y265041D01*
X231878Y265152D01*
D02*
G37*
G36*
X230878Y265152D02*
X230037Y265041D01*
X228788Y264524D01*
X227716Y263701D01*
X226893Y262629D01*
X226376Y261380D01*
X226265Y260539D01*
X230878D01*
Y265152D01*
D02*
G37*
G36*
X236490Y259539D02*
X231878D01*
Y254927D01*
X232718Y255037D01*
X233967Y255555D01*
X235039Y256378D01*
X235862Y257450D01*
X236379Y258699D01*
X236490Y259539D01*
D02*
G37*
G36*
X36156Y259539D02*
X31543D01*
Y254927D01*
X32383Y255037D01*
X33632Y255555D01*
X34705Y256378D01*
X35528Y257450D01*
X36045Y258699D01*
X36156Y259539D01*
D02*
G37*
G36*
X113673Y259539D02*
X109061D01*
X109171Y258699D01*
X109689Y257450D01*
X110512Y256378D01*
X111584Y255555D01*
X112833Y255037D01*
X113673Y254927D01*
Y259539D01*
D02*
G37*
G36*
X119286D02*
X114673D01*
Y254927D01*
X115514Y255037D01*
X116762Y255555D01*
X117835Y256378D01*
X118658Y257450D01*
X119175Y258699D01*
X119286Y259539D01*
D02*
G37*
G36*
X30543Y259539D02*
X25931D01*
X26041Y258699D01*
X26559Y257450D01*
X27382Y256378D01*
X28454Y255555D01*
X29703Y255037D01*
X30543Y254927D01*
Y259539D01*
D02*
G37*
G36*
X230878Y259539D02*
X226265D01*
X226376Y258699D01*
X226893Y257450D01*
X227716Y256378D01*
X228788Y255555D01*
X230037Y255037D01*
X230878Y254927D01*
Y259539D01*
D02*
G37*
G36*
X295276Y265218D02*
X293935Y265041D01*
X292686Y264524D01*
X291614Y263701D01*
X290791Y262629D01*
X290274Y261380D01*
X290097Y260039D01*
X290274Y258699D01*
X290791Y257450D01*
X291614Y256378D01*
X292686Y255555D01*
X293935Y255037D01*
X295276Y254861D01*
X296616Y255037D01*
X297865Y255555D01*
X298937Y256378D01*
X299760Y257450D01*
X300277Y258699D01*
X300454Y260039D01*
X300277Y261380D01*
X299760Y262629D01*
X298937Y263701D01*
X297865Y264524D01*
X296616Y265041D01*
X295276Y265218D01*
D02*
G37*
G36*
X178071D02*
X176731Y265041D01*
X175482Y264524D01*
X174410Y263701D01*
X173587Y262629D01*
X173069Y261380D01*
X172893Y260039D01*
X173069Y258699D01*
X173587Y257450D01*
X174410Y256378D01*
X175482Y255555D01*
X176731Y255037D01*
X178071Y254861D01*
X179411Y255037D01*
X180660Y255555D01*
X181733Y256378D01*
X182556Y257450D01*
X183073Y258699D01*
X183249Y260039D01*
X183073Y261380D01*
X182556Y262629D01*
X181733Y263701D01*
X180660Y264524D01*
X179411Y265041D01*
X178071Y265218D01*
D02*
G37*
G36*
X94941D02*
X93601Y265041D01*
X92352Y264524D01*
X91280Y263701D01*
X90457Y262629D01*
X89939Y261380D01*
X89763Y260039D01*
X89939Y258699D01*
X90457Y257450D01*
X91280Y256378D01*
X92352Y255555D01*
X93601Y255037D01*
X94941Y254861D01*
X96281Y255037D01*
X97530Y255555D01*
X98603Y256378D01*
X99426Y257450D01*
X99943Y258699D01*
X100119Y260039D01*
X99943Y261380D01*
X99426Y262629D01*
X98603Y263701D01*
X97530Y264524D01*
X96281Y265041D01*
X94941Y265218D01*
D02*
G37*
G36*
X178071Y240218D02*
X176731Y240041D01*
X175482Y239524D01*
X174410Y238701D01*
X173587Y237629D01*
X173069Y236380D01*
X172893Y235039D01*
X173069Y233699D01*
X173587Y232450D01*
X174410Y231378D01*
X175482Y230555D01*
X176731Y230037D01*
X178071Y229861D01*
X179411Y230037D01*
X180660Y230555D01*
X181733Y231378D01*
X182556Y232450D01*
X183073Y233699D01*
X183249Y235039D01*
X183073Y236380D01*
X182556Y237629D01*
X181733Y238701D01*
X180660Y239524D01*
X179411Y240041D01*
X178071Y240218D01*
D02*
G37*
G36*
X114173D02*
X112833Y240041D01*
X111584Y239524D01*
X110512Y238701D01*
X109689Y237629D01*
X109171Y236380D01*
X108995Y235039D01*
X109171Y233699D01*
X109689Y232450D01*
X110512Y231378D01*
X111584Y230555D01*
X112833Y230037D01*
X114173Y229861D01*
X115514Y230037D01*
X116762Y230555D01*
X117835Y231378D01*
X118658Y232450D01*
X119175Y233699D01*
X119351Y235039D01*
X119175Y236380D01*
X118658Y237629D01*
X117835Y238701D01*
X116762Y239524D01*
X115514Y240041D01*
X114173Y240218D01*
D02*
G37*
G36*
X94941D02*
X93601Y240041D01*
X92352Y239524D01*
X91280Y238701D01*
X90457Y237629D01*
X89939Y236380D01*
X89763Y235039D01*
X89939Y233699D01*
X90457Y232450D01*
X91280Y231378D01*
X92352Y230555D01*
X93601Y230037D01*
X94941Y229861D01*
X96281Y230037D01*
X97530Y230555D01*
X98603Y231378D01*
X99426Y232450D01*
X99943Y233699D01*
X100119Y235039D01*
X99943Y236380D01*
X99426Y237629D01*
X98603Y238701D01*
X97530Y239524D01*
X96281Y240041D01*
X94941Y240218D01*
D02*
G37*
G36*
X31043D02*
X29703Y240041D01*
X28454Y239524D01*
X27382Y238701D01*
X26559Y237629D01*
X26041Y236380D01*
X25865Y235039D01*
X26041Y233699D01*
X26559Y232450D01*
X27382Y231378D01*
X28454Y230555D01*
X29703Y230037D01*
X31043Y229861D01*
X32383Y230037D01*
X33632Y230555D01*
X34705Y231378D01*
X35528Y232450D01*
X36045Y233699D01*
X36221Y235039D01*
X36045Y236380D01*
X35528Y237629D01*
X34705Y238701D01*
X33632Y239524D01*
X32383Y240041D01*
X31043Y240218D01*
D02*
G37*
G36*
X430276Y212843D02*
X429295Y212714D01*
X428381Y212336D01*
X427597Y211734D01*
X426995Y210949D01*
X426616Y210036D01*
X426487Y209055D01*
X426616Y208075D01*
X426995Y207161D01*
X427597Y206376D01*
X428381Y205774D01*
X429295Y205396D01*
X430276Y205267D01*
X431256Y205396D01*
X432170Y205774D01*
X432954Y206376D01*
X433556Y207161D01*
X433935Y208075D01*
X434064Y209055D01*
X433935Y210036D01*
X433556Y210949D01*
X432954Y211734D01*
X432170Y212336D01*
X431256Y212714D01*
X430276Y212843D01*
D02*
G37*
G36*
X430276Y193158D02*
X429295Y193029D01*
X428381Y192651D01*
X427597Y192049D01*
X426995Y191264D01*
X426616Y190351D01*
X426487Y189370D01*
X426616Y188390D01*
X426995Y187476D01*
X427597Y186691D01*
X428381Y186089D01*
X429295Y185711D01*
X430276Y185582D01*
X431256Y185711D01*
X432170Y186089D01*
X432954Y186691D01*
X433556Y187476D01*
X433935Y188390D01*
X434064Y189370D01*
X433935Y190351D01*
X433556Y191264D01*
X432954Y192049D01*
X432170Y192651D01*
X431256Y193029D01*
X430276Y193158D01*
D02*
G37*
G36*
X430276Y173473D02*
X429295Y173344D01*
X428381Y172966D01*
X427597Y172364D01*
X426995Y171579D01*
X426616Y170666D01*
X426487Y169685D01*
X426616Y168704D01*
X426995Y167791D01*
X427597Y167006D01*
X428381Y166404D01*
X429295Y166026D01*
X430276Y165897D01*
X431256Y166026D01*
X432170Y166404D01*
X432954Y167006D01*
X433556Y167791D01*
X433935Y168704D01*
X434064Y169685D01*
X433935Y170666D01*
X433556Y171579D01*
X432954Y172364D01*
X432170Y172966D01*
X431256Y173344D01*
X430276Y173473D01*
D02*
G37*
G36*
X430276Y153788D02*
X429295Y153659D01*
X428381Y153281D01*
X427597Y152679D01*
X426995Y151894D01*
X426616Y150980D01*
X426487Y150000D01*
X426616Y149020D01*
X426995Y148106D01*
X427597Y147321D01*
X428381Y146719D01*
X429295Y146341D01*
X430276Y146212D01*
X431256Y146341D01*
X432170Y146719D01*
X432954Y147321D01*
X433556Y148106D01*
X433935Y149020D01*
X434064Y150000D01*
X433935Y150980D01*
X433556Y151894D01*
X432954Y152679D01*
X432170Y153281D01*
X431256Y153659D01*
X430276Y153788D01*
D02*
G37*
G36*
X143571Y18929D02*
Y15461D01*
X147040D01*
X146968Y16005D01*
X146565Y16978D01*
X145924Y17813D01*
X145088Y18455D01*
X144115Y18858D01*
X143571Y18929D01*
D02*
G37*
G36*
X142571Y18929D02*
X142027Y18858D01*
X141054Y18455D01*
X140218Y17813D01*
X139577Y16978D01*
X139174Y16005D01*
X139102Y15461D01*
X142571D01*
Y18929D01*
D02*
G37*
G36*
X83846Y18929D02*
Y15461D01*
X87315D01*
X87243Y16005D01*
X86840Y16978D01*
X86199Y17813D01*
X85364Y18455D01*
X84391Y18858D01*
X83846Y18929D01*
D02*
G37*
G36*
X82846Y18929D02*
X82302Y18858D01*
X81329Y18455D01*
X80494Y17813D01*
X79852Y16978D01*
X79449Y16005D01*
X79378Y15461D01*
X82846D01*
Y18929D01*
D02*
G37*
G36*
X260736Y18831D02*
Y15362D01*
X264205D01*
X264133Y15906D01*
X263730Y16879D01*
X263089Y17715D01*
X262253Y18356D01*
X261280Y18759D01*
X260736Y18831D01*
D02*
G37*
G36*
X259736Y18831D02*
X259192Y18759D01*
X258219Y18356D01*
X257383Y17715D01*
X256742Y16879D01*
X256339Y15906D01*
X256267Y15362D01*
X259736D01*
Y18831D01*
D02*
G37*
G36*
X330008Y18831D02*
Y15362D01*
X333476D01*
X333405Y15906D01*
X333002Y16879D01*
X332361Y17715D01*
X331525Y18356D01*
X330552Y18759D01*
X330008Y18831D01*
D02*
G37*
G36*
X329008Y18831D02*
X328464Y18759D01*
X327491Y18356D01*
X326655Y17715D01*
X326014Y16879D01*
X325611Y15906D01*
X325539Y15362D01*
X329008D01*
Y18831D01*
D02*
G37*
G36*
X18158Y14885D02*
Y11114D01*
X21929D01*
X21847Y11737D01*
X21414Y12783D01*
X20724Y13681D01*
X19826Y14370D01*
X18780Y14804D01*
X18158Y14885D01*
D02*
G37*
G36*
X17157D02*
X16535Y14804D01*
X15489Y14370D01*
X14591Y13681D01*
X13901Y12783D01*
X13468Y11737D01*
X13386Y11114D01*
X17157D01*
Y14885D01*
D02*
G37*
G36*
X188610Y14803D02*
Y11032D01*
X192382D01*
X192300Y11654D01*
X191866Y12700D01*
X191177Y13598D01*
X190279Y14288D01*
X189233Y14721D01*
X188610Y14803D01*
D02*
G37*
G36*
X187610D02*
X186988Y14721D01*
X185942Y14288D01*
X185044Y13598D01*
X184354Y12700D01*
X183921Y11654D01*
X183839Y11032D01*
X187610D01*
Y14803D01*
D02*
G37*
G36*
X87315Y14461D02*
X83846D01*
Y10992D01*
X84391Y11064D01*
X85364Y11467D01*
X86199Y12108D01*
X86840Y12943D01*
X87243Y13916D01*
X87315Y14461D01*
D02*
G37*
G36*
X147040Y14461D02*
X143571D01*
Y10992D01*
X144115Y11064D01*
X145088Y11467D01*
X145924Y12108D01*
X146565Y12943D01*
X146968Y13916D01*
X147040Y14461D01*
D02*
G37*
G36*
X142571D02*
X139102D01*
X139174Y13916D01*
X139577Y12943D01*
X140218Y12108D01*
X141054Y11467D01*
X142027Y11064D01*
X142571Y10992D01*
Y14461D01*
D02*
G37*
G36*
X82846Y14461D02*
X79378D01*
X79449Y13916D01*
X79852Y12943D01*
X80494Y12108D01*
X81329Y11467D01*
X82302Y11064D01*
X82846Y10992D01*
Y14461D01*
D02*
G37*
G36*
X133071Y18995D02*
X132027Y18858D01*
X131054Y18455D01*
X130218Y17813D01*
X129577Y16978D01*
X129174Y16005D01*
X129036Y14961D01*
X129174Y13916D01*
X129577Y12943D01*
X130218Y12108D01*
X131054Y11467D01*
X132027Y11064D01*
X133071Y10926D01*
X134115Y11064D01*
X135088Y11467D01*
X135924Y12108D01*
X136565Y12943D01*
X136968Y13916D01*
X137105Y14961D01*
X136968Y16005D01*
X136565Y16978D01*
X135924Y17813D01*
X135088Y18455D01*
X134115Y18858D01*
X133071Y18995D01*
D02*
G37*
G36*
X73347D02*
X72302Y18858D01*
X71329Y18455D01*
X70494Y17813D01*
X69852Y16978D01*
X69449Y16005D01*
X69312Y14961D01*
X69449Y13916D01*
X69852Y12943D01*
X70494Y12108D01*
X71329Y11467D01*
X72302Y11064D01*
X73347Y10926D01*
X74391Y11064D01*
X75364Y11467D01*
X76199Y12108D01*
X76840Y12943D01*
X77244Y13916D01*
X77381Y14961D01*
X77244Y16005D01*
X76840Y16978D01*
X76199Y17813D01*
X75364Y18455D01*
X74391Y18858D01*
X73347Y18995D01*
D02*
G37*
G36*
X259736Y14362D02*
X256267D01*
X256339Y13818D01*
X256742Y12845D01*
X257383Y12009D01*
X258219Y11368D01*
X259192Y10965D01*
X259736Y10893D01*
Y14362D01*
D02*
G37*
G36*
X329008Y14362D02*
X325539D01*
X325611Y13818D01*
X326014Y12845D01*
X326655Y12009D01*
X327491Y11368D01*
X328464Y10965D01*
X329008Y10893D01*
Y14362D01*
D02*
G37*
G36*
X333476D02*
X330008D01*
Y10893D01*
X330552Y10965D01*
X331525Y11368D01*
X332361Y12009D01*
X333002Y12845D01*
X333405Y13818D01*
X333476Y14362D01*
D02*
G37*
G36*
X264205Y14362D02*
X260736D01*
Y10893D01*
X261280Y10965D01*
X262253Y11368D01*
X263089Y12009D01*
X263730Y12845D01*
X264133Y13818D01*
X264205Y14362D01*
D02*
G37*
G36*
X319508Y18897D02*
X318464Y18759D01*
X317491Y18356D01*
X316655Y17715D01*
X316014Y16879D01*
X315611Y15906D01*
X315473Y14862D01*
X315611Y13818D01*
X316014Y12845D01*
X316655Y12009D01*
X317491Y11368D01*
X318464Y10965D01*
X319508Y10828D01*
X320552Y10965D01*
X321525Y11368D01*
X322361Y12009D01*
X323002Y12845D01*
X323405Y13818D01*
X323542Y14862D01*
X323405Y15906D01*
X323002Y16879D01*
X322361Y17715D01*
X321525Y18356D01*
X320552Y18759D01*
X319508Y18897D01*
D02*
G37*
G36*
X270236D02*
X269192Y18759D01*
X268219Y18356D01*
X267383Y17715D01*
X266742Y16879D01*
X266339Y15906D01*
X266202Y14862D01*
X266339Y13818D01*
X266742Y12845D01*
X267383Y12009D01*
X268219Y11368D01*
X269192Y10965D01*
X270236Y10828D01*
X271280Y10965D01*
X272253Y11368D01*
X273089Y12009D01*
X273730Y12845D01*
X274133Y13818D01*
X274271Y14862D01*
X274133Y15906D01*
X273730Y16879D01*
X273089Y17715D01*
X272253Y18356D01*
X271280Y18759D01*
X270236Y18897D01*
D02*
G37*
G36*
X21929Y10114D02*
X18158D01*
Y6343D01*
X18780Y6425D01*
X19826Y6858D01*
X20724Y7547D01*
X21414Y8446D01*
X21847Y9492D01*
X21929Y10114D01*
D02*
G37*
G36*
X17157D02*
X13386D01*
X13468Y9492D01*
X13901Y8446D01*
X14591Y7547D01*
X15489Y6858D01*
X16535Y6425D01*
X17157Y6343D01*
Y10114D01*
D02*
G37*
G36*
X47657Y14951D02*
X46535Y14804D01*
X45489Y14370D01*
X44591Y13681D01*
X43901Y12783D01*
X43468Y11737D01*
X43320Y10614D01*
X43468Y9492D01*
X43901Y8446D01*
X44591Y7547D01*
X45489Y6858D01*
X46535Y6425D01*
X47657Y6277D01*
X48780Y6425D01*
X49826Y6858D01*
X50724Y7547D01*
X51414Y8446D01*
X51847Y9492D01*
X51995Y10614D01*
X51847Y11737D01*
X51414Y12783D01*
X50724Y13681D01*
X49826Y14370D01*
X48780Y14804D01*
X47657Y14951D01*
D02*
G37*
G36*
X37657D02*
X36535Y14804D01*
X35489Y14370D01*
X34591Y13681D01*
X33901Y12783D01*
X33468Y11737D01*
X33320Y10614D01*
X33468Y9492D01*
X33901Y8446D01*
X34591Y7547D01*
X35489Y6858D01*
X36535Y6425D01*
X37657Y6277D01*
X38780Y6425D01*
X39826Y6858D01*
X40724Y7547D01*
X41414Y8446D01*
X41847Y9492D01*
X41995Y10614D01*
X41847Y11737D01*
X41414Y12783D01*
X40724Y13681D01*
X39826Y14370D01*
X38780Y14804D01*
X37657Y14951D01*
D02*
G37*
G36*
X27657D02*
X26535Y14804D01*
X25489Y14370D01*
X24591Y13681D01*
X23901Y12783D01*
X23468Y11737D01*
X23320Y10614D01*
X23468Y9492D01*
X23901Y8446D01*
X24591Y7547D01*
X25489Y6858D01*
X26535Y6425D01*
X27657Y6277D01*
X28780Y6425D01*
X29826Y6858D01*
X30724Y7547D01*
X31413Y8446D01*
X31847Y9492D01*
X31995Y10614D01*
X31847Y11737D01*
X31413Y12783D01*
X30724Y13681D01*
X29826Y14370D01*
X28780Y14804D01*
X27657Y14951D01*
D02*
G37*
G36*
X192382Y10031D02*
X188610D01*
Y6260D01*
X189233Y6342D01*
X190279Y6775D01*
X191177Y7465D01*
X191866Y8363D01*
X192300Y9409D01*
X192382Y10031D01*
D02*
G37*
G36*
X187610D02*
X183839D01*
X183921Y9409D01*
X184354Y8363D01*
X185044Y7465D01*
X185942Y6775D01*
X186988Y6342D01*
X187610Y6260D01*
Y10031D01*
D02*
G37*
G36*
X176772Y14869D02*
X175649Y14721D01*
X174603Y14288D01*
X173705Y13598D01*
X173016Y12700D01*
X172582Y11654D01*
X172434Y10531D01*
X172582Y9409D01*
X173016Y8363D01*
X173705Y7465D01*
X174603Y6775D01*
X175649Y6342D01*
X176772Y6194D01*
X177894Y6342D01*
X178940Y6775D01*
X179838Y7465D01*
X180528Y8363D01*
X180961Y9409D01*
X181109Y10531D01*
X180961Y11654D01*
X180528Y12700D01*
X179838Y13598D01*
X178940Y14288D01*
X177894Y14721D01*
X176772Y14869D01*
D02*
G37*
G36*
X166772D02*
X165649Y14721D01*
X164603Y14288D01*
X163705Y13598D01*
X163016Y12700D01*
X162582Y11654D01*
X162434Y10531D01*
X162582Y9409D01*
X163016Y8363D01*
X163705Y7465D01*
X164603Y6775D01*
X165649Y6342D01*
X166772Y6194D01*
X167894Y6342D01*
X168940Y6775D01*
X169838Y7465D01*
X170528Y8363D01*
X170961Y9409D01*
X171109Y10531D01*
X170961Y11654D01*
X170528Y12700D01*
X169838Y13598D01*
X168940Y14288D01*
X167894Y14721D01*
X166772Y14869D01*
D02*
G37*
G36*
X238110Y14869D02*
X236988Y14721D01*
X235942Y14288D01*
X235043Y13598D01*
X234354Y12700D01*
X233921Y11654D01*
X233773Y10531D01*
X233921Y9409D01*
X234354Y8363D01*
X235043Y7465D01*
X235942Y6775D01*
X236988Y6342D01*
X238110Y6194D01*
X239233Y6342D01*
X240279Y6775D01*
X241177Y7465D01*
X241866Y8363D01*
X242300Y9409D01*
X242447Y10531D01*
X242300Y11654D01*
X241866Y12700D01*
X241177Y13598D01*
X240279Y14288D01*
X239233Y14721D01*
X238110Y14869D01*
D02*
G37*
G36*
X228110D02*
X226988Y14721D01*
X225942Y14288D01*
X225043Y13598D01*
X224354Y12700D01*
X223921Y11654D01*
X223773Y10531D01*
X223921Y9409D01*
X224354Y8363D01*
X225043Y7465D01*
X225942Y6775D01*
X226988Y6342D01*
X228110Y6194D01*
X229233Y6342D01*
X230279Y6775D01*
X231177Y7465D01*
X231866Y8363D01*
X232300Y9409D01*
X232447Y10531D01*
X232300Y11654D01*
X231866Y12700D01*
X231177Y13598D01*
X230279Y14288D01*
X229233Y14721D01*
X228110Y14869D01*
D02*
G37*
G36*
X218110D02*
X216988Y14721D01*
X215942Y14288D01*
X215043Y13598D01*
X214354Y12700D01*
X213921Y11654D01*
X213773Y10531D01*
X213921Y9409D01*
X214354Y8363D01*
X215043Y7465D01*
X215942Y6775D01*
X216988Y6342D01*
X218110Y6194D01*
X219233Y6342D01*
X220279Y6775D01*
X221177Y7465D01*
X221866Y8363D01*
X222300Y9409D01*
X222447Y10531D01*
X222300Y11654D01*
X221866Y12700D01*
X221177Y13598D01*
X220279Y14288D01*
X219233Y14721D01*
X218110Y14869D01*
D02*
G37*
G36*
X208110D02*
X206988Y14721D01*
X205942Y14288D01*
X205043Y13598D01*
X204354Y12700D01*
X203921Y11654D01*
X203773Y10531D01*
X203921Y9409D01*
X204354Y8363D01*
X205043Y7465D01*
X205942Y6775D01*
X206988Y6342D01*
X208110Y6194D01*
X209233Y6342D01*
X210279Y6775D01*
X211177Y7465D01*
X211866Y8363D01*
X212300Y9409D01*
X212447Y10531D01*
X212300Y11654D01*
X211866Y12700D01*
X211177Y13598D01*
X210279Y14288D01*
X209233Y14721D01*
X208110Y14869D01*
D02*
G37*
G36*
X198110D02*
X196988Y14721D01*
X195942Y14288D01*
X195044Y13598D01*
X194354Y12700D01*
X193921Y11654D01*
X193773Y10531D01*
X193921Y9409D01*
X194354Y8363D01*
X195044Y7465D01*
X195942Y6775D01*
X196988Y6342D01*
X198110Y6194D01*
X199233Y6342D01*
X200279Y6775D01*
X201177Y7465D01*
X201866Y8363D01*
X202300Y9409D01*
X202447Y10531D01*
X202300Y11654D01*
X201866Y12700D01*
X201177Y13598D01*
X200279Y14288D01*
X199233Y14721D01*
X198110Y14869D01*
D02*
G37*
G36*
X108160Y12166D02*
X107282Y12050D01*
X106465Y11711D01*
X105762Y11173D01*
X105223Y10470D01*
X104885Y9652D01*
X104769Y8775D01*
X104885Y7897D01*
X105223Y7079D01*
X105762Y6377D01*
X106465Y5838D01*
X107282Y5499D01*
X108160Y5384D01*
X109038Y5499D01*
X109855Y5838D01*
X110558Y6377D01*
X111097Y7079D01*
X111435Y7897D01*
X111551Y8775D01*
X111435Y9652D01*
X111097Y10470D01*
X110558Y11173D01*
X109855Y11711D01*
X109038Y12050D01*
X108160Y12166D01*
D02*
G37*
G36*
X294882Y12166D02*
X294004Y12050D01*
X293186Y11711D01*
X292484Y11173D01*
X291945Y10470D01*
X291606Y9652D01*
X291491Y8775D01*
X291606Y7897D01*
X291945Y7079D01*
X292484Y6377D01*
X293186Y5838D01*
X294004Y5499D01*
X294882Y5384D01*
X295760Y5499D01*
X296577Y5838D01*
X297280Y6377D01*
X297819Y7079D01*
X298157Y7897D01*
X298273Y8775D01*
X298157Y9652D01*
X297819Y10470D01*
X297280Y11173D01*
X296577Y11711D01*
X295760Y12050D01*
X294882Y12166D01*
D02*
G37*
G36*
X408464Y12883D02*
X407484Y12754D01*
X406570Y12375D01*
X405786Y11773D01*
X405184Y10989D01*
X404805Y10075D01*
X404676Y9094D01*
X404805Y8114D01*
X405184Y7200D01*
X405786Y6416D01*
X406570Y5814D01*
X407484Y5435D01*
X408464Y5306D01*
X409445Y5435D01*
X410359Y5814D01*
X411143Y6416D01*
X411745Y7200D01*
X412124Y8114D01*
X412253Y9094D01*
X412124Y10075D01*
X411745Y10989D01*
X411143Y11773D01*
X410359Y12375D01*
X409445Y12754D01*
X408464Y12883D01*
D02*
G37*
G36*
X388779D02*
X387799Y12754D01*
X386885Y12375D01*
X386101Y11773D01*
X385499Y10989D01*
X385120Y10075D01*
X384991Y9094D01*
X385120Y8114D01*
X385499Y7200D01*
X386101Y6416D01*
X386885Y5814D01*
X387799Y5435D01*
X388779Y5306D01*
X389760Y5435D01*
X390674Y5814D01*
X391458Y6416D01*
X392060Y7200D01*
X392439Y8114D01*
X392568Y9094D01*
X392439Y10075D01*
X392060Y10989D01*
X391458Y11773D01*
X390674Y12375D01*
X389760Y12754D01*
X388779Y12883D01*
D02*
G37*
G36*
X369094D02*
X368114Y12754D01*
X367200Y12375D01*
X366416Y11773D01*
X365814Y10989D01*
X365435Y10075D01*
X365306Y9094D01*
X365435Y8114D01*
X365814Y7200D01*
X366416Y6416D01*
X367200Y5814D01*
X368114Y5435D01*
X369094Y5306D01*
X370075Y5435D01*
X370989Y5814D01*
X371773Y6416D01*
X372375Y7200D01*
X372754Y8114D01*
X372883Y9094D01*
X372754Y10075D01*
X372375Y10989D01*
X371773Y11773D01*
X370989Y12375D01*
X370075Y12754D01*
X369094Y12883D01*
D02*
G37*
G36*
X349409D02*
X348429Y12754D01*
X347515Y12375D01*
X346731Y11773D01*
X346129Y10989D01*
X345750Y10075D01*
X345621Y9094D01*
X345750Y8114D01*
X346129Y7200D01*
X346731Y6416D01*
X347515Y5814D01*
X348429Y5435D01*
X349409Y5306D01*
X350390Y5435D01*
X351304Y5814D01*
X352088Y6416D01*
X352690Y7200D01*
X353069Y8114D01*
X353198Y9094D01*
X353069Y10075D01*
X352690Y10989D01*
X352088Y11773D01*
X351304Y12375D01*
X350390Y12754D01*
X349409Y12883D01*
D02*
G37*
%LPD*%
D85*
X56234Y229528D02*
D03*
X81299D02*
D03*
X247244Y18602D02*
D03*
X213779D02*
D03*
X222441D02*
D03*
X232677D02*
D03*
X181299D02*
D03*
X120544Y78937D02*
D03*
X2854Y57579D02*
D03*
X281299Y18775D02*
D03*
X31594Y18500D02*
D03*
X52457Y18602D02*
D03*
X106299D02*
D03*
X156299D02*
D03*
X182283Y229528D02*
D03*
X434118Y155241D02*
D03*
X156299Y229528D02*
D03*
X131299D02*
D03*
X106299D02*
D03*
X356299Y251686D02*
D03*
X227756Y272663D02*
D03*
X181693Y272946D02*
D03*
X3150Y52449D02*
D03*
Y28654D02*
D03*
Y78654D02*
D03*
X433858Y251181D02*
D03*
X3150D02*
D03*
Y228150D02*
D03*
X434055D02*
D03*
Y203150D02*
D03*
Y178150D02*
D03*
Y128150D02*
D03*
Y103150D02*
D03*
Y78150D02*
D03*
Y53150D02*
D03*
Y28150D02*
D03*
Y3150D02*
D03*
X406299Y278150D02*
D03*
Y251181D02*
D03*
Y228150D02*
D03*
Y3150D02*
D03*
X381299Y278150D02*
D03*
Y251181D02*
D03*
Y3150D02*
D03*
X356299Y278150D02*
D03*
Y3150D02*
D03*
X331299Y278150D02*
D03*
Y251181D02*
D03*
Y3150D02*
D03*
X306299Y278150D02*
D03*
Y251181D02*
D03*
Y3150D02*
D03*
X281299Y278150D02*
D03*
Y251181D02*
D03*
Y3150D02*
D03*
X256299Y278150D02*
D03*
Y251181D02*
D03*
Y3150D02*
D03*
X228150Y251181D02*
D03*
X231299Y3150D02*
D03*
X206299D02*
D03*
X181693Y251181D02*
D03*
X181299Y3150D02*
D03*
X156299Y278150D02*
D03*
Y251181D02*
D03*
Y3150D02*
D03*
X131299Y278150D02*
D03*
Y251181D02*
D03*
Y3150D02*
D03*
X106299Y278150D02*
D03*
Y251181D02*
D03*
Y3150D02*
D03*
X81299Y278150D02*
D03*
Y251181D02*
D03*
Y3150D02*
D03*
X56299Y278150D02*
D03*
Y251181D02*
D03*
Y3150D02*
D03*
X31299Y278150D02*
D03*
Y251181D02*
D03*
Y3150D02*
D03*
X3150Y203150D02*
D03*
Y178150D02*
D03*
Y153150D02*
D03*
Y128150D02*
D03*
Y103150D02*
D03*
Y3150D02*
D03*
D101*
X318898Y150000D02*
D03*
X318898Y169685D02*
D03*
X318740Y189370D02*
D03*
X318898Y209055D02*
D03*
X420276Y209055D02*
D03*
X408464Y19094D02*
D03*
X420276Y189370D02*
D03*
X388779Y19094D02*
D03*
X420276Y169685D02*
D03*
X369094Y19094D02*
D03*
X420276Y150000D02*
D03*
X349409Y19094D02*
D03*
D102*
X169095Y169488D02*
D03*
X280512Y130118D02*
D03*
X149409Y188583D02*
D03*
X241142D02*
D03*
D103*
X17658Y10614D02*
D03*
X188110Y10531D02*
D03*
D104*
X329508Y14862D02*
D03*
X260236D02*
D03*
X143071Y14961D02*
D03*
X83346D02*
D03*
D108*
X114173Y260039D02*
D03*
X31043D02*
D03*
X231378D02*
D03*
Y235039D02*
D03*
D113*
X202008Y24705D02*
D03*
X114711Y66279D02*
D03*
X119630Y144488D02*
D03*
X159055Y94390D02*
D03*
X58071Y29248D02*
D03*
X27657Y25591D02*
D03*
X370079Y91142D02*
D03*
X314961Y220571D02*
D03*
X366967Y191142D02*
D03*
X359822Y197047D02*
D03*
X337932Y198622D02*
D03*
X179429Y71063D02*
D03*
X217618Y103150D02*
D03*
X55020Y149094D02*
D03*
X63681D02*
D03*
X63386Y126083D02*
D03*
X133071Y87599D02*
D03*
X82579Y144095D02*
D03*
X151787Y114173D02*
D03*
X17520Y41279D02*
D03*
X70079Y79882D02*
D03*
X10827Y76279D02*
D03*
X329641Y136319D02*
D03*
X215551Y33268D02*
D03*
X304523Y63524D02*
D03*
X256799Y70177D02*
D03*
X282476Y58524D02*
D03*
X263533Y53519D02*
D03*
D114*
X206693Y176378D02*
D03*
X183858Y125197D02*
D03*
X232283Y125197D02*
D03*
M02*
