G04*
G04 #@! TF.GenerationSoftware,Altium Limited,Altium Designer,20.1.12 (249)*
G04*
G04 Layer_Color=32896*
%FSLAX25Y25*%
%MOIN*%
G70*
G04*
G04 #@! TF.SameCoordinates,8E953249-8924-40D1-970B-8FD6E2F6F70F*
G04*
G04*
G04 #@! TF.FilePolarity,Positive*
G04*
G01*
G75*
%ADD69C,0.00394*%
%ADD71C,0.00591*%
D69*
X397875Y207478D02*
X397436Y208372D01*
X396888Y209203D01*
X396240Y209959D01*
X395502Y210627D01*
X394685Y211196D01*
X393803Y211658D01*
X392869Y212005D01*
X391900Y212231D01*
X390909Y212333D01*
X389914Y212309D01*
X388929Y212159D01*
X387972Y211887D01*
X387056Y211496D01*
X386197Y210993D01*
X385408Y210385D01*
X384703Y209682D01*
Y199247D02*
X385408Y198545D01*
X386197Y197937D01*
X387056Y197433D01*
X387972Y197042D01*
X388929Y196770D01*
X389914Y196621D01*
X390909Y196597D01*
X391900Y196699D01*
X392869Y196925D01*
X393803Y197271D01*
X394685Y197733D01*
X395502Y198302D01*
X396240Y198970D01*
X396888Y199726D01*
X397436Y200557D01*
X397875Y201451D01*
X397875Y227163D02*
X397436Y228057D01*
X396888Y228888D01*
X396240Y229644D01*
X395502Y230312D01*
X394685Y230881D01*
X393803Y231343D01*
X392869Y231690D01*
X391900Y231916D01*
X390909Y232018D01*
X389914Y231994D01*
X388929Y231844D01*
X387972Y231572D01*
X387056Y231181D01*
X386197Y230678D01*
X385408Y230070D01*
X384703Y229367D01*
Y218932D02*
X385408Y218230D01*
X386197Y217622D01*
X387056Y217118D01*
X387972Y216727D01*
X388929Y216455D01*
X389914Y216306D01*
X390909Y216282D01*
X391900Y216384D01*
X392869Y216610D01*
X393803Y216956D01*
X394685Y217418D01*
X395502Y217987D01*
X396240Y218655D01*
X396888Y219411D01*
X397436Y220242D01*
X397875Y221136D01*
X397717Y246848D02*
X397279Y247742D01*
X396731Y248573D01*
X396083Y249329D01*
X395344Y249997D01*
X394527Y250566D01*
X393645Y251028D01*
X392712Y251375D01*
X391742Y251601D01*
X390752Y251703D01*
X389756Y251679D01*
X388772Y251529D01*
X387814Y251257D01*
X386898Y250866D01*
X386039Y250362D01*
X385251Y249755D01*
X384545Y249052D01*
Y238617D02*
X385251Y237915D01*
X386039Y237307D01*
X386898Y236803D01*
X387814Y236412D01*
X388772Y236140D01*
X389756Y235991D01*
X390752Y235967D01*
X391742Y236069D01*
X392712Y236295D01*
X393645Y236641D01*
X394527Y237103D01*
X395344Y237672D01*
X396083Y238340D01*
X396731Y239096D01*
X397279Y239928D01*
X397717Y240821D01*
X397875Y266533D02*
X397436Y267427D01*
X396888Y268258D01*
X396240Y269014D01*
X395502Y269682D01*
X394685Y270251D01*
X393803Y270713D01*
X392869Y271060D01*
X391900Y271286D01*
X390909Y271388D01*
X389914Y271364D01*
X388929Y271215D01*
X387972Y270942D01*
X387056Y270551D01*
X386197Y270048D01*
X385408Y269440D01*
X384703Y268737D01*
Y258302D02*
X385408Y257600D01*
X386197Y256992D01*
X387056Y256488D01*
X387972Y256097D01*
X388929Y255825D01*
X389914Y255676D01*
X390909Y255652D01*
X391900Y255754D01*
X392869Y255980D01*
X393803Y256327D01*
X394685Y256788D01*
X395502Y257358D01*
X396240Y258025D01*
X396888Y258781D01*
X397436Y259612D01*
X397875Y260507D01*
X484703Y260506D02*
X485142Y259612D01*
X485689Y258781D01*
X486338Y258025D01*
X487076Y257357D01*
X487893Y256788D01*
X488775Y256326D01*
X489709Y255980D01*
X490678Y255754D01*
X491669Y255652D01*
X492664Y255676D01*
X493649Y255825D01*
X494606Y256097D01*
X495522Y256488D01*
X496381Y256992D01*
X497170Y257600D01*
X497875Y258302D01*
Y268737D02*
X497170Y269440D01*
X496381Y270048D01*
X495522Y270551D01*
X494606Y270942D01*
X493649Y271214D01*
X492664Y271364D01*
X491669Y271388D01*
X490678Y271286D01*
X489709Y271060D01*
X488775Y270713D01*
X487893Y270251D01*
X487076Y269682D01*
X486338Y269014D01*
X485689Y268258D01*
X485142Y267427D01*
X484703Y266533D01*
X483180Y66285D02*
X484074Y66723D01*
X484905Y67271D01*
X485661Y67919D01*
X486329Y68657D01*
X486898Y69474D01*
X487360Y70356D01*
X487707Y71290D01*
X487933Y72259D01*
X488035Y73250D01*
X488011Y74245D01*
X487861Y75230D01*
X487589Y76187D01*
X487198Y77103D01*
X486695Y77962D01*
X486087Y78751D01*
X485384Y79456D01*
X474949D02*
X474247Y78751D01*
X473639Y77962D01*
X473135Y77103D01*
X472744Y76187D01*
X472472Y75230D01*
X472323Y74245D01*
X472299Y73250D01*
X472401Y72259D01*
X472627Y71290D01*
X472973Y70356D01*
X473435Y69474D01*
X474005Y68657D01*
X474672Y67919D01*
X475428Y67271D01*
X476260Y66723D01*
X477153Y66285D01*
X484703Y240821D02*
X485142Y239928D01*
X485689Y239096D01*
X486338Y238340D01*
X487076Y237672D01*
X487893Y237103D01*
X488775Y236641D01*
X489709Y236295D01*
X490678Y236069D01*
X491669Y235967D01*
X492664Y235991D01*
X493649Y236140D01*
X494606Y236412D01*
X495522Y236803D01*
X496381Y237307D01*
X497170Y237915D01*
X497875Y238617D01*
Y249052D02*
X497170Y249755D01*
X496381Y250363D01*
X495522Y250866D01*
X494606Y251257D01*
X493649Y251529D01*
X492664Y251679D01*
X491669Y251703D01*
X490678Y251601D01*
X489709Y251375D01*
X488775Y251028D01*
X487893Y250566D01*
X487076Y249997D01*
X486338Y249329D01*
X485689Y248573D01*
X485142Y247742D01*
X484703Y246848D01*
X463495Y66285D02*
X464389Y66723D01*
X465220Y67271D01*
X465976Y67919D01*
X466644Y68657D01*
X467213Y69474D01*
X467675Y70356D01*
X468022Y71290D01*
X468248Y72259D01*
X468350Y73250D01*
X468326Y74245D01*
X468177Y75230D01*
X467904Y76187D01*
X467513Y77103D01*
X467010Y77962D01*
X466402Y78751D01*
X465699Y79456D01*
X455264D02*
X454562Y78751D01*
X453954Y77962D01*
X453450Y77103D01*
X453059Y76187D01*
X452787Y75230D01*
X452638Y74245D01*
X452614Y73250D01*
X452716Y72259D01*
X452942Y71290D01*
X453289Y70356D01*
X453750Y69474D01*
X454319Y68657D01*
X454987Y67919D01*
X455743Y67271D01*
X456574Y66723D01*
X457469Y66285D01*
X484703Y221136D02*
X485142Y220242D01*
X485689Y219411D01*
X486338Y218655D01*
X487076Y217987D01*
X487893Y217418D01*
X488775Y216956D01*
X489709Y216610D01*
X490678Y216384D01*
X491669Y216282D01*
X492664Y216306D01*
X493649Y216455D01*
X494606Y216727D01*
X495522Y217118D01*
X496381Y217622D01*
X497170Y218230D01*
X497875Y218932D01*
Y229367D02*
X497170Y230070D01*
X496381Y230678D01*
X495522Y231181D01*
X494606Y231572D01*
X493649Y231844D01*
X492664Y231994D01*
X491669Y232018D01*
X490678Y231916D01*
X489709Y231690D01*
X488775Y231343D01*
X487893Y230881D01*
X487076Y230312D01*
X486338Y229644D01*
X485689Y228888D01*
X485142Y228057D01*
X484703Y227163D01*
X443810Y66285D02*
X444704Y66723D01*
X445536Y67271D01*
X446291Y67919D01*
X446959Y68657D01*
X447528Y69474D01*
X447990Y70356D01*
X448337Y71290D01*
X448563Y72259D01*
X448665Y73250D01*
X448641Y74245D01*
X448491Y75230D01*
X448219Y76187D01*
X447828Y77103D01*
X447325Y77962D01*
X446717Y78751D01*
X446014Y79456D01*
X435579D02*
X434877Y78751D01*
X434269Y77962D01*
X433766Y77103D01*
X433374Y76187D01*
X433102Y75230D01*
X432953Y74245D01*
X432929Y73250D01*
X433031Y72259D01*
X433257Y71290D01*
X433603Y70356D01*
X434065Y69474D01*
X434634Y68657D01*
X435302Y67919D01*
X436058Y67271D01*
X436890Y66723D01*
X437783Y66285D01*
X484703Y201451D02*
X485142Y200557D01*
X485689Y199726D01*
X486338Y198970D01*
X487076Y198302D01*
X487893Y197733D01*
X488775Y197271D01*
X489709Y196925D01*
X490678Y196699D01*
X491669Y196597D01*
X492664Y196621D01*
X493649Y196770D01*
X494606Y197042D01*
X495522Y197433D01*
X496381Y197937D01*
X497170Y198545D01*
X497875Y199247D01*
Y209682D02*
X497170Y210385D01*
X496381Y210993D01*
X495522Y211496D01*
X494606Y211887D01*
X493649Y212159D01*
X492664Y212309D01*
X491669Y212333D01*
X490678Y212231D01*
X489709Y212005D01*
X488775Y211658D01*
X487893Y211196D01*
X487076Y210627D01*
X486338Y209959D01*
X485689Y209203D01*
X485142Y208372D01*
X484703Y207478D01*
X424125Y66285D02*
X425019Y66723D01*
X425850Y67271D01*
X426606Y67919D01*
X427274Y68657D01*
X427843Y69474D01*
X428305Y70356D01*
X428652Y71290D01*
X428878Y72259D01*
X428980Y73250D01*
X428956Y74245D01*
X428806Y75230D01*
X428534Y76187D01*
X428143Y77103D01*
X427640Y77962D01*
X427032Y78751D01*
X426329Y79456D01*
X415894D02*
X415192Y78751D01*
X414584Y77962D01*
X414080Y77103D01*
X413689Y76187D01*
X413417Y75230D01*
X413268Y74245D01*
X413244Y73250D01*
X413346Y72259D01*
X413572Y71290D01*
X413918Y70356D01*
X414380Y69474D01*
X414950Y68657D01*
X415617Y67919D01*
X416373Y67271D01*
X417205Y66723D01*
X418098Y66285D01*
X384698Y199252D02*
Y209677D01*
X384698Y218937D02*
Y229362D01*
X384541Y238622D02*
Y249047D01*
X384698Y258307D02*
Y268732D01*
X497880Y258307D02*
Y268732D01*
X474954Y79461D02*
X485379D01*
X497880Y238622D02*
Y249047D01*
X455269Y79461D02*
X465694D01*
X497880Y218937D02*
Y229362D01*
X435584Y79461D02*
X446009D01*
X497880Y199252D02*
Y209677D01*
X415899Y79461D02*
X426324D01*
X120324Y246984D02*
X157726D01*
X120324Y292260D02*
X157726D01*
Y246984D02*
Y292260D01*
X120324Y246984D02*
Y292260D01*
X212253Y220016D02*
X249655D01*
X212253Y174740D02*
X249655D01*
X212253D02*
Y220016D01*
X249655Y174740D02*
Y220016D01*
X348277Y175724D02*
Y213126D01*
X303001Y175724D02*
Y213126D01*
X348277D01*
X303001Y175724D02*
X348277D01*
X212253Y246984D02*
X249655D01*
X212253Y292260D02*
X249655D01*
Y246984D02*
Y292260D01*
X212253Y246984D02*
Y292260D01*
X303986Y246984D02*
X341387D01*
X303986Y292260D02*
X341387D01*
Y246984D02*
Y292260D01*
X303986Y246984D02*
Y292260D01*
X467962Y209583D02*
Y258402D01*
X415206D02*
X434084D01*
X467962D01*
X415206Y209583D02*
X434084D01*
X467962D01*
X415206D02*
Y258402D01*
D71*
X441190Y235042D02*
X441715Y235566D01*
X442765D01*
X443290Y235042D01*
Y234517D01*
X442765Y233992D01*
X441715D01*
X441190Y233467D01*
Y232943D01*
X441715Y232418D01*
X442765D01*
X443290Y232943D01*
X440141Y232418D02*
X439091D01*
X439616D01*
Y235566D01*
X440141Y235042D01*
X487627Y92852D02*
Y89703D01*
X486053D01*
X485528Y90228D01*
Y92327D01*
X486053Y92852D01*
X487627D01*
X484478Y92327D02*
X483953Y92852D01*
X482904D01*
X482379Y92327D01*
Y91802D01*
X482904Y91277D01*
X483429D01*
X482904D01*
X482379Y90753D01*
Y90228D01*
X482904Y89703D01*
X483953D01*
X484478Y90228D01*
X481330Y89178D02*
X479230D01*
X478181Y92852D02*
X476082D01*
Y92327D01*
X478181Y90228D01*
Y89703D01*
X467927Y92852D02*
Y89703D01*
X466353D01*
X465828Y90228D01*
Y92327D01*
X466353Y92852D01*
X467927D01*
X462679Y89703D02*
X464778D01*
X462679Y91802D01*
Y92327D01*
X463204Y92852D01*
X464253D01*
X464778Y92327D01*
X461630Y89178D02*
X459530D01*
X456382Y92852D02*
X457432Y92327D01*
X458481Y91277D01*
Y90228D01*
X457956Y89703D01*
X456907D01*
X456382Y90228D01*
Y90753D01*
X456907Y91277D01*
X458481D01*
X448327Y92852D02*
Y89703D01*
X446753D01*
X446228Y90228D01*
Y92327D01*
X446753Y92852D01*
X448327D01*
X445178Y89703D02*
X444129D01*
X444653D01*
Y92852D01*
X445178Y92327D01*
X442554Y89178D02*
X440455D01*
X437307Y92852D02*
X439406D01*
Y91277D01*
X438356Y91802D01*
X437831D01*
X437307Y91277D01*
Y90228D01*
X437831Y89703D01*
X438881D01*
X439406Y90228D01*
X428627Y92852D02*
Y89703D01*
X427052D01*
X426528Y90228D01*
Y92327D01*
X427052Y92852D01*
X428627D01*
X425478Y92327D02*
X424953Y92852D01*
X423904D01*
X423379Y92327D01*
Y90228D01*
X423904Y89703D01*
X424953D01*
X425478Y90228D01*
Y92327D01*
X422330Y89178D02*
X420230D01*
X417607Y89703D02*
Y92852D01*
X419181Y91277D01*
X417082D01*
X147946Y272082D02*
Y269983D01*
X146897Y268934D01*
X145847Y269983D01*
Y272082D01*
X143223D02*
X144273D01*
X144798Y271557D01*
Y269458D01*
X144273Y268934D01*
X143223D01*
X142699Y269458D01*
Y271557D01*
X143223Y272082D01*
X141649D02*
Y268934D01*
X139550D01*
X138500Y272082D02*
Y269458D01*
X137976Y268934D01*
X136926D01*
X136401Y269458D01*
Y272082D01*
X135352Y268934D02*
Y272082D01*
X134302Y271033D01*
X133253Y272082D01*
Y268934D01*
X130104Y272082D02*
X132203D01*
Y268934D01*
X130104D01*
X132203Y270508D02*
X131154D01*
X236038Y199984D02*
Y203133D01*
X234463D01*
X233939Y202608D01*
Y201558D01*
X234463Y201033D01*
X236038D01*
X231315Y203133D02*
X232364D01*
X232889Y202608D01*
Y200509D01*
X232364Y199984D01*
X231315D01*
X230790Y200509D01*
Y202608D01*
X231315Y203133D01*
X229741D02*
X227642D01*
X228691D01*
Y199984D01*
X226592Y202608D02*
X226067Y203133D01*
X225018D01*
X224493Y202608D01*
Y202083D01*
X225018Y201558D01*
X225542D01*
X225018D01*
X224493Y201033D01*
Y200509D01*
X225018Y199984D01*
X226067D01*
X226592Y200509D01*
X337809Y193048D02*
Y196196D01*
X336235D01*
X335710Y195672D01*
Y194622D01*
X336235Y194097D01*
X337809D01*
X333086Y196196D02*
X334136D01*
X334661Y195672D01*
Y193573D01*
X334136Y193048D01*
X333086D01*
X332562Y193573D01*
Y195672D01*
X333086Y196196D01*
X331512D02*
X329413D01*
X330463D01*
Y193048D01*
X326265D02*
X328364D01*
X326265Y195147D01*
Y195672D01*
X326789Y196196D01*
X327839D01*
X328364Y195672D01*
X236694Y267753D02*
Y270901D01*
X235120D01*
X234595Y270376D01*
Y269327D01*
X235120Y268802D01*
X236694D01*
X231971Y270901D02*
X233021D01*
X233545Y270376D01*
Y268277D01*
X233021Y267753D01*
X231971D01*
X231446Y268277D01*
Y270376D01*
X231971Y270901D01*
X230397D02*
X228298D01*
X229347D01*
Y267753D01*
X227248D02*
X226199D01*
X226724D01*
Y270901D01*
X227248Y270376D01*
X327573Y269623D02*
Y272771D01*
X325999D01*
X325474Y272246D01*
Y271197D01*
X325999Y270672D01*
X327573D01*
X322850Y272771D02*
X323900D01*
X324425Y272246D01*
Y270147D01*
X323900Y269623D01*
X322850D01*
X322325Y270147D01*
Y272246D01*
X322850Y272771D01*
X321276D02*
X319177D01*
X320227D01*
Y269623D01*
X318127Y272246D02*
X317603Y272771D01*
X316553D01*
X316028Y272246D01*
Y270147D01*
X316553Y269623D01*
X317603D01*
X318127Y270147D01*
Y272246D01*
X372621Y250943D02*
X375770D01*
Y249369D01*
X375245Y248844D01*
X373146D01*
X372621Y249369D01*
Y250943D01*
Y245695D02*
Y247794D01*
X374196D01*
X373671Y246745D01*
Y246220D01*
X374196Y245695D01*
X375245D01*
X375770Y246220D01*
Y247270D01*
X375245Y247794D01*
X376295Y244646D02*
Y242547D01*
X375770Y241497D02*
Y240448D01*
Y240972D01*
X372621D01*
X373146Y241497D01*
Y238873D02*
X372621Y238349D01*
Y237299D01*
X373146Y236774D01*
X373671D01*
X374196Y237299D01*
Y237824D01*
Y237299D01*
X374721Y236774D01*
X375245D01*
X375770Y237299D01*
Y238349D01*
X375245Y238873D01*
X474196Y250427D02*
X477345D01*
Y248853D01*
X476820Y248328D01*
X474721D01*
X474196Y248853D01*
Y250427D01*
X477345Y245179D02*
Y247278D01*
X475246Y245179D01*
X474721D01*
X474196Y245704D01*
Y246754D01*
X474721Y247278D01*
X477870Y244130D02*
Y242031D01*
X477345Y240981D02*
Y239932D01*
Y240456D01*
X474196D01*
X474721Y240981D01*
Y238357D02*
X474196Y237832D01*
Y236783D01*
X474721Y236258D01*
X476820D01*
X477345Y236783D01*
Y237832D01*
X476820Y238357D01*
X474721D01*
X372818Y231037D02*
X375967D01*
Y229463D01*
X375442Y228938D01*
X373343D01*
X372818Y229463D01*
Y231037D01*
Y225789D02*
X373343Y226839D01*
X374393Y227888D01*
X375442D01*
X375967Y227364D01*
Y226314D01*
X375442Y225789D01*
X374918D01*
X374393Y226314D01*
Y227888D01*
X376492Y224740D02*
Y222641D01*
X375967Y221591D02*
Y220542D01*
Y221067D01*
X372818D01*
X373343Y221591D01*
X375967Y217393D02*
X372818D01*
X374393Y218968D01*
Y216868D01*
X372917Y211746D02*
X376065D01*
Y210172D01*
X375541Y209647D01*
X373442D01*
X372917Y210172D01*
Y211746D01*
Y208597D02*
Y206498D01*
X373442D01*
X375541Y208597D01*
X376065D01*
X376590Y205449D02*
Y203350D01*
X376065Y202300D02*
Y201251D01*
Y201775D01*
X372917D01*
X373442Y202300D01*
X372917Y197577D02*
Y199676D01*
X374491D01*
X373966Y198627D01*
Y198102D01*
X374491Y197577D01*
X375541D01*
X376065Y198102D01*
Y199151D01*
X375541Y199676D01*
X474393Y209942D02*
X477542D01*
Y208367D01*
X477017Y207843D01*
X474918D01*
X474393Y208367D01*
Y209942D01*
X474918Y206793D02*
X474393Y206268D01*
Y205219D01*
X474918Y204694D01*
X477017D01*
X477542Y205219D01*
Y206268D01*
X477017Y206793D01*
X474918D01*
X478067Y203645D02*
Y201546D01*
X474918Y200496D02*
X474393Y199971D01*
Y198922D01*
X474918Y198397D01*
X475443D01*
X475968Y198922D01*
X476492Y198397D01*
X477017D01*
X477542Y198922D01*
Y199971D01*
X477017Y200496D01*
X476492D01*
X475968Y199971D01*
X475443Y200496D01*
X474918D01*
X475968Y199971D02*
Y198922D01*
X473803Y269981D02*
X476951D01*
Y268407D01*
X476427Y267882D01*
X474327D01*
X473803Y268407D01*
Y269981D01*
X474327Y266832D02*
X473803Y266307D01*
Y265258D01*
X474327Y264733D01*
X474852D01*
X475377Y265258D01*
Y265783D01*
Y265258D01*
X475902Y264733D01*
X476427D01*
X476951Y265258D01*
Y266307D01*
X476427Y266832D01*
X477476Y263684D02*
Y261585D01*
X476951Y260535D02*
Y259486D01*
Y260010D01*
X473803D01*
X474327Y260535D01*
X476951Y257911D02*
Y256862D01*
Y257386D01*
X473803D01*
X474327Y257911D01*
X474393Y229364D02*
X477542D01*
Y227790D01*
X477017Y227265D01*
X474918D01*
X474393Y227790D01*
Y229364D01*
X477542Y226216D02*
Y225166D01*
Y225691D01*
X474393D01*
X474918Y226216D01*
X478067Y223592D02*
Y221493D01*
X477017Y220443D02*
X477542Y219919D01*
Y218869D01*
X477017Y218344D01*
X474918D01*
X474393Y218869D01*
Y219919D01*
X474918Y220443D01*
X475443D01*
X475968Y219919D01*
Y218344D01*
X372720Y270506D02*
X375869D01*
Y268931D01*
X375344Y268407D01*
X373245D01*
X372720Y268931D01*
Y270506D01*
X375869Y265783D02*
X372720D01*
X374294Y267357D01*
Y265258D01*
X376393Y264208D02*
Y262109D01*
X375869Y261060D02*
Y260010D01*
Y260535D01*
X372720D01*
X373245Y261060D01*
X375869Y256337D02*
Y258436D01*
X373769Y256337D01*
X373245D01*
X372720Y256862D01*
Y257911D01*
X373245Y258436D01*
M02*
