G04*
G04 #@! TF.GenerationSoftware,Altium Limited,Altium Designer,20.1.11 (218)*
G04*
G04 Layer_Physical_Order=3*
G04 Layer_Color=16440176*
%FSLAX25Y25*%
%MOIN*%
G70*
G04*
G04 #@! TF.SameCoordinates,94F8EA6A-D3DE-4CB1-8755-D4D4D92DF36F*
G04*
G04*
G04 #@! TF.FilePolarity,Positive*
G04*
G01*
G75*
%ADD51C,0.05512*%
%ADD52C,0.06693*%
%ADD53C,0.06600*%
%ADD54C,0.06000*%
%ADD58C,0.08268*%
%ADD63C,0.02756*%
%ADD64C,0.03543*%
%ADD65C,0.05906*%
G36*
X472706Y272742D02*
X472783Y272352D01*
X473004Y272021D01*
X473335Y271800D01*
X473725Y271723D01*
X496569Y271723D01*
X496569Y166842D01*
X495466D01*
Y160118D01*
X496569D01*
X496569Y68924D01*
X412284Y68924D01*
X412284Y75331D01*
X412258Y75460D01*
Y76413D01*
X377707Y76413D01*
X377462Y76515D01*
X376584Y76630D01*
X375707Y76515D01*
X375462Y76413D01*
X190985Y76413D01*
X190740Y76515D01*
X189862Y76630D01*
X188985Y76515D01*
X188740Y76413D01*
X78726Y76413D01*
X78726Y280449D01*
X256624Y280449D01*
X256742Y280425D01*
X296077D01*
X296388Y280487D01*
X296651Y280663D01*
X296827Y280926D01*
X296888Y281236D01*
Y301477D01*
X406834Y301477D01*
X407111Y301061D01*
X407009Y300815D01*
X406894Y299937D01*
X407009Y299059D01*
X407348Y298241D01*
X407887Y297539D01*
X408589Y297000D01*
X409407Y296661D01*
X410285Y296546D01*
X411163Y296661D01*
X411981Y297000D01*
X412683Y297539D01*
X413222Y298241D01*
X413561Y299059D01*
X413676Y299937D01*
X413561Y300815D01*
X413459Y301061D01*
X413737Y301477D01*
X450141Y301477D01*
X450418Y301061D01*
X450316Y300815D01*
X450201Y299937D01*
X450316Y299059D01*
X450655Y298241D01*
X451194Y297539D01*
X451896Y297000D01*
X452714Y296661D01*
X453592Y296546D01*
X454470Y296661D01*
X455288Y297000D01*
X455990Y297539D01*
X456529Y298241D01*
X456868Y299059D01*
X456983Y299937D01*
X456868Y300815D01*
X456766Y301061D01*
X457044Y301477D01*
X472706D01*
X472706Y272742D01*
D02*
G37*
G36*
X484277Y308795D02*
X484339Y308485D01*
X484515Y308222D01*
X484778Y308046D01*
X485088Y307984D01*
X507899D01*
X507899Y55275D01*
X72513D01*
X72513Y307984D01*
X95324D01*
X95635Y308046D01*
X95898Y308222D01*
X96074Y308485D01*
X96135Y308795D01*
Y335543D01*
X239797D01*
Y330449D01*
X239858Y330142D01*
X240032Y329881D01*
X240293Y329707D01*
X240600Y329646D01*
X255931D01*
Y281532D01*
X77706Y281532D01*
X77706Y75331D01*
X186668Y75331D01*
X186883Y74831D01*
X186587Y74117D01*
X186471Y73239D01*
X186587Y72362D01*
X186926Y71544D01*
X187465Y70841D01*
X188167Y70303D01*
X188985Y69964D01*
X189862Y69848D01*
X190740Y69964D01*
X191558Y70303D01*
X192260Y70841D01*
X192799Y71544D01*
X193138Y72362D01*
X193253Y73239D01*
X193138Y74117D01*
X192842Y74831D01*
X193056Y75331D01*
X373390Y75331D01*
X373604Y74831D01*
X373309Y74117D01*
X373193Y73239D01*
X373309Y72362D01*
X373647Y71544D01*
X374186Y70841D01*
X374889Y70303D01*
X375707Y69964D01*
X376584Y69848D01*
X377462Y69964D01*
X378280Y70303D01*
X378982Y70841D01*
X379521Y71544D01*
X379860Y72362D01*
X379975Y73239D01*
X379860Y74117D01*
X379564Y74831D01*
X379778Y75331D01*
X411264Y75331D01*
X411264Y67905D01*
X497588Y67905D01*
X497588Y160118D01*
X502190D01*
Y166842D01*
X497588D01*
X497588Y272742D01*
X473725Y272742D01*
X473725Y302496D01*
X455780D01*
X455288Y302874D01*
X454470Y303213D01*
X453592Y303328D01*
X452714Y303213D01*
X451896Y302874D01*
X451404Y302496D01*
X412473Y302496D01*
X411981Y302874D01*
X411163Y303213D01*
X410285Y303328D01*
X409407Y303213D01*
X408589Y302874D01*
X408097Y302496D01*
X296888Y302496D01*
Y329646D01*
X312647D01*
X312954Y329707D01*
X313215Y329881D01*
X313389Y330142D01*
X313450Y330449D01*
Y335543D01*
X484277D01*
Y308795D01*
D02*
G37*
%LPC*%
G36*
X303580Y294616D02*
Y290004D01*
X308192D01*
X308082Y290844D01*
X307564Y292093D01*
X306741Y293166D01*
X305669Y293988D01*
X304420Y294506D01*
X303580Y294616D01*
D02*
G37*
G36*
X302580Y294617D02*
X301740Y294506D01*
X300491Y293988D01*
X299418Y293166D01*
X298595Y292093D01*
X298078Y290844D01*
X297968Y290004D01*
X302580D01*
Y294617D01*
D02*
G37*
G36*
X464813Y295640D02*
X463377Y295451D01*
X462040Y294897D01*
X460891Y294016D01*
X460010Y292867D01*
X459456Y291530D01*
X459267Y290094D01*
X459456Y288659D01*
X460010Y287322D01*
X460891Y286173D01*
X462040Y285292D01*
X463377Y284738D01*
X464813Y284549D01*
X466248Y284738D01*
X467585Y285292D01*
X468734Y286173D01*
X469615Y287322D01*
X470169Y288659D01*
X470358Y290094D01*
X470169Y291530D01*
X469615Y292867D01*
X468734Y294016D01*
X467585Y294897D01*
X466248Y295451D01*
X464813Y295640D01*
D02*
G37*
G36*
X442372D02*
X440936Y295451D01*
X439599Y294897D01*
X438450Y294016D01*
X437569Y292867D01*
X437015Y291530D01*
X436826Y290094D01*
X437015Y288659D01*
X437569Y287322D01*
X438450Y286173D01*
X439599Y285292D01*
X440936Y284738D01*
X442372Y284549D01*
X443807Y284738D01*
X445144Y285292D01*
X446293Y286173D01*
X447174Y287322D01*
X447728Y288659D01*
X447917Y290094D01*
X447728Y291530D01*
X447174Y292867D01*
X446293Y294016D01*
X445144Y294897D01*
X443807Y295451D01*
X442372Y295640D01*
D02*
G37*
G36*
X421505D02*
X420070Y295451D01*
X418733Y294897D01*
X417584Y294016D01*
X416703Y292867D01*
X416149Y291530D01*
X415960Y290094D01*
X416149Y288659D01*
X416703Y287322D01*
X417584Y286173D01*
X418733Y285292D01*
X420070Y284738D01*
X421505Y284549D01*
X422941Y284738D01*
X424278Y285292D01*
X425427Y286173D01*
X426308Y287322D01*
X426862Y288659D01*
X427051Y290094D01*
X426862Y291530D01*
X426308Y292867D01*
X425427Y294016D01*
X424278Y294897D01*
X422941Y295451D01*
X421505Y295640D01*
D02*
G37*
G36*
X399065D02*
X397629Y295451D01*
X396292Y294897D01*
X395143Y294016D01*
X394262Y292867D01*
X393708Y291530D01*
X393519Y290094D01*
X393708Y288659D01*
X394262Y287322D01*
X395143Y286173D01*
X396292Y285292D01*
X397629Y284738D01*
X399065Y284549D01*
X400500Y284738D01*
X401837Y285292D01*
X402986Y286173D01*
X403867Y287322D01*
X404421Y288659D01*
X404610Y290094D01*
X404421Y291530D01*
X403867Y292867D01*
X402986Y294016D01*
X401837Y294897D01*
X400500Y295451D01*
X399065Y295640D01*
D02*
G37*
G36*
X308192Y289004D02*
X303580D01*
Y284391D01*
X304420Y284502D01*
X305669Y285019D01*
X306741Y285842D01*
X307564Y286915D01*
X308082Y288164D01*
X308192Y289004D01*
D02*
G37*
G36*
X302580D02*
X297968D01*
X298078Y288164D01*
X298595Y286915D01*
X299418Y285842D01*
X300491Y285019D01*
X301740Y284502D01*
X302580Y284391D01*
Y289004D01*
D02*
G37*
G36*
X366978Y294682D02*
X365638Y294506D01*
X364389Y293988D01*
X363316Y293166D01*
X362493Y292093D01*
X361976Y290844D01*
X361800Y289504D01*
X361976Y288164D01*
X362493Y286915D01*
X363316Y285842D01*
X364389Y285019D01*
X365638Y284502D01*
X366978Y284326D01*
X368318Y284502D01*
X369567Y285019D01*
X370639Y285842D01*
X371462Y286915D01*
X371980Y288164D01*
X372156Y289504D01*
X371980Y290844D01*
X371462Y292093D01*
X370639Y293166D01*
X369567Y293988D01*
X368318Y294506D01*
X366978Y294682D01*
D02*
G37*
G36*
X453592Y292490D02*
X452157Y292301D01*
X450819Y291747D01*
X449671Y290866D01*
X448790Y289718D01*
X448236Y288380D01*
X448047Y286945D01*
X448236Y285510D01*
X448790Y284172D01*
X449671Y283024D01*
X450819Y282142D01*
X452157Y281588D01*
X453592Y281399D01*
X455027Y281588D01*
X456365Y282142D01*
X457513Y283024D01*
X458395Y284172D01*
X458949Y285510D01*
X459138Y286945D01*
X458949Y288380D01*
X458395Y289718D01*
X457513Y290866D01*
X456365Y291747D01*
X455027Y292301D01*
X453592Y292490D01*
D02*
G37*
G36*
X410285D02*
X408850Y292301D01*
X407512Y291747D01*
X406364Y290866D01*
X405482Y289718D01*
X404928Y288380D01*
X404740Y286945D01*
X404928Y285510D01*
X405482Y284172D01*
X406364Y283024D01*
X407512Y282142D01*
X408850Y281588D01*
X410285Y281399D01*
X411720Y281588D01*
X413058Y282142D01*
X414206Y283024D01*
X415088Y284172D01*
X415641Y285510D01*
X415831Y286945D01*
X415641Y288380D01*
X415088Y289718D01*
X414206Y290866D01*
X413058Y291747D01*
X411720Y292301D01*
X410285Y292490D01*
D02*
G37*
G36*
X426427Y282275D02*
X425577Y282106D01*
X424857Y281625D01*
X424376Y280905D01*
X424207Y280055D01*
X424376Y279206D01*
X424857Y278485D01*
X425577Y278004D01*
X426427Y277835D01*
X427276Y278004D01*
X427996Y278485D01*
X428478Y279206D01*
X428647Y280055D01*
X428478Y280905D01*
X427996Y281625D01*
X427276Y282106D01*
X426427Y282275D01*
D02*
G37*
G36*
X446962Y280429D02*
X446113Y280260D01*
X445393Y279779D01*
X444911Y279058D01*
X444742Y278209D01*
X444911Y277360D01*
X445393Y276639D01*
X446113Y276158D01*
X446962Y275989D01*
X447812Y276158D01*
X448532Y276639D01*
X449013Y277360D01*
X449182Y278209D01*
X449013Y279058D01*
X448532Y279779D01*
X447812Y280260D01*
X446962Y280429D01*
D02*
G37*
G36*
X464344Y277255D02*
X463495Y277086D01*
X462775Y276605D01*
X462293Y275885D01*
X462124Y275036D01*
X462293Y274186D01*
X462775Y273466D01*
X463495Y272985D01*
X464344Y272816D01*
X465194Y272985D01*
X465914Y273466D01*
X466395Y274186D01*
X466564Y275036D01*
X466395Y275885D01*
X465914Y276605D01*
X465194Y277086D01*
X464344Y277255D01*
D02*
G37*
G36*
X336860Y277058D02*
X336010Y276889D01*
X335290Y276408D01*
X334809Y275688D01*
X334640Y274839D01*
X334809Y273989D01*
X335290Y273269D01*
X336010Y272788D01*
X336860Y272619D01*
X337709Y272788D01*
X338429Y273269D01*
X338911Y273989D01*
X339080Y274839D01*
X338911Y275688D01*
X338429Y276408D01*
X337709Y276889D01*
X336860Y277058D01*
D02*
G37*
G36*
X438730Y274991D02*
X437880Y274822D01*
X437160Y274341D01*
X436679Y273621D01*
X436510Y272772D01*
X436679Y271922D01*
X437160Y271202D01*
X437880Y270721D01*
X438730Y270552D01*
X439579Y270721D01*
X440300Y271202D01*
X440781Y271922D01*
X440950Y272772D01*
X440781Y273621D01*
X440300Y274341D01*
X439579Y274822D01*
X438730Y274991D01*
D02*
G37*
G36*
X374092Y273661D02*
X373242Y273492D01*
X372522Y273011D01*
X372041Y272291D01*
X371872Y271442D01*
X372041Y270592D01*
X372522Y269872D01*
X373242Y269391D01*
X374092Y269222D01*
X374941Y269391D01*
X375662Y269872D01*
X376143Y270592D01*
X376312Y271442D01*
X376143Y272291D01*
X375662Y273011D01*
X374941Y273492D01*
X374092Y273661D01*
D02*
G37*
G36*
X407198Y273637D02*
X406349Y273468D01*
X405629Y272987D01*
X405148Y272267D01*
X404979Y271418D01*
X405148Y270568D01*
X405629Y269848D01*
X406349Y269367D01*
X407198Y269198D01*
X408048Y269367D01*
X408768Y269848D01*
X409249Y270568D01*
X409418Y271418D01*
X409249Y272267D01*
X408768Y272987D01*
X408048Y273468D01*
X407198Y273637D01*
D02*
G37*
G36*
X420029Y269283D02*
X419180Y269114D01*
X418460Y268633D01*
X417978Y267913D01*
X417809Y267063D01*
X417978Y266213D01*
X418460Y265493D01*
X419180Y265012D01*
X420029Y264843D01*
X420879Y265012D01*
X421599Y265493D01*
X422080Y266213D01*
X422249Y267063D01*
X422080Y267913D01*
X421599Y268633D01*
X420879Y269114D01*
X420029Y269283D01*
D02*
G37*
G36*
X391100Y267242D02*
Y264020D01*
X394322D01*
X394259Y264500D01*
X393881Y265414D01*
X393279Y266198D01*
X392494Y266800D01*
X391581Y267179D01*
X391100Y267242D01*
D02*
G37*
G36*
X390100Y267242D02*
X389619Y267179D01*
X388706Y266800D01*
X387921Y266198D01*
X387319Y265414D01*
X386941Y264500D01*
X386877Y264020D01*
X390100D01*
Y267242D01*
D02*
G37*
G36*
X492478Y267242D02*
Y264020D01*
X495700D01*
X495637Y264500D01*
X495259Y265414D01*
X494657Y266198D01*
X493872Y266800D01*
X492958Y267179D01*
X492478Y267242D01*
D02*
G37*
G36*
X491478D02*
X490998Y267179D01*
X490084Y266800D01*
X489299Y266198D01*
X488697Y265414D01*
X488319Y264500D01*
X488256Y264020D01*
X491478D01*
Y267242D01*
D02*
G37*
G36*
X220521Y268102D02*
X219672Y267933D01*
X218952Y267452D01*
X218470Y266731D01*
X218301Y265882D01*
X218470Y265033D01*
X218952Y264312D01*
X219672Y263831D01*
X220521Y263662D01*
X221371Y263831D01*
X222091Y264312D01*
X222572Y265033D01*
X222741Y265882D01*
X222572Y266731D01*
X222091Y267452D01*
X221371Y267933D01*
X220521Y268102D01*
D02*
G37*
G36*
X463537Y265763D02*
X462688Y265594D01*
X461967Y265113D01*
X461486Y264393D01*
X461317Y263544D01*
X461486Y262694D01*
X461967Y261974D01*
X462688Y261493D01*
X463537Y261324D01*
X464387Y261493D01*
X465107Y261974D01*
X465588Y262694D01*
X465757Y263544D01*
X465588Y264393D01*
X465107Y265113D01*
X464387Y265594D01*
X463537Y265763D01*
D02*
G37*
G36*
X394322Y263020D02*
X391100D01*
Y259797D01*
X391581Y259860D01*
X392494Y260239D01*
X393279Y260841D01*
X393881Y261626D01*
X394259Y262539D01*
X394322Y263020D01*
D02*
G37*
G36*
X390100D02*
X386877D01*
X386941Y262539D01*
X387319Y261626D01*
X387921Y260841D01*
X388706Y260239D01*
X389619Y259860D01*
X390100Y259797D01*
Y263020D01*
D02*
G37*
G36*
X495700Y263020D02*
X492478D01*
Y259797D01*
X492958Y259860D01*
X493872Y260239D01*
X494657Y260841D01*
X495259Y261626D01*
X495637Y262539D01*
X495700Y263020D01*
D02*
G37*
G36*
X491478D02*
X488256D01*
X488319Y262539D01*
X488697Y261626D01*
X489299Y260841D01*
X490084Y260239D01*
X490998Y259860D01*
X491478Y259797D01*
Y263020D01*
D02*
G37*
G36*
X400600Y267308D02*
X399620Y267179D01*
X398706Y266800D01*
X397921Y266198D01*
X397319Y265414D01*
X396941Y264500D01*
X396812Y263520D01*
X396941Y262539D01*
X397319Y261626D01*
X397921Y260841D01*
X398706Y260239D01*
X399620Y259860D01*
X400600Y259731D01*
X401580Y259860D01*
X402494Y260239D01*
X403279Y260841D01*
X403881Y261626D01*
X404259Y262539D01*
X404388Y263520D01*
X404259Y264500D01*
X403881Y265414D01*
X403279Y266198D01*
X402494Y266800D01*
X401580Y267179D01*
X400600Y267308D01*
D02*
G37*
G36*
X380600D02*
X379620Y267179D01*
X378706Y266800D01*
X377921Y266198D01*
X377319Y265414D01*
X376941Y264500D01*
X376812Y263520D01*
X376941Y262539D01*
X377319Y261626D01*
X377921Y260841D01*
X378706Y260239D01*
X379620Y259860D01*
X380600Y259731D01*
X381580Y259860D01*
X382494Y260239D01*
X383279Y260841D01*
X383881Y261626D01*
X384259Y262539D01*
X384388Y263520D01*
X384259Y264500D01*
X383881Y265414D01*
X383279Y266198D01*
X382494Y266800D01*
X381580Y267179D01*
X380600Y267308D01*
D02*
G37*
G36*
X481978Y267308D02*
X480998Y267179D01*
X480084Y266800D01*
X479299Y266198D01*
X478697Y265414D01*
X478319Y264500D01*
X478190Y263520D01*
X478319Y262539D01*
X478697Y261626D01*
X479299Y260841D01*
X480084Y260239D01*
X480998Y259860D01*
X481978Y259731D01*
X482958Y259860D01*
X483872Y260239D01*
X484657Y260841D01*
X485259Y261626D01*
X485637Y262539D01*
X485766Y263520D01*
X485637Y264500D01*
X485259Y265414D01*
X484657Y266198D01*
X483872Y266800D01*
X482958Y267179D01*
X481978Y267308D01*
D02*
G37*
G36*
X366978Y269682D02*
X365638Y269506D01*
X364389Y268988D01*
X363316Y268166D01*
X362493Y267093D01*
X361976Y265844D01*
X361800Y264504D01*
X361976Y263164D01*
X362493Y261915D01*
X363316Y260842D01*
X364389Y260019D01*
X365638Y259502D01*
X366978Y259326D01*
X368318Y259502D01*
X369567Y260019D01*
X370639Y260842D01*
X371462Y261915D01*
X371980Y263164D01*
X372156Y264504D01*
X371980Y265844D01*
X371462Y267093D01*
X370639Y268166D01*
X369567Y268988D01*
X368318Y269506D01*
X366978Y269682D01*
D02*
G37*
G36*
X303080D02*
X301740Y269506D01*
X300491Y268988D01*
X299418Y268166D01*
X298595Y267093D01*
X298078Y265844D01*
X297902Y264504D01*
X298078Y263164D01*
X298595Y261915D01*
X299418Y260842D01*
X300491Y260019D01*
X301740Y259502D01*
X303080Y259326D01*
X304420Y259502D01*
X305669Y260019D01*
X306741Y260842D01*
X307564Y261915D01*
X308082Y263164D01*
X308258Y264504D01*
X308082Y265844D01*
X307564Y267093D01*
X306741Y268166D01*
X305669Y268988D01*
X304420Y269506D01*
X303080Y269682D01*
D02*
G37*
G36*
X249774D02*
X248433Y269506D01*
X247184Y268988D01*
X246112Y268166D01*
X245289Y267093D01*
X244772Y265844D01*
X244595Y264504D01*
X244772Y263164D01*
X245289Y261915D01*
X246112Y260842D01*
X247184Y260019D01*
X248433Y259502D01*
X249774Y259326D01*
X251114Y259502D01*
X252363Y260019D01*
X253435Y260842D01*
X254258Y261915D01*
X254775Y263164D01*
X254952Y264504D01*
X254775Y265844D01*
X254258Y267093D01*
X253435Y268166D01*
X252363Y268988D01*
X251114Y269506D01*
X249774Y269682D01*
D02*
G37*
G36*
X185876D02*
X184535Y269506D01*
X183286Y268988D01*
X182214Y268166D01*
X181391Y267093D01*
X180874Y265844D01*
X180697Y264504D01*
X180874Y263164D01*
X181391Y261915D01*
X182214Y260842D01*
X183286Y260019D01*
X184535Y259502D01*
X185876Y259326D01*
X187216Y259502D01*
X188465Y260019D01*
X189537Y260842D01*
X190360Y261915D01*
X190877Y263164D01*
X191054Y264504D01*
X190877Y265844D01*
X190360Y267093D01*
X189537Y268166D01*
X188465Y268988D01*
X187216Y269506D01*
X185876Y269682D01*
D02*
G37*
G36*
X166644D02*
X165303Y269506D01*
X164054Y268988D01*
X162982Y268166D01*
X162159Y267093D01*
X161642Y265844D01*
X161465Y264504D01*
X161642Y263164D01*
X162159Y261915D01*
X162982Y260842D01*
X164054Y260019D01*
X165303Y259502D01*
X166644Y259326D01*
X167984Y259502D01*
X169233Y260019D01*
X170305Y260842D01*
X171128Y261915D01*
X171645Y263164D01*
X171822Y264504D01*
X171645Y265844D01*
X171128Y267093D01*
X170305Y268166D01*
X169233Y268988D01*
X167984Y269506D01*
X166644Y269682D01*
D02*
G37*
G36*
X102745D02*
X101405Y269506D01*
X100156Y268988D01*
X99084Y268166D01*
X98261Y267093D01*
X97744Y265844D01*
X97567Y264504D01*
X97744Y263164D01*
X98261Y261915D01*
X99084Y260842D01*
X100156Y260019D01*
X101405Y259502D01*
X102745Y259326D01*
X104086Y259502D01*
X105335Y260019D01*
X106407Y260842D01*
X107230Y261915D01*
X107747Y263164D01*
X107924Y264504D01*
X107747Y265844D01*
X107230Y267093D01*
X106407Y268166D01*
X105335Y268988D01*
X104086Y269506D01*
X102745Y269682D01*
D02*
G37*
G36*
X174521Y261015D02*
X173672Y260846D01*
X172952Y260365D01*
X172470Y259645D01*
X172301Y258795D01*
X172470Y257946D01*
X172952Y257226D01*
X173672Y256745D01*
X174521Y256575D01*
X175371Y256745D01*
X176091Y257226D01*
X176572Y257946D01*
X176741Y258795D01*
X176572Y259645D01*
X176091Y260365D01*
X175371Y260846D01*
X174521Y261015D01*
D02*
G37*
G36*
X128001D02*
X127152Y260846D01*
X126432Y260365D01*
X125951Y259645D01*
X125782Y258795D01*
X125951Y257946D01*
X126432Y257226D01*
X127152Y256745D01*
X128001Y256575D01*
X128851Y256745D01*
X129571Y257226D01*
X130052Y257946D01*
X130221Y258795D01*
X130052Y259645D01*
X129571Y260365D01*
X128851Y260846D01*
X128001Y261015D01*
D02*
G37*
G36*
X487467Y259354D02*
X486617Y259186D01*
X485897Y258704D01*
X485416Y257984D01*
X485247Y257135D01*
X485416Y256285D01*
X485897Y255565D01*
X486617Y255084D01*
X487467Y254915D01*
X488316Y255084D01*
X489036Y255565D01*
X489517Y256285D01*
X489686Y257135D01*
X489517Y257984D01*
X489036Y258704D01*
X488316Y259186D01*
X487467Y259354D01*
D02*
G37*
G36*
X368946Y255896D02*
X368096Y255727D01*
X367376Y255246D01*
X366895Y254526D01*
X366726Y253677D01*
X366895Y252827D01*
X367376Y252107D01*
X368096Y251626D01*
X368946Y251457D01*
X369795Y251626D01*
X370515Y252107D01*
X370997Y252827D01*
X371165Y253677D01*
X370997Y254526D01*
X370515Y255246D01*
X369795Y255727D01*
X368946Y255896D01*
D02*
G37*
G36*
X425639Y255306D02*
X424790Y255137D01*
X424070Y254656D01*
X423589Y253936D01*
X423420Y253087D01*
X423589Y252237D01*
X424070Y251517D01*
X424790Y251036D01*
X425639Y250867D01*
X426489Y251036D01*
X427209Y251517D01*
X427690Y252237D01*
X427859Y253087D01*
X427690Y253936D01*
X427209Y254656D01*
X426489Y255137D01*
X425639Y255306D01*
D02*
G37*
G36*
X189482Y254740D02*
X188633Y254571D01*
X187912Y254090D01*
X187431Y253369D01*
X187262Y252520D01*
X187431Y251671D01*
X187912Y250950D01*
X188633Y250469D01*
X189482Y250300D01*
X190331Y250469D01*
X191052Y250950D01*
X191533Y251671D01*
X191702Y252520D01*
X191533Y253369D01*
X191052Y254090D01*
X190331Y254571D01*
X189482Y254740D01*
D02*
G37*
G36*
X449261Y253732D02*
X448412Y253563D01*
X447692Y253081D01*
X447211Y252361D01*
X447042Y251512D01*
X447211Y250662D01*
X447692Y249942D01*
X448412Y249461D01*
X449261Y249292D01*
X450111Y249461D01*
X450831Y249942D01*
X451312Y250662D01*
X451481Y251512D01*
X451312Y252361D01*
X450831Y253081D01*
X450111Y253563D01*
X449261Y253732D01*
D02*
G37*
G36*
X405561Y251862D02*
X404711Y251693D01*
X403991Y251211D01*
X403510Y250491D01*
X403341Y249642D01*
X403510Y248792D01*
X403991Y248072D01*
X404711Y247591D01*
X405561Y247422D01*
X406410Y247591D01*
X407130Y248072D01*
X407612Y248792D01*
X407780Y249642D01*
X407612Y250491D01*
X407130Y251211D01*
X406410Y251693D01*
X405561Y251862D01*
D02*
G37*
G36*
X133976Y251394D02*
X133127Y251225D01*
X132407Y250744D01*
X131926Y250023D01*
X131757Y249174D01*
X131926Y248324D01*
X132407Y247604D01*
X133127Y247123D01*
X133976Y246954D01*
X134826Y247123D01*
X135546Y247604D01*
X136027Y248324D01*
X136196Y249174D01*
X136027Y250023D01*
X135546Y250744D01*
X134826Y251225D01*
X133976Y251394D01*
D02*
G37*
G36*
X492478Y247557D02*
Y244335D01*
X495700D01*
X495637Y244815D01*
X495259Y245729D01*
X494657Y246513D01*
X493872Y247115D01*
X492958Y247494D01*
X492478Y247557D01*
D02*
G37*
G36*
X491478D02*
X490998Y247494D01*
X490084Y247115D01*
X489299Y246513D01*
X488697Y245729D01*
X488319Y244815D01*
X488256Y244335D01*
X491478D01*
Y247557D01*
D02*
G37*
G36*
X390943Y247557D02*
Y244335D01*
X394165D01*
X394102Y244815D01*
X393723Y245729D01*
X393121Y246513D01*
X392337Y247115D01*
X391423Y247494D01*
X390943Y247557D01*
D02*
G37*
G36*
X389943D02*
X389462Y247494D01*
X388548Y247115D01*
X387764Y246513D01*
X387162Y245729D01*
X386783Y244815D01*
X386720Y244335D01*
X389943D01*
Y247557D01*
D02*
G37*
G36*
X221612Y247365D02*
Y243547D01*
X225430D01*
X225346Y244182D01*
X224908Y245239D01*
X224212Y246147D01*
X223304Y246844D01*
X222246Y247282D01*
X221612Y247365D01*
D02*
G37*
G36*
X313344Y247365D02*
Y243547D01*
X317162D01*
X317079Y244182D01*
X316641Y245239D01*
X315944Y246147D01*
X315036Y246844D01*
X313979Y247282D01*
X313344Y247365D01*
D02*
G37*
G36*
X312344Y247365D02*
X311709Y247282D01*
X310652Y246844D01*
X309744Y246147D01*
X309047Y245239D01*
X308610Y244182D01*
X308526Y243547D01*
X312344D01*
Y247365D01*
D02*
G37*
G36*
X220612Y247365D02*
X219977Y247282D01*
X218920Y246844D01*
X218012Y246147D01*
X217315Y245239D01*
X216877Y244182D01*
X216794Y243547D01*
X220612D01*
Y247365D01*
D02*
G37*
G36*
X421273Y246078D02*
X420424Y245909D01*
X419704Y245428D01*
X419222Y244708D01*
X419054Y243859D01*
X419222Y243009D01*
X419704Y242289D01*
X420424Y241808D01*
X421273Y241639D01*
X422123Y241808D01*
X422843Y242289D01*
X423324Y243009D01*
X423493Y243859D01*
X423324Y244708D01*
X422843Y245428D01*
X422123Y245909D01*
X421273Y246078D01*
D02*
G37*
G36*
X495700Y243335D02*
X492478D01*
Y240112D01*
X492958Y240176D01*
X493872Y240554D01*
X494657Y241156D01*
X495259Y241940D01*
X495637Y242854D01*
X495700Y243335D01*
D02*
G37*
G36*
X491478D02*
X488256D01*
X488319Y242854D01*
X488697Y241940D01*
X489299Y241156D01*
X490084Y240554D01*
X490998Y240176D01*
X491478Y240112D01*
Y243335D01*
D02*
G37*
G36*
X394165Y243335D02*
X390943D01*
Y240112D01*
X391423Y240176D01*
X392337Y240554D01*
X393121Y241156D01*
X393723Y241940D01*
X394102Y242854D01*
X394165Y243335D01*
D02*
G37*
G36*
X389943D02*
X386720D01*
X386783Y242854D01*
X387162Y241940D01*
X387764Y241156D01*
X388548Y240554D01*
X389462Y240176D01*
X389943Y240112D01*
Y243335D01*
D02*
G37*
G36*
X481978Y247623D02*
X480998Y247494D01*
X480084Y247115D01*
X479299Y246513D01*
X478697Y245729D01*
X478319Y244815D01*
X478190Y243835D01*
X478319Y242854D01*
X478697Y241940D01*
X479299Y241156D01*
X480084Y240554D01*
X480998Y240176D01*
X481978Y240046D01*
X482958Y240176D01*
X483872Y240554D01*
X484657Y241156D01*
X485259Y241940D01*
X485637Y242854D01*
X485766Y243835D01*
X485637Y244815D01*
X485259Y245729D01*
X484657Y246513D01*
X483872Y247115D01*
X482958Y247494D01*
X481978Y247623D01*
D02*
G37*
G36*
X400443Y247623D02*
X399462Y247494D01*
X398548Y247115D01*
X397764Y246513D01*
X397162Y245729D01*
X396783Y244815D01*
X396654Y243835D01*
X396783Y242854D01*
X397162Y241940D01*
X397764Y241156D01*
X398548Y240554D01*
X399462Y240176D01*
X400443Y240046D01*
X401423Y240176D01*
X402337Y240554D01*
X403121Y241156D01*
X403723Y241940D01*
X404102Y242854D01*
X404231Y243835D01*
X404102Y244815D01*
X403723Y245729D01*
X403121Y246513D01*
X402337Y247115D01*
X401423Y247494D01*
X400443Y247623D01*
D02*
G37*
G36*
X380443D02*
X379462Y247494D01*
X378548Y247115D01*
X377764Y246513D01*
X377162Y245729D01*
X376783Y244815D01*
X376654Y243835D01*
X376783Y242854D01*
X377162Y241940D01*
X377764Y241156D01*
X378548Y240554D01*
X379462Y240176D01*
X380443Y240046D01*
X381423Y240176D01*
X382337Y240554D01*
X383121Y241156D01*
X383723Y241940D01*
X384102Y242854D01*
X384231Y243835D01*
X384102Y244815D01*
X383723Y245729D01*
X383121Y246513D01*
X382337Y247115D01*
X381423Y247494D01*
X380443Y247623D01*
D02*
G37*
G36*
X363561Y244405D02*
X362711Y244236D01*
X361991Y243755D01*
X361510Y243035D01*
X361341Y242185D01*
X361510Y241336D01*
X361991Y240616D01*
X362711Y240135D01*
X363561Y239966D01*
X364410Y240135D01*
X365130Y240616D01*
X365612Y241336D01*
X365781Y242185D01*
X365612Y243035D01*
X365130Y243755D01*
X364410Y244236D01*
X363561Y244405D01*
D02*
G37*
G36*
X469143Y248616D02*
X467906Y248453D01*
X466753Y247975D01*
X465763Y247215D01*
X465003Y246225D01*
X464525Y245072D01*
X464362Y243835D01*
X464525Y242597D01*
X465003Y241444D01*
X465763Y240454D01*
X466753Y239694D01*
X467906Y239216D01*
X469143Y239054D01*
X470381Y239216D01*
X471534Y239694D01*
X472524Y240454D01*
X473284Y241444D01*
X473761Y242597D01*
X473924Y243835D01*
X473761Y245072D01*
X473284Y246225D01*
X472524Y247215D01*
X471534Y247975D01*
X470381Y248453D01*
X469143Y248616D01*
D02*
G37*
G36*
X312344Y242547D02*
X308526D01*
X308610Y241913D01*
X309047Y240855D01*
X309744Y239947D01*
X310652Y239251D01*
X311709Y238813D01*
X312344Y238729D01*
Y242547D01*
D02*
G37*
G36*
X225430D02*
X221612D01*
Y238729D01*
X222246Y238813D01*
X223304Y239251D01*
X224212Y239947D01*
X224908Y240855D01*
X225346Y241913D01*
X225430Y242547D01*
D02*
G37*
G36*
X220612D02*
X216794D01*
X216877Y241913D01*
X217315Y240855D01*
X218012Y239947D01*
X218920Y239251D01*
X219977Y238813D01*
X220612Y238729D01*
Y242547D01*
D02*
G37*
G36*
X317162D02*
X313344D01*
Y238729D01*
X313979Y238813D01*
X315036Y239251D01*
X315944Y239947D01*
X316641Y240855D01*
X317079Y241913D01*
X317162Y242547D01*
D02*
G37*
G36*
X332529Y247431D02*
X331395Y247282D01*
X330337Y246844D01*
X329429Y246147D01*
X328732Y245239D01*
X328294Y244182D01*
X328145Y243047D01*
X328294Y241913D01*
X328732Y240855D01*
X329429Y239947D01*
X330337Y239251D01*
X331395Y238813D01*
X332529Y238663D01*
X333664Y238813D01*
X334721Y239251D01*
X335629Y239947D01*
X336326Y240855D01*
X336764Y241913D01*
X336913Y243047D01*
X336764Y244182D01*
X336326Y245239D01*
X335629Y246147D01*
X334721Y246844D01*
X333664Y247282D01*
X332529Y247431D01*
D02*
G37*
G36*
X322687D02*
X321552Y247282D01*
X320495Y246844D01*
X319587Y246147D01*
X318890Y245239D01*
X318452Y244182D01*
X318303Y243047D01*
X318452Y241913D01*
X318890Y240855D01*
X319587Y239947D01*
X320495Y239251D01*
X321552Y238813D01*
X322687Y238663D01*
X323821Y238813D01*
X324879Y239251D01*
X325786Y239947D01*
X326483Y240855D01*
X326921Y241913D01*
X327070Y243047D01*
X326921Y244182D01*
X326483Y245239D01*
X325786Y246147D01*
X324879Y246844D01*
X323821Y247282D01*
X322687Y247431D01*
D02*
G37*
G36*
X240797D02*
X239662Y247282D01*
X238605Y246844D01*
X237697Y246147D01*
X237000Y245239D01*
X236562Y244182D01*
X236413Y243047D01*
X236562Y241913D01*
X237000Y240855D01*
X237697Y239947D01*
X238605Y239251D01*
X239662Y238813D01*
X240797Y238663D01*
X241932Y238813D01*
X242989Y239251D01*
X243897Y239947D01*
X244593Y240855D01*
X245031Y241913D01*
X245181Y243047D01*
X245031Y244182D01*
X244593Y245239D01*
X243897Y246147D01*
X242989Y246844D01*
X241932Y247282D01*
X240797Y247431D01*
D02*
G37*
G36*
X230954D02*
X229820Y247282D01*
X228762Y246844D01*
X227854Y246147D01*
X227158Y245239D01*
X226720Y244182D01*
X226570Y243047D01*
X226720Y241913D01*
X227158Y240855D01*
X227854Y239947D01*
X228762Y239251D01*
X229820Y238813D01*
X230954Y238663D01*
X232089Y238813D01*
X233146Y239251D01*
X234054Y239947D01*
X234751Y240855D01*
X235189Y241913D01*
X235338Y243047D01*
X235189Y244182D01*
X234751Y245239D01*
X234054Y246147D01*
X233146Y246844D01*
X232089Y247282D01*
X230954Y247431D01*
D02*
G37*
G36*
X148868D02*
X147733Y247282D01*
X146676Y246844D01*
X145768Y246147D01*
X145071Y245239D01*
X144633Y244182D01*
X144484Y243047D01*
X144633Y241913D01*
X145071Y240855D01*
X145768Y239947D01*
X146676Y239251D01*
X147733Y238813D01*
X148868Y238663D01*
X150002Y238813D01*
X151060Y239251D01*
X151968Y239947D01*
X152664Y240855D01*
X153102Y241913D01*
X153252Y243047D01*
X153102Y244182D01*
X152664Y245239D01*
X151968Y246147D01*
X151060Y246844D01*
X150002Y247282D01*
X148868Y247431D01*
D02*
G37*
G36*
X139025D02*
X137891Y247282D01*
X136833Y246844D01*
X135925Y246147D01*
X135229Y245239D01*
X134791Y244182D01*
X134641Y243047D01*
X134791Y241913D01*
X135229Y240855D01*
X135925Y239947D01*
X136833Y239251D01*
X137891Y238813D01*
X139025Y238663D01*
X140160Y238813D01*
X141217Y239251D01*
X142125Y239947D01*
X142822Y240855D01*
X143260Y241913D01*
X143409Y243047D01*
X143260Y244182D01*
X142822Y245239D01*
X142125Y246147D01*
X141217Y246844D01*
X140160Y247282D01*
X139025Y247431D01*
D02*
G37*
G36*
X129183D02*
X128048Y247282D01*
X126991Y246844D01*
X126083Y246147D01*
X125386Y245239D01*
X124948Y244182D01*
X124799Y243047D01*
X124948Y241913D01*
X125386Y240855D01*
X126083Y239947D01*
X126991Y239251D01*
X128048Y238813D01*
X129183Y238663D01*
X130317Y238813D01*
X131375Y239251D01*
X132283Y239947D01*
X132979Y240855D01*
X133417Y241913D01*
X133567Y243047D01*
X133417Y244182D01*
X132979Y245239D01*
X132283Y246147D01*
X131375Y246844D01*
X130317Y247282D01*
X129183Y247431D01*
D02*
G37*
G36*
X487403Y240960D02*
X486554Y240791D01*
X485834Y240310D01*
X485353Y239590D01*
X485184Y238740D01*
X485353Y237891D01*
X485834Y237171D01*
X486554Y236690D01*
X487403Y236521D01*
X488253Y236690D01*
X488973Y237171D01*
X489454Y237891D01*
X489623Y238740D01*
X489454Y239590D01*
X488973Y240310D01*
X488253Y240791D01*
X487403Y240960D01*
D02*
G37*
G36*
X174521Y240000D02*
X173672Y239831D01*
X172952Y239350D01*
X172470Y238630D01*
X172301Y237780D01*
X172470Y236931D01*
X172952Y236211D01*
X173672Y235730D01*
X174521Y235561D01*
X175371Y235730D01*
X176091Y236211D01*
X176572Y236931D01*
X176741Y237780D01*
X176572Y238630D01*
X176091Y239350D01*
X175371Y239831D01*
X174521Y240000D01*
D02*
G37*
G36*
X163773Y239976D02*
X162924Y239808D01*
X162204Y239326D01*
X161722Y238606D01*
X161553Y237757D01*
X161722Y236907D01*
X162204Y236187D01*
X162924Y235706D01*
X163773Y235537D01*
X164623Y235706D01*
X165343Y236187D01*
X165824Y236907D01*
X165993Y237757D01*
X165824Y238606D01*
X165343Y239326D01*
X164623Y239808D01*
X163773Y239976D01*
D02*
G37*
G36*
X210167Y239755D02*
X209317Y239586D01*
X208597Y239105D01*
X208116Y238385D01*
X207947Y237536D01*
X208116Y236686D01*
X208597Y235966D01*
X209317Y235485D01*
X210167Y235316D01*
X211016Y235485D01*
X211736Y235966D01*
X212218Y236686D01*
X212387Y237536D01*
X212218Y238385D01*
X211736Y239105D01*
X211016Y239586D01*
X210167Y239755D01*
D02*
G37*
G36*
X114876Y237441D02*
X114026Y237272D01*
X113306Y236791D01*
X112825Y236070D01*
X112656Y235221D01*
X112825Y234371D01*
X113306Y233651D01*
X114026Y233170D01*
X114876Y233001D01*
X115725Y233170D01*
X116445Y233651D01*
X116927Y234371D01*
X117095Y235221D01*
X116927Y236070D01*
X116445Y236791D01*
X115725Y237272D01*
X114876Y237441D01*
D02*
G37*
G36*
X134039Y237417D02*
X133190Y237248D01*
X132470Y236767D01*
X131989Y236047D01*
X131820Y235197D01*
X131989Y234348D01*
X132470Y233628D01*
X133190Y233146D01*
X134039Y232977D01*
X134889Y233146D01*
X135609Y233628D01*
X136090Y234348D01*
X136259Y235197D01*
X136090Y236047D01*
X135609Y236767D01*
X134889Y237248D01*
X134039Y237417D01*
D02*
G37*
G36*
X390506Y236236D02*
X389656Y236067D01*
X388936Y235586D01*
X388455Y234865D01*
X388286Y234016D01*
X388455Y233167D01*
X388936Y232446D01*
X389656Y231965D01*
X390506Y231796D01*
X391355Y231965D01*
X392075Y232446D01*
X392556Y233167D01*
X392725Y234016D01*
X392556Y234865D01*
X392075Y235586D01*
X391355Y236067D01*
X390506Y236236D01*
D02*
G37*
G36*
X370423Y234932D02*
X369573Y234764D01*
X368853Y234282D01*
X368372Y233562D01*
X368203Y232713D01*
X368372Y231863D01*
X368853Y231143D01*
X369573Y230662D01*
X370423Y230493D01*
X371272Y230662D01*
X371992Y231143D01*
X372474Y231863D01*
X372643Y232713D01*
X372474Y233562D01*
X371992Y234282D01*
X371272Y234764D01*
X370423Y234932D01*
D02*
G37*
G36*
X101821Y234834D02*
X100971Y234665D01*
X100251Y234184D01*
X99770Y233464D01*
X99601Y232614D01*
X99770Y231765D01*
X100251Y231045D01*
X100971Y230563D01*
X101821Y230394D01*
X102670Y230563D01*
X103390Y231045D01*
X103871Y231765D01*
X104040Y232614D01*
X103871Y233464D01*
X103390Y234184D01*
X102670Y234665D01*
X101821Y234834D01*
D02*
G37*
G36*
X157578Y234140D02*
X156729Y233971D01*
X156009Y233490D01*
X155527Y232769D01*
X155359Y231920D01*
X155527Y231070D01*
X156009Y230350D01*
X156729Y229869D01*
X157578Y229700D01*
X158428Y229869D01*
X159148Y230350D01*
X159629Y231070D01*
X159798Y231920D01*
X159629Y232769D01*
X159148Y233490D01*
X158428Y233971D01*
X157578Y234140D01*
D02*
G37*
G36*
X213828Y234047D02*
X212979Y233878D01*
X212259Y233397D01*
X211777Y232676D01*
X211609Y231827D01*
X211777Y230977D01*
X212259Y230257D01*
X212979Y229776D01*
X213828Y229607D01*
X214678Y229776D01*
X215398Y230257D01*
X215879Y230977D01*
X216048Y231827D01*
X215879Y232676D01*
X215398Y233397D01*
X214678Y233878D01*
X213828Y234047D01*
D02*
G37*
G36*
X206348D02*
X205499Y233878D01*
X204778Y233397D01*
X204297Y232676D01*
X204128Y231827D01*
X204297Y230977D01*
X204778Y230257D01*
X205499Y229776D01*
X206348Y229607D01*
X207197Y229776D01*
X207918Y230257D01*
X208399Y230977D01*
X208568Y231827D01*
X208399Y232676D01*
X207918Y233397D01*
X207197Y233878D01*
X206348Y234047D01*
D02*
G37*
G36*
X471505Y233653D02*
X470656Y233484D01*
X469936Y233003D01*
X469455Y232283D01*
X469286Y231433D01*
X469455Y230584D01*
X469936Y229864D01*
X470656Y229382D01*
X471505Y229213D01*
X472355Y229382D01*
X473075Y229864D01*
X473556Y230584D01*
X473725Y231433D01*
X473556Y232283D01*
X473075Y233003D01*
X472355Y233484D01*
X471505Y233653D01*
D02*
G37*
G36*
X307431Y230700D02*
X306581Y230531D01*
X305861Y230050D01*
X305380Y229330D01*
X305211Y228480D01*
X305380Y227631D01*
X305861Y226911D01*
X306581Y226430D01*
X307431Y226261D01*
X308280Y226430D01*
X309000Y226911D01*
X309482Y227631D01*
X309650Y228480D01*
X309482Y229330D01*
X309000Y230050D01*
X308280Y230531D01*
X307431Y230700D01*
D02*
G37*
G36*
X124915Y229197D02*
X124066Y229028D01*
X123345Y228547D01*
X122864Y227827D01*
X122695Y226977D01*
X122864Y226128D01*
X123345Y225408D01*
X124066Y224926D01*
X124915Y224757D01*
X125765Y224926D01*
X126485Y225408D01*
X126966Y226128D01*
X127135Y226977D01*
X126966Y227827D01*
X126485Y228547D01*
X125765Y229028D01*
X124915Y229197D01*
D02*
G37*
G36*
X142238Y229173D02*
X141388Y229004D01*
X140668Y228523D01*
X140187Y227803D01*
X140018Y226953D01*
X140187Y226104D01*
X140668Y225384D01*
X141388Y224902D01*
X142238Y224733D01*
X143087Y224902D01*
X143807Y225384D01*
X144289Y226104D01*
X144458Y226953D01*
X144289Y227803D01*
X143807Y228523D01*
X143087Y229004D01*
X142238Y229173D01*
D02*
G37*
G36*
X153296Y229149D02*
X152447Y228980D01*
X151727Y228499D01*
X151245Y227779D01*
X151076Y226929D01*
X151245Y226080D01*
X151727Y225360D01*
X152447Y224879D01*
X153296Y224710D01*
X154146Y224879D01*
X154866Y225360D01*
X155347Y226080D01*
X155516Y226929D01*
X155347Y227779D01*
X154866Y228499D01*
X154146Y228980D01*
X153296Y229149D01*
D02*
G37*
G36*
X391100Y227872D02*
Y224650D01*
X394322D01*
X394259Y225130D01*
X393881Y226044D01*
X393279Y226828D01*
X392494Y227430D01*
X391581Y227809D01*
X391100Y227872D01*
D02*
G37*
G36*
X390100Y227872D02*
X389619Y227809D01*
X388706Y227430D01*
X387921Y226828D01*
X387319Y226044D01*
X386941Y225130D01*
X386877Y224650D01*
X390100D01*
Y227872D01*
D02*
G37*
G36*
X492478Y227872D02*
Y224650D01*
X495700D01*
X495637Y225130D01*
X495259Y226044D01*
X494657Y226828D01*
X493872Y227430D01*
X492958Y227809D01*
X492478Y227872D01*
D02*
G37*
G36*
X491478D02*
X490997Y227809D01*
X490084Y227430D01*
X489299Y226828D01*
X488697Y226044D01*
X488319Y225130D01*
X488255Y224650D01*
X491478D01*
Y227872D01*
D02*
G37*
G36*
X241297Y228271D02*
Y224453D01*
X245115D01*
X245031Y225087D01*
X244593Y226145D01*
X243897Y227053D01*
X242989Y227749D01*
X241932Y228187D01*
X241297Y228271D01*
D02*
G37*
G36*
X240297D02*
X239662Y228187D01*
X238605Y227749D01*
X237697Y227053D01*
X237000Y226145D01*
X236562Y225087D01*
X236479Y224453D01*
X240297D01*
Y228271D01*
D02*
G37*
G36*
X210167Y228338D02*
X209317Y228169D01*
X208597Y227688D01*
X208116Y226968D01*
X207947Y226118D01*
X208116Y225269D01*
X208597Y224549D01*
X209317Y224067D01*
X210167Y223898D01*
X211016Y224067D01*
X211736Y224549D01*
X212218Y225269D01*
X212387Y226118D01*
X212218Y226968D01*
X211736Y227688D01*
X211016Y228169D01*
X210167Y228338D01*
D02*
G37*
G36*
X374128Y226000D02*
X373278Y225831D01*
X372558Y225349D01*
X372077Y224629D01*
X371908Y223780D01*
X372077Y222930D01*
X372558Y222210D01*
X373278Y221729D01*
X374128Y221560D01*
X374977Y221729D01*
X375697Y222210D01*
X376179Y222930D01*
X376347Y223780D01*
X376179Y224629D01*
X375697Y225349D01*
X374977Y225831D01*
X374128Y226000D01*
D02*
G37*
G36*
X394322Y223650D02*
X391100D01*
Y220427D01*
X391581Y220490D01*
X392494Y220869D01*
X393279Y221471D01*
X393881Y222255D01*
X394259Y223169D01*
X394322Y223650D01*
D02*
G37*
G36*
X390100D02*
X386877D01*
X386941Y223169D01*
X387319Y222255D01*
X387921Y221471D01*
X388706Y220869D01*
X389619Y220490D01*
X390100Y220427D01*
Y223650D01*
D02*
G37*
G36*
X495700Y223650D02*
X492478D01*
Y220427D01*
X492958Y220490D01*
X493872Y220869D01*
X494657Y221471D01*
X495259Y222255D01*
X495637Y223169D01*
X495700Y223650D01*
D02*
G37*
G36*
X491478D02*
X488255D01*
X488319Y223169D01*
X488697Y222255D01*
X489299Y221471D01*
X490084Y220869D01*
X490997Y220490D01*
X491478Y220427D01*
Y223650D01*
D02*
G37*
G36*
X400600Y227938D02*
X399620Y227809D01*
X398706Y227430D01*
X397921Y226828D01*
X397319Y226044D01*
X396941Y225130D01*
X396812Y224150D01*
X396941Y223169D01*
X397319Y222255D01*
X397921Y221471D01*
X398706Y220869D01*
X399620Y220490D01*
X400600Y220361D01*
X401580Y220490D01*
X402494Y220869D01*
X403279Y221471D01*
X403881Y222255D01*
X404259Y223169D01*
X404388Y224150D01*
X404259Y225130D01*
X403881Y226044D01*
X403279Y226828D01*
X402494Y227430D01*
X401580Y227809D01*
X400600Y227938D01*
D02*
G37*
G36*
X380600D02*
X379620Y227809D01*
X378706Y227430D01*
X377921Y226828D01*
X377319Y226044D01*
X376941Y225130D01*
X376812Y224150D01*
X376941Y223169D01*
X377319Y222255D01*
X377921Y221471D01*
X378706Y220869D01*
X379620Y220490D01*
X380600Y220361D01*
X381580Y220490D01*
X382494Y220869D01*
X383279Y221471D01*
X383881Y222255D01*
X384259Y223169D01*
X384388Y224150D01*
X384259Y225130D01*
X383881Y226044D01*
X383279Y226828D01*
X382494Y227430D01*
X381580Y227809D01*
X380600Y227938D01*
D02*
G37*
G36*
X481978Y227938D02*
X480997Y227809D01*
X480084Y227430D01*
X479299Y226828D01*
X478697Y226044D01*
X478319Y225130D01*
X478190Y224150D01*
X478319Y223169D01*
X478697Y222255D01*
X479299Y221471D01*
X480084Y220869D01*
X480997Y220490D01*
X481978Y220361D01*
X482958Y220490D01*
X483872Y220869D01*
X484657Y221471D01*
X485259Y222255D01*
X485637Y223169D01*
X485766Y224150D01*
X485637Y225130D01*
X485259Y226044D01*
X484657Y226828D01*
X483872Y227430D01*
X482958Y227809D01*
X481978Y227938D01*
D02*
G37*
G36*
X425013Y224449D02*
X424164Y224280D01*
X423444Y223798D01*
X422963Y223078D01*
X422794Y222229D01*
X422963Y221379D01*
X423444Y220659D01*
X424164Y220178D01*
X425013Y220009D01*
X425863Y220178D01*
X426583Y220659D01*
X427064Y221379D01*
X427233Y222229D01*
X427064Y223078D01*
X426583Y223798D01*
X425863Y224280D01*
X425013Y224449D01*
D02*
G37*
G36*
X351824Y224425D02*
X350974Y224256D01*
X350254Y223775D01*
X349773Y223055D01*
X349604Y222205D01*
X349773Y221356D01*
X350254Y220635D01*
X350974Y220154D01*
X351824Y219985D01*
X352674Y220154D01*
X353394Y220635D01*
X353875Y221356D01*
X354044Y222205D01*
X353875Y223055D01*
X353394Y223775D01*
X352674Y224256D01*
X351824Y224425D01*
D02*
G37*
G36*
X315009Y224401D02*
X314160Y224232D01*
X313440Y223751D01*
X312959Y223031D01*
X312790Y222181D01*
X312959Y221332D01*
X313440Y220612D01*
X314160Y220130D01*
X315009Y219961D01*
X315859Y220130D01*
X316579Y220612D01*
X317060Y221332D01*
X317229Y222181D01*
X317060Y223031D01*
X316579Y223751D01*
X315859Y224232D01*
X315009Y224401D01*
D02*
G37*
G36*
X245115Y223453D02*
X241297D01*
Y219635D01*
X241932Y219718D01*
X242989Y220156D01*
X243897Y220853D01*
X244593Y221761D01*
X245031Y222818D01*
X245115Y223453D01*
D02*
G37*
G36*
X240297D02*
X236479D01*
X236562Y222818D01*
X237000Y221761D01*
X237697Y220853D01*
X238605Y220156D01*
X239662Y219718D01*
X240297Y219635D01*
Y223453D01*
D02*
G37*
G36*
X230954Y228337D02*
X229820Y228187D01*
X228762Y227749D01*
X227854Y227053D01*
X227158Y226145D01*
X226720Y225087D01*
X226570Y223953D01*
X226720Y222818D01*
X227158Y221761D01*
X227854Y220853D01*
X228762Y220156D01*
X229820Y219718D01*
X230954Y219569D01*
X232089Y219718D01*
X233146Y220156D01*
X234054Y220853D01*
X234751Y221761D01*
X235189Y222818D01*
X235338Y223953D01*
X235189Y225087D01*
X234751Y226145D01*
X234054Y227053D01*
X233146Y227749D01*
X232089Y228187D01*
X230954Y228337D01*
D02*
G37*
G36*
X221112D02*
X219977Y228187D01*
X218920Y227749D01*
X218012Y227053D01*
X217315Y226145D01*
X216877Y225087D01*
X216728Y223953D01*
X216877Y222818D01*
X217315Y221761D01*
X218012Y220853D01*
X218920Y220156D01*
X219977Y219718D01*
X221112Y219569D01*
X222246Y219718D01*
X223304Y220156D01*
X224212Y220853D01*
X224908Y221761D01*
X225346Y222818D01*
X225496Y223953D01*
X225346Y225087D01*
X224908Y226145D01*
X224212Y227053D01*
X223304Y227749D01*
X222246Y228187D01*
X221112Y228337D01*
D02*
G37*
G36*
X469143Y228931D02*
X467906Y228768D01*
X466753Y228290D01*
X465763Y227530D01*
X465003Y226540D01*
X464525Y225387D01*
X464362Y224150D01*
X464525Y222912D01*
X465003Y221759D01*
X465763Y220769D01*
X466753Y220009D01*
X467906Y219531D01*
X469143Y219369D01*
X470381Y219531D01*
X471534Y220009D01*
X472524Y220769D01*
X473284Y221759D01*
X473761Y222912D01*
X473924Y224150D01*
X473761Y225387D01*
X473284Y226540D01*
X472524Y227530D01*
X471534Y228290D01*
X470381Y228768D01*
X469143Y228931D01*
D02*
G37*
G36*
X412057Y248616D02*
X410819Y248453D01*
X409666Y247975D01*
X408676Y247215D01*
X407916Y246225D01*
X407439Y245072D01*
X407276Y243835D01*
X407439Y242597D01*
X407916Y241444D01*
X408676Y240454D01*
X409666Y239694D01*
X410819Y239216D01*
X411206Y239166D01*
Y238661D01*
X410819Y238610D01*
X409666Y238133D01*
X408676Y237373D01*
X407916Y236383D01*
X407439Y235230D01*
X407276Y233992D01*
X407439Y232755D01*
X407916Y231602D01*
X408676Y230611D01*
X409666Y229852D01*
X410819Y229374D01*
X411206Y229323D01*
Y228819D01*
X410819Y228768D01*
X409666Y228290D01*
X408676Y227530D01*
X407916Y226540D01*
X407439Y225387D01*
X407276Y224150D01*
X407439Y222912D01*
X407916Y221759D01*
X408676Y220769D01*
X409666Y220009D01*
X410819Y219531D01*
X412057Y219369D01*
X413294Y219531D01*
X414447Y220009D01*
X415437Y220769D01*
X416197Y221759D01*
X416675Y222912D01*
X416838Y224150D01*
X416675Y225387D01*
X416197Y226540D01*
X415437Y227530D01*
X414447Y228290D01*
X413294Y228768D01*
X412907Y228819D01*
Y229323D01*
X413294Y229374D01*
X414447Y229852D01*
X415437Y230611D01*
X416197Y231602D01*
X416675Y232755D01*
X416838Y233992D01*
X416675Y235230D01*
X416197Y236383D01*
X415437Y237373D01*
X414447Y238133D01*
X413294Y238610D01*
X412907Y238661D01*
Y239166D01*
X413294Y239216D01*
X414447Y239694D01*
X415437Y240454D01*
X416197Y241444D01*
X416675Y242597D01*
X416838Y243835D01*
X416675Y245072D01*
X416197Y246225D01*
X415437Y247215D01*
X414447Y247975D01*
X413294Y248453D01*
X412057Y248616D01*
D02*
G37*
G36*
X105462Y222925D02*
X104613Y222756D01*
X103893Y222274D01*
X103411Y221554D01*
X103242Y220705D01*
X103411Y219855D01*
X103893Y219135D01*
X104613Y218654D01*
X105462Y218485D01*
X106312Y218654D01*
X107032Y219135D01*
X107513Y219855D01*
X107682Y220705D01*
X107513Y221554D01*
X107032Y222274D01*
X106312Y222756D01*
X105462Y222925D01*
D02*
G37*
G36*
X487340Y221176D02*
X486491Y221007D01*
X485771Y220526D01*
X485289Y219806D01*
X485120Y218956D01*
X485289Y218107D01*
X485771Y217386D01*
X486491Y216905D01*
X487340Y216736D01*
X488190Y216905D01*
X488910Y217386D01*
X489391Y218107D01*
X489560Y218956D01*
X489391Y219806D01*
X488910Y220526D01*
X488190Y221007D01*
X487340Y221176D01*
D02*
G37*
G36*
X131446Y220562D02*
X130597Y220393D01*
X129877Y219912D01*
X129396Y219192D01*
X129227Y218343D01*
X129396Y217493D01*
X129877Y216773D01*
X130597Y216292D01*
X131446Y216123D01*
X132296Y216292D01*
X133016Y216773D01*
X133497Y217493D01*
X133666Y218343D01*
X133497Y219192D01*
X133016Y219912D01*
X132296Y220393D01*
X131446Y220562D01*
D02*
G37*
G36*
X156017Y220118D02*
X155168Y219949D01*
X154447Y219468D01*
X153966Y218748D01*
X153797Y217898D01*
X153966Y217049D01*
X154447Y216329D01*
X155168Y215847D01*
X156017Y215678D01*
X156867Y215847D01*
X157587Y216329D01*
X158068Y217049D01*
X158237Y217898D01*
X158068Y218748D01*
X157587Y219468D01*
X156867Y219949D01*
X156017Y220118D01*
D02*
G37*
G36*
X142301Y220094D02*
X141452Y219925D01*
X140731Y219444D01*
X140250Y218724D01*
X140081Y217874D01*
X140250Y217025D01*
X140731Y216305D01*
X141452Y215824D01*
X142301Y215654D01*
X143150Y215824D01*
X143871Y216305D01*
X144352Y217025D01*
X144521Y217874D01*
X144352Y218724D01*
X143871Y219444D01*
X143150Y219925D01*
X142301Y220094D01*
D02*
G37*
G36*
X117667Y220070D02*
X116817Y219901D01*
X116097Y219420D01*
X115616Y218700D01*
X115447Y217850D01*
X115616Y217001D01*
X116097Y216281D01*
X116817Y215800D01*
X117667Y215631D01*
X118516Y215800D01*
X119237Y216281D01*
X119718Y217001D01*
X119887Y217850D01*
X119718Y218700D01*
X119237Y219420D01*
X118516Y219901D01*
X117667Y220070D01*
D02*
G37*
G36*
X174584Y219110D02*
X173735Y218941D01*
X173015Y218460D01*
X172534Y217740D01*
X172365Y216890D01*
X172534Y216041D01*
X173015Y215320D01*
X173735Y214839D01*
X174584Y214670D01*
X175434Y214839D01*
X176154Y215320D01*
X176635Y216041D01*
X176804Y216890D01*
X176635Y217740D01*
X176154Y218460D01*
X175434Y218941D01*
X174584Y219110D01*
D02*
G37*
G36*
X307431Y218102D02*
X306581Y217933D01*
X305861Y217452D01*
X305380Y216731D01*
X305211Y215882D01*
X305380Y215033D01*
X305861Y214312D01*
X306581Y213831D01*
X307431Y213662D01*
X308280Y213831D01*
X309000Y214312D01*
X309482Y215033D01*
X309650Y215882D01*
X309482Y216731D01*
X309000Y217452D01*
X308280Y217933D01*
X307431Y218102D01*
D02*
G37*
G36*
X449325Y217338D02*
X448475Y217169D01*
X447755Y216688D01*
X447274Y215968D01*
X447105Y215118D01*
X447274Y214269D01*
X447755Y213549D01*
X448475Y213068D01*
X449325Y212899D01*
X450174Y213068D01*
X450894Y213549D01*
X451375Y214269D01*
X451544Y215118D01*
X451375Y215968D01*
X450894Y216688D01*
X450174Y217169D01*
X449325Y217338D01*
D02*
G37*
G36*
X371009Y216624D02*
X370159Y216455D01*
X369439Y215974D01*
X368958Y215253D01*
X368789Y214404D01*
X368958Y213555D01*
X369439Y212834D01*
X370159Y212353D01*
X371009Y212184D01*
X371858Y212353D01*
X372578Y212834D01*
X373060Y213555D01*
X373228Y214404D01*
X373060Y215253D01*
X372578Y215974D01*
X371858Y216455D01*
X371009Y216624D01*
D02*
G37*
G36*
X125987Y215779D02*
X125137Y215610D01*
X124417Y215129D01*
X123936Y214409D01*
X123767Y213559D01*
X123936Y212710D01*
X124417Y211989D01*
X125137Y211508D01*
X125987Y211339D01*
X126836Y211508D01*
X127556Y211989D01*
X128038Y212710D01*
X128206Y213559D01*
X128038Y214409D01*
X127556Y215129D01*
X126836Y215610D01*
X125987Y215779D01*
D02*
G37*
G36*
X224360Y215543D02*
X223510Y215374D01*
X222790Y214893D01*
X222309Y214172D01*
X222140Y213323D01*
X222309Y212473D01*
X222790Y211753D01*
X223510Y211272D01*
X224360Y211103D01*
X225209Y211272D01*
X225929Y211753D01*
X226411Y212473D01*
X226580Y213323D01*
X226411Y214172D01*
X225929Y214893D01*
X225209Y215374D01*
X224360Y215543D01*
D02*
G37*
G36*
X95127Y214263D02*
X94278Y214094D01*
X93558Y213613D01*
X93077Y212893D01*
X92908Y212043D01*
X93077Y211194D01*
X93558Y210474D01*
X94278Y209993D01*
X95127Y209823D01*
X95977Y209993D01*
X96697Y210474D01*
X97178Y211194D01*
X97347Y212043D01*
X97178Y212893D01*
X96697Y213613D01*
X95977Y214094D01*
X95127Y214263D01*
D02*
G37*
G36*
X210167Y214125D02*
X209317Y213956D01*
X208597Y213475D01*
X208116Y212755D01*
X207947Y211906D01*
X208116Y211056D01*
X208597Y210336D01*
X209317Y209855D01*
X210167Y209686D01*
X211016Y209855D01*
X211736Y210336D01*
X212218Y211056D01*
X212387Y211906D01*
X212218Y212755D01*
X211736Y213475D01*
X211016Y213956D01*
X210167Y214125D01*
D02*
G37*
G36*
X460764Y213465D02*
X459914Y213296D01*
X459194Y212815D01*
X458713Y212094D01*
X458544Y211245D01*
X458713Y210396D01*
X459194Y209675D01*
X459914Y209194D01*
X460764Y209025D01*
X461613Y209194D01*
X462334Y209675D01*
X462815Y210396D01*
X462984Y211245D01*
X462815Y212094D01*
X462334Y212815D01*
X461613Y213296D01*
X460764Y213465D01*
D02*
G37*
G36*
X295724Y254697D02*
X254775Y254697D01*
X254385Y254619D01*
X254054Y254398D01*
X253833Y254067D01*
X253756Y253677D01*
X253756Y210996D01*
X231063Y210996D01*
X230673Y210918D01*
X230342Y210697D01*
X230121Y210367D01*
X230043Y209976D01*
Y193571D01*
X177531Y193571D01*
X177531Y207417D01*
X177454Y207807D01*
X177233Y208138D01*
X176902Y208359D01*
X176512Y208437D01*
X145324Y208437D01*
X144934Y208359D01*
X144836Y208294D01*
X144679Y208399D01*
X144289Y208476D01*
X119533Y208476D01*
X119142Y208399D01*
X118812Y208178D01*
X118590Y207847D01*
X118513Y207457D01*
X118513Y151709D01*
X118590Y151319D01*
X118812Y150988D01*
X119142Y150767D01*
X119532Y150689D01*
X174541Y150689D01*
X174540Y126861D01*
X174618Y126471D01*
X174698Y126351D01*
X174618Y126232D01*
X174540Y125842D01*
X174540Y111965D01*
X174618Y111574D01*
X174839Y111244D01*
X175170Y111023D01*
X175560Y110945D01*
X245760Y110945D01*
X246150Y111023D01*
X246481Y111244D01*
X246702Y111574D01*
X246779Y111965D01*
X246779Y168813D01*
X278001Y168813D01*
X278392Y168890D01*
X278723Y169111D01*
X278943Y169442D01*
X279021Y169832D01*
Y170061D01*
X279380Y170355D01*
X280229Y170524D01*
X280949Y171005D01*
X281430Y171725D01*
X281599Y172575D01*
X281430Y173424D01*
X280949Y174144D01*
X280229Y174626D01*
X279380Y174795D01*
X279021Y175089D01*
Y184234D01*
X279380Y184528D01*
X280229Y184697D01*
X280949Y185178D01*
X281430Y185899D01*
X281599Y186748D01*
X281430Y187598D01*
X280949Y188318D01*
X280229Y188799D01*
X279380Y188968D01*
X279021Y189262D01*
X279021Y192966D01*
X279380Y193260D01*
X280229Y193429D01*
X280949Y193910D01*
X281430Y194630D01*
X281599Y195480D01*
X281430Y196329D01*
X280949Y197049D01*
X280229Y197531D01*
X279380Y197700D01*
X279021Y197994D01*
Y207463D01*
X279380Y207757D01*
X280229Y207926D01*
X280949Y208407D01*
X281345Y208999D01*
X281400Y208976D01*
X281421D01*
X281440Y208969D01*
X281521Y208972D01*
X281599Y208957D01*
X296077Y208957D01*
X296467Y209034D01*
X296798Y209255D01*
X297019Y209586D01*
X297097Y209976D01*
X297097Y253324D01*
X297019Y253714D01*
X296798Y254045D01*
X296445Y254398D01*
X296114Y254619D01*
X295724Y254697D01*
D02*
G37*
G36*
X338891Y211039D02*
X338042Y210870D01*
X337322Y210389D01*
X336841Y209669D01*
X336672Y208819D01*
X336841Y207970D01*
X337322Y207249D01*
X338042Y206768D01*
X338891Y206599D01*
X339741Y206768D01*
X340461Y207249D01*
X340942Y207970D01*
X341111Y208819D01*
X340942Y209669D01*
X340461Y210389D01*
X339741Y210870D01*
X338891Y211039D01*
D02*
G37*
G36*
X329246D02*
X328396Y210870D01*
X327676Y210389D01*
X327195Y209669D01*
X327026Y208819D01*
X327195Y207970D01*
X327676Y207249D01*
X328396Y206768D01*
X329246Y206599D01*
X330095Y206768D01*
X330815Y207249D01*
X331297Y207970D01*
X331466Y208819D01*
X331297Y209669D01*
X330815Y210389D01*
X330095Y210870D01*
X329246Y211039D01*
D02*
G37*
G36*
X313533Y211015D02*
X312684Y210846D01*
X311963Y210365D01*
X311482Y209645D01*
X311313Y208795D01*
X311482Y207946D01*
X311963Y207226D01*
X312684Y206745D01*
X313533Y206575D01*
X314383Y206745D01*
X315103Y207226D01*
X315584Y207946D01*
X315753Y208795D01*
X315584Y209645D01*
X315103Y210365D01*
X314383Y210846D01*
X313533Y211015D01*
D02*
G37*
G36*
X408478Y210275D02*
X407629Y210106D01*
X406908Y209625D01*
X406427Y208905D01*
X406258Y208056D01*
X406427Y207206D01*
X406908Y206486D01*
X407629Y206005D01*
X408478Y205836D01*
X409328Y206005D01*
X410048Y206486D01*
X410529Y207206D01*
X410698Y208056D01*
X410529Y208905D01*
X410048Y209625D01*
X409328Y210106D01*
X408478Y210275D01*
D02*
G37*
G36*
X443025Y210252D02*
X442176Y210083D01*
X441456Y209601D01*
X440974Y208881D01*
X440805Y208032D01*
X440974Y207182D01*
X441456Y206462D01*
X442176Y205981D01*
X443025Y205812D01*
X443875Y205981D01*
X444595Y206462D01*
X445076Y207182D01*
X445245Y208032D01*
X445076Y208881D01*
X444595Y209601D01*
X443875Y210083D01*
X443025Y210252D01*
D02*
G37*
G36*
X372096Y209932D02*
X371247Y209763D01*
X370526Y209282D01*
X370045Y208562D01*
X369876Y207713D01*
X370045Y206863D01*
X370526Y206143D01*
X371247Y205662D01*
X372096Y205493D01*
X372945Y205662D01*
X373666Y206143D01*
X374147Y206863D01*
X374316Y207713D01*
X374147Y208562D01*
X373666Y209282D01*
X372945Y209763D01*
X372096Y209932D01*
D02*
G37*
G36*
X391100Y208187D02*
Y204965D01*
X394322D01*
X394259Y205445D01*
X393881Y206359D01*
X393279Y207143D01*
X392494Y207745D01*
X391581Y208124D01*
X391100Y208187D01*
D02*
G37*
G36*
X390100Y208187D02*
X389619Y208124D01*
X388706Y207745D01*
X387921Y207143D01*
X387319Y206359D01*
X386941Y205445D01*
X386877Y204965D01*
X390100D01*
Y208187D01*
D02*
G37*
G36*
X492478Y208187D02*
Y204965D01*
X495700D01*
X495637Y205445D01*
X495259Y206359D01*
X494657Y207143D01*
X493872Y207745D01*
X492958Y208124D01*
X492478Y208187D01*
D02*
G37*
G36*
X491478D02*
X490998Y208124D01*
X490084Y207745D01*
X489299Y207143D01*
X488697Y206359D01*
X488319Y205445D01*
X488256Y204965D01*
X491478D01*
Y208187D01*
D02*
G37*
G36*
X466387Y208850D02*
X465538Y208681D01*
X464818Y208200D01*
X464336Y207479D01*
X464168Y206630D01*
X464336Y205781D01*
X464818Y205060D01*
X465538Y204579D01*
X466387Y204410D01*
X467237Y204579D01*
X467957Y205060D01*
X468438Y205781D01*
X468607Y206630D01*
X468438Y207479D01*
X467957Y208200D01*
X467237Y208681D01*
X466387Y208850D01*
D02*
G37*
G36*
X213828Y208456D02*
X212979Y208287D01*
X212259Y207806D01*
X211777Y207086D01*
X211609Y206236D01*
X211777Y205387D01*
X212259Y204667D01*
X212979Y204185D01*
X213828Y204016D01*
X214678Y204185D01*
X215398Y204667D01*
X215879Y205387D01*
X216048Y206236D01*
X215879Y207086D01*
X215398Y207806D01*
X214678Y208287D01*
X213828Y208456D01*
D02*
G37*
G36*
X206348D02*
X205499Y208287D01*
X204778Y207806D01*
X204297Y207086D01*
X204128Y206236D01*
X204297Y205387D01*
X204778Y204667D01*
X205499Y204185D01*
X206348Y204016D01*
X207197Y204185D01*
X207918Y204667D01*
X208399Y205387D01*
X208568Y206236D01*
X208399Y207086D01*
X207918Y207806D01*
X207197Y208287D01*
X206348Y208456D01*
D02*
G37*
G36*
X454183Y208259D02*
X453333Y208090D01*
X452613Y207609D01*
X452132Y206889D01*
X451963Y206039D01*
X452132Y205190D01*
X452613Y204470D01*
X453333Y203989D01*
X454183Y203820D01*
X455032Y203989D01*
X455752Y204470D01*
X456234Y205190D01*
X456402Y206039D01*
X456234Y206889D01*
X455752Y207609D01*
X455032Y208090D01*
X454183Y208259D01*
D02*
G37*
G36*
X449183D02*
X448333Y208090D01*
X447613Y207609D01*
X447132Y206889D01*
X446963Y206039D01*
X447132Y205190D01*
X447613Y204470D01*
X448333Y203989D01*
X449183Y203820D01*
X450032Y203989D01*
X450752Y204470D01*
X451233Y205190D01*
X451403Y206039D01*
X451233Y206889D01*
X450752Y207609D01*
X450032Y208090D01*
X449183Y208259D01*
D02*
G37*
G36*
X437513Y206257D02*
X436664Y206088D01*
X435944Y205607D01*
X435463Y204887D01*
X435294Y204037D01*
X435463Y203188D01*
X435944Y202468D01*
X436664Y201986D01*
X437513Y201817D01*
X438363Y201986D01*
X439083Y202468D01*
X439564Y203188D01*
X439733Y204037D01*
X439564Y204887D01*
X439083Y205607D01*
X438363Y206088D01*
X437513Y206257D01*
D02*
G37*
G36*
X195817Y205503D02*
X194967Y205334D01*
X194247Y204853D01*
X193766Y204133D01*
X193597Y203284D01*
X193766Y202434D01*
X194247Y201714D01*
X194967Y201233D01*
X195817Y201064D01*
X196666Y201233D01*
X197386Y201714D01*
X197867Y202434D01*
X198036Y203284D01*
X197867Y204133D01*
X197386Y204853D01*
X196666Y205334D01*
X195817Y205503D01*
D02*
G37*
G36*
X187057D02*
X186207Y205334D01*
X185487Y204853D01*
X185006Y204133D01*
X184837Y203284D01*
X185006Y202434D01*
X185487Y201714D01*
X186207Y201233D01*
X187057Y201064D01*
X187906Y201233D01*
X188626Y201714D01*
X189108Y202434D01*
X189277Y203284D01*
X189108Y204133D01*
X188626Y204853D01*
X187906Y205334D01*
X187057Y205503D01*
D02*
G37*
G36*
X390100Y203965D02*
X386877D01*
X386941Y203484D01*
X387319Y202571D01*
X387921Y201786D01*
X388706Y201184D01*
X389619Y200805D01*
X390100Y200742D01*
Y203965D01*
D02*
G37*
G36*
X495700Y203965D02*
X492478D01*
Y200742D01*
X492958Y200805D01*
X493872Y201184D01*
X494657Y201786D01*
X495259Y202571D01*
X495637Y203484D01*
X495700Y203965D01*
D02*
G37*
G36*
X491478D02*
X488256D01*
X488319Y203484D01*
X488697Y202571D01*
X489299Y201786D01*
X490084Y201184D01*
X490998Y200805D01*
X491478Y200742D01*
Y203965D01*
D02*
G37*
G36*
X394322Y203965D02*
X391100D01*
Y200742D01*
X391581Y200805D01*
X392494Y201184D01*
X393279Y201786D01*
X393881Y202571D01*
X394259Y203484D01*
X394322Y203965D01*
D02*
G37*
G36*
X481978Y208253D02*
X480998Y208124D01*
X480084Y207745D01*
X479299Y207143D01*
X478697Y206359D01*
X478319Y205445D01*
X478190Y204465D01*
X478319Y203484D01*
X478697Y202571D01*
X479299Y201786D01*
X480084Y201184D01*
X480998Y200805D01*
X481978Y200676D01*
X482958Y200805D01*
X483872Y201184D01*
X484657Y201786D01*
X485259Y202571D01*
X485637Y203484D01*
X485766Y204465D01*
X485637Y205445D01*
X485259Y206359D01*
X484657Y207143D01*
X483872Y207745D01*
X482958Y208124D01*
X481978Y208253D01*
D02*
G37*
G36*
X400600D02*
X399620Y208124D01*
X398706Y207745D01*
X397921Y207143D01*
X397319Y206359D01*
X396941Y205445D01*
X396812Y204465D01*
X396941Y203484D01*
X397319Y202571D01*
X397921Y201786D01*
X398706Y201184D01*
X399620Y200805D01*
X400600Y200676D01*
X401580Y200805D01*
X402494Y201184D01*
X403279Y201786D01*
X403881Y202571D01*
X404259Y203484D01*
X404388Y204465D01*
X404259Y205445D01*
X403881Y206359D01*
X403279Y207143D01*
X402494Y207745D01*
X401580Y208124D01*
X400600Y208253D01*
D02*
G37*
G36*
X380600D02*
X379620Y208124D01*
X378706Y207745D01*
X377921Y207143D01*
X377319Y206359D01*
X376941Y205445D01*
X376812Y204465D01*
X376941Y203484D01*
X377319Y202571D01*
X377921Y201786D01*
X378706Y201184D01*
X379620Y200805D01*
X380600Y200676D01*
X381580Y200805D01*
X382494Y201184D01*
X383279Y201786D01*
X383881Y202571D01*
X384259Y203484D01*
X384388Y204465D01*
X384259Y205445D01*
X383881Y206359D01*
X383279Y207143D01*
X382494Y207745D01*
X381580Y208124D01*
X380600Y208253D01*
D02*
G37*
G36*
X288435Y204913D02*
X287585Y204744D01*
X286865Y204263D01*
X286384Y203542D01*
X286215Y202693D01*
X286384Y201844D01*
X286865Y201123D01*
X287585Y200642D01*
X288435Y200473D01*
X289284Y200642D01*
X290004Y201123D01*
X290486Y201844D01*
X290654Y202693D01*
X290486Y203542D01*
X290004Y204263D01*
X289284Y204744D01*
X288435Y204913D01*
D02*
G37*
G36*
X352214Y208652D02*
X351080Y208502D01*
X350022Y208064D01*
X349114Y207368D01*
X348417Y206460D01*
X347980Y205402D01*
X347830Y204268D01*
X347980Y203133D01*
X348417Y202076D01*
X349114Y201168D01*
X350022Y200471D01*
X351080Y200033D01*
X352214Y199884D01*
X353349Y200033D01*
X354406Y200471D01*
X355314Y201168D01*
X356011Y202076D01*
X356449Y203133D01*
X356598Y204268D01*
X356449Y205402D01*
X356011Y206460D01*
X355314Y207368D01*
X354406Y208064D01*
X353349Y208502D01*
X352214Y208652D01*
D02*
G37*
G36*
X459183Y204224D02*
X458333Y204055D01*
X457613Y203574D01*
X457132Y202853D01*
X456963Y202004D01*
X457132Y201154D01*
X457613Y200434D01*
X458333Y199953D01*
X459183Y199784D01*
X460032Y199953D01*
X460752Y200434D01*
X461234Y201154D01*
X461403Y202004D01*
X461234Y202853D01*
X460752Y203574D01*
X460032Y204055D01*
X459183Y204224D01*
D02*
G37*
G36*
X444183D02*
X443333Y204055D01*
X442613Y203574D01*
X442132Y202853D01*
X441963Y202004D01*
X442132Y201154D01*
X442613Y200434D01*
X443333Y199953D01*
X444183Y199784D01*
X445032Y199953D01*
X445752Y200434D01*
X446234Y201154D01*
X446403Y202004D01*
X446234Y202853D01*
X445752Y203574D01*
X445032Y204055D01*
X444183Y204224D01*
D02*
G37*
G36*
X97687Y203614D02*
X96837Y203445D01*
X96117Y202963D01*
X95636Y202243D01*
X95467Y201394D01*
X95636Y200544D01*
X96117Y199824D01*
X96837Y199343D01*
X97687Y199174D01*
X98536Y199343D01*
X99256Y199824D01*
X99738Y200544D01*
X99906Y201394D01*
X99738Y202243D01*
X99256Y202963D01*
X98536Y203445D01*
X97687Y203614D01*
D02*
G37*
G36*
X319734Y201735D02*
X318884Y201566D01*
X318164Y201085D01*
X317683Y200364D01*
X317514Y199515D01*
X317683Y198665D01*
X318164Y197945D01*
X318884Y197464D01*
X319734Y197295D01*
X320583Y197464D01*
X321304Y197945D01*
X321785Y198665D01*
X321954Y199515D01*
X321785Y200364D01*
X321304Y201085D01*
X320583Y201566D01*
X319734Y201735D01*
D02*
G37*
G36*
X307431D02*
X306581Y201566D01*
X305861Y201085D01*
X305380Y200364D01*
X305211Y199515D01*
X305380Y198665D01*
X305861Y197945D01*
X306581Y197464D01*
X307431Y197295D01*
X308280Y197464D01*
X309000Y197945D01*
X309482Y198665D01*
X309650Y199515D01*
X309482Y200364D01*
X309000Y201085D01*
X308280Y201566D01*
X307431Y201735D01*
D02*
G37*
G36*
X205954Y201219D02*
X205105Y201050D01*
X204385Y200569D01*
X203904Y199849D01*
X203734Y198999D01*
X203904Y198150D01*
X204385Y197430D01*
X205105Y196948D01*
X205954Y196779D01*
X206804Y196948D01*
X207524Y197430D01*
X208005Y198150D01*
X208174Y198999D01*
X208005Y199849D01*
X207524Y200569D01*
X206804Y201050D01*
X205954Y201219D01*
D02*
G37*
G36*
X214616Y201173D02*
X213766Y201004D01*
X213046Y200522D01*
X212565Y199802D01*
X212396Y198953D01*
X212565Y198103D01*
X213046Y197383D01*
X213766Y196902D01*
X214616Y196733D01*
X215465Y196902D01*
X216185Y197383D01*
X216667Y198103D01*
X216835Y198953D01*
X216667Y199802D01*
X216185Y200522D01*
X215465Y201004D01*
X214616Y201173D01*
D02*
G37*
G36*
X464183Y200090D02*
X463333Y199921D01*
X462613Y199440D01*
X462132Y198720D01*
X461963Y197870D01*
X462132Y197021D01*
X462613Y196300D01*
X463333Y195819D01*
X464183Y195650D01*
X465032Y195819D01*
X465752Y196300D01*
X466233Y197021D01*
X466402Y197870D01*
X466233Y198720D01*
X465752Y199440D01*
X465032Y199921D01*
X464183Y200090D01*
D02*
G37*
G36*
X439124D02*
X438274Y199921D01*
X437554Y199440D01*
X437073Y198720D01*
X436904Y197870D01*
X437073Y197021D01*
X437554Y196300D01*
X438274Y195819D01*
X439124Y195650D01*
X439973Y195819D01*
X440693Y196300D01*
X441174Y197021D01*
X441343Y197870D01*
X441174Y198720D01*
X440693Y199440D01*
X439973Y199921D01*
X439124Y200090D01*
D02*
G37*
G36*
X105475Y203614D02*
X104625Y203445D01*
X103905Y202963D01*
X103424Y202243D01*
X103255Y201394D01*
X103424Y200544D01*
X103905Y199824D01*
X104625Y199343D01*
X105475Y199174D01*
X106157Y199310D01*
X106478Y198890D01*
X106364Y198720D01*
X106195Y197870D01*
X106364Y197021D01*
X106845Y196300D01*
X107565Y195819D01*
X108415Y195650D01*
X109264Y195819D01*
X109985Y196300D01*
X110466Y197021D01*
X110635Y197870D01*
X110466Y198720D01*
X109985Y199440D01*
X109264Y199921D01*
X108415Y200090D01*
X107733Y199954D01*
X107412Y200374D01*
X107526Y200544D01*
X107695Y201394D01*
X107526Y202243D01*
X107044Y202963D01*
X106324Y203445D01*
X105475Y203614D01*
D02*
G37*
G36*
X429183Y199598D02*
X428333Y199429D01*
X427613Y198948D01*
X427132Y198228D01*
X426963Y197378D01*
X427132Y196528D01*
X427613Y195808D01*
X428333Y195327D01*
X429183Y195158D01*
X430032Y195327D01*
X430752Y195808D01*
X431234Y196528D01*
X431402Y197378D01*
X431234Y198228D01*
X430752Y198948D01*
X430032Y199429D01*
X429183Y199598D01*
D02*
G37*
G36*
X469183Y199401D02*
X468333Y199232D01*
X467613Y198751D01*
X467132Y198031D01*
X466963Y197181D01*
X467132Y196332D01*
X467613Y195612D01*
X468333Y195130D01*
X469183Y194961D01*
X470032Y195130D01*
X470752Y195612D01*
X471234Y196332D01*
X471403Y197181D01*
X471234Y198031D01*
X470752Y198751D01*
X470032Y199232D01*
X469183Y199401D01*
D02*
G37*
G36*
X487277Y195094D02*
X486428Y194925D01*
X485708Y194444D01*
X485226Y193724D01*
X485057Y192874D01*
X485226Y192025D01*
X485708Y191305D01*
X486428Y190823D01*
X487277Y190655D01*
X488127Y190823D01*
X488847Y191305D01*
X489328Y192025D01*
X489497Y192874D01*
X489328Y193724D01*
X488847Y194444D01*
X488127Y194925D01*
X487277Y195094D01*
D02*
G37*
G36*
X352214Y198809D02*
X351080Y198660D01*
X350022Y198222D01*
X349114Y197525D01*
X348417Y196617D01*
X347980Y195560D01*
X347830Y194425D01*
X347980Y193291D01*
X348417Y192233D01*
X349114Y191325D01*
X350022Y190629D01*
X351080Y190191D01*
X352214Y190041D01*
X353349Y190191D01*
X354406Y190629D01*
X355314Y191325D01*
X356011Y192233D01*
X356449Y193291D01*
X356598Y194425D01*
X356449Y195560D01*
X356011Y196617D01*
X355314Y197525D01*
X354406Y198222D01*
X353349Y198660D01*
X352214Y198809D01*
D02*
G37*
G36*
X473553Y193003D02*
X472703Y192834D01*
X471983Y192353D01*
X471502Y191633D01*
X471333Y190784D01*
X471502Y189934D01*
X471983Y189214D01*
X472703Y188733D01*
X473553Y188564D01*
X474402Y188733D01*
X475122Y189214D01*
X475603Y189934D01*
X475772Y190784D01*
X475603Y191633D01*
X475122Y192353D01*
X474402Y192834D01*
X473553Y193003D01*
D02*
G37*
G36*
X296801Y192905D02*
X295951Y192736D01*
X295231Y192255D01*
X294750Y191535D01*
X294581Y190685D01*
X294750Y189836D01*
X295231Y189115D01*
X295951Y188634D01*
X296801Y188465D01*
X297650Y188634D01*
X298370Y189115D01*
X298852Y189836D01*
X299021Y190685D01*
X298852Y191535D01*
X298370Y192255D01*
X297650Y192736D01*
X296801Y192905D01*
D02*
G37*
G36*
X313533Y192511D02*
X312684Y192342D01*
X311963Y191861D01*
X311482Y191141D01*
X311313Y190291D01*
X311482Y189442D01*
X311963Y188722D01*
X312684Y188241D01*
X313533Y188072D01*
X314383Y188241D01*
X315103Y188722D01*
X315584Y189442D01*
X315753Y190291D01*
X315584Y191141D01*
X315103Y191861D01*
X314383Y192342D01*
X313533Y192511D01*
D02*
G37*
G36*
X376820Y191625D02*
X375971Y191456D01*
X375251Y190975D01*
X374770Y190255D01*
X374601Y189406D01*
X374770Y188556D01*
X375251Y187836D01*
X375971Y187355D01*
X376820Y187186D01*
X377670Y187355D01*
X378390Y187836D01*
X378871Y188556D01*
X379040Y189406D01*
X378871Y190255D01*
X378390Y190975D01*
X377670Y191456D01*
X376820Y191625D01*
D02*
G37*
G36*
X352714Y188901D02*
Y185083D01*
X356532D01*
X356449Y185717D01*
X356011Y186775D01*
X355314Y187683D01*
X354406Y188379D01*
X353349Y188817D01*
X352714Y188901D01*
D02*
G37*
G36*
X351714Y188901D02*
X351080Y188817D01*
X350022Y188379D01*
X349114Y187683D01*
X348417Y186775D01*
X347980Y185717D01*
X347896Y185083D01*
X351714D01*
Y188901D01*
D02*
G37*
G36*
X102206Y189165D02*
X101357Y188996D01*
X100637Y188515D01*
X100155Y187794D01*
X99986Y186945D01*
X100155Y186095D01*
X100637Y185375D01*
X101357Y184894D01*
X102206Y184725D01*
X103056Y184894D01*
X103776Y185375D01*
X104257Y186095D01*
X104426Y186945D01*
X104257Y187794D01*
X103776Y188515D01*
X103056Y188996D01*
X102206Y189165D01*
D02*
G37*
G36*
X385496Y187084D02*
X384647Y186915D01*
X383926Y186433D01*
X383445Y185713D01*
X383276Y184864D01*
X383445Y184014D01*
X383926Y183294D01*
X384647Y182813D01*
X385496Y182644D01*
X386346Y182813D01*
X387066Y183294D01*
X387547Y184014D01*
X387716Y184864D01*
X387547Y185713D01*
X387066Y186433D01*
X386346Y186915D01*
X385496Y187084D01*
D02*
G37*
G36*
X401343Y186901D02*
X400494Y186732D01*
X399774Y186251D01*
X399292Y185531D01*
X399123Y184681D01*
X399292Y183832D01*
X399774Y183112D01*
X400494Y182630D01*
X401343Y182461D01*
X402193Y182630D01*
X402913Y183112D01*
X403394Y183832D01*
X403563Y184681D01*
X403394Y185531D01*
X402913Y186251D01*
X402193Y186732D01*
X401343Y186901D01*
D02*
G37*
G36*
X451624Y186704D02*
X450774Y186535D01*
X450054Y186054D01*
X449573Y185334D01*
X449404Y184484D01*
X449573Y183635D01*
X450054Y182915D01*
X450774Y182433D01*
X451624Y182264D01*
X452473Y182433D01*
X453193Y182915D01*
X453674Y183635D01*
X453843Y184484D01*
X453674Y185334D01*
X453193Y186054D01*
X452473Y186535D01*
X451624Y186704D01*
D02*
G37*
G36*
X429128D02*
X428278Y186535D01*
X427558Y186054D01*
X427077Y185334D01*
X426908Y184484D01*
X427077Y183635D01*
X427558Y182915D01*
X428278Y182433D01*
X429128Y182264D01*
X429977Y182433D01*
X430697Y182915D01*
X431179Y183635D01*
X431348Y184484D01*
X431179Y185334D01*
X430697Y186054D01*
X429977Y186535D01*
X429128Y186704D01*
D02*
G37*
G36*
X467100Y185842D02*
X466251Y185673D01*
X465530Y185192D01*
X465049Y184472D01*
X464880Y183622D01*
X465049Y182773D01*
X465530Y182053D01*
X466251Y181571D01*
X467100Y181403D01*
X467950Y181571D01*
X468670Y182053D01*
X469151Y182773D01*
X469320Y183622D01*
X469151Y184472D01*
X468670Y185192D01*
X467950Y185673D01*
X467100Y185842D01*
D02*
G37*
G36*
X351714Y184083D02*
X347896D01*
X347980Y183448D01*
X348417Y182391D01*
X349114Y181483D01*
X350022Y180786D01*
X351080Y180348D01*
X351714Y180265D01*
Y184083D01*
D02*
G37*
G36*
X356532D02*
X352714D01*
Y180265D01*
X353349Y180348D01*
X354406Y180786D01*
X355314Y181483D01*
X356011Y182391D01*
X356449Y183448D01*
X356532Y184083D01*
D02*
G37*
G36*
X97687Y184637D02*
X96837Y184468D01*
X96117Y183987D01*
X95636Y183267D01*
X95467Y182417D01*
X95636Y181568D01*
X96117Y180848D01*
X96837Y180367D01*
X97687Y180198D01*
X98536Y180367D01*
X99256Y180848D01*
X99737Y181568D01*
X99906Y182417D01*
X99737Y183267D01*
X99256Y183987D01*
X98536Y184468D01*
X97687Y184637D01*
D02*
G37*
G36*
X376820Y183456D02*
X375971Y183287D01*
X375251Y182806D01*
X374770Y182086D01*
X374601Y181236D01*
X374770Y180387D01*
X375251Y179667D01*
X375971Y179185D01*
X376820Y179016D01*
X377670Y179185D01*
X378390Y179667D01*
X378871Y180387D01*
X379040Y181236D01*
X378871Y182086D01*
X378390Y182806D01*
X377670Y183287D01*
X376820Y183456D01*
D02*
G37*
G36*
X461069Y183833D02*
X460398Y183745D01*
X459772Y183486D01*
X459235Y183073D01*
X458823Y182536D01*
X458564Y181911D01*
X458476Y181240D01*
X458564Y180569D01*
X458823Y179943D01*
X459235Y179406D01*
X459772Y178994D01*
X460398Y178735D01*
X461069Y178647D01*
X461740Y178735D01*
X462365Y178994D01*
X462902Y179406D01*
X463314Y179943D01*
X463573Y180569D01*
X463662Y181240D01*
X463573Y181911D01*
X463314Y182536D01*
X462902Y183073D01*
X462365Y183486D01*
X461740Y183745D01*
X461069Y183833D01*
D02*
G37*
G36*
X339187Y182693D02*
X338337Y182524D01*
X337617Y182042D01*
X337136Y181322D01*
X336967Y180473D01*
X337136Y179623D01*
X337617Y178903D01*
X338337Y178422D01*
X339187Y178253D01*
X340036Y178422D01*
X340756Y178903D01*
X341237Y179623D01*
X341406Y180473D01*
X341237Y181322D01*
X340756Y182042D01*
X340036Y182524D01*
X339187Y182693D01*
D02*
G37*
G36*
X396998Y181980D02*
X396148Y181811D01*
X395428Y181330D01*
X394947Y180609D01*
X394778Y179760D01*
X394947Y178910D01*
X395428Y178190D01*
X396148Y177709D01*
X396998Y177540D01*
X397847Y177709D01*
X398567Y178190D01*
X399048Y178910D01*
X399217Y179760D01*
X399048Y180609D01*
X398567Y181330D01*
X397847Y181811D01*
X396998Y181980D01*
D02*
G37*
G36*
X283907Y181881D02*
X283058Y181712D01*
X282337Y181231D01*
X281856Y180511D01*
X281687Y179662D01*
X281856Y178812D01*
X282337Y178092D01*
X283058Y177611D01*
X283907Y177442D01*
X284756Y177611D01*
X285477Y178092D01*
X285958Y178812D01*
X286127Y179662D01*
X285958Y180511D01*
X285477Y181231D01*
X284756Y181712D01*
X283907Y181881D01*
D02*
G37*
G36*
X419246Y181118D02*
X418396Y180949D01*
X417676Y180468D01*
X417195Y179747D01*
X417026Y178898D01*
X417195Y178048D01*
X417676Y177328D01*
X418396Y176847D01*
X419246Y176678D01*
X420095Y176847D01*
X420815Y177328D01*
X421297Y178048D01*
X421466Y178898D01*
X421297Y179747D01*
X420815Y180468D01*
X420095Y180949D01*
X419246Y181118D01*
D02*
G37*
G36*
X408113Y177551D02*
X407264Y177382D01*
X406544Y176900D01*
X406063Y176180D01*
X405894Y175331D01*
X406063Y174481D01*
X406544Y173761D01*
X407264Y173280D01*
X408113Y173111D01*
X408963Y173280D01*
X409683Y173761D01*
X410164Y174481D01*
X410333Y175331D01*
X410164Y176180D01*
X409683Y176900D01*
X408963Y177382D01*
X408113Y177551D01*
D02*
G37*
G36*
X113498Y177181D02*
X112648Y177012D01*
X111928Y176531D01*
X111447Y175810D01*
X111278Y174961D01*
X111447Y174111D01*
X111928Y173391D01*
X112648Y172910D01*
X113498Y172741D01*
X114347Y172910D01*
X115067Y173391D01*
X115549Y174111D01*
X115717Y174961D01*
X115549Y175810D01*
X115067Y176531D01*
X114347Y177012D01*
X113498Y177181D01*
D02*
G37*
G36*
X90895Y175582D02*
X90046Y175413D01*
X89326Y174932D01*
X88844Y174212D01*
X88675Y173362D01*
X88844Y172513D01*
X89326Y171793D01*
X90046Y171311D01*
X90895Y171142D01*
X91745Y171311D01*
X92465Y171793D01*
X92946Y172513D01*
X93115Y173362D01*
X92946Y174212D01*
X92465Y174932D01*
X91745Y175413D01*
X90895Y175582D01*
D02*
G37*
G36*
X451230Y175188D02*
X450380Y175019D01*
X449660Y174538D01*
X449179Y173818D01*
X449010Y172968D01*
X449179Y172119D01*
X449660Y171399D01*
X450380Y170918D01*
X451230Y170749D01*
X452079Y170918D01*
X452800Y171399D01*
X453281Y172119D01*
X453450Y172968D01*
X453281Y173818D01*
X452800Y174538D01*
X452079Y175019D01*
X451230Y175188D01*
D02*
G37*
G36*
X362746Y174499D02*
X361896Y174330D01*
X361176Y173849D01*
X360695Y173129D01*
X360526Y172280D01*
X360695Y171430D01*
X361176Y170710D01*
X361896Y170229D01*
X362746Y170060D01*
X363595Y170229D01*
X364315Y170710D01*
X364796Y171430D01*
X364966Y172280D01*
X364796Y173129D01*
X364315Y173849D01*
X363595Y174330D01*
X362746Y174499D01*
D02*
G37*
G36*
X459694Y173712D02*
X458845Y173543D01*
X458125Y173062D01*
X457644Y172342D01*
X457475Y171492D01*
X457644Y170643D01*
X458125Y169922D01*
X458845Y169441D01*
X459694Y169272D01*
X460544Y169441D01*
X461264Y169922D01*
X461745Y170643D01*
X461914Y171492D01*
X461745Y172342D01*
X461264Y173062D01*
X460544Y173543D01*
X459694Y173712D01*
D02*
G37*
G36*
X443159Y173023D02*
X442310Y172854D01*
X441589Y172373D01*
X441108Y171653D01*
X440939Y170803D01*
X441108Y169954D01*
X441589Y169234D01*
X442310Y168752D01*
X443159Y168583D01*
X444008Y168752D01*
X444729Y169234D01*
X445210Y169954D01*
X445379Y170803D01*
X445210Y171653D01*
X444729Y172373D01*
X444008Y172854D01*
X443159Y173023D01*
D02*
G37*
G36*
X488730Y170011D02*
X487880Y169842D01*
X487160Y169361D01*
X486679Y168641D01*
X486510Y167791D01*
X486679Y166942D01*
X487160Y166222D01*
X487880Y165741D01*
X488730Y165572D01*
X489579Y165741D01*
X490300Y166222D01*
X490781Y166942D01*
X490950Y167791D01*
X490781Y168641D01*
X490300Y169361D01*
X489579Y169842D01*
X488730Y170011D01*
D02*
G37*
G36*
X463828Y169873D02*
X462979Y169704D01*
X462259Y169223D01*
X461777Y168503D01*
X461609Y167654D01*
X461777Y166804D01*
X462259Y166084D01*
X462979Y165603D01*
X463828Y165434D01*
X464678Y165603D01*
X465398Y166084D01*
X465879Y166804D01*
X466048Y167654D01*
X465879Y168503D01*
X465398Y169223D01*
X464678Y169704D01*
X463828Y169873D01*
D02*
G37*
G36*
X438927Y169480D02*
X438077Y169311D01*
X437357Y168830D01*
X436876Y168109D01*
X436707Y167260D01*
X436876Y166410D01*
X437357Y165690D01*
X438077Y165209D01*
X438927Y165040D01*
X439776Y165209D01*
X440496Y165690D01*
X440978Y166410D01*
X441147Y167260D01*
X440978Y168109D01*
X440496Y168830D01*
X439776Y169311D01*
X438927Y169480D01*
D02*
G37*
G36*
X252903Y167080D02*
X252054Y166911D01*
X251333Y166429D01*
X250852Y165709D01*
X250683Y164860D01*
X250852Y164010D01*
X251333Y163290D01*
X252054Y162809D01*
X252903Y162640D01*
X253753Y162809D01*
X254473Y163290D01*
X254954Y164010D01*
X255123Y164860D01*
X254954Y165709D01*
X254473Y166429D01*
X253753Y166911D01*
X252903Y167080D01*
D02*
G37*
G36*
X288927Y166921D02*
X288077Y166752D01*
X287357Y166270D01*
X286876Y165550D01*
X286707Y164701D01*
X286876Y163851D01*
X287357Y163131D01*
X288077Y162650D01*
X288927Y162481D01*
X289776Y162650D01*
X290496Y163131D01*
X290978Y163851D01*
X291147Y164701D01*
X290978Y165550D01*
X290496Y166270D01*
X289776Y166752D01*
X288927Y166921D01*
D02*
G37*
G36*
X467864Y166035D02*
X467014Y165866D01*
X466294Y165385D01*
X465813Y164664D01*
X465644Y163815D01*
X465813Y162966D01*
X466294Y162245D01*
X467014Y161764D01*
X467864Y161595D01*
X468713Y161764D01*
X469433Y162245D01*
X469915Y162966D01*
X470084Y163815D01*
X469915Y164664D01*
X469433Y165385D01*
X468713Y165866D01*
X467864Y166035D01*
D02*
G37*
G36*
X434596D02*
X433747Y165866D01*
X433026Y165385D01*
X432545Y164664D01*
X432376Y163815D01*
X432545Y162966D01*
X433026Y162245D01*
X433747Y161764D01*
X434596Y161595D01*
X435445Y161764D01*
X436166Y162245D01*
X436647Y162966D01*
X436816Y163815D01*
X436647Y164664D01*
X436166Y165385D01*
X435445Y165866D01*
X434596Y166035D01*
D02*
G37*
G36*
X300604Y165479D02*
X299755Y165310D01*
X299034Y164829D01*
X298553Y164109D01*
X298384Y163260D01*
X298553Y162410D01*
X299034Y161690D01*
X299755Y161209D01*
X300604Y161040D01*
X301453Y161209D01*
X302174Y161690D01*
X302655Y162410D01*
X302824Y163260D01*
X302655Y164109D01*
X302174Y164829D01*
X301453Y165310D01*
X300604Y165479D01*
D02*
G37*
G36*
X355265Y164657D02*
X354416Y164488D01*
X353696Y164007D01*
X353215Y163286D01*
X353046Y162437D01*
X353215Y161588D01*
X353696Y160867D01*
X354416Y160386D01*
X355265Y160217D01*
X356115Y160386D01*
X356835Y160867D01*
X357316Y161588D01*
X357485Y162437D01*
X357316Y163286D01*
X356835Y164007D01*
X356115Y164488D01*
X355265Y164657D01*
D02*
G37*
G36*
X478828Y166871D02*
X477951Y166756D01*
X477133Y166417D01*
X476431Y165878D01*
X475892Y165176D01*
X475553Y164358D01*
X475437Y163480D01*
X475553Y162603D01*
X475892Y161785D01*
X476431Y161082D01*
X477133Y160544D01*
X477951Y160205D01*
X478828Y160089D01*
X479706Y160205D01*
X480524Y160544D01*
X481226Y161082D01*
X481765Y161785D01*
X482104Y162603D01*
X482219Y163480D01*
X482104Y164358D01*
X481765Y165176D01*
X481226Y165878D01*
X480524Y166417D01*
X479706Y166756D01*
X478828Y166871D01*
D02*
G37*
G36*
X85968Y163505D02*
X85119Y163336D01*
X84399Y162855D01*
X83917Y162134D01*
X83748Y161285D01*
X83917Y160435D01*
X84399Y159715D01*
X85119Y159234D01*
X85968Y159065D01*
X86818Y159234D01*
X87538Y159715D01*
X88019Y160435D01*
X88188Y161285D01*
X88019Y162134D01*
X87538Y162855D01*
X86818Y163336D01*
X85968Y163505D01*
D02*
G37*
G36*
X429872Y162984D02*
X429022Y162815D01*
X428302Y162334D01*
X427821Y161613D01*
X427652Y160764D01*
X427821Y159914D01*
X428302Y159194D01*
X429022Y158713D01*
X429872Y158544D01*
X430721Y158713D01*
X431441Y159194D01*
X431922Y159914D01*
X432091Y160764D01*
X431922Y161613D01*
X431441Y162334D01*
X430721Y162815D01*
X429872Y162984D01*
D02*
G37*
G36*
X339250Y162141D02*
X338400Y161972D01*
X337680Y161491D01*
X337199Y160771D01*
X337030Y159921D01*
X337199Y159072D01*
X337680Y158352D01*
X338400Y157870D01*
X339250Y157701D01*
X340099Y157870D01*
X340819Y158352D01*
X341301Y159072D01*
X341470Y159921D01*
X341301Y160771D01*
X340819Y161491D01*
X340099Y161972D01*
X339250Y162141D01*
D02*
G37*
G36*
X314313Y162117D02*
X313464Y161948D01*
X312744Y161467D01*
X312262Y160747D01*
X312093Y159897D01*
X312262Y159048D01*
X312744Y158328D01*
X313464Y157846D01*
X314313Y157677D01*
X315163Y157846D01*
X315883Y158328D01*
X316364Y159048D01*
X316533Y159897D01*
X316364Y160747D01*
X315883Y161467D01*
X315163Y161948D01*
X314313Y162117D01*
D02*
G37*
G36*
X359793Y159539D02*
X358943Y159370D01*
X358223Y158889D01*
X357742Y158168D01*
X357573Y157319D01*
X357742Y156470D01*
X358223Y155749D01*
X358943Y155268D01*
X359793Y155099D01*
X360642Y155268D01*
X361363Y155749D01*
X361844Y156470D01*
X362013Y157319D01*
X361844Y158168D01*
X361363Y158889D01*
X360642Y159370D01*
X359793Y159539D01*
D02*
G37*
G36*
X283218Y159047D02*
X282369Y158878D01*
X281648Y158396D01*
X281167Y157676D01*
X280998Y156827D01*
X281167Y155977D01*
X281648Y155257D01*
X282369Y154776D01*
X283218Y154607D01*
X284068Y154776D01*
X284788Y155257D01*
X285269Y155977D01*
X285438Y156827D01*
X285269Y157676D01*
X284788Y158396D01*
X284068Y158878D01*
X283218Y159047D01*
D02*
G37*
G36*
X112710Y157988D02*
X111861Y157819D01*
X111141Y157338D01*
X110660Y156617D01*
X110491Y155768D01*
X110660Y154918D01*
X111141Y154198D01*
X111861Y153717D01*
X112710Y153548D01*
X113560Y153717D01*
X114280Y154198D01*
X114761Y154918D01*
X114930Y155768D01*
X114761Y156617D01*
X114280Y157338D01*
X113560Y157819D01*
X112710Y157988D01*
D02*
G37*
G36*
X267765Y157176D02*
X266916Y157008D01*
X266196Y156526D01*
X265715Y155806D01*
X265546Y154957D01*
X265715Y154107D01*
X266196Y153387D01*
X266916Y152906D01*
X267765Y152737D01*
X268615Y152906D01*
X269335Y153387D01*
X269816Y154107D01*
X269985Y154957D01*
X269816Y155806D01*
X269335Y156526D01*
X268615Y157008D01*
X267765Y157176D01*
D02*
G37*
G36*
X385974Y156684D02*
X385124Y156516D01*
X384404Y156034D01*
X383923Y155314D01*
X383754Y154465D01*
X383923Y153615D01*
X384404Y152895D01*
X385124Y152414D01*
X385974Y152245D01*
X386824Y152414D01*
X387544Y152895D01*
X388025Y153615D01*
X388194Y154465D01*
X388025Y155314D01*
X387544Y156034D01*
X386824Y156516D01*
X385974Y156684D01*
D02*
G37*
G36*
X363730Y156094D02*
X362880Y155925D01*
X362160Y155444D01*
X361679Y154724D01*
X361510Y153874D01*
X361679Y153025D01*
X362160Y152304D01*
X362880Y151823D01*
X363730Y151654D01*
X364579Y151823D01*
X365300Y152304D01*
X365781Y153025D01*
X365950Y153874D01*
X365781Y154724D01*
X365300Y155444D01*
X364579Y155925D01*
X363730Y156094D01*
D02*
G37*
G36*
X410285Y155602D02*
X409436Y155433D01*
X408715Y154952D01*
X408234Y154231D01*
X408065Y153382D01*
X408234Y152532D01*
X408715Y151812D01*
X409436Y151331D01*
X410285Y151162D01*
X411134Y151331D01*
X411855Y151812D01*
X412336Y152532D01*
X412505Y153382D01*
X412336Y154231D01*
X411855Y154952D01*
X411134Y155433D01*
X410285Y155602D01*
D02*
G37*
G36*
X488828Y156871D02*
X487951Y156756D01*
X487133Y156417D01*
X486431Y155878D01*
X485892Y155176D01*
X485553Y154358D01*
X485437Y153480D01*
X485553Y152603D01*
X485892Y151785D01*
X486431Y151083D01*
X487133Y150544D01*
X487951Y150205D01*
X488828Y150089D01*
X489706Y150205D01*
X490524Y150544D01*
X491226Y151083D01*
X491765Y151785D01*
X492104Y152603D01*
X492219Y153480D01*
X492104Y154358D01*
X491765Y155176D01*
X491226Y155878D01*
X490524Y156417D01*
X489706Y156756D01*
X488828Y156871D01*
D02*
G37*
G36*
X257726Y151074D02*
X256876Y150905D01*
X256156Y150424D01*
X255675Y149704D01*
X255506Y148854D01*
X255675Y148005D01*
X256156Y147285D01*
X256876Y146803D01*
X257726Y146635D01*
X258575Y146803D01*
X259296Y147285D01*
X259777Y148005D01*
X259946Y148854D01*
X259777Y149704D01*
X259296Y150424D01*
X258575Y150905D01*
X257726Y151074D01*
D02*
G37*
G36*
X320226Y147432D02*
X319376Y147264D01*
X318656Y146782D01*
X318175Y146062D01*
X318006Y145213D01*
X318175Y144363D01*
X318656Y143643D01*
X319376Y143162D01*
X320226Y142993D01*
X321075Y143162D01*
X321796Y143643D01*
X322277Y144363D01*
X322446Y145213D01*
X322277Y146062D01*
X321796Y146782D01*
X321075Y147264D01*
X320226Y147432D01*
D02*
G37*
G36*
X261939Y147236D02*
X261089Y147067D01*
X260369Y146585D01*
X259888Y145865D01*
X259719Y145016D01*
X259888Y144166D01*
X260369Y143446D01*
X261089Y142965D01*
X261939Y142796D01*
X262788Y142965D01*
X263508Y143446D01*
X263989Y144166D01*
X264158Y145016D01*
X263989Y145865D01*
X263508Y146585D01*
X262788Y147067D01*
X261939Y147236D01*
D02*
G37*
G36*
X482332Y145661D02*
X481483Y145492D01*
X480763Y145011D01*
X480281Y144290D01*
X480112Y143441D01*
X480281Y142592D01*
X480763Y141871D01*
X481483Y141390D01*
X482332Y141221D01*
X483182Y141390D01*
X483902Y141871D01*
X484383Y142592D01*
X484552Y143441D01*
X484383Y144290D01*
X483902Y145011D01*
X483182Y145492D01*
X482332Y145661D01*
D02*
G37*
G36*
X492175Y145661D02*
X491325Y145492D01*
X490605Y145011D01*
X490124Y144290D01*
X489955Y143441D01*
X490124Y142592D01*
X490605Y141871D01*
X491325Y141390D01*
X492175Y141221D01*
X493024Y141390D01*
X493744Y141871D01*
X494226Y142592D01*
X494395Y143441D01*
X494226Y144290D01*
X493744Y145011D01*
X493024Y145492D01*
X492175Y145661D01*
D02*
G37*
G36*
X314025Y144897D02*
X313176Y144728D01*
X312456Y144247D01*
X311974Y143527D01*
X311805Y142677D01*
X311974Y141828D01*
X312456Y141108D01*
X313176Y140627D01*
X314025Y140458D01*
X314875Y140627D01*
X315595Y141108D01*
X316076Y141828D01*
X316245Y142677D01*
X316076Y143527D01*
X315595Y144247D01*
X314875Y144728D01*
X314025Y144897D01*
D02*
G37*
G36*
X307592D02*
X306743Y144728D01*
X306023Y144247D01*
X305541Y143527D01*
X305372Y142677D01*
X305541Y141828D01*
X306023Y141108D01*
X306743Y140627D01*
X307592Y140458D01*
X308442Y140627D01*
X309162Y141108D01*
X309643Y141828D01*
X309812Y142677D01*
X309643Y143527D01*
X309162Y144247D01*
X308442Y144728D01*
X307592Y144897D01*
D02*
G37*
G36*
X266234D02*
X265385Y144728D01*
X264664Y144247D01*
X264183Y143527D01*
X264014Y142677D01*
X264183Y141828D01*
X264664Y141108D01*
X265385Y140627D01*
X266234Y140458D01*
X267083Y140627D01*
X267804Y141108D01*
X268285Y141828D01*
X268454Y142677D01*
X268285Y143527D01*
X267804Y144247D01*
X267083Y144728D01*
X266234Y144897D01*
D02*
G37*
G36*
X167470Y144672D02*
X166621Y144503D01*
X165900Y144022D01*
X165419Y143302D01*
X165250Y142452D01*
X165419Y141603D01*
X165900Y140883D01*
X166621Y140401D01*
X167470Y140232D01*
X168320Y140401D01*
X169040Y140883D01*
X169521Y141603D01*
X169690Y142452D01*
X169521Y143302D01*
X169040Y144022D01*
X168320Y144503D01*
X167470Y144672D01*
D02*
G37*
G36*
X324753Y143791D02*
X323904Y143622D01*
X323184Y143141D01*
X322703Y142420D01*
X322534Y141571D01*
X322703Y140721D01*
X323184Y140001D01*
X323904Y139520D01*
X324753Y139351D01*
X325603Y139520D01*
X326323Y140001D01*
X326804Y140721D01*
X326973Y141571D01*
X326804Y142420D01*
X326323Y143141D01*
X325603Y143622D01*
X324753Y143791D01*
D02*
G37*
G36*
X342336Y143346D02*
X341487Y143177D01*
X340767Y142696D01*
X340285Y141976D01*
X340117Y141127D01*
X340285Y140277D01*
X340767Y139557D01*
X341487Y139076D01*
X342336Y138907D01*
X343186Y139076D01*
X343906Y139557D01*
X344387Y140277D01*
X344556Y141127D01*
X344387Y141976D01*
X343906Y142696D01*
X343186Y143177D01*
X342336Y143346D01*
D02*
G37*
G36*
X429970Y143299D02*
X429121Y143130D01*
X428400Y142648D01*
X427919Y141928D01*
X427750Y141079D01*
X427919Y140229D01*
X428400Y139509D01*
X429121Y139028D01*
X429970Y138859D01*
X430820Y139028D01*
X431540Y139509D01*
X432021Y140229D01*
X432190Y141079D01*
X432021Y141928D01*
X431540Y142648D01*
X430820Y143130D01*
X429970Y143299D01*
D02*
G37*
G36*
X126427Y142964D02*
X125577Y142795D01*
X124857Y142314D01*
X124376Y141594D01*
X124207Y140744D01*
X124376Y139895D01*
X124857Y139174D01*
X125577Y138693D01*
X126427Y138524D01*
X127276Y138693D01*
X127996Y139174D01*
X128478Y139895D01*
X128647Y140744D01*
X128478Y141594D01*
X127996Y142314D01*
X127276Y142795D01*
X126427Y142964D01*
D02*
G37*
G36*
X103986D02*
X103136Y142795D01*
X102416Y142314D01*
X101935Y141594D01*
X101766Y140744D01*
X101935Y139895D01*
X102416Y139174D01*
X103136Y138693D01*
X103986Y138524D01*
X104835Y138693D01*
X105555Y139174D01*
X106037Y139895D01*
X106206Y140744D01*
X106037Y141594D01*
X105555Y142314D01*
X104835Y142795D01*
X103986Y142964D01*
D02*
G37*
G36*
X397717Y142905D02*
X396868Y142736D01*
X396147Y142255D01*
X395666Y141535D01*
X395497Y140685D01*
X395666Y139836D01*
X396147Y139116D01*
X396868Y138634D01*
X397717Y138465D01*
X398567Y138634D01*
X399287Y139116D01*
X399768Y139836D01*
X399937Y140685D01*
X399768Y141535D01*
X399287Y142255D01*
X398567Y142736D01*
X397717Y142905D01*
D02*
G37*
G36*
X448143Y142535D02*
X447294Y142366D01*
X446574Y141885D01*
X446093Y141165D01*
X445924Y140315D01*
X446093Y139466D01*
X446574Y138746D01*
X447294Y138264D01*
X448143Y138095D01*
X448993Y138264D01*
X449713Y138746D01*
X450194Y139466D01*
X450363Y140315D01*
X450194Y141165D01*
X449713Y141885D01*
X448993Y142366D01*
X448143Y142535D01*
D02*
G37*
G36*
X409758Y141610D02*
X408908Y141441D01*
X408188Y140960D01*
X407707Y140240D01*
X407538Y139390D01*
X407707Y138541D01*
X408188Y137820D01*
X408908Y137339D01*
X409758Y137170D01*
X410607Y137339D01*
X411327Y137820D01*
X411808Y138541D01*
X411977Y139390D01*
X411808Y140240D01*
X411327Y140960D01*
X410607Y141441D01*
X409758Y141610D01*
D02*
G37*
G36*
X354179Y140247D02*
X353329Y140078D01*
X352609Y139597D01*
X352128Y138877D01*
X351959Y138028D01*
X352128Y137178D01*
X352609Y136458D01*
X353329Y135977D01*
X354179Y135808D01*
X355028Y135977D01*
X355749Y136458D01*
X356230Y137178D01*
X356399Y138028D01*
X356230Y138877D01*
X355749Y139597D01*
X355028Y140078D01*
X354179Y140247D01*
D02*
G37*
G36*
X334505Y140247D02*
X333656Y140078D01*
X332936Y139597D01*
X332455Y138877D01*
X332286Y138028D01*
X332455Y137178D01*
X332936Y136458D01*
X333656Y135977D01*
X334505Y135808D01*
X335355Y135977D01*
X336075Y136458D01*
X336556Y137178D01*
X336725Y138028D01*
X336556Y138877D01*
X336075Y139597D01*
X335355Y140078D01*
X334505Y140247D01*
D02*
G37*
G36*
X290502D02*
X289652Y140078D01*
X288932Y139597D01*
X288451Y138877D01*
X288282Y138028D01*
X288451Y137178D01*
X288932Y136458D01*
X289652Y135977D01*
X290502Y135808D01*
X291351Y135977D01*
X292071Y136458D01*
X292552Y137178D01*
X292721Y138028D01*
X292552Y138877D01*
X292071Y139597D01*
X291351Y140078D01*
X290502Y140247D01*
D02*
G37*
G36*
X476033Y138180D02*
X475184Y138012D01*
X474463Y137530D01*
X473982Y136810D01*
X473813Y135961D01*
X473982Y135111D01*
X474463Y134391D01*
X475184Y133910D01*
X476033Y133741D01*
X476883Y133910D01*
X477603Y134391D01*
X478084Y135111D01*
X478253Y135961D01*
X478084Y136810D01*
X477603Y137530D01*
X476883Y138012D01*
X476033Y138180D01*
D02*
G37*
G36*
X126427Y137964D02*
X125577Y137795D01*
X124857Y137314D01*
X124376Y136593D01*
X124207Y135744D01*
X124376Y134895D01*
X124857Y134174D01*
X125577Y133693D01*
X126427Y133524D01*
X127276Y133693D01*
X127996Y134174D01*
X128478Y134895D01*
X128647Y135744D01*
X128478Y136593D01*
X127996Y137314D01*
X127276Y137795D01*
X126427Y137964D01*
D02*
G37*
G36*
X330128Y137787D02*
X329278Y137618D01*
X328558Y137137D01*
X328077Y136416D01*
X327908Y135567D01*
X328077Y134718D01*
X328558Y133997D01*
X329278Y133516D01*
X330128Y133347D01*
X330977Y133516D01*
X331697Y133997D01*
X332178Y134718D01*
X332347Y135567D01*
X332178Y136416D01*
X331697Y137137D01*
X330977Y137618D01*
X330128Y137787D01*
D02*
G37*
G36*
X283120D02*
X282270Y137618D01*
X281550Y137137D01*
X281069Y136416D01*
X280900Y135567D01*
X281069Y134718D01*
X281550Y133997D01*
X282270Y133516D01*
X283120Y133347D01*
X283969Y133516D01*
X284689Y133997D01*
X285171Y134718D01*
X285339Y135567D01*
X285171Y136416D01*
X284689Y137137D01*
X283969Y137618D01*
X283120Y137787D01*
D02*
G37*
G36*
X300864Y137773D02*
X300014Y137603D01*
X299294Y137122D01*
X298813Y136402D01*
X298644Y135553D01*
X298813Y134703D01*
X299294Y133983D01*
X300014Y133502D01*
X300864Y133333D01*
X301713Y133502D01*
X302434Y133983D01*
X302915Y134703D01*
X303084Y135553D01*
X302915Y136402D01*
X302434Y137122D01*
X301713Y137603D01*
X300864Y137773D01*
D02*
G37*
G36*
X256608Y137084D02*
X255759Y136915D01*
X255038Y136434D01*
X254557Y135714D01*
X254388Y134864D01*
X254557Y134015D01*
X255038Y133294D01*
X255759Y132813D01*
X256608Y132644D01*
X257457Y132813D01*
X258178Y133294D01*
X258659Y134015D01*
X258828Y134864D01*
X258659Y135714D01*
X258178Y136434D01*
X257457Y136915D01*
X256608Y137084D01*
D02*
G37*
G36*
X155167Y136862D02*
X154317Y136693D01*
X153597Y136211D01*
X153116Y135491D01*
X152947Y134642D01*
X153116Y133792D01*
X153597Y133072D01*
X154317Y132591D01*
X155167Y132422D01*
X156016Y132591D01*
X156737Y133072D01*
X157218Y133792D01*
X157387Y134642D01*
X157218Y135491D01*
X156737Y136211D01*
X156016Y136693D01*
X155167Y136862D01*
D02*
G37*
G36*
X369305Y136352D02*
X368455Y136183D01*
X367735Y135701D01*
X367254Y134981D01*
X367085Y134132D01*
X367254Y133282D01*
X367735Y132562D01*
X368455Y132081D01*
X369305Y131912D01*
X370154Y132081D01*
X370875Y132562D01*
X371356Y133282D01*
X371525Y134132D01*
X371356Y134981D01*
X370875Y135701D01*
X370154Y136183D01*
X369305Y136352D01*
D02*
G37*
G36*
X421013Y135425D02*
X420164Y135256D01*
X419444Y134774D01*
X418962Y134054D01*
X418793Y133205D01*
X418962Y132355D01*
X419444Y131635D01*
X420164Y131154D01*
X421013Y130985D01*
X421863Y131154D01*
X422583Y131635D01*
X423064Y132355D01*
X423233Y133205D01*
X423064Y134054D01*
X422583Y134774D01*
X421863Y135256D01*
X421013Y135425D01*
D02*
G37*
G36*
X457037Y137757D02*
X456159Y137642D01*
X455341Y137303D01*
X454639Y136764D01*
X454100Y136062D01*
X453761Y135244D01*
X453646Y134366D01*
X453761Y133489D01*
X454100Y132671D01*
X454639Y131968D01*
X455341Y131430D01*
X456159Y131091D01*
X457037Y130975D01*
X457915Y131091D01*
X458733Y131430D01*
X459435Y131968D01*
X459974Y132671D01*
X460312Y133489D01*
X460428Y134366D01*
X460312Y135244D01*
X459974Y136062D01*
X459435Y136764D01*
X458733Y137303D01*
X457915Y137642D01*
X457037Y137757D01*
D02*
G37*
G36*
X359561Y135254D02*
X358711Y135085D01*
X357991Y134603D01*
X357510Y133883D01*
X357341Y133034D01*
X357510Y132184D01*
X357991Y131464D01*
X358711Y130983D01*
X359561Y130814D01*
X360410Y130983D01*
X361130Y131464D01*
X361612Y132184D01*
X361781Y133034D01*
X361612Y133883D01*
X361130Y134603D01*
X360410Y135085D01*
X359561Y135254D01*
D02*
G37*
G36*
X325427D02*
X324577Y135085D01*
X323857Y134603D01*
X323376Y133883D01*
X323207Y133034D01*
X323376Y132184D01*
X323857Y131464D01*
X324577Y130983D01*
X325427Y130814D01*
X326276Y130983D01*
X326996Y131464D01*
X327477Y132184D01*
X327646Y133034D01*
X327477Y133883D01*
X326996Y134603D01*
X326276Y135085D01*
X325427Y135254D01*
D02*
G37*
G36*
X295817D02*
X294968Y135085D01*
X294248Y134603D01*
X293766Y133883D01*
X293598Y133034D01*
X293766Y132184D01*
X294248Y131464D01*
X294968Y130983D01*
X295817Y130814D01*
X296667Y130983D01*
X297387Y131464D01*
X297868Y132184D01*
X298037Y133034D01*
X297868Y133883D01*
X297387Y134603D01*
X296667Y135085D01*
X295817Y135254D01*
D02*
G37*
G36*
X401624Y133751D02*
X400774Y133582D01*
X400054Y133101D01*
X399573Y132381D01*
X399404Y131532D01*
X399573Y130682D01*
X400054Y129962D01*
X400774Y129481D01*
X401624Y129312D01*
X402473Y129481D01*
X403193Y129962D01*
X403674Y130682D01*
X403843Y131532D01*
X403674Y132381D01*
X403193Y133101D01*
X402473Y133582D01*
X401624Y133751D01*
D02*
G37*
G36*
X281250Y132570D02*
X280400Y132401D01*
X279680Y131920D01*
X279199Y131200D01*
X279030Y130350D01*
X279199Y129501D01*
X279680Y128781D01*
X280400Y128300D01*
X281250Y128131D01*
X282099Y128300D01*
X282819Y128781D01*
X283300Y129501D01*
X283469Y130350D01*
X283300Y131200D01*
X282819Y131920D01*
X282099Y132401D01*
X281250Y132570D01*
D02*
G37*
G36*
X334505Y130897D02*
X333656Y130728D01*
X332936Y130247D01*
X332455Y129527D01*
X332286Y128677D01*
X332455Y127828D01*
X332936Y127108D01*
X333656Y126626D01*
X334505Y126457D01*
X335355Y126626D01*
X336075Y127108D01*
X336556Y127828D01*
X336725Y128677D01*
X336556Y129527D01*
X336075Y130247D01*
X335355Y130728D01*
X334505Y130897D01*
D02*
G37*
G36*
X149557Y130692D02*
X148707Y130523D01*
X147987Y130042D01*
X147506Y129322D01*
X147337Y128472D01*
X147506Y127623D01*
X147987Y126903D01*
X148707Y126422D01*
X149557Y126253D01*
X150406Y126422D01*
X151126Y126903D01*
X151608Y127623D01*
X151776Y128472D01*
X151608Y129322D01*
X151126Y130042D01*
X150406Y130523D01*
X149557Y130692D01*
D02*
G37*
G36*
X301033Y129908D02*
X300184Y129739D01*
X299463Y129258D01*
X298982Y128537D01*
X298813Y127688D01*
X298982Y126839D01*
X299463Y126118D01*
X300184Y125637D01*
X301033Y125468D01*
X301883Y125637D01*
X302603Y126118D01*
X303084Y126839D01*
X303253Y127688D01*
X303084Y128537D01*
X302603Y129258D01*
X301883Y129739D01*
X301033Y129908D01*
D02*
G37*
G36*
X273769Y128082D02*
X272920Y127913D01*
X272200Y127432D01*
X271718Y126712D01*
X271549Y125862D01*
X271718Y125013D01*
X272200Y124293D01*
X272920Y123811D01*
X273769Y123642D01*
X274619Y123811D01*
X275339Y124293D01*
X275820Y125013D01*
X275989Y125862D01*
X275820Y126712D01*
X275339Y127432D01*
X274619Y127913D01*
X273769Y128082D01*
D02*
G37*
G36*
X401624Y128043D02*
X400774Y127874D01*
X400054Y127392D01*
X399573Y126672D01*
X399404Y125823D01*
X399573Y124973D01*
X400054Y124253D01*
X400774Y123772D01*
X401624Y123603D01*
X402473Y123772D01*
X403193Y124253D01*
X403674Y124973D01*
X403843Y125823D01*
X403674Y126672D01*
X403193Y127392D01*
X402473Y127874D01*
X401624Y128043D01*
D02*
G37*
G36*
X141781Y127964D02*
X140932Y127795D01*
X140211Y127314D01*
X139730Y126593D01*
X139561Y125744D01*
X139730Y124895D01*
X140211Y124174D01*
X140932Y123693D01*
X141781Y123524D01*
X142631Y123693D01*
X143351Y124174D01*
X143832Y124895D01*
X144001Y125744D01*
X143832Y126593D01*
X143351Y127314D01*
X142631Y127795D01*
X141781Y127964D01*
D02*
G37*
G36*
X103986D02*
X103136Y127795D01*
X102416Y127314D01*
X101935Y126593D01*
X101766Y125744D01*
X101935Y124895D01*
X102416Y124174D01*
X103136Y123693D01*
X103986Y123524D01*
X104835Y123693D01*
X105555Y124174D01*
X106037Y124895D01*
X106206Y125744D01*
X106037Y126593D01*
X105555Y127314D01*
X104835Y127795D01*
X103986Y127964D01*
D02*
G37*
G36*
X476033Y127944D02*
X475184Y127775D01*
X474463Y127294D01*
X473982Y126574D01*
X473813Y125724D01*
X473982Y124875D01*
X474463Y124155D01*
X475184Y123674D01*
X476033Y123505D01*
X476883Y123674D01*
X477603Y124155D01*
X478084Y124875D01*
X478253Y125724D01*
X478084Y126574D01*
X477603Y127294D01*
X476883Y127775D01*
X476033Y127944D01*
D02*
G37*
G36*
X320827Y127551D02*
X319977Y127382D01*
X319257Y126900D01*
X318776Y126180D01*
X318607Y125331D01*
X318776Y124481D01*
X319257Y123761D01*
X319977Y123280D01*
X320827Y123111D01*
X321676Y123280D01*
X322397Y123761D01*
X322878Y124481D01*
X323047Y125331D01*
X322878Y126180D01*
X322397Y126900D01*
X321676Y127382D01*
X320827Y127551D01*
D02*
G37*
G36*
X457100Y127181D02*
X456251Y127012D01*
X455531Y126531D01*
X455049Y125810D01*
X454880Y124961D01*
X455049Y124111D01*
X455531Y123391D01*
X456251Y122910D01*
X457100Y122741D01*
X457950Y122910D01*
X458670Y123391D01*
X459151Y124111D01*
X459320Y124961D01*
X459151Y125810D01*
X458670Y126531D01*
X457950Y127012D01*
X457100Y127181D01*
D02*
G37*
G36*
X354179Y127053D02*
X353329Y126884D01*
X352609Y126402D01*
X352128Y125682D01*
X351959Y124833D01*
X352128Y123983D01*
X352609Y123263D01*
X353329Y122782D01*
X354179Y122613D01*
X355028Y122782D01*
X355749Y123263D01*
X356230Y123983D01*
X356399Y124833D01*
X356230Y125682D01*
X355749Y126402D01*
X355028Y126884D01*
X354179Y127053D01*
D02*
G37*
G36*
X279675Y126862D02*
X278825Y126693D01*
X278105Y126211D01*
X277624Y125491D01*
X277455Y124642D01*
X277624Y123792D01*
X278105Y123072D01*
X278825Y122591D01*
X279675Y122422D01*
X280524Y122591D01*
X281244Y123072D01*
X281726Y123792D01*
X281895Y124642D01*
X281726Y125491D01*
X281244Y126211D01*
X280524Y126693D01*
X279675Y126862D01*
D02*
G37*
G36*
X83120Y126862D02*
X82270Y126692D01*
X81550Y126211D01*
X81069Y125491D01*
X80900Y124642D01*
X81069Y123792D01*
X81550Y123072D01*
X82270Y122591D01*
X83120Y122422D01*
X83969Y122591D01*
X84689Y123072D01*
X85171Y123792D01*
X85339Y124642D01*
X85171Y125491D01*
X84689Y126211D01*
X83969Y126692D01*
X83120Y126862D01*
D02*
G37*
G36*
X430364Y126586D02*
X429514Y126417D01*
X428794Y125936D01*
X428313Y125216D01*
X428144Y124366D01*
X428313Y123517D01*
X428794Y122797D01*
X429514Y122315D01*
X430364Y122146D01*
X431213Y122315D01*
X431933Y122797D01*
X432415Y123517D01*
X432584Y124366D01*
X432415Y125216D01*
X431933Y125936D01*
X431213Y126417D01*
X430364Y126586D01*
D02*
G37*
G36*
X338828D02*
X337979Y126417D01*
X337259Y125936D01*
X336777Y125216D01*
X336609Y124366D01*
X336777Y123517D01*
X337259Y122797D01*
X337979Y122315D01*
X338828Y122146D01*
X339678Y122315D01*
X340398Y122797D01*
X340879Y123517D01*
X341048Y124366D01*
X340879Y125216D01*
X340398Y125936D01*
X339678Y126417D01*
X338828Y126586D01*
D02*
G37*
G36*
X284695Y126179D02*
X283845Y126010D01*
X283125Y125528D01*
X282644Y124808D01*
X282475Y123959D01*
X282644Y123109D01*
X283125Y122389D01*
X283845Y121908D01*
X284695Y121739D01*
X285544Y121908D01*
X286264Y122389D01*
X286745Y123109D01*
X286914Y123959D01*
X286745Y124808D01*
X286264Y125528D01*
X285544Y126010D01*
X284695Y126179D01*
D02*
G37*
G36*
X362844Y125974D02*
X361995Y125805D01*
X361274Y125323D01*
X360793Y124603D01*
X360624Y123754D01*
X360793Y122904D01*
X361274Y122184D01*
X361995Y121703D01*
X362844Y121534D01*
X363694Y121703D01*
X364414Y122184D01*
X364895Y122904D01*
X365064Y123754D01*
X364895Y124603D01*
X364414Y125323D01*
X363694Y125805D01*
X362844Y125974D01*
D02*
G37*
G36*
X450399Y127728D02*
X443675D01*
Y121004D01*
X450399D01*
Y127728D01*
D02*
G37*
G36*
X467037Y127757D02*
X466159Y127642D01*
X465342Y127303D01*
X464639Y126764D01*
X464100Y126062D01*
X463762Y125244D01*
X463646Y124366D01*
X463762Y123488D01*
X464100Y122671D01*
X464639Y121968D01*
X465342Y121430D01*
X466159Y121091D01*
X467037Y120975D01*
X467915Y121091D01*
X468733Y121430D01*
X469435Y121968D01*
X469974Y122671D01*
X470312Y123488D01*
X470428Y124366D01*
X470312Y125244D01*
X469974Y126062D01*
X469435Y126764D01*
X468733Y127303D01*
X467915Y127642D01*
X467037Y127757D01*
D02*
G37*
G36*
X374958Y125208D02*
X374109Y125039D01*
X373389Y124558D01*
X372907Y123838D01*
X372738Y122988D01*
X372907Y122139D01*
X373389Y121419D01*
X374109Y120937D01*
X374958Y120768D01*
X375808Y120937D01*
X376528Y121419D01*
X377009Y122139D01*
X377178Y122988D01*
X377009Y123838D01*
X376528Y124558D01*
X375808Y125039D01*
X374958Y125208D01*
D02*
G37*
G36*
X303592Y124598D02*
X302743Y124429D01*
X302023Y123948D01*
X301541Y123228D01*
X301372Y122378D01*
X301541Y121528D01*
X302023Y120808D01*
X302743Y120327D01*
X303592Y120158D01*
X304442Y120327D01*
X305162Y120808D01*
X305643Y121528D01*
X305812Y122378D01*
X305643Y123228D01*
X305162Y123948D01*
X304442Y124429D01*
X303592Y124598D01*
D02*
G37*
G36*
X269143D02*
X268294Y124429D01*
X267574Y123948D01*
X267092Y123228D01*
X266923Y122378D01*
X267092Y121528D01*
X267574Y120808D01*
X268294Y120327D01*
X269143Y120158D01*
X269993Y120327D01*
X270713Y120808D01*
X271194Y121528D01*
X271363Y122378D01*
X271194Y123228D01*
X270713Y123948D01*
X269993Y124429D01*
X269143Y124598D01*
D02*
G37*
G36*
X298376Y124421D02*
X297526Y124252D01*
X296806Y123770D01*
X296325Y123050D01*
X296156Y122201D01*
X296325Y121351D01*
X296806Y120631D01*
X297526Y120150D01*
X298376Y119981D01*
X299225Y120150D01*
X299945Y120631D01*
X300426Y121351D01*
X300595Y122201D01*
X300426Y123050D01*
X299945Y123770D01*
X299225Y124252D01*
X298376Y124421D01*
D02*
G37*
G36*
X293159D02*
X292310Y124252D01*
X291589Y123770D01*
X291108Y123050D01*
X290939Y122201D01*
X291108Y121351D01*
X291589Y120631D01*
X292310Y120150D01*
X293159Y119981D01*
X294008Y120150D01*
X294729Y120631D01*
X295210Y121351D01*
X295379Y122201D01*
X295210Y123050D01*
X294729Y123770D01*
X294008Y124252D01*
X293159Y124421D01*
D02*
G37*
G36*
X334029Y124351D02*
X333180Y124182D01*
X332460Y123701D01*
X331978Y122981D01*
X331809Y122131D01*
X331978Y121282D01*
X332460Y120562D01*
X333180Y120080D01*
X334029Y119911D01*
X334879Y120080D01*
X335599Y120562D01*
X336080Y121282D01*
X336249Y122131D01*
X336080Y122981D01*
X335599Y123701D01*
X334879Y124182D01*
X334029Y124351D01*
D02*
G37*
G36*
X152195Y124007D02*
X151345Y123838D01*
X150625Y123357D01*
X150144Y122637D01*
X149975Y121787D01*
X150144Y120938D01*
X150625Y120218D01*
X151345Y119737D01*
X152195Y119568D01*
X153044Y119737D01*
X153764Y120218D01*
X154245Y120938D01*
X154414Y121787D01*
X154245Y122637D01*
X153764Y123357D01*
X153044Y123838D01*
X152195Y124007D01*
D02*
G37*
G36*
X141781Y122964D02*
X140932Y122795D01*
X140211Y122314D01*
X139730Y121593D01*
X139561Y120744D01*
X139730Y119895D01*
X140211Y119174D01*
X140932Y118693D01*
X141781Y118524D01*
X142631Y118693D01*
X143351Y119174D01*
X143832Y119895D01*
X144001Y120744D01*
X143832Y121593D01*
X143351Y122314D01*
X142631Y122795D01*
X141781Y122964D01*
D02*
G37*
G36*
X386332Y122850D02*
X385483Y122681D01*
X384763Y122200D01*
X384281Y121480D01*
X384113Y120630D01*
X384281Y119781D01*
X384763Y119061D01*
X385483Y118579D01*
X386332Y118410D01*
X387182Y118579D01*
X387902Y119061D01*
X388383Y119781D01*
X388552Y120630D01*
X388383Y121480D01*
X387902Y122200D01*
X387182Y122681D01*
X386332Y122850D01*
D02*
G37*
G36*
X287844Y122432D02*
X286995Y122264D01*
X286274Y121782D01*
X285793Y121062D01*
X285624Y120213D01*
X285793Y119363D01*
X286274Y118643D01*
X286995Y118162D01*
X287844Y117993D01*
X288694Y118162D01*
X289414Y118643D01*
X289895Y119363D01*
X290064Y120213D01*
X289895Y121062D01*
X289414Y121782D01*
X288694Y122264D01*
X287844Y122432D01*
D02*
G37*
G36*
X251939Y121645D02*
X251089Y121476D01*
X250369Y120995D01*
X249888Y120275D01*
X249719Y119425D01*
X249888Y118576D01*
X250369Y117856D01*
X251089Y117374D01*
X251939Y117205D01*
X252788Y117374D01*
X253508Y117856D01*
X253989Y118576D01*
X254158Y119425D01*
X253989Y120275D01*
X253508Y120995D01*
X252788Y121476D01*
X251939Y121645D01*
D02*
G37*
G36*
X340674Y120858D02*
X339824Y120689D01*
X339104Y120208D01*
X338623Y119487D01*
X338454Y118638D01*
X338623Y117788D01*
X339104Y117068D01*
X339824Y116587D01*
X340674Y116418D01*
X341523Y116587D01*
X342243Y117068D01*
X342725Y117788D01*
X342894Y118638D01*
X342725Y119487D01*
X342243Y120208D01*
X341523Y120689D01*
X340674Y120858D01*
D02*
G37*
G36*
X403198Y120066D02*
X402349Y119897D01*
X401629Y119416D01*
X401148Y118695D01*
X400979Y117846D01*
X401148Y116996D01*
X401629Y116276D01*
X402349Y115795D01*
X403198Y115626D01*
X404048Y115795D01*
X404768Y116276D01*
X405249Y116996D01*
X405418Y117846D01*
X405249Y118695D01*
X404768Y119416D01*
X404048Y119897D01*
X403198Y120066D01*
D02*
G37*
G36*
X358641Y119873D02*
X357792Y119704D01*
X357072Y119223D01*
X356591Y118503D01*
X356422Y117654D01*
X356591Y116804D01*
X357072Y116084D01*
X357792Y115603D01*
X358641Y115434D01*
X359491Y115603D01*
X360211Y116084D01*
X360692Y116804D01*
X360861Y117654D01*
X360692Y118503D01*
X360211Y119223D01*
X359491Y119704D01*
X358641Y119873D01*
D02*
G37*
G36*
X274400Y119676D02*
X273551Y119508D01*
X272831Y119026D01*
X272350Y118306D01*
X272181Y117457D01*
X272350Y116607D01*
X272831Y115887D01*
X273551Y115406D01*
X274400Y115237D01*
X275250Y115406D01*
X275970Y115887D01*
X276451Y116607D01*
X276620Y117457D01*
X276451Y118306D01*
X275970Y119026D01*
X275250Y119508D01*
X274400Y119676D01*
D02*
G37*
G36*
X149124Y119086D02*
X148274Y118917D01*
X147554Y118436D01*
X147073Y117716D01*
X146904Y116866D01*
X147073Y116017D01*
X147554Y115296D01*
X148274Y114815D01*
X149124Y114646D01*
X149973Y114815D01*
X150693Y115296D01*
X151174Y116017D01*
X151344Y116866D01*
X151174Y117716D01*
X150693Y118436D01*
X149973Y118917D01*
X149124Y119086D01*
D02*
G37*
G36*
X141781Y117964D02*
X140932Y117795D01*
X140211Y117314D01*
X139730Y116594D01*
X139561Y115744D01*
X139730Y114895D01*
X140211Y114174D01*
X140932Y113693D01*
X141781Y113524D01*
X142631Y113693D01*
X143351Y114174D01*
X143832Y114895D01*
X144001Y115744D01*
X143832Y116594D01*
X143351Y117314D01*
X142631Y117795D01*
X141781Y117964D01*
D02*
G37*
G36*
X286368Y117019D02*
X285518Y116850D01*
X284798Y116369D01*
X284317Y115649D01*
X284148Y114799D01*
X284317Y113950D01*
X284798Y113230D01*
X285518Y112748D01*
X286368Y112579D01*
X287217Y112748D01*
X287937Y113230D01*
X288419Y113950D01*
X288587Y114799D01*
X288419Y115649D01*
X287937Y116369D01*
X287217Y116850D01*
X286368Y117019D01*
D02*
G37*
G36*
X279380D02*
X278530Y116850D01*
X277810Y116369D01*
X277329Y115649D01*
X277160Y114799D01*
X277329Y113950D01*
X277810Y113230D01*
X278530Y112748D01*
X279380Y112579D01*
X280229Y112748D01*
X280949Y113230D01*
X281430Y113950D01*
X281599Y114799D01*
X281430Y115649D01*
X280949Y116369D01*
X280229Y116850D01*
X279380Y117019D01*
D02*
G37*
G36*
X258120Y116724D02*
X257270Y116555D01*
X256550Y116074D01*
X256069Y115353D01*
X255900Y114504D01*
X256069Y113654D01*
X256550Y112934D01*
X257270Y112453D01*
X258120Y112284D01*
X258969Y112453D01*
X259689Y112934D01*
X260171Y113654D01*
X260339Y114504D01*
X260171Y115353D01*
X259689Y116074D01*
X258969Y116555D01*
X258120Y116724D01*
D02*
G37*
G36*
X84360Y115444D02*
X83510Y115275D01*
X82790Y114794D01*
X82309Y114074D01*
X82140Y113224D01*
X82309Y112375D01*
X82790Y111655D01*
X83510Y111174D01*
X84360Y111005D01*
X85209Y111174D01*
X85929Y111655D01*
X86411Y112375D01*
X86580Y113224D01*
X86411Y114074D01*
X85929Y114794D01*
X85209Y115275D01*
X84360Y115444D01*
D02*
G37*
G36*
X329380Y114362D02*
X328530Y114193D01*
X327810Y113711D01*
X327329Y112991D01*
X327160Y112142D01*
X327329Y111292D01*
X327810Y110572D01*
X328530Y110091D01*
X329380Y109922D01*
X330229Y110091D01*
X330949Y110572D01*
X331430Y111292D01*
X331599Y112142D01*
X331430Y112991D01*
X330949Y113711D01*
X330229Y114193D01*
X329380Y114362D01*
D02*
G37*
G36*
X274400Y114184D02*
X273551Y114015D01*
X272831Y113534D01*
X272350Y112814D01*
X272181Y111965D01*
X272350Y111115D01*
X272831Y110395D01*
X273551Y109914D01*
X274400Y109745D01*
X275250Y109914D01*
X275970Y110395D01*
X276451Y111115D01*
X276620Y111965D01*
X276451Y112814D01*
X275970Y113534D01*
X275250Y114015D01*
X274400Y114184D01*
D02*
G37*
G36*
X251939D02*
X251089Y114015D01*
X250369Y113534D01*
X249888Y112814D01*
X249719Y111965D01*
X249888Y111115D01*
X250369Y110395D01*
X251089Y109914D01*
X251939Y109745D01*
X252788Y109914D01*
X253508Y110395D01*
X253989Y111115D01*
X254158Y111965D01*
X253989Y112814D01*
X253508Y113534D01*
X252788Y114015D01*
X251939Y114184D01*
D02*
G37*
G36*
X421372Y113795D02*
X420522Y113626D01*
X419802Y113145D01*
X419321Y112425D01*
X419152Y111575D01*
X419321Y110726D01*
X419802Y110005D01*
X420522Y109524D01*
X421372Y109355D01*
X422221Y109524D01*
X422941Y110005D01*
X423423Y110726D01*
X423592Y111575D01*
X423423Y112425D01*
X422941Y113145D01*
X422221Y113626D01*
X421372Y113795D01*
D02*
G37*
G36*
X449458Y113180D02*
X448609Y113012D01*
X447889Y112530D01*
X447407Y111810D01*
X447238Y110961D01*
X447407Y110111D01*
X447889Y109391D01*
X448609Y108910D01*
X449458Y108741D01*
X450308Y108910D01*
X451028Y109391D01*
X451509Y110111D01*
X451678Y110961D01*
X451509Y111810D01*
X451028Y112530D01*
X450308Y113012D01*
X449458Y113180D01*
D02*
G37*
G36*
X140206Y112964D02*
X139357Y112795D01*
X138637Y112314D01*
X138155Y111593D01*
X137987Y110744D01*
X138155Y109895D01*
X138637Y109174D01*
X139357Y108693D01*
X140206Y108524D01*
X141056Y108693D01*
X141776Y109174D01*
X142257Y109895D01*
X142426Y110744D01*
X142257Y111593D01*
X141776Y112314D01*
X141056Y112795D01*
X140206Y112964D01*
D02*
G37*
G36*
X126427D02*
X125577Y112795D01*
X124857Y112314D01*
X124376Y111593D01*
X124207Y110744D01*
X124376Y109895D01*
X124857Y109174D01*
X125577Y108693D01*
X126427Y108524D01*
X127276Y108693D01*
X127996Y109174D01*
X128478Y109895D01*
X128647Y110744D01*
X128478Y111593D01*
X127996Y112314D01*
X127276Y112795D01*
X126427Y112964D01*
D02*
G37*
G36*
X285482Y111606D02*
X284632Y111437D01*
X283912Y110956D01*
X283431Y110235D01*
X283262Y109386D01*
X283431Y108536D01*
X283912Y107816D01*
X284632Y107335D01*
X285482Y107166D01*
X286331Y107335D01*
X287052Y107816D01*
X287533Y108536D01*
X287702Y109386D01*
X287533Y110235D01*
X287052Y110956D01*
X286331Y111437D01*
X285482Y111606D01*
D02*
G37*
G36*
X279380D02*
X278530Y111437D01*
X277810Y110956D01*
X277329Y110235D01*
X277160Y109386D01*
X277329Y108536D01*
X277810Y107816D01*
X278530Y107335D01*
X279380Y107166D01*
X280229Y107335D01*
X280949Y107816D01*
X281430Y108536D01*
X281599Y109386D01*
X281430Y110235D01*
X280949Y110956D01*
X280229Y111437D01*
X279380Y111606D01*
D02*
G37*
G36*
X269931Y111507D02*
X269081Y111338D01*
X268361Y110857D01*
X267880Y110137D01*
X267711Y109287D01*
X267880Y108438D01*
X268361Y107718D01*
X269081Y107237D01*
X269931Y107068D01*
X270780Y107237D01*
X271500Y107718D01*
X271982Y108438D01*
X272150Y109287D01*
X271982Y110137D01*
X271500Y110857D01*
X270780Y111338D01*
X269931Y111507D01*
D02*
G37*
G36*
X445226Y109539D02*
X444377Y109370D01*
X443656Y108889D01*
X443175Y108168D01*
X443006Y107319D01*
X443175Y106470D01*
X443656Y105749D01*
X444377Y105268D01*
X445226Y105099D01*
X446075Y105268D01*
X446796Y105749D01*
X447277Y106470D01*
X447446Y107319D01*
X447277Y108168D01*
X446796Y108889D01*
X446075Y109370D01*
X445226Y109539D01*
D02*
G37*
G36*
X316880Y108948D02*
X316030Y108779D01*
X315310Y108298D01*
X314829Y107578D01*
X314660Y106728D01*
X314829Y105879D01*
X315310Y105159D01*
X316030Y104678D01*
X316880Y104509D01*
X317729Y104678D01*
X318449Y105159D01*
X318930Y105879D01*
X319099Y106728D01*
X318930Y107578D01*
X318449Y108298D01*
X317729Y108779D01*
X316880Y108948D01*
D02*
G37*
G36*
X394979Y108850D02*
X394129Y108681D01*
X393409Y108200D01*
X392928Y107479D01*
X392759Y106630D01*
X392928Y105780D01*
X393409Y105060D01*
X394129Y104579D01*
X394979Y104410D01*
X395828Y104579D01*
X396548Y105060D01*
X397030Y105780D01*
X397199Y106630D01*
X397030Y107479D01*
X396548Y108200D01*
X395828Y108681D01*
X394979Y108850D01*
D02*
G37*
G36*
X326722Y108653D02*
X325873Y108484D01*
X325152Y108003D01*
X324671Y107283D01*
X324502Y106433D01*
X324671Y105584D01*
X325152Y104864D01*
X325873Y104382D01*
X326722Y104213D01*
X327572Y104382D01*
X328292Y104864D01*
X328773Y105584D01*
X328942Y106433D01*
X328773Y107283D01*
X328292Y108003D01*
X327572Y108484D01*
X326722Y108653D01*
D02*
G37*
G36*
X252411D02*
X251561Y108484D01*
X250841Y108003D01*
X250360Y107283D01*
X250191Y106433D01*
X250360Y105584D01*
X250841Y104864D01*
X251561Y104382D01*
X252411Y104213D01*
X253260Y104382D01*
X253981Y104864D01*
X254462Y105584D01*
X254631Y106433D01*
X254462Y107283D01*
X253981Y108003D01*
X253260Y108484D01*
X252411Y108653D01*
D02*
G37*
G36*
X274400Y108456D02*
X273551Y108287D01*
X272831Y107806D01*
X272350Y107086D01*
X272181Y106236D01*
X272350Y105387D01*
X272831Y104667D01*
X273551Y104185D01*
X274400Y104016D01*
X275250Y104185D01*
X275970Y104667D01*
X276451Y105387D01*
X276620Y106236D01*
X276451Y107086D01*
X275970Y107806D01*
X275250Y108287D01*
X274400Y108456D01*
D02*
G37*
G36*
X103986Y107964D02*
X103136Y107795D01*
X102416Y107314D01*
X101935Y106594D01*
X101766Y105744D01*
X101935Y104895D01*
X102416Y104174D01*
X103136Y103693D01*
X103986Y103524D01*
X104835Y103693D01*
X105555Y104174D01*
X106037Y104895D01*
X106206Y105744D01*
X106037Y106594D01*
X105555Y107314D01*
X104835Y107795D01*
X103986Y107964D01*
D02*
G37*
G36*
X289517Y107472D02*
X288668Y107303D01*
X287948Y106822D01*
X287467Y106102D01*
X287298Y105252D01*
X287467Y104402D01*
X287948Y103682D01*
X288668Y103201D01*
X289517Y103032D01*
X290367Y103201D01*
X291087Y103682D01*
X291568Y104402D01*
X291737Y105252D01*
X291568Y106102D01*
X291087Y106822D01*
X290367Y107303D01*
X289517Y107472D01*
D02*
G37*
G36*
X141486Y105995D02*
X140636Y105826D01*
X139916Y105345D01*
X139435Y104625D01*
X139266Y103776D01*
X139435Y102926D01*
X139916Y102206D01*
X140636Y101725D01*
X141486Y101556D01*
X142335Y101725D01*
X143055Y102206D01*
X143537Y102926D01*
X143706Y103776D01*
X143537Y104625D01*
X143055Y105345D01*
X142335Y105826D01*
X141486Y105995D01*
D02*
G37*
G36*
X239616Y105897D02*
X238766Y105728D01*
X238046Y105247D01*
X237565Y104527D01*
X237396Y103677D01*
X237565Y102828D01*
X238046Y102108D01*
X238766Y101626D01*
X239616Y101457D01*
X240465Y101626D01*
X241185Y102108D01*
X241667Y102828D01*
X241835Y103677D01*
X241667Y104527D01*
X241185Y105247D01*
X240465Y105728D01*
X239616Y105897D01*
D02*
G37*
G36*
X366666Y104937D02*
X365817Y104768D01*
X365097Y104286D01*
X364615Y103566D01*
X364446Y102717D01*
X364615Y101867D01*
X365097Y101147D01*
X365817Y100666D01*
X366666Y100497D01*
X367516Y100666D01*
X368236Y101147D01*
X368717Y101867D01*
X368886Y102717D01*
X368717Y103566D01*
X368236Y104286D01*
X367516Y104768D01*
X366666Y104937D01*
D02*
G37*
G36*
X307504D02*
X306655Y104768D01*
X305935Y104286D01*
X305453Y103566D01*
X305285Y102717D01*
X305453Y101867D01*
X305935Y101147D01*
X306655Y100666D01*
X307504Y100497D01*
X308354Y100666D01*
X309074Y101147D01*
X309555Y101867D01*
X309724Y102717D01*
X309555Y103566D01*
X309074Y104286D01*
X308354Y104768D01*
X307504Y104937D01*
D02*
G37*
G36*
X266781Y104716D02*
X265932Y104547D01*
X265211Y104066D01*
X264730Y103346D01*
X264561Y102496D01*
X264730Y101647D01*
X265211Y100926D01*
X265932Y100445D01*
X266781Y100276D01*
X267631Y100445D01*
X268351Y100926D01*
X268832Y101647D01*
X269001Y102496D01*
X268832Y103346D01*
X268351Y104066D01*
X267631Y104547D01*
X266781Y104716D01*
D02*
G37*
G36*
X260580D02*
X259731Y104547D01*
X259011Y104066D01*
X258529Y103346D01*
X258361Y102496D01*
X258529Y101647D01*
X259011Y100926D01*
X259731Y100445D01*
X260580Y100276D01*
X261430Y100445D01*
X262150Y100926D01*
X262631Y101647D01*
X262800Y102496D01*
X262631Y103346D01*
X262150Y104066D01*
X261430Y104547D01*
X260580Y104716D01*
D02*
G37*
G36*
X442238Y103165D02*
X441388Y102996D01*
X440668Y102515D01*
X440187Y101795D01*
X440018Y100945D01*
X440187Y100096D01*
X440668Y99375D01*
X441388Y98894D01*
X442238Y98725D01*
X443087Y98894D01*
X443808Y99375D01*
X444289Y100096D01*
X444458Y100945D01*
X444289Y101795D01*
X443808Y102515D01*
X443087Y102996D01*
X442238Y103165D01*
D02*
G37*
G36*
X459183Y103141D02*
X458333Y102972D01*
X457613Y102491D01*
X457132Y101771D01*
X456963Y100921D01*
X457132Y100072D01*
X457613Y99352D01*
X458333Y98870D01*
X459183Y98702D01*
X460032Y98870D01*
X460752Y99352D01*
X461234Y100072D01*
X461403Y100921D01*
X461234Y101771D01*
X460752Y102491D01*
X460032Y102972D01*
X459183Y103141D01*
D02*
G37*
G36*
X453592D02*
X452743Y102972D01*
X452023Y102491D01*
X451541Y101771D01*
X451372Y100921D01*
X451541Y100072D01*
X452023Y99352D01*
X452743Y98870D01*
X453592Y98702D01*
X454442Y98870D01*
X455162Y99352D01*
X455643Y100072D01*
X455812Y100921D01*
X455643Y101771D01*
X455162Y102491D01*
X454442Y102972D01*
X453592Y103141D01*
D02*
G37*
G36*
X447687D02*
X446837Y102972D01*
X446117Y102491D01*
X445636Y101771D01*
X445467Y100921D01*
X445636Y100072D01*
X446117Y99352D01*
X446837Y98870D01*
X447687Y98702D01*
X448536Y98870D01*
X449256Y99352D01*
X449737Y100072D01*
X449906Y100921D01*
X449737Y101771D01*
X449256Y102491D01*
X448536Y102972D01*
X447687Y103141D01*
D02*
G37*
G36*
X429183D02*
X428333Y102972D01*
X427613Y102491D01*
X427132Y101771D01*
X426963Y100921D01*
X427132Y100072D01*
X427613Y99352D01*
X428333Y98870D01*
X429183Y98702D01*
X430032Y98870D01*
X430752Y99352D01*
X431234Y100072D01*
X431402Y100921D01*
X431234Y101771D01*
X430752Y102491D01*
X430032Y102972D01*
X429183Y103141D01*
D02*
G37*
G36*
X465758Y103067D02*
X464908Y102898D01*
X464188Y102416D01*
X463707Y101696D01*
X463538Y100847D01*
X463707Y99997D01*
X464188Y99277D01*
X464908Y98796D01*
X465758Y98627D01*
X466607Y98796D01*
X467327Y99277D01*
X467808Y99997D01*
X467977Y100847D01*
X467808Y101696D01*
X467327Y102416D01*
X466607Y102898D01*
X465758Y103067D01*
D02*
G37*
G36*
X90279Y103044D02*
X89429Y102875D01*
X88709Y102393D01*
X88228Y101673D01*
X88059Y100824D01*
X88228Y99974D01*
X88709Y99254D01*
X89429Y98773D01*
X90279Y98604D01*
X91128Y98773D01*
X91848Y99254D01*
X92330Y99974D01*
X92498Y100824D01*
X92330Y101673D01*
X91848Y102393D01*
X91128Y102875D01*
X90279Y103044D01*
D02*
G37*
G36*
X103986Y102964D02*
X103136Y102795D01*
X102416Y102314D01*
X101935Y101593D01*
X101766Y100744D01*
X101935Y99895D01*
X102416Y99174D01*
X103136Y98693D01*
X103986Y98524D01*
X104835Y98693D01*
X105555Y99174D01*
X106037Y99895D01*
X106206Y100744D01*
X106037Y101593D01*
X105555Y102314D01*
X104835Y102795D01*
X103986Y102964D01*
D02*
G37*
G36*
X252725Y102963D02*
X251876Y102794D01*
X251155Y102313D01*
X250674Y101593D01*
X250505Y100743D01*
X250674Y99894D01*
X251155Y99174D01*
X251876Y98692D01*
X252725Y98523D01*
X253574Y98692D01*
X254295Y99174D01*
X254776Y99894D01*
X254945Y100743D01*
X254776Y101593D01*
X254295Y102313D01*
X253574Y102794D01*
X252725Y102963D01*
D02*
G37*
G36*
X412155Y102944D02*
X411306Y102775D01*
X410585Y102294D01*
X410104Y101574D01*
X409935Y100724D01*
X410104Y99875D01*
X410585Y99155D01*
X411306Y98674D01*
X412155Y98505D01*
X413005Y98674D01*
X413725Y99155D01*
X414206Y99875D01*
X414375Y100724D01*
X414206Y101574D01*
X413725Y102294D01*
X413005Y102775D01*
X412155Y102944D01*
D02*
G37*
G36*
X383231Y101393D02*
X382381Y101224D01*
X381661Y100743D01*
X381180Y100023D01*
X381011Y99173D01*
X381180Y98324D01*
X381661Y97604D01*
X382381Y97123D01*
X383231Y96954D01*
X384080Y97123D01*
X384801Y97604D01*
X385282Y98324D01*
X385451Y99173D01*
X385282Y100023D01*
X384801Y100743D01*
X384080Y101224D01*
X383231Y101393D01*
D02*
G37*
G36*
X236663Y100680D02*
X235813Y100512D01*
X235093Y100030D01*
X234612Y99310D01*
X234443Y98461D01*
X234612Y97611D01*
X235093Y96891D01*
X235813Y96410D01*
X236663Y96241D01*
X237512Y96410D01*
X238233Y96891D01*
X238714Y97611D01*
X238883Y98461D01*
X238714Y99310D01*
X238233Y100030D01*
X237512Y100512D01*
X236663Y100680D01*
D02*
G37*
G36*
X141486Y100582D02*
X140636Y100413D01*
X139916Y99932D01*
X139435Y99212D01*
X139266Y98362D01*
X139435Y97513D01*
X139916Y96793D01*
X140636Y96311D01*
X141486Y96142D01*
X142335Y96311D01*
X143055Y96793D01*
X143537Y97513D01*
X143706Y98362D01*
X143537Y99212D01*
X143055Y99932D01*
X142335Y100413D01*
X141486Y100582D01*
D02*
G37*
G36*
X409694Y97432D02*
X408845Y97263D01*
X408125Y96782D01*
X407644Y96062D01*
X407475Y95213D01*
X407644Y94363D01*
X408125Y93643D01*
X408845Y93162D01*
X409694Y92993D01*
X410544Y93162D01*
X411264Y93643D01*
X411745Y94363D01*
X411914Y95213D01*
X411745Y96062D01*
X411264Y96782D01*
X410544Y97263D01*
X409694Y97432D01*
D02*
G37*
G36*
X307567Y94897D02*
X306718Y94728D01*
X305998Y94247D01*
X305517Y93527D01*
X305348Y92677D01*
X305517Y91828D01*
X305998Y91108D01*
X306718Y90627D01*
X307567Y90458D01*
X308417Y90627D01*
X309137Y91108D01*
X309618Y91828D01*
X309787Y92677D01*
X309618Y93527D01*
X309137Y94247D01*
X308417Y94728D01*
X307567Y94897D01*
D02*
G37*
G36*
X228065Y94575D02*
X227215Y94406D01*
X226495Y93925D01*
X226014Y93205D01*
X225845Y92355D01*
X226014Y91506D01*
X226495Y90786D01*
X227215Y90304D01*
X228065Y90136D01*
X228914Y90304D01*
X229634Y90786D01*
X230116Y91506D01*
X230285Y92355D01*
X230116Y93205D01*
X229634Y93925D01*
X228914Y94406D01*
X228065Y94575D01*
D02*
G37*
G36*
X204049Y94551D02*
X203199Y94382D01*
X202479Y93901D01*
X201998Y93181D01*
X201829Y92331D01*
X201998Y91482D01*
X202479Y90762D01*
X203199Y90281D01*
X204049Y90112D01*
X204898Y90281D01*
X205619Y90762D01*
X206100Y91482D01*
X206269Y92331D01*
X206100Y93181D01*
X205619Y93901D01*
X204898Y94382D01*
X204049Y94551D01*
D02*
G37*
G36*
X178065Y94527D02*
X177215Y94358D01*
X176495Y93877D01*
X176014Y93157D01*
X175845Y92308D01*
X176014Y91458D01*
X176495Y90738D01*
X177215Y90257D01*
X178065Y90088D01*
X178914Y90257D01*
X179634Y90738D01*
X180115Y91458D01*
X180285Y92308D01*
X180115Y93157D01*
X179634Y93877D01*
X178914Y94358D01*
X178065Y94527D01*
D02*
G37*
G36*
X153065Y94503D02*
X152215Y94335D01*
X151495Y93853D01*
X151014Y93133D01*
X150845Y92284D01*
X151014Y91434D01*
X151495Y90714D01*
X152215Y90233D01*
X153065Y90064D01*
X153914Y90233D01*
X154634Y90714D01*
X155115Y91434D01*
X155285Y92284D01*
X155115Y93133D01*
X154634Y93853D01*
X153914Y94335D01*
X153065Y94503D01*
D02*
G37*
G36*
X267352Y94086D02*
X266503Y93917D01*
X265782Y93436D01*
X265301Y92716D01*
X265132Y91866D01*
X265301Y91017D01*
X265782Y90297D01*
X266503Y89815D01*
X267352Y89646D01*
X268202Y89815D01*
X268922Y90297D01*
X269403Y91017D01*
X269572Y91866D01*
X269403Y92716D01*
X268922Y93436D01*
X268202Y93917D01*
X267352Y94086D01*
D02*
G37*
G36*
X272687Y94027D02*
X271837Y93858D01*
X271117Y93377D01*
X270636Y92657D01*
X270467Y91807D01*
X270636Y90958D01*
X271117Y90237D01*
X271837Y89756D01*
X272687Y89587D01*
X273536Y89756D01*
X274256Y90237D01*
X274737Y90958D01*
X274906Y91807D01*
X274737Y92657D01*
X274256Y93377D01*
X273536Y93858D01*
X272687Y94027D01*
D02*
G37*
G36*
X342312Y93709D02*
X341462Y93540D01*
X340742Y93059D01*
X340261Y92339D01*
X340092Y91489D01*
X340261Y90640D01*
X340742Y89920D01*
X341462Y89439D01*
X342312Y89270D01*
X343161Y89439D01*
X343881Y89920D01*
X344362Y90640D01*
X344531Y91489D01*
X344362Y92339D01*
X343881Y93059D01*
X343161Y93540D01*
X342312Y93709D01*
D02*
G37*
G36*
X458710Y92314D02*
X457861Y92145D01*
X457141Y91664D01*
X456659Y90944D01*
X456490Y90095D01*
X456659Y89245D01*
X457141Y88525D01*
X457861Y88044D01*
X458710Y87875D01*
X459560Y88044D01*
X460280Y88525D01*
X460761Y89245D01*
X460930Y90095D01*
X460761Y90944D01*
X460280Y91664D01*
X459560Y92145D01*
X458710Y92314D01*
D02*
G37*
G36*
X443419Y92141D02*
X442569Y91972D01*
X441849Y91491D01*
X441368Y90771D01*
X441199Y89921D01*
X441368Y89072D01*
X441849Y88352D01*
X442569Y87871D01*
X443419Y87702D01*
X444269Y87871D01*
X444989Y88352D01*
X445470Y89072D01*
X445639Y89921D01*
X445470Y90771D01*
X444989Y91491D01*
X444269Y91972D01*
X443419Y92141D01*
D02*
G37*
G36*
X110281Y91330D02*
X109432Y91161D01*
X108711Y90680D01*
X108230Y89960D01*
X108061Y89110D01*
X108230Y88261D01*
X108711Y87541D01*
X109432Y87059D01*
X110281Y86891D01*
X111131Y87059D01*
X111851Y87541D01*
X112332Y88261D01*
X112501Y89110D01*
X112332Y89960D01*
X111851Y90680D01*
X111131Y91161D01*
X110281Y91330D01*
D02*
G37*
G36*
X292864Y90100D02*
X292014Y89931D01*
X291294Y89450D01*
X290813Y88730D01*
X290644Y87880D01*
X290813Y87031D01*
X291294Y86311D01*
X292014Y85830D01*
X292864Y85661D01*
X293713Y85830D01*
X294433Y86311D01*
X294915Y87031D01*
X295084Y87880D01*
X294915Y88730D01*
X294433Y89450D01*
X293713Y89931D01*
X292864Y90100D01*
D02*
G37*
G36*
X246998D02*
X246148Y89931D01*
X245428Y89450D01*
X244947Y88730D01*
X244778Y87880D01*
X244947Y87031D01*
X245428Y86311D01*
X246148Y85830D01*
X246998Y85661D01*
X247847Y85830D01*
X248567Y86311D01*
X249048Y87031D01*
X249217Y87880D01*
X249048Y88730D01*
X248567Y89450D01*
X247847Y89931D01*
X246998Y90100D01*
D02*
G37*
G36*
X263135Y89755D02*
X262285Y89586D01*
X261565Y89105D01*
X261084Y88385D01*
X260915Y87536D01*
X261084Y86686D01*
X261565Y85966D01*
X262285Y85485D01*
X263135Y85316D01*
X263984Y85485D01*
X264704Y85966D01*
X265185Y86686D01*
X265354Y87536D01*
X265185Y88385D01*
X264704Y89105D01*
X263984Y89586D01*
X263135Y89755D01*
D02*
G37*
G36*
X275639Y89558D02*
X274790Y89389D01*
X274070Y88908D01*
X273588Y88188D01*
X273419Y87339D01*
X273588Y86489D01*
X274070Y85769D01*
X274790Y85288D01*
X275639Y85119D01*
X276489Y85288D01*
X277209Y85769D01*
X277690Y86489D01*
X277859Y87339D01*
X277690Y88188D01*
X277209Y88908D01*
X276489Y89389D01*
X275639Y89558D01*
D02*
G37*
G36*
X237844D02*
X236995Y89389D01*
X236274Y88908D01*
X235793Y88188D01*
X235624Y87339D01*
X235793Y86489D01*
X236274Y85769D01*
X236995Y85288D01*
X237844Y85119D01*
X238694Y85288D01*
X239414Y85769D01*
X239895Y86489D01*
X240064Y87339D01*
X239895Y88188D01*
X239414Y88908D01*
X238694Y89389D01*
X237844Y89558D01*
D02*
G37*
G36*
X414183Y88968D02*
X413333Y88799D01*
X412613Y88318D01*
X412132Y87598D01*
X411963Y86748D01*
X412132Y85899D01*
X412613Y85178D01*
X413333Y84697D01*
X414183Y84528D01*
X415032Y84697D01*
X415752Y85178D01*
X416233Y85899D01*
X416402Y86748D01*
X416233Y87598D01*
X415752Y88318D01*
X415032Y88799D01*
X414183Y88968D01*
D02*
G37*
G36*
X259014Y85484D02*
X258164Y85315D01*
X257444Y84834D01*
X256963Y84113D01*
X256794Y83264D01*
X256963Y82414D01*
X257444Y81694D01*
X258164Y81213D01*
X259014Y81044D01*
X259863Y81213D01*
X260583Y81694D01*
X261065Y82414D01*
X261234Y83264D01*
X261065Y84113D01*
X260583Y84834D01*
X259863Y85315D01*
X259014Y85484D01*
D02*
G37*
G36*
X353002Y84436D02*
X352152Y84267D01*
X351432Y83786D01*
X350951Y83065D01*
X350782Y82216D01*
X350951Y81366D01*
X351432Y80646D01*
X352152Y80165D01*
X353002Y79996D01*
X353851Y80165D01*
X354571Y80646D01*
X355052Y81366D01*
X355221Y82216D01*
X355052Y83065D01*
X354571Y83786D01*
X353851Y84267D01*
X353002Y84436D01*
D02*
G37*
G36*
X403001Y84431D02*
X402152Y84262D01*
X401432Y83781D01*
X400951Y83061D01*
X400782Y82212D01*
X400951Y81362D01*
X401432Y80642D01*
X402152Y80161D01*
X403001Y79992D01*
X403851Y80161D01*
X404571Y80642D01*
X405052Y81362D01*
X405221Y82212D01*
X405052Y83061D01*
X404571Y83781D01*
X403851Y84262D01*
X403001Y84431D01*
D02*
G37*
G36*
X183224Y86601D02*
X176500D01*
Y79877D01*
X183224D01*
Y86601D01*
D02*
G37*
G36*
X369946Y86601D02*
X363222D01*
Y79877D01*
X369946D01*
Y86601D01*
D02*
G37*
G36*
X480167Y87347D02*
X479186Y87218D01*
X478273Y86840D01*
X477488Y86238D01*
X476886Y85453D01*
X476508Y84540D01*
X476378Y83559D01*
X476508Y82579D01*
X476886Y81665D01*
X477488Y80880D01*
X478273Y80278D01*
X479186Y79900D01*
X480167Y79771D01*
X481147Y79900D01*
X482061Y80278D01*
X482845Y80880D01*
X483448Y81665D01*
X483826Y82579D01*
X483955Y83559D01*
X483826Y84540D01*
X483448Y85453D01*
X482845Y86238D01*
X482061Y86840D01*
X481147Y87218D01*
X480167Y87347D01*
D02*
G37*
G36*
X460482D02*
X459501Y87218D01*
X458588Y86840D01*
X457803Y86238D01*
X457201Y85453D01*
X456822Y84540D01*
X456694Y83559D01*
X456822Y82579D01*
X457201Y81665D01*
X457803Y80880D01*
X458588Y80278D01*
X459501Y79900D01*
X460482Y79771D01*
X461462Y79900D01*
X462376Y80278D01*
X463161Y80880D01*
X463763Y81665D01*
X464141Y82579D01*
X464270Y83559D01*
X464141Y84540D01*
X463763Y85453D01*
X463161Y86238D01*
X462376Y86840D01*
X461462Y87218D01*
X460482Y87347D01*
D02*
G37*
G36*
X440797D02*
X439816Y87218D01*
X438903Y86840D01*
X438118Y86238D01*
X437516Y85453D01*
X437138Y84540D01*
X437008Y83559D01*
X437138Y82579D01*
X437516Y81665D01*
X438118Y80880D01*
X438903Y80278D01*
X439816Y79900D01*
X440797Y79771D01*
X441777Y79900D01*
X442691Y80278D01*
X443475Y80880D01*
X444078Y81665D01*
X444456Y82579D01*
X444585Y83559D01*
X444456Y84540D01*
X444078Y85453D01*
X443475Y86238D01*
X442691Y86840D01*
X441777Y87218D01*
X440797Y87347D01*
D02*
G37*
G36*
X421112D02*
X420131Y87218D01*
X419218Y86840D01*
X418433Y86238D01*
X417831Y85453D01*
X417453Y84540D01*
X417323Y83559D01*
X417453Y82579D01*
X417831Y81665D01*
X418433Y80880D01*
X419218Y80278D01*
X420131Y79900D01*
X421112Y79771D01*
X422092Y79900D01*
X423006Y80278D01*
X423791Y80880D01*
X424393Y81665D01*
X424771Y82579D01*
X424900Y83559D01*
X424771Y84540D01*
X424393Y85453D01*
X423791Y86238D01*
X423006Y86840D01*
X422092Y87218D01*
X421112Y87347D01*
D02*
G37*
G36*
X279813Y83574D02*
X278963Y83405D01*
X278243Y82924D01*
X277762Y82204D01*
X277593Y81354D01*
X277762Y80505D01*
X278243Y79785D01*
X278963Y79303D01*
X279813Y79135D01*
X280662Y79303D01*
X281382Y79785D01*
X281863Y80505D01*
X282032Y81354D01*
X281863Y82204D01*
X281382Y82924D01*
X280662Y83405D01*
X279813Y83574D01*
D02*
G37*
G36*
X255230Y81929D02*
X254380Y81760D01*
X253660Y81279D01*
X253179Y80559D01*
X253010Y79709D01*
X253179Y78860D01*
X253660Y78140D01*
X254380Y77658D01*
X255230Y77489D01*
X256080Y77658D01*
X256800Y78140D01*
X257281Y78860D01*
X257450Y79709D01*
X257281Y80559D01*
X256800Y81279D01*
X256080Y81760D01*
X255230Y81929D01*
D02*
G37*
G36*
X242962D02*
X242113Y81760D01*
X241392Y81279D01*
X240911Y80559D01*
X240742Y79709D01*
X240911Y78860D01*
X241392Y78140D01*
X242113Y77658D01*
X242962Y77489D01*
X243812Y77658D01*
X244532Y78140D01*
X245013Y78860D01*
X245182Y79709D01*
X245013Y80559D01*
X244532Y81279D01*
X243812Y81760D01*
X242962Y81929D01*
D02*
G37*
G36*
X218961D02*
X218112Y81760D01*
X217392Y81279D01*
X216911Y80559D01*
X216742Y79709D01*
X216911Y78860D01*
X217392Y78140D01*
X218112Y77658D01*
X218961Y77489D01*
X219811Y77658D01*
X220531Y78140D01*
X221012Y78860D01*
X221181Y79709D01*
X221012Y80559D01*
X220531Y81279D01*
X219811Y81760D01*
X218961Y81929D01*
D02*
G37*
G36*
X188472D02*
X187623Y81760D01*
X186903Y81279D01*
X186422Y80559D01*
X186253Y79709D01*
X186422Y78860D01*
X186903Y78140D01*
X187623Y77658D01*
X188472Y77489D01*
X189322Y77658D01*
X190042Y78140D01*
X190523Y78860D01*
X190692Y79709D01*
X190523Y80559D01*
X190042Y81279D01*
X189322Y81760D01*
X188472Y81929D01*
D02*
G37*
G36*
X426159Y81704D02*
X425310Y81535D01*
X424590Y81054D01*
X424108Y80334D01*
X423939Y79484D01*
X424108Y78635D01*
X424590Y77915D01*
X425310Y77434D01*
X426159Y77265D01*
X427009Y77434D01*
X427729Y77915D01*
X428210Y78635D01*
X428379Y79484D01*
X428210Y80334D01*
X427729Y81054D01*
X427009Y81535D01*
X426159Y81704D01*
D02*
G37*
G36*
X474128Y81583D02*
X473278Y81414D01*
X472558Y80933D01*
X472077Y80213D01*
X471908Y79363D01*
X472077Y78514D01*
X472558Y77794D01*
X473278Y77312D01*
X474128Y77143D01*
X474977Y77312D01*
X475697Y77794D01*
X476179Y78514D01*
X476347Y79363D01*
X476179Y80213D01*
X475697Y80933D01*
X474977Y81414D01*
X474128Y81583D01*
D02*
G37*
G36*
X465892D02*
X465042Y81414D01*
X464322Y80933D01*
X463841Y80213D01*
X463672Y79363D01*
X463841Y78514D01*
X464322Y77794D01*
X465042Y77312D01*
X465892Y77143D01*
X466741Y77312D01*
X467461Y77794D01*
X467943Y78514D01*
X468112Y79363D01*
X467943Y80213D01*
X467461Y80933D01*
X466741Y81414D01*
X465892Y81583D01*
D02*
G37*
G36*
X450564Y81559D02*
X449715Y81390D01*
X448995Y80909D01*
X448514Y80189D01*
X448345Y79339D01*
X448514Y78490D01*
X448995Y77770D01*
X449715Y77289D01*
X450564Y77119D01*
X451414Y77289D01*
X452134Y77770D01*
X452615Y78490D01*
X452784Y79339D01*
X452615Y80189D01*
X452134Y80909D01*
X451414Y81390D01*
X450564Y81559D01*
D02*
G37*
G36*
X433183D02*
X432333Y81390D01*
X431613Y80909D01*
X431132Y80189D01*
X430963Y79339D01*
X431132Y78490D01*
X431613Y77770D01*
X432333Y77289D01*
X433183Y77119D01*
X434032Y77289D01*
X434752Y77770D01*
X435234Y78490D01*
X435403Y79339D01*
X435234Y80189D01*
X434752Y80909D01*
X434032Y81390D01*
X433183Y81559D01*
D02*
G37*
G36*
X114021Y81385D02*
X113172Y81216D01*
X112452Y80734D01*
X111970Y80014D01*
X111801Y79165D01*
X111970Y78315D01*
X112452Y77595D01*
X113172Y77114D01*
X114021Y76945D01*
X114871Y77114D01*
X115591Y77595D01*
X116072Y78315D01*
X116241Y79165D01*
X116072Y80014D01*
X115591Y80734D01*
X114871Y81216D01*
X114021Y81385D01*
D02*
G37*
G36*
X480667Y77282D02*
Y74059D01*
X483889D01*
X483826Y74540D01*
X483448Y75453D01*
X482845Y76238D01*
X482061Y76840D01*
X481147Y77218D01*
X480667Y77282D01*
D02*
G37*
G36*
X479667Y77282D02*
X479186Y77218D01*
X478273Y76840D01*
X477488Y76238D01*
X476886Y75453D01*
X476508Y74540D01*
X476444Y74059D01*
X479667D01*
Y77282D01*
D02*
G37*
G36*
X421612D02*
Y74059D01*
X424834D01*
X424771Y74540D01*
X424393Y75453D01*
X423791Y76238D01*
X423006Y76840D01*
X422092Y77218D01*
X421612Y77282D01*
D02*
G37*
G36*
X420612Y77282D02*
X420131Y77218D01*
X419218Y76840D01*
X418433Y76238D01*
X417831Y75453D01*
X417453Y74540D01*
X417389Y74059D01*
X420612D01*
Y77282D01*
D02*
G37*
G36*
X460982Y77282D02*
Y74059D01*
X464204D01*
X464141Y74540D01*
X463763Y75453D01*
X463161Y76238D01*
X462376Y76840D01*
X461462Y77218D01*
X460982Y77282D01*
D02*
G37*
G36*
X459982Y77282D02*
X459501Y77218D01*
X458588Y76840D01*
X457803Y76238D01*
X457201Y75453D01*
X456822Y74540D01*
X456759Y74059D01*
X459982D01*
Y77282D01*
D02*
G37*
G36*
X441297Y77282D02*
Y74059D01*
X444519D01*
X444456Y74540D01*
X444078Y75453D01*
X443475Y76238D01*
X442691Y76840D01*
X441777Y77218D01*
X441297Y77282D01*
D02*
G37*
G36*
X440297Y77282D02*
X439816Y77218D01*
X438903Y76840D01*
X438118Y76238D01*
X437516Y75453D01*
X437138Y74540D01*
X437074Y74059D01*
X440297D01*
Y77282D01*
D02*
G37*
G36*
X444519Y73059D02*
X441297D01*
Y69837D01*
X441777Y69900D01*
X442691Y70278D01*
X443475Y70880D01*
X444078Y71665D01*
X444456Y72579D01*
X444519Y73059D01*
D02*
G37*
G36*
X464204Y73059D02*
X460982D01*
Y69837D01*
X461462Y69900D01*
X462376Y70278D01*
X463161Y70880D01*
X463763Y71665D01*
X464141Y72579D01*
X464204Y73059D01*
D02*
G37*
G36*
X424834Y73059D02*
X421612D01*
Y69837D01*
X422092Y69900D01*
X423006Y70278D01*
X423791Y70880D01*
X424393Y71665D01*
X424771Y72579D01*
X424834Y73059D01*
D02*
G37*
G36*
X479667Y73059D02*
X476444D01*
X476508Y72579D01*
X476886Y71665D01*
X477488Y70880D01*
X478273Y70278D01*
X479186Y69900D01*
X479667Y69837D01*
Y73059D01*
D02*
G37*
G36*
X483889D02*
X480667D01*
Y69837D01*
X481147Y69900D01*
X482061Y70278D01*
X482845Y70880D01*
X483448Y71665D01*
X483826Y72579D01*
X483889Y73059D01*
D02*
G37*
G36*
X420612Y73059D02*
X417389D01*
X417453Y72579D01*
X417831Y71665D01*
X418433Y70880D01*
X419218Y70278D01*
X420131Y69900D01*
X420612Y69837D01*
Y73059D01*
D02*
G37*
G36*
X459982Y73059D02*
X456759D01*
X456822Y72579D01*
X457201Y71665D01*
X457803Y70880D01*
X458588Y70278D01*
X459501Y69900D01*
X459982Y69837D01*
Y73059D01*
D02*
G37*
G36*
X440297Y73059D02*
X437074D01*
X437138Y72579D01*
X437516Y71665D01*
X438118Y70880D01*
X438903Y70278D01*
X439816Y69900D01*
X440297Y69837D01*
Y73059D01*
D02*
G37*
%LPD*%
G36*
X296077Y253324D02*
X296077Y209976D01*
X281599Y209976D01*
X281599Y209976D01*
X281430Y210826D01*
X280949Y211546D01*
X280229Y212027D01*
X279380Y212196D01*
X278530Y212027D01*
X277810Y211546D01*
X277329Y210826D01*
X277160Y209976D01*
X277329Y209127D01*
X277810Y208407D01*
X278001Y208279D01*
Y197178D01*
X277810Y197049D01*
X277329Y196329D01*
X277160Y195480D01*
X277329Y194630D01*
X277810Y193910D01*
X278001Y193782D01*
X278001Y188446D01*
X277810Y188318D01*
X277329Y187598D01*
X277160Y186748D01*
X277329Y185899D01*
X277810Y185178D01*
X278001Y185050D01*
Y174273D01*
X277810Y174144D01*
X277329Y173424D01*
X277160Y172575D01*
X277329Y171725D01*
X277810Y171005D01*
X278001Y170877D01*
Y169832D01*
X245760Y169832D01*
X245760Y111965D01*
X175560Y111965D01*
X175560Y125842D01*
X216978Y125842D01*
X217081Y125862D01*
X218061D01*
X218061Y154563D01*
X231063Y154563D01*
Y157734D01*
X231063Y192552D01*
Y209976D01*
X254776Y209976D01*
X254775Y253677D01*
X295724Y253677D01*
X296077Y253324D01*
D02*
G37*
G36*
X176512Y207417D02*
X176512Y192552D01*
X230043Y192552D01*
X230043Y155621D01*
X218061Y155621D01*
X218061Y168264D01*
X217054D01*
X216978Y168279D01*
X145324Y168280D01*
X145324Y207417D01*
X176512Y207417D01*
D02*
G37*
G36*
X144289Y167260D02*
X216978Y167260D01*
X216978Y134403D01*
X216820Y134318D01*
X216478Y134187D01*
X215698Y134342D01*
X214849Y134173D01*
X214129Y133692D01*
X213648Y132972D01*
X213479Y132122D01*
X213648Y131273D01*
X214129Y130552D01*
X214849Y130071D01*
X215698Y129902D01*
X216478Y130057D01*
X216820Y129926D01*
X216978Y129841D01*
X216978Y126861D01*
X175560Y126861D01*
X175560Y151709D01*
X119532Y151709D01*
X119533Y207457D01*
X144289Y207457D01*
X144289Y167260D01*
D02*
G37*
%LPC*%
G36*
X281545Y251806D02*
X280501Y251669D01*
X279528Y251266D01*
X278692Y250624D01*
X278051Y249789D01*
X277648Y248816D01*
X277510Y247772D01*
X277648Y246727D01*
X278051Y245754D01*
X278692Y244919D01*
X279528Y244278D01*
X280501Y243875D01*
X281545Y243737D01*
X282589Y243875D01*
X283562Y244278D01*
X284398Y244919D01*
X285039Y245754D01*
X285442Y246727D01*
X285579Y247772D01*
X285442Y248816D01*
X285039Y249789D01*
X284398Y250624D01*
X283562Y251266D01*
X282589Y251669D01*
X281545Y251806D01*
D02*
G37*
G36*
X271545D02*
X270501Y251669D01*
X269528Y251266D01*
X268692Y250624D01*
X268051Y249789D01*
X267648Y248816D01*
X267510Y247772D01*
X267648Y246727D01*
X268051Y245754D01*
X268692Y244919D01*
X269528Y244278D01*
X270501Y243875D01*
X271545Y243737D01*
X272589Y243875D01*
X273562Y244278D01*
X274398Y244919D01*
X275039Y245754D01*
X275442Y246727D01*
X275579Y247772D01*
X275442Y248816D01*
X275039Y249789D01*
X274398Y250624D01*
X273562Y251266D01*
X272589Y251669D01*
X271545Y251806D01*
D02*
G37*
G36*
X258542Y230503D02*
X257692Y230334D01*
X256972Y229853D01*
X256491Y229133D01*
X256322Y228284D01*
X256491Y227434D01*
X256972Y226714D01*
X257692Y226233D01*
X258542Y226064D01*
X259391Y226233D01*
X260111Y226714D01*
X260593Y227434D01*
X260761Y228284D01*
X260593Y229133D01*
X260111Y229853D01*
X259391Y230334D01*
X258542Y230503D01*
D02*
G37*
G36*
X267765Y224401D02*
X266916Y224232D01*
X266196Y223751D01*
X265715Y223031D01*
X265546Y222181D01*
X265715Y221332D01*
X266196Y220612D01*
X266916Y220130D01*
X267765Y219961D01*
X268615Y220130D01*
X269335Y220612D01*
X269816Y221332D01*
X269985Y222181D01*
X269816Y223031D01*
X269335Y223751D01*
X268615Y224232D01*
X267765Y224401D01*
D02*
G37*
G36*
X258542Y218495D02*
X257692Y218326D01*
X256972Y217845D01*
X256491Y217125D01*
X256322Y216276D01*
X256491Y215426D01*
X256972Y214706D01*
X257692Y214225D01*
X258542Y214056D01*
X259391Y214225D01*
X260111Y214706D01*
X260593Y215426D01*
X260761Y216276D01*
X260593Y217125D01*
X260111Y217845D01*
X259391Y218326D01*
X258542Y218495D01*
D02*
G37*
G36*
X244206Y209070D02*
X243357Y208902D01*
X242637Y208420D01*
X242156Y207700D01*
X241987Y206851D01*
X242156Y206001D01*
X242637Y205281D01*
X243357Y204800D01*
X244206Y204631D01*
X245056Y204800D01*
X245776Y205281D01*
X246257Y206001D01*
X246426Y206851D01*
X246257Y207700D01*
X245776Y208420D01*
X245056Y208902D01*
X244206Y209070D01*
D02*
G37*
G36*
X270324Y204913D02*
X269475Y204744D01*
X268755Y204263D01*
X268274Y203542D01*
X268105Y202693D01*
X268274Y201844D01*
X268755Y201123D01*
X269475Y200642D01*
X270324Y200473D01*
X271174Y200642D01*
X271894Y201123D01*
X272375Y201844D01*
X272544Y202693D01*
X272375Y203542D01*
X271894Y204263D01*
X271174Y204744D01*
X270324Y204913D01*
D02*
G37*
G36*
X239025Y202846D02*
X238176Y202677D01*
X237456Y202196D01*
X236974Y201476D01*
X236805Y200626D01*
X236974Y199776D01*
X237456Y199056D01*
X238176Y198575D01*
X239025Y198406D01*
X239875Y198575D01*
X240595Y199056D01*
X241076Y199776D01*
X241245Y200626D01*
X241076Y201476D01*
X240595Y202196D01*
X239875Y202677D01*
X239025Y202846D01*
D02*
G37*
G36*
X234758Y197700D02*
X233908Y197531D01*
X233188Y197049D01*
X232707Y196329D01*
X232538Y195480D01*
X232707Y194630D01*
X233188Y193910D01*
X233908Y193429D01*
X234758Y193260D01*
X235607Y193429D01*
X236327Y193910D01*
X236808Y194630D01*
X236977Y195480D01*
X236808Y196329D01*
X236327Y197049D01*
X235607Y197531D01*
X234758Y197700D01*
D02*
G37*
G36*
X261958Y192905D02*
X261109Y192736D01*
X260389Y192255D01*
X259907Y191535D01*
X259738Y190685D01*
X259907Y189836D01*
X260389Y189115D01*
X261109Y188634D01*
X261958Y188465D01*
X262808Y188634D01*
X263528Y189115D01*
X264009Y189836D01*
X264178Y190685D01*
X264009Y191535D01*
X263528Y192255D01*
X262808Y192736D01*
X261958Y192905D01*
D02*
G37*
G36*
X274852Y181881D02*
X274003Y181712D01*
X273282Y181231D01*
X272801Y180511D01*
X272632Y179662D01*
X272801Y178812D01*
X273282Y178092D01*
X274003Y177611D01*
X274852Y177442D01*
X275701Y177611D01*
X276422Y178092D01*
X276903Y178812D01*
X277072Y179662D01*
X276903Y180511D01*
X276422Y181231D01*
X275701Y181712D01*
X274852Y181881D01*
D02*
G37*
G36*
X242962Y167610D02*
X242113Y167441D01*
X241392Y166959D01*
X240911Y166239D01*
X240742Y165390D01*
X240911Y164540D01*
X241392Y163820D01*
X242113Y163339D01*
X242962Y163170D01*
X243812Y163339D01*
X244532Y163820D01*
X245013Y164540D01*
X245182Y165390D01*
X245013Y166239D01*
X244532Y166959D01*
X243812Y167441D01*
X242962Y167610D01*
D02*
G37*
G36*
X240305Y162098D02*
X239455Y161929D01*
X238735Y161448D01*
X238254Y160728D01*
X238085Y159878D01*
X238254Y159028D01*
X238735Y158308D01*
X239455Y157827D01*
X240305Y157658D01*
X241154Y157827D01*
X241874Y158308D01*
X242355Y159028D01*
X242525Y159878D01*
X242355Y160728D01*
X241874Y161448D01*
X241154Y161929D01*
X240305Y162098D01*
D02*
G37*
G36*
X238301Y147259D02*
X237451Y147090D01*
X236731Y146609D01*
X236250Y145889D01*
X236081Y145040D01*
X236250Y144190D01*
X236731Y143470D01*
X237451Y142989D01*
X238301Y142820D01*
X239150Y142989D01*
X239871Y143470D01*
X240352Y144190D01*
X240521Y145040D01*
X240352Y145889D01*
X239871Y146609D01*
X239150Y147090D01*
X238301Y147259D01*
D02*
G37*
G36*
X233513Y134342D02*
X232664Y134173D01*
X231944Y133692D01*
X231463Y132972D01*
X231294Y132122D01*
X231463Y131273D01*
X231944Y130552D01*
X232664Y130071D01*
X233513Y129902D01*
X234363Y130071D01*
X235083Y130552D01*
X235564Y131273D01*
X235733Y132122D01*
X235564Y132972D01*
X235083Y133692D01*
X234363Y134173D01*
X233513Y134342D01*
D02*
G37*
G36*
X224627Y128476D02*
X223777Y128307D01*
X223057Y127826D01*
X222576Y127105D01*
X222407Y126256D01*
X222576Y125407D01*
X223057Y124686D01*
X223777Y124205D01*
X224627Y124036D01*
X225476Y124205D01*
X226196Y124686D01*
X226678Y125407D01*
X226847Y126256D01*
X226678Y127105D01*
X226196Y127826D01*
X225476Y128307D01*
X224627Y128476D01*
D02*
G37*
G36*
X192516Y124007D02*
X191666Y123838D01*
X190946Y123357D01*
X190465Y122637D01*
X190296Y121787D01*
X190465Y120938D01*
X190946Y120218D01*
X191666Y119737D01*
X192516Y119568D01*
X193365Y119737D01*
X194085Y120218D01*
X194567Y120938D01*
X194736Y121787D01*
X194567Y122637D01*
X194085Y123357D01*
X193365Y123838D01*
X192516Y124007D01*
D02*
G37*
G36*
X229183Y118692D02*
X228333Y118523D01*
X227613Y118042D01*
X227132Y117322D01*
X226963Y116472D01*
X227132Y115623D01*
X227613Y114903D01*
X228333Y114422D01*
X229183Y114253D01*
X230032Y114422D01*
X230752Y114903D01*
X231234Y115623D01*
X231402Y116472D01*
X231234Y117322D01*
X230752Y118042D01*
X230032Y118523D01*
X229183Y118692D01*
D02*
G37*
G36*
X180856Y118299D02*
X180006Y118130D01*
X179286Y117648D01*
X178805Y116928D01*
X178636Y116079D01*
X178805Y115229D01*
X179286Y114509D01*
X180006Y114028D01*
X180856Y113859D01*
X181705Y114028D01*
X182425Y114509D01*
X182907Y115229D01*
X183076Y116079D01*
X182907Y116928D01*
X182425Y117648D01*
X181705Y118130D01*
X180856Y118299D01*
D02*
G37*
G36*
X173695Y206822D02*
X172845Y206653D01*
X172125Y206172D01*
X171644Y205452D01*
X171475Y204602D01*
X171644Y203753D01*
X172125Y203033D01*
X172845Y202552D01*
X173695Y202383D01*
X174544Y202552D01*
X175264Y203033D01*
X175745Y203753D01*
X175914Y204602D01*
X175745Y205452D01*
X175264Y206172D01*
X174544Y206653D01*
X173695Y206822D01*
D02*
G37*
G36*
X154281Y205503D02*
X153432Y205334D01*
X152711Y204853D01*
X152230Y204133D01*
X152061Y203284D01*
X152230Y202434D01*
X152711Y201714D01*
X153432Y201233D01*
X154281Y201064D01*
X155131Y201233D01*
X155851Y201714D01*
X156332Y202434D01*
X156501Y203284D01*
X156332Y204133D01*
X155851Y204853D01*
X155131Y205334D01*
X154281Y205503D01*
D02*
G37*
G36*
X167828Y203165D02*
X166979Y202996D01*
X166259Y202515D01*
X165778Y201795D01*
X165609Y200945D01*
X165778Y200096D01*
X166259Y199375D01*
X166979Y198894D01*
X167828Y198725D01*
X168678Y198894D01*
X169398Y199375D01*
X169879Y200096D01*
X170048Y200945D01*
X169879Y201795D01*
X169398Y202515D01*
X168678Y202996D01*
X167828Y203165D01*
D02*
G37*
G36*
Y192708D02*
X166979Y192539D01*
X166259Y192058D01*
X165778Y191338D01*
X165609Y190488D01*
X165778Y189639D01*
X166259Y188919D01*
X166979Y188437D01*
X167828Y188268D01*
X168678Y188437D01*
X169398Y188919D01*
X169879Y189639D01*
X170048Y190488D01*
X169879Y191338D01*
X169398Y192058D01*
X168678Y192539D01*
X167828Y192708D01*
D02*
G37*
G36*
X148868Y190149D02*
X148018Y189980D01*
X147298Y189499D01*
X146817Y188779D01*
X146648Y187929D01*
X146817Y187080D01*
X147298Y186360D01*
X148018Y185878D01*
X148868Y185709D01*
X149717Y185878D01*
X150437Y186360D01*
X150918Y187080D01*
X151087Y187929D01*
X150918Y188779D01*
X150437Y189499D01*
X149717Y189980D01*
X148868Y190149D01*
D02*
G37*
G36*
X188382Y189854D02*
X187532Y189685D01*
X186812Y189204D01*
X186331Y188483D01*
X186162Y187634D01*
X186331Y186784D01*
X186812Y186064D01*
X187532Y185583D01*
X188382Y185414D01*
X189231Y185583D01*
X189952Y186064D01*
X190433Y186784D01*
X190602Y187634D01*
X190433Y188483D01*
X189952Y189204D01*
X189231Y189685D01*
X188382Y189854D01*
D02*
G37*
G36*
X203635Y185621D02*
X202786Y185452D01*
X202066Y184971D01*
X201585Y184251D01*
X201416Y183402D01*
X201585Y182552D01*
X202066Y181832D01*
X202786Y181351D01*
X203635Y181182D01*
X204485Y181351D01*
X205205Y181832D01*
X205686Y182552D01*
X205855Y183402D01*
X205686Y184251D01*
X205205Y184971D01*
X204485Y185452D01*
X203635Y185621D01*
D02*
G37*
G36*
X188472Y184834D02*
X187623Y184665D01*
X186903Y184184D01*
X186422Y183464D01*
X186253Y182614D01*
X186422Y181765D01*
X186903Y181045D01*
X187623Y180563D01*
X188472Y180394D01*
X189322Y180563D01*
X190042Y181045D01*
X190523Y181765D01*
X190692Y182614D01*
X190523Y183464D01*
X190042Y184184D01*
X189322Y184665D01*
X188472Y184834D01*
D02*
G37*
G36*
X174711Y180823D02*
X173861Y180654D01*
X173141Y180172D01*
X172660Y179452D01*
X172491Y178603D01*
X172660Y177753D01*
X173141Y177033D01*
X173861Y176552D01*
X174711Y176383D01*
X175560Y176552D01*
X176280Y177033D01*
X176761Y177753D01*
X176930Y178603D01*
X176761Y179452D01*
X176280Y180172D01*
X175560Y180654D01*
X174711Y180823D01*
D02*
G37*
G36*
X213041Y179519D02*
X212191Y179350D01*
X211471Y178869D01*
X210990Y178149D01*
X210821Y177299D01*
X210990Y176450D01*
X211471Y175730D01*
X212191Y175248D01*
X213041Y175080D01*
X213890Y175248D01*
X214611Y175730D01*
X215092Y176450D01*
X215261Y177299D01*
X215092Y178149D01*
X214611Y178869D01*
X213890Y179350D01*
X213041Y179519D01*
D02*
G37*
G36*
X156840Y174793D02*
X155990Y174624D01*
X155270Y174143D01*
X154789Y173423D01*
X154620Y172573D01*
X154789Y171724D01*
X155270Y171004D01*
X155990Y170523D01*
X156840Y170354D01*
X157689Y170523D01*
X158409Y171004D01*
X158890Y171724D01*
X159059Y172573D01*
X158890Y173423D01*
X158409Y174143D01*
X157689Y174624D01*
X156840Y174793D01*
D02*
G37*
G36*
X203635Y173614D02*
X202786Y173445D01*
X202066Y172963D01*
X201585Y172243D01*
X201416Y171394D01*
X201585Y170544D01*
X202066Y169824D01*
X202786Y169343D01*
X203635Y169174D01*
X204485Y169343D01*
X205205Y169824D01*
X205686Y170544D01*
X205855Y171394D01*
X205686Y172243D01*
X205205Y172963D01*
X204485Y173445D01*
X203635Y173614D01*
D02*
G37*
G36*
X188874Y173281D02*
X188024Y173111D01*
X187304Y172630D01*
X186823Y171910D01*
X186654Y171061D01*
X186823Y170211D01*
X187304Y169491D01*
X188024Y169010D01*
X188874Y168841D01*
X189724Y169010D01*
X190444Y169491D01*
X190925Y170211D01*
X191094Y171061D01*
X190925Y171910D01*
X190444Y172630D01*
X189724Y173111D01*
X188874Y173281D01*
D02*
G37*
G36*
X125593Y200779D02*
X124743Y200610D01*
X124023Y200129D01*
X123542Y199409D01*
X123373Y198559D01*
X123542Y197710D01*
X124023Y196990D01*
X124743Y196508D01*
X125593Y196339D01*
X126442Y196508D01*
X127163Y196990D01*
X127644Y197710D01*
X127813Y198559D01*
X127644Y199409D01*
X127163Y200129D01*
X126442Y200610D01*
X125593Y200779D01*
D02*
G37*
G36*
X135154Y187660D02*
X134305Y187491D01*
X133585Y187010D01*
X133104Y186290D01*
X132934Y185440D01*
X133104Y184591D01*
X133585Y183871D01*
X134305Y183390D01*
X135154Y183221D01*
X136004Y183390D01*
X136724Y183871D01*
X137205Y184591D01*
X137374Y185440D01*
X137205Y186290D01*
X136724Y187010D01*
X136004Y187491D01*
X135154Y187660D01*
D02*
G37*
G36*
X124156Y180429D02*
X123307Y180260D01*
X122586Y179779D01*
X122105Y179058D01*
X121936Y178209D01*
X122105Y177359D01*
X122586Y176639D01*
X123307Y176158D01*
X124156Y175989D01*
X125005Y176158D01*
X125726Y176639D01*
X126207Y177359D01*
X126376Y178209D01*
X126207Y179058D01*
X125726Y179779D01*
X125005Y180260D01*
X124156Y180429D01*
D02*
G37*
G36*
X139947Y171687D02*
X139098Y171518D01*
X138378Y171037D01*
X137897Y170317D01*
X137727Y169467D01*
X137897Y168618D01*
X138378Y167897D01*
X139098Y167416D01*
X139947Y167247D01*
X140797Y167416D01*
X141517Y167897D01*
X141998Y168618D01*
X142167Y169467D01*
X141998Y170317D01*
X141517Y171037D01*
X140797Y171518D01*
X139947Y171687D01*
D02*
G37*
G36*
X158218Y165074D02*
X157368Y164905D01*
X156648Y164424D01*
X156167Y163704D01*
X155998Y162855D01*
X156167Y162005D01*
X156648Y161285D01*
X157368Y160804D01*
X158218Y160635D01*
X159067Y160804D01*
X159787Y161285D01*
X160268Y162005D01*
X160437Y162855D01*
X160268Y163704D01*
X159787Y164424D01*
X159067Y164905D01*
X158218Y165074D01*
D02*
G37*
G36*
X189850Y164908D02*
X189001Y164739D01*
X188280Y164257D01*
X187799Y163537D01*
X187630Y162688D01*
X187799Y161838D01*
X188280Y161118D01*
X189001Y160637D01*
X189850Y160468D01*
X190700Y160637D01*
X191420Y161118D01*
X191901Y161838D01*
X192070Y162688D01*
X191901Y163537D01*
X191420Y164257D01*
X190700Y164739D01*
X189850Y164908D01*
D02*
G37*
G36*
X122687Y163870D02*
X121837Y163700D01*
X121117Y163219D01*
X120636Y162499D01*
X120467Y161650D01*
X120636Y160800D01*
X121117Y160080D01*
X121837Y159599D01*
X122687Y159430D01*
X123536Y159599D01*
X124256Y160080D01*
X124737Y160800D01*
X124906Y161650D01*
X124737Y162499D01*
X124256Y163219D01*
X123536Y163700D01*
X122687Y163870D01*
D02*
G37*
G36*
X198651Y162688D02*
X197802Y162519D01*
X197081Y162038D01*
X196600Y161318D01*
X196431Y160469D01*
X196600Y159619D01*
X197081Y158899D01*
X197802Y158418D01*
X198651Y158249D01*
X199501Y158418D01*
X200221Y158899D01*
X200702Y159619D01*
X200871Y160469D01*
X200702Y161318D01*
X200221Y162038D01*
X199501Y162519D01*
X198651Y162688D01*
D02*
G37*
G36*
X141521Y160921D02*
X140671Y160752D01*
X139951Y160271D01*
X139470Y159550D01*
X139301Y158701D01*
X139470Y157852D01*
X139951Y157131D01*
X140671Y156650D01*
X141521Y156481D01*
X142370Y156650D01*
X143090Y157131D01*
X143571Y157852D01*
X143740Y158701D01*
X143571Y159550D01*
X143090Y160271D01*
X142370Y160752D01*
X141521Y160921D01*
D02*
G37*
G36*
X157431Y159329D02*
X156581Y159160D01*
X155861Y158679D01*
X155380Y157959D01*
X155211Y157109D01*
X155380Y156260D01*
X155861Y155540D01*
X156581Y155059D01*
X157431Y154890D01*
X158280Y155059D01*
X159000Y155540D01*
X159482Y156260D01*
X159651Y157109D01*
X159482Y157959D01*
X159000Y158679D01*
X158280Y159160D01*
X157431Y159329D01*
D02*
G37*
G36*
X183559Y158653D02*
X182710Y158484D01*
X181989Y158003D01*
X181508Y157283D01*
X181339Y156433D01*
X181508Y155584D01*
X181989Y154864D01*
X182710Y154382D01*
X183559Y154213D01*
X184408Y154382D01*
X185129Y154864D01*
X185610Y155584D01*
X185779Y156433D01*
X185610Y157283D01*
X185129Y158003D01*
X184408Y158484D01*
X183559Y158653D01*
D02*
G37*
G36*
X204773Y157840D02*
X203924Y157671D01*
X203204Y157190D01*
X202722Y156470D01*
X202553Y155621D01*
X202722Y154771D01*
X203204Y154051D01*
X203924Y153570D01*
X204773Y153401D01*
X205623Y153570D01*
X206343Y154051D01*
X206824Y154771D01*
X206993Y155621D01*
X206824Y156470D01*
X206343Y157190D01*
X205623Y157671D01*
X204773Y157840D01*
D02*
G37*
G36*
X183415Y147826D02*
X182565Y147657D01*
X181845Y147176D01*
X181364Y146456D01*
X181195Y145606D01*
X181364Y144757D01*
X181845Y144037D01*
X182565Y143555D01*
X183415Y143387D01*
X184264Y143555D01*
X184985Y144037D01*
X185466Y144757D01*
X185635Y145606D01*
X185466Y146456D01*
X184985Y147176D01*
X184264Y147657D01*
X183415Y147826D01*
D02*
G37*
G36*
X212317Y143179D02*
X211467Y143010D01*
X210747Y142529D01*
X210266Y141809D01*
X210097Y140959D01*
X210266Y140110D01*
X210747Y139390D01*
X211467Y138909D01*
X212317Y138740D01*
X213166Y138909D01*
X213886Y139390D01*
X214367Y140110D01*
X214536Y140959D01*
X214367Y141809D01*
X213886Y142529D01*
X213166Y143010D01*
X212317Y143179D01*
D02*
G37*
G36*
X195433D02*
X194584Y143010D01*
X193863Y142529D01*
X193382Y141809D01*
X193213Y140959D01*
X193382Y140110D01*
X193863Y139390D01*
X194584Y138909D01*
X195433Y138740D01*
X196283Y138909D01*
X197003Y139390D01*
X197484Y140110D01*
X197653Y140959D01*
X197484Y141809D01*
X197003Y142529D01*
X196283Y143010D01*
X195433Y143179D01*
D02*
G37*
G36*
X180265Y142610D02*
X179416Y142441D01*
X178696Y141960D01*
X178215Y141239D01*
X178045Y140390D01*
X178215Y139540D01*
X178696Y138820D01*
X179416Y138339D01*
X180265Y138170D01*
X181115Y138339D01*
X181835Y138820D01*
X182316Y139540D01*
X182485Y140390D01*
X182316Y141239D01*
X181835Y141960D01*
X181115Y142441D01*
X180265Y142610D01*
D02*
G37*
G36*
X453592Y330887D02*
X452714Y330772D01*
X451896Y330433D01*
X451194Y329894D01*
X450655Y329192D01*
X450316Y328374D01*
X450201Y327496D01*
X450316Y326618D01*
X450655Y325800D01*
X451194Y325098D01*
X451896Y324559D01*
X452714Y324220D01*
X453592Y324105D01*
X454470Y324220D01*
X455288Y324559D01*
X455990Y325098D01*
X456529Y325800D01*
X456868Y326618D01*
X456983Y327496D01*
X456868Y328374D01*
X456529Y329192D01*
X455990Y329894D01*
X455288Y330433D01*
X454470Y330772D01*
X453592Y330887D01*
D02*
G37*
G36*
X410285D02*
X409407Y330772D01*
X408589Y330433D01*
X407887Y329894D01*
X407348Y329192D01*
X407009Y328374D01*
X406894Y327496D01*
X407009Y326618D01*
X407348Y325800D01*
X407887Y325098D01*
X408589Y324559D01*
X409407Y324220D01*
X410285Y324105D01*
X411163Y324220D01*
X411981Y324559D01*
X412683Y325098D01*
X413222Y325800D01*
X413561Y326618D01*
X413676Y327496D01*
X413561Y328374D01*
X413222Y329192D01*
X412683Y329894D01*
X411981Y330433D01*
X411163Y330772D01*
X410285Y330887D01*
D02*
G37*
G36*
X466584Y327402D02*
X465080Y327204D01*
X463679Y326624D01*
X462475Y325700D01*
X461551Y324496D01*
X460971Y323095D01*
X460773Y321591D01*
X460971Y320087D01*
X461551Y318685D01*
X462475Y317481D01*
X463679Y316558D01*
X465080Y315977D01*
X466584Y315779D01*
X468088Y315977D01*
X469490Y316558D01*
X470694Y317481D01*
X471617Y318685D01*
X472198Y320087D01*
X472396Y321591D01*
X472198Y323095D01*
X471617Y324496D01*
X470694Y325700D01*
X469490Y326624D01*
X468088Y327204D01*
X466584Y327402D01*
D02*
G37*
G36*
X440600D02*
X439096Y327204D01*
X437694Y326624D01*
X436491Y325700D01*
X435567Y324496D01*
X434986Y323095D01*
X434789Y321591D01*
X434986Y320087D01*
X435567Y318685D01*
X436491Y317481D01*
X437694Y316558D01*
X439096Y315977D01*
X440600Y315779D01*
X442104Y315977D01*
X443506Y316558D01*
X444709Y317481D01*
X445633Y318685D01*
X446213Y320087D01*
X446412Y321591D01*
X446213Y323095D01*
X445633Y324496D01*
X444709Y325700D01*
X443506Y326624D01*
X442104Y327204D01*
X440600Y327402D01*
D02*
G37*
G36*
X423277D02*
X421773Y327204D01*
X420371Y326624D01*
X419168Y325700D01*
X418244Y324496D01*
X417664Y323095D01*
X417466Y321591D01*
X417664Y320087D01*
X418244Y318685D01*
X419168Y317481D01*
X420371Y316558D01*
X421773Y315977D01*
X423277Y315779D01*
X424781Y315977D01*
X426183Y316558D01*
X427387Y317481D01*
X428310Y318685D01*
X428891Y320087D01*
X429089Y321591D01*
X428891Y323095D01*
X428310Y324496D01*
X427387Y325700D01*
X426183Y326624D01*
X424781Y327204D01*
X423277Y327402D01*
D02*
G37*
G36*
X397293D02*
X395789Y327204D01*
X394387Y326624D01*
X393183Y325700D01*
X392260Y324496D01*
X391679Y323095D01*
X391481Y321591D01*
X391679Y320087D01*
X392260Y318685D01*
X393183Y317481D01*
X394387Y316558D01*
X395789Y315977D01*
X397293Y315779D01*
X398797Y315977D01*
X400199Y316558D01*
X401402Y317481D01*
X402326Y318685D01*
X402906Y320087D01*
X403104Y321591D01*
X402906Y323095D01*
X402326Y324496D01*
X401402Y325700D01*
X400199Y326624D01*
X398797Y327204D01*
X397293Y327402D01*
D02*
G37*
G36*
X186376Y319616D02*
Y315004D01*
X190988D01*
X190877Y315844D01*
X190360Y317093D01*
X189537Y318166D01*
X188465Y318988D01*
X187216Y319506D01*
X186376Y319616D01*
D02*
G37*
G36*
X185376D02*
X184535Y319506D01*
X183286Y318988D01*
X182214Y318166D01*
X181391Y317093D01*
X180874Y315844D01*
X180763Y315004D01*
X185376D01*
Y319616D01*
D02*
G37*
G36*
X103245D02*
Y315004D01*
X107858D01*
X107747Y315844D01*
X107230Y317093D01*
X106407Y318166D01*
X105335Y318988D01*
X104086Y319506D01*
X103245Y319616D01*
D02*
G37*
G36*
X102245D02*
X101405Y319506D01*
X100156Y318988D01*
X99084Y318166D01*
X98261Y317093D01*
X97744Y315844D01*
X97633Y315004D01*
X102245D01*
Y319616D01*
D02*
G37*
G36*
X303580D02*
Y315004D01*
X308192D01*
X308082Y315844D01*
X307564Y317093D01*
X306741Y318166D01*
X305669Y318988D01*
X304420Y319506D01*
X303580Y319616D01*
D02*
G37*
G36*
X302580Y319617D02*
X301740Y319506D01*
X300491Y318988D01*
X299418Y318166D01*
X298595Y317093D01*
X298078Y315844D01*
X297968Y315004D01*
X302580D01*
Y319617D01*
D02*
G37*
G36*
X308192Y314004D02*
X303580D01*
Y309391D01*
X304420Y309502D01*
X305669Y310019D01*
X306741Y310842D01*
X307564Y311915D01*
X308082Y313164D01*
X308192Y314004D01*
D02*
G37*
G36*
X107858Y314004D02*
X103245D01*
Y309391D01*
X104086Y309502D01*
X105335Y310019D01*
X106407Y310842D01*
X107230Y311915D01*
X107747Y313164D01*
X107858Y314004D01*
D02*
G37*
G36*
X185376Y314004D02*
X180763D01*
X180874Y313164D01*
X181391Y311915D01*
X182214Y310842D01*
X183286Y310019D01*
X184535Y309502D01*
X185376Y309391D01*
Y314004D01*
D02*
G37*
G36*
X190988D02*
X186376D01*
Y309391D01*
X187216Y309502D01*
X188465Y310019D01*
X189537Y310842D01*
X190360Y311915D01*
X190877Y313164D01*
X190988Y314004D01*
D02*
G37*
G36*
X102245Y314004D02*
X97633D01*
X97744Y313164D01*
X98261Y311915D01*
X99084Y310842D01*
X100156Y310019D01*
X101405Y309502D01*
X102245Y309391D01*
Y314004D01*
D02*
G37*
G36*
X302580Y314004D02*
X297968D01*
X298078Y313164D01*
X298595Y311915D01*
X299418Y310842D01*
X300491Y310019D01*
X301740Y309502D01*
X302580Y309391D01*
Y314004D01*
D02*
G37*
G36*
X366978Y319682D02*
X365638Y319506D01*
X364389Y318988D01*
X363316Y318166D01*
X362493Y317093D01*
X361976Y315844D01*
X361800Y314504D01*
X361976Y313164D01*
X362493Y311915D01*
X363316Y310842D01*
X364389Y310019D01*
X365638Y309502D01*
X366978Y309326D01*
X368318Y309502D01*
X369567Y310019D01*
X370639Y310842D01*
X371462Y311915D01*
X371980Y313164D01*
X372156Y314504D01*
X371980Y315844D01*
X371462Y317093D01*
X370639Y318166D01*
X369567Y318988D01*
X368318Y319506D01*
X366978Y319682D01*
D02*
G37*
G36*
X249774D02*
X248433Y319506D01*
X247184Y318988D01*
X246112Y318166D01*
X245289Y317093D01*
X244772Y315844D01*
X244595Y314504D01*
X244772Y313164D01*
X245289Y311915D01*
X246112Y310842D01*
X247184Y310019D01*
X248433Y309502D01*
X249774Y309326D01*
X251114Y309502D01*
X252363Y310019D01*
X253435Y310842D01*
X254258Y311915D01*
X254775Y313164D01*
X254952Y314504D01*
X254775Y315844D01*
X254258Y317093D01*
X253435Y318166D01*
X252363Y318988D01*
X251114Y319506D01*
X249774Y319682D01*
D02*
G37*
G36*
X166644D02*
X165303Y319506D01*
X164054Y318988D01*
X162982Y318166D01*
X162159Y317093D01*
X161642Y315844D01*
X161465Y314504D01*
X161642Y313164D01*
X162159Y311915D01*
X162982Y310842D01*
X164054Y310019D01*
X165303Y309502D01*
X166644Y309326D01*
X167984Y309502D01*
X169233Y310019D01*
X170305Y310842D01*
X171128Y311915D01*
X171645Y313164D01*
X171822Y314504D01*
X171645Y315844D01*
X171128Y317093D01*
X170305Y318166D01*
X169233Y318988D01*
X167984Y319506D01*
X166644Y319682D01*
D02*
G37*
G36*
X249774Y294682D02*
X248433Y294506D01*
X247184Y293988D01*
X246112Y293166D01*
X245289Y292093D01*
X244772Y290844D01*
X244595Y289504D01*
X244772Y288164D01*
X245289Y286915D01*
X246112Y285842D01*
X247184Y285019D01*
X248433Y284502D01*
X249774Y284326D01*
X251114Y284502D01*
X252363Y285019D01*
X253435Y285842D01*
X254258Y286915D01*
X254775Y288164D01*
X254952Y289504D01*
X254775Y290844D01*
X254258Y292093D01*
X253435Y293166D01*
X252363Y293988D01*
X251114Y294506D01*
X249774Y294682D01*
D02*
G37*
G36*
X185876D02*
X184535Y294506D01*
X183286Y293988D01*
X182214Y293166D01*
X181391Y292093D01*
X180874Y290844D01*
X180697Y289504D01*
X180874Y288164D01*
X181391Y286915D01*
X182214Y285842D01*
X183286Y285019D01*
X184535Y284502D01*
X185876Y284326D01*
X187216Y284502D01*
X188465Y285019D01*
X189537Y285842D01*
X190360Y286915D01*
X190877Y288164D01*
X191054Y289504D01*
X190877Y290844D01*
X190360Y292093D01*
X189537Y293166D01*
X188465Y293988D01*
X187216Y294506D01*
X185876Y294682D01*
D02*
G37*
G36*
X166644D02*
X165303Y294506D01*
X164054Y293988D01*
X162982Y293166D01*
X162159Y292093D01*
X161642Y290844D01*
X161465Y289504D01*
X161642Y288164D01*
X162159Y286915D01*
X162982Y285842D01*
X164054Y285019D01*
X165303Y284502D01*
X166644Y284326D01*
X167984Y284502D01*
X169233Y285019D01*
X170305Y285842D01*
X171128Y286915D01*
X171645Y288164D01*
X171822Y289504D01*
X171645Y290844D01*
X171128Y292093D01*
X170305Y293166D01*
X169233Y293988D01*
X167984Y294506D01*
X166644Y294682D01*
D02*
G37*
G36*
X102745D02*
X101405Y294506D01*
X100156Y293988D01*
X99084Y293166D01*
X98261Y292093D01*
X97744Y290844D01*
X97567Y289504D01*
X97744Y288164D01*
X98261Y286915D01*
X99084Y285842D01*
X100156Y285019D01*
X101405Y284502D01*
X102745Y284326D01*
X104086Y284502D01*
X105335Y285019D01*
X106407Y285842D01*
X107230Y286915D01*
X107747Y288164D01*
X107924Y289504D01*
X107747Y290844D01*
X107230Y292093D01*
X106407Y293166D01*
X105335Y293988D01*
X104086Y294506D01*
X102745Y294682D01*
D02*
G37*
G36*
X501978Y267308D02*
X500997Y267179D01*
X500084Y266800D01*
X499299Y266198D01*
X498697Y265414D01*
X498319Y264500D01*
X498190Y263520D01*
X498319Y262539D01*
X498697Y261626D01*
X499299Y260841D01*
X500084Y260239D01*
X500997Y259860D01*
X501978Y259731D01*
X502958Y259860D01*
X503872Y260239D01*
X504657Y260841D01*
X505259Y261626D01*
X505637Y262539D01*
X505766Y263520D01*
X505637Y264500D01*
X505259Y265414D01*
X504657Y266198D01*
X503872Y266800D01*
X502958Y267179D01*
X501978Y267308D01*
D02*
G37*
G36*
X501978Y247623D02*
X500997Y247494D01*
X500084Y247115D01*
X499299Y246513D01*
X498697Y245729D01*
X498319Y244815D01*
X498190Y243835D01*
X498319Y242854D01*
X498697Y241940D01*
X499299Y241156D01*
X500084Y240554D01*
X500997Y240176D01*
X501978Y240046D01*
X502958Y240176D01*
X503872Y240554D01*
X504657Y241156D01*
X505259Y241940D01*
X505637Y242854D01*
X505766Y243835D01*
X505637Y244815D01*
X505259Y245729D01*
X504657Y246513D01*
X503872Y247115D01*
X502958Y247494D01*
X501978Y247623D01*
D02*
G37*
G36*
X501978Y227938D02*
X500997Y227809D01*
X500084Y227430D01*
X499299Y226828D01*
X498697Y226044D01*
X498319Y225130D01*
X498190Y224150D01*
X498319Y223169D01*
X498697Y222255D01*
X499299Y221471D01*
X500084Y220869D01*
X500997Y220490D01*
X501978Y220361D01*
X502958Y220490D01*
X503872Y220869D01*
X504657Y221471D01*
X505259Y222255D01*
X505637Y223169D01*
X505766Y224150D01*
X505637Y225130D01*
X505259Y226044D01*
X504657Y226828D01*
X503872Y227430D01*
X502958Y227809D01*
X501978Y227938D01*
D02*
G37*
G36*
X501978Y208253D02*
X500997Y208124D01*
X500084Y207745D01*
X499299Y207143D01*
X498697Y206359D01*
X498319Y205445D01*
X498190Y204465D01*
X498319Y203484D01*
X498697Y202571D01*
X499299Y201786D01*
X500084Y201184D01*
X500997Y200805D01*
X501978Y200676D01*
X502958Y200805D01*
X503872Y201184D01*
X504657Y201786D01*
X505259Y202571D01*
X505637Y203484D01*
X505766Y204465D01*
X505637Y205445D01*
X505259Y206359D01*
X504657Y207143D01*
X503872Y207745D01*
X502958Y208124D01*
X501978Y208253D01*
D02*
G37*
G36*
X215273Y73394D02*
Y69925D01*
X218742D01*
X218670Y70469D01*
X218267Y71443D01*
X217626Y72278D01*
X216791Y72919D01*
X215817Y73322D01*
X215273Y73394D01*
D02*
G37*
G36*
X214273Y73394D02*
X213729Y73322D01*
X212756Y72919D01*
X211920Y72278D01*
X211279Y71443D01*
X210876Y70469D01*
X210805Y69925D01*
X214273D01*
Y73394D01*
D02*
G37*
G36*
X155549Y73394D02*
Y69925D01*
X159018D01*
X158946Y70469D01*
X158543Y71443D01*
X157902Y72278D01*
X157066Y72919D01*
X156093Y73322D01*
X155549Y73394D01*
D02*
G37*
G36*
X154549Y73394D02*
X154005Y73322D01*
X153032Y72919D01*
X152196Y72278D01*
X151555Y71443D01*
X151152Y70469D01*
X151080Y69925D01*
X154549D01*
Y73394D01*
D02*
G37*
G36*
X332438Y73295D02*
Y69827D01*
X335907D01*
X335836Y70371D01*
X335433Y71344D01*
X334791Y72180D01*
X333956Y72821D01*
X332983Y73224D01*
X332438Y73295D01*
D02*
G37*
G36*
X331438Y73295D02*
X330894Y73224D01*
X329921Y72821D01*
X329086Y72180D01*
X328445Y71344D01*
X328042Y70371D01*
X327970Y69827D01*
X331438D01*
Y73295D01*
D02*
G37*
G36*
X401710Y73295D02*
Y69827D01*
X405179D01*
X405107Y70371D01*
X404704Y71344D01*
X404063Y72180D01*
X403227Y72821D01*
X402254Y73224D01*
X401710Y73295D01*
D02*
G37*
G36*
X400710Y73295D02*
X400166Y73224D01*
X399193Y72821D01*
X398357Y72180D01*
X397716Y71344D01*
X397313Y70371D01*
X397241Y69827D01*
X400710D01*
Y73295D01*
D02*
G37*
G36*
X89860Y69350D02*
Y65579D01*
X93631D01*
X93549Y66201D01*
X93116Y67247D01*
X92427Y68146D01*
X91528Y68835D01*
X90482Y69268D01*
X89860Y69350D01*
D02*
G37*
G36*
X88860D02*
X88237Y69268D01*
X87191Y68835D01*
X86293Y68146D01*
X85604Y67247D01*
X85171Y66201D01*
X85088Y65579D01*
X88860D01*
Y69350D01*
D02*
G37*
G36*
X260313Y69267D02*
Y65496D01*
X264084D01*
X264002Y66119D01*
X263569Y67165D01*
X262879Y68063D01*
X261981Y68752D01*
X260935Y69185D01*
X260313Y69267D01*
D02*
G37*
G36*
X259313D02*
X258690Y69185D01*
X257644Y68752D01*
X256746Y68063D01*
X256057Y67165D01*
X255623Y66119D01*
X255541Y65496D01*
X259313D01*
Y69267D01*
D02*
G37*
G36*
X159018Y68925D02*
X155549D01*
Y65457D01*
X156093Y65528D01*
X157066Y65931D01*
X157902Y66572D01*
X158543Y67408D01*
X158946Y68381D01*
X159018Y68925D01*
D02*
G37*
G36*
X218742Y68925D02*
X215273D01*
Y65457D01*
X215817Y65528D01*
X216791Y65931D01*
X217626Y66572D01*
X218267Y67408D01*
X218670Y68381D01*
X218742Y68925D01*
D02*
G37*
G36*
X214273D02*
X210805D01*
X210876Y68381D01*
X211279Y67408D01*
X211920Y66572D01*
X212756Y65931D01*
X213729Y65528D01*
X214273Y65457D01*
Y68925D01*
D02*
G37*
G36*
X154549Y68925D02*
X151080D01*
X151152Y68381D01*
X151555Y67408D01*
X152196Y66572D01*
X153032Y65931D01*
X154005Y65528D01*
X154549Y65457D01*
Y68925D01*
D02*
G37*
G36*
X204773Y73460D02*
X203729Y73322D01*
X202756Y72919D01*
X201920Y72278D01*
X201279Y71443D01*
X200876Y70469D01*
X200739Y69425D01*
X200876Y68381D01*
X201279Y67408D01*
X201920Y66572D01*
X202756Y65931D01*
X203729Y65528D01*
X204773Y65391D01*
X205817Y65528D01*
X206790Y65931D01*
X207626Y66572D01*
X208267Y67408D01*
X208670Y68381D01*
X208808Y69425D01*
X208670Y70469D01*
X208267Y71443D01*
X207626Y72278D01*
X206790Y72919D01*
X205817Y73322D01*
X204773Y73460D01*
D02*
G37*
G36*
X145049D02*
X144005Y73322D01*
X143032Y72919D01*
X142196Y72278D01*
X141555Y71443D01*
X141152Y70469D01*
X141014Y69425D01*
X141152Y68381D01*
X141555Y67408D01*
X142196Y66572D01*
X143032Y65931D01*
X144005Y65528D01*
X145049Y65391D01*
X146093Y65528D01*
X147066Y65931D01*
X147902Y66572D01*
X148543Y67408D01*
X148946Y68381D01*
X149083Y69425D01*
X148946Y70469D01*
X148543Y71443D01*
X147902Y72278D01*
X147066Y72919D01*
X146093Y73322D01*
X145049Y73460D01*
D02*
G37*
G36*
X331438Y68827D02*
X327970D01*
X328042Y68283D01*
X328445Y67309D01*
X329086Y66474D01*
X329921Y65833D01*
X330894Y65430D01*
X331438Y65358D01*
Y68827D01*
D02*
G37*
G36*
X400710Y68827D02*
X397241D01*
X397313Y68283D01*
X397716Y67309D01*
X398357Y66474D01*
X399193Y65833D01*
X400166Y65430D01*
X400710Y65358D01*
Y68827D01*
D02*
G37*
G36*
X405179D02*
X401710D01*
Y65358D01*
X402254Y65430D01*
X403227Y65833D01*
X404063Y66474D01*
X404704Y67309D01*
X405107Y68283D01*
X405179Y68827D01*
D02*
G37*
G36*
X335907Y68827D02*
X332438D01*
Y65358D01*
X332983Y65430D01*
X333956Y65833D01*
X334791Y66474D01*
X335433Y67309D01*
X335836Y68283D01*
X335907Y68827D01*
D02*
G37*
G36*
X391210Y73361D02*
X390166Y73224D01*
X389193Y72821D01*
X388357Y72180D01*
X387716Y71344D01*
X387313Y70371D01*
X387176Y69327D01*
X387313Y68283D01*
X387716Y67309D01*
X388357Y66474D01*
X389193Y65833D01*
X390166Y65430D01*
X391210Y65292D01*
X392254Y65430D01*
X393227Y65833D01*
X394063Y66474D01*
X394704Y67309D01*
X395107Y68283D01*
X395245Y69327D01*
X395107Y70371D01*
X394704Y71344D01*
X394063Y72180D01*
X393227Y72821D01*
X392254Y73224D01*
X391210Y73361D01*
D02*
G37*
G36*
X341938D02*
X340894Y73224D01*
X339921Y72821D01*
X339086Y72180D01*
X338444Y71344D01*
X338041Y70371D01*
X337904Y69327D01*
X338041Y68283D01*
X338444Y67309D01*
X339086Y66474D01*
X339921Y65833D01*
X340894Y65430D01*
X341938Y65292D01*
X342983Y65430D01*
X343956Y65833D01*
X344791Y66474D01*
X345432Y67309D01*
X345836Y68283D01*
X345973Y69327D01*
X345836Y70371D01*
X345432Y71344D01*
X344791Y72180D01*
X343956Y72821D01*
X342983Y73224D01*
X341938Y73361D01*
D02*
G37*
G36*
X93631Y64579D02*
X89860D01*
Y60808D01*
X90482Y60890D01*
X91528Y61323D01*
X92427Y62012D01*
X93116Y62910D01*
X93549Y63956D01*
X93631Y64579D01*
D02*
G37*
G36*
X88860D02*
X85088D01*
X85171Y63956D01*
X85604Y62910D01*
X86293Y62012D01*
X87191Y61323D01*
X88237Y60890D01*
X88860Y60808D01*
Y64579D01*
D02*
G37*
G36*
X119360Y69416D02*
X118237Y69268D01*
X117191Y68835D01*
X116293Y68146D01*
X115604Y67247D01*
X115171Y66201D01*
X115023Y65079D01*
X115171Y63956D01*
X115604Y62910D01*
X116293Y62012D01*
X117191Y61323D01*
X118237Y60890D01*
X119360Y60742D01*
X120482Y60890D01*
X121528Y61323D01*
X122427Y62012D01*
X123116Y62910D01*
X123549Y63956D01*
X123697Y65079D01*
X123549Y66201D01*
X123116Y67247D01*
X122427Y68146D01*
X121528Y68835D01*
X120482Y69268D01*
X119360Y69416D01*
D02*
G37*
G36*
X109360D02*
X108237Y69268D01*
X107191Y68835D01*
X106293Y68146D01*
X105604Y67247D01*
X105171Y66201D01*
X105023Y65079D01*
X105171Y63956D01*
X105604Y62910D01*
X106293Y62012D01*
X107191Y61323D01*
X108237Y60890D01*
X109360Y60742D01*
X110482Y60890D01*
X111528Y61323D01*
X112427Y62012D01*
X113116Y62910D01*
X113549Y63956D01*
X113697Y65079D01*
X113549Y66201D01*
X113116Y67247D01*
X112427Y68146D01*
X111528Y68835D01*
X110482Y69268D01*
X109360Y69416D01*
D02*
G37*
G36*
X99360D02*
X98237Y69268D01*
X97191Y68835D01*
X96293Y68146D01*
X95604Y67247D01*
X95170Y66201D01*
X95023Y65079D01*
X95170Y63956D01*
X95604Y62910D01*
X96293Y62012D01*
X97191Y61323D01*
X98237Y60890D01*
X99360Y60742D01*
X100482Y60890D01*
X101528Y61323D01*
X102427Y62012D01*
X103116Y62910D01*
X103549Y63956D01*
X103697Y65079D01*
X103549Y66201D01*
X103116Y67247D01*
X102427Y68146D01*
X101528Y68835D01*
X100482Y69268D01*
X99360Y69416D01*
D02*
G37*
G36*
X264084Y64496D02*
X260313D01*
Y60725D01*
X260935Y60807D01*
X261981Y61240D01*
X262879Y61929D01*
X263569Y62827D01*
X264002Y63874D01*
X264084Y64496D01*
D02*
G37*
G36*
X259313D02*
X255541D01*
X255623Y63874D01*
X256057Y62827D01*
X256746Y61929D01*
X257644Y61240D01*
X258690Y60807D01*
X259313Y60725D01*
Y64496D01*
D02*
G37*
G36*
X248474Y69333D02*
X247352Y69185D01*
X246305Y68752D01*
X245407Y68063D01*
X244718Y67165D01*
X244285Y66119D01*
X244137Y64996D01*
X244285Y63874D01*
X244718Y62827D01*
X245407Y61929D01*
X246305Y61240D01*
X247352Y60807D01*
X248474Y60659D01*
X249597Y60807D01*
X250642Y61240D01*
X251541Y61929D01*
X252230Y62827D01*
X252663Y63874D01*
X252811Y64996D01*
X252663Y66119D01*
X252230Y67165D01*
X251541Y68063D01*
X250642Y68752D01*
X249597Y69185D01*
X248474Y69333D01*
D02*
G37*
G36*
X238474D02*
X237351Y69185D01*
X236305Y68752D01*
X235407Y68063D01*
X234718Y67165D01*
X234285Y66119D01*
X234137Y64996D01*
X234285Y63874D01*
X234718Y62827D01*
X235407Y61929D01*
X236305Y61240D01*
X237351Y60807D01*
X238474Y60659D01*
X239597Y60807D01*
X240642Y61240D01*
X241541Y61929D01*
X242230Y62827D01*
X242663Y63874D01*
X242811Y64996D01*
X242663Y66119D01*
X242230Y67165D01*
X241541Y68063D01*
X240642Y68752D01*
X239597Y69185D01*
X238474Y69333D01*
D02*
G37*
G36*
X309813Y69333D02*
X308690Y69185D01*
X307644Y68752D01*
X306746Y68063D01*
X306057Y67165D01*
X305623Y66119D01*
X305475Y64996D01*
X305623Y63874D01*
X306057Y62827D01*
X306746Y61929D01*
X307644Y61240D01*
X308690Y60807D01*
X309813Y60659D01*
X310935Y60807D01*
X311981Y61240D01*
X312879Y61929D01*
X313569Y62827D01*
X314002Y63874D01*
X314150Y64996D01*
X314002Y66119D01*
X313569Y67165D01*
X312879Y68063D01*
X311981Y68752D01*
X310935Y69185D01*
X309813Y69333D01*
D02*
G37*
G36*
X299813D02*
X298690Y69185D01*
X297644Y68752D01*
X296746Y68063D01*
X296057Y67165D01*
X295623Y66119D01*
X295476Y64996D01*
X295623Y63874D01*
X296057Y62827D01*
X296746Y61929D01*
X297644Y61240D01*
X298690Y60807D01*
X299813Y60659D01*
X300935Y60807D01*
X301981Y61240D01*
X302879Y61929D01*
X303569Y62827D01*
X304002Y63874D01*
X304150Y64996D01*
X304002Y66119D01*
X303569Y67165D01*
X302879Y68063D01*
X301981Y68752D01*
X300935Y69185D01*
X299813Y69333D01*
D02*
G37*
G36*
X289813D02*
X288690Y69185D01*
X287644Y68752D01*
X286746Y68063D01*
X286057Y67165D01*
X285623Y66119D01*
X285475Y64996D01*
X285623Y63874D01*
X286057Y62827D01*
X286746Y61929D01*
X287644Y61240D01*
X288690Y60807D01*
X289813Y60659D01*
X290935Y60807D01*
X291981Y61240D01*
X292879Y61929D01*
X293569Y62827D01*
X294002Y63874D01*
X294150Y64996D01*
X294002Y66119D01*
X293569Y67165D01*
X292879Y68063D01*
X291981Y68752D01*
X290935Y69185D01*
X289813Y69333D01*
D02*
G37*
G36*
X279813D02*
X278690Y69185D01*
X277644Y68752D01*
X276746Y68063D01*
X276057Y67165D01*
X275623Y66119D01*
X275476Y64996D01*
X275623Y63874D01*
X276057Y62827D01*
X276746Y61929D01*
X277644Y61240D01*
X278690Y60807D01*
X279813Y60659D01*
X280935Y60807D01*
X281981Y61240D01*
X282879Y61929D01*
X283569Y62827D01*
X284002Y63874D01*
X284150Y64996D01*
X284002Y66119D01*
X283569Y67165D01*
X282879Y68063D01*
X281981Y68752D01*
X280935Y69185D01*
X279813Y69333D01*
D02*
G37*
G36*
X269813D02*
X268690Y69185D01*
X267644Y68752D01*
X266746Y68063D01*
X266057Y67165D01*
X265623Y66119D01*
X265476Y64996D01*
X265623Y63874D01*
X266057Y62827D01*
X266746Y61929D01*
X267644Y61240D01*
X268690Y60807D01*
X269813Y60659D01*
X270935Y60807D01*
X271981Y61240D01*
X272879Y61929D01*
X273569Y62827D01*
X274002Y63874D01*
X274150Y64996D01*
X274002Y66119D01*
X273569Y67165D01*
X272879Y68063D01*
X271981Y68752D01*
X270935Y69185D01*
X269813Y69333D01*
D02*
G37*
G36*
X179862Y66630D02*
X178985Y66515D01*
X178167Y66176D01*
X177465Y65637D01*
X176926Y64935D01*
X176587Y64117D01*
X176471Y63239D01*
X176587Y62362D01*
X176926Y61544D01*
X177465Y60842D01*
X178167Y60303D01*
X178985Y59964D01*
X179862Y59848D01*
X180740Y59964D01*
X181558Y60303D01*
X182260Y60842D01*
X182799Y61544D01*
X183138Y62362D01*
X183253Y63239D01*
X183138Y64117D01*
X182799Y64935D01*
X182260Y65637D01*
X181558Y66176D01*
X180740Y66515D01*
X179862Y66630D01*
D02*
G37*
G36*
X366584Y66630D02*
X365707Y66515D01*
X364889Y66176D01*
X364186Y65637D01*
X363648Y64935D01*
X363309Y64117D01*
X363193Y63239D01*
X363309Y62362D01*
X363648Y61544D01*
X364186Y60841D01*
X364889Y60303D01*
X365707Y59964D01*
X366584Y59848D01*
X367462Y59964D01*
X368280Y60303D01*
X368982Y60841D01*
X369521Y61544D01*
X369860Y62362D01*
X369975Y63239D01*
X369860Y64117D01*
X369521Y64935D01*
X368982Y65637D01*
X368280Y66176D01*
X367462Y66515D01*
X366584Y66630D01*
D02*
G37*
G36*
X480167Y67347D02*
X479186Y67218D01*
X478273Y66840D01*
X477488Y66238D01*
X476886Y65453D01*
X476508Y64540D01*
X476378Y63559D01*
X476508Y62579D01*
X476886Y61665D01*
X477488Y60880D01*
X478273Y60278D01*
X479186Y59900D01*
X480167Y59771D01*
X481147Y59900D01*
X482061Y60278D01*
X482845Y60880D01*
X483448Y61665D01*
X483826Y62579D01*
X483955Y63559D01*
X483826Y64540D01*
X483448Y65453D01*
X482845Y66238D01*
X482061Y66840D01*
X481147Y67218D01*
X480167Y67347D01*
D02*
G37*
G36*
X460482D02*
X459501Y67218D01*
X458588Y66840D01*
X457803Y66238D01*
X457201Y65453D01*
X456822Y64540D01*
X456694Y63559D01*
X456822Y62579D01*
X457201Y61665D01*
X457803Y60880D01*
X458588Y60278D01*
X459501Y59900D01*
X460482Y59771D01*
X461462Y59900D01*
X462376Y60278D01*
X463161Y60880D01*
X463763Y61665D01*
X464141Y62579D01*
X464270Y63559D01*
X464141Y64540D01*
X463763Y65453D01*
X463161Y66238D01*
X462376Y66840D01*
X461462Y67218D01*
X460482Y67347D01*
D02*
G37*
G36*
X440797D02*
X439816Y67218D01*
X438903Y66840D01*
X438118Y66238D01*
X437516Y65453D01*
X437138Y64540D01*
X437008Y63559D01*
X437138Y62579D01*
X437516Y61665D01*
X438118Y60880D01*
X438903Y60278D01*
X439816Y59900D01*
X440797Y59771D01*
X441777Y59900D01*
X442691Y60278D01*
X443475Y60880D01*
X444078Y61665D01*
X444456Y62579D01*
X444585Y63559D01*
X444456Y64540D01*
X444078Y65453D01*
X443475Y66238D01*
X442691Y66840D01*
X441777Y67218D01*
X440797Y67347D01*
D02*
G37*
G36*
X421112D02*
X420131Y67218D01*
X419218Y66840D01*
X418433Y66238D01*
X417831Y65453D01*
X417453Y64540D01*
X417323Y63559D01*
X417453Y62579D01*
X417831Y61665D01*
X418433Y60880D01*
X419218Y60278D01*
X420131Y59900D01*
X421112Y59771D01*
X422092Y59900D01*
X423006Y60278D01*
X423791Y60880D01*
X424393Y61665D01*
X424771Y62579D01*
X424900Y63559D01*
X424771Y64540D01*
X424393Y65453D01*
X423791Y66238D01*
X423006Y66840D01*
X422092Y67218D01*
X421112Y67347D01*
D02*
G37*
%LPD*%
D51*
X390600Y204465D02*
D03*
X390600Y224150D02*
D03*
X390442Y243835D02*
D03*
X390600Y263520D02*
D03*
X491978Y263520D02*
D03*
X480167Y73559D02*
D03*
X491978Y243835D02*
D03*
X460482Y73559D02*
D03*
X491978Y224150D02*
D03*
X440797Y73559D02*
D03*
X491978Y204465D02*
D03*
X421112Y73559D02*
D03*
D52*
X240797Y223953D02*
D03*
X352214Y184583D02*
D03*
X221112Y243047D02*
D03*
X312844D02*
D03*
D53*
X89360Y65079D02*
D03*
X259813Y64996D02*
D03*
D54*
X401210Y69327D02*
D03*
X331939D02*
D03*
X214773Y69425D02*
D03*
X155049D02*
D03*
D58*
X185876Y314504D02*
D03*
X102745D02*
D03*
X303080D02*
D03*
Y289504D02*
D03*
D63*
X127936Y283992D02*
D03*
X153001D02*
D03*
X318946Y73067D02*
D03*
X285482D02*
D03*
X294143D02*
D03*
X304380D02*
D03*
X253001D02*
D03*
X192246Y133402D02*
D03*
X74557Y112043D02*
D03*
X353001Y73239D02*
D03*
X103297Y72965D02*
D03*
X124159Y73067D02*
D03*
X178001D02*
D03*
X228001D02*
D03*
X253986Y283992D02*
D03*
X505821Y209706D02*
D03*
X228001Y283992D02*
D03*
X203001D02*
D03*
X178001D02*
D03*
X428002Y306150D02*
D03*
X299458Y327128D02*
D03*
X253395Y327410D02*
D03*
X74852Y106913D02*
D03*
Y83119D02*
D03*
Y133119D02*
D03*
X505561Y305646D02*
D03*
X74852D02*
D03*
Y282614D02*
D03*
X505757D02*
D03*
Y257614D02*
D03*
Y232614D02*
D03*
Y182614D02*
D03*
Y157614D02*
D03*
Y132614D02*
D03*
Y107614D02*
D03*
Y82614D02*
D03*
Y57614D02*
D03*
X478002Y332614D02*
D03*
Y305646D02*
D03*
Y282614D02*
D03*
Y57614D02*
D03*
X453002Y332614D02*
D03*
Y305646D02*
D03*
Y57614D02*
D03*
X428002Y332614D02*
D03*
Y57614D02*
D03*
X403001Y332614D02*
D03*
Y305646D02*
D03*
Y57614D02*
D03*
X378001Y332614D02*
D03*
Y305646D02*
D03*
Y57614D02*
D03*
X353001Y332614D02*
D03*
Y305646D02*
D03*
Y57614D02*
D03*
X328001Y332614D02*
D03*
Y305646D02*
D03*
Y57614D02*
D03*
X299852Y305646D02*
D03*
X303001Y57614D02*
D03*
X278001D02*
D03*
X253395Y305646D02*
D03*
X253001Y57614D02*
D03*
X228001Y332614D02*
D03*
Y305646D02*
D03*
Y57614D02*
D03*
X203001Y332614D02*
D03*
Y305646D02*
D03*
Y57614D02*
D03*
X178001Y332614D02*
D03*
Y305646D02*
D03*
Y57614D02*
D03*
X153001Y332614D02*
D03*
Y305646D02*
D03*
Y57614D02*
D03*
X128001Y332614D02*
D03*
Y305646D02*
D03*
Y57614D02*
D03*
X103001Y332614D02*
D03*
Y305646D02*
D03*
Y57614D02*
D03*
X74852Y257614D02*
D03*
Y232614D02*
D03*
Y207614D02*
D03*
Y182614D02*
D03*
Y157614D02*
D03*
Y57614D02*
D03*
D64*
X273710Y79169D02*
D03*
X186413Y120744D02*
D03*
X191332Y198953D02*
D03*
X230757Y148854D02*
D03*
X129773Y83713D02*
D03*
X99360Y80055D02*
D03*
X441781Y145606D02*
D03*
X386663Y275036D02*
D03*
X438670Y245606D02*
D03*
X431524Y251512D02*
D03*
X409634Y253087D02*
D03*
X251132Y125528D02*
D03*
X289320Y157614D02*
D03*
X126722Y203559D02*
D03*
X135383D02*
D03*
X135088Y180547D02*
D03*
X204773Y142063D02*
D03*
X154281Y198559D02*
D03*
X223489Y168638D02*
D03*
X89222Y95744D02*
D03*
X141781Y134346D02*
D03*
X82529Y130744D02*
D03*
X401343Y190784D02*
D03*
X287253Y87732D02*
D03*
X376226Y117988D02*
D03*
X328501Y124642D02*
D03*
X354179Y112988D02*
D03*
X335236Y107983D02*
D03*
D65*
X278395Y230843D02*
D03*
X255561Y179661D02*
D03*
X303986Y179661D02*
D03*
M02*
