G04*
G04 #@! TF.GenerationSoftware,Altium Limited,Altium Designer,21.0.9 (235)*
G04*
G04 Layer_Physical_Order=1*
G04 Layer_Color=255*
%FSLAX25Y25*%
%MOIN*%
G70*
G04*
G04 #@! TF.SameCoordinates,FC657041-C44E-4033-8C41-746D20BA6EEE*
G04*
G04*
G04 #@! TF.FilePolarity,Positive*
G04*
G01*
G75*
%ADD10C,0.11811*%
%ADD11R,0.03543X0.03740*%
%ADD12R,0.06890X0.04331*%
%ADD13R,0.01181X0.05709*%
%ADD14R,0.02362X0.05906*%
%ADD15R,0.05906X0.02362*%
%ADD16R,0.09055X0.03543*%
%ADD17R,0.03543X0.09055*%
%ADD18R,0.12598X0.06299*%
%ADD19R,0.03740X0.03543*%
%ADD20R,0.05709X0.02362*%
%ADD21R,0.07480X0.04331*%
%ADD22R,0.03622X0.03858*%
%ADD23R,0.08661X0.02362*%
%ADD24R,0.02362X0.07480*%
%ADD25R,0.02362X0.04724*%
%ADD26R,0.09843X0.06496*%
%ADD27R,0.06299X0.12598*%
%ADD28R,0.03543X0.08465*%
%ADD29R,0.12598X0.08465*%
%ADD30R,0.07087X0.03150*%
%ADD31R,0.04331X0.06890*%
%ADD32R,0.02362X0.06299*%
%ADD33R,0.03543X0.02165*%
%ADD34R,0.04724X0.02362*%
%ADD35R,0.01575X0.03150*%
%ADD36R,0.04724X0.03150*%
%ADD37R,0.03150X0.01575*%
%ADD38C,0.00598*%
%ADD39C,0.03201*%
%ADD40C,0.02402*%
%ADD41C,0.01000*%
%ADD42C,0.01598*%
%ADD43C,0.02366*%
%ADD44C,0.02400*%
%ADD45C,0.01626*%
%ADD46C,0.03200*%
%ADD47C,0.01600*%
%ADD48C,0.02000*%
%ADD49C,0.01968*%
%ADD50C,0.06600*%
%ADD51C,0.05512*%
%ADD52C,0.06693*%
%ADD53C,0.06000*%
%ADD54R,0.04724X0.04724*%
%ADD55C,0.04724*%
%ADD56R,0.04724X0.04724*%
%ADD57C,0.08268*%
%ADD58C,0.08996*%
%ADD59C,0.09524*%
%ADD60C,0.02165*%
%ADD61C,0.07480*%
%ADD62C,0.02756*%
%ADD63C,0.03543*%
%ADD64C,0.05906*%
G36*
X484277Y308795D02*
X484339Y308485D01*
X484515Y308222D01*
X484778Y308046D01*
X485088Y307984D01*
X507899D01*
X507899Y55275D01*
X72513D01*
X72513Y307984D01*
X95324D01*
X95635Y308046D01*
X95898Y308222D01*
X96074Y308485D01*
X96135Y308795D01*
Y335543D01*
X239797D01*
Y330449D01*
X239858Y330142D01*
X240032Y329881D01*
X240293Y329707D01*
X240600Y329646D01*
X255931D01*
Y281236D01*
X255993Y280926D01*
X256168Y280663D01*
X256431Y280487D01*
X256742Y280425D01*
X296077D01*
X296388Y280487D01*
X296651Y280663D01*
X296827Y280926D01*
X296888Y281236D01*
Y329646D01*
X312647D01*
X312954Y329707D01*
X313215Y329881D01*
X313389Y330142D01*
X313450Y330449D01*
Y335543D01*
X484277D01*
Y308795D01*
D02*
G37*
%LPC*%
G36*
X453592Y330887D02*
X452714Y330772D01*
X451896Y330433D01*
X451194Y329894D01*
X450655Y329192D01*
X450316Y328374D01*
X450201Y327496D01*
X450316Y326618D01*
X450655Y325800D01*
X451194Y325098D01*
X451896Y324559D01*
X452714Y324220D01*
X453592Y324105D01*
X454470Y324220D01*
X455288Y324559D01*
X455990Y325098D01*
X456529Y325800D01*
X456868Y326618D01*
X456983Y327496D01*
X456868Y328374D01*
X456529Y329192D01*
X455990Y329894D01*
X455288Y330433D01*
X454470Y330772D01*
X453592Y330887D01*
D02*
G37*
G36*
X410285D02*
X409407Y330772D01*
X408589Y330433D01*
X407887Y329894D01*
X407348Y329192D01*
X407009Y328374D01*
X406894Y327496D01*
X407009Y326618D01*
X407348Y325800D01*
X407887Y325098D01*
X408589Y324559D01*
X409407Y324220D01*
X410285Y324105D01*
X411163Y324220D01*
X411981Y324559D01*
X412683Y325098D01*
X413222Y325800D01*
X413561Y326618D01*
X413676Y327496D01*
X413561Y328374D01*
X413222Y329192D01*
X412683Y329894D01*
X411981Y330433D01*
X411163Y330772D01*
X410285Y330887D01*
D02*
G37*
G36*
X466584Y327402D02*
X465080Y327204D01*
X463679Y326624D01*
X462475Y325700D01*
X461551Y324496D01*
X460971Y323095D01*
X460893Y322506D01*
X446291D01*
X446213Y323095D01*
X445633Y324496D01*
X444709Y325700D01*
X443506Y326624D01*
X442104Y327204D01*
X440600Y327402D01*
X439096Y327204D01*
X437694Y326624D01*
X436491Y325700D01*
X435567Y324496D01*
X434986Y323095D01*
X434789Y321591D01*
X434986Y320087D01*
X435567Y318685D01*
X436491Y317481D01*
X437694Y316558D01*
X439096Y315977D01*
X440600Y315779D01*
X442104Y315977D01*
X443506Y316558D01*
X444709Y317481D01*
X445633Y318685D01*
X446213Y320087D01*
X446291Y320675D01*
X460893D01*
X460971Y320087D01*
X461551Y318685D01*
X462475Y317481D01*
X463679Y316558D01*
X465080Y315977D01*
X466584Y315779D01*
X468088Y315977D01*
X469490Y316558D01*
X469961Y316919D01*
X472067Y314814D01*
Y269732D01*
X469328D01*
Y268427D01*
X466694D01*
Y270697D01*
X460372D01*
Y265949D01*
X466694D01*
Y266597D01*
X469328D01*
Y264984D01*
X472502D01*
Y266647D01*
X472600Y266666D01*
X472897Y266865D01*
X473629Y267597D01*
X473629Y267597D01*
X473827Y267894D01*
X473897Y268244D01*
X473897Y268244D01*
Y315193D01*
X473897Y315193D01*
X473827Y315543D01*
X473629Y315840D01*
X473629Y315840D01*
X471256Y318214D01*
X471617Y318685D01*
X472198Y320087D01*
X472396Y321591D01*
X472198Y323095D01*
X471617Y324496D01*
X470694Y325700D01*
X469490Y326624D01*
X468088Y327204D01*
X466584Y327402D01*
D02*
G37*
G36*
X423277D02*
X421773Y327204D01*
X420371Y326624D01*
X419168Y325700D01*
X418244Y324496D01*
X417664Y323095D01*
X417586Y322506D01*
X402984D01*
X402906Y323095D01*
X402326Y324496D01*
X401402Y325700D01*
X400199Y326624D01*
X398797Y327204D01*
X397293Y327402D01*
X395789Y327204D01*
X394387Y326624D01*
X393183Y325700D01*
X392260Y324496D01*
X391679Y323095D01*
X391481Y321591D01*
X391679Y320087D01*
X392260Y318685D01*
X393183Y317481D01*
X394387Y316558D01*
X395789Y315977D01*
X397293Y315779D01*
X398797Y315977D01*
X400199Y316558D01*
X401402Y317481D01*
X402326Y318685D01*
X402906Y320087D01*
X402984Y320675D01*
X417586D01*
X417664Y320087D01*
X418244Y318685D01*
X419168Y317481D01*
X420371Y316558D01*
X421773Y315977D01*
X423277Y315779D01*
X424781Y315977D01*
X426183Y316558D01*
X426654Y316919D01*
X431023Y312550D01*
Y280926D01*
X424670Y274573D01*
X423781D01*
Y276327D01*
X418639D01*
Y270988D01*
X423781D01*
Y272742D01*
X425049D01*
X425049Y272742D01*
X425399Y272812D01*
X425696Y273010D01*
X432586Y279900D01*
X432586Y279900D01*
X432784Y280197D01*
X432854Y280547D01*
X432854Y280547D01*
Y312929D01*
X432784Y313279D01*
X432586Y313576D01*
X432586Y313576D01*
X427949Y318214D01*
X428310Y318685D01*
X428891Y320087D01*
X429089Y321591D01*
X428891Y323095D01*
X428310Y324496D01*
X427387Y325700D01*
X426183Y326624D01*
X424781Y327204D01*
X423277Y327402D01*
D02*
G37*
G36*
X186376Y319616D02*
Y315004D01*
X190988D01*
X190877Y315844D01*
X190360Y317093D01*
X189537Y318166D01*
X188465Y318988D01*
X187216Y319506D01*
X186376Y319616D01*
D02*
G37*
G36*
X185376D02*
X184535Y319506D01*
X183286Y318988D01*
X182214Y318166D01*
X181391Y317093D01*
X180874Y315844D01*
X180763Y315004D01*
X185376D01*
Y319616D01*
D02*
G37*
G36*
X103245D02*
Y315004D01*
X107858D01*
X107747Y315844D01*
X107230Y317093D01*
X106407Y318166D01*
X105335Y318988D01*
X104086Y319506D01*
X103245Y319616D01*
D02*
G37*
G36*
X102245D02*
X101405Y319506D01*
X100156Y318988D01*
X99084Y318166D01*
X98261Y317093D01*
X97744Y315844D01*
X97633Y315004D01*
X102245D01*
Y319616D01*
D02*
G37*
G36*
X303580D02*
Y315004D01*
X308192D01*
X308082Y315844D01*
X307564Y317093D01*
X306741Y318166D01*
X305669Y318988D01*
X304420Y319506D01*
X303580Y319616D01*
D02*
G37*
G36*
X302580Y319617D02*
X301740Y319506D01*
X300491Y318988D01*
X299418Y318166D01*
X298595Y317093D01*
X298078Y315844D01*
X297968Y315004D01*
X302580D01*
Y319617D01*
D02*
G37*
G36*
X308192Y314004D02*
X303580D01*
Y309391D01*
X304420Y309502D01*
X305669Y310019D01*
X306741Y310842D01*
X307564Y311915D01*
X308082Y313164D01*
X308192Y314004D01*
D02*
G37*
G36*
X107858Y314004D02*
X103245D01*
Y309391D01*
X104086Y309502D01*
X105335Y310019D01*
X106407Y310842D01*
X107230Y311915D01*
X107747Y313164D01*
X107858Y314004D01*
D02*
G37*
G36*
X185376Y314004D02*
X180763D01*
X180874Y313164D01*
X181391Y311915D01*
X182214Y310842D01*
X183286Y310019D01*
X184535Y309502D01*
X185376Y309391D01*
Y314004D01*
D02*
G37*
G36*
X190988D02*
X186376D01*
Y309391D01*
X187216Y309502D01*
X188465Y310019D01*
X189537Y310842D01*
X190360Y311915D01*
X190877Y313164D01*
X190988Y314004D01*
D02*
G37*
G36*
X102245Y314004D02*
X97633D01*
X97744Y313164D01*
X98261Y311915D01*
X99084Y310842D01*
X100156Y310019D01*
X101405Y309502D01*
X102245Y309391D01*
Y314004D01*
D02*
G37*
G36*
X302580Y314004D02*
X297968D01*
X298078Y313164D01*
X298595Y311915D01*
X299418Y310842D01*
X300491Y310019D01*
X301740Y309502D01*
X302580Y309391D01*
Y314004D01*
D02*
G37*
G36*
X366978Y319682D02*
X365638Y319506D01*
X364389Y318988D01*
X363316Y318166D01*
X362493Y317093D01*
X361976Y315844D01*
X361800Y314504D01*
X361976Y313164D01*
X362493Y311915D01*
X362968Y311296D01*
X359441Y307769D01*
X359243Y307472D01*
X359173Y307122D01*
X359173Y307122D01*
Y167639D01*
X356037Y164503D01*
X355265Y164657D01*
X354416Y164488D01*
X353696Y164007D01*
X353215Y163286D01*
X353046Y162437D01*
X353215Y161588D01*
X353696Y160867D01*
X354416Y160386D01*
X355265Y160217D01*
X356115Y160386D01*
X356835Y160867D01*
X357316Y161588D01*
X357485Y162437D01*
X357332Y163209D01*
X360735Y166613D01*
X360735Y166613D01*
X360934Y166910D01*
X361003Y167260D01*
X361003Y167260D01*
Y306743D01*
X364327Y310067D01*
X364389Y310019D01*
X365638Y309502D01*
X366978Y309326D01*
X368318Y309502D01*
X369567Y310019D01*
X370639Y310842D01*
X371462Y311915D01*
X371980Y313164D01*
X372156Y314504D01*
X371980Y315844D01*
X371462Y317093D01*
X370639Y318166D01*
X369567Y318988D01*
X368318Y319506D01*
X366978Y319682D01*
D02*
G37*
G36*
X249774D02*
X248433Y319506D01*
X247184Y318988D01*
X246112Y318166D01*
X245289Y317093D01*
X244772Y315844D01*
X244595Y314504D01*
X244772Y313164D01*
X245289Y311915D01*
X246112Y310842D01*
X247184Y310019D01*
X248433Y309502D01*
X249774Y309326D01*
X251114Y309502D01*
X252363Y310019D01*
X253435Y310842D01*
X254258Y311915D01*
X254775Y313164D01*
X254952Y314504D01*
X254775Y315844D01*
X254258Y317093D01*
X253435Y318166D01*
X252363Y318988D01*
X251114Y319506D01*
X249774Y319682D01*
D02*
G37*
G36*
X166644D02*
X165303Y319506D01*
X164054Y318988D01*
X162982Y318166D01*
X162159Y317093D01*
X161642Y315844D01*
X161465Y314504D01*
X161642Y313164D01*
X162159Y311915D01*
X162982Y310842D01*
X164054Y310019D01*
X165303Y309502D01*
X166644Y309326D01*
X167984Y309502D01*
X169233Y310019D01*
X170305Y310842D01*
X171128Y311915D01*
X171645Y313164D01*
X171822Y314504D01*
X171645Y315844D01*
X171128Y317093D01*
X170305Y318166D01*
X169233Y318988D01*
X167984Y319506D01*
X166644Y319682D01*
D02*
G37*
G36*
X453592Y303328D02*
X452714Y303213D01*
X451896Y302874D01*
X451194Y302335D01*
X450655Y301633D01*
X450316Y300815D01*
X450201Y299937D01*
X450316Y299059D01*
X450655Y298241D01*
X451194Y297539D01*
X451896Y297000D01*
X452714Y296661D01*
X453592Y296546D01*
X454470Y296661D01*
X455288Y297000D01*
X455990Y297539D01*
X456529Y298241D01*
X456868Y299059D01*
X456983Y299937D01*
X456868Y300815D01*
X456529Y301633D01*
X455990Y302335D01*
X455288Y302874D01*
X454470Y303213D01*
X453592Y303328D01*
D02*
G37*
G36*
X410285D02*
X409407Y303213D01*
X408589Y302874D01*
X407887Y302335D01*
X407348Y301633D01*
X407009Y300815D01*
X406894Y299937D01*
X407009Y299059D01*
X407348Y298241D01*
X407887Y297539D01*
X408589Y297000D01*
X409407Y296661D01*
X410285Y296546D01*
X411163Y296661D01*
X411981Y297000D01*
X412683Y297539D01*
X413222Y298241D01*
X413561Y299059D01*
X413676Y299937D01*
X413561Y300815D01*
X413222Y301633D01*
X412683Y302335D01*
X411981Y302874D01*
X411163Y303213D01*
X410285Y303328D01*
D02*
G37*
G36*
X464813Y295640D02*
X463377Y295451D01*
X462040Y294897D01*
X460891Y294016D01*
X460010Y292867D01*
X459621Y291929D01*
X457577D01*
X456875Y291789D01*
X456573Y291587D01*
X456365Y291747D01*
X455027Y292301D01*
X453592Y292490D01*
X452157Y292301D01*
X450819Y291747D01*
X449671Y290866D01*
X448790Y289718D01*
X448236Y288380D01*
X448047Y286945D01*
X448236Y285510D01*
X448790Y284172D01*
X449671Y283024D01*
X450819Y282142D01*
X451758Y281754D01*
Y277705D01*
X451021D01*
Y272366D01*
X456163D01*
Y277705D01*
X455427D01*
Y281754D01*
X456365Y282142D01*
X457513Y283024D01*
X458395Y284172D01*
X458949Y285510D01*
X459138Y286945D01*
X459053Y287587D01*
X459471Y288016D01*
X459737Y287981D01*
X460010Y287322D01*
X460891Y286173D01*
X462040Y285292D01*
X463377Y284738D01*
X464813Y284549D01*
X466248Y284738D01*
X467585Y285292D01*
X468734Y286173D01*
X469615Y287322D01*
X470169Y288659D01*
X470358Y290094D01*
X470169Y291530D01*
X469615Y292867D01*
X468734Y294016D01*
X467585Y294897D01*
X466248Y295451D01*
X464813Y295640D01*
D02*
G37*
G36*
X422006Y295574D02*
Y290595D01*
X426985D01*
X426862Y291530D01*
X426308Y292867D01*
X425427Y294016D01*
X424278Y294897D01*
X422941Y295451D01*
X422006Y295574D01*
D02*
G37*
G36*
X421005D02*
X420070Y295451D01*
X418733Y294897D01*
X417584Y294016D01*
X416703Y292867D01*
X416149Y291530D01*
X416026Y290595D01*
X421005D01*
Y295574D01*
D02*
G37*
G36*
X410785Y292425D02*
Y287445D01*
X415765D01*
X415641Y288380D01*
X415088Y289718D01*
X414206Y290866D01*
X413058Y291747D01*
X411720Y292301D01*
X410785Y292425D01*
D02*
G37*
G36*
X409785D02*
X408850Y292301D01*
X407512Y291747D01*
X406364Y290866D01*
X405482Y289718D01*
X404928Y288380D01*
X404805Y287445D01*
X409785D01*
Y292425D01*
D02*
G37*
G36*
X426985Y289595D02*
X422006D01*
Y284615D01*
X422941Y284738D01*
X424278Y285292D01*
X425427Y286173D01*
X426308Y287322D01*
X426862Y288659D01*
X426985Y289595D01*
D02*
G37*
G36*
X421005D02*
X416026D01*
X416149Y288659D01*
X416703Y287322D01*
X417584Y286173D01*
X418733Y285292D01*
X420070Y284738D01*
X421005Y284615D01*
Y289595D01*
D02*
G37*
G36*
X366978Y294682D02*
X365638Y294506D01*
X364389Y293988D01*
X363316Y293166D01*
X362493Y292093D01*
X361976Y290844D01*
X361800Y289504D01*
X361976Y288164D01*
X362493Y286915D01*
X363316Y285842D01*
X364389Y285019D01*
X365638Y284502D01*
X366978Y284326D01*
X368318Y284502D01*
X369567Y285019D01*
X370639Y285842D01*
X371462Y286915D01*
X371980Y288164D01*
X372156Y289504D01*
X371980Y290844D01*
X371462Y292093D01*
X370639Y293166D01*
X369567Y293988D01*
X368318Y294506D01*
X366978Y294682D01*
D02*
G37*
G36*
X303080D02*
X301740Y294506D01*
X300491Y293988D01*
X299418Y293166D01*
X298595Y292093D01*
X298078Y290844D01*
X297902Y289504D01*
X298078Y288164D01*
X298595Y286915D01*
X299418Y285842D01*
X300491Y285019D01*
X301740Y284502D01*
X303080Y284326D01*
X304420Y284502D01*
X305669Y285019D01*
X306741Y285842D01*
X307564Y286915D01*
X308082Y288164D01*
X308258Y289504D01*
X308082Y290844D01*
X307564Y292093D01*
X306741Y293166D01*
X305669Y293988D01*
X304420Y294506D01*
X303080Y294682D01*
D02*
G37*
G36*
X249774D02*
X248433Y294506D01*
X247184Y293988D01*
X246112Y293166D01*
X245289Y292093D01*
X244772Y290844D01*
X244595Y289504D01*
X244772Y288164D01*
X245289Y286915D01*
X246112Y285842D01*
X247184Y285019D01*
X248433Y284502D01*
X249774Y284326D01*
X251114Y284502D01*
X252363Y285019D01*
X253435Y285842D01*
X254258Y286915D01*
X254775Y288164D01*
X254952Y289504D01*
X254775Y290844D01*
X254258Y292093D01*
X253435Y293166D01*
X252363Y293988D01*
X251114Y294506D01*
X249774Y294682D01*
D02*
G37*
G36*
X185876D02*
X184535Y294506D01*
X183286Y293988D01*
X182214Y293166D01*
X181391Y292093D01*
X180874Y290844D01*
X180697Y289504D01*
X180874Y288164D01*
X181391Y286915D01*
X182214Y285842D01*
X183286Y285019D01*
X184535Y284502D01*
X185876Y284326D01*
X187216Y284502D01*
X188465Y285019D01*
X189537Y285842D01*
X190360Y286915D01*
X190877Y288164D01*
X191054Y289504D01*
X190877Y290844D01*
X190360Y292093D01*
X189537Y293166D01*
X188465Y293988D01*
X187216Y294506D01*
X185876Y294682D01*
D02*
G37*
G36*
X166644D02*
X165303Y294506D01*
X164054Y293988D01*
X162982Y293166D01*
X162159Y292093D01*
X161642Y290844D01*
X161465Y289504D01*
X161642Y288164D01*
X162159Y286915D01*
X162982Y285842D01*
X164054Y285019D01*
X165303Y284502D01*
X166644Y284326D01*
X167984Y284502D01*
X169233Y285019D01*
X170305Y285842D01*
X171128Y286915D01*
X171645Y288164D01*
X171822Y289504D01*
X171645Y290844D01*
X171128Y292093D01*
X170305Y293166D01*
X169233Y293988D01*
X167984Y294506D01*
X166644Y294682D01*
D02*
G37*
G36*
X102745D02*
X101405Y294506D01*
X100156Y293988D01*
X99084Y293166D01*
X98261Y292093D01*
X97744Y290844D01*
X97567Y289504D01*
X97744Y288164D01*
X98261Y286915D01*
X99084Y285842D01*
X100156Y285019D01*
X101405Y284502D01*
X102745Y284326D01*
X104086Y284502D01*
X105335Y285019D01*
X106407Y285842D01*
X107230Y286915D01*
X107747Y288164D01*
X107924Y289504D01*
X107747Y290844D01*
X107230Y292093D01*
X106407Y293166D01*
X105335Y293988D01*
X104086Y294506D01*
X102745Y294682D01*
D02*
G37*
G36*
X415765Y286445D02*
X410785D01*
Y281465D01*
X411720Y281588D01*
X413058Y282142D01*
X414206Y283024D01*
X415088Y284172D01*
X415641Y285510D01*
X415765Y286445D01*
D02*
G37*
G36*
X409785D02*
X404805D01*
X404928Y285510D01*
X405482Y284172D01*
X406364Y283024D01*
X407512Y282142D01*
X408850Y281588D01*
X409785Y281465D01*
Y286445D01*
D02*
G37*
G36*
X395533Y277705D02*
X390391D01*
Y276870D01*
X388495D01*
X387960Y277281D01*
X387334Y277540D01*
X386663Y277628D01*
X385992Y277540D01*
X385366Y277281D01*
X384829Y276869D01*
X384417Y276332D01*
X384158Y275707D01*
X384070Y275036D01*
X384158Y274364D01*
X384417Y273739D01*
X384829Y273202D01*
X385366Y272790D01*
X385992Y272531D01*
X386663Y272442D01*
X387334Y272531D01*
X387960Y272790D01*
X388495Y273201D01*
X390391D01*
Y272366D01*
X395533D01*
Y277705D01*
D02*
G37*
G36*
X462265D02*
X460094D01*
Y275435D01*
X462265D01*
Y277705D01*
D02*
G37*
G36*
X459295D02*
X457124D01*
Y275435D01*
X459295D01*
Y277705D01*
D02*
G37*
G36*
X462265Y274636D02*
X460094D01*
Y272366D01*
X462265D01*
Y274636D01*
D02*
G37*
G36*
X459295D02*
X457124D01*
Y272366D01*
X459295D01*
Y274636D01*
D02*
G37*
G36*
X399065Y295640D02*
X397629Y295451D01*
X396292Y294897D01*
X395143Y294016D01*
X394262Y292867D01*
X393708Y291530D01*
X393519Y290094D01*
X393708Y288659D01*
X394262Y287322D01*
X395143Y286173D01*
X396292Y285292D01*
X397230Y284903D01*
Y277705D01*
X396494D01*
Y272366D01*
X401635D01*
Y277705D01*
X400899D01*
Y284903D01*
X401837Y285292D01*
X402986Y286173D01*
X403867Y287322D01*
X404421Y288659D01*
X404610Y290094D01*
X404421Y291530D01*
X403867Y292867D01*
X402986Y294016D01*
X401837Y294897D01*
X400500Y295451D01*
X399065Y295640D01*
D02*
G37*
G36*
X441891Y270697D02*
X439130D01*
Y268723D01*
X441891D01*
Y270697D01*
D02*
G37*
G36*
X438330D02*
X435569D01*
Y268723D01*
X438330D01*
Y270697D01*
D02*
G37*
G36*
X428112Y269043D02*
X425350D01*
Y267463D01*
X428112D01*
Y269043D01*
D02*
G37*
G36*
X424551D02*
X421789D01*
Y267463D01*
X424551D01*
Y269043D01*
D02*
G37*
G36*
X417679Y276327D02*
X412537D01*
Y270988D01*
X414193D01*
Y269043D01*
X411946D01*
Y265083D01*
X418269D01*
Y269043D01*
X416023D01*
Y270988D01*
X417679D01*
Y276327D01*
D02*
G37*
G36*
X441891Y267923D02*
X438730D01*
X435569D01*
Y266197D01*
X435569Y265823D01*
X435569Y265449D01*
Y264238D01*
X434254D01*
Y265894D01*
X428915D01*
Y264238D01*
X428112D01*
Y266663D01*
X424951D01*
X421789D01*
Y264238D01*
X410876D01*
X410525Y264168D01*
X410228Y263970D01*
X410228Y263970D01*
X400851Y254592D01*
X370952D01*
X370515Y255246D01*
X369795Y255727D01*
X368946Y255896D01*
X368096Y255727D01*
X367376Y255246D01*
X366895Y254526D01*
X366726Y253677D01*
X366895Y252827D01*
X367376Y252107D01*
X368096Y251626D01*
X368946Y251457D01*
X369795Y251626D01*
X370515Y252107D01*
X370953Y252762D01*
X401230D01*
X401230Y252762D01*
X401580Y252832D01*
X401877Y253030D01*
X411255Y262408D01*
X421789D01*
Y257602D01*
X428112D01*
Y262408D01*
X428915D01*
Y260752D01*
X434254D01*
Y262408D01*
X435215D01*
X435569Y262054D01*
X435569Y260823D01*
X435569Y260449D01*
Y255949D01*
X436896D01*
Y254181D01*
X436159D01*
Y248843D01*
X436835D01*
Y247439D01*
X436424Y246903D01*
X436165Y246277D01*
X436077Y245606D01*
X436165Y244935D01*
X436424Y244310D01*
X436836Y243773D01*
X437373Y243361D01*
X437999Y243102D01*
X438670Y243013D01*
X439341Y243102D01*
X439966Y243361D01*
X440503Y243773D01*
X440915Y244310D01*
X441174Y244935D01*
X441263Y245606D01*
X441174Y246277D01*
X440915Y246903D01*
X440504Y247439D01*
Y248843D01*
X441301D01*
Y254181D01*
X440564D01*
Y255949D01*
X441891D01*
Y260449D01*
X441891Y260823D01*
X441891Y261197D01*
Y265449D01*
X441891Y265823D01*
X441891Y266197D01*
Y267923D01*
D02*
G37*
G36*
X400600Y267308D02*
X399620Y267179D01*
X398706Y266800D01*
X397921Y266198D01*
X397319Y265414D01*
X396941Y264500D01*
X396812Y263520D01*
X396941Y262539D01*
X397319Y261626D01*
X397921Y260841D01*
X398706Y260239D01*
X399620Y259860D01*
X400600Y259731D01*
X401580Y259860D01*
X402494Y260239D01*
X403279Y260841D01*
X403881Y261626D01*
X404259Y262539D01*
X404388Y263520D01*
X404259Y264500D01*
X403881Y265414D01*
X403279Y266198D01*
X402494Y266800D01*
X401580Y267179D01*
X400600Y267308D01*
D02*
G37*
G36*
X390600D02*
X389619Y267179D01*
X388706Y266800D01*
X387921Y266198D01*
X387319Y265414D01*
X386941Y264500D01*
X386812Y263520D01*
X386941Y262539D01*
X387319Y261626D01*
X387921Y260841D01*
X388706Y260239D01*
X389619Y259860D01*
X390600Y259731D01*
X391581Y259860D01*
X392494Y260239D01*
X393279Y260841D01*
X393881Y261626D01*
X394259Y262539D01*
X394388Y263520D01*
X394259Y264500D01*
X393881Y265414D01*
X393279Y266198D01*
X392494Y266800D01*
X391581Y267179D01*
X390600Y267308D01*
D02*
G37*
G36*
X380600D02*
X379620Y267179D01*
X378706Y266800D01*
X377921Y266198D01*
X377319Y265414D01*
X376941Y264500D01*
X376812Y263520D01*
X376941Y262539D01*
X377319Y261626D01*
X377921Y260841D01*
X378706Y260239D01*
X379620Y259860D01*
X380600Y259731D01*
X381580Y259860D01*
X382494Y260239D01*
X383279Y260841D01*
X383881Y261626D01*
X384259Y262539D01*
X384388Y263520D01*
X384259Y264500D01*
X383881Y265414D01*
X383279Y266198D01*
X382494Y266800D01*
X381580Y267179D01*
X380600Y267308D01*
D02*
G37*
G36*
X501978Y267308D02*
X500997Y267179D01*
X500084Y266800D01*
X499299Y266198D01*
X498697Y265414D01*
X498319Y264500D01*
X498190Y263520D01*
X498319Y262539D01*
X498639Y261765D01*
X490097Y253222D01*
X481545D01*
X481116Y253137D01*
X480753Y252894D01*
X475733Y247875D01*
X475491Y247511D01*
X475405Y247083D01*
Y234850D01*
X473962Y233406D01*
X473719Y233043D01*
X473634Y232614D01*
Y226906D01*
X473134Y226736D01*
X472524Y227530D01*
X471534Y228290D01*
X470381Y228768D01*
X469143Y228931D01*
X467906Y228768D01*
X466753Y228290D01*
X465763Y227530D01*
X465003Y226540D01*
X464525Y225387D01*
X464362Y224150D01*
X464525Y222912D01*
X465003Y221759D01*
X465201Y221501D01*
X455836Y212136D01*
X379542D01*
X379542Y212136D01*
X379191Y212067D01*
X378894Y211868D01*
X372236Y205210D01*
X372038Y204913D01*
X371968Y204563D01*
X371968Y204563D01*
Y159704D01*
X357309Y145045D01*
X331386D01*
X331035Y144975D01*
X330739Y144777D01*
X330739Y144777D01*
X316144Y130183D01*
X312757D01*
Y131502D01*
X315501D01*
X315501Y131502D01*
X315852Y131572D01*
X316149Y131770D01*
X319987Y135609D01*
X320186Y135906D01*
X320255Y136256D01*
X320255Y136256D01*
Y139814D01*
X326609Y146168D01*
X353198D01*
X353198Y146168D01*
X353549Y146237D01*
X353846Y146435D01*
X370086Y162676D01*
X370086Y162676D01*
X370284Y162973D01*
X370354Y163323D01*
Y208613D01*
X375625Y213884D01*
X414320D01*
X414321Y213884D01*
X414671Y213954D01*
X414968Y214152D01*
X420775Y219959D01*
X420775Y219959D01*
X420973Y220256D01*
X421043Y220606D01*
X421043Y220606D01*
Y235764D01*
X420973Y236114D01*
X420775Y236411D01*
X420775Y236411D01*
X415999Y241186D01*
X416197Y241444D01*
X416675Y242597D01*
X416838Y243835D01*
X416675Y245072D01*
X416197Y246225D01*
X415437Y247215D01*
X414447Y247975D01*
X413294Y248453D01*
X412057Y248616D01*
X410819Y248453D01*
X409666Y247975D01*
X408676Y247215D01*
X407916Y246225D01*
X407439Y245072D01*
X407276Y243835D01*
X407439Y242597D01*
X407916Y241444D01*
X408676Y240454D01*
X409666Y239694D01*
X410819Y239216D01*
X411206Y239166D01*
Y238661D01*
X410819Y238610D01*
X409666Y238133D01*
X408676Y237373D01*
X407916Y236383D01*
X407439Y235230D01*
X407341Y234492D01*
X412057D01*
X416772D01*
X416675Y235230D01*
X416197Y236383D01*
X415437Y237373D01*
X414447Y238133D01*
X413294Y238610D01*
X412907Y238661D01*
Y239166D01*
X413294Y239216D01*
X414447Y239694D01*
X414705Y239892D01*
X419212Y235385D01*
Y220985D01*
X413941Y215715D01*
X375246D01*
X375246Y215715D01*
X374895Y215645D01*
X374599Y215446D01*
X374599Y215446D01*
X368791Y209639D01*
X368593Y209342D01*
X368523Y208992D01*
X368523Y208992D01*
Y163702D01*
X352819Y147998D01*
X326230D01*
X326230Y147998D01*
X325880Y147928D01*
X325583Y147730D01*
X325583Y147730D01*
X318693Y140840D01*
X318495Y140543D01*
X318425Y140193D01*
X318425Y140193D01*
Y136635D01*
X315122Y133333D01*
X312757D01*
Y134712D01*
X314283D01*
X314283Y134712D01*
X314633Y134782D01*
X314930Y134980D01*
X317231Y137282D01*
X317231Y137282D01*
X317430Y137579D01*
X317499Y137929D01*
X317499Y137929D01*
Y145326D01*
X321294Y149120D01*
X348868D01*
X348868Y149120D01*
X349218Y149190D01*
X349515Y149388D01*
X365952Y165825D01*
X365952Y165825D01*
X366150Y166122D01*
X366220Y166472D01*
Y212255D01*
X371196Y217231D01*
X406053D01*
X406053Y217231D01*
X406403Y217300D01*
X406700Y217498D01*
X409408Y220207D01*
X409666Y220009D01*
X410819Y219531D01*
X412057Y219369D01*
X413294Y219531D01*
X414447Y220009D01*
X415437Y220769D01*
X416197Y221759D01*
X416675Y222912D01*
X416838Y224150D01*
X416675Y225387D01*
X416197Y226540D01*
X415437Y227530D01*
X414447Y228290D01*
X413294Y228768D01*
X412907Y228819D01*
Y229323D01*
X413294Y229374D01*
X414447Y229852D01*
X415437Y230611D01*
X416197Y231602D01*
X416675Y232755D01*
X416772Y233492D01*
X412057D01*
X407341D01*
X407439Y232755D01*
X407916Y231602D01*
X408676Y230611D01*
X409666Y229852D01*
X410819Y229374D01*
X411206Y229323D01*
Y228819D01*
X410819Y228768D01*
X409666Y228290D01*
X408676Y227530D01*
X407916Y226540D01*
X407439Y225387D01*
X407276Y224150D01*
X407439Y222912D01*
X407916Y221759D01*
X408114Y221501D01*
X405674Y219061D01*
X370817D01*
X370816Y219061D01*
X370466Y218991D01*
X370169Y218793D01*
X370169Y218793D01*
X364657Y213281D01*
X364459Y212984D01*
X364389Y212634D01*
X364389Y212634D01*
Y166852D01*
X348489Y150951D01*
X320915D01*
X320915Y150951D01*
X320565Y150881D01*
X320268Y150683D01*
X320268Y150683D01*
X315937Y146352D01*
X315739Y146055D01*
X315669Y145705D01*
X315669Y145705D01*
Y138308D01*
X313904Y136543D01*
X312757D01*
Y140106D01*
X312389D01*
Y144887D01*
X344738Y177236D01*
X344981Y177599D01*
X345066Y178028D01*
Y185694D01*
X350010Y190638D01*
X350022Y190629D01*
X351080Y190191D01*
X352214Y190041D01*
X353349Y190191D01*
X354406Y190629D01*
X355314Y191325D01*
X356011Y192233D01*
X356449Y193291D01*
X356598Y194425D01*
X356449Y195560D01*
X356011Y196617D01*
X355314Y197525D01*
X354406Y198222D01*
X353349Y198660D01*
X352214Y198809D01*
X351080Y198660D01*
X350022Y198222D01*
X349114Y197525D01*
X348417Y196617D01*
X347980Y195560D01*
X347830Y194425D01*
X347980Y193291D01*
X348417Y192233D01*
X348427Y192221D01*
X343155Y186950D01*
X342912Y186586D01*
X342827Y186158D01*
Y178491D01*
X310477Y146142D01*
X310235Y145779D01*
X310149Y145350D01*
Y140106D01*
X305254D01*
Y136146D01*
Y132996D01*
Y129847D01*
Y126697D01*
Y123547D01*
Y122778D01*
X312757D01*
Y123547D01*
Y128352D01*
X316524D01*
X316524Y128352D01*
X316874Y128422D01*
X317171Y128621D01*
X331765Y143215D01*
X357688D01*
X357688Y143215D01*
X358038Y143284D01*
X358335Y143483D01*
X373531Y158678D01*
X373531Y158678D01*
X373729Y158975D01*
X373799Y159325D01*
X373799Y159325D01*
Y204184D01*
X379921Y210306D01*
X456215D01*
X456215Y210306D01*
X456565Y210376D01*
X456862Y210574D01*
X466495Y220207D01*
X466753Y220009D01*
X467906Y219531D01*
X469143Y219369D01*
X470381Y219531D01*
X471534Y220009D01*
X472524Y220769D01*
X473134Y221563D01*
X473634Y221394D01*
Y213984D01*
X469729Y210079D01*
X469487Y209716D01*
X469401Y209287D01*
Y200036D01*
X469487Y199607D01*
X469729Y199244D01*
X476586Y192386D01*
Y189869D01*
X463660Y176943D01*
X460088D01*
X459660Y176858D01*
X459296Y176615D01*
X453391Y170709D01*
X453148Y170346D01*
X453063Y169917D01*
Y157921D01*
X452202D01*
Y148843D01*
X456163D01*
Y157921D01*
X455303D01*
Y169454D01*
X460552Y174703D01*
X464124D01*
X464552Y174788D01*
X464916Y175031D01*
X478498Y188614D01*
X478741Y188977D01*
X478826Y189406D01*
Y192850D01*
X478741Y193279D01*
X478498Y193642D01*
X471641Y200499D01*
Y208823D01*
X475545Y212728D01*
X475788Y213091D01*
X475874Y213520D01*
Y232150D01*
X477317Y233594D01*
X477560Y233957D01*
X477645Y234386D01*
Y246619D01*
X482009Y250982D01*
X490561D01*
X490989Y251068D01*
X491353Y251310D01*
X500223Y260181D01*
X500997Y259860D01*
X501978Y259731D01*
X502958Y259860D01*
X503872Y260239D01*
X504657Y260841D01*
X505259Y261626D01*
X505637Y262539D01*
X505766Y263520D01*
X505637Y264500D01*
X505259Y265414D01*
X504657Y266198D01*
X503872Y266800D01*
X502958Y267179D01*
X501978Y267308D01*
D02*
G37*
G36*
X491978D02*
X490998Y267179D01*
X490084Y266800D01*
X489299Y266198D01*
X488697Y265414D01*
X488319Y264500D01*
X488190Y263520D01*
X488319Y262539D01*
X488697Y261626D01*
X489299Y260841D01*
X490084Y260239D01*
X490998Y259860D01*
X491978Y259731D01*
X492958Y259860D01*
X493872Y260239D01*
X494657Y260841D01*
X495259Y261626D01*
X495637Y262539D01*
X495766Y263520D01*
X495637Y264500D01*
X495259Y265414D01*
X494657Y266198D01*
X493872Y266800D01*
X492958Y267179D01*
X491978Y267308D01*
D02*
G37*
G36*
X481978D02*
X480998Y267179D01*
X480084Y266800D01*
X479299Y266198D01*
X478697Y265414D01*
X478319Y264500D01*
X478190Y263520D01*
X478319Y262539D01*
X478697Y261626D01*
X479299Y260841D01*
X480084Y260239D01*
X480998Y259860D01*
X481978Y259731D01*
X482958Y259860D01*
X483872Y260239D01*
X484657Y260841D01*
X485259Y261626D01*
X485637Y262539D01*
X485766Y263520D01*
X485637Y264500D01*
X485259Y265414D01*
X484657Y266198D01*
X483872Y266800D01*
X482958Y267179D01*
X481978Y267308D01*
D02*
G37*
G36*
X366978Y269682D02*
X365638Y269506D01*
X364389Y268988D01*
X363316Y268166D01*
X362493Y267093D01*
X361976Y265844D01*
X361800Y264504D01*
X361976Y263164D01*
X362493Y261915D01*
X363316Y260842D01*
X364389Y260019D01*
X365638Y259502D01*
X366978Y259326D01*
X368318Y259502D01*
X369567Y260019D01*
X370639Y260842D01*
X371462Y261915D01*
X371980Y263164D01*
X372156Y264504D01*
X371980Y265844D01*
X371462Y267093D01*
X370639Y268166D01*
X369567Y268988D01*
X368318Y269506D01*
X366978Y269682D01*
D02*
G37*
G36*
X249774D02*
X248433Y269506D01*
X247184Y268988D01*
X246112Y268166D01*
X245289Y267093D01*
X244772Y265844D01*
X244595Y264504D01*
X244772Y263164D01*
X245289Y261915D01*
X246112Y260842D01*
X247184Y260019D01*
X248433Y259502D01*
X249774Y259326D01*
X251114Y259502D01*
X252363Y260019D01*
X253435Y260842D01*
X254258Y261915D01*
X254775Y263164D01*
X254952Y264504D01*
X254775Y265844D01*
X254258Y267093D01*
X253435Y268166D01*
X252363Y268988D01*
X251114Y269506D01*
X249774Y269682D01*
D02*
G37*
G36*
X166644D02*
X165303Y269506D01*
X164054Y268988D01*
X162982Y268166D01*
X162159Y267093D01*
X161642Y265844D01*
X161465Y264504D01*
X161642Y263164D01*
X162159Y261915D01*
X162982Y260842D01*
X164054Y260019D01*
X165303Y259502D01*
X166644Y259326D01*
X167984Y259502D01*
X169233Y260019D01*
X170305Y260842D01*
X171128Y261915D01*
X171645Y263164D01*
X171822Y264504D01*
X171645Y265844D01*
X171128Y267093D01*
X170305Y268166D01*
X169233Y268988D01*
X167984Y269506D01*
X166644Y269682D01*
D02*
G37*
G36*
X102745D02*
X101405Y269506D01*
X100156Y268988D01*
X99084Y268166D01*
X98261Y267093D01*
X97744Y265844D01*
X97567Y264504D01*
X97744Y263164D01*
X98261Y261915D01*
X99084Y260842D01*
X100156Y260019D01*
X101405Y259502D01*
X102745Y259326D01*
X104086Y259502D01*
X105335Y260019D01*
X106407Y260842D01*
X107230Y261915D01*
X107747Y263164D01*
X107924Y264504D01*
X107747Y265844D01*
X107230Y267093D01*
X106407Y268166D01*
X105335Y268988D01*
X104086Y269506D01*
X102745Y269682D01*
D02*
G37*
G36*
X466694Y260697D02*
X460372D01*
Y255949D01*
X462618D01*
Y254181D01*
X460962D01*
Y248843D01*
X466104D01*
Y254181D01*
X464448D01*
Y255949D01*
X466694D01*
Y257388D01*
X469328D01*
Y255929D01*
X472502D01*
Y260677D01*
X469328D01*
Y259218D01*
X466694D01*
Y260697D01*
D02*
G37*
G36*
X418269Y261563D02*
X411946D01*
Y257602D01*
X413273D01*
Y255756D01*
X412537D01*
Y254921D01*
X411467D01*
X410931Y255332D01*
X410305Y255591D01*
X409634Y255680D01*
X408963Y255591D01*
X408338Y255332D01*
X407801Y254920D01*
X407389Y254383D01*
X407130Y253758D01*
X407041Y253087D01*
X407130Y252415D01*
X407389Y251790D01*
X407801Y251253D01*
X408338Y250841D01*
X408963Y250582D01*
X409634Y250494D01*
X410305Y250582D01*
X410931Y250841D01*
X411467Y251252D01*
X412537D01*
Y250417D01*
X417679D01*
Y255756D01*
X416942D01*
Y257602D01*
X418269D01*
Y261563D01*
D02*
G37*
G36*
X423781Y255756D02*
X421610D01*
Y253486D01*
X423781D01*
Y255756D01*
D02*
G37*
G36*
X420811D02*
X418639D01*
Y253486D01*
X420811D01*
Y255756D01*
D02*
G37*
G36*
X447403Y254181D02*
X445232D01*
Y251911D01*
X447403D01*
Y254181D01*
D02*
G37*
G36*
X444433D02*
X442261D01*
Y251911D01*
X444433D01*
Y254181D01*
D02*
G37*
G36*
X423781Y252687D02*
X421610D01*
Y250417D01*
X423781D01*
Y252687D01*
D02*
G37*
G36*
X420811D02*
X418639D01*
Y250417D01*
X420811D01*
Y252687D01*
D02*
G37*
G36*
X434254Y259791D02*
X428915D01*
Y254650D01*
X429690D01*
Y253344D01*
X429278Y252808D01*
X429019Y252183D01*
X428931Y251512D01*
X429019Y250841D01*
X429278Y250215D01*
X429690Y249678D01*
X430228Y249266D01*
X430853Y249007D01*
X431524Y248919D01*
X432195Y249007D01*
X432821Y249266D01*
X433357Y249678D01*
X433770Y250215D01*
X434029Y250841D01*
X434117Y251512D01*
X434029Y252183D01*
X433770Y252808D01*
X433358Y253344D01*
Y254650D01*
X434254D01*
Y259791D01*
D02*
G37*
G36*
X447403Y251112D02*
X445232D01*
Y248843D01*
X447403D01*
Y251112D01*
D02*
G37*
G36*
X444433D02*
X442261D01*
Y248843D01*
X444433D01*
Y251112D01*
D02*
G37*
G36*
X442372Y295640D02*
X440936Y295451D01*
X439599Y294897D01*
X438450Y294016D01*
X437569Y292867D01*
X437015Y291530D01*
X436826Y290094D01*
X437015Y288659D01*
X437569Y287322D01*
X438450Y286173D01*
X439599Y285292D01*
X440936Y284738D01*
X441456Y284669D01*
Y276410D01*
X441456Y276410D01*
X441526Y276059D01*
X441724Y275762D01*
X456516Y260971D01*
Y254181D01*
X454860D01*
Y248843D01*
X460002D01*
Y254181D01*
X458346D01*
Y261350D01*
X458346Y261350D01*
X458276Y261701D01*
X458078Y261998D01*
X458078Y261998D01*
X443287Y276789D01*
Y284669D01*
X443807Y284738D01*
X445144Y285292D01*
X446293Y286173D01*
X447174Y287322D01*
X447728Y288659D01*
X447917Y290094D01*
X447728Y291530D01*
X447174Y292867D01*
X446293Y294016D01*
X445144Y294897D01*
X443807Y295451D01*
X442372Y295640D01*
D02*
G37*
G36*
X282045Y251740D02*
Y248272D01*
X285513D01*
X285442Y248816D01*
X285039Y249789D01*
X284398Y250624D01*
X283562Y251266D01*
X282589Y251669D01*
X282045Y251740D01*
D02*
G37*
G36*
X281045Y251740D02*
X280501Y251669D01*
X279528Y251266D01*
X278692Y250624D01*
X278051Y249789D01*
X277648Y248816D01*
X277576Y248272D01*
X281045D01*
Y251740D01*
D02*
G37*
G36*
X469643Y248550D02*
Y244335D01*
X473858D01*
X473761Y245072D01*
X473284Y246225D01*
X472524Y247215D01*
X471534Y247975D01*
X470381Y248453D01*
X469643Y248550D01*
D02*
G37*
G36*
X468643Y248550D02*
X467906Y248453D01*
X466753Y247975D01*
X465763Y247215D01*
X465003Y246225D01*
X464525Y245072D01*
X464428Y244335D01*
X468643D01*
Y248550D01*
D02*
G37*
G36*
X281045Y247272D02*
X277576D01*
X277648Y246727D01*
X278051Y245754D01*
X278692Y244919D01*
X279528Y244278D01*
X280501Y243875D01*
X281045Y243803D01*
Y247272D01*
D02*
G37*
G36*
X285514D02*
X282045D01*
Y243803D01*
X282589Y243875D01*
X283562Y244278D01*
X284398Y244919D01*
X285039Y245754D01*
X285442Y246727D01*
X285514Y247272D01*
D02*
G37*
G36*
X271545Y251806D02*
X270501Y251669D01*
X269528Y251266D01*
X268692Y250624D01*
X268051Y249789D01*
X267648Y248816D01*
X267510Y247772D01*
X267648Y246727D01*
X268051Y245754D01*
X268692Y244919D01*
X269528Y244278D01*
X270501Y243875D01*
X271545Y243737D01*
X272589Y243875D01*
X273562Y244278D01*
X274398Y244919D01*
X275039Y245754D01*
X275442Y246727D01*
X275579Y247772D01*
X275442Y248816D01*
X275039Y249789D01*
X274398Y250624D01*
X273562Y251266D01*
X272589Y251669D01*
X271545Y251806D01*
D02*
G37*
G36*
X241297Y247365D02*
Y243547D01*
X245115D01*
X245031Y244182D01*
X244593Y245239D01*
X243897Y246147D01*
X242989Y246844D01*
X241932Y247282D01*
X241297Y247365D01*
D02*
G37*
G36*
X333029Y247365D02*
Y243547D01*
X336847D01*
X336764Y244182D01*
X336326Y245239D01*
X335629Y246147D01*
X334721Y246844D01*
X333664Y247282D01*
X333029Y247365D01*
D02*
G37*
G36*
X332029Y247365D02*
X331395Y247282D01*
X330337Y246844D01*
X329429Y246147D01*
X328732Y245239D01*
X328294Y244182D01*
X328211Y243547D01*
X332029D01*
Y247365D01*
D02*
G37*
G36*
X240297Y247365D02*
X239662Y247282D01*
X238605Y246844D01*
X237697Y246147D01*
X237000Y245239D01*
X236562Y244182D01*
X236479Y243547D01*
X240297D01*
Y247365D01*
D02*
G37*
G36*
X501978Y247623D02*
X500997Y247494D01*
X500084Y247115D01*
X499299Y246513D01*
X498697Y245729D01*
X498319Y244815D01*
X498190Y243835D01*
X498319Y242854D01*
X498639Y242080D01*
X492164Y235604D01*
X483120D01*
X482691Y235519D01*
X482328Y235276D01*
X476718Y229666D01*
X476475Y229303D01*
X476390Y228874D01*
Y212704D01*
X472485Y208800D01*
X472242Y208436D01*
X472157Y208008D01*
Y201217D01*
X472242Y200788D01*
X472485Y200425D01*
X479441Y193469D01*
Y186818D01*
X465530Y172907D01*
X463927D01*
X463498Y172822D01*
X463135Y172579D01*
X458391Y167835D01*
X458148Y167472D01*
X458063Y167043D01*
Y157921D01*
X457202D01*
Y148843D01*
X461163D01*
Y157921D01*
X460303D01*
Y166579D01*
X464391Y170668D01*
X465994D01*
X466422Y170753D01*
X466786Y170995D01*
X481353Y185562D01*
X481595Y185926D01*
X481681Y186354D01*
Y193933D01*
X481595Y194362D01*
X481353Y194725D01*
X474397Y201680D01*
Y207544D01*
X478301Y211448D01*
X478544Y211812D01*
X478629Y212240D01*
Y221522D01*
X479129Y221692D01*
X479299Y221471D01*
X480084Y220869D01*
X480997Y220490D01*
X481978Y220361D01*
X482958Y220490D01*
X483872Y220869D01*
X484657Y221471D01*
X485259Y222255D01*
X485637Y223169D01*
X485766Y224150D01*
X485637Y225130D01*
X485259Y226044D01*
X484657Y226828D01*
X483872Y227430D01*
X482958Y227809D01*
X481978Y227938D01*
X480997Y227809D01*
X480084Y227430D01*
X479299Y226828D01*
X479129Y226607D01*
X478629Y226777D01*
Y228410D01*
X483584Y233364D01*
X492627D01*
X493056Y233450D01*
X493420Y233692D01*
X500223Y240496D01*
X500997Y240176D01*
X501978Y240046D01*
X502958Y240176D01*
X503872Y240554D01*
X504657Y241156D01*
X505259Y241940D01*
X505637Y242854D01*
X505766Y243835D01*
X505637Y244815D01*
X505259Y245729D01*
X504657Y246513D01*
X503872Y247115D01*
X502958Y247494D01*
X501978Y247623D01*
D02*
G37*
G36*
X491978D02*
X490998Y247494D01*
X490084Y247115D01*
X489299Y246513D01*
X488697Y245729D01*
X488319Y244815D01*
X488190Y243835D01*
X488319Y242854D01*
X488697Y241940D01*
X489299Y241156D01*
X490084Y240554D01*
X490998Y240176D01*
X491978Y240046D01*
X492958Y240176D01*
X493872Y240554D01*
X494657Y241156D01*
X495259Y241940D01*
X495637Y242854D01*
X495766Y243835D01*
X495637Y244815D01*
X495259Y245729D01*
X494657Y246513D01*
X493872Y247115D01*
X492958Y247494D01*
X491978Y247623D01*
D02*
G37*
G36*
X481978D02*
X480998Y247494D01*
X480084Y247115D01*
X479299Y246513D01*
X478697Y245729D01*
X478319Y244815D01*
X478190Y243835D01*
X478319Y242854D01*
X478697Y241940D01*
X479299Y241156D01*
X480084Y240554D01*
X480998Y240176D01*
X481978Y240046D01*
X482958Y240176D01*
X483872Y240554D01*
X484657Y241156D01*
X485259Y241940D01*
X485637Y242854D01*
X485766Y243835D01*
X485637Y244815D01*
X485259Y245729D01*
X484657Y246513D01*
X483872Y247115D01*
X482958Y247494D01*
X481978Y247623D01*
D02*
G37*
G36*
X400443Y247623D02*
X399462Y247494D01*
X398548Y247115D01*
X397764Y246513D01*
X397162Y245729D01*
X396783Y244815D01*
X396654Y243835D01*
X396783Y242854D01*
X397162Y241940D01*
X397764Y241156D01*
X398548Y240554D01*
X399462Y240176D01*
X400443Y240046D01*
X401423Y240176D01*
X402337Y240554D01*
X403121Y241156D01*
X403723Y241940D01*
X404102Y242854D01*
X404231Y243835D01*
X404102Y244815D01*
X403723Y245729D01*
X403121Y246513D01*
X402337Y247115D01*
X401423Y247494D01*
X400443Y247623D01*
D02*
G37*
G36*
X390442D02*
X389462Y247494D01*
X388548Y247115D01*
X387764Y246513D01*
X387162Y245729D01*
X386783Y244815D01*
X386654Y243835D01*
X386783Y242854D01*
X387162Y241940D01*
X387764Y241156D01*
X388548Y240554D01*
X389462Y240176D01*
X390442Y240046D01*
X391423Y240176D01*
X392337Y240554D01*
X393121Y241156D01*
X393723Y241940D01*
X394102Y242854D01*
X394231Y243835D01*
X394102Y244815D01*
X393723Y245729D01*
X393121Y246513D01*
X392337Y247115D01*
X391423Y247494D01*
X390442Y247623D01*
D02*
G37*
G36*
X380443D02*
X379462Y247494D01*
X378548Y247115D01*
X377764Y246513D01*
X377162Y245729D01*
X376783Y244815D01*
X376654Y243835D01*
X376783Y242854D01*
X377162Y241940D01*
X377764Y241156D01*
X378548Y240554D01*
X379462Y240176D01*
X380443Y240046D01*
X381423Y240176D01*
X382337Y240554D01*
X383121Y241156D01*
X383723Y241940D01*
X384102Y242854D01*
X384231Y243835D01*
X384102Y244815D01*
X383723Y245729D01*
X383121Y246513D01*
X382337Y247115D01*
X381423Y247494D01*
X380443Y247623D01*
D02*
G37*
G36*
X177592Y256766D02*
X118159D01*
X117730Y256680D01*
X117367Y256438D01*
X90989Y230060D01*
X90746Y229696D01*
X90661Y229268D01*
Y222685D01*
X86454D01*
Y217543D01*
X97108D01*
Y218994D01*
X98265D01*
Y218134D01*
X103407D01*
Y223472D01*
X98265D01*
Y221234D01*
X97108D01*
Y222685D01*
X92901D01*
Y228804D01*
X118623Y254526D01*
X177128D01*
X187102Y244551D01*
X186990Y244280D01*
X186990D01*
Y239531D01*
X195675D01*
Y244280D01*
X189963D01*
Y244395D01*
X189878Y244823D01*
X189635Y245186D01*
X178384Y256438D01*
X178021Y256680D01*
X177592Y256766D01*
D02*
G37*
G36*
X473858Y243335D02*
X469643D01*
Y239120D01*
X470381Y239216D01*
X471534Y239694D01*
X472524Y240454D01*
X473284Y241444D01*
X473761Y242597D01*
X473858Y243335D01*
D02*
G37*
G36*
X468643D02*
X464428D01*
X464525Y242597D01*
X465003Y241444D01*
X465763Y240454D01*
X466753Y239694D01*
X467906Y239216D01*
X468643Y239120D01*
Y243335D01*
D02*
G37*
G36*
X332029Y242547D02*
X328211D01*
X328294Y241913D01*
X328732Y240855D01*
X329429Y239947D01*
X330337Y239251D01*
X331395Y238813D01*
X332029Y238729D01*
Y242547D01*
D02*
G37*
G36*
X245115D02*
X241297D01*
Y238729D01*
X241932Y238813D01*
X242989Y239251D01*
X243897Y239947D01*
X244593Y240855D01*
X245031Y241913D01*
X245115Y242547D01*
D02*
G37*
G36*
X240297D02*
X236479D01*
X236562Y241913D01*
X237000Y240855D01*
X237697Y239947D01*
X238605Y239251D01*
X239662Y238813D01*
X240297Y238729D01*
Y242547D01*
D02*
G37*
G36*
X336847D02*
X333029D01*
Y238729D01*
X333664Y238813D01*
X334721Y239251D01*
X335629Y239947D01*
X336326Y240855D01*
X336764Y241913D01*
X336847Y242547D01*
D02*
G37*
G36*
X312844Y247431D02*
X311709Y247282D01*
X310652Y246844D01*
X309744Y246147D01*
X309047Y245239D01*
X308610Y244182D01*
X308460Y243047D01*
X308610Y241913D01*
X309047Y240855D01*
X309744Y239947D01*
X310652Y239251D01*
X311709Y238813D01*
X312844Y238663D01*
X313979Y238813D01*
X315036Y239251D01*
X315944Y239947D01*
X316641Y240855D01*
X317079Y241913D01*
X317228Y243047D01*
X317079Y244182D01*
X316641Y245239D01*
X315944Y246147D01*
X315036Y246844D01*
X313979Y247282D01*
X312844Y247431D01*
D02*
G37*
G36*
X221112D02*
X219977Y247282D01*
X218920Y246844D01*
X218012Y246147D01*
X217315Y245239D01*
X216877Y244182D01*
X216728Y243047D01*
X216877Y241913D01*
X217315Y240855D01*
X218012Y239947D01*
X218920Y239251D01*
X219977Y238813D01*
X221112Y238663D01*
X222246Y238813D01*
X223304Y239251D01*
X224212Y239947D01*
X224908Y240855D01*
X225346Y241913D01*
X225496Y243047D01*
X225346Y244182D01*
X224908Y245239D01*
X224212Y246147D01*
X223304Y246844D01*
X222246Y247282D01*
X221112Y247431D01*
D02*
G37*
G36*
X148868D02*
X147733Y247282D01*
X146676Y246844D01*
X145768Y246147D01*
X145071Y245239D01*
X144633Y244182D01*
X144484Y243047D01*
X144633Y241913D01*
X145071Y240855D01*
X145080Y240844D01*
X134261Y230024D01*
X134018Y229661D01*
X133933Y229232D01*
Y211980D01*
X134018Y211552D01*
X134261Y211188D01*
X137682Y207767D01*
X138045Y207524D01*
X138128Y207508D01*
Y206579D01*
X145435D01*
Y207439D01*
X146198D01*
Y204886D01*
X151537D01*
Y206337D01*
X152734D01*
X164283Y194788D01*
Y193244D01*
X163833Y192944D01*
X163352Y192224D01*
X163183Y191374D01*
X163352Y190525D01*
X163833Y189804D01*
X164554Y189323D01*
X165403Y189154D01*
X166253Y189323D01*
X166973Y189804D01*
X167454Y190525D01*
X167623Y191374D01*
X167454Y192224D01*
X166973Y192944D01*
X166523Y193244D01*
Y195251D01*
X166438Y195680D01*
X166195Y196043D01*
X153990Y208249D01*
X153626Y208491D01*
X153198Y208577D01*
X151537D01*
Y210028D01*
X146198D01*
Y209679D01*
X145435D01*
Y210539D01*
X138128D01*
X138128Y210539D01*
Y210539D01*
X137773Y210844D01*
X136173Y212444D01*
Y228768D01*
X146664Y239260D01*
X146676Y239251D01*
X147733Y238813D01*
X148868Y238663D01*
X150002Y238813D01*
X151060Y239251D01*
X151968Y239947D01*
X152664Y240855D01*
X153102Y241913D01*
X153252Y243047D01*
X153102Y244182D01*
X152664Y245239D01*
X151968Y246147D01*
X151060Y246844D01*
X150002Y247282D01*
X148868Y247431D01*
D02*
G37*
G36*
X168116Y244280D02*
X159431D01*
Y239531D01*
X161739D01*
X162007Y239032D01*
X161722Y238606D01*
X161553Y237757D01*
X161722Y236907D01*
X162204Y236187D01*
X162924Y235706D01*
X163773Y235537D01*
X164623Y235706D01*
X165343Y236187D01*
X165824Y236907D01*
X165993Y237757D01*
X165824Y238606D01*
X165540Y239032D01*
X165807Y239531D01*
X168116D01*
Y244280D01*
D02*
G37*
G36*
Y234280D02*
X159431D01*
Y233898D01*
X158931Y233635D01*
X158428Y233971D01*
X157578Y234140D01*
X156729Y233971D01*
X156009Y233490D01*
X155527Y232769D01*
X155359Y231920D01*
X155527Y231070D01*
X156009Y230350D01*
X156729Y229869D01*
X157578Y229700D01*
X158428Y229869D01*
X158931Y230205D01*
X159431Y229942D01*
Y229532D01*
X168116D01*
Y234280D01*
D02*
G37*
G36*
X185876Y269682D02*
X184535Y269506D01*
X183286Y268988D01*
X182214Y268166D01*
X181391Y267093D01*
X180874Y265844D01*
X180697Y264504D01*
X180874Y263164D01*
X181391Y261915D01*
X182214Y260842D01*
X183286Y260019D01*
X184535Y259502D01*
X185876Y259326D01*
X187216Y259502D01*
X188465Y260019D01*
X188641Y260155D01*
X198968Y249828D01*
Y235776D01*
X198187D01*
Y233026D01*
X195675D01*
Y234280D01*
X186990D01*
Y229532D01*
X195675D01*
Y230786D01*
X198187D01*
Y227878D01*
X202147D01*
Y235776D01*
X201208D01*
Y250291D01*
X201123Y250720D01*
X200880Y251083D01*
X190225Y261738D01*
X190360Y261915D01*
X190877Y263164D01*
X191054Y264504D01*
X190877Y265844D01*
X190360Y267093D01*
X189537Y268166D01*
X188465Y268988D01*
X187216Y269506D01*
X185876Y269682D01*
D02*
G37*
G36*
X212147Y235776D02*
X210566D01*
Y232226D01*
X212147D01*
Y235776D01*
D02*
G37*
G36*
X209767D02*
X208187D01*
Y232226D01*
X209767D01*
Y235776D01*
D02*
G37*
G36*
X212147Y231427D02*
X210566D01*
Y227878D01*
X212147D01*
Y231427D01*
D02*
G37*
G36*
X209767D02*
X208187D01*
Y227878D01*
X209767D01*
Y231427D01*
D02*
G37*
G36*
X221612Y228271D02*
Y224453D01*
X225430D01*
X225346Y225087D01*
X224908Y226145D01*
X224212Y227053D01*
X223304Y227749D01*
X222246Y228187D01*
X221612Y228271D01*
D02*
G37*
G36*
X220612D02*
X219977Y228187D01*
X218920Y227749D01*
X218012Y227053D01*
X217315Y226145D01*
X216877Y225087D01*
X216794Y224453D01*
X220612D01*
Y228271D01*
D02*
G37*
G36*
X195675Y224280D02*
X186990D01*
Y223025D01*
X168116D01*
Y224280D01*
X159431D01*
Y219531D01*
X168116D01*
Y220786D01*
X186990D01*
Y219531D01*
X195675D01*
Y224280D01*
D02*
G37*
G36*
X313151Y226228D02*
X307830D01*
Y222581D01*
X313151D01*
Y226228D01*
D02*
G37*
G36*
X307031D02*
X301710D01*
Y222581D01*
X307031D01*
Y226228D01*
D02*
G37*
G36*
X265640Y226130D02*
X258941D01*
Y222581D01*
X265640D01*
Y226130D01*
D02*
G37*
G36*
X258142D02*
X251443D01*
Y222581D01*
X258142D01*
Y226130D01*
D02*
G37*
G36*
X109509Y223472D02*
X107338D01*
Y221203D01*
X109509D01*
Y223472D01*
D02*
G37*
G36*
X106539D02*
X104368D01*
Y221203D01*
X106539D01*
Y223472D01*
D02*
G37*
G36*
X400600Y227938D02*
X399620Y227809D01*
X398706Y227430D01*
X397921Y226828D01*
X397319Y226044D01*
X396941Y225130D01*
X396812Y224150D01*
X396941Y223169D01*
X397319Y222255D01*
X397921Y221471D01*
X398706Y220869D01*
X399620Y220490D01*
X400600Y220361D01*
X401580Y220490D01*
X402494Y220869D01*
X403279Y221471D01*
X403881Y222255D01*
X404259Y223169D01*
X404388Y224150D01*
X404259Y225130D01*
X403881Y226044D01*
X403279Y226828D01*
X402494Y227430D01*
X401580Y227809D01*
X400600Y227938D01*
D02*
G37*
G36*
X390600D02*
X389619Y227809D01*
X388706Y227430D01*
X387921Y226828D01*
X387319Y226044D01*
X386941Y225130D01*
X386812Y224150D01*
X386941Y223169D01*
X387319Y222255D01*
X387921Y221471D01*
X388706Y220869D01*
X389619Y220490D01*
X390600Y220361D01*
X391581Y220490D01*
X392494Y220869D01*
X393279Y221471D01*
X393881Y222255D01*
X394259Y223169D01*
X394388Y224150D01*
X394259Y225130D01*
X393881Y226044D01*
X393279Y226828D01*
X392494Y227430D01*
X391581Y227809D01*
X390600Y227938D01*
D02*
G37*
G36*
X380600D02*
X379620Y227809D01*
X378706Y227430D01*
X377921Y226828D01*
X377319Y226044D01*
X376941Y225130D01*
X376812Y224150D01*
X376941Y223169D01*
X377319Y222255D01*
X377921Y221471D01*
X378706Y220869D01*
X379620Y220490D01*
X380600Y220361D01*
X381580Y220490D01*
X382494Y220869D01*
X383279Y221471D01*
X383881Y222255D01*
X384259Y223169D01*
X384388Y224150D01*
X384259Y225130D01*
X383881Y226044D01*
X383279Y226828D01*
X382494Y227430D01*
X381580Y227809D01*
X380600Y227938D01*
D02*
G37*
G36*
X501978Y227938D02*
X500997Y227809D01*
X500084Y227430D01*
X499299Y226828D01*
X498697Y226044D01*
X498319Y225130D01*
X498190Y224150D01*
X498319Y223169D01*
X498639Y222395D01*
X491868Y215624D01*
X483710D01*
X483282Y215539D01*
X482918Y215296D01*
X475241Y207619D01*
X474998Y207255D01*
X474913Y206827D01*
Y202397D01*
X474998Y201968D01*
X475241Y201605D01*
X482197Y194649D01*
Y183767D01*
X463391Y164961D01*
X463148Y164598D01*
X463063Y164169D01*
Y157921D01*
X462202D01*
Y148843D01*
X466163D01*
Y157921D01*
X465303D01*
Y163705D01*
X484108Y182511D01*
X484351Y182875D01*
X484437Y183303D01*
Y195113D01*
X484351Y195542D01*
X484108Y195905D01*
X477153Y202861D01*
Y206363D01*
X484174Y213384D01*
X492332D01*
X492761Y213469D01*
X493124Y213712D01*
X500223Y220811D01*
X500997Y220490D01*
X501978Y220361D01*
X502958Y220490D01*
X503872Y220869D01*
X504657Y221471D01*
X505259Y222255D01*
X505637Y223169D01*
X505766Y224150D01*
X505637Y225130D01*
X505259Y226044D01*
X504657Y226828D01*
X503872Y227430D01*
X502958Y227809D01*
X501978Y227938D01*
D02*
G37*
G36*
X491978D02*
X490997Y227809D01*
X490084Y227430D01*
X489299Y226828D01*
X488697Y226044D01*
X488319Y225130D01*
X488190Y224150D01*
X488319Y223169D01*
X488697Y222255D01*
X489299Y221471D01*
X490084Y220869D01*
X490997Y220490D01*
X491978Y220361D01*
X492958Y220490D01*
X493872Y220869D01*
X494657Y221471D01*
X495259Y222255D01*
X495637Y223169D01*
X495766Y224150D01*
X495637Y225130D01*
X495259Y226044D01*
X494657Y226828D01*
X493872Y227430D01*
X492958Y227809D01*
X491978Y227938D01*
D02*
G37*
G36*
X225430Y223453D02*
X221612D01*
Y219635D01*
X222246Y219718D01*
X223304Y220156D01*
X224212Y220853D01*
X224908Y221761D01*
X225346Y222818D01*
X225430Y223453D01*
D02*
G37*
G36*
X220612D02*
X216794D01*
X216877Y222818D01*
X217315Y221761D01*
X218012Y220853D01*
X218920Y220156D01*
X219977Y219718D01*
X220612Y219635D01*
Y223453D01*
D02*
G37*
G36*
X240797Y228337D02*
X239662Y228187D01*
X238605Y227749D01*
X237697Y227053D01*
X237000Y226145D01*
X236562Y225087D01*
X236413Y223953D01*
X236562Y222818D01*
X237000Y221761D01*
X237697Y220853D01*
X238605Y220156D01*
X239662Y219718D01*
X240797Y219569D01*
X241932Y219718D01*
X242989Y220156D01*
X243897Y220853D01*
X244593Y221761D01*
X245031Y222818D01*
X245181Y223953D01*
X245031Y225087D01*
X244593Y226145D01*
X243897Y227053D01*
X242989Y227749D01*
X241932Y228187D01*
X240797Y228337D01*
D02*
G37*
G36*
X265640Y221782D02*
X258941D01*
Y218232D01*
X265640D01*
Y221782D01*
D02*
G37*
G36*
X258142D02*
X251443D01*
Y218232D01*
X258142D01*
Y221782D01*
D02*
G37*
G36*
X313151Y221782D02*
X307830D01*
Y218134D01*
X313151D01*
Y221782D01*
D02*
G37*
G36*
X307031D02*
X301710D01*
Y218134D01*
X307031D01*
Y221782D01*
D02*
G37*
G36*
X278395Y234627D02*
X277416Y234498D01*
X276503Y234120D01*
X275719Y233519D01*
X275118Y232735D01*
X274740Y231822D01*
X274611Y230843D01*
X274740Y229863D01*
X275118Y228950D01*
X275719Y228167D01*
X276153Y227834D01*
Y226130D01*
X271297D01*
Y218232D01*
X285494D01*
Y219939D01*
X286946D01*
Y218134D01*
X298387D01*
Y226228D01*
X286946D01*
Y224423D01*
X285494D01*
Y226130D01*
X280637D01*
Y227834D01*
X281071Y228167D01*
X281673Y228950D01*
X282051Y229863D01*
X282180Y230843D01*
X282051Y231822D01*
X281673Y232735D01*
X281071Y233519D01*
X280287Y234120D01*
X279375Y234498D01*
X278395Y234627D01*
D02*
G37*
G36*
X109509Y220404D02*
X107338D01*
Y218134D01*
X109509D01*
Y220404D01*
D02*
G37*
G36*
X106539D02*
X104368D01*
Y218134D01*
X106539D01*
Y220404D01*
D02*
G37*
G36*
X211860Y216797D02*
X211860Y216797D01*
X206742D01*
X206742Y216797D01*
X206392Y216727D01*
X206095Y216529D01*
X206095Y216529D01*
X199750Y210185D01*
X198187D01*
Y202287D01*
X202147D01*
Y209993D01*
X207121Y214967D01*
X211481D01*
X217557Y208891D01*
Y203567D01*
X222698D01*
Y208906D01*
X220130D01*
X212507Y216529D01*
X212210Y216727D01*
X211860Y216797D01*
D02*
G37*
G36*
X152647Y251411D02*
X146269D01*
X145841Y251326D01*
X145477Y251083D01*
X141229Y246835D01*
X141217Y246844D01*
X140160Y247282D01*
X139025Y247431D01*
X137891Y247282D01*
X136833Y246844D01*
X135925Y246147D01*
X135229Y245239D01*
X134791Y244182D01*
X134789Y244167D01*
X133419D01*
X133417Y244182D01*
X132979Y245239D01*
X132283Y246147D01*
X131375Y246844D01*
X130317Y247282D01*
X129183Y247431D01*
X128048Y247282D01*
X126991Y246844D01*
X126083Y246147D01*
X125386Y245239D01*
X124948Y244182D01*
X124799Y243047D01*
X124948Y241913D01*
X125386Y240855D01*
X125395Y240844D01*
X122387Y237835D01*
X122144Y237472D01*
X122059Y237043D01*
Y222783D01*
X120608D01*
Y217445D01*
X125750D01*
Y222783D01*
X124299D01*
Y236579D01*
X126979Y239260D01*
X126991Y239251D01*
X128048Y238813D01*
X129183Y238663D01*
X130317Y238813D01*
X131375Y239251D01*
X132283Y239947D01*
X132979Y240855D01*
X133417Y241913D01*
X133419Y241927D01*
X134789D01*
X134791Y241913D01*
X135229Y240855D01*
X135925Y239947D01*
X136833Y239251D01*
X137891Y238813D01*
X139025Y238663D01*
X140160Y238813D01*
X141217Y239251D01*
X142125Y239947D01*
X142822Y240855D01*
X143260Y241913D01*
X143409Y243047D01*
X143260Y244182D01*
X142822Y245239D01*
X142813Y245251D01*
X146733Y249171D01*
X152183D01*
X154834Y246521D01*
Y239968D01*
X148076Y233209D01*
X147833Y232846D01*
X147748Y232417D01*
Y216130D01*
X146198D01*
Y214679D01*
X145435D01*
Y215539D01*
X138128D01*
Y211579D01*
X145435D01*
Y212439D01*
X146198D01*
Y210988D01*
X151537D01*
Y216130D01*
X149988D01*
Y231954D01*
X156746Y238712D01*
X156989Y239075D01*
X157074Y239504D01*
Y246985D01*
X156989Y247413D01*
X156746Y247777D01*
X153439Y251083D01*
X153076Y251326D01*
X152647Y251411D01*
D02*
G37*
G36*
X103506Y217272D02*
X98167D01*
Y212130D01*
X103506D01*
Y213581D01*
X104368D01*
Y212130D01*
X109706D01*
Y213581D01*
X110568D01*
Y212130D01*
X115907D01*
Y212439D01*
X116671D01*
Y211579D01*
X123978D01*
Y215539D01*
X116671D01*
Y214679D01*
X115907D01*
Y217272D01*
X110568D01*
Y215821D01*
X109706D01*
Y217272D01*
X104368D01*
Y215821D01*
X103506D01*
Y217272D01*
D02*
G37*
G36*
X131852Y222783D02*
X126710D01*
Y217445D01*
X128161D01*
Y211326D01*
X126680Y209845D01*
X123978D01*
Y210539D01*
X116671D01*
Y209679D01*
X115907D01*
Y211169D01*
X110568D01*
Y209718D01*
X109706D01*
Y211169D01*
X104368D01*
Y206028D01*
X109706D01*
Y207478D01*
X110568D01*
Y206028D01*
X115907D01*
Y207439D01*
X116671D01*
Y206579D01*
X123978D01*
Y207605D01*
X127144D01*
X127573Y207691D01*
X127936Y207933D01*
X130073Y210070D01*
X130316Y210434D01*
X130401Y210862D01*
Y217445D01*
X131852D01*
Y222783D01*
D02*
G37*
G36*
X212147Y210185D02*
X210566D01*
Y206636D01*
X212147D01*
Y210185D01*
D02*
G37*
G36*
X209767D02*
X208187D01*
Y206636D01*
X209767D01*
Y210185D01*
D02*
G37*
G36*
X97108Y212055D02*
X86454D01*
Y206913D01*
X97108D01*
Y207478D01*
X98167D01*
Y206028D01*
X103506D01*
Y211169D01*
X98167D01*
Y209718D01*
X97108D01*
Y212055D01*
D02*
G37*
G36*
X126722Y206152D02*
X126051Y206064D01*
X125426Y205805D01*
X124890Y205394D01*
X123978D01*
Y205539D01*
X116671D01*
Y205394D01*
X115314D01*
X114612Y205254D01*
X114017Y204856D01*
X112610Y203449D01*
X112212Y202854D01*
X112089Y202232D01*
X110568D01*
Y197091D01*
X115907D01*
Y201558D01*
X116074Y201725D01*
X116671D01*
Y201579D01*
X123978D01*
Y201725D01*
X124890D01*
X125426Y201313D01*
X126051Y201054D01*
X126722Y200966D01*
X127393Y201054D01*
X128018Y201313D01*
X128556Y201726D01*
X128968Y202263D01*
X129227Y202888D01*
X129315Y203559D01*
X129227Y204230D01*
X128968Y204856D01*
X128556Y205393D01*
X128018Y205805D01*
X127393Y206064D01*
X126722Y206152D01*
D02*
G37*
G36*
X352714Y208586D02*
Y204768D01*
X356532D01*
X356449Y205402D01*
X356011Y206460D01*
X355314Y207368D01*
X354406Y208064D01*
X353349Y208502D01*
X352714Y208586D01*
D02*
G37*
G36*
X351714Y208586D02*
X351080Y208502D01*
X350022Y208064D01*
X349114Y207368D01*
X348417Y206460D01*
X347980Y205402D01*
X347896Y204768D01*
X351714D01*
Y208586D01*
D02*
G37*
G36*
X286478Y207724D02*
X279779D01*
Y203093D01*
X286478D01*
Y207724D01*
D02*
G37*
G36*
X278980D02*
X272281D01*
Y203093D01*
X278980D01*
Y207724D01*
D02*
G37*
G36*
X212147Y205837D02*
X210566D01*
Y202287D01*
X212147D01*
Y205837D01*
D02*
G37*
G36*
X209767D02*
X208187D01*
Y202287D01*
X209767D01*
Y205837D01*
D02*
G37*
G36*
X135383Y206152D02*
X134712Y206064D01*
X134087Y205805D01*
X133550Y205393D01*
X133138Y204856D01*
X132879Y204230D01*
X132790Y203559D01*
X132879Y202888D01*
X133138Y202263D01*
X133550Y201726D01*
X134087Y201313D01*
X134712Y201054D01*
X135383Y200966D01*
X136055Y201054D01*
X136680Y201313D01*
X137217Y201726D01*
X137230Y201743D01*
X138128D01*
Y201579D01*
X145435D01*
Y205539D01*
X138128D01*
Y205376D01*
X137230D01*
X137217Y205393D01*
X136680Y205805D01*
X136055Y206064D01*
X135383Y206152D01*
D02*
G37*
G36*
X491978Y208253D02*
X490998Y208124D01*
X490084Y207745D01*
X489299Y207143D01*
X488697Y206359D01*
X488319Y205445D01*
X488190Y204465D01*
X488319Y203484D01*
X488697Y202571D01*
X489299Y201786D01*
X490084Y201184D01*
X490998Y200805D01*
X491978Y200676D01*
X492958Y200805D01*
X493872Y201184D01*
X494657Y201786D01*
X495259Y202571D01*
X495637Y203484D01*
X495766Y204465D01*
X495637Y205445D01*
X495259Y206359D01*
X494657Y207143D01*
X493872Y207745D01*
X492958Y208124D01*
X491978Y208253D01*
D02*
G37*
G36*
X481978D02*
X480998Y208124D01*
X480084Y207745D01*
X479299Y207143D01*
X478697Y206359D01*
X478319Y205445D01*
X478190Y204465D01*
X478319Y203484D01*
X478697Y202571D01*
X479299Y201786D01*
X480084Y201184D01*
X480998Y200805D01*
X481978Y200676D01*
X482958Y200805D01*
X483872Y201184D01*
X484657Y201786D01*
X485259Y202571D01*
X485637Y203484D01*
X485766Y204465D01*
X485637Y205445D01*
X485259Y206359D01*
X484657Y207143D01*
X483872Y207745D01*
X482958Y208124D01*
X481978Y208253D01*
D02*
G37*
G36*
X390600D02*
X389619Y208124D01*
X388706Y207745D01*
X387921Y207143D01*
X387319Y206359D01*
X386941Y205445D01*
X386812Y204465D01*
X386941Y203484D01*
X387319Y202571D01*
X387921Y201786D01*
X388706Y201184D01*
X389619Y200805D01*
X390600Y200676D01*
X391581Y200805D01*
X392494Y201184D01*
X393279Y201786D01*
X393881Y202571D01*
X394259Y203484D01*
X394388Y204465D01*
X394259Y205445D01*
X393881Y206359D01*
X393279Y207143D01*
X392494Y207745D01*
X391581Y208124D01*
X390600Y208253D01*
D02*
G37*
G36*
X154281Y201152D02*
X153610Y201064D01*
X152984Y200805D01*
X152447Y200393D01*
X152434Y200376D01*
X151537D01*
Y201130D01*
X146198D01*
Y200376D01*
X145435D01*
Y200539D01*
X138128D01*
Y196579D01*
X145435D01*
Y196743D01*
X146198D01*
Y195988D01*
X151537D01*
Y196743D01*
X152434D01*
X152447Y196725D01*
X152984Y196314D01*
X153610Y196054D01*
X154281Y195966D01*
X154952Y196054D01*
X155578Y196314D01*
X156115Y196725D01*
X156527Y197263D01*
X156786Y197888D01*
X156874Y198559D01*
X156786Y199230D01*
X156527Y199856D01*
X156115Y200393D01*
X155578Y200805D01*
X154952Y201064D01*
X154281Y201152D01*
D02*
G37*
G36*
X351714Y203768D02*
X347896D01*
X347980Y203133D01*
X348417Y202076D01*
X349114Y201168D01*
X350022Y200471D01*
X351080Y200033D01*
X351714Y199950D01*
Y203768D01*
D02*
G37*
G36*
X356532D02*
X352714D01*
Y199950D01*
X353349Y200033D01*
X354406Y200471D01*
X355314Y201168D01*
X356011Y202076D01*
X356449Y203133D01*
X356532Y203768D01*
D02*
G37*
G36*
X317482Y206613D02*
X313933D01*
Y199915D01*
X317482D01*
Y206613D01*
D02*
G37*
G36*
X313133D02*
X309584D01*
Y199915D01*
X313133D01*
Y206613D01*
D02*
G37*
G36*
X212738Y200881D02*
X210566D01*
Y199399D01*
X212738D01*
Y200881D01*
D02*
G37*
G36*
X209767D02*
X207596D01*
Y199399D01*
X209767D01*
Y200881D01*
D02*
G37*
G36*
X123978Y200539D02*
X120724D01*
Y198959D01*
X123978D01*
Y200539D01*
D02*
G37*
G36*
X119925D02*
X116671D01*
Y198959D01*
X119925D01*
Y200539D01*
D02*
G37*
G36*
X286478Y202293D02*
X279779D01*
Y197661D01*
X286478D01*
Y202293D01*
D02*
G37*
G36*
X278980D02*
X272281D01*
Y197661D01*
X278980D01*
Y202293D01*
D02*
G37*
G36*
X212738Y198600D02*
X210566D01*
Y197117D01*
X212738D01*
Y198600D01*
D02*
G37*
G36*
X209767D02*
X207596D01*
Y197117D01*
X209767D01*
Y198600D01*
D02*
G37*
G36*
X123978Y198160D02*
X120724D01*
Y196579D01*
X123978D01*
Y198160D01*
D02*
G37*
G36*
X119925D02*
X116671D01*
Y196579D01*
X119925D01*
Y198160D01*
D02*
G37*
G36*
X195675Y214280D02*
X186990D01*
Y209531D01*
X189498D01*
Y204870D01*
X188958D01*
Y201697D01*
X189498D01*
Y200785D01*
X189087Y200249D01*
X188828Y199624D01*
X188739Y198953D01*
X188828Y198282D01*
X189087Y197656D01*
X189499Y197119D01*
X190036Y196707D01*
X190661Y196448D01*
X191332Y196360D01*
X192003Y196448D01*
X192629Y196707D01*
X193166Y197119D01*
X193578Y197656D01*
X193837Y198282D01*
X193925Y198953D01*
X193837Y199624D01*
X193578Y200249D01*
X193167Y200785D01*
Y201697D01*
X193706D01*
Y204870D01*
X193167D01*
Y209531D01*
X195675D01*
Y214280D01*
D02*
G37*
G36*
X222600Y196550D02*
X217458D01*
Y194796D01*
X212738D01*
Y195763D01*
X207596D01*
Y191999D01*
X212738D01*
Y192966D01*
X217458D01*
Y191212D01*
X222600D01*
Y196550D01*
D02*
G37*
G36*
X168116Y214280D02*
X159431D01*
Y209531D01*
X168116D01*
Y210467D01*
X175916D01*
X180838Y205544D01*
Y204870D01*
X179903D01*
Y201697D01*
X180838D01*
Y200136D01*
X180838Y200136D01*
X180948Y199585D01*
X181260Y199119D01*
X187515Y192864D01*
X187515Y192864D01*
X187982Y192552D01*
X188532Y192442D01*
X188532Y192442D01*
X193764D01*
X193764Y192442D01*
X194315Y192552D01*
X194782Y192864D01*
X196919Y195001D01*
X198738D01*
Y194558D01*
X203879D01*
Y198322D01*
X198738D01*
Y197879D01*
X196323D01*
X196323Y197879D01*
X195773Y197770D01*
X195306Y197458D01*
X195306Y197458D01*
X193168Y195320D01*
X189128D01*
X183716Y200732D01*
Y201697D01*
X184651D01*
Y204870D01*
X183716D01*
Y206140D01*
X183716Y206140D01*
X183607Y206691D01*
X183295Y207158D01*
X183295Y207158D01*
X177529Y212923D01*
X177062Y213235D01*
X176512Y213345D01*
X176512Y213345D01*
X168116D01*
Y214280D01*
D02*
G37*
G36*
X105475Y203614D02*
X104625Y203445D01*
X103905Y202963D01*
X103424Y202243D01*
X103255Y201394D01*
X103424Y200544D01*
X103905Y199824D01*
X104355Y199524D01*
Y196012D01*
X101231D01*
Y194167D01*
X100356D01*
Y195618D01*
X95017D01*
Y190476D01*
X100356D01*
Y191927D01*
X101231D01*
Y190083D01*
X109719D01*
Y196012D01*
X106595D01*
Y199524D01*
X107044Y199824D01*
X107526Y200544D01*
X107695Y201394D01*
X107526Y202243D01*
X107044Y202963D01*
X106324Y203445D01*
X105475Y203614D01*
D02*
G37*
G36*
X151537Y195028D02*
X149267D01*
Y192856D01*
X151537D01*
Y195028D01*
D02*
G37*
G36*
X148468D02*
X146198D01*
Y192856D01*
X148468D01*
Y195028D01*
D02*
G37*
G36*
X416163Y195323D02*
X412202D01*
Y192618D01*
X409411D01*
Y193354D01*
X404072D01*
Y192618D01*
X403175D01*
X402640Y193029D01*
X402014Y193288D01*
X401343Y193377D01*
X400672Y193288D01*
X400047Y193029D01*
X399510Y192617D01*
X399097Y192080D01*
X398838Y191455D01*
X398750Y190784D01*
X398838Y190112D01*
X399097Y189487D01*
X399510Y188950D01*
X400047Y188538D01*
X400672Y188279D01*
X401343Y188190D01*
X402014Y188279D01*
X402640Y188538D01*
X403175Y188949D01*
X404072D01*
Y188213D01*
X409411D01*
Y188949D01*
X412202D01*
Y186244D01*
X416163D01*
Y195323D01*
D02*
G37*
G36*
X317482Y199115D02*
X313933D01*
Y192417D01*
X317482D01*
Y199115D01*
D02*
G37*
G36*
X313133D02*
X309584D01*
Y192417D01*
X313133D01*
Y199115D01*
D02*
G37*
G36*
X115907Y196130D02*
X110568D01*
Y190988D01*
X112118D01*
Y190106D01*
X110568D01*
Y184965D01*
X115907D01*
Y190106D01*
X114358D01*
Y190988D01*
X115907D01*
Y192439D01*
X116671D01*
Y191579D01*
X123978D01*
Y195539D01*
X116671D01*
Y194679D01*
X115907D01*
Y196130D01*
D02*
G37*
G36*
X431163Y195323D02*
X429582D01*
Y191183D01*
X431163D01*
Y195323D01*
D02*
G37*
G36*
X428783D02*
X427202D01*
Y191183D01*
X428783D01*
Y195323D01*
D02*
G37*
G36*
X151537Y192057D02*
X149267D01*
Y189886D01*
X151537D01*
Y192057D01*
D02*
G37*
G36*
X148468D02*
X146198D01*
Y189886D01*
X148468D01*
Y192057D01*
D02*
G37*
G36*
X471163Y195323D02*
X467202D01*
Y186244D01*
X471163D01*
Y189664D01*
X471683D01*
X471983Y189214D01*
X472703Y188733D01*
X473553Y188564D01*
X474402Y188733D01*
X475122Y189214D01*
X475603Y189934D01*
X475772Y190784D01*
X475603Y191633D01*
X475122Y192353D01*
X474402Y192834D01*
X473553Y193003D01*
X472703Y192834D01*
X471983Y192353D01*
X471683Y191903D01*
X471163D01*
Y195323D01*
D02*
G37*
G36*
X174565Y189654D02*
X169423D01*
Y188104D01*
X162068D01*
Y188886D01*
X156927D01*
Y178232D01*
X162068D01*
Y185864D01*
X169423D01*
Y184315D01*
X174565D01*
Y189654D01*
D02*
G37*
G36*
X100356Y189516D02*
X98086D01*
Y187345D01*
X100356D01*
Y189516D01*
D02*
G37*
G36*
X97287D02*
X95017D01*
Y187345D01*
X97287D01*
Y189516D01*
D02*
G37*
G36*
X464183Y200090D02*
X463333Y199921D01*
X462613Y199440D01*
X462132Y198720D01*
X461963Y197870D01*
X462132Y197021D01*
X462613Y196300D01*
X463063Y196000D01*
Y195323D01*
X462202D01*
Y186244D01*
X466163D01*
Y195323D01*
X465303D01*
Y196000D01*
X465752Y196300D01*
X466233Y197021D01*
X466402Y197870D01*
X466233Y198720D01*
X465752Y199440D01*
X465032Y199921D01*
X464183Y200090D01*
D02*
G37*
G36*
X459183Y204224D02*
X458333Y204055D01*
X457613Y203574D01*
X457132Y202853D01*
X456963Y202004D01*
X457132Y201154D01*
X457613Y200434D01*
X458063Y200134D01*
Y195323D01*
X457202D01*
Y186244D01*
X461163D01*
Y195323D01*
X460303D01*
Y200134D01*
X460752Y200434D01*
X461234Y201154D01*
X461403Y202004D01*
X461234Y202853D01*
X460752Y203574D01*
X460032Y204055D01*
X459183Y204224D01*
D02*
G37*
G36*
X454183Y208259D02*
X453333Y208090D01*
X452613Y207609D01*
X452132Y206889D01*
X451963Y206039D01*
X452132Y205190D01*
X452613Y204470D01*
X453063Y204169D01*
Y195323D01*
X452202D01*
Y186244D01*
X456163D01*
Y195323D01*
X455303D01*
Y204169D01*
X455752Y204470D01*
X456234Y205190D01*
X456402Y206039D01*
X456234Y206889D01*
X455752Y207609D01*
X455032Y208090D01*
X454183Y208259D01*
D02*
G37*
G36*
X449183D02*
X448333Y208090D01*
X447613Y207609D01*
X447132Y206889D01*
X446963Y206039D01*
X447132Y205190D01*
X447613Y204470D01*
X448063Y204169D01*
Y195323D01*
X447202D01*
Y186244D01*
X451163D01*
Y195323D01*
X450303D01*
Y204169D01*
X450752Y204470D01*
X451233Y205190D01*
X451403Y206039D01*
X451233Y206889D01*
X450752Y207609D01*
X450032Y208090D01*
X449183Y208259D01*
D02*
G37*
G36*
X444183Y204224D02*
X443333Y204055D01*
X442613Y203574D01*
X442132Y202853D01*
X441963Y202004D01*
X442132Y201154D01*
X442613Y200434D01*
X443063Y200134D01*
Y195323D01*
X442202D01*
Y186244D01*
X446163D01*
Y195323D01*
X445303D01*
Y200134D01*
X445752Y200434D01*
X446234Y201154D01*
X446403Y202004D01*
X446234Y202853D01*
X445752Y203574D01*
X445032Y204055D01*
X444183Y204224D01*
D02*
G37*
G36*
X439124Y200090D02*
X438274Y199921D01*
X437554Y199440D01*
X437073Y198720D01*
X436904Y197870D01*
X437073Y197021D01*
X437554Y196300D01*
X438063Y195960D01*
Y195323D01*
X437202D01*
Y186244D01*
X441163D01*
Y195323D01*
X440303D01*
Y196039D01*
X440693Y196300D01*
X441174Y197021D01*
X441343Y197870D01*
X441174Y198720D01*
X440693Y199440D01*
X439973Y199921D01*
X439124Y200090D01*
D02*
G37*
G36*
X400600Y208253D02*
X399620Y208124D01*
X398706Y207745D01*
X397921Y207143D01*
X397319Y206359D01*
X396941Y205445D01*
X396812Y204465D01*
X396941Y203484D01*
X397319Y202571D01*
X397921Y201786D01*
X398706Y201184D01*
X399620Y200805D01*
X400600Y200676D01*
X401580Y200805D01*
X402494Y201184D01*
X403279Y201786D01*
X403881Y202571D01*
X404201Y203345D01*
X428030D01*
X433063Y198312D01*
Y195323D01*
X432202D01*
Y186244D01*
X436163D01*
Y195323D01*
X435303D01*
Y198776D01*
X435217Y199204D01*
X434975Y199568D01*
X429286Y205257D01*
X428922Y205499D01*
X428494Y205585D01*
X404201D01*
X403881Y206359D01*
X403279Y207143D01*
X402494Y207745D01*
X401580Y208124D01*
X400600Y208253D01*
D02*
G37*
G36*
X431163Y190384D02*
X429582D01*
Y186244D01*
X431163D01*
Y190384D01*
D02*
G37*
G36*
X428783D02*
X427202D01*
Y186244D01*
X428783D01*
Y190384D01*
D02*
G37*
G36*
X426163Y195323D02*
X422202D01*
Y186244D01*
X426163D01*
Y195323D01*
D02*
G37*
G36*
X264628Y188335D02*
X262358D01*
Y186163D01*
X264628D01*
Y188335D01*
D02*
G37*
G36*
X299470D02*
X297200D01*
Y186163D01*
X299470D01*
Y188335D01*
D02*
G37*
G36*
X296401D02*
X294131D01*
Y186163D01*
X296401D01*
Y188335D01*
D02*
G37*
G36*
X261559D02*
X259289D01*
Y186163D01*
X261559D01*
Y188335D01*
D02*
G37*
G36*
X409411Y187252D02*
X407141D01*
Y185081D01*
X409411D01*
Y187252D01*
D02*
G37*
G36*
X406342D02*
X404072D01*
Y185081D01*
X406342D01*
Y187252D01*
D02*
G37*
G36*
X100356Y186545D02*
X98086D01*
Y184374D01*
X100356D01*
Y186545D01*
D02*
G37*
G36*
X97287D02*
X95017D01*
Y184374D01*
X97287D01*
Y186545D01*
D02*
G37*
G36*
X299470Y185364D02*
X297200D01*
Y183193D01*
X299470D01*
Y185364D01*
D02*
G37*
G36*
X296401D02*
X294131D01*
Y183193D01*
X296401D01*
Y185364D01*
D02*
G37*
G36*
X264628D02*
X262358D01*
Y183193D01*
X264628D01*
Y185364D01*
D02*
G37*
G36*
X261559D02*
X259289D01*
Y183193D01*
X261559D01*
Y185364D01*
D02*
G37*
G36*
X409411Y184282D02*
X407141D01*
Y182110D01*
X409411D01*
Y184282D01*
D02*
G37*
G36*
X406342D02*
X404072D01*
Y182110D01*
X406342D01*
Y184282D01*
D02*
G37*
G36*
X272895Y184693D02*
X267754D01*
Y181903D01*
X264628D01*
Y182232D01*
X259289D01*
Y181903D01*
X258570D01*
X258237Y182337D01*
X257453Y182939D01*
X256540Y183317D01*
X255561Y183446D01*
X254581Y183317D01*
X253668Y182939D01*
X252885Y182337D01*
X252283Y181554D01*
X251905Y180641D01*
X251776Y179661D01*
X251905Y178682D01*
X252283Y177769D01*
X252885Y176986D01*
X253668Y176384D01*
X254581Y176006D01*
X255561Y175877D01*
X256540Y176006D01*
X257453Y176384D01*
X258237Y176986D01*
X258570Y177420D01*
X259289D01*
Y177091D01*
X264628D01*
Y177420D01*
X267754D01*
Y174630D01*
X272895D01*
Y184693D01*
D02*
G37*
G36*
X317482Y186760D02*
X309584D01*
Y181903D01*
X306995D01*
X306662Y182337D01*
X305878Y182939D01*
X304965Y183317D01*
X303986Y183446D01*
X303006Y183317D01*
X302094Y182939D01*
X301310Y182337D01*
X300976Y181903D01*
X299470D01*
Y182232D01*
X294131D01*
Y181903D01*
X291005D01*
Y184693D01*
X285864D01*
Y174630D01*
X291005D01*
Y177420D01*
X294131D01*
Y177091D01*
X299470D01*
Y177420D01*
X300976D01*
X301310Y176986D01*
X302094Y176384D01*
X303006Y176006D01*
X303986Y175877D01*
X304965Y176006D01*
X305878Y176384D01*
X306662Y176986D01*
X306995Y177420D01*
X309584D01*
Y172563D01*
X317482D01*
Y186760D01*
D02*
G37*
G36*
X352214Y188967D02*
X351080Y188817D01*
X350022Y188379D01*
X349114Y187683D01*
X348417Y186775D01*
X347980Y185717D01*
X347830Y184583D01*
X347980Y183448D01*
X348417Y182391D01*
X349114Y181483D01*
X350022Y180786D01*
X351080Y180348D01*
X352214Y180199D01*
X353349Y180348D01*
X354406Y180786D01*
X355314Y181483D01*
X356011Y182391D01*
X356449Y183448D01*
X356598Y184583D01*
X356449Y185717D01*
X356011Y186775D01*
X355314Y187683D01*
X354406Y188379D01*
X353349Y188817D01*
X352214Y188967D01*
D02*
G37*
G36*
X281950Y184693D02*
X279779D01*
Y180061D01*
X281950D01*
Y184693D01*
D02*
G37*
G36*
X278980D02*
X276809D01*
Y180061D01*
X278980D01*
Y184693D01*
D02*
G37*
G36*
X109719Y184398D02*
X101231D01*
Y178469D01*
X109719D01*
Y180313D01*
X110568D01*
Y178862D01*
X115907D01*
Y184004D01*
X110568D01*
Y182553D01*
X109719D01*
Y184398D01*
D02*
G37*
G36*
X145435Y190539D02*
X138128D01*
Y186579D01*
X140661D01*
Y185539D01*
X138128D01*
Y181579D01*
X145435D01*
Y182439D01*
X146297D01*
Y178232D01*
X151439D01*
Y188886D01*
X146297D01*
Y184679D01*
X145435D01*
Y185539D01*
X142901D01*
Y186579D01*
X145435D01*
Y190539D01*
D02*
G37*
G36*
X421163Y195323D02*
X417202D01*
Y186244D01*
X417758D01*
Y186118D01*
X417866Y185573D01*
X418175Y185111D01*
X423549Y179736D01*
X424011Y179428D01*
X424557Y179319D01*
X459516D01*
X459830Y178911D01*
X460366Y178498D01*
X460992Y178240D01*
X461663Y178151D01*
X462334Y178240D01*
X462960Y178498D01*
X463497Y178911D01*
X463909Y179448D01*
X464168Y180073D01*
X464256Y180744D01*
X464168Y181415D01*
X463909Y182041D01*
X463497Y182578D01*
X462960Y182990D01*
X462334Y183249D01*
X461663Y183337D01*
X460992Y183249D01*
X460366Y182990D01*
X459830Y182578D01*
X459516Y182169D01*
X425147D01*
X421441Y185875D01*
X421163Y186244D01*
X421163D01*
X421163Y186244D01*
Y195323D01*
D02*
G37*
G36*
X203844Y181248D02*
X197145D01*
Y177699D01*
X203844D01*
Y181248D01*
D02*
G37*
G36*
X196346D02*
X189647D01*
Y177699D01*
X196346D01*
Y181248D01*
D02*
G37*
G36*
X112265Y177705D02*
X107124D01*
Y176155D01*
X106163D01*
Y177606D01*
X100824D01*
Y172465D01*
X106163D01*
Y173916D01*
X107124D01*
Y167051D01*
X112265D01*
Y177705D01*
D02*
G37*
G36*
X99962Y177606D02*
X97692D01*
Y175435D01*
X99962D01*
Y177606D01*
D02*
G37*
G36*
X96893D02*
X94624D01*
Y175435D01*
X96893D01*
Y177606D01*
D02*
G37*
G36*
X281950Y179262D02*
X279779D01*
Y174630D01*
X281950D01*
Y179262D01*
D02*
G37*
G36*
X278980D02*
X276809D01*
Y174630D01*
X278980D01*
Y179262D01*
D02*
G37*
G36*
X145435Y195539D02*
X138128D01*
Y194640D01*
X137898Y194594D01*
X137534Y194351D01*
X128479Y185296D01*
X128237Y184933D01*
X128151Y184504D01*
Y179673D01*
X126602D01*
Y174532D01*
X131941D01*
Y175982D01*
X132803D01*
Y174532D01*
X138141D01*
Y175982D01*
X139004D01*
Y174532D01*
X144342D01*
Y179673D01*
X139004D01*
Y178222D01*
X138141D01*
Y179673D01*
X132803D01*
Y178222D01*
X131941D01*
Y179673D01*
X130391D01*
Y184040D01*
X137715Y191364D01*
X138128Y191579D01*
Y191579D01*
X138128Y191579D01*
X145435D01*
Y195539D01*
D02*
G37*
G36*
X156655Y175087D02*
X146002D01*
Y173392D01*
X144342D01*
Y173571D01*
X139004D01*
Y168429D01*
X144342D01*
Y171152D01*
X146002D01*
Y169945D01*
X156655D01*
Y175087D01*
D02*
G37*
G36*
X203844Y176900D02*
X197145D01*
Y173351D01*
X203844D01*
Y176900D01*
D02*
G37*
G36*
X196346D02*
X189647D01*
Y173351D01*
X196346D01*
Y176900D01*
D02*
G37*
G36*
X99962Y174636D02*
X97692D01*
Y172465D01*
X99962D01*
Y174636D01*
D02*
G37*
G36*
X96893D02*
X94624D01*
Y172465D01*
X96893D01*
Y174636D01*
D02*
G37*
G36*
X138141Y173571D02*
X135872D01*
Y171400D01*
X138141D01*
Y173571D01*
D02*
G37*
G36*
X135073D02*
X132803D01*
Y171400D01*
X135073D01*
Y173571D01*
D02*
G37*
G36*
X106163Y171504D02*
X100824D01*
Y170053D01*
X99962D01*
Y171504D01*
X94624D01*
Y166362D01*
X99962D01*
Y167813D01*
X100824D01*
Y166362D01*
X102374D01*
Y163925D01*
X98364D01*
Y159965D01*
X102374D01*
Y158925D01*
X98364D01*
Y154965D01*
X108623D01*
Y158925D01*
X104614D01*
Y159965D01*
X108623D01*
Y163925D01*
X104614D01*
Y166362D01*
X106163D01*
Y171504D01*
D02*
G37*
G36*
X165403Y184834D02*
X164554Y184665D01*
X163833Y184184D01*
X163352Y183464D01*
X163183Y182614D01*
X163352Y181765D01*
X163833Y181045D01*
X164554Y180563D01*
X165403Y180394D01*
X165934Y180500D01*
X166442Y179992D01*
X166805Y179749D01*
X167234Y179664D01*
X169423D01*
Y178114D01*
X172006D01*
X172085Y177717D01*
X172328Y177354D01*
X175334Y174347D01*
X175564Y173945D01*
X175564D01*
X175564Y173945D01*
Y168803D01*
X180903D01*
Y173945D01*
X178325D01*
Y174060D01*
X178240Y174488D01*
X177998Y174852D01*
X174565Y178284D01*
Y183453D01*
X169423D01*
Y181904D01*
X167953D01*
X167571Y182351D01*
X167623Y182614D01*
X167454Y183464D01*
X166973Y184184D01*
X166253Y184665D01*
X165403Y184834D01*
D02*
G37*
G36*
X168368Y175087D02*
X157714D01*
Y169945D01*
X168368D01*
Y171396D01*
X169422D01*
Y168803D01*
X174761D01*
Y173945D01*
X169422D01*
Y173636D01*
X168368D01*
Y175087D01*
D02*
G37*
G36*
X138141Y170600D02*
X135872D01*
Y168429D01*
X138141D01*
Y170600D01*
D02*
G37*
G36*
X135073D02*
X132803D01*
Y168429D01*
X135073D01*
Y170600D01*
D02*
G37*
G36*
X156655Y164457D02*
X146002D01*
Y163065D01*
X144843D01*
Y163925D01*
X134584D01*
Y159965D01*
X144843D01*
Y160825D01*
X146002D01*
Y159315D01*
X156655D01*
Y164457D01*
D02*
G37*
G36*
X131941Y173571D02*
X126602D01*
Y168429D01*
X127437D01*
Y166976D01*
X127349Y166908D01*
X126937Y166371D01*
X126678Y165746D01*
X126590Y165075D01*
X126678Y164404D01*
X126937Y163778D01*
X127349Y163241D01*
X127886Y162829D01*
X128512Y162570D01*
X129183Y162482D01*
X129854Y162570D01*
X130479Y162829D01*
X131016Y163241D01*
X131428Y163778D01*
X131687Y164404D01*
X131776Y165075D01*
X131687Y165746D01*
X131428Y166371D01*
X131106Y166792D01*
Y168429D01*
X131941D01*
Y173571D01*
D02*
G37*
G36*
X223698Y181248D02*
X209501D01*
Y173351D01*
X214765D01*
Y169712D01*
X214353Y169176D01*
X214094Y168551D01*
X214006Y167880D01*
X214094Y167209D01*
X214353Y166584D01*
X214765Y166048D01*
Y163433D01*
X212355D01*
Y162303D01*
X211458D01*
Y163433D01*
X202970D01*
Y157504D01*
X211458D01*
Y158634D01*
X212355D01*
Y157504D01*
X220843D01*
Y163433D01*
X218434D01*
Y166048D01*
X218845Y166584D01*
X219104Y167209D01*
X219192Y167880D01*
X219104Y168551D01*
X218845Y169176D01*
X218434Y169712D01*
Y173351D01*
X223698D01*
Y181248D01*
D02*
G37*
G36*
X426033Y161679D02*
X426033Y161679D01*
X411890D01*
X411890Y161679D01*
X411540Y161609D01*
X411243Y161411D01*
X411243Y161411D01*
X397070Y147238D01*
X396872Y146941D01*
X396802Y146591D01*
X396802Y146591D01*
Y142692D01*
X396147Y142255D01*
X395666Y141535D01*
X395497Y140685D01*
X395666Y139836D01*
X396147Y139116D01*
X396868Y138634D01*
X397717Y138465D01*
X398567Y138634D01*
X399287Y139116D01*
X399768Y139836D01*
X399937Y140685D01*
X399768Y141535D01*
X399287Y142255D01*
X398632Y142692D01*
Y146212D01*
X412269Y159849D01*
X425654D01*
X427313Y158189D01*
X427202Y157921D01*
X427202D01*
Y148843D01*
X431163D01*
Y157921D01*
X429993D01*
X429973Y158019D01*
X429775Y158316D01*
X429775Y158316D01*
X426680Y161411D01*
X426383Y161609D01*
X426033Y161679D01*
D02*
G37*
G36*
X97009Y164063D02*
X93165D01*
Y161498D01*
X97009D01*
Y164063D01*
D02*
G37*
G36*
X92366D02*
X88521D01*
Y161498D01*
X92366D01*
Y164063D01*
D02*
G37*
G36*
X202128Y163433D02*
X198283D01*
Y160868D01*
X202128D01*
Y163433D01*
D02*
G37*
G36*
X197484D02*
X193639D01*
Y160868D01*
X197484D01*
Y163433D01*
D02*
G37*
G36*
X97009Y160699D02*
X93165D01*
Y158134D01*
X97009D01*
Y160699D01*
D02*
G37*
G36*
X92366D02*
X88521D01*
Y158134D01*
X92366D01*
Y160699D01*
D02*
G37*
G36*
X202128Y160069D02*
X198283D01*
Y157504D01*
X202128D01*
Y160069D01*
D02*
G37*
G36*
X197484D02*
X193639D01*
Y157504D01*
X197484D01*
Y160069D01*
D02*
G37*
G36*
X168368Y164457D02*
X157714D01*
Y159315D01*
X163693D01*
Y157854D01*
X163193Y157443D01*
X163139Y157454D01*
X162290Y157285D01*
X161570Y156804D01*
X161089Y156084D01*
X160920Y155234D01*
X161089Y154385D01*
X161570Y153665D01*
X162290Y153183D01*
X163139Y153014D01*
X163989Y153183D01*
X164709Y153665D01*
X165190Y154385D01*
X165359Y155234D01*
X165254Y155765D01*
X165604Y156115D01*
X165847Y156479D01*
X165933Y156907D01*
Y159315D01*
X168368D01*
Y164457D01*
D02*
G37*
G36*
X180667Y189654D02*
X175525D01*
Y184315D01*
X176977D01*
Y183453D01*
X175525D01*
Y178114D01*
X179083D01*
X184165Y173033D01*
Y159259D01*
X182076Y157170D01*
X181609Y157035D01*
Y157035D01*
X181609Y157035D01*
X179353D01*
Y162701D01*
X180903D01*
Y167842D01*
X175564D01*
Y166392D01*
X174761D01*
Y167842D01*
X169422D01*
Y162701D01*
X174761D01*
Y164152D01*
X175564D01*
Y162701D01*
X177113D01*
Y157035D01*
X176682D01*
Y153382D01*
Y149728D01*
X181609D01*
Y154114D01*
X181724D01*
X182152Y154200D01*
X182516Y154442D01*
X186077Y158003D01*
X186320Y158367D01*
X186405Y158795D01*
Y173496D01*
X186320Y173925D01*
X186077Y174288D01*
X180667Y179698D01*
Y183453D01*
X179216D01*
Y184315D01*
X180667D01*
Y189654D01*
D02*
G37*
G36*
X144843Y158925D02*
X134584D01*
Y154965D01*
X144843D01*
Y158925D01*
D02*
G37*
G36*
X416163Y157921D02*
X414582D01*
Y153781D01*
X416163D01*
Y157921D01*
D02*
G37*
G36*
X413783D02*
X412202D01*
Y153781D01*
X413783D01*
Y157921D01*
D02*
G37*
G36*
X160198Y155165D02*
X151710D01*
Y153370D01*
X150848D01*
Y154516D01*
X145509D01*
Y153370D01*
X144843D01*
Y153925D01*
X134584D01*
Y149965D01*
X144843D01*
Y150520D01*
X145509D01*
Y149374D01*
X150848D01*
Y150520D01*
X151710D01*
Y149236D01*
X160198D01*
Y155165D01*
D02*
G37*
G36*
X123978Y190539D02*
X116671D01*
Y186579D01*
X119204D01*
Y185539D01*
X116671D01*
Y181579D01*
X119204D01*
Y177705D01*
X117754D01*
Y167051D01*
X119204D01*
Y160897D01*
X119290Y160468D01*
X119532Y160105D01*
X123872Y155765D01*
X123767Y155234D01*
X123936Y154385D01*
X124417Y153665D01*
X125137Y153183D01*
X125987Y153014D01*
X126836Y153183D01*
X127556Y153665D01*
X128038Y154385D01*
X128206Y155234D01*
X128038Y156084D01*
X127556Y156804D01*
X126836Y157285D01*
X125987Y157454D01*
X125456Y157349D01*
X121444Y161360D01*
Y167051D01*
X122895D01*
Y177705D01*
X121444D01*
Y181579D01*
X123978D01*
Y185539D01*
X121444D01*
Y186579D01*
X123978D01*
Y190539D01*
D02*
G37*
G36*
X285789Y154870D02*
X283618D01*
Y152601D01*
X285789D01*
Y154870D01*
D02*
G37*
G36*
X282819D02*
X280647D01*
Y152601D01*
X282819D01*
Y154870D01*
D02*
G37*
G36*
X211458Y151819D02*
X202970D01*
Y150689D01*
X202128D01*
Y151819D01*
X193639D01*
Y145890D01*
X196049D01*
Y142675D01*
X195638Y142139D01*
X195379Y141514D01*
X195290Y140842D01*
X195379Y140171D01*
X195638Y139546D01*
X196049Y139010D01*
Y136071D01*
X190785D01*
Y128173D01*
X204982D01*
Y136071D01*
X199718D01*
Y139010D01*
X200129Y139546D01*
X200388Y140171D01*
X200477Y140842D01*
X200388Y141514D01*
X200129Y142139D01*
X199718Y142675D01*
Y145890D01*
X202128D01*
Y147020D01*
X202970D01*
Y145890D01*
X211458D01*
Y151819D01*
D02*
G37*
G36*
X478828Y166871D02*
X477951Y166756D01*
X477133Y166417D01*
X476431Y165878D01*
X475892Y165176D01*
X475553Y164358D01*
X475437Y163480D01*
X475553Y162603D01*
X475892Y161785D01*
X476431Y161082D01*
X477133Y160544D01*
X477951Y160205D01*
X478828Y160089D01*
X479706Y160205D01*
X479977Y160317D01*
X485665Y154629D01*
X485553Y154358D01*
X485437Y153480D01*
X485553Y152603D01*
X485892Y151785D01*
X486431Y151083D01*
X487133Y150544D01*
X487951Y150205D01*
X488828Y150089D01*
X489706Y150205D01*
X490524Y150544D01*
X491226Y151083D01*
X491765Y151785D01*
X492104Y152603D01*
X492219Y153480D01*
X492104Y154358D01*
X491765Y155176D01*
X491226Y155878D01*
X490524Y156417D01*
X489706Y156756D01*
X488828Y156871D01*
X487951Y156756D01*
X487680Y156644D01*
X481992Y162332D01*
X482104Y162603D01*
X482219Y163480D01*
X482104Y164358D01*
X481765Y165176D01*
X481226Y165878D01*
X480524Y166417D01*
X479706Y166756D01*
X478828Y166871D01*
D02*
G37*
G36*
X108623Y153925D02*
X98364D01*
Y153779D01*
X96505D01*
X95803Y153640D01*
X95208Y153242D01*
X94415Y152449D01*
X88521D01*
Y146520D01*
X97009D01*
Y149855D01*
X97265Y150110D01*
X98364D01*
Y149965D01*
X108623D01*
Y153925D01*
D02*
G37*
G36*
X175883Y157035D02*
X174713D01*
Y153382D01*
Y149728D01*
X175883D01*
Y153382D01*
Y157035D01*
D02*
G37*
G36*
X285789Y151801D02*
X283618D01*
Y149531D01*
X285789D01*
Y151801D01*
D02*
G37*
G36*
X282819D02*
X280647D01*
Y149531D01*
X282819D01*
Y151801D01*
D02*
G37*
G36*
X501978Y208253D02*
X500997Y208124D01*
X500084Y207745D01*
X499299Y207143D01*
X498697Y206359D01*
X498319Y205445D01*
X498190Y204465D01*
X498319Y203484D01*
X498697Y202571D01*
X499299Y201786D01*
X500084Y201184D01*
X500574Y200981D01*
Y194172D01*
X468391Y161989D01*
X468148Y161626D01*
X468063Y161197D01*
Y157921D01*
X467202D01*
Y148843D01*
X471163D01*
Y157921D01*
X470303D01*
Y160733D01*
X502486Y192916D01*
X502728Y193279D01*
X502814Y193708D01*
Y200786D01*
X502958Y200805D01*
X503872Y201184D01*
X504657Y201786D01*
X505259Y202571D01*
X505637Y203484D01*
X505766Y204465D01*
X505637Y205445D01*
X505259Y206359D01*
X504657Y207143D01*
X503872Y207745D01*
X502958Y208124D01*
X501978Y208253D01*
D02*
G37*
G36*
X408113Y177551D02*
X407264Y177382D01*
X406544Y176900D01*
X406063Y176180D01*
X405894Y175331D01*
X406063Y174481D01*
X406544Y173761D01*
X407264Y173280D01*
X408113Y173111D01*
X408963Y173280D01*
X409683Y173761D01*
X409984Y174211D01*
X442105D01*
X448063Y168253D01*
Y157921D01*
X447202D01*
Y148843D01*
X451163D01*
Y157921D01*
X450303D01*
Y168717D01*
X450217Y169145D01*
X449975Y169509D01*
X443360Y176123D01*
X442997Y176365D01*
X442568Y176451D01*
X409984D01*
X409683Y176900D01*
X408963Y177382D01*
X408113Y177551D01*
D02*
G37*
G36*
X396998Y181980D02*
X396148Y181811D01*
X395428Y181330D01*
X394947Y180609D01*
X394778Y179760D01*
X394947Y178910D01*
X395428Y178190D01*
X396148Y177709D01*
X396998Y177540D01*
X397528Y177646D01*
X404769Y170405D01*
X405132Y170162D01*
X405561Y170077D01*
X438365D01*
X443063Y165379D01*
Y157921D01*
X442202D01*
Y148843D01*
X446163D01*
Y157921D01*
X445303D01*
Y165843D01*
X445217Y166271D01*
X444975Y166635D01*
X439620Y171989D01*
X439257Y172232D01*
X438828Y172317D01*
X406025D01*
X399112Y179229D01*
X399217Y179760D01*
X399048Y180609D01*
X398567Y181330D01*
X397847Y181811D01*
X396998Y181980D01*
D02*
G37*
G36*
X385496Y187084D02*
X384647Y186915D01*
X383926Y186433D01*
X383445Y185713D01*
X383276Y184864D01*
X383445Y184014D01*
X383926Y183294D01*
X384647Y182813D01*
X385496Y182644D01*
X386027Y182749D01*
X401678Y167098D01*
X402041Y166855D01*
X402470Y166770D01*
X434014D01*
X438063Y162721D01*
Y157921D01*
X437202D01*
Y148843D01*
X441163D01*
Y157921D01*
X440303D01*
Y163185D01*
X440217Y163614D01*
X439975Y163977D01*
X435270Y168682D01*
X434907Y168924D01*
X434478Y169010D01*
X402934D01*
X387610Y184333D01*
X387716Y184864D01*
X387547Y185713D01*
X387066Y186433D01*
X386346Y186915D01*
X385496Y187084D01*
D02*
G37*
G36*
X380600Y208253D02*
X379620Y208124D01*
X378706Y207745D01*
X377921Y207143D01*
X377319Y206359D01*
X376941Y205445D01*
X376812Y204465D01*
X376941Y203484D01*
X377319Y202571D01*
X377921Y201786D01*
X378706Y201184D01*
X379480Y200863D01*
Y183756D01*
X379565Y183327D01*
X379808Y182964D01*
X398962Y163811D01*
X399325Y163568D01*
X399753Y163482D01*
X429506D01*
X432964Y160024D01*
Y157921D01*
X432202D01*
Y148843D01*
X436163D01*
Y157921D01*
X435204D01*
Y160488D01*
X435119Y160917D01*
X434876Y161280D01*
X430762Y165394D01*
X430399Y165637D01*
X429970Y165722D01*
X400217D01*
X381720Y184220D01*
Y200863D01*
X382494Y201184D01*
X383279Y201786D01*
X383881Y202571D01*
X384259Y203484D01*
X384388Y204465D01*
X384259Y205445D01*
X383881Y206359D01*
X383279Y207143D01*
X382494Y207745D01*
X381580Y208124D01*
X380600Y208253D01*
D02*
G37*
G36*
X416163Y152982D02*
X414582D01*
Y148843D01*
X416163D01*
Y152982D01*
D02*
G37*
G36*
X413783D02*
X412202D01*
Y148843D01*
X413783D01*
Y152982D01*
D02*
G37*
G36*
X303080Y269682D02*
X301740Y269506D01*
X300491Y268988D01*
X299418Y268166D01*
X298595Y267093D01*
X298078Y265844D01*
X297902Y264504D01*
X298078Y263164D01*
X298595Y261915D01*
X299418Y260842D01*
X300491Y260019D01*
X301740Y259502D01*
X301960Y259473D01*
Y241530D01*
X302045Y241102D01*
X302288Y240739D01*
X323271Y219755D01*
Y175235D01*
X298559Y150523D01*
X298559Y150523D01*
X298316Y150160D01*
X298231Y149731D01*
Y148768D01*
X297625D01*
Y161705D01*
X297540Y162134D01*
X297297Y162497D01*
X291349Y168446D01*
X290985Y168688D01*
X290557Y168773D01*
X254102D01*
X249397Y173479D01*
Y228284D01*
X249312Y228712D01*
X249069Y229076D01*
X245526Y232619D01*
X245163Y232861D01*
X244734Y232947D01*
X236969D01*
X232074Y237842D01*
Y238811D01*
X232089Y238813D01*
X233146Y239251D01*
X234054Y239947D01*
X234751Y240855D01*
X235189Y241913D01*
X235338Y243047D01*
X235189Y244182D01*
X234751Y245239D01*
X234054Y246147D01*
X233146Y246844D01*
X232089Y247282D01*
X230954Y247431D01*
X229820Y247282D01*
X228762Y246844D01*
X227854Y246147D01*
X227158Y245239D01*
X226720Y244182D01*
X226570Y243047D01*
X226720Y241913D01*
X227158Y240855D01*
X227854Y239947D01*
X228762Y239251D01*
X229820Y238813D01*
X229834Y238811D01*
Y237378D01*
X229920Y236949D01*
X230162Y236586D01*
X235714Y231035D01*
X236077Y230792D01*
X236506Y230707D01*
X244270D01*
X247157Y227820D01*
Y173015D01*
X247242Y172586D01*
X247485Y172223D01*
X252847Y166862D01*
X253210Y166619D01*
X253639Y166534D01*
X290093D01*
X295386Y161241D01*
Y148768D01*
X294771D01*
Y159386D01*
X294686Y159815D01*
X294443Y160178D01*
X291982Y162638D01*
X291619Y162881D01*
X291191Y162967D01*
X251398D01*
X244082Y170283D01*
Y201709D01*
X243997Y202137D01*
X243754Y202501D01*
X232074Y214180D01*
Y219716D01*
X232089Y219718D01*
X233146Y220156D01*
X234054Y220853D01*
X234751Y221761D01*
X235189Y222818D01*
X235338Y223953D01*
X235189Y225087D01*
X234751Y226145D01*
X234054Y227053D01*
X233146Y227749D01*
X232089Y228187D01*
X230954Y228337D01*
X229820Y228187D01*
X228762Y227749D01*
X227854Y227053D01*
X227158Y226145D01*
X226720Y225087D01*
X226570Y223953D01*
X226720Y222818D01*
X227158Y221761D01*
X227854Y220853D01*
X228762Y220156D01*
X229820Y219718D01*
X229834Y219716D01*
Y213717D01*
X229920Y213288D01*
X230162Y212925D01*
X241842Y201245D01*
Y169819D01*
X241928Y169390D01*
X242170Y169027D01*
X250143Y161055D01*
X250506Y160812D01*
X250935Y160726D01*
X290727D01*
X292531Y158922D01*
Y149109D01*
X292313Y148783D01*
X292310Y148768D01*
X291352D01*
Y149531D01*
X291891D01*
Y154870D01*
X291155D01*
Y155782D01*
X291566Y156318D01*
X291825Y156943D01*
X291914Y157614D01*
X291825Y158285D01*
X291566Y158911D01*
X291154Y159448D01*
X290617Y159860D01*
X289992Y160119D01*
X289320Y160207D01*
X288649Y160119D01*
X288024Y159860D01*
X287487Y159448D01*
X287075Y158911D01*
X286816Y158285D01*
X286727Y157614D01*
X286816Y156943D01*
X287075Y156318D01*
X287486Y155782D01*
Y154870D01*
X286750D01*
Y149531D01*
X287683D01*
Y148768D01*
X286767D01*
Y145016D01*
Y141264D01*
X304096D01*
Y144062D01*
X304211D01*
X304640Y144147D01*
X305003Y144390D01*
X336052Y175439D01*
X336295Y175803D01*
X336380Y176231D01*
Y224838D01*
X336295Y225267D01*
X336052Y225630D01*
X323807Y237876D01*
Y238811D01*
X323821Y238813D01*
X324879Y239251D01*
X325786Y239947D01*
X326483Y240855D01*
X326921Y241913D01*
X327070Y243047D01*
X326921Y244182D01*
X326483Y245239D01*
X325786Y246147D01*
X324879Y246844D01*
X323821Y247282D01*
X322687Y247431D01*
X321552Y247282D01*
X320495Y246844D01*
X319587Y246147D01*
X318890Y245239D01*
X318452Y244182D01*
X318303Y243047D01*
X318452Y241913D01*
X318890Y240855D01*
X319587Y239947D01*
X320495Y239251D01*
X321552Y238813D01*
X321567Y238811D01*
Y237412D01*
X321652Y236983D01*
X321895Y236620D01*
X334140Y224374D01*
Y176695D01*
X304558Y147113D01*
X304096Y147304D01*
Y148768D01*
X300472D01*
X300471Y149268D01*
X325183Y173980D01*
X325426Y174343D01*
X325511Y174772D01*
Y220219D01*
X325426Y220648D01*
X325183Y221011D01*
X304200Y241994D01*
Y259473D01*
X304420Y259502D01*
X305669Y260019D01*
X306741Y260842D01*
X307564Y261915D01*
X308082Y263164D01*
X308258Y264504D01*
X308082Y265844D01*
X307564Y267093D01*
X306741Y268166D01*
X305669Y268988D01*
X304420Y269506D01*
X303080Y269682D01*
D02*
G37*
G36*
X228801Y208906D02*
X223659D01*
Y203567D01*
X227506D01*
X235590Y195483D01*
Y167713D01*
X235590Y167713D01*
X235660Y167362D01*
X235858Y167066D01*
X245760Y157164D01*
X246057Y156965D01*
X246407Y156896D01*
X246407Y156896D01*
X272504D01*
X278271Y151129D01*
Y148768D01*
X277342D01*
Y149445D01*
X277342Y149445D01*
X277272Y149795D01*
X277074Y150092D01*
X277074Y150092D01*
X274318Y152848D01*
X274021Y153046D01*
X273671Y153116D01*
X273671Y153116D01*
X244424D01*
X232066Y165474D01*
Y188763D01*
X232066Y188763D01*
X231997Y189113D01*
X231798Y189410D01*
X231798Y189410D01*
X228702Y192506D01*
Y196550D01*
X223561D01*
Y191212D01*
X227408D01*
X230236Y188384D01*
Y165095D01*
X230236Y165094D01*
X230306Y164744D01*
X230504Y164447D01*
X243398Y151554D01*
X243398Y151554D01*
X243695Y151355D01*
X244045Y151286D01*
X244045Y151286D01*
X273292D01*
X275310Y149268D01*
X275102Y148768D01*
X273674D01*
X272546Y149895D01*
X272249Y150094D01*
X271899Y150163D01*
X271899Y150163D01*
X266007D01*
X266007Y150163D01*
X265657Y150094D01*
X265360Y149895D01*
X265360Y149895D01*
X262251Y146787D01*
X261479Y146940D01*
X260630Y146771D01*
X259910Y146290D01*
X259429Y145570D01*
X259260Y144720D01*
X259429Y143871D01*
X259910Y143151D01*
X260630Y142670D01*
X261479Y142501D01*
X262329Y142670D01*
X263049Y143151D01*
X263530Y143871D01*
X263699Y144720D01*
X263546Y145492D01*
X266386Y148333D01*
X268639D01*
Y141264D01*
X285968D01*
Y145016D01*
Y148768D01*
X280102D01*
Y151508D01*
X280032Y151858D01*
X279834Y152155D01*
X279834Y152155D01*
X273531Y158458D01*
X273234Y158657D01*
X272883Y158726D01*
X272883Y158726D01*
X246786D01*
X237421Y168092D01*
Y195862D01*
X237351Y196212D01*
X237153Y196509D01*
X237153Y196509D01*
X228801Y204861D01*
Y208906D01*
D02*
G37*
G36*
X144843Y148925D02*
X140113D01*
Y147345D01*
X144843D01*
Y148925D01*
D02*
G37*
G36*
X108623D02*
X103893D01*
Y147345D01*
X108623D01*
Y148925D01*
D02*
G37*
G36*
X139314D02*
X134584D01*
Y147345D01*
X139314D01*
Y148925D01*
D02*
G37*
G36*
X103094D02*
X98364D01*
Y147345D01*
X103094D01*
Y148925D01*
D02*
G37*
G36*
X220843Y151819D02*
X212355D01*
Y145890D01*
X220843D01*
Y147020D01*
X222429D01*
X222965Y146609D01*
X223590Y146350D01*
X224261Y146261D01*
X224933Y146350D01*
X225558Y146609D01*
X226095Y147021D01*
X226507Y147558D01*
X226766Y148183D01*
X226854Y148854D01*
X226766Y149525D01*
X226507Y150151D01*
X226095Y150688D01*
X225558Y151100D01*
X224933Y151359D01*
X224261Y151447D01*
X223590Y151359D01*
X222965Y151100D01*
X222429Y150689D01*
X220843D01*
Y151819D01*
D02*
G37*
G36*
X432541Y148276D02*
X430370D01*
Y146006D01*
X432541D01*
Y148276D01*
D02*
G37*
G36*
X429570D02*
X427399D01*
Y146006D01*
X429570D01*
Y148276D01*
D02*
G37*
G36*
X144843Y146545D02*
X140113D01*
Y144965D01*
X144843D01*
Y146545D01*
D02*
G37*
G36*
X139314D02*
X134584D01*
Y144965D01*
X139314D01*
Y146545D01*
D02*
G37*
G36*
X108623D02*
X103893D01*
Y144965D01*
X108623D01*
Y146545D01*
D02*
G37*
G36*
X103094D02*
X98364D01*
Y144965D01*
X103094D01*
Y146545D01*
D02*
G37*
G36*
X490179Y147685D02*
X487614D01*
Y143841D01*
X490179D01*
Y147685D01*
D02*
G37*
G36*
X486814D02*
X484250D01*
Y143841D01*
X486814D01*
Y147685D01*
D02*
G37*
G36*
X438643Y148276D02*
X433502D01*
Y142937D01*
X434238D01*
Y141347D01*
X432419D01*
Y137386D01*
X439726D01*
Y141347D01*
X437907D01*
Y142937D01*
X438643D01*
Y143772D01*
X439949D01*
X440485Y143361D01*
X441110Y143102D01*
X441781Y143013D01*
X442452Y143102D01*
X443078Y143361D01*
X443615Y143773D01*
X444027Y144310D01*
X444286Y144935D01*
X444374Y145606D01*
X444286Y146277D01*
X444027Y146903D01*
X443615Y147440D01*
X443078Y147852D01*
X442452Y148111D01*
X441781Y148199D01*
X441110Y148111D01*
X440485Y147852D01*
X439949Y147441D01*
X438643D01*
Y148276D01*
D02*
G37*
G36*
X432541Y145207D02*
X430370D01*
Y142937D01*
X432541D01*
Y145207D01*
D02*
G37*
G36*
X429570D02*
X427399D01*
Y142937D01*
X429570D01*
Y145207D01*
D02*
G37*
G36*
X144843Y143925D02*
X140113D01*
Y142344D01*
X144843D01*
Y143925D01*
D02*
G37*
G36*
X139314D02*
X134584D01*
Y142344D01*
X139314D01*
Y143925D01*
D02*
G37*
G36*
X160198Y143551D02*
X156354D01*
Y140986D01*
X160198D01*
Y143551D01*
D02*
G37*
G36*
X155555D02*
X151710D01*
Y140986D01*
X155555D01*
Y143551D01*
D02*
G37*
G36*
X173914Y157035D02*
X170955D01*
Y149728D01*
X171430D01*
Y145255D01*
X171430Y145254D01*
X171500Y144904D01*
X171698Y144607D01*
X173273Y143032D01*
X173120Y142260D01*
X173289Y141410D01*
X173770Y140690D01*
X174490Y140209D01*
X175340Y140040D01*
X176189Y140209D01*
X176909Y140690D01*
X177391Y141410D01*
X177559Y142260D01*
X177391Y143109D01*
X176909Y143830D01*
X176189Y144311D01*
X175340Y144480D01*
X174568Y144326D01*
X173260Y145633D01*
Y149728D01*
X173914D01*
Y153382D01*
Y157035D01*
D02*
G37*
G36*
X144843Y141545D02*
X140113D01*
Y139965D01*
X144843D01*
Y141545D01*
D02*
G37*
G36*
X139314D02*
X134584D01*
Y139965D01*
X139314D01*
Y141545D01*
D02*
G37*
G36*
X108623Y143925D02*
X98364D01*
Y139965D01*
X108623D01*
Y143925D01*
D02*
G37*
G36*
X418663Y141347D02*
X415409D01*
Y139766D01*
X418663D01*
Y141347D01*
D02*
G37*
G36*
X414610D02*
X411356D01*
Y139766D01*
X414610D01*
Y141347D01*
D02*
G37*
G36*
X502190Y166842D02*
X495466D01*
Y160118D01*
X497403D01*
Y147685D01*
X495864D01*
Y139197D01*
X501793D01*
Y147685D01*
X500253D01*
Y160118D01*
X502190D01*
Y166842D01*
D02*
G37*
G36*
X490179Y143042D02*
X487614D01*
Y139197D01*
X490179D01*
Y143042D01*
D02*
G37*
G36*
X486814D02*
X484250D01*
Y139197D01*
X486814D01*
Y143042D01*
D02*
G37*
G36*
X290502Y140247D02*
X289652Y140078D01*
X288932Y139597D01*
X288495Y138943D01*
X267482D01*
Y140106D01*
X259978D01*
Y139041D01*
X246998D01*
X246647Y138972D01*
X246350Y138773D01*
X246350Y138773D01*
X232839Y125262D01*
X191729D01*
X191379Y125192D01*
X191082Y124994D01*
X191082Y124994D01*
X185444Y119356D01*
X177252D01*
X174685Y121924D01*
Y131470D01*
X174961Y131746D01*
X174961Y131746D01*
X175159Y132043D01*
X175192Y132209D01*
X177131D01*
Y131484D01*
X175680D01*
Y126146D01*
X176416D01*
Y124801D01*
X176005Y124265D01*
X175746Y123640D01*
X175658Y122969D01*
X175746Y122297D01*
X176005Y121672D01*
X176417Y121135D01*
X176954Y120723D01*
X177579Y120464D01*
X178251Y120376D01*
X178922Y120464D01*
X179547Y120723D01*
X180084Y121135D01*
X180496Y121672D01*
X180755Y122297D01*
X180844Y122969D01*
X180755Y123640D01*
X180496Y124265D01*
X180085Y124801D01*
Y126146D01*
X180822D01*
Y131484D01*
X179371D01*
Y132209D01*
X181609D01*
Y134742D01*
X182474D01*
X182547Y134565D01*
X182959Y134028D01*
X183496Y133616D01*
X184122Y133357D01*
X184793Y133269D01*
X185464Y133357D01*
X186089Y133616D01*
X186626Y134028D01*
X187038Y134565D01*
X187297Y135191D01*
X187386Y135862D01*
X187297Y136533D01*
X187038Y137159D01*
X186626Y137696D01*
X186089Y138108D01*
X185464Y138367D01*
X184793Y138455D01*
X184122Y138367D01*
X183496Y138108D01*
X182959Y137696D01*
X182547Y137159D01*
X182474Y136982D01*
X181609D01*
Y139516D01*
X170955D01*
Y134765D01*
X170746Y134724D01*
X170449Y134525D01*
X167610Y131687D01*
X167412Y131390D01*
X167342Y131039D01*
X167342Y131039D01*
Y119327D01*
X167342Y119327D01*
X167412Y118977D01*
X167610Y118680D01*
X171843Y114447D01*
X171843Y114447D01*
X172140Y114249D01*
X172490Y114179D01*
X172490Y114179D01*
X188927D01*
X188927Y114179D01*
X189277Y114249D01*
X189574Y114447D01*
X193341Y118215D01*
X235777D01*
X235777Y118215D01*
X236127Y118284D01*
X236424Y118483D01*
X248853Y130912D01*
X259978D01*
Y127362D01*
X259214D01*
Y128098D01*
X253876D01*
Y127362D01*
X252964D01*
X252428Y127773D01*
X251803Y128032D01*
X251132Y128121D01*
X250460Y128032D01*
X249835Y127773D01*
X249298Y127361D01*
X248886Y126824D01*
X248627Y126199D01*
X248538Y125528D01*
X248627Y124856D01*
X248886Y124231D01*
X249298Y123694D01*
X249835Y123282D01*
X250460Y123023D01*
X251132Y122935D01*
X251803Y123023D01*
X252428Y123282D01*
X252964Y123693D01*
X253876D01*
Y122957D01*
X259214D01*
Y123693D01*
X259978D01*
Y122778D01*
X267482D01*
Y123547D01*
Y127270D01*
X268272D01*
X270327Y125215D01*
X270327Y125215D01*
X270624Y125017D01*
X270974Y124947D01*
X270974Y124947D01*
X271762D01*
X272200Y124293D01*
X272920Y123811D01*
X273769Y123642D01*
X274619Y123811D01*
X275339Y124293D01*
X275820Y125013D01*
X275989Y125862D01*
X275820Y126712D01*
X275339Y127432D01*
X274619Y127913D01*
X273769Y128082D01*
X272920Y127913D01*
X272200Y127432D01*
X271818Y126861D01*
X271302Y126829D01*
X269298Y128832D01*
X269001Y129031D01*
X268651Y129100D01*
X268651Y129100D01*
X267482D01*
Y130506D01*
X275764D01*
X279229Y127041D01*
X279229Y127041D01*
X279526Y126842D01*
X279877Y126773D01*
X299026D01*
X299463Y126118D01*
X300184Y125637D01*
X301033Y125468D01*
X301883Y125637D01*
X302603Y126118D01*
X303084Y126839D01*
X303253Y127688D01*
X303084Y128537D01*
X302603Y129258D01*
X301883Y129739D01*
X301033Y129908D01*
X300184Y129739D01*
X299463Y129258D01*
X299026Y128603D01*
X280256D01*
X276790Y132069D01*
X276493Y132267D01*
X276143Y132337D01*
X276143Y132337D01*
X267482D01*
Y133766D01*
X278722D01*
X280102Y132387D01*
X280102Y132387D01*
X280399Y132188D01*
X280749Y132119D01*
X293810D01*
X294248Y131464D01*
X294968Y130983D01*
X295817Y130814D01*
X296667Y130983D01*
X297387Y131464D01*
X297868Y132184D01*
X298037Y133034D01*
X297868Y133883D01*
X297387Y134603D01*
X296667Y135085D01*
X295817Y135254D01*
X294968Y135085D01*
X294248Y134603D01*
X293810Y133949D01*
X281128D01*
X279749Y135328D01*
X279452Y135527D01*
X279101Y135596D01*
X279101Y135596D01*
X267482D01*
Y137112D01*
X288495D01*
X288932Y136458D01*
X289652Y135977D01*
X290502Y135808D01*
X291351Y135977D01*
X292071Y136458D01*
X292552Y137178D01*
X292721Y138028D01*
X292552Y138877D01*
X292071Y139597D01*
X291351Y140078D01*
X290502Y140247D01*
D02*
G37*
G36*
X160198Y140187D02*
X156354D01*
Y137622D01*
X160198D01*
Y140187D01*
D02*
G37*
G36*
X155555D02*
X151710D01*
Y137622D01*
X155555D01*
Y140187D01*
D02*
G37*
G36*
X150848Y148413D02*
X145509D01*
Y143272D01*
X146344D01*
Y141927D01*
X145933Y141391D01*
X145674Y140766D01*
X145586Y140094D01*
X145674Y139423D01*
X145933Y138798D01*
X146345Y138261D01*
X146882Y137849D01*
X147508Y137590D01*
X148179Y137502D01*
X148850Y137590D01*
X149475Y137849D01*
X150012Y138261D01*
X150424Y138798D01*
X150683Y139423D01*
X150772Y140094D01*
X150683Y140766D01*
X150424Y141391D01*
X150013Y141927D01*
Y143272D01*
X150848D01*
Y148413D01*
D02*
G37*
G36*
X418663Y138967D02*
X415409D01*
Y137386D01*
X418663D01*
Y138967D01*
D02*
G37*
G36*
X414610D02*
X411356D01*
Y137386D01*
X414610D01*
Y138967D01*
D02*
G37*
G36*
X457037Y137757D02*
X456159Y137642D01*
X455341Y137303D01*
X454639Y136764D01*
X454100Y136062D01*
X453989Y135792D01*
X439726D01*
Y136346D01*
X432419D01*
Y132386D01*
X439726D01*
Y132940D01*
X453989D01*
X454100Y132671D01*
X454639Y131968D01*
X455341Y131430D01*
X456159Y131091D01*
X457037Y130975D01*
X457915Y131091D01*
X458184Y131202D01*
X463873Y125514D01*
X463762Y125244D01*
X463646Y124366D01*
X463762Y123488D01*
X464100Y122671D01*
X464639Y121968D01*
X465342Y121430D01*
X466159Y121091D01*
X467037Y120975D01*
X467915Y121091D01*
X468733Y121430D01*
X469435Y121968D01*
X469974Y122671D01*
X470312Y123488D01*
X470428Y124366D01*
X470312Y125244D01*
X469974Y126062D01*
X469435Y126764D01*
X468733Y127303D01*
X467915Y127642D01*
X467037Y127757D01*
X466159Y127642D01*
X465890Y127530D01*
X460201Y133219D01*
X460312Y133489D01*
X460428Y134366D01*
X460312Y135244D01*
X459974Y136062D01*
X459435Y136764D01*
X458733Y137303D01*
X457915Y137642D01*
X457037Y137757D01*
D02*
G37*
G36*
X421163Y157921D02*
X417202D01*
Y148843D01*
X418267D01*
Y144878D01*
X418267Y144878D01*
X418337Y144528D01*
X418536Y144231D01*
X420197Y142570D01*
Y137619D01*
X419101Y136524D01*
X418663Y136346D01*
Y136346D01*
X418663Y136346D01*
X411356D01*
Y135281D01*
X395358D01*
X391965Y138675D01*
X391668Y138873D01*
X391317Y138943D01*
X391317Y138943D01*
X356186D01*
X355749Y139597D01*
X355028Y140078D01*
X354179Y140247D01*
X353329Y140078D01*
X352609Y139597D01*
X352172Y138943D01*
X336512D01*
X336075Y139597D01*
X335355Y140078D01*
X334505Y140247D01*
X333656Y140078D01*
X332936Y139597D01*
X332455Y138877D01*
X332286Y138028D01*
X332455Y137178D01*
X332936Y136458D01*
X333656Y135977D01*
X334505Y135808D01*
X335355Y135977D01*
X336075Y136458D01*
X336512Y137112D01*
X352172D01*
X352609Y136458D01*
X353329Y135977D01*
X354179Y135808D01*
X355028Y135977D01*
X355749Y136458D01*
X356186Y137112D01*
X390938D01*
X394332Y133719D01*
X394332Y133719D01*
X394629Y133521D01*
X394979Y133451D01*
X394979Y133451D01*
X411356D01*
Y132386D01*
X418663D01*
Y133571D01*
X418885Y133719D01*
X421759Y136593D01*
X421759Y136593D01*
X421957Y136890D01*
X422027Y137240D01*
Y142949D01*
X422027Y142949D01*
X421957Y143299D01*
X421759Y143596D01*
X421759Y143596D01*
X420098Y145257D01*
Y148843D01*
X421163D01*
Y157921D01*
D02*
G37*
G36*
X88336Y139538D02*
X87665Y139450D01*
X87040Y139191D01*
X86503Y138778D01*
X86090Y138242D01*
X85831Y137616D01*
X85743Y136945D01*
X85831Y136274D01*
X86090Y135648D01*
X86503Y135111D01*
X87040Y134699D01*
X87665Y134440D01*
X88336Y134352D01*
X89007Y134440D01*
X89633Y134699D01*
X90169Y135110D01*
X91671D01*
Y134374D01*
X97009D01*
Y135110D01*
X98364D01*
Y134965D01*
X108623D01*
Y135110D01*
X112978D01*
Y130126D01*
X111631Y128779D01*
X108623D01*
Y128925D01*
X98364D01*
Y124965D01*
X108623D01*
Y125110D01*
X112391D01*
X113093Y125250D01*
X113688Y125648D01*
X116110Y128069D01*
X116507Y128664D01*
X116647Y129366D01*
Y135110D01*
X134584D01*
Y134965D01*
X144843D01*
Y138925D01*
X134584D01*
Y138779D01*
X108623D01*
Y138925D01*
X98364D01*
Y138779D01*
X97009D01*
Y139516D01*
X91671D01*
Y138779D01*
X90169D01*
X89633Y139191D01*
X89007Y139450D01*
X88336Y139538D01*
D02*
G37*
G36*
X359561Y135254D02*
X358711Y135085D01*
X357991Y134603D01*
X357568Y133970D01*
X327419D01*
X326996Y134603D01*
X326276Y135085D01*
X325427Y135254D01*
X324577Y135085D01*
X323857Y134603D01*
X323376Y133883D01*
X323207Y133034D01*
X323376Y132184D01*
X323857Y131464D01*
X324577Y130983D01*
X325427Y130814D01*
X326276Y130983D01*
X326996Y131464D01*
X327448Y132140D01*
X357540D01*
X357991Y131464D01*
X358711Y130983D01*
X359561Y130814D01*
X360410Y130983D01*
X361130Y131464D01*
X361612Y132184D01*
X361781Y133034D01*
X361612Y133883D01*
X361130Y134603D01*
X360410Y135085D01*
X359561Y135254D01*
D02*
G37*
G36*
X147765Y134165D02*
X146916Y133996D01*
X146196Y133514D01*
X145758Y132860D01*
X144843D01*
Y133925D01*
X134584D01*
Y129965D01*
X144843D01*
Y131030D01*
X145758D01*
X146196Y130375D01*
X146916Y129894D01*
X147765Y129725D01*
X148615Y129894D01*
X149335Y130375D01*
X149816Y131095D01*
X149985Y131945D01*
X149816Y132794D01*
X149335Y133514D01*
X148615Y133996D01*
X147765Y134165D01*
D02*
G37*
G36*
X224835Y136071D02*
X218137D01*
Y132522D01*
X224835D01*
Y136071D01*
D02*
G37*
G36*
X217337D02*
X210639D01*
Y132522D01*
X217337D01*
Y136071D01*
D02*
G37*
G36*
X108623Y133925D02*
X103893D01*
Y132344D01*
X108623D01*
Y133925D01*
D02*
G37*
G36*
X103094D02*
X98364D01*
Y132344D01*
X103094D01*
Y133925D01*
D02*
G37*
G36*
X97009Y133413D02*
X94740D01*
Y131242D01*
X97009D01*
Y133413D01*
D02*
G37*
G36*
X93941D02*
X91671D01*
Y131242D01*
X93941D01*
Y133413D01*
D02*
G37*
G36*
X480277Y133709D02*
X476433D01*
Y131144D01*
X480277D01*
Y133709D01*
D02*
G37*
G36*
X475633D02*
X471789D01*
Y131144D01*
X475633D01*
Y133709D01*
D02*
G37*
G36*
X426163Y157921D02*
X422202D01*
Y148843D01*
X423445D01*
Y132993D01*
X420733Y130281D01*
X418663D01*
Y131346D01*
X411356D01*
Y129592D01*
X336512D01*
X336075Y130247D01*
X335355Y130728D01*
X334505Y130897D01*
X333656Y130728D01*
X332936Y130247D01*
X332455Y129527D01*
X332286Y128677D01*
X332455Y127828D01*
X332936Y127108D01*
X333656Y126626D01*
X334505Y126457D01*
X335355Y126626D01*
X336075Y127108D01*
X336512Y127762D01*
X357598D01*
Y123545D01*
X352957Y118904D01*
X351439D01*
Y119968D01*
X344131D01*
Y116008D01*
X351439D01*
Y117073D01*
X353336D01*
X353336Y117073D01*
X353686Y117143D01*
X353983Y117341D01*
X359160Y122518D01*
X359160Y122518D01*
X359359Y122815D01*
X359429Y123165D01*
Y127762D01*
X411356D01*
Y127386D01*
X418663D01*
Y128451D01*
X421112D01*
X421112Y128451D01*
X421462Y128521D01*
X421759Y128719D01*
X425007Y131967D01*
X425007Y131967D01*
X425205Y132264D01*
X425275Y132614D01*
X425275Y132614D01*
Y148843D01*
X426163D01*
Y157921D01*
D02*
G37*
G36*
X108623Y131545D02*
X103893D01*
Y129965D01*
X108623D01*
Y131545D01*
D02*
G37*
G36*
X103094D02*
X98364D01*
Y129965D01*
X103094D01*
Y131545D01*
D02*
G37*
G36*
X186924Y131484D02*
X184753D01*
Y129214D01*
X186924D01*
Y131484D01*
D02*
G37*
G36*
X183953D02*
X181782D01*
Y129214D01*
X183953D01*
Y131484D01*
D02*
G37*
G36*
X97009Y130443D02*
X94740D01*
Y128272D01*
X97009D01*
Y130443D01*
D02*
G37*
G36*
X93941D02*
X91671D01*
Y128272D01*
X93941D01*
Y130443D01*
D02*
G37*
G36*
X224835Y131722D02*
X218137D01*
Y128173D01*
X224835D01*
Y131722D01*
D02*
G37*
G36*
X217337D02*
X210639D01*
Y128173D01*
X217337D01*
Y131722D01*
D02*
G37*
G36*
X147765Y129165D02*
X146916Y128996D01*
X146196Y128515D01*
X145758Y127860D01*
X144843D01*
Y128925D01*
X134584D01*
Y124965D01*
X144843D01*
Y126030D01*
X145758D01*
X146196Y125375D01*
X146916Y124894D01*
X147765Y124725D01*
X148615Y124894D01*
X149335Y125375D01*
X149816Y126095D01*
X149985Y126945D01*
X149816Y127794D01*
X149335Y128515D01*
X148615Y128996D01*
X147765Y129165D01*
D02*
G37*
G36*
X480277Y130344D02*
X476433D01*
Y127780D01*
X480277D01*
Y130344D01*
D02*
G37*
G36*
X475633D02*
X471789D01*
Y127780D01*
X475633D01*
Y130344D01*
D02*
G37*
G36*
X439726Y131346D02*
X432419D01*
Y127386D01*
X439726D01*
Y131346D01*
D02*
G37*
G36*
X186924Y128415D02*
X184753D01*
Y126146D01*
X186924D01*
Y128415D01*
D02*
G37*
G36*
X183953D02*
X181782D01*
Y126146D01*
X183953D01*
Y128415D01*
D02*
G37*
G36*
X318958Y127803D02*
X316689D01*
Y125632D01*
X318958D01*
Y127803D01*
D02*
G37*
G36*
X315889D02*
X313620D01*
Y125632D01*
X315889D01*
Y127803D01*
D02*
G37*
G36*
X97797Y127311D02*
X88718D01*
Y125466D01*
X88151D01*
Y126917D01*
X82812D01*
Y121776D01*
X88151D01*
Y123226D01*
X88718D01*
Y121382D01*
X96062D01*
X96291Y121153D01*
X96655Y120910D01*
X97083Y120825D01*
X98364D01*
Y119965D01*
X108623D01*
Y123925D01*
X98364D01*
Y123065D01*
X97797D01*
Y127311D01*
D02*
G37*
G36*
X439726Y126347D02*
X436472D01*
Y124766D01*
X439726D01*
Y126347D01*
D02*
G37*
G36*
X435673D02*
X432419D01*
Y124766D01*
X435673D01*
Y126347D01*
D02*
G37*
G36*
X354179Y127053D02*
X353329Y126884D01*
X352609Y126402D01*
X352128Y125682D01*
X351959Y124833D01*
X351976Y124748D01*
X351540Y124375D01*
X351439Y124413D01*
Y124969D01*
X344131D01*
Y121008D01*
X351439D01*
Y122073D01*
X352334D01*
X352334Y122073D01*
X352685Y122143D01*
X352981Y122341D01*
X353407Y122766D01*
X354179Y122613D01*
X355028Y122782D01*
X355749Y123263D01*
X356230Y123983D01*
X356399Y124833D01*
X356230Y125682D01*
X355749Y126402D01*
X355028Y126884D01*
X354179Y127053D01*
D02*
G37*
G36*
X372895Y124969D02*
X369641D01*
Y123388D01*
X372895D01*
Y124969D01*
D02*
G37*
G36*
X368842D02*
X365588D01*
Y123388D01*
X368842D01*
Y124969D01*
D02*
G37*
G36*
X147765Y124165D02*
X146916Y123996D01*
X146196Y123514D01*
X145758Y122860D01*
X144843D01*
Y123925D01*
X134584D01*
Y119965D01*
X144843D01*
Y121030D01*
X145758D01*
X146196Y120375D01*
X146916Y119894D01*
X147765Y119725D01*
X148615Y119894D01*
X149335Y120375D01*
X149816Y121095D01*
X149985Y121945D01*
X149816Y122794D01*
X149335Y123514D01*
X148615Y123996D01*
X147765Y124165D01*
D02*
G37*
G36*
X318958Y124833D02*
X316689D01*
Y122661D01*
X318958D01*
Y124833D01*
D02*
G37*
G36*
X315889D02*
X313620D01*
Y122661D01*
X315889D01*
Y124833D01*
D02*
G37*
G36*
X439726Y123967D02*
X436472D01*
Y122386D01*
X439726D01*
Y123967D01*
D02*
G37*
G36*
X435673D02*
X432419D01*
Y122386D01*
X435673D01*
Y123967D01*
D02*
G37*
G36*
X338828Y126586D02*
X337979Y126417D01*
X337259Y125936D01*
X336777Y125216D01*
X336609Y124366D01*
X336777Y123517D01*
X337259Y122797D01*
X337509Y122629D01*
X337558Y122132D01*
X331338Y115911D01*
X313420D01*
X312757Y116574D01*
Y117394D01*
X313620D01*
Y116559D01*
X318958D01*
Y117296D01*
X319781D01*
Y116598D01*
X325001D01*
Y122055D01*
X319781D01*
Y120964D01*
X318958D01*
Y121701D01*
X313620D01*
Y121063D01*
X312757D01*
Y121978D01*
X305254D01*
Y120398D01*
Y117248D01*
Y114099D01*
Y110949D01*
Y107799D01*
Y104650D01*
X309692D01*
X310917Y103424D01*
X310917Y103424D01*
X311214Y103225D01*
X311564Y103156D01*
X320496D01*
X329480Y94172D01*
X329480Y94172D01*
X329777Y93973D01*
X330128Y93904D01*
X330128Y93904D01*
X383168D01*
X383168Y93904D01*
X383518Y93973D01*
X383815Y94172D01*
X394207Y104564D01*
X394979Y104410D01*
X395828Y104579D01*
X396548Y105060D01*
X397030Y105780D01*
X397199Y106630D01*
X397030Y107479D01*
X396548Y108200D01*
X395828Y108681D01*
X394979Y108850D01*
X394129Y108681D01*
X393409Y108200D01*
X392928Y107479D01*
X392759Y106630D01*
X392913Y105858D01*
X382789Y95734D01*
X330507D01*
X321523Y104718D01*
X321226Y104917D01*
X320876Y104986D01*
X320876Y104986D01*
X312757D01*
Y108471D01*
X319453D01*
X329421Y98502D01*
X329421Y98502D01*
X329718Y98304D01*
X330068Y98234D01*
X330068Y98234D01*
X379183D01*
X379183Y98234D01*
X379533Y98304D01*
X379830Y98502D01*
X404778Y123451D01*
X411356D01*
Y122386D01*
X418663D01*
Y126347D01*
X411356D01*
Y125281D01*
X404399D01*
X404049Y125212D01*
X403752Y125013D01*
X403752Y125013D01*
X378803Y100065D01*
X330448D01*
X320479Y110033D01*
X320182Y110231D01*
X319832Y110301D01*
X319832Y110301D01*
X312757D01*
Y111332D01*
X324276D01*
X333071Y102538D01*
X333071Y102538D01*
X333368Y102339D01*
X333718Y102270D01*
X361466D01*
X361466Y102270D01*
X361816Y102339D01*
X362113Y102538D01*
X365254Y105678D01*
X365588Y106008D01*
Y106008D01*
X365588Y106008D01*
X372895D01*
Y106396D01*
X373561D01*
Y103469D01*
X378899D01*
Y108610D01*
X373561D01*
Y108226D01*
X372895D01*
Y109968D01*
X365588D01*
Y108601D01*
X361087Y104100D01*
X334097D01*
X325303Y112895D01*
X325006Y113093D01*
X324655Y113163D01*
X324655Y113163D01*
X312902D01*
X312780Y113662D01*
X313041Y114081D01*
X331717D01*
X331717Y114081D01*
X332067Y114151D01*
X332364Y114349D01*
X339475Y121460D01*
X339475Y121460D01*
X339674Y121757D01*
X339744Y122107D01*
X339743Y122107D01*
Y122359D01*
X340398Y122797D01*
X340879Y123517D01*
X341048Y124366D01*
X340879Y125216D01*
X340398Y125936D01*
X339678Y126417D01*
X338828Y126586D01*
D02*
G37*
G36*
X284695Y126179D02*
X283845Y126010D01*
X283125Y125528D01*
X282644Y124808D01*
X282475Y123959D01*
X282644Y123109D01*
X282646Y123106D01*
X281554Y122014D01*
X272588D01*
X272588Y122014D01*
X272238Y121944D01*
X271941Y121746D01*
X271941Y121746D01*
X269776Y119580D01*
X269577Y119283D01*
X269508Y118933D01*
X269508Y118933D01*
Y115021D01*
X268331Y113844D01*
X267482D01*
Y117248D01*
Y120398D01*
Y121978D01*
X259978D01*
Y120398D01*
Y117248D01*
Y114099D01*
Y110673D01*
X259738Y110625D01*
X259441Y110427D01*
X259441Y110427D01*
X256882Y107868D01*
X256684Y107571D01*
X256614Y107220D01*
X256614Y107220D01*
Y100218D01*
X253705Y97309D01*
X246899D01*
X246549Y97239D01*
X246252Y97041D01*
X246252Y97041D01*
X238616Y89405D01*
X237844Y89558D01*
X236995Y89389D01*
X236274Y88908D01*
X235793Y88188D01*
X235624Y87339D01*
X235793Y86489D01*
X236274Y85769D01*
X236995Y85288D01*
X237844Y85119D01*
X238694Y85288D01*
X239414Y85769D01*
X239895Y86489D01*
X240064Y87339D01*
X239910Y88111D01*
X247278Y95478D01*
X254084D01*
X254084Y95478D01*
X254434Y95548D01*
X254731Y95747D01*
X258176Y99191D01*
X258176Y99191D01*
X258375Y99488D01*
X258444Y99839D01*
X258444Y99839D01*
Y106841D01*
X259531Y107929D01*
X259978Y107668D01*
Y104650D01*
X262610D01*
Y100007D01*
X246987Y84384D01*
X229273D01*
X224542Y89115D01*
X224178Y89358D01*
X223750Y89443D01*
X212856D01*
Y92567D01*
X206927D01*
Y84079D01*
X212856D01*
Y87203D01*
X223286D01*
X228017Y82472D01*
X228380Y82229D01*
X228809Y82144D01*
X247450D01*
X247879Y82229D01*
X248242Y82472D01*
X264522Y98751D01*
X264765Y99115D01*
X264850Y99543D01*
Y104650D01*
X267482D01*
Y107799D01*
Y112014D01*
X268710D01*
X268710Y112014D01*
X269060Y112084D01*
X269357Y112282D01*
X271070Y113995D01*
X271070Y113995D01*
X271268Y114292D01*
X271338Y114642D01*
Y118554D01*
X272967Y120183D01*
X281933D01*
X281933Y120183D01*
X282283Y120253D01*
X282580Y120451D01*
X284005Y121876D01*
X284695Y121739D01*
X285544Y121908D01*
X286264Y122389D01*
X286745Y123109D01*
X286914Y123959D01*
X286745Y124808D01*
X286264Y125528D01*
X285544Y126010D01*
X284695Y126179D01*
D02*
G37*
G36*
X372895Y122589D02*
X369641D01*
Y121008D01*
X372895D01*
Y122589D01*
D02*
G37*
G36*
X368842D02*
X365588D01*
Y121008D01*
X368842D01*
Y122589D01*
D02*
G37*
G36*
X259214Y121996D02*
X256944D01*
Y119825D01*
X259214D01*
Y121996D01*
D02*
G37*
G36*
X256145D02*
X253876D01*
Y119825D01*
X256145D01*
Y121996D01*
D02*
G37*
G36*
X376226Y120581D02*
X375555Y120493D01*
X374929Y120234D01*
X374394Y119823D01*
X372895D01*
Y119968D01*
X365588D01*
Y116008D01*
X372895D01*
Y116154D01*
X374391D01*
Y114713D01*
X373561D01*
Y109571D01*
X378899D01*
Y114713D01*
X378060D01*
Y116156D01*
X378471Y116692D01*
X378731Y117317D01*
X378819Y117988D01*
X378731Y118659D01*
X378471Y119285D01*
X378059Y119822D01*
X377522Y120234D01*
X376897Y120493D01*
X376226Y120581D01*
D02*
G37*
G36*
X88151Y120815D02*
X85881D01*
Y118644D01*
X88151D01*
Y120815D01*
D02*
G37*
G36*
X85082D02*
X82812D01*
Y118644D01*
X85082D01*
Y120815D01*
D02*
G37*
G36*
X418663Y121346D02*
X411356D01*
Y120486D01*
X410816D01*
X410388Y120401D01*
X410025Y120158D01*
X400832Y110965D01*
X400589Y110602D01*
X400504Y110173D01*
Y89602D01*
X400589Y89174D01*
X400832Y88810D01*
X406875Y82767D01*
X407238Y82524D01*
X407667Y82439D01*
X417510D01*
X417831Y81665D01*
X418433Y80880D01*
X419218Y80278D01*
X420131Y79900D01*
X421112Y79771D01*
X422092Y79900D01*
X423006Y80278D01*
X423791Y80880D01*
X424393Y81665D01*
X424771Y82579D01*
X424900Y83559D01*
X424771Y84540D01*
X424393Y85453D01*
X423791Y86238D01*
X423006Y86840D01*
X422092Y87218D01*
X421112Y87347D01*
X420131Y87218D01*
X419218Y86840D01*
X418433Y86238D01*
X417831Y85453D01*
X417510Y84679D01*
X408131D01*
X402744Y90066D01*
Y109709D01*
X410856Y117822D01*
X411356Y117615D01*
Y117386D01*
X418663D01*
Y121346D01*
D02*
G37*
G36*
X144843Y118925D02*
X140113D01*
Y117344D01*
X144843D01*
Y118925D01*
D02*
G37*
G36*
X139314D02*
X134584D01*
Y117344D01*
X139314D01*
Y118925D01*
D02*
G37*
G36*
X259214Y119026D02*
X256944D01*
Y116854D01*
X259214D01*
Y119026D01*
D02*
G37*
G36*
X256145D02*
X253876D01*
Y116854D01*
X256145D01*
Y119026D01*
D02*
G37*
G36*
X328501Y127235D02*
X327830Y127146D01*
X327205Y126887D01*
X326668Y126475D01*
X326256Y125938D01*
X325997Y125313D01*
X325908Y124642D01*
X325997Y123971D01*
X326256Y123345D01*
X326667Y122809D01*
Y122055D01*
X325891D01*
Y116598D01*
X331112D01*
Y122055D01*
X330336D01*
Y122809D01*
X330747Y123345D01*
X331006Y123971D01*
X331095Y124642D01*
X331006Y125313D01*
X330747Y125938D01*
X330335Y126475D01*
X329798Y126887D01*
X329173Y127146D01*
X328501Y127235D01*
D02*
G37*
G36*
X450399Y127728D02*
X443675D01*
Y121004D01*
X448383D01*
X452052Y117334D01*
X452515Y117025D01*
X453061Y116917D01*
X471789D01*
Y116165D01*
X480277D01*
Y122095D01*
X471789D01*
Y119768D01*
X453651D01*
X450399Y123021D01*
Y127728D01*
D02*
G37*
G36*
X88151Y117844D02*
X85881D01*
Y115673D01*
X88151D01*
Y117844D01*
D02*
G37*
G36*
X85082D02*
X82812D01*
Y115673D01*
X85082D01*
Y117844D01*
D02*
G37*
G36*
X144843Y116545D02*
X140113D01*
Y114965D01*
X144843D01*
Y116545D01*
D02*
G37*
G36*
X139314D02*
X134584D01*
Y114965D01*
X139314D01*
Y116545D01*
D02*
G37*
G36*
X108623Y118925D02*
X98364D01*
Y118065D01*
X97083D01*
X96655Y117980D01*
X96291Y117737D01*
X96023Y117469D01*
X88718D01*
Y111539D01*
X97797D01*
Y115825D01*
X98364D01*
Y114965D01*
X108623D01*
Y118925D01*
D02*
G37*
G36*
X354179Y115581D02*
X353508Y115493D01*
X352882Y115234D01*
X352346Y114823D01*
X351439D01*
Y114969D01*
X344131D01*
Y111008D01*
X351439D01*
Y111154D01*
X352346D01*
X352882Y110743D01*
X353508Y110484D01*
X354179Y110395D01*
X354850Y110484D01*
X355475Y110743D01*
X356012Y111155D01*
X356424Y111692D01*
X356683Y112317D01*
X356772Y112988D01*
X356683Y113659D01*
X356424Y114285D01*
X356012Y114822D01*
X355475Y115234D01*
X354850Y115493D01*
X354179Y115581D01*
D02*
G37*
G36*
X343368Y116681D02*
X341098D01*
Y114510D01*
X343368D01*
Y116681D01*
D02*
G37*
G36*
X340299D02*
X338029D01*
Y114510D01*
X340299D01*
Y116681D01*
D02*
G37*
G36*
X252411Y114184D02*
X251561Y114015D01*
X250841Y113534D01*
X250404Y112880D01*
X144843D01*
Y113925D01*
X134584D01*
Y109965D01*
X144843D01*
Y111049D01*
X250404D01*
X250841Y110395D01*
X251561Y109914D01*
X252411Y109745D01*
X253260Y109914D01*
X253981Y110395D01*
X254462Y111115D01*
X254631Y111965D01*
X254462Y112814D01*
X253981Y113534D01*
X253260Y114015D01*
X252411Y114184D01*
D02*
G37*
G36*
X418663Y116347D02*
X411356D01*
Y115486D01*
X411131D01*
X410703Y115401D01*
X410339Y115158D01*
X404277Y109095D01*
X404034Y108732D01*
X403948Y108303D01*
Y94573D01*
X404034Y94145D01*
X404277Y93782D01*
X409248Y88810D01*
X409611Y88568D01*
X410040Y88482D01*
X434290D01*
X437458Y85314D01*
X437138Y84540D01*
X437008Y83559D01*
X437138Y82579D01*
X437516Y81665D01*
X438118Y80880D01*
X438903Y80278D01*
X439816Y79900D01*
X440797Y79771D01*
X441777Y79900D01*
X442691Y80278D01*
X443475Y80880D01*
X444078Y81665D01*
X444456Y82579D01*
X444585Y83559D01*
X444456Y84540D01*
X444078Y85453D01*
X443475Y86238D01*
X442691Y86840D01*
X441777Y87218D01*
X440797Y87347D01*
X439816Y87218D01*
X439042Y86898D01*
X435545Y90394D01*
X435182Y90637D01*
X434754Y90722D01*
X410503D01*
X406188Y95037D01*
Y107839D01*
X410917Y112568D01*
X411356Y112386D01*
Y112386D01*
X418663D01*
Y116347D01*
D02*
G37*
G36*
X108623Y113925D02*
X103893D01*
Y112345D01*
X108623D01*
Y113925D01*
D02*
G37*
G36*
X103094D02*
X98364D01*
Y112345D01*
X103094D01*
Y113925D01*
D02*
G37*
G36*
X343368Y113711D02*
X341098D01*
Y111539D01*
X343368D01*
Y113711D01*
D02*
G37*
G36*
X340299D02*
X338029D01*
Y111539D01*
X340299D01*
Y113711D01*
D02*
G37*
G36*
X362844Y125974D02*
X361995Y125805D01*
X361274Y125323D01*
X360793Y124603D01*
X360624Y123754D01*
X360793Y122904D01*
X361274Y122184D01*
X361929Y121747D01*
Y116177D01*
X361929Y116177D01*
X361999Y115827D01*
X362197Y115530D01*
X365386Y112341D01*
X365386Y112341D01*
X365588Y112206D01*
Y111008D01*
X372895D01*
Y114969D01*
X365588D01*
X365588Y114969D01*
Y114969D01*
X365161Y115155D01*
X363759Y116556D01*
Y121747D01*
X364414Y122184D01*
X364895Y122904D01*
X365064Y123754D01*
X364895Y124603D01*
X364414Y125323D01*
X363694Y125805D01*
X362844Y125974D01*
D02*
G37*
G36*
X108623Y111545D02*
X103893D01*
Y109965D01*
X108623D01*
Y111545D01*
D02*
G37*
G36*
X103094D02*
X98364D01*
Y109965D01*
X103094D01*
Y111545D01*
D02*
G37*
G36*
X343368Y110579D02*
X338029D01*
Y109818D01*
X337068D01*
X336532Y110229D01*
X335907Y110488D01*
X335236Y110576D01*
X334565Y110488D01*
X333939Y110229D01*
X333402Y109817D01*
X332990Y109280D01*
X332731Y108654D01*
X332643Y107983D01*
X332731Y107312D01*
X332990Y106687D01*
X333402Y106150D01*
X333939Y105738D01*
X334565Y105479D01*
X335236Y105390D01*
X335907Y105479D01*
X336532Y105738D01*
X337068Y106149D01*
X338029D01*
Y105437D01*
X343368D01*
Y106154D01*
X344131D01*
Y106008D01*
X351439D01*
Y109968D01*
X344131D01*
Y109823D01*
X343368D01*
Y110579D01*
D02*
G37*
G36*
X252411Y109165D02*
X251561Y108996D01*
X250841Y108514D01*
X250404Y107860D01*
X144843D01*
Y108925D01*
X134584D01*
Y104965D01*
X144843D01*
Y106030D01*
X250404D01*
X250841Y105375D01*
X251561Y104894D01*
X252411Y104725D01*
X253260Y104894D01*
X253981Y105375D01*
X254462Y106095D01*
X254631Y106945D01*
X254462Y107794D01*
X253981Y108514D01*
X253260Y108996D01*
X252411Y109165D01*
D02*
G37*
G36*
X108623Y108925D02*
X103893D01*
Y107344D01*
X108623D01*
Y108925D01*
D02*
G37*
G36*
X103094D02*
X98364D01*
Y107344D01*
X103094D01*
Y108925D01*
D02*
G37*
G36*
X108623Y106545D02*
X103893D01*
Y104965D01*
X108623D01*
Y106545D01*
D02*
G37*
G36*
X103094D02*
X98364D01*
Y104965D01*
X103094D01*
Y106545D01*
D02*
G37*
G36*
X274400Y119676D02*
X273551Y119508D01*
X272831Y119026D01*
X272350Y118306D01*
X272181Y117457D01*
X272350Y116607D01*
X272831Y115887D01*
X273551Y115406D01*
X274400Y115237D01*
X275250Y115406D01*
X275970Y115887D01*
X276407Y116542D01*
X291894D01*
X298051Y110385D01*
Y103492D01*
X296732D01*
Y108500D01*
X296732Y108500D01*
X296662Y108850D01*
X296464Y109147D01*
X296464Y109147D01*
X292999Y112612D01*
X292702Y112810D01*
X292352Y112880D01*
X292352Y112880D01*
X276407D01*
X275970Y113534D01*
X275250Y114015D01*
X274400Y114184D01*
X273551Y114015D01*
X272831Y113534D01*
X272350Y112814D01*
X272181Y111965D01*
X272350Y111115D01*
X272831Y110395D01*
X273551Y109914D01*
X274400Y109745D01*
X275250Y109914D01*
X275970Y110395D01*
X276407Y111049D01*
X291973D01*
X294901Y108121D01*
Y103492D01*
X293582D01*
Y106728D01*
X293582Y106728D01*
X293513Y107079D01*
X293314Y107376D01*
X293314Y107376D01*
X291621Y109069D01*
X291324Y109267D01*
X290974Y109337D01*
X290974Y109337D01*
X288061D01*
X288061Y109337D01*
X287710Y109267D01*
X287413Y109069D01*
X287413Y109069D01*
X285496Y107151D01*
X276407D01*
X275970Y107806D01*
X275250Y108287D01*
X274400Y108456D01*
X273551Y108287D01*
X272831Y107806D01*
X272350Y107086D01*
X272181Y106236D01*
X272350Y105387D01*
X272831Y104667D01*
X273551Y104185D01*
X274400Y104016D01*
X275250Y104185D01*
X275970Y104667D01*
X276407Y105321D01*
X285876D01*
X285876Y105321D01*
X286226Y105391D01*
X286523Y105589D01*
X288440Y107506D01*
X290595D01*
X291752Y106349D01*
Y103492D01*
X289917D01*
Y99740D01*
Y95988D01*
X304096D01*
Y98825D01*
X319847D01*
X327244Y91428D01*
Y83106D01*
X327244Y83106D01*
X327313Y82756D01*
X327512Y82459D01*
X338524Y71447D01*
X338444Y71344D01*
X338041Y70371D01*
X337904Y69327D01*
X338041Y68283D01*
X338444Y67309D01*
X339086Y66474D01*
X339921Y65833D01*
X340894Y65430D01*
X341938Y65292D01*
X342983Y65430D01*
X343956Y65833D01*
X344791Y66474D01*
X345432Y67309D01*
X345836Y68283D01*
X345973Y69327D01*
X345836Y70371D01*
X345432Y71344D01*
X344791Y72180D01*
X343956Y72821D01*
X342983Y73224D01*
X341938Y73361D01*
X340894Y73224D01*
X339921Y72821D01*
X339818Y72742D01*
X329074Y83485D01*
Y91807D01*
X329074Y91807D01*
X329005Y92157D01*
X328806Y92454D01*
X328806Y92454D01*
X320873Y100387D01*
X320576Y100586D01*
X320226Y100655D01*
X320226Y100655D01*
X304096D01*
Y103492D01*
X299881D01*
Y110764D01*
X299812Y111114D01*
X299613Y111411D01*
X299613Y111411D01*
X292920Y118104D01*
X292623Y118302D01*
X292273Y118372D01*
X292273Y118372D01*
X276407D01*
X275970Y119026D01*
X275250Y119508D01*
X274400Y119676D01*
D02*
G37*
G36*
X439726Y106346D02*
X432419D01*
Y105445D01*
X432199Y105401D01*
X431836Y105158D01*
X429713Y103036D01*
X429183Y103141D01*
X428333Y102972D01*
X427613Y102491D01*
X427132Y101771D01*
X426963Y100921D01*
X427132Y100072D01*
X427613Y99352D01*
X428333Y98870D01*
X429183Y98702D01*
X430032Y98870D01*
X430752Y99352D01*
X431234Y100072D01*
X431402Y100921D01*
X431297Y101452D01*
X432010Y102165D01*
X432419Y102386D01*
Y102386D01*
X432419Y102386D01*
X439726D01*
Y106346D01*
D02*
G37*
G36*
X252515Y104165D02*
X251665Y103996D01*
X250945Y103515D01*
X250508Y102860D01*
X144843D01*
Y103925D01*
X134584D01*
Y99965D01*
X144843D01*
Y101030D01*
X250508D01*
X250945Y100375D01*
X251665Y99894D01*
X252515Y99725D01*
X253364Y99894D01*
X254085Y100375D01*
X254566Y101095D01*
X254735Y101945D01*
X254566Y102794D01*
X254085Y103515D01*
X253364Y103996D01*
X252515Y104165D01*
D02*
G37*
G36*
X108623Y103925D02*
X98364D01*
Y102860D01*
X97403D01*
Y103886D01*
X92261D01*
Y98547D01*
X93917D01*
Y90291D01*
X93917Y90291D01*
X93987Y89941D01*
X94185Y89644D01*
X105177Y78653D01*
Y69311D01*
X104970Y69284D01*
X103923Y68851D01*
X103025Y68161D01*
X102336Y67263D01*
X101903Y66217D01*
X101755Y65095D01*
X101903Y63972D01*
X102336Y62926D01*
X103025Y62028D01*
X103923Y61339D01*
X104970Y60905D01*
X106092Y60757D01*
X107215Y60905D01*
X108261Y61339D01*
X109159Y62028D01*
X109848Y62926D01*
X110281Y63972D01*
X110429Y65095D01*
X110281Y66217D01*
X109848Y67263D01*
X109159Y68161D01*
X108261Y68851D01*
X107215Y69284D01*
X107007Y69311D01*
Y79031D01*
X107007Y79032D01*
X106938Y79382D01*
X106739Y79679D01*
X106739Y79679D01*
X95748Y90671D01*
Y98547D01*
X97403D01*
Y101030D01*
X98364D01*
Y99965D01*
X108623D01*
Y103925D01*
D02*
G37*
G36*
X439726Y121346D02*
X432419D01*
Y117386D01*
X439726D01*
Y118246D01*
X444624D01*
X458063Y104808D01*
Y102791D01*
X457613Y102491D01*
X457132Y101771D01*
X456963Y100921D01*
X457132Y100072D01*
X457613Y99352D01*
X458333Y98870D01*
X459183Y98702D01*
X460032Y98870D01*
X460752Y99352D01*
X461234Y100072D01*
X461403Y100921D01*
X461234Y101771D01*
X460752Y102491D01*
X460303Y102791D01*
Y105272D01*
X460217Y105700D01*
X459975Y106064D01*
X445880Y120158D01*
X445517Y120401D01*
X445088Y120486D01*
X439726D01*
Y121346D01*
D02*
G37*
G36*
Y116347D02*
X432419D01*
Y112386D01*
X439726D01*
Y113246D01*
X441652D01*
X451893Y103006D01*
X452023Y102491D01*
X451541Y101771D01*
X451372Y100921D01*
X451541Y100072D01*
X452023Y99352D01*
X452743Y98870D01*
X453592Y98702D01*
X454442Y98870D01*
X455162Y99352D01*
X455643Y100072D01*
X455812Y100921D01*
X455643Y101771D01*
X455162Y102491D01*
X454464Y102957D01*
Y103137D01*
X454379Y103566D01*
X454136Y103929D01*
X442908Y115158D01*
X442544Y115401D01*
X442116Y115486D01*
X439726D01*
Y116347D01*
D02*
G37*
G36*
Y111346D02*
X432419D01*
Y107386D01*
X439638D01*
X445572Y101452D01*
X445467Y100921D01*
X445636Y100072D01*
X446117Y99352D01*
X446837Y98870D01*
X447687Y98702D01*
X448536Y98870D01*
X449256Y99352D01*
X449737Y100072D01*
X449906Y100921D01*
X449737Y101771D01*
X449256Y102491D01*
X448536Y102972D01*
X447687Y103141D01*
X447156Y103036D01*
X440034Y110158D01*
X439726Y110364D01*
Y111346D01*
D02*
G37*
G36*
X295435Y95323D02*
X293263D01*
Y93053D01*
X295435D01*
Y95323D01*
D02*
G37*
G36*
X292464D02*
X290293D01*
Y93053D01*
X292464D01*
Y95323D01*
D02*
G37*
G36*
X91301Y103886D02*
X86159D01*
Y98547D01*
X86472D01*
Y96485D01*
X86468Y96480D01*
X86209Y95854D01*
X86121Y95183D01*
X86209Y94512D01*
X86468Y93887D01*
X86880Y93350D01*
X87417Y92938D01*
X88042Y92679D01*
X88714Y92590D01*
X89385Y92679D01*
X90010Y92938D01*
X90547Y93350D01*
X90959Y93887D01*
X91218Y94512D01*
X91307Y95183D01*
X91218Y95854D01*
X90959Y96480D01*
X90956Y96485D01*
Y98547D01*
X91301D01*
Y103886D01*
D02*
G37*
G36*
X121120Y93059D02*
X118948D01*
Y90790D01*
X121120D01*
Y93059D01*
D02*
G37*
G36*
X118149D02*
X115978D01*
Y90790D01*
X118149D01*
Y93059D01*
D02*
G37*
G36*
X295435Y92254D02*
X293263D01*
Y89984D01*
X295435D01*
Y92254D01*
D02*
G37*
G36*
X292464D02*
X290293D01*
Y89984D01*
X292464D01*
Y92254D01*
D02*
G37*
G36*
X121120Y89990D02*
X118948D01*
Y87721D01*
X121120D01*
Y89990D01*
D02*
G37*
G36*
X118149D02*
X115978D01*
Y87721D01*
X118149D01*
Y89990D01*
D02*
G37*
G36*
X289118Y103492D02*
X268639D01*
Y99468D01*
X268541Y99448D01*
X268244Y99250D01*
X268244Y99250D01*
X246422Y77427D01*
X211860D01*
X211860Y77427D01*
X211509Y77357D01*
X211213Y77159D01*
X211213Y77159D01*
X206894Y72840D01*
X206790Y72919D01*
X205817Y73322D01*
X204773Y73460D01*
X203729Y73322D01*
X202756Y72919D01*
X201920Y72278D01*
X201279Y71443D01*
X200876Y70469D01*
X200739Y69425D01*
X200876Y68381D01*
X201279Y67408D01*
X201920Y66572D01*
X202756Y65931D01*
X203729Y65528D01*
X204773Y65391D01*
X205817Y65528D01*
X206790Y65931D01*
X207626Y66572D01*
X208267Y67408D01*
X208670Y68381D01*
X208808Y69425D01*
X208670Y70469D01*
X208267Y71443D01*
X208188Y71546D01*
X212239Y75597D01*
X246801D01*
X246801Y75597D01*
X247151Y75666D01*
X247448Y75865D01*
X268177Y96594D01*
X268639Y96403D01*
Y95988D01*
X271318D01*
X271509Y95526D01*
X269374Y93391D01*
X268922Y93436D01*
X268202Y93917D01*
X267352Y94086D01*
X266503Y93917D01*
X265782Y93436D01*
X265301Y92716D01*
X265132Y91866D01*
X265301Y91017D01*
X265782Y90297D01*
X266503Y89815D01*
X267352Y89646D01*
X268202Y89815D01*
X268922Y90297D01*
X269392Y91000D01*
X269494Y91021D01*
X269791Y91219D01*
X274416Y95845D01*
X274416Y95845D01*
X274512Y95988D01*
X275905D01*
Y92697D01*
X271659Y88451D01*
X265142D01*
X264704Y89105D01*
X263984Y89586D01*
X263135Y89755D01*
X262285Y89586D01*
X261565Y89105D01*
X261084Y88385D01*
X260915Y87536D01*
X261084Y86686D01*
X261565Y85966D01*
X262285Y85485D01*
X263135Y85316D01*
X263984Y85485D01*
X264704Y85966D01*
X265142Y86620D01*
X272038D01*
X272038Y86620D01*
X272389Y86690D01*
X272685Y86888D01*
X277468Y91671D01*
X277468Y91671D01*
X277666Y91967D01*
X277736Y92318D01*
Y95988D01*
X278760D01*
Y88013D01*
X274926Y84179D01*
X261021D01*
X260583Y84834D01*
X259863Y85315D01*
X259014Y85484D01*
X258164Y85315D01*
X257444Y84834D01*
X256963Y84113D01*
X256794Y83264D01*
X256963Y82414D01*
X257444Y81694D01*
X258164Y81213D01*
X259014Y81044D01*
X259863Y81213D01*
X260583Y81694D01*
X261021Y82349D01*
X275305D01*
X275305Y82349D01*
X275655Y82418D01*
X275952Y82617D01*
X280322Y86987D01*
X280322Y86987D01*
X280520Y87284D01*
X280590Y87634D01*
X280590Y87634D01*
Y95988D01*
X281417D01*
Y85510D01*
X281502Y85082D01*
X281745Y84719D01*
X284573Y81891D01*
X284936Y81648D01*
X285365Y81563D01*
X302243D01*
X302672Y81648D01*
X303035Y81891D01*
X307905Y86761D01*
X319387D01*
Y83636D01*
X325317D01*
Y92125D01*
X319387D01*
Y89000D01*
X307441D01*
X307013Y88915D01*
X306649Y88673D01*
X301780Y83803D01*
X285829D01*
X283657Y85974D01*
Y95988D01*
X284534D01*
Y95323D01*
X284191D01*
Y89984D01*
X285272D01*
Y89373D01*
X285008Y89029D01*
X284749Y88403D01*
X284661Y87732D01*
X284749Y87061D01*
X285008Y86436D01*
X285420Y85899D01*
X285957Y85487D01*
X286582Y85228D01*
X287253Y85139D01*
X287925Y85228D01*
X288550Y85487D01*
X289087Y85899D01*
X289499Y86436D01*
X289758Y87061D01*
X289847Y87732D01*
X289758Y88403D01*
X289499Y89029D01*
X289150Y89484D01*
X289166Y89543D01*
X289332Y89984D01*
X289332Y89984D01*
X289332Y89984D01*
Y95323D01*
X288201D01*
Y95988D01*
X289118D01*
Y99740D01*
Y103492D01*
D02*
G37*
G36*
X119151Y87071D02*
X117570D01*
Y84309D01*
X119151D01*
Y87071D01*
D02*
G37*
G36*
X116771D02*
X115190D01*
Y84309D01*
X116771D01*
Y87071D01*
D02*
G37*
G36*
X201242Y92567D02*
X195313D01*
Y89443D01*
X184946D01*
X184517Y89358D01*
X184154Y89115D01*
X181641Y86601D01*
X176500D01*
Y79877D01*
X183224D01*
Y85017D01*
X185410Y87203D01*
X195313D01*
Y84079D01*
X201242D01*
Y92567D01*
D02*
G37*
G36*
X124651Y99184D02*
X123980Y99095D01*
X123355Y98836D01*
X122818Y98424D01*
X122406Y97887D01*
X122146Y97262D01*
X122058Y96591D01*
X122146Y95920D01*
X122406Y95294D01*
X122817Y94758D01*
Y93059D01*
X122080D01*
Y87721D01*
X122817D01*
Y87071D01*
X122671D01*
Y80748D01*
X126631D01*
Y87071D01*
X126486D01*
Y87721D01*
X127222D01*
Y93059D01*
X126486D01*
Y94758D01*
X126897Y95294D01*
X127156Y95920D01*
X127244Y96591D01*
X127156Y97262D01*
X126897Y97887D01*
X126485Y98424D01*
X125948Y98836D01*
X125322Y99095D01*
X124651Y99184D01*
D02*
G37*
G36*
X119151Y83510D02*
X117570D01*
Y80748D01*
X119151D01*
Y83510D01*
D02*
G37*
G36*
X116771D02*
X115190D01*
Y80748D01*
X116771D01*
Y83510D01*
D02*
G37*
G36*
X336931Y92125D02*
X331002D01*
Y83636D01*
X336931D01*
Y86761D01*
X361479D01*
X363222Y85017D01*
Y79877D01*
X369946D01*
Y86601D01*
X364806D01*
X362735Y88673D01*
X362371Y88915D01*
X361943Y89000D01*
X336931D01*
Y92125D01*
D02*
G37*
G36*
X418663Y106346D02*
X411356D01*
Y102386D01*
X415968D01*
Y102288D01*
X416053Y101859D01*
X416296Y101496D01*
X421599Y96192D01*
X421963Y95950D01*
X422391Y95864D01*
X466278D01*
X476828Y85314D01*
X476508Y84540D01*
X476378Y83559D01*
X476508Y82579D01*
X476886Y81665D01*
X477488Y80880D01*
X478273Y80278D01*
X479186Y79900D01*
X480167Y79771D01*
X481147Y79900D01*
X482061Y80278D01*
X482845Y80880D01*
X483448Y81665D01*
X483826Y82579D01*
X483955Y83559D01*
X483826Y84540D01*
X483448Y85453D01*
X482845Y86238D01*
X482061Y86840D01*
X481147Y87218D01*
X480167Y87347D01*
X479186Y87218D01*
X478412Y86898D01*
X467533Y97776D01*
X467170Y98019D01*
X466742Y98104D01*
X422855D01*
X418942Y102017D01*
X418663Y102386D01*
X418663D01*
X418663Y102386D01*
Y106346D01*
D02*
G37*
G36*
Y111346D02*
X411356D01*
Y110281D01*
X411241D01*
X410812Y110195D01*
X410449Y109953D01*
X407721Y107225D01*
X407479Y106862D01*
X407393Y106433D01*
Y99543D01*
X407479Y99115D01*
X407721Y98751D01*
X413922Y92551D01*
X414286Y92308D01*
X414714Y92223D01*
X450234D01*
X457143Y85314D01*
X456822Y84540D01*
X456694Y83559D01*
X456822Y82579D01*
X457201Y81665D01*
X457803Y80880D01*
X458588Y80278D01*
X459501Y79900D01*
X460482Y79771D01*
X461462Y79900D01*
X462376Y80278D01*
X463161Y80880D01*
X463763Y81665D01*
X464141Y82579D01*
X464270Y83559D01*
X464141Y84540D01*
X463763Y85453D01*
X463161Y86238D01*
X462376Y86840D01*
X461462Y87218D01*
X460482Y87347D01*
X459501Y87218D01*
X458727Y86898D01*
X451490Y94134D01*
X451127Y94377D01*
X450698Y94463D01*
X415178D01*
X409633Y100007D01*
Y105969D01*
X410899Y107235D01*
X411356Y107386D01*
Y107386D01*
X411356Y107386D01*
X418663D01*
Y111346D01*
D02*
G37*
G36*
X215273Y73394D02*
Y69925D01*
X218742D01*
X218670Y70469D01*
X218267Y71443D01*
X217626Y72278D01*
X216791Y72919D01*
X215817Y73322D01*
X215273Y73394D01*
D02*
G37*
G36*
X214273Y73394D02*
X213729Y73322D01*
X212756Y72919D01*
X211920Y72278D01*
X211279Y71443D01*
X210876Y70469D01*
X210805Y69925D01*
X214273D01*
Y73394D01*
D02*
G37*
G36*
X155549Y73394D02*
Y69925D01*
X159018D01*
X158946Y70469D01*
X158543Y71443D01*
X157902Y72278D01*
X157066Y72919D01*
X156093Y73322D01*
X155549Y73394D01*
D02*
G37*
G36*
X154549Y73394D02*
X154005Y73322D01*
X153032Y72919D01*
X152196Y72278D01*
X151555Y71443D01*
X151152Y70469D01*
X151080Y69925D01*
X154549D01*
Y73394D01*
D02*
G37*
G36*
X332438Y73295D02*
Y69827D01*
X335907D01*
X335836Y70371D01*
X335433Y71344D01*
X334791Y72180D01*
X333956Y72821D01*
X332983Y73224D01*
X332438Y73295D01*
D02*
G37*
G36*
X331438Y73295D02*
X330894Y73224D01*
X329921Y72821D01*
X329086Y72180D01*
X328445Y71344D01*
X328042Y70371D01*
X327970Y69827D01*
X331438D01*
Y73295D01*
D02*
G37*
G36*
X401710Y73295D02*
Y69827D01*
X405179D01*
X405107Y70371D01*
X404704Y71344D01*
X404063Y72180D01*
X403227Y72821D01*
X402254Y73224D01*
X401710Y73295D01*
D02*
G37*
G36*
X400710Y73295D02*
X400166Y73224D01*
X399193Y72821D01*
X398357Y72180D01*
X397716Y71344D01*
X397313Y70371D01*
X397241Y69827D01*
X400710D01*
Y73295D01*
D02*
G37*
G36*
X480167Y77347D02*
X479186Y77218D01*
X478273Y76840D01*
X477488Y76238D01*
X476886Y75453D01*
X476508Y74540D01*
X476378Y73559D01*
X476508Y72579D01*
X476886Y71665D01*
X477488Y70880D01*
X478273Y70278D01*
X479186Y69900D01*
X480167Y69771D01*
X481147Y69900D01*
X482061Y70278D01*
X482845Y70880D01*
X483448Y71665D01*
X483826Y72579D01*
X483955Y73559D01*
X483826Y74540D01*
X483448Y75453D01*
X482845Y76238D01*
X482061Y76840D01*
X481147Y77218D01*
X480167Y77347D01*
D02*
G37*
G36*
X460482D02*
X459501Y77218D01*
X458588Y76840D01*
X457803Y76238D01*
X457201Y75453D01*
X456822Y74540D01*
X456694Y73559D01*
X456822Y72579D01*
X457201Y71665D01*
X457803Y70880D01*
X458588Y70278D01*
X459501Y69900D01*
X460482Y69771D01*
X461462Y69900D01*
X462376Y70278D01*
X463161Y70880D01*
X463763Y71665D01*
X464141Y72579D01*
X464270Y73559D01*
X464141Y74540D01*
X463763Y75453D01*
X463161Y76238D01*
X462376Y76840D01*
X461462Y77218D01*
X460482Y77347D01*
D02*
G37*
G36*
X440797D02*
X439816Y77218D01*
X438903Y76840D01*
X438118Y76238D01*
X437516Y75453D01*
X437138Y74540D01*
X437008Y73559D01*
X437138Y72579D01*
X437516Y71665D01*
X438118Y70880D01*
X438903Y70278D01*
X439816Y69900D01*
X440797Y69771D01*
X441777Y69900D01*
X442691Y70278D01*
X443475Y70880D01*
X444078Y71665D01*
X444456Y72579D01*
X444585Y73559D01*
X444456Y74540D01*
X444078Y75453D01*
X443475Y76238D01*
X442691Y76840D01*
X441777Y77218D01*
X440797Y77347D01*
D02*
G37*
G36*
X421112D02*
X420131Y77218D01*
X419218Y76840D01*
X418433Y76238D01*
X417831Y75453D01*
X417453Y74540D01*
X417323Y73559D01*
X417453Y72579D01*
X417831Y71665D01*
X418433Y70880D01*
X419218Y70278D01*
X420131Y69900D01*
X421112Y69771D01*
X422092Y69900D01*
X423006Y70278D01*
X423791Y70880D01*
X424393Y71665D01*
X424771Y72579D01*
X424900Y73559D01*
X424771Y74540D01*
X424393Y75453D01*
X423791Y76238D01*
X423006Y76840D01*
X422092Y77218D01*
X421112Y77347D01*
D02*
G37*
G36*
X273710Y81762D02*
X273039Y81674D01*
X272414Y81415D01*
X271877Y81003D01*
X271465Y80466D01*
X271205Y79840D01*
X271117Y79169D01*
X271205Y78498D01*
X271465Y77873D01*
X271876Y77337D01*
Y76228D01*
X271139D01*
Y70890D01*
X271876D01*
Y69654D01*
X271269Y69047D01*
X270935Y69185D01*
X269813Y69333D01*
X268690Y69185D01*
X267644Y68752D01*
X266746Y68063D01*
X266057Y67165D01*
X265623Y66119D01*
X265476Y64996D01*
X265623Y63874D01*
X266057Y62827D01*
X266746Y61929D01*
X267644Y61240D01*
X268690Y60807D01*
X269813Y60659D01*
X270935Y60807D01*
X271981Y61240D01*
X272879Y61929D01*
X273569Y62827D01*
X274002Y63874D01*
X274150Y64996D01*
X274002Y66119D01*
X273864Y66453D01*
X275007Y67597D01*
X275405Y68192D01*
X275545Y68894D01*
Y70890D01*
X276281D01*
Y76228D01*
X275545D01*
Y77337D01*
X275956Y77873D01*
X276215Y78498D01*
X276303Y79169D01*
X276215Y79840D01*
X275956Y80466D01*
X275544Y81003D01*
X275007Y81415D01*
X274381Y81674D01*
X273710Y81762D01*
D02*
G37*
G36*
X189862Y76630D02*
X188985Y76515D01*
X188167Y76176D01*
X187465Y75637D01*
X186926Y74935D01*
X186587Y74117D01*
X186471Y73239D01*
X186587Y72362D01*
X186825Y71786D01*
X181316Y66276D01*
X180740Y66515D01*
X179862Y66630D01*
X178985Y66515D01*
X178167Y66176D01*
X177465Y65637D01*
X176926Y64935D01*
X176687Y64359D01*
X151699D01*
X148574Y67484D01*
X148946Y68381D01*
X149083Y69425D01*
X148946Y70469D01*
X148543Y71443D01*
X147902Y72278D01*
X147066Y72919D01*
X146093Y73322D01*
X145049Y73460D01*
X144005Y73322D01*
X143032Y72919D01*
X142196Y72278D01*
X141555Y71443D01*
X141152Y70469D01*
X141014Y69425D01*
X141152Y68381D01*
X141555Y67408D01*
X142196Y66572D01*
X143032Y65931D01*
X144005Y65528D01*
X145049Y65391D01*
X146093Y65528D01*
X146990Y65900D01*
X150443Y62447D01*
X150806Y62205D01*
X151235Y62119D01*
X176687D01*
X176926Y61544D01*
X177465Y60842D01*
X178167Y60303D01*
X178985Y59964D01*
X179862Y59848D01*
X180740Y59964D01*
X181558Y60303D01*
X182260Y60842D01*
X182799Y61544D01*
X183138Y62362D01*
X183253Y63239D01*
X183138Y64117D01*
X182899Y64692D01*
X188409Y70202D01*
X188985Y69964D01*
X189862Y69848D01*
X190740Y69964D01*
X191558Y70303D01*
X192260Y70841D01*
X192799Y71544D01*
X193138Y72362D01*
X193253Y73239D01*
X193138Y74117D01*
X192799Y74935D01*
X192260Y75637D01*
X191558Y76176D01*
X190740Y76515D01*
X189862Y76630D01*
D02*
G37*
G36*
X86592Y69366D02*
Y65595D01*
X90363D01*
X90281Y66217D01*
X89848Y67263D01*
X89159Y68161D01*
X88261Y68851D01*
X87215Y69284D01*
X86592Y69366D01*
D02*
G37*
G36*
X85592D02*
X84970Y69284D01*
X83924Y68851D01*
X83025Y68161D01*
X82336Y67263D01*
X81903Y66217D01*
X81821Y65595D01*
X85592D01*
Y69366D01*
D02*
G37*
G36*
X260313Y69267D02*
Y65496D01*
X264084D01*
X264002Y66119D01*
X263569Y67165D01*
X262879Y68063D01*
X261981Y68752D01*
X260935Y69185D01*
X260313Y69267D01*
D02*
G37*
G36*
X259313D02*
X258690Y69185D01*
X257644Y68752D01*
X256746Y68063D01*
X256057Y67165D01*
X255623Y66119D01*
X255541Y65496D01*
X259313D01*
Y69267D01*
D02*
G37*
G36*
X159018Y68925D02*
X155549D01*
Y65457D01*
X156093Y65528D01*
X157066Y65931D01*
X157902Y66572D01*
X158543Y67408D01*
X158946Y68381D01*
X159018Y68925D01*
D02*
G37*
G36*
X218742Y68925D02*
X215273D01*
Y65457D01*
X215817Y65528D01*
X216791Y65931D01*
X217626Y66572D01*
X218267Y67408D01*
X218670Y68381D01*
X218742Y68925D01*
D02*
G37*
G36*
X214273D02*
X210805D01*
X210876Y68381D01*
X211279Y67408D01*
X211920Y66572D01*
X212756Y65931D01*
X213729Y65528D01*
X214273Y65457D01*
Y68925D01*
D02*
G37*
G36*
X154549Y68925D02*
X151080D01*
X151152Y68381D01*
X151555Y67408D01*
X152196Y66572D01*
X153032Y65931D01*
X154005Y65528D01*
X154549Y65457D01*
Y68925D01*
D02*
G37*
G36*
X331438Y68827D02*
X327970D01*
X328042Y68283D01*
X328445Y67309D01*
X329086Y66474D01*
X329921Y65833D01*
X330894Y65430D01*
X331438Y65358D01*
Y68827D01*
D02*
G37*
G36*
X400710Y68827D02*
X397241D01*
X397313Y68283D01*
X397716Y67309D01*
X398357Y66474D01*
X399193Y65833D01*
X400166Y65430D01*
X400710Y65358D01*
Y68827D01*
D02*
G37*
G36*
X405179D02*
X401710D01*
Y65358D01*
X402254Y65430D01*
X403227Y65833D01*
X404063Y66474D01*
X404704Y67309D01*
X405107Y68283D01*
X405179Y68827D01*
D02*
G37*
G36*
X335907Y68827D02*
X332438D01*
Y65358D01*
X332983Y65430D01*
X333956Y65833D01*
X334791Y66474D01*
X335433Y67309D01*
X335836Y68283D01*
X335907Y68827D01*
D02*
G37*
G36*
X376584Y76630D02*
X375707Y76515D01*
X374889Y76176D01*
X374186Y75637D01*
X373647Y74935D01*
X373309Y74117D01*
X373193Y73239D01*
X373309Y72362D01*
X373547Y71786D01*
X368037Y66276D01*
X367462Y66515D01*
X366584Y66630D01*
X365707Y66515D01*
X364889Y66176D01*
X364186Y65637D01*
X363648Y64935D01*
X363309Y64117D01*
X363193Y63239D01*
X363309Y62362D01*
X363648Y61544D01*
X364186Y60841D01*
X364889Y60303D01*
X365707Y59964D01*
X366584Y59848D01*
X367462Y59964D01*
X368280Y60303D01*
X368982Y60841D01*
X369521Y61544D01*
X369860Y62362D01*
X369975Y63239D01*
X369860Y64117D01*
X369621Y64692D01*
X375131Y70202D01*
X375707Y69964D01*
X376584Y69848D01*
X377462Y69964D01*
X378280Y70303D01*
X378982Y70841D01*
X379521Y71544D01*
X379759Y72119D01*
X386834D01*
X387685Y71268D01*
X387313Y70371D01*
X387176Y69327D01*
X387313Y68283D01*
X387716Y67309D01*
X388357Y66474D01*
X389193Y65833D01*
X390166Y65430D01*
X391210Y65292D01*
X392254Y65430D01*
X393227Y65833D01*
X394063Y66474D01*
X394704Y67309D01*
X395107Y68283D01*
X395245Y69327D01*
X395107Y70371D01*
X394704Y71344D01*
X394063Y72180D01*
X393227Y72821D01*
X392254Y73224D01*
X391210Y73361D01*
X390166Y73224D01*
X389269Y72852D01*
X388090Y74031D01*
X387726Y74274D01*
X387298Y74359D01*
X379759D01*
X379521Y74935D01*
X378982Y75637D01*
X378280Y76176D01*
X377462Y76515D01*
X376584Y76630D01*
D02*
G37*
G36*
X90363Y64595D02*
X86592D01*
Y60823D01*
X87215Y60905D01*
X88261Y61339D01*
X89159Y62028D01*
X89848Y62926D01*
X90281Y63972D01*
X90363Y64595D01*
D02*
G37*
G36*
X85592D02*
X81821D01*
X81903Y63972D01*
X82336Y62926D01*
X83025Y62028D01*
X83924Y61339D01*
X84970Y60905D01*
X85592Y60823D01*
Y64595D01*
D02*
G37*
G36*
X144843Y98925D02*
X134584D01*
Y94965D01*
X138798D01*
Y90690D01*
X125337Y77228D01*
X121311D01*
Y74067D01*
Y70906D01*
X123736D01*
Y68707D01*
X123025Y68161D01*
X122336Y67263D01*
X121903Y66217D01*
X121755Y65095D01*
X121903Y63972D01*
X122336Y62926D01*
X123025Y62028D01*
X123924Y61339D01*
X124970Y60905D01*
X126092Y60757D01*
X127215Y60905D01*
X128261Y61339D01*
X129159Y62028D01*
X129848Y62926D01*
X130281Y63972D01*
X130429Y65095D01*
X130281Y66217D01*
X129848Y67263D01*
X129159Y68161D01*
X128261Y68851D01*
X127215Y69284D01*
X126092Y69432D01*
X125942Y69412D01*
X125566Y69742D01*
Y70906D01*
X126631D01*
Y75934D01*
X140361Y89663D01*
X140361Y89663D01*
X140559Y89960D01*
X140629Y90311D01*
X140629Y90311D01*
Y94965D01*
X144843D01*
Y98925D01*
D02*
G37*
G36*
X108623D02*
X98364D01*
Y94965D01*
X102578D01*
Y88925D01*
X102578Y88925D01*
X102648Y88575D01*
X102847Y88278D01*
X115190Y75934D01*
Y70906D01*
X116256D01*
Y69575D01*
X116092Y69432D01*
X114970Y69284D01*
X113924Y68851D01*
X113025Y68161D01*
X112336Y67263D01*
X111903Y66217D01*
X111755Y65095D01*
X111903Y63972D01*
X112336Y62926D01*
X113025Y62028D01*
X113924Y61339D01*
X114970Y60905D01*
X116092Y60757D01*
X117215Y60905D01*
X118261Y61339D01*
X119159Y62028D01*
X119848Y62926D01*
X120281Y63972D01*
X120429Y65095D01*
X120281Y66217D01*
X119848Y67263D01*
X119159Y68161D01*
X118261Y68851D01*
X118086Y68923D01*
Y70906D01*
X120511D01*
Y74067D01*
Y77228D01*
X116485D01*
X104409Y89304D01*
Y94965D01*
X108623D01*
Y98925D01*
D02*
G37*
G36*
X96013Y82845D02*
X95342Y82757D01*
X94717Y82498D01*
X94180Y82086D01*
X93768Y81549D01*
X93509Y80923D01*
X93420Y80252D01*
X93509Y79581D01*
X93768Y78956D01*
X93771Y78951D01*
Y68734D01*
X93025Y68161D01*
X92336Y67263D01*
X91903Y66217D01*
X91755Y65095D01*
X91903Y63972D01*
X92336Y62926D01*
X93025Y62028D01*
X93923Y61339D01*
X94970Y60905D01*
X96092Y60757D01*
X97215Y60905D01*
X98261Y61339D01*
X99159Y62028D01*
X99848Y62926D01*
X100281Y63972D01*
X100429Y65095D01*
X100281Y66217D01*
X99848Y67263D01*
X99159Y68161D01*
X98261Y68851D01*
X98255Y68853D01*
Y78951D01*
X98259Y78956D01*
X98518Y79581D01*
X98606Y80252D01*
X98518Y80923D01*
X98259Y81549D01*
X97847Y82086D01*
X97310Y82498D01*
X96684Y82757D01*
X96013Y82845D01*
D02*
G37*
G36*
X264084Y64496D02*
X260313D01*
Y60725D01*
X260935Y60807D01*
X261981Y61240D01*
X262879Y61929D01*
X263569Y62827D01*
X264002Y63874D01*
X264084Y64496D01*
D02*
G37*
G36*
X259313D02*
X255541D01*
X255623Y63874D01*
X256057Y62827D01*
X256746Y61929D01*
X257644Y61240D01*
X258690Y60807D01*
X259313Y60725D01*
Y64496D01*
D02*
G37*
G36*
X248474Y69333D02*
X247352Y69185D01*
X246305Y68752D01*
X245407Y68063D01*
X244718Y67165D01*
X244285Y66119D01*
X244137Y64996D01*
X244285Y63874D01*
X244718Y62827D01*
X245407Y61929D01*
X246305Y61240D01*
X247352Y60807D01*
X248474Y60659D01*
X249597Y60807D01*
X250642Y61240D01*
X251541Y61929D01*
X252230Y62827D01*
X252663Y63874D01*
X252811Y64996D01*
X252663Y66119D01*
X252230Y67165D01*
X251541Y68063D01*
X250642Y68752D01*
X249597Y69185D01*
X248474Y69333D01*
D02*
G37*
G36*
X238474D02*
X237351Y69185D01*
X236305Y68752D01*
X235407Y68063D01*
X234718Y67165D01*
X234285Y66119D01*
X234137Y64996D01*
X234285Y63874D01*
X234718Y62827D01*
X235407Y61929D01*
X236305Y61240D01*
X237351Y60807D01*
X238474Y60659D01*
X239597Y60807D01*
X240642Y61240D01*
X241541Y61929D01*
X242230Y62827D01*
X242663Y63874D01*
X242811Y64996D01*
X242663Y66119D01*
X242230Y67165D01*
X241541Y68063D01*
X240642Y68752D01*
X239597Y69185D01*
X238474Y69333D01*
D02*
G37*
G36*
X309813Y69333D02*
X308690Y69185D01*
X307644Y68752D01*
X306746Y68063D01*
X306057Y67165D01*
X305623Y66119D01*
X305475Y64996D01*
X305623Y63874D01*
X306057Y62827D01*
X306746Y61929D01*
X307644Y61240D01*
X308690Y60807D01*
X309813Y60659D01*
X310935Y60807D01*
X311981Y61240D01*
X312879Y61929D01*
X313569Y62827D01*
X314002Y63874D01*
X314150Y64996D01*
X314002Y66119D01*
X313569Y67165D01*
X312879Y68063D01*
X311981Y68752D01*
X310935Y69185D01*
X309813Y69333D01*
D02*
G37*
G36*
X299813D02*
X298690Y69185D01*
X297644Y68752D01*
X296746Y68063D01*
X296057Y67165D01*
X295623Y66119D01*
X295476Y64996D01*
X295623Y63874D01*
X296057Y62827D01*
X296746Y61929D01*
X297644Y61240D01*
X298690Y60807D01*
X299813Y60659D01*
X300935Y60807D01*
X301981Y61240D01*
X302879Y61929D01*
X303569Y62827D01*
X304002Y63874D01*
X304150Y64996D01*
X304002Y66119D01*
X303569Y67165D01*
X302879Y68063D01*
X301981Y68752D01*
X300935Y69185D01*
X299813Y69333D01*
D02*
G37*
G36*
X289813D02*
X288690Y69185D01*
X287644Y68752D01*
X286746Y68063D01*
X286057Y67165D01*
X285623Y66119D01*
X285475Y64996D01*
X285623Y63874D01*
X286057Y62827D01*
X286746Y61929D01*
X287644Y61240D01*
X288690Y60807D01*
X289813Y60659D01*
X290935Y60807D01*
X291981Y61240D01*
X292879Y61929D01*
X293569Y62827D01*
X294002Y63874D01*
X294150Y64996D01*
X294002Y66119D01*
X293569Y67165D01*
X292879Y68063D01*
X291981Y68752D01*
X290935Y69185D01*
X289813Y69333D01*
D02*
G37*
G36*
X279813Y83574D02*
X278963Y83405D01*
X278243Y82924D01*
X277762Y82204D01*
X277593Y81354D01*
X277762Y80505D01*
X278243Y79785D01*
X278897Y79347D01*
Y76228D01*
X277242D01*
Y70890D01*
X278897D01*
Y69213D01*
X278690Y69185D01*
X277644Y68752D01*
X276746Y68063D01*
X276057Y67165D01*
X275623Y66119D01*
X275476Y64996D01*
X275623Y63874D01*
X276057Y62827D01*
X276746Y61929D01*
X277644Y61240D01*
X278690Y60807D01*
X279813Y60659D01*
X280935Y60807D01*
X281981Y61240D01*
X282879Y61929D01*
X283569Y62827D01*
X284002Y63874D01*
X284150Y64996D01*
X284002Y66119D01*
X283569Y67165D01*
X282879Y68063D01*
X281981Y68752D01*
X280935Y69185D01*
X280728Y69213D01*
Y70890D01*
X282383D01*
Y76228D01*
X280728D01*
Y79347D01*
X281382Y79785D01*
X281863Y80505D01*
X282032Y81354D01*
X281863Y82204D01*
X281382Y82924D01*
X280662Y83405D01*
X279813Y83574D01*
D02*
G37*
G36*
X480167Y67347D02*
X479186Y67218D01*
X478273Y66840D01*
X477488Y66238D01*
X476886Y65453D01*
X476508Y64540D01*
X476378Y63559D01*
X476508Y62579D01*
X476886Y61665D01*
X477488Y60880D01*
X478273Y60278D01*
X479186Y59900D01*
X480167Y59771D01*
X481147Y59900D01*
X482061Y60278D01*
X482845Y60880D01*
X483448Y61665D01*
X483826Y62579D01*
X483955Y63559D01*
X483826Y64540D01*
X483448Y65453D01*
X482845Y66238D01*
X482061Y66840D01*
X481147Y67218D01*
X480167Y67347D01*
D02*
G37*
G36*
X460482D02*
X459501Y67218D01*
X458588Y66840D01*
X457803Y66238D01*
X457201Y65453D01*
X456822Y64540D01*
X456694Y63559D01*
X456822Y62579D01*
X457201Y61665D01*
X457803Y60880D01*
X458588Y60278D01*
X459501Y59900D01*
X460482Y59771D01*
X461462Y59900D01*
X462376Y60278D01*
X463161Y60880D01*
X463763Y61665D01*
X464141Y62579D01*
X464270Y63559D01*
X464141Y64540D01*
X463763Y65453D01*
X463161Y66238D01*
X462376Y66840D01*
X461462Y67218D01*
X460482Y67347D01*
D02*
G37*
G36*
X440797D02*
X439816Y67218D01*
X438903Y66840D01*
X438118Y66238D01*
X437516Y65453D01*
X437138Y64540D01*
X437008Y63559D01*
X437138Y62579D01*
X437516Y61665D01*
X438118Y60880D01*
X438903Y60278D01*
X439816Y59900D01*
X440797Y59771D01*
X441777Y59900D01*
X442691Y60278D01*
X443475Y60880D01*
X444078Y61665D01*
X444456Y62579D01*
X444585Y63559D01*
X444456Y64540D01*
X444078Y65453D01*
X443475Y66238D01*
X442691Y66840D01*
X441777Y67218D01*
X440797Y67347D01*
D02*
G37*
G36*
X421112D02*
X420131Y67218D01*
X419218Y66840D01*
X418433Y66238D01*
X417831Y65453D01*
X417453Y64540D01*
X417323Y63559D01*
X417453Y62579D01*
X417831Y61665D01*
X418433Y60880D01*
X419218Y60278D01*
X420131Y59900D01*
X421112Y59771D01*
X422092Y59900D01*
X423006Y60278D01*
X423791Y60880D01*
X424393Y61665D01*
X424771Y62579D01*
X424900Y63559D01*
X424771Y64540D01*
X424393Y65453D01*
X423791Y66238D01*
X423006Y66840D01*
X422092Y67218D01*
X421112Y67347D01*
D02*
G37*
%LPD*%
G36*
X259978Y132742D02*
X248474D01*
X248474Y132742D01*
X248124Y132672D01*
X247827Y132474D01*
X247827Y132474D01*
X235398Y120045D01*
X192962D01*
X192962Y120045D01*
X192612Y119975D01*
X192315Y119777D01*
X192315Y119777D01*
X188548Y116010D01*
X172869D01*
X169173Y119706D01*
Y130660D01*
X170528Y132015D01*
X170955Y132209D01*
Y132209D01*
X170955Y132209D01*
X172416D01*
X172854Y131849D01*
X172854Y131849D01*
Y121545D01*
X172854Y121544D01*
X172924Y121194D01*
X173122Y120897D01*
X176225Y117794D01*
X176226Y117794D01*
X176523Y117595D01*
X176873Y117526D01*
X176873Y117526D01*
X185823D01*
X185823Y117526D01*
X186174Y117595D01*
X186470Y117794D01*
X192108Y123431D01*
X233218D01*
X233218Y123431D01*
X233568Y123501D01*
X233865Y123699D01*
X247377Y137211D01*
X259978D01*
Y132742D01*
D02*
G37*
D10*
X11811Y11811D02*
D03*
X578740Y11811D02*
D03*
Y381890D02*
D03*
X11811Y381890D02*
D03*
Y11811D02*
D03*
X578740D02*
D03*
Y381890D02*
D03*
X11811Y381890D02*
D03*
D11*
X94832Y101217D02*
D03*
X88730D02*
D03*
X118549Y90390D02*
D03*
X124651D02*
D03*
X184353Y128815D02*
D03*
X178251D02*
D03*
X289320Y152201D02*
D03*
X283218D02*
D03*
X123179Y220114D02*
D03*
X129281D02*
D03*
X106939Y220803D02*
D03*
X100836D02*
D03*
X220128Y206236D02*
D03*
X226230D02*
D03*
X220029Y193881D02*
D03*
X226132D02*
D03*
X399065Y275036D02*
D03*
X392962D02*
D03*
X415108Y273657D02*
D03*
X421210D02*
D03*
X421210Y253087D02*
D03*
X415108D02*
D03*
X453592Y275036D02*
D03*
X459694D02*
D03*
X438730Y251512D02*
D03*
X444832D02*
D03*
X457431Y251512D02*
D03*
X463533D02*
D03*
X436072Y145606D02*
D03*
X429970D02*
D03*
X286761Y92654D02*
D03*
X292864D02*
D03*
X279813Y73559D02*
D03*
X273710D02*
D03*
X178096Y180783D02*
D03*
X171994D02*
D03*
Y186984D02*
D03*
X178096D02*
D03*
D12*
X155954Y140587D02*
D03*
Y152201D02*
D03*
X92765Y149484D02*
D03*
Y161099D02*
D03*
X216599Y160469D02*
D03*
Y148854D02*
D03*
X207214Y160469D02*
D03*
Y148854D02*
D03*
X197883Y160469D02*
D03*
Y148854D02*
D03*
X476033Y130744D02*
D03*
Y119130D02*
D03*
X105475Y193047D02*
D03*
Y181433D02*
D03*
D13*
X180219Y135862D02*
D03*
X178251D02*
D03*
X176282D02*
D03*
X174314D02*
D03*
X172345D02*
D03*
Y153382D02*
D03*
X174314D02*
D03*
X176282D02*
D03*
X178251D02*
D03*
X180219D02*
D03*
D14*
X302116Y145016D02*
D03*
X270620D02*
D03*
X273769D02*
D03*
X276919D02*
D03*
X280068D02*
D03*
X283218D02*
D03*
X286368D02*
D03*
X289517D02*
D03*
X292667D02*
D03*
X295816D02*
D03*
X298966D02*
D03*
X302116Y99740D02*
D03*
X298966D02*
D03*
X295816D02*
D03*
X292667D02*
D03*
X289517D02*
D03*
X286368D02*
D03*
X283218D02*
D03*
X280068D02*
D03*
X276919D02*
D03*
X273769D02*
D03*
X270620D02*
D03*
D15*
X309005Y138126D02*
D03*
Y134976D02*
D03*
Y131827D02*
D03*
Y128677D02*
D03*
Y125528D02*
D03*
Y122378D02*
D03*
Y119228D02*
D03*
Y116079D02*
D03*
Y112929D02*
D03*
Y109780D02*
D03*
Y106630D02*
D03*
X263730D02*
D03*
Y109780D02*
D03*
Y112929D02*
D03*
Y116079D02*
D03*
Y119228D02*
D03*
Y122378D02*
D03*
Y125528D02*
D03*
Y128677D02*
D03*
Y131827D02*
D03*
Y134976D02*
D03*
Y138126D02*
D03*
D16*
X91781Y209484D02*
D03*
Y220114D02*
D03*
X163041Y161886D02*
D03*
Y172516D02*
D03*
X151328Y161886D02*
D03*
Y172516D02*
D03*
D17*
X148868Y183559D02*
D03*
X159498D02*
D03*
X120324Y172378D02*
D03*
X109694D02*
D03*
D18*
X217737Y132122D02*
D03*
X197883D02*
D03*
X258542Y222181D02*
D03*
X278395D02*
D03*
X216599Y177299D02*
D03*
X196746D02*
D03*
D19*
X129271Y171000D02*
D03*
Y177102D02*
D03*
X256545Y125528D02*
D03*
Y119425D02*
D03*
X296801Y179661D02*
D03*
Y185764D02*
D03*
X261958D02*
D03*
Y179661D02*
D03*
X113238Y214701D02*
D03*
Y208598D02*
D03*
X107037D02*
D03*
Y214701D02*
D03*
X100836Y214701D02*
D03*
Y208598D02*
D03*
X431584Y257221D02*
D03*
Y263323D02*
D03*
X406742Y190784D02*
D03*
Y184681D02*
D03*
X376230Y106040D02*
D03*
Y112142D02*
D03*
X340698Y114110D02*
D03*
Y108008D02*
D03*
X316289Y119130D02*
D03*
Y125232D02*
D03*
X148868Y213559D02*
D03*
Y207457D02*
D03*
Y198559D02*
D03*
Y192457D02*
D03*
X178233Y165272D02*
D03*
Y171374D02*
D03*
X172092D02*
D03*
Y165272D02*
D03*
X141673Y171000D02*
D03*
Y177102D02*
D03*
X148179Y151945D02*
D03*
Y145843D02*
D03*
X135472Y177102D02*
D03*
Y171000D02*
D03*
X94340Y136945D02*
D03*
Y130842D02*
D03*
X85482Y124346D02*
D03*
Y118244D02*
D03*
X103494Y175035D02*
D03*
Y168933D02*
D03*
X97293D02*
D03*
Y175035D02*
D03*
X113238Y181433D02*
D03*
Y187536D02*
D03*
Y193559D02*
D03*
Y199661D02*
D03*
X97687Y186945D02*
D03*
Y193047D02*
D03*
D20*
X120324Y213559D02*
D03*
Y208559D02*
D03*
Y203559D02*
D03*
Y198559D02*
D03*
Y193559D02*
D03*
Y188559D02*
D03*
Y183559D02*
D03*
X141781Y213559D02*
D03*
Y208559D02*
D03*
Y203559D02*
D03*
Y198559D02*
D03*
Y193559D02*
D03*
Y188559D02*
D03*
Y183559D02*
D03*
X436072Y104366D02*
D03*
Y109366D02*
D03*
Y114366D02*
D03*
Y119366D02*
D03*
Y124366D02*
D03*
Y129366D02*
D03*
Y134366D02*
D03*
Y139366D02*
D03*
X415009Y104366D02*
D03*
Y109366D02*
D03*
Y114366D02*
D03*
Y119366D02*
D03*
Y124366D02*
D03*
Y129366D02*
D03*
Y134366D02*
D03*
Y139366D02*
D03*
X369242Y107988D02*
D03*
Y112988D02*
D03*
Y117988D02*
D03*
Y122988D02*
D03*
X347785Y107988D02*
D03*
Y112988D02*
D03*
Y117988D02*
D03*
Y122988D02*
D03*
D21*
X93257Y124346D02*
D03*
Y114504D02*
D03*
D22*
X328501Y119327D02*
D03*
X322391D02*
D03*
D23*
X103494Y161945D02*
D03*
Y156945D02*
D03*
Y151945D02*
D03*
Y146945D02*
D03*
Y141945D02*
D03*
Y136945D02*
D03*
Y131945D02*
D03*
Y126945D02*
D03*
Y121945D02*
D03*
Y116945D02*
D03*
Y111945D02*
D03*
Y106945D02*
D03*
Y101945D02*
D03*
Y96945D02*
D03*
X139714D02*
D03*
Y101945D02*
D03*
Y106945D02*
D03*
Y111945D02*
D03*
Y116945D02*
D03*
Y121945D02*
D03*
Y126945D02*
D03*
Y131945D02*
D03*
Y136945D02*
D03*
Y141945D02*
D03*
Y146945D02*
D03*
Y151945D02*
D03*
Y156945D02*
D03*
Y161945D02*
D03*
D24*
X414183Y153382D02*
D03*
X419183D02*
D03*
X424183D02*
D03*
X429183D02*
D03*
X434183D02*
D03*
X439183D02*
D03*
X444183D02*
D03*
X449183D02*
D03*
X454183D02*
D03*
X459183D02*
D03*
X464183D02*
D03*
X469183D02*
D03*
X414183Y190783D02*
D03*
X419183D02*
D03*
X424183D02*
D03*
X429183D02*
D03*
X434183D02*
D03*
X439183D02*
D03*
X444183D02*
D03*
X449183D02*
D03*
X454183D02*
D03*
X459183D02*
D03*
X464183D02*
D03*
X469183D02*
D03*
D25*
X117171Y83909D02*
D03*
X124651D02*
D03*
Y74067D02*
D03*
X120911D02*
D03*
X117171D02*
D03*
D26*
X307431Y222181D02*
D03*
X292667D02*
D03*
D27*
X313533Y179661D02*
D03*
Y199515D02*
D03*
D28*
X279380Y179661D02*
D03*
X288435D02*
D03*
X270324D02*
D03*
D29*
X279380Y202693D02*
D03*
D30*
X163773Y211906D02*
D03*
Y221905D02*
D03*
Y241905D02*
D03*
Y231906D02*
D03*
X191332D02*
D03*
Y241905D02*
D03*
Y221905D02*
D03*
Y211906D02*
D03*
D31*
X322352Y87880D02*
D03*
X333966D02*
D03*
X209891Y88323D02*
D03*
X198277D02*
D03*
X487214Y143441D02*
D03*
X498828D02*
D03*
D32*
X200167Y206236D02*
D03*
X210167D02*
D03*
X200167Y231827D02*
D03*
X210167D02*
D03*
D33*
X201309Y196440D02*
D03*
X210167Y198999D02*
D03*
Y193881D02*
D03*
D34*
X415108Y259583D02*
D03*
Y267063D02*
D03*
X424950D02*
D03*
Y263323D02*
D03*
Y259583D02*
D03*
D35*
X470915Y267358D02*
D03*
Y258303D02*
D03*
D36*
X438730Y258323D02*
D03*
Y263323D02*
D03*
Y268323D02*
D03*
X463533Y258323D02*
D03*
Y268323D02*
D03*
D37*
X191332Y203284D02*
D03*
X182277D02*
D03*
D38*
X117171Y66173D02*
Y74067D01*
X116092Y65095D02*
X117171Y66173D01*
Y74067D02*
Y75248D01*
X126092Y65173D02*
Y65931D01*
X124651Y67372D02*
Y74067D01*
Y67372D02*
X126092Y65931D01*
X124651Y74067D02*
Y75248D01*
X94832Y101217D02*
X95561Y101945D01*
X103494D01*
X94832Y90291D02*
Y101217D01*
Y90291D02*
X106092Y79032D01*
Y65095D02*
Y79032D01*
X124651Y75248D02*
X139714Y90311D01*
Y96945D01*
X421112Y137240D02*
Y142949D01*
X419183Y144878D02*
Y153382D01*
Y144878D02*
X421112Y142949D01*
X200167Y209307D02*
X206742Y215882D01*
X200167Y206236D02*
Y209307D01*
X206742Y215882D02*
X211860D01*
X220128Y207614D01*
Y206236D02*
Y207614D01*
X270423Y114642D02*
Y118933D01*
X272588Y121098D02*
X281933D01*
X270423Y118933D02*
X272588Y121098D01*
X268710Y112929D02*
X270423Y114642D01*
X236506Y167713D02*
X246407Y157811D01*
X227702Y204665D02*
X236506Y195862D01*
Y167713D02*
Y195862D01*
X227702Y204665D02*
X227702D01*
X226230Y206138D02*
X227702Y204665D01*
X226230Y206138D02*
Y206236D01*
X231151Y165094D02*
X244045Y152201D01*
X226132Y193783D02*
X231151Y188763D01*
Y165094D02*
Y188763D01*
X226132Y193783D02*
Y193881D01*
X139733Y111965D02*
X252411D01*
X103494Y88925D02*
Y96945D01*
Y88925D02*
X117171Y75248D01*
X260088Y109780D02*
X263730D01*
X257529Y99839D02*
Y107220D01*
X260088Y109780D01*
X237844Y87339D02*
X246899Y96394D01*
X254084D02*
X257529Y99839D01*
X246899Y96394D02*
X254084D01*
X261479Y144720D02*
X261479D01*
X266007Y149248D02*
X271899D01*
X261479Y144720D02*
X266007Y149248D01*
X172345Y145254D02*
Y153382D01*
Y145254D02*
X175340Y142260D01*
X192962Y119130D02*
X235777D01*
X248474Y131827D01*
X188927Y115094D02*
X192962Y119130D01*
X139714Y121945D02*
X147765D01*
X139714Y126945D02*
X147765D01*
X139714Y131945D02*
X147765D01*
X139714Y101945D02*
X252515D01*
X139714Y106945D02*
X252411D01*
X172490Y115094D02*
X188927D01*
X168257Y119327D02*
X172490Y115094D01*
X191729Y124346D02*
X233218D01*
X185823Y118441D02*
X191729Y124346D01*
X176873Y118441D02*
X185823D01*
X233218Y124346D02*
X246998Y138126D01*
X129183Y165075D02*
X129271Y165164D01*
X173769Y121544D02*
X176873Y118441D01*
X168257Y119327D02*
Y131039D01*
X171096Y133878D01*
X172054D01*
X172345Y134169D02*
Y135862D01*
X172054Y133878D02*
X172345Y134169D01*
X173769Y121544D02*
Y131849D01*
X174314Y132393D02*
Y135862D01*
X173769Y131849D02*
X174314Y132393D01*
X334505Y138028D02*
X354179D01*
X354179Y138028D01*
X391317D01*
X375246Y214799D02*
X414321D01*
X369439Y208992D02*
X375246Y214799D01*
X414321D02*
X420127Y220606D01*
X453592Y275036D02*
X453592Y275036D01*
X464344Y267512D02*
X472249D01*
X466584Y321591D02*
X472982Y315193D01*
Y268244D02*
Y315193D01*
X440600Y321591D02*
X466584D01*
X397293D02*
X423277D01*
X431939Y312929D01*
Y280547D02*
Y312929D01*
X279813Y64996D02*
Y73559D01*
Y81354D01*
X328159Y83106D02*
X341938Y69327D01*
X328159Y83106D02*
Y91807D01*
X316584Y137929D02*
Y145705D01*
X320915Y150036D01*
X348868D01*
X319340Y136256D02*
Y140193D01*
X326230Y147083D02*
X353198D01*
X319340Y140193D02*
X326230Y147083D01*
X316524Y129268D02*
X331386Y144130D01*
X357688D01*
X284695Y123860D02*
Y123860D01*
X281933Y121098D02*
X284695Y123860D01*
X246407Y157811D02*
X272883D01*
X279187Y145898D02*
Y151508D01*
X272883Y157811D02*
X279187Y151508D01*
X273671Y152201D02*
X276427Y149445D01*
Y145508D02*
Y149445D01*
X244045Y152201D02*
X273671D01*
X276427Y145508D02*
X276919Y145016D01*
X315501Y132417D02*
X319340Y136256D01*
X314283Y135628D02*
X316584Y137929D01*
X276143Y131422D02*
X279877Y127688D01*
X301033D01*
X264135Y131422D02*
X276143D01*
X246998Y138126D02*
X263730D01*
X359539Y133055D02*
X359561Y133034D01*
X325427D02*
X325448Y133055D01*
X359539D01*
X415009Y134366D02*
X418238D01*
X394979D02*
X415009D01*
X334505Y128677D02*
X358513D01*
X333718D02*
X334505D01*
X211860Y76512D02*
X246801D01*
X268892Y98603D02*
X269738D01*
X270620Y99484D01*
Y99740D01*
X246801Y76512D02*
X268892Y98603D01*
X288061Y108421D02*
X290974D01*
X292667Y106728D01*
Y99740D02*
Y106728D01*
X313041Y114996D02*
X331717D01*
X309005Y116079D02*
X311958D01*
X313041Y114996D01*
X309687Y112248D02*
X312044D01*
X324655Y112248D02*
X333718Y103185D01*
X312044Y112248D02*
X312044Y112248D01*
X309005Y112929D02*
X309687Y112248D01*
X312044Y112248D02*
X324655D01*
X352334Y122988D02*
X354179Y124833D01*
X347785Y122988D02*
X352334D01*
X354000Y124833D02*
X354179D01*
X353336Y117988D02*
X358513Y123165D01*
Y128677D01*
X414320D01*
X415009Y129366D02*
X421112D01*
X414320Y128677D02*
X415009Y129366D01*
X362844Y116177D02*
Y123754D01*
X279101Y134681D02*
X280749Y133034D01*
X295817D01*
X338828Y122107D02*
Y124366D01*
X264025Y134681D02*
X279101D01*
X361466Y103185D02*
X366269Y107988D01*
X369242D01*
X333718Y103185D02*
X361466D01*
X369242Y107988D02*
X369919Y107311D01*
X295816Y99740D02*
Y108500D01*
X274400Y111965D02*
X292352D01*
X295816Y108500D01*
X285876Y106236D02*
X288061Y108421D01*
X274400Y106236D02*
X285876D01*
X418238Y134366D02*
X421112Y137240D01*
X263828Y138028D02*
X290502D01*
X263730Y138126D02*
X263828Y138028D01*
X348868Y150036D02*
X365305Y166472D01*
Y212634D02*
X370816Y218146D01*
X365305Y166472D02*
Y212634D01*
X353198Y147083D02*
X369439Y163323D01*
Y208992D01*
X370816Y218146D02*
X406053D01*
X372883Y159325D02*
Y204563D01*
X379542Y211221D01*
X456215D01*
X406053Y218146D02*
X412057Y224150D01*
X357688Y144130D02*
X372883Y159325D01*
X272038Y87536D02*
X276820Y92318D01*
X263135Y87536D02*
X272038D01*
X276820Y92318D02*
Y99642D01*
X259014Y83264D02*
X275305D01*
X279675Y87634D02*
Y99347D01*
X275305Y83264D02*
X279675Y87634D01*
X311564Y104071D02*
X320876D01*
X309005Y106630D02*
X311564Y104071D01*
X320876D02*
X330128Y94819D01*
X309399Y109386D02*
X319832D01*
X330068Y99150D02*
X379183D01*
X319832Y109386D02*
X330068Y99150D01*
X320226Y99740D02*
X328159Y91807D01*
X302116Y99740D02*
X320226D01*
X210167Y193881D02*
X220029D01*
X425049Y273657D02*
X431939Y280547D01*
X248474Y131827D02*
X263730D01*
X331717Y114996D02*
X338828Y122107D01*
X204773Y69425D02*
X211860Y76512D01*
X379183Y99150D02*
X404399Y124366D01*
X415009D01*
X424360Y132614D02*
Y153205D01*
X421112Y129366D02*
X424360Y132614D01*
X368946Y253677D02*
X368946Y253677D01*
X391317Y138028D02*
X394979Y134366D01*
X397717Y140685D02*
Y146591D01*
X411890Y160764D01*
X424183Y153382D02*
X424360Y153205D01*
X411890Y160764D02*
X426033D01*
X421210Y273657D02*
X425049D01*
X401230Y253677D02*
X410876Y263323D01*
X368946Y253677D02*
X401230D01*
X457431Y251512D02*
Y261350D01*
X442372Y276410D02*
Y287142D01*
Y276410D02*
X457431Y261350D01*
X463533Y251512D02*
Y258323D01*
X463553Y258303D02*
X470915D01*
X463533Y258323D02*
X463553Y258303D01*
X463533Y268323D02*
X464344Y267512D01*
X472249D02*
X472982Y268244D01*
X424950Y263323D02*
X431584D01*
X438730D01*
X415108Y267063D02*
Y273657D01*
X410876Y263323D02*
X424950D01*
X330128Y94819D02*
X383168D01*
X394979Y106630D01*
X426033Y160764D02*
X429128Y157669D01*
Y153437D02*
X429183Y153382D01*
X429128Y153437D02*
Y157669D01*
X355265Y162437D02*
X360088Y167260D01*
Y307122D02*
X366978Y314012D01*
X360088Y167260D02*
Y307122D01*
X366978Y314012D02*
Y314110D01*
X271899Y149248D02*
X273474Y147673D01*
Y145311D02*
Y147673D01*
Y145311D02*
X273769Y145016D01*
X279187Y145898D02*
X280068Y145016D01*
X362844Y116177D02*
X362844Y116177D01*
X309005Y128677D02*
X309596Y129268D01*
X316524D01*
X269143Y91866D02*
X273769Y96492D01*
X267352Y91866D02*
X269143D01*
X263730Y112929D02*
X268710D01*
X287105Y87880D02*
X287253Y87732D01*
X374958Y107311D02*
X376230Y106040D01*
X369919Y107311D02*
X374958D01*
X362844Y116177D02*
X366033Y112988D01*
X369242D01*
X309005Y109780D02*
X309399Y109386D01*
X273769Y96492D02*
Y99740D01*
X276820Y99642D02*
X276919Y99740D01*
X279675Y99347D02*
X280068Y99740D01*
X264222Y128185D02*
X268651D01*
X270974Y125862D02*
X273769D01*
X268651Y128185D02*
X270974Y125862D01*
X263730Y128677D02*
X264222Y128185D01*
X263730Y134976D02*
X264025Y134681D01*
X275049Y117457D02*
X292273D01*
X298966Y110764D01*
Y99740D02*
Y110764D01*
X412057Y243835D02*
X420127Y235764D01*
Y220606D02*
Y235764D01*
X456215Y211221D02*
X469143Y224150D01*
X309596Y132417D02*
X315501D01*
X309005Y131827D02*
X309596Y132417D01*
X309005Y134976D02*
X309657Y135628D01*
X314283D01*
X263730Y131827D02*
X264135Y131422D01*
X347785Y117988D02*
X353336D01*
D39*
X88714Y95183D02*
Y101200D01*
X88730Y101217D01*
X96013Y65173D02*
Y80252D01*
Y65173D02*
X96092Y65095D01*
X148179Y145843D02*
X148179Y145843D01*
X278395Y222181D02*
Y230843D01*
Y222181D02*
X292667D01*
X296801Y179661D02*
X296801Y179661D01*
X296801D02*
X296801Y179661D01*
D40*
X94045Y149484D02*
X96505Y151945D01*
X103494D01*
X92765Y149484D02*
X94045D01*
X376226Y112146D02*
Y117988D01*
X115314Y203559D02*
X126722D01*
X113907Y200232D02*
Y202152D01*
X113238Y199661D02*
X113336D01*
X113907Y200232D01*
Y202152D02*
X115314Y203559D01*
X148179Y140094D02*
Y145843D01*
X88336Y136945D02*
X94340D01*
X124651Y83909D02*
Y90390D01*
Y96591D01*
X197883Y148854D02*
X207214D01*
X197883Y132122D02*
Y148854D01*
X197883Y148854D02*
X197883Y148854D01*
X216599Y148854D02*
X224261D01*
X216599Y167880D02*
Y177299D01*
Y160469D02*
Y167880D01*
X207214Y160469D02*
X216599D01*
X129271Y165164D02*
Y171000D01*
X178251Y122969D02*
Y128815D01*
X453592Y286945D02*
X454428D01*
X457577Y290094D01*
X464813D01*
X453592Y275036D02*
Y286945D01*
X269813Y64996D02*
X273710Y68894D01*
Y73559D01*
Y79563D01*
X399065Y275036D02*
Y290094D01*
X386663Y275036D02*
X392962D01*
X289025Y152201D02*
X289517Y151709D01*
X289025Y152201D02*
X289320Y152496D01*
X191332Y203284D02*
Y211906D01*
X191332Y198953D02*
Y203284D01*
X436072Y139366D02*
Y145606D01*
X441781D01*
X438730Y251512D02*
Y258323D01*
X438670Y251452D02*
X438730Y251512D01*
X438670Y245606D02*
Y251452D01*
X431524Y257160D02*
X431584Y257221D01*
X431524Y251512D02*
Y257160D01*
X415108Y253087D02*
Y259583D01*
X415108Y253087D02*
X415108Y253087D01*
X415108Y253087D02*
X415108Y253087D01*
X409634Y253087D02*
X415108D01*
X251132Y125528D02*
X256545D01*
X263730D01*
X289320Y152496D02*
Y157614D01*
X103494Y126945D02*
X112391D01*
X114813Y129366D02*
Y136945D01*
X112391Y126945D02*
X114813Y129366D01*
X103494Y136945D02*
X114813D01*
X139714D01*
X94340Y136945D02*
X94340Y136945D01*
X328501Y119327D02*
X328501Y119327D01*
X328501Y119327D02*
Y124642D01*
X406742Y190784D02*
X414183D01*
X414183Y190783D01*
X401343Y190784D02*
X406742D01*
X369242Y117988D02*
X376226D01*
X340718Y107988D02*
X347785D01*
X340698Y108008D02*
X340718Y107988D01*
X340674Y107983D02*
X340698Y108008D01*
X335236Y107983D02*
X340674D01*
X335236D02*
X335260Y108008D01*
X347785Y112988D02*
X354179D01*
X316289Y119130D02*
X322194D01*
X322391Y119327D01*
X309005Y119228D02*
X316191D01*
X316289Y119130D01*
X289517Y145016D02*
Y151709D01*
X94340Y136945D02*
X103494D01*
D41*
X163041Y161886D02*
X163541D01*
X164813Y156907D02*
Y160614D01*
X163139Y155234D02*
X164813Y156907D01*
X163541Y161886D02*
X164813Y160614D01*
X450698Y93343D02*
X460482Y83559D01*
X414714Y93343D02*
X450698D01*
X408513Y99543D02*
X414714Y93343D01*
X434754Y89602D02*
X440797Y83559D01*
X410040Y89602D02*
X434754D01*
X405068Y94573D02*
X410040Y89602D01*
X417088Y102288D02*
Y103685D01*
X415009Y104366D02*
X416407D01*
X417088Y103685D01*
Y102288D02*
X422391Y96984D01*
X466742D01*
X408513Y99543D02*
Y106433D01*
X405068Y94573D02*
Y108303D01*
X407667Y83559D02*
X421112D01*
X401624Y89602D02*
Y110173D01*
Y89602D02*
X407667Y83559D01*
X123179Y220114D02*
Y237043D01*
X129183Y243047D01*
X129281Y210862D02*
Y220114D01*
X100147D02*
X100836Y220803D01*
X91781Y220114D02*
X100147D01*
X91781D02*
Y229268D01*
X118159Y255646D01*
X177592D01*
X120324Y160897D02*
X125987Y155234D01*
X120324Y160897D02*
Y172378D01*
X120324Y172378D02*
Y183559D01*
X120324Y172378D02*
X120324Y172378D01*
X103494Y175035D02*
X108423D01*
X109694Y173764D01*
Y172378D02*
Y173764D01*
X147765Y208559D02*
X148868Y207457D01*
X153198D01*
X165403Y195251D01*
Y191374D02*
Y195251D01*
Y182614D02*
X167234Y180783D01*
X171994D01*
X159498Y185713D02*
X160769Y186984D01*
X159498Y183559D02*
Y185713D01*
X160769Y186984D02*
X171994D01*
X180310Y155234D02*
X181724D01*
X185285Y158795D02*
Y173496D01*
X180219Y153382D02*
Y155144D01*
X180310Y155234D01*
X181724D02*
X185285Y158795D01*
X224261Y148854D02*
X224261Y148854D01*
X92667Y208598D02*
X100836D01*
X91781Y209484D02*
X92667Y208598D01*
X139714Y161945D02*
X151269D01*
X151328Y161886D01*
X151084Y172272D02*
X151328Y172516D01*
X141673Y171000D02*
X142945Y172272D01*
X151084D01*
X141781Y183559D02*
Y188559D01*
X129271Y184504D02*
X138327Y193559D01*
X141781D01*
X129271Y177102D02*
Y184504D01*
X135472Y177102D02*
X141673D01*
X129271D02*
X135472D01*
X141781Y183559D02*
X148868D01*
X178096Y180783D02*
Y186984D01*
X180219Y135862D02*
X184793D01*
X178251Y128815D02*
Y135862D01*
X178096Y180685D02*
X179368Y179413D01*
X179368D02*
X185285Y173496D01*
X179368Y179413D02*
X179368D01*
X178096Y180685D02*
Y180783D01*
X178233Y153399D02*
Y165272D01*
Y153399D02*
X178251Y153382D01*
X172092Y165272D02*
X178233D01*
X163041Y172516D02*
X170950D01*
X172092Y171374D01*
X173119Y178146D02*
Y179658D01*
X171994Y180783D02*
X173119Y179658D01*
Y178146D02*
X177206Y174060D01*
Y172402D02*
X178233Y171374D01*
X177206Y172402D02*
Y174060D01*
X120324Y183559D02*
Y188559D01*
X474754Y232614D02*
X476525Y234386D01*
Y247083D02*
X481545Y252102D01*
X476525Y234386D02*
Y247083D01*
X376584Y73239D02*
X387298D01*
X391210Y69327D01*
X366584Y63239D02*
X376584Y73239D01*
X333966Y87880D02*
X361943D01*
X366584Y83239D01*
X307441Y87880D02*
X322352D01*
X302243Y82683D02*
X307441Y87880D01*
X293348Y148354D02*
X293651Y148658D01*
X291191Y161846D02*
X293651Y159386D01*
Y148658D02*
Y159386D01*
X295816Y145016D02*
X296498Y145697D01*
X290557Y167654D02*
X296505Y161705D01*
X296498Y148047D02*
X296505Y148054D01*
X296498Y145697D02*
Y148047D01*
X296505Y148054D02*
Y161705D01*
X293348Y145697D02*
Y148354D01*
X127144Y208725D02*
X129281Y210862D01*
X120491Y208725D02*
X127144D01*
X400600Y204465D02*
X428494D01*
X434183Y190783D02*
Y198776D01*
X428494Y204465D02*
X434183Y198776D01*
X177592Y255646D02*
X188843Y244395D01*
X263730Y99543D02*
Y106630D01*
X228809Y83264D02*
X247450D01*
X263730Y99543D01*
X445088Y119366D02*
X459183Y105272D01*
X436072Y119366D02*
X445088D01*
X459183Y100921D02*
Y105272D01*
X442116Y114366D02*
X453344Y103137D01*
X436072Y114366D02*
X442116D01*
X453344Y101169D02*
Y103137D01*
Y101169D02*
X453592Y100921D01*
X465994Y171787D02*
X480561Y186354D01*
Y193933D01*
X463927Y171787D02*
X465994D01*
X460088Y175823D02*
X464124D01*
X477706Y189406D02*
Y192850D01*
X464124Y175823D02*
X477706Y189406D01*
X459183Y167043D02*
X463927Y171787D01*
X454183Y153382D02*
Y169917D01*
X460088Y175823D01*
X459183Y153382D02*
Y167043D01*
X464183Y153382D02*
Y164169D01*
X483317Y183303D02*
Y195113D01*
X464183Y164169D02*
X483317Y183303D01*
X469183Y153382D02*
Y161197D01*
X501694Y193708D02*
Y204180D01*
X469183Y161197D02*
X501694Y193708D01*
X408113Y175331D02*
X442568D01*
X449183Y168717D01*
Y153382D02*
Y168717D01*
X438828Y171197D02*
X444183Y165843D01*
X405561Y171197D02*
X438828D01*
X444183Y153382D02*
Y165843D01*
X439183Y153382D02*
Y163185D01*
X402470Y167890D02*
X434478D01*
X439183Y163185D01*
X429970Y164602D02*
X434084Y160488D01*
Y153480D02*
Y160488D01*
X399753Y164602D02*
X429970D01*
X311269Y145350D02*
X343946Y178028D01*
X311269Y138807D02*
Y145350D01*
X343946Y178028D02*
Y186158D01*
X242962Y169819D02*
X250935Y161846D01*
X291191D01*
X242962Y169819D02*
Y201709D01*
X481545Y252102D02*
X490561D01*
X501978Y263520D01*
X483120Y234484D02*
X492627D01*
X477509Y212240D02*
Y228874D01*
X483120Y234484D01*
X492627D02*
X501978Y243835D01*
X185876Y264504D02*
X200088Y250291D01*
X163773Y237757D02*
Y241905D01*
X157578Y231906D02*
X163773D01*
X189918Y241905D02*
X191332D01*
X188843Y242980D02*
X189918Y241905D01*
X188843Y242980D02*
Y244395D01*
X200088Y231906D02*
Y250291D01*
X191332Y231906D02*
X200088D01*
X157578Y231133D02*
Y231906D01*
X156791Y231920D02*
X157578Y231133D01*
X163773Y221905D02*
X191332D01*
X141781Y208559D02*
X147765D01*
X138474D02*
X141781D01*
X298966Y145016D02*
X299351Y145400D01*
Y149731D01*
X309005Y138126D02*
X310588D01*
X311269Y138807D01*
X292667Y145016D02*
X293348Y145697D01*
X148868Y232417D02*
X155954Y239504D01*
Y246985D01*
X148868Y213559D02*
Y232417D01*
X135053Y211980D02*
X138474Y208559D01*
X135053Y211980D02*
Y229232D01*
X282537Y85510D02*
X285365Y82683D01*
X302243D01*
X282537Y85510D02*
Y99059D01*
X151235Y63239D02*
X179862D01*
X145049Y69425D02*
X151235Y63239D01*
X179862D02*
X189862Y73239D01*
X184946Y88323D02*
X198277D01*
X179862Y83239D02*
X184946Y88323D01*
X209891D02*
X223750D01*
X228809Y83264D01*
X303080Y241530D02*
Y264504D01*
X439242Y109366D02*
X447687Y100921D01*
X436072Y109366D02*
X439242D01*
X429183Y100921D02*
X432627Y104366D01*
X436072D01*
X410816Y119366D02*
X415009D01*
X401624Y110173D02*
X410816Y119366D01*
X411131Y114366D02*
X415009D01*
X405068Y108303D02*
X411131Y114366D01*
X408513Y106433D02*
X411241Y109161D01*
X414804D01*
X415009Y109366D01*
X466742Y96984D02*
X480167Y83559D01*
X230954Y237378D02*
Y243047D01*
Y237378D02*
X236506Y231827D01*
X146269Y250291D02*
X152647D01*
X155954Y246985D01*
X139025Y243047D02*
X146269Y250291D01*
X148868Y243047D02*
Y243047D01*
X135053Y229232D02*
X148868Y243047D01*
X141781Y213559D02*
X148868D01*
X105475Y193047D02*
Y201394D01*
X129183Y243047D02*
X139025D01*
X385496Y184864D02*
X402470Y167890D01*
X380600Y183756D02*
X399753Y164602D01*
X396998Y179760D02*
X405561Y171197D01*
X299351Y149731D02*
X324391Y174772D01*
Y220219D01*
X230954Y213717D02*
Y223953D01*
Y213717D02*
X242962Y201709D01*
X248277Y173015D02*
Y228284D01*
X236506Y231827D02*
X244734D01*
X248277Y228284D01*
X253639Y167654D02*
X290557D01*
X248277Y173015D02*
X253639Y167654D01*
X343946Y186158D02*
X352214Y194425D01*
X303080Y241530D02*
X324391Y220219D01*
X335260Y176231D02*
Y224838D01*
X322687Y237412D02*
Y243047D01*
Y237412D02*
X335260Y224838D01*
X302116Y145016D02*
X302282Y145182D01*
X304211D01*
X335260Y176231D01*
X85482Y124346D02*
X93257D01*
X97083Y116945D02*
X103494D01*
X96497Y116359D02*
X97083Y116945D01*
X96497Y116169D02*
Y116359D01*
X94832Y114504D02*
X96497Y116169D01*
X93257Y114504D02*
X94832D01*
X97083Y121945D02*
X103494D01*
X96497Y122531D02*
X97083Y121945D01*
X96497Y122531D02*
Y122681D01*
X94832Y124346D02*
X96497Y122681D01*
X93257Y124346D02*
X94832D01*
X103494Y156945D02*
Y161945D01*
Y168933D01*
X97293D02*
X103494D01*
X113238Y193559D02*
X120324D01*
X113238Y187536D02*
Y193559D01*
X105475Y181433D02*
X113238D01*
X97687Y193047D02*
X105475D01*
X120324Y208559D02*
X120491Y208725D01*
X113238Y208598D02*
X113277Y208559D01*
X120324D01*
X107037Y208598D02*
X113238D01*
X114380Y213559D02*
X120324D01*
X113238Y214701D02*
X114380Y213559D01*
X107037Y214701D02*
X113238D01*
X100836Y214701D02*
X107037D01*
X107037Y214701D01*
X380600Y183756D02*
Y204465D01*
X449183Y190783D02*
Y206039D01*
X444183Y190783D02*
Y202004D01*
X439124Y197870D02*
X439183Y197811D01*
Y190783D02*
Y197811D01*
X501694Y204180D02*
X501978Y204465D01*
X434084Y153480D02*
X434183Y153382D01*
X454183Y190783D02*
Y206039D01*
X459183Y190783D02*
Y202004D01*
X464183Y190783D02*
Y197870D01*
X469183Y190784D02*
X473553D01*
X469183Y190783D02*
X469183Y190784D01*
X470521Y200036D02*
X477706Y192850D01*
X473277Y201217D02*
X480561Y193933D01*
X476033Y202397D02*
X483317Y195113D01*
X470521Y209287D02*
X474754Y213520D01*
Y232614D01*
X470521Y200036D02*
Y209287D01*
X473277Y201217D02*
Y208008D01*
X477509Y212240D01*
X476033Y202397D02*
Y206827D01*
X483710Y214504D02*
X492332D01*
X476033Y206827D02*
X483710Y214504D01*
X492332D02*
X501978Y224150D01*
X282537Y99059D02*
X283218Y99740D01*
D42*
X424557Y180744D02*
X461663D01*
X419183Y186118D02*
X424557Y180744D01*
X478828Y163480D02*
X488828Y153480D01*
X419183Y186118D02*
Y190783D01*
X148179Y151945D02*
X155954D01*
X139714D02*
X148179D01*
X498828Y143441D02*
Y163480D01*
D43*
X135383Y203559D02*
X141781D01*
X148868Y198559D02*
X154281D01*
X141781Y198559D02*
X148868D01*
X148868Y198559D01*
D44*
X286368Y92654D02*
Y99740D01*
X287105Y87880D02*
Y92310D01*
X286761Y92654D02*
X287105Y92310D01*
D45*
X188532Y193881D02*
X193764D01*
X196323Y196440D01*
X201309D01*
X182277Y200136D02*
X188532Y193881D01*
X182277Y200136D02*
Y203284D01*
X176512Y211906D02*
X182277Y206140D01*
X163773Y211906D02*
X176512D01*
X182277Y203284D02*
Y206140D01*
X191332Y203284D02*
X191332Y203284D01*
D46*
X255561Y179661D02*
X261958D01*
X270324D01*
X303986Y179661D02*
X313533D01*
X303986Y179661D02*
X303986Y179661D01*
X296801Y179661D02*
X303986D01*
X288435D02*
X296801D01*
D47*
X447037Y124366D02*
X453061Y118343D01*
X475246D01*
X476033Y119130D01*
X457037Y134366D02*
X467037Y124366D01*
X436072Y134366D02*
X457037D01*
D48*
X376226Y112146D02*
X376230Y112142D01*
D49*
X394882Y337598D02*
D03*
X390945D02*
D03*
X398819D02*
D03*
X402756D02*
D03*
X406693D02*
D03*
X175984D02*
D03*
X172047D02*
D03*
X168110D02*
D03*
X160236D02*
D03*
X164173D02*
D03*
X474409Y53248D02*
D03*
X470472D02*
D03*
X466535D02*
D03*
X458661D02*
D03*
X462598D02*
D03*
X298031D02*
D03*
X294094D02*
D03*
X290157D02*
D03*
X282283D02*
D03*
X286220D02*
D03*
X110039D02*
D03*
X106102D02*
D03*
X113977D02*
D03*
X117914D02*
D03*
X121851D02*
D03*
X70472Y262598D02*
D03*
Y258661D02*
D03*
Y266536D02*
D03*
Y270473D02*
D03*
Y274410D02*
D03*
X509941Y262598D02*
D03*
Y258661D02*
D03*
Y266536D02*
D03*
Y270473D02*
D03*
Y274410D02*
D03*
Y92914D02*
D03*
Y88976D02*
D03*
Y96851D02*
D03*
Y100788D02*
D03*
Y104725D02*
D03*
X70472Y104725D02*
D03*
Y100788D02*
D03*
Y96851D02*
D03*
Y88976D02*
D03*
Y92914D02*
D03*
D50*
X116092Y65095D02*
D03*
X106092D02*
D03*
X86092D02*
D03*
X96092D02*
D03*
X126092D02*
D03*
X238474Y64996D02*
D03*
X248474D02*
D03*
X279813Y64996D02*
D03*
X289813D02*
D03*
X309813D02*
D03*
X299813D02*
D03*
X269813D02*
D03*
X259813D02*
D03*
D51*
X380600Y204465D02*
D03*
X390600D02*
D03*
X400600D02*
D03*
X380600Y224150D02*
D03*
X390600D02*
D03*
X400600D02*
D03*
X380443Y243835D02*
D03*
X390442D02*
D03*
X400443D02*
D03*
X380600Y263520D02*
D03*
X390600D02*
D03*
X400600D02*
D03*
X501978Y263520D02*
D03*
X491978D02*
D03*
X481978D02*
D03*
X480167Y83559D02*
D03*
Y73559D02*
D03*
Y63559D02*
D03*
X501978Y243835D02*
D03*
X491978D02*
D03*
X481978D02*
D03*
X460482Y83559D02*
D03*
Y73559D02*
D03*
Y63559D02*
D03*
X501978Y224150D02*
D03*
X491978D02*
D03*
X481978D02*
D03*
X440797Y83559D02*
D03*
Y73559D02*
D03*
Y63559D02*
D03*
X501978Y204465D02*
D03*
X491978D02*
D03*
X481978D02*
D03*
X421112Y83559D02*
D03*
Y73559D02*
D03*
Y63559D02*
D03*
D52*
X129183Y243047D02*
D03*
X139025D02*
D03*
X148868D02*
D03*
X240797Y223953D02*
D03*
X230954D02*
D03*
X221112D02*
D03*
X352214Y184583D02*
D03*
Y194425D02*
D03*
Y204268D02*
D03*
X221112Y243047D02*
D03*
X230954D02*
D03*
X240797D02*
D03*
X312844D02*
D03*
X322687D02*
D03*
X332529D02*
D03*
D53*
X401210Y69327D02*
D03*
X391210D02*
D03*
X341938D02*
D03*
X331939D02*
D03*
X214773Y69425D02*
D03*
X204773D02*
D03*
X281545Y247772D02*
D03*
X271545D02*
D03*
X155049Y69425D02*
D03*
X145049D02*
D03*
D54*
X366584Y83239D02*
D03*
X179862Y83239D02*
D03*
D55*
X376584Y73239D02*
D03*
X366584Y63239D02*
D03*
X488828Y153480D02*
D03*
X478828Y163480D02*
D03*
X457037Y134366D02*
D03*
X467037Y124366D02*
D03*
X189862Y73239D02*
D03*
X179862Y63239D02*
D03*
D56*
X498828Y163480D02*
D03*
X447037Y124366D02*
D03*
D57*
X249774Y264504D02*
D03*
X185876D02*
D03*
X249774Y314504D02*
D03*
X185876D02*
D03*
X249774Y289504D02*
D03*
X185876D02*
D03*
X166644Y264504D02*
D03*
X102745D02*
D03*
X166644Y314504D02*
D03*
X102745D02*
D03*
X166644Y289504D02*
D03*
X102745D02*
D03*
X366978Y264504D02*
D03*
X303080D02*
D03*
X366978Y314504D02*
D03*
X303080D02*
D03*
X366978Y289504D02*
D03*
X303080D02*
D03*
D58*
X410285Y286945D02*
D03*
X399065Y290094D02*
D03*
X421505D02*
D03*
X464813D02*
D03*
X442372D02*
D03*
X453592Y286945D02*
D03*
D59*
X397293Y321591D02*
D03*
X423277D02*
D03*
X466584D02*
D03*
X440600D02*
D03*
D60*
X410285Y327496D02*
D03*
Y299937D02*
D03*
X453592D02*
D03*
Y327496D02*
D03*
D61*
X469143Y243835D02*
D03*
Y224150D02*
D03*
X412057Y233992D02*
D03*
Y243835D02*
D03*
Y224150D02*
D03*
D62*
X154281Y79387D02*
D03*
Y92230D02*
D03*
X99378Y92068D02*
D03*
X408710Y95114D02*
D03*
X405068Y90291D02*
D03*
X414124Y99740D02*
D03*
X421702Y146787D02*
D03*
X111600Y164630D02*
D03*
X146309Y235197D02*
D03*
X161958Y249346D02*
D03*
X132135Y214012D02*
D03*
X117765Y226953D02*
D03*
X129970D02*
D03*
X92568Y175035D02*
D03*
X158710Y236846D02*
D03*
X119439Y244917D02*
D03*
X112943Y238913D02*
D03*
X106939Y225528D02*
D03*
X168257Y145606D02*
D03*
X189922Y139412D02*
D03*
X191584Y160469D02*
D03*
X197883Y155449D02*
D03*
X187647Y177299D02*
D03*
X196746Y171394D02*
D03*
X205856Y177299D02*
D03*
X196746Y183303D02*
D03*
X170324Y202693D02*
D03*
X178395Y176610D02*
D03*
X181643Y160272D02*
D03*
X165403Y177693D02*
D03*
X153592Y192457D02*
D03*
X148671Y202988D02*
D03*
X124282Y179521D02*
D03*
X129084Y159583D02*
D03*
X157135Y157910D02*
D03*
X135383Y166374D02*
D03*
X163139Y155234D02*
D03*
X125987D02*
D03*
X232726Y193244D02*
D03*
X165403Y191374D02*
D03*
Y182614D02*
D03*
X101033Y73067D02*
D03*
X252411Y111965D02*
D03*
X258120Y114602D02*
D03*
X110580Y146945D02*
D03*
X132519D02*
D03*
Y141945D02*
D03*
X110580Y131945D02*
D03*
X89616Y130843D02*
D03*
X86368Y161138D02*
D03*
X85482Y113618D02*
D03*
X118450Y95114D02*
D03*
X110679Y111945D02*
D03*
Y106945D02*
D03*
X96301D02*
D03*
X132618Y116945D02*
D03*
X146604D02*
D03*
X251230Y92162D02*
D03*
X208612Y132122D02*
D03*
X222588Y115390D02*
D03*
X196112D02*
D03*
X167864Y115094D02*
D03*
X261479Y144720D02*
D03*
X175340Y159287D02*
D03*
X175281Y147870D02*
D03*
X175340Y142260D02*
D03*
X170950Y123067D02*
D03*
X212549Y121689D02*
D03*
X184451Y123067D02*
D03*
X159399Y116571D02*
D03*
X154281D02*
D03*
X148179Y109484D02*
D03*
X148179Y104465D02*
D03*
X147765Y121945D02*
D03*
Y126945D02*
D03*
X155954Y134465D02*
D03*
X147765Y131945D02*
D03*
X238927Y104465D02*
D03*
X252515Y101945D02*
D03*
X252411Y106945D02*
D03*
X226820Y132122D02*
D03*
X217737Y138126D02*
D03*
X120911Y79268D02*
D03*
X354179Y138028D02*
D03*
X403198Y117846D02*
D03*
X403001Y82212D02*
D03*
X353002Y82216D02*
D03*
X127936Y283992D02*
D03*
X153001D02*
D03*
X246998Y87880D02*
D03*
X188472Y79709D02*
D03*
X218961D02*
D03*
X242962D02*
D03*
X237844Y87339D02*
D03*
X318946Y73067D02*
D03*
X285482D02*
D03*
X294143D02*
D03*
X304380D02*
D03*
X253001D02*
D03*
X279813Y81354D02*
D03*
X426427Y280055D02*
D03*
X279380Y195578D02*
D03*
X279380Y209780D02*
D03*
X283907Y179662D02*
D03*
X274852D02*
D03*
X97687Y201394D02*
D03*
X125987Y213559D02*
D03*
X224360Y213913D02*
D03*
X195817Y203284D02*
D03*
X186860D02*
D03*
X451624Y184189D02*
D03*
X451230Y172968D02*
D03*
X458710Y90095D02*
D03*
X405561Y249642D02*
D03*
X438730Y272772D02*
D03*
X420029Y267063D02*
D03*
X287844Y120213D02*
D03*
X269931Y109287D02*
D03*
X488730Y167791D02*
D03*
X362746Y172280D02*
D03*
X342312Y91489D02*
D03*
X252903Y164860D02*
D03*
X288927Y164701D02*
D03*
X257726Y148854D02*
D03*
X240305Y159878D02*
D03*
X242962Y165390D02*
D03*
X220521Y265882D02*
D03*
X336860Y274839D02*
D03*
X385974Y154465D02*
D03*
X353001Y73239D02*
D03*
X102403Y186945D02*
D03*
X178001Y73067D02*
D03*
X228001D02*
D03*
X314025Y142677D02*
D03*
X429128Y184189D02*
D03*
X174521Y258795D02*
D03*
X469183Y197181D02*
D03*
X466387Y206630D02*
D03*
X471505Y231433D02*
D03*
X330128Y135567D02*
D03*
X253986Y283992D02*
D03*
X260580Y102496D02*
D03*
X266781D02*
D03*
X279675Y124642D02*
D03*
X401624Y131532D02*
D03*
X358641Y117654D02*
D03*
X401624Y125823D02*
D03*
X374958Y122988D02*
D03*
X300864Y135553D02*
D03*
X283120Y135567D02*
D03*
X281250Y130350D02*
D03*
X286368Y114799D02*
D03*
X279380D02*
D03*
X279380Y109386D02*
D03*
X285482D02*
D03*
X421013Y133205D02*
D03*
X449458Y110961D02*
D03*
X445226Y107319D02*
D03*
X303592Y122378D02*
D03*
X298376Y122201D02*
D03*
X293159D02*
D03*
X459694Y171492D02*
D03*
X463828Y167654D02*
D03*
X467864Y163815D02*
D03*
X443159Y170803D02*
D03*
X438927Y167260D02*
D03*
X434596Y163815D02*
D03*
X429872Y160764D02*
D03*
X371009Y214404D02*
D03*
X372096Y207713D02*
D03*
X370423Y232713D02*
D03*
X376820Y181236D02*
D03*
Y189406D02*
D03*
X239025Y200626D02*
D03*
X307431Y215882D02*
D03*
X359793Y157319D02*
D03*
X363730Y153874D02*
D03*
X320226Y145213D02*
D03*
X324753Y141571D02*
D03*
X236663Y98461D02*
D03*
X272687Y91807D02*
D03*
X275639Y87339D02*
D03*
X329380Y112142D02*
D03*
X326722Y106433D02*
D03*
X316880Y106728D02*
D03*
X267765Y154957D02*
D03*
X338891Y208819D02*
D03*
X386332Y120630D02*
D03*
X421372Y111575D02*
D03*
X419246Y178898D02*
D03*
X446962Y278209D02*
D03*
X463537Y263544D02*
D03*
X425013Y222229D02*
D03*
X390506Y234016D02*
D03*
X408478Y208056D02*
D03*
X467100Y183622D02*
D03*
X189482Y252520D02*
D03*
X363561Y242185D02*
D03*
X329246Y208819D02*
D03*
X351824Y222205D02*
D03*
X374092Y271442D02*
D03*
X407198Y271418D02*
D03*
X369305Y134132D02*
D03*
X256608Y134864D02*
D03*
X374128Y223780D02*
D03*
X421273Y243859D02*
D03*
X449325Y215118D02*
D03*
X437513Y204037D02*
D03*
X443025Y208032D02*
D03*
X460764Y211245D02*
D03*
X487467Y257135D02*
D03*
X487403Y238740D02*
D03*
X487340Y218956D02*
D03*
X487277Y192874D02*
D03*
X448143Y140315D02*
D03*
X457100Y124961D02*
D03*
X426159Y79484D02*
D03*
X474128Y79363D02*
D03*
X442238Y100945D02*
D03*
X465758Y100847D02*
D03*
X450564Y79339D02*
D03*
X443419Y89921D02*
D03*
X409265Y139390D02*
D03*
X465892Y79363D02*
D03*
X433183Y79339D02*
D03*
X307567Y92677D02*
D03*
X383231Y99173D02*
D03*
X366666Y102717D02*
D03*
X334029Y122131D02*
D03*
X342336Y141127D02*
D03*
X339250Y159921D02*
D03*
X339187Y180473D02*
D03*
X314313Y159897D02*
D03*
X300604Y163260D02*
D03*
X244206Y206851D02*
D03*
X255230Y79709D02*
D03*
X228065Y92355D02*
D03*
X204049Y92331D02*
D03*
X178065Y92308D02*
D03*
X307592Y142677D02*
D03*
X266234D02*
D03*
X307504Y102717D02*
D03*
X135154Y185342D02*
D03*
X174584Y216890D02*
D03*
X174521Y237780D02*
D03*
X156017Y217898D02*
D03*
X142301Y217874D02*
D03*
X142238Y226953D02*
D03*
X153296Y226929D02*
D03*
X134039Y235197D02*
D03*
X133976Y249174D02*
D03*
X505821Y209706D02*
D03*
X228001Y283992D02*
D03*
X203001D02*
D03*
X178001D02*
D03*
X425639Y253087D02*
D03*
X464344Y275036D02*
D03*
X449261Y251512D02*
D03*
X410187Y153382D02*
D03*
X402032Y184681D02*
D03*
X429183Y197378D02*
D03*
X492175Y143441D02*
D03*
X476033Y125724D02*
D03*
X482332Y143441D02*
D03*
X476033Y135961D02*
D03*
X430364Y124366D02*
D03*
X429970Y140882D02*
D03*
X340674Y118736D02*
D03*
X292864Y87880D02*
D03*
X289517Y105547D02*
D03*
X321024Y125331D02*
D03*
X269439Y122378D02*
D03*
X251840Y119425D02*
D03*
X283218Y156925D02*
D03*
X258542Y216177D02*
D03*
X267667Y222181D02*
D03*
X258542Y228185D02*
D03*
X307431Y228480D02*
D03*
X315009Y222181D02*
D03*
X313533Y190291D02*
D03*
X319734Y199515D02*
D03*
X313533Y208795D02*
D03*
X307431Y199515D02*
D03*
X261958Y190685D02*
D03*
X296801D02*
D03*
X270226Y202693D02*
D03*
X288533D02*
D03*
X279380Y186748D02*
D03*
Y172575D02*
D03*
X125987Y198559D02*
D03*
X97687Y182319D02*
D03*
X214124Y206236D02*
D03*
X210167Y212201D02*
D03*
X206151Y206236D02*
D03*
X214813Y198953D02*
D03*
X205561Y198999D02*
D03*
X206348Y231827D02*
D03*
X210167Y226118D02*
D03*
X213828Y231827D02*
D03*
X210167Y237536D02*
D03*
X428002Y306150D02*
D03*
X299458Y327128D02*
D03*
X253395Y327410D02*
D03*
X74852Y106913D02*
D03*
Y83119D02*
D03*
Y133119D02*
D03*
X505561Y305646D02*
D03*
X74852D02*
D03*
Y282614D02*
D03*
X505757D02*
D03*
Y257614D02*
D03*
Y232614D02*
D03*
Y182614D02*
D03*
Y157614D02*
D03*
Y132614D02*
D03*
Y107614D02*
D03*
Y82614D02*
D03*
Y57614D02*
D03*
X478002Y332614D02*
D03*
Y305646D02*
D03*
Y282614D02*
D03*
Y57614D02*
D03*
X453002Y332614D02*
D03*
Y305646D02*
D03*
Y57614D02*
D03*
X428002Y332614D02*
D03*
Y57614D02*
D03*
X403001Y332614D02*
D03*
Y305646D02*
D03*
Y57614D02*
D03*
X378001Y332614D02*
D03*
Y305646D02*
D03*
Y57614D02*
D03*
X353001Y332614D02*
D03*
Y305646D02*
D03*
Y57614D02*
D03*
X328001Y332614D02*
D03*
Y305646D02*
D03*
Y57614D02*
D03*
X299852Y305646D02*
D03*
X303001Y57614D02*
D03*
X278001D02*
D03*
X253395Y305646D02*
D03*
X253001Y57614D02*
D03*
X228001Y332614D02*
D03*
Y305646D02*
D03*
Y57614D02*
D03*
X203001Y332614D02*
D03*
Y305646D02*
D03*
Y57614D02*
D03*
X178001Y332614D02*
D03*
Y305646D02*
D03*
Y57614D02*
D03*
X153001Y332614D02*
D03*
Y305646D02*
D03*
Y57614D02*
D03*
X128001Y332614D02*
D03*
Y305646D02*
D03*
Y258795D02*
D03*
Y57614D02*
D03*
X103001Y332614D02*
D03*
Y305646D02*
D03*
Y57614D02*
D03*
X74852Y257614D02*
D03*
Y232614D02*
D03*
Y207614D02*
D03*
Y182614D02*
D03*
Y157614D02*
D03*
Y57614D02*
D03*
X284695Y123959D02*
D03*
X359561Y133034D02*
D03*
X354179Y124833D02*
D03*
X362844Y123754D02*
D03*
X325427Y133034D02*
D03*
X295817D02*
D03*
X301033Y127688D02*
D03*
X338828Y124366D02*
D03*
X334505Y128677D02*
D03*
Y138028D02*
D03*
X274400Y106236D02*
D03*
Y111965D02*
D03*
X290502Y138028D02*
D03*
X163773Y237757D02*
D03*
X157578Y231920D02*
D03*
X459183Y100921D02*
D03*
X453592D02*
D03*
X447687D02*
D03*
X429183D02*
D03*
X368946Y253677D02*
D03*
X397717Y140685D02*
D03*
X105475Y201394D02*
D03*
X394979Y106630D02*
D03*
X263135Y87536D02*
D03*
X267352Y91866D02*
D03*
X259014Y83264D02*
D03*
X408113Y175331D02*
D03*
X385496Y184864D02*
D03*
X396998Y179760D02*
D03*
X449183Y206039D02*
D03*
X444183Y202004D02*
D03*
X439124Y197870D02*
D03*
X454183Y206039D02*
D03*
X459183Y202004D02*
D03*
X464183Y197870D02*
D03*
X473553Y190784D02*
D03*
X274400Y117457D02*
D03*
X273769Y125862D02*
D03*
X355265Y162437D02*
D03*
D63*
X88714Y95183D02*
D03*
X96013Y80252D02*
D03*
X461663Y180744D02*
D03*
X148179Y140094D02*
D03*
X88336Y136945D02*
D03*
X124651Y96591D02*
D03*
X197883Y140842D02*
D03*
X224261Y148854D02*
D03*
X216599Y167880D02*
D03*
X178251Y122969D02*
D03*
X184793Y135862D02*
D03*
X126722Y203559D02*
D03*
X135383D02*
D03*
X129183Y165075D02*
D03*
X273710Y79169D02*
D03*
X191332Y198953D02*
D03*
X441781Y145606D02*
D03*
X386663Y275036D02*
D03*
X438670Y245606D02*
D03*
X431524Y251512D02*
D03*
X409634Y253087D02*
D03*
X251132Y125528D02*
D03*
X289320Y157614D02*
D03*
X154281Y198559D02*
D03*
X401343Y190784D02*
D03*
X287253Y87732D02*
D03*
X376226Y117988D02*
D03*
X328501Y124642D02*
D03*
X354179Y112988D02*
D03*
X335236Y107983D02*
D03*
D64*
X278395Y230843D02*
D03*
X255561Y179661D02*
D03*
X303986Y179661D02*
D03*
M02*
