G04*
G04 #@! TF.GenerationSoftware,Altium Limited,Altium Designer,20.1.11 (218)*
G04*
G04 Layer_Color=65535*
%FSLAX25Y25*%
%MOIN*%
G70*
G04*
G04 #@! TF.SameCoordinates,94F8EA6A-D3DE-4CB1-8755-D4D4D92DF36F*
G04*
G04*
G04 #@! TF.FilePolarity,Positive*
G04*
G01*
G75*
%ADD66C,0.02362*%
%ADD67C,0.01575*%
%ADD68C,0.02362*%
%ADD69C,0.00394*%
%ADD70C,0.00394*%
%ADD71C,0.00591*%
%ADD72R,0.02118X0.11417*%
%ADD73R,0.05315X0.02067*%
%ADD74R,0.02067X0.05315*%
D66*
X188047Y145136D02*
D03*
D67*
X271407Y138126D02*
X270863Y138875D01*
X269983Y138589D01*
Y137663D01*
X270863Y137377D01*
X271407Y138126D01*
D68*
X107689Y153472D02*
X107245Y154395D01*
X106246Y154623D01*
X105444Y153984D01*
Y152959D01*
X106246Y152320D01*
X107245Y152548D01*
X107689Y153472D01*
X415895Y162437D02*
X415451Y163360D01*
X414451Y163589D01*
X413650Y162950D01*
Y161925D01*
X414451Y161285D01*
X415451Y161514D01*
X415895Y162437D01*
X135840Y184559D02*
X135296Y185308D01*
X134416Y185022D01*
Y184096D01*
X135296Y183810D01*
X135840Y184559D01*
X423328Y138366D02*
X422784Y139115D01*
X421904Y138829D01*
Y137903D01*
X422784Y137617D01*
X423328Y138366D01*
D69*
X202805Y213126D02*
X202541Y214110D01*
X201820Y214831D01*
X200836Y215094D01*
X199852Y214831D01*
X199131Y214110D01*
X198868Y213126D01*
X199131Y212142D01*
X199852Y211421D01*
X200836Y211157D01*
X201820Y211421D01*
X202541Y212142D01*
X202805Y213126D01*
X458513Y259189D02*
X458213Y260115D01*
X457425Y260687D01*
X456452D01*
X455665Y260115D01*
X455364Y259189D01*
X455665Y258263D01*
X456452Y257691D01*
X457425D01*
X458213Y258263D01*
X458513Y259189D01*
X364813Y109189D02*
X364549Y110173D01*
X363828Y110894D01*
X362844Y111158D01*
X361860Y110894D01*
X361139Y110173D01*
X360876Y109189D01*
X361139Y108205D01*
X361860Y107484D01*
X362844Y107220D01*
X363828Y107484D01*
X364549Y108205D01*
X364813Y109189D01*
X190350Y136256D02*
Y148067D01*
X178539Y136256D02*
Y148067D01*
Y136256D02*
X190350D01*
X178539Y148067D02*
X190350D01*
X253474Y59996D02*
Y69996D01*
X233474Y59996D02*
Y69995D01*
Y69996D02*
X253474D01*
X233474Y59996D02*
X253474D01*
X381643Y82683D02*
X410777D01*
X381643Y60045D02*
Y82683D01*
Y60045D02*
X410777D01*
Y82683D01*
X401328Y60272D02*
Y62240D01*
X391092D02*
X401328D01*
X391092Y60272D02*
Y62240D01*
X322372Y82683D02*
X351505D01*
X322372Y60045D02*
Y82683D01*
Y60045D02*
X351505D01*
Y82683D01*
X342056Y60272D02*
Y62240D01*
X331821D02*
X342056D01*
X331821Y60272D02*
Y62240D01*
X380343Y60086D02*
Y86464D01*
X352784Y60086D02*
X380343D01*
X352784Y86464D02*
X380343D01*
X352784Y60086D02*
Y86464D01*
X475675Y149721D02*
X502053D01*
X475675D02*
Y177280D01*
X502053Y149721D02*
Y177280D01*
X475675D02*
X502053D01*
X84360Y60079D02*
X124360D01*
X84360Y70079D02*
X124360D01*
X84360Y60079D02*
Y70078D01*
X124360Y60079D02*
Y70079D01*
X254813Y69996D02*
X314813D01*
X254813Y59996D02*
X314813D01*
Y59997D02*
Y69996D01*
X254813Y59996D02*
Y69996D01*
X178825Y249150D02*
Y330252D01*
Y249150D02*
X201093D01*
Y237339D02*
Y249150D01*
Y237339D02*
X234557D01*
Y249150D01*
X201093D02*
X234557D01*
X256825D01*
Y330252D01*
X240266D02*
X256825D01*
X240266D02*
Y341866D01*
X195384D02*
X240266D01*
X195384Y330252D02*
X240266D01*
X195384D02*
Y341866D01*
X178825Y330252D02*
X195384D01*
X95695Y249150D02*
Y330252D01*
Y249150D02*
X117963D01*
Y237339D02*
Y249150D01*
Y237339D02*
X151426D01*
Y249150D01*
X117963D02*
X151426D01*
X173695D01*
Y330252D01*
X157135D02*
X173695D01*
X157135D02*
Y341866D01*
X112253D02*
X157135D01*
X112253Y330252D02*
X157135D01*
X112253D02*
Y341866D01*
X95695Y330252D02*
X112253D01*
X195206Y82781D02*
X224340D01*
X195206Y60143D02*
Y82781D01*
Y60143D02*
X224340D01*
Y82781D01*
X214891Y60370D02*
Y62338D01*
X204655D02*
X214891D01*
X204655Y60370D02*
Y62338D01*
X296029Y249150D02*
Y330252D01*
Y249150D02*
X318297D01*
Y237339D02*
Y249150D01*
Y237339D02*
X351761D01*
Y249150D01*
X318297D02*
X351761D01*
X374029D01*
Y330252D01*
X357470D02*
X374029D01*
X357470D02*
Y341866D01*
X312588D02*
X357470D01*
X312588Y330252D02*
X357470D01*
X312588D02*
Y341866D01*
X296029Y330252D02*
X312588D01*
X443813Y138125D02*
X470190D01*
Y110566D02*
Y138125D01*
X443813Y110566D02*
Y138125D01*
Y110566D02*
X470190D01*
X261978Y261128D02*
X291112D01*
X261978Y238490D02*
Y261128D01*
Y238490D02*
X291112D01*
Y261128D01*
X281663Y238717D02*
Y240685D01*
X271427D02*
X281663D01*
X271427Y238717D02*
Y240685D01*
X135482Y82781D02*
X164616D01*
X135482Y60143D02*
Y82781D01*
Y60143D02*
X164616D01*
Y82781D01*
X155167Y60370D02*
Y62338D01*
X144931D02*
X155167D01*
X144931Y60370D02*
Y62338D01*
X193621Y60086D02*
Y86464D01*
X166062Y60086D02*
X193621D01*
X166062Y86464D02*
X193621D01*
X166062Y60086D02*
Y86464D01*
X83918Y106925D02*
X89802D01*
X83907Y119437D02*
X89790D01*
X89812Y119415D01*
Y106925D02*
Y119415D01*
X83907Y106925D02*
Y119437D01*
Y106925D02*
X89812D01*
X268061Y104071D02*
Y140685D01*
Y104071D02*
X304675D01*
Y140685D01*
X268061D02*
X304675D01*
X328935Y117752D02*
Y120803D01*
X321946Y117752D02*
X328935D01*
X321946D02*
Y120803D01*
X328935D01*
X129773Y87614D02*
Y158874D01*
X100639Y87614D02*
Y158874D01*
X102608Y87614D02*
X129773D01*
X102608Y158874D02*
X129773D01*
X100639Y87614D02*
X102608D01*
X100639Y158874D02*
X102608D01*
X426322Y158699D02*
X457030D01*
X410967Y185471D02*
X472385D01*
X410967Y158699D02*
Y185471D01*
X472385Y158699D02*
Y185471D01*
X457030Y158699D02*
X472385D01*
X410967D02*
X426322D01*
X192614Y124681D02*
Y127831D01*
X186315Y124681D02*
Y127831D01*
X192614D01*
X186315Y124681D02*
X192614D01*
X396309Y334976D02*
X398474D01*
Y344819D01*
X422096D01*
Y334976D02*
Y344819D01*
X424261Y285764D02*
Y334976D01*
X396309Y285764D02*
X424261D01*
X396309D02*
Y334976D01*
X422096D02*
X424261D01*
X398474D02*
X422096D01*
X254970Y119327D02*
Y125626D01*
X258120Y119327D02*
Y125626D01*
X254970D02*
X258120D01*
X254970Y119327D02*
X258120D01*
X283120Y153776D02*
X289419D01*
X283120Y150626D02*
X289419D01*
Y153776D01*
X283120Y150626D02*
Y153776D01*
X441781Y334976D02*
X465403D01*
X467568D01*
X439616Y285764D02*
Y334976D01*
Y285764D02*
X467568D01*
Y334976D01*
X465403D02*
Y344819D01*
X441781D02*
X465403D01*
X441781Y334976D02*
Y344819D01*
X439616Y334976D02*
X441781D01*
X119730Y75642D02*
Y81941D01*
X108313D02*
X119730D01*
X108313Y75642D02*
X119730D01*
X108313D02*
Y81941D01*
X122584Y77512D02*
Y83811D01*
X125734Y77512D02*
Y83811D01*
X122584D02*
X125734D01*
X122584Y77512D02*
X125734D01*
X292175Y227890D02*
X307923D01*
X292175Y216473D02*
X307923D01*
Y227890D01*
X292175Y216473D02*
Y227890D01*
X326525Y181321D02*
Y202580D01*
X317033D02*
X326525D01*
X300541D02*
X310033D01*
X300541Y181321D02*
Y202580D01*
X317033Y176596D02*
X321801D01*
X326525Y181321D01*
X300541D02*
X305265Y176596D01*
X310033D01*
X255476Y235173D02*
X276736D01*
X255476Y225681D02*
Y235173D01*
Y209189D02*
Y218681D01*
Y209189D02*
X276736D01*
X281461Y225681D02*
Y230449D01*
X276736Y235173D02*
X281461Y230449D01*
X276736Y209189D02*
X281461Y213913D01*
Y218681D01*
X266191Y183894D02*
Y198461D01*
X292568Y183894D02*
Y198461D01*
X266191D02*
X292568D01*
X266191Y183894D02*
X292568D01*
X298376Y179563D02*
Y185862D01*
X295226Y179563D02*
Y185862D01*
Y179563D02*
X298376D01*
X295226Y185862D02*
X298376D01*
X263533Y179563D02*
Y185862D01*
X260384Y179563D02*
Y185862D01*
Y179563D02*
X263533D01*
X260384Y185862D02*
X263533D01*
X164813Y207221D02*
X190403D01*
X164813D02*
Y246591D01*
X190403D01*
Y207221D02*
Y246591D01*
X321860Y84731D02*
Y91030D01*
X334458Y84731D02*
Y91030D01*
X321860D02*
X334458D01*
X321860Y84731D02*
X334458D01*
X210383Y85173D02*
Y91473D01*
X197785Y85173D02*
Y91473D01*
Y85173D02*
X210383D01*
X197785Y91473D02*
X210383D01*
X111663Y208500D02*
Y214799D01*
X114813Y208500D02*
Y214799D01*
X111663D02*
X114813D01*
X111663Y208500D02*
X114813D01*
X139053Y181236D02*
Y215882D01*
X123053Y181236D02*
Y215882D01*
Y181236D02*
X139053D01*
X123053Y215882D02*
X139053D01*
X108612Y208500D02*
Y214799D01*
X105462Y208500D02*
Y214799D01*
Y208500D02*
X108612D01*
X105462Y214799D02*
X108612D01*
X111663Y220606D02*
Y226905D01*
X114813Y220606D02*
Y226905D01*
X111663D02*
X114813D01*
X111663Y220606D02*
X114813D01*
X99261Y208500D02*
Y214799D01*
X102411Y208500D02*
Y214799D01*
X99261D02*
X102411D01*
X99261Y208500D02*
X102411D01*
Y220606D02*
Y226906D01*
X99261Y220606D02*
Y226906D01*
Y220606D02*
X102411D01*
X99261Y226906D02*
X102411D01*
X197293Y209583D02*
X213041D01*
X197293Y228480D02*
X213041D01*
Y209583D02*
Y228480D01*
X197293Y209583D02*
Y228480D01*
X203080Y200771D02*
X208494D01*
X203080Y192110D02*
X208494D01*
X203080Y198901D02*
Y200771D01*
Y192110D02*
Y198901D01*
X208494Y192110D02*
Y200771D01*
X220029Y204661D02*
Y207811D01*
X226328Y204661D02*
Y207811D01*
X220029Y204661D02*
X226328D01*
X220029Y207811D02*
X226328D01*
X219931Y192306D02*
Y195456D01*
X226230Y192306D02*
Y195456D01*
X219931Y192306D02*
X226230D01*
X219931Y195456D02*
X226230D01*
X220339Y148362D02*
X226639D01*
X220339Y160961D02*
X226639D01*
X220339Y148362D02*
Y160961D01*
X226639Y148362D02*
Y160961D01*
X210954D02*
X217253D01*
X210954Y148362D02*
X217253D01*
Y160961D01*
X210954Y148362D02*
Y160961D01*
X201624D02*
X207923D01*
X201624Y148362D02*
X207923D01*
Y160961D01*
X201624Y148362D02*
Y160961D01*
X206432Y119130D02*
X227692D01*
Y128622D01*
Y135622D02*
Y145114D01*
X206432D02*
X227692D01*
X201708Y123854D02*
Y128622D01*
Y123854D02*
X206432Y119130D01*
X201708Y140390D02*
X206432Y145114D01*
X201708Y135622D02*
Y140390D01*
X392864Y276610D02*
X399163D01*
X392864Y273461D02*
X399163D01*
Y276610D01*
X392864Y273461D02*
Y276610D01*
X415009Y272083D02*
X421309D01*
X415009Y275232D02*
X421309D01*
X415009Y272083D02*
Y275232D01*
X421309Y272083D02*
Y275232D01*
X416880Y269032D02*
X423179D01*
X416880Y257614D02*
Y269032D01*
X423179Y257614D02*
Y269032D01*
X416880Y257614D02*
X423179D01*
X415009Y254661D02*
X421309D01*
X415009Y251512D02*
X421309D01*
Y254661D01*
X415009Y251512D02*
Y254661D01*
X468258Y266374D02*
X473572D01*
Y259287D02*
Y266374D01*
X468258Y259287D02*
X473572D01*
X468258D02*
Y266374D01*
X453494Y273461D02*
X459793D01*
X453494Y276610D02*
X459793D01*
X453494Y273461D02*
Y276610D01*
X459793Y273461D02*
Y276610D01*
X442175Y256039D02*
X460088D01*
Y270606D01*
X442175D02*
X460088D01*
X442175Y256039D02*
Y270606D01*
X433159Y257122D02*
Y263421D01*
X430009Y257122D02*
Y263421D01*
Y257122D02*
X433159D01*
X430009Y263421D02*
X433159D01*
X438631Y249937D02*
X444931D01*
X438631Y253087D02*
X444931D01*
X438631Y249937D02*
Y253087D01*
X444931Y249937D02*
Y253087D01*
X457332Y249937D02*
X463631D01*
X457332Y253087D02*
X463631D01*
X457332Y249937D02*
Y253087D01*
X463631Y249937D02*
Y253087D01*
X405167Y184583D02*
Y190882D01*
X408317Y184583D02*
Y190882D01*
X405167D02*
X408317D01*
X405167Y184583D02*
X408317D01*
X486722Y140291D02*
Y146591D01*
X499320Y140291D02*
Y146591D01*
X486722D02*
X499320D01*
X486722Y140291D02*
X499320D01*
X472883Y131236D02*
X479183D01*
X472883Y118638D02*
X479183D01*
Y131236D01*
X472883Y118638D02*
Y131236D01*
X429872Y147181D02*
X436171D01*
X429872Y144032D02*
X436171D01*
Y147181D01*
X429872Y144032D02*
Y147181D01*
X419439Y102378D02*
X431643D01*
X419439Y141354D02*
X431643D01*
Y102378D02*
Y141354D01*
X419439Y102378D02*
Y141354D01*
X377805Y105941D02*
Y112240D01*
X374655Y105941D02*
Y112240D01*
Y105941D02*
X377805D01*
X374655Y112240D02*
X377805D01*
X366387Y105646D02*
Y125331D01*
X350639Y105646D02*
Y125331D01*
X366387D01*
X350639Y105646D02*
X366387D01*
X339124Y107910D02*
Y114209D01*
X342273Y107910D02*
Y114209D01*
X339124D02*
X342273D01*
X339124Y107910D02*
X342273D01*
X317864Y119032D02*
Y125331D01*
X314714Y119032D02*
Y125331D01*
Y119032D02*
X317864D01*
X314714Y125331D02*
X317864D01*
X286663Y91079D02*
X292962D01*
X286663Y94228D02*
X292962D01*
X286663Y91079D02*
Y94228D01*
X292962Y91079D02*
Y94228D01*
X273612Y75134D02*
X279911D01*
X273612Y71984D02*
X279911D01*
Y75134D01*
X273612Y71984D02*
Y75134D01*
X147293Y207358D02*
Y213657D01*
X150443Y207358D02*
Y213657D01*
X147293D02*
X150443D01*
X147293Y207358D02*
X150443D01*
X147293Y192358D02*
Y198658D01*
X150443Y192358D02*
Y198658D01*
X147293D02*
X150443D01*
X147293Y192358D02*
X150443D01*
X166816Y182070D02*
X170162Y185417D01*
Y198999D01*
X165241Y182070D02*
X166816D01*
X165241Y198999D02*
X170162D01*
X153233D02*
X158154D01*
X156580Y182070D02*
X158154D01*
X153233Y185417D02*
X156580Y182070D01*
X153233Y185417D02*
Y198999D01*
X183261Y200626D02*
X190348D01*
Y205941D01*
X183261D02*
X190348D01*
X183261Y200626D02*
Y205941D01*
X200570Y190291D02*
X221830D01*
X200570Y180799D02*
Y190291D01*
Y164307D02*
Y173799D01*
Y164307D02*
X221830D01*
X226554Y180799D02*
Y185567D01*
X221830Y190291D02*
X226554Y185567D01*
X221830Y164307D02*
X226554Y169032D01*
Y173799D01*
X184990Y164860D02*
Y171159D01*
X181840Y164860D02*
Y171159D01*
Y164860D02*
X184990D01*
X181840Y171159D02*
X184990D01*
X175639Y164860D02*
Y171159D01*
X178789Y164860D02*
Y171159D01*
X175639D02*
X178789D01*
X175639Y164860D02*
X178789D01*
X181742Y186158D02*
Y192457D01*
X178592Y186158D02*
Y192457D01*
Y186158D02*
X181742D01*
X178592Y192457D02*
X181742D01*
X171993Y186158D02*
Y192457D01*
X175143Y186158D02*
Y192457D01*
X171993D02*
X175143D01*
X171993Y186158D02*
X175143D01*
X129183Y174051D02*
X135482D01*
X129183Y177201D02*
X135482D01*
X129183Y174051D02*
Y177201D01*
X135482Y174051D02*
Y177201D01*
X129183Y164799D02*
X135482D01*
X129183Y161650D02*
X135482D01*
Y164799D01*
X129183Y161650D02*
Y164799D01*
X170359Y155621D02*
X173705Y158967D01*
Y172550D01*
X168784Y155621D02*
X170359D01*
X168784Y172550D02*
X173705D01*
X156776D02*
X161698D01*
X160123Y155621D02*
X161698D01*
X156776Y158967D02*
X160123Y155621D01*
X156776Y158967D02*
Y172550D01*
X152608Y155621D02*
X155954Y158967D01*
Y172550D01*
X151033Y155621D02*
X152608D01*
X151033Y172550D02*
X155954D01*
X139025D02*
X143946D01*
X142371Y155621D02*
X143946D01*
X139025Y158967D02*
X142371Y155621D01*
X139025Y158967D02*
Y172550D01*
X140206Y139543D02*
Y145843D01*
X143356Y139543D02*
Y145843D01*
X140206D02*
X143356D01*
X140206Y139543D02*
X143356D01*
X146057Y133402D02*
X153057D01*
X146057Y146984D02*
X153057D01*
X146057Y133402D02*
Y146984D01*
X153057Y133402D02*
Y146984D01*
X118467Y177299D02*
X121813Y173953D01*
X104884Y177299D02*
X118467D01*
X121813Y172378D02*
Y173953D01*
X104884Y172378D02*
Y177299D01*
Y160370D02*
Y165291D01*
X121813Y163716D02*
Y165291D01*
X118467Y160370D02*
X121813Y163716D01*
X104884Y160370D02*
X118467D01*
X129183Y167850D02*
X135482D01*
X129183Y171000D02*
X135482D01*
X129183Y167850D02*
Y171000D01*
X135482Y167850D02*
Y171000D01*
X86368Y124543D02*
Y130842D01*
X89517Y124543D02*
Y130842D01*
X86368D02*
X89517D01*
X86368Y124543D02*
X89517D01*
X77509Y111945D02*
Y118244D01*
X80659Y111945D02*
Y118244D01*
X77509D02*
X80659D01*
X77509Y111945D02*
X80659D01*
X82868Y155882D02*
X89868D01*
X82868Y142299D02*
X89868D01*
Y155882D01*
X82868Y142299D02*
Y155882D01*
X95521Y162634D02*
Y168933D01*
X98671Y162634D02*
Y168933D01*
X95521D02*
X98671D01*
X95521Y162634D02*
X98671D01*
X92470D02*
Y168933D01*
X89320Y162634D02*
Y168933D01*
Y162634D02*
X92470D01*
X89320Y168933D02*
X92470D01*
X114813Y181335D02*
Y187634D01*
X111663Y181335D02*
Y187634D01*
Y181335D02*
X114813D01*
X111663Y187634D02*
X114813D01*
Y193461D02*
Y199760D01*
X111663Y193461D02*
Y199760D01*
Y193461D02*
X114813D01*
X111663Y199760D02*
X114813D01*
X108624Y180941D02*
Y193539D01*
X102325Y180941D02*
Y193539D01*
X108624D01*
X102325Y180941D02*
X108624D01*
X99261Y186846D02*
Y193146D01*
X96112Y186846D02*
Y193146D01*
Y186846D02*
X99261D01*
X96112Y193146D02*
X99261D01*
X93848Y207109D02*
X97194Y210456D01*
Y224039D01*
X92273Y207109D02*
X93848D01*
X92273Y224039D02*
X97194D01*
X80265D02*
X85187D01*
X83612Y207109D02*
X85187D01*
X80265Y210456D02*
X83612Y207109D01*
X80265Y210456D02*
Y224039D01*
D70*
X153494Y147968D02*
D03*
X82824Y141315D02*
D03*
D71*
X177410Y145999D02*
Y144949D01*
Y145474D01*
X174262D01*
Y145999D01*
Y144949D01*
X176886Y141276D02*
X177410Y141801D01*
Y142850D01*
X176886Y143375D01*
X174787D01*
X174262Y142850D01*
Y141801D01*
X174787Y141276D01*
X177410Y138127D02*
X176886Y139177D01*
X175836Y140226D01*
X174787D01*
X174262Y139702D01*
Y138652D01*
X174787Y138127D01*
X175311D01*
X175836Y138652D01*
Y140226D01*
X332596Y291078D02*
X330497D01*
Y287930D01*
X332596D01*
X330497Y289504D02*
X331546D01*
X333645Y291078D02*
X335745Y287930D01*
Y291078D02*
X333645Y287930D01*
X336794D02*
Y291078D01*
X338368D01*
X338893Y290553D01*
Y289504D01*
X338368Y288979D01*
X336794D01*
X339943Y287930D02*
Y291078D01*
X341517D01*
X342042Y290553D01*
Y289504D01*
X341517Y288979D01*
X339943D01*
X340992D02*
X342042Y287930D01*
X323048Y115822D02*
Y112674D01*
X325147D01*
X326197D02*
X327246D01*
X326722D01*
Y115822D01*
X326197Y115298D01*
X317338Y132155D02*
X317863Y132679D01*
Y133729D01*
X317338Y134254D01*
X315239D01*
X314715Y133729D01*
Y132679D01*
X315239Y132155D01*
X317338Y131105D02*
X317863Y130580D01*
Y129531D01*
X317338Y129006D01*
X316814D01*
X316289Y129531D01*
X315764Y129006D01*
X315239D01*
X314715Y129531D01*
Y130580D01*
X315239Y131105D01*
X315764D01*
X316289Y130580D01*
X316814Y131105D01*
X317338D01*
X316289Y130580D02*
Y129531D01*
X176755Y127069D02*
X176231Y127594D01*
X175181D01*
X174656Y127069D01*
Y124970D01*
X175181Y124445D01*
X176231D01*
X176755Y124970D01*
X177805Y124445D02*
X178855D01*
X178330D01*
Y127594D01*
X177805Y127069D01*
X182528Y127594D02*
X180429D01*
Y126020D01*
X181478Y126544D01*
X182003D01*
X182528Y126020D01*
Y124970D01*
X182003Y124445D01*
X180954D01*
X180429Y124970D01*
X109303Y126807D02*
X110352D01*
X109828D01*
Y123658D01*
X109303D01*
X110352D01*
X114026Y126282D02*
X113501Y126807D01*
X112451D01*
X111927Y126282D01*
Y124183D01*
X112451Y123658D01*
X113501D01*
X114026Y124183D01*
X115075Y123658D02*
X116125D01*
X115600D01*
Y126807D01*
X115075Y126282D01*
X117699D02*
X118224Y126807D01*
X119273D01*
X119798Y126282D01*
Y124183D01*
X119273Y123658D01*
X118224D01*
X117699Y124183D01*
Y126282D01*
X120848Y123658D02*
X121897D01*
X121372D01*
Y126807D01*
X120848Y126282D01*
X219243Y197327D02*
Y200475D01*
X220817D01*
X221342Y199950D01*
Y198901D01*
X220817Y198376D01*
X219243D01*
X220292D02*
X221342Y197327D01*
X222392D02*
X223441D01*
X222916D01*
Y200475D01*
X222392Y199950D01*
X227115Y197327D02*
X225015D01*
X227115Y199426D01*
Y199950D01*
X226590Y200475D01*
X225540D01*
X225015Y199950D01*
X86859Y105349D02*
X86335D01*
X85285Y104299D01*
X86335Y103250D01*
X86859D01*
X85285Y104299D02*
X83711D01*
Y102200D02*
Y101151D01*
Y101675D01*
X86859D01*
X86335Y102200D01*
Y99576D02*
X86859Y99051D01*
Y98002D01*
X86335Y97477D01*
X84236D01*
X83711Y98002D01*
Y99051D01*
X84236Y99576D01*
X86335D01*
Y96428D02*
X86859Y95903D01*
Y94853D01*
X86335Y94329D01*
X84236D01*
X83711Y94853D01*
Y95903D01*
X84236Y96428D01*
X86335D01*
X219571Y209780D02*
Y212929D01*
X221145D01*
X221670Y212404D01*
Y211354D01*
X221145Y210830D01*
X219571D01*
X220620D02*
X221670Y209780D01*
X222720D02*
X223769D01*
X223244D01*
Y212929D01*
X222720Y212404D01*
X225343Y209780D02*
X226393D01*
X225868D01*
Y212929D01*
X225343Y212404D01*
X292635Y115783D02*
Y113159D01*
X293160Y112634D01*
X294209D01*
X294734Y113159D01*
Y115783D01*
X295783Y112634D02*
X296833D01*
X296308D01*
Y115783D01*
X295783Y115258D01*
X274132Y191375D02*
Y194523D01*
X275706D01*
X276231Y193998D01*
Y192949D01*
X275706Y192424D01*
X274132D01*
X275181D02*
X276231Y191375D01*
X279380Y194523D02*
X277280D01*
Y191375D01*
X279380D01*
X277280Y192949D02*
X278330D01*
X282528Y193998D02*
X282003Y194523D01*
X280954D01*
X280429Y193998D01*
Y191899D01*
X280954Y191375D01*
X282003D01*
X282528Y191899D01*
Y192949D01*
X281479D01*
X283578Y191375D02*
X284627D01*
X284102D01*
Y194523D01*
X283578Y193998D01*
X379872Y111785D02*
X383021D01*
Y110210D01*
X382496Y109685D01*
X381447D01*
X380922Y110210D01*
Y111785D01*
Y110735D02*
X379872Y109685D01*
X383021Y106537D02*
Y108636D01*
X381447D01*
X381971Y107586D01*
Y107062D01*
X381447Y106537D01*
X380397D01*
X379872Y107062D01*
Y108111D01*
X380397Y108636D01*
X429675Y272246D02*
X432824D01*
Y270672D01*
X432299Y270147D01*
X431250D01*
X430725Y270672D01*
Y272246D01*
Y271196D02*
X429675Y270147D01*
X432824Y269097D02*
Y266998D01*
X432299D01*
X430200Y269097D01*
X429675D01*
X489814Y134977D02*
Y138126D01*
X491388D01*
X491913Y137601D01*
Y136551D01*
X491388Y136027D01*
X489814D01*
X490863D02*
X491913Y134977D01*
X492962D02*
X494012D01*
X493487D01*
Y138126D01*
X492962Y137601D01*
X495586D02*
X496111Y138126D01*
X497161D01*
X497685Y137601D01*
Y137076D01*
X497161Y136551D01*
X496636D01*
X497161D01*
X497685Y136027D01*
Y135502D01*
X497161Y134977D01*
X496111D01*
X495586Y135502D01*
X265043Y72182D02*
Y75330D01*
X266617D01*
X267142Y74805D01*
Y73756D01*
X266617Y73231D01*
X265043D01*
X266093D02*
X267142Y72182D01*
X269766D02*
Y75330D01*
X268192Y73756D01*
X270291D01*
X351825Y91734D02*
X353924D01*
X352875D01*
Y88586D01*
X354974D02*
Y90685D01*
X356023Y91734D01*
X357073Y90685D01*
Y88586D01*
Y90160D01*
X354974D01*
X358122Y88586D02*
Y91734D01*
X359697D01*
X360222Y91210D01*
Y90160D01*
X359697Y89635D01*
X358122D01*
X361271Y88061D02*
X363370D01*
X364420Y91734D02*
Y88586D01*
X365994D01*
X366519Y89110D01*
Y89635D01*
X365994Y90160D01*
X364420D01*
X365994D01*
X366519Y90685D01*
Y91210D01*
X365994Y91734D01*
X364420D01*
X367568Y88586D02*
Y91734D01*
X369143D01*
X369667Y91210D01*
Y90160D01*
X369143Y89635D01*
X367568D01*
X368618D02*
X369667Y88586D01*
X370717Y91734D02*
X371766D01*
X371242D01*
Y88586D01*
X370717D01*
X371766D01*
X375440Y91210D02*
X374915Y91734D01*
X373865D01*
X373341Y91210D01*
Y89110D01*
X373865Y88586D01*
X374915D01*
X375440Y89110D01*
Y90160D01*
X374390D01*
X376489Y91734D02*
Y88586D01*
Y90160D01*
X378588D01*
Y91734D01*
Y88586D01*
X379638Y91734D02*
X381737D01*
X380687D01*
Y88586D01*
X213928Y86847D02*
Y89996D01*
X215502D01*
X216027Y89471D01*
Y88421D01*
X215502Y87897D01*
X213928D01*
X214978D02*
X216027Y86847D01*
X217077D02*
X218126D01*
X217601D01*
Y89996D01*
X217077Y89471D01*
X219700D02*
X220225Y89996D01*
X221275D01*
X221799Y89471D01*
Y87372D01*
X221275Y86847D01*
X220225D01*
X219700Y87372D01*
Y89471D01*
X389748Y278973D02*
Y282122D01*
X391322D01*
X391847Y281597D01*
Y280547D01*
X391322Y280023D01*
X389748D01*
X390797D02*
X391847Y278973D01*
X392896Y279498D02*
X393421Y278973D01*
X394471D01*
X394995Y279498D01*
Y281597D01*
X394471Y282122D01*
X393421D01*
X392896Y281597D01*
Y281072D01*
X393421Y280547D01*
X394995D01*
X481349Y128479D02*
X484497D01*
Y126905D01*
X483972Y126380D01*
X482923D01*
X482398Y126905D01*
Y128479D01*
Y127429D02*
X481349Y126380D01*
Y125330D02*
Y124281D01*
Y124806D01*
X484497D01*
X483972Y125330D01*
X481349Y121132D02*
X484497D01*
X482923Y122707D01*
Y120608D01*
X476027Y180603D02*
Y183752D01*
X477601D01*
X478126Y183227D01*
Y182177D01*
X477601Y181653D01*
X476027D01*
X481274Y183227D02*
X480750Y183752D01*
X479700D01*
X479175Y183227D01*
Y182702D01*
X479700Y182177D01*
X480750D01*
X481274Y181653D01*
Y181128D01*
X480750Y180603D01*
X479700D01*
X479175Y181128D01*
X482324Y180078D02*
X484423D01*
X485472Y183752D02*
Y180603D01*
X487047D01*
X487572Y181128D01*
Y181653D01*
X487047Y182177D01*
X485472D01*
X487047D01*
X487572Y182702D01*
Y183227D01*
X487047Y183752D01*
X485472D01*
X488621Y180603D02*
Y183752D01*
X490195D01*
X490720Y183227D01*
Y182177D01*
X490195Y181653D01*
X488621D01*
X489671D02*
X490720Y180603D01*
X491770Y183752D02*
X492819D01*
X492295D01*
Y180603D01*
X491770D01*
X492819D01*
X496493Y183227D02*
X495968Y183752D01*
X494918D01*
X494393Y183227D01*
Y181128D01*
X494918Y180603D01*
X495968D01*
X496493Y181128D01*
Y182177D01*
X495443D01*
X497542Y183752D02*
Y180603D01*
Y182177D01*
X499641D01*
Y183752D01*
Y180603D01*
X500691Y183752D02*
X502790D01*
X501740D01*
Y180603D01*
X467405Y249938D02*
Y253086D01*
X468980D01*
X469504Y252561D01*
Y251512D01*
X468980Y250987D01*
X467405D01*
X468455D02*
X469504Y249938D01*
X472653Y253086D02*
X471603Y252561D01*
X470554Y251512D01*
Y250462D01*
X471079Y249938D01*
X472128D01*
X472653Y250462D01*
Y250987D01*
X472128Y251512D01*
X470554D01*
X444227Y144652D02*
Y141503D01*
X445801D01*
X446326Y142028D01*
Y144127D01*
X445801Y144652D01*
X444227D01*
X447375D02*
X448425D01*
X447900D01*
Y141503D01*
X447375D01*
X448425D01*
X449999Y144652D02*
Y142553D01*
X451049Y141503D01*
X452098Y142553D01*
Y144652D01*
X453148Y140978D02*
X455247D01*
X456296Y144652D02*
Y141503D01*
X457871D01*
X458395Y142028D01*
Y142553D01*
X457871Y143078D01*
X456296D01*
X457871D01*
X458395Y143602D01*
Y144127D01*
X457871Y144652D01*
X456296D01*
X459445Y141503D02*
Y144652D01*
X461019D01*
X461544Y144127D01*
Y143078D01*
X461019Y142553D01*
X459445D01*
X460495D02*
X461544Y141503D01*
X462594Y144652D02*
X463643D01*
X463118D01*
Y141503D01*
X462594D01*
X463643D01*
X467316Y144127D02*
X466792Y144652D01*
X465742D01*
X465217Y144127D01*
Y142028D01*
X465742Y141503D01*
X466792D01*
X467316Y142028D01*
Y143078D01*
X466267D01*
X468366Y144652D02*
Y141503D01*
Y143078D01*
X470465D01*
Y144652D01*
Y141503D01*
X471515Y144652D02*
X473614D01*
X472564D01*
Y141503D01*
X415634Y277201D02*
Y280350D01*
X417208D01*
X417733Y279825D01*
Y278776D01*
X417208Y278251D01*
X415634D01*
X416683D02*
X417733Y277201D01*
X418782Y279825D02*
X419307Y280350D01*
X420357D01*
X420881Y279825D01*
Y279300D01*
X420357Y278776D01*
X420881Y278251D01*
Y277726D01*
X420357Y277201D01*
X419307D01*
X418782Y277726D01*
Y278251D01*
X419307Y278776D01*
X418782Y279300D01*
Y279825D01*
X419307Y278776D02*
X420357D01*
X310378Y86158D02*
Y89307D01*
X311952D01*
X312476Y88782D01*
Y87732D01*
X311952Y87208D01*
X310378D01*
X311427D02*
X312476Y86158D01*
X313526D02*
X314576D01*
X314051D01*
Y89307D01*
X313526Y88782D01*
X318249Y89307D02*
X316150D01*
Y87732D01*
X317199Y88257D01*
X317724D01*
X318249Y87732D01*
Y86683D01*
X317724Y86158D01*
X316675D01*
X316150Y86683D01*
X229380Y162665D02*
X232529D01*
Y161091D01*
X232004Y160566D01*
X230954D01*
X230430Y161091D01*
Y162665D01*
Y161616D02*
X229380Y160566D01*
Y159516D02*
Y158467D01*
Y158992D01*
X232529D01*
X232004Y159516D01*
X229380Y156893D02*
Y155843D01*
Y156368D01*
X232529D01*
X232004Y156893D01*
X232529Y154269D02*
Y152170D01*
X232004D01*
X229905Y154269D01*
X229380D01*
X233908Y162665D02*
X237056D01*
Y161091D01*
X236531Y160566D01*
X235482D01*
X234957Y161091D01*
Y162665D01*
Y161616D02*
X233908Y160566D01*
Y159516D02*
Y158467D01*
Y158992D01*
X237056D01*
X236531Y159516D01*
X233908Y156893D02*
Y155843D01*
Y156368D01*
X237056D01*
X236531Y156893D01*
X237056Y152170D02*
X236531Y153219D01*
X235482Y154269D01*
X234432D01*
X233908Y153744D01*
Y152694D01*
X234432Y152170D01*
X234957D01*
X235482Y152694D01*
Y154269D01*
X238337Y162665D02*
X241485D01*
Y161091D01*
X240961Y160566D01*
X239911D01*
X239386Y161091D01*
Y162665D01*
Y161616D02*
X238337Y160566D01*
Y159516D02*
Y158467D01*
Y158992D01*
X241485D01*
X240961Y159516D01*
X238337Y156893D02*
Y155843D01*
Y156368D01*
X241485D01*
X240961Y156893D01*
X241485Y152170D02*
Y154269D01*
X239911D01*
X240436Y153219D01*
Y152694D01*
X239911Y152170D01*
X238861D01*
X238337Y152694D01*
Y153744D01*
X238861Y154269D01*
X99360Y253807D02*
X102509D01*
Y252233D01*
X101984Y251708D01*
X100935D01*
X100410Y252233D01*
Y253807D01*
Y252757D02*
X99360Y251708D01*
Y250658D02*
Y249609D01*
Y250133D01*
X102509D01*
X101984Y250658D01*
X99360Y248034D02*
Y246985D01*
Y247510D01*
X102509D01*
X101984Y248034D01*
X99360Y243836D02*
X102509D01*
X100935Y245410D01*
Y243311D01*
X99360Y240913D02*
X102509D01*
Y239339D01*
X101984Y238814D01*
X100935D01*
X100410Y239339D01*
Y240913D01*
Y239863D02*
X99360Y238814D01*
Y237764D02*
Y236715D01*
Y237240D01*
X102509D01*
X101984Y237764D01*
X99360Y235141D02*
Y234091D01*
Y234616D01*
X102509D01*
X101984Y235141D01*
Y232517D02*
X102509Y231992D01*
Y230943D01*
X101984Y230418D01*
X101459D01*
X100935Y230943D01*
Y231467D01*
Y230943D01*
X100410Y230418D01*
X99885D01*
X99360Y230943D01*
Y231992D01*
X99885Y232517D01*
X105955Y229286D02*
X109103D01*
Y227712D01*
X108579Y227187D01*
X107529D01*
X107004Y227712D01*
Y229286D01*
Y228237D02*
X105955Y227187D01*
Y226138D02*
Y225088D01*
Y225613D01*
X109103D01*
X108579Y226138D01*
X105955Y223514D02*
Y222464D01*
Y222989D01*
X109103D01*
X108579Y223514D01*
X105955Y218791D02*
Y220890D01*
X108054Y218791D01*
X108579D01*
X109103Y219316D01*
Y220365D01*
X108579Y220890D01*
X111762Y253282D02*
X114910D01*
Y251708D01*
X114386Y251183D01*
X113336D01*
X112811Y251708D01*
Y253282D01*
Y252233D02*
X111762Y251183D01*
Y250133D02*
Y249084D01*
Y249609D01*
X114910D01*
X114386Y250133D01*
X111762Y247510D02*
Y246460D01*
Y246985D01*
X114910D01*
X114386Y247510D01*
X111762Y244886D02*
Y243836D01*
Y244361D01*
X114910D01*
X114386Y244886D01*
X190305Y194850D02*
X193454D01*
Y193276D01*
X192929Y192751D01*
X191879D01*
X191355Y193276D01*
Y194850D01*
Y193800D02*
X190305Y192751D01*
Y191701D02*
Y190652D01*
Y191177D01*
X193454D01*
X192929Y191701D01*
X190305Y189078D02*
Y188028D01*
Y188553D01*
X193454D01*
X192929Y189078D01*
Y186454D02*
X193454Y185929D01*
Y184880D01*
X192929Y184355D01*
X190830D01*
X190305Y184880D01*
Y185929D01*
X190830Y186454D01*
X192929D01*
X183211Y195014D02*
X186359D01*
Y193440D01*
X185835Y192915D01*
X184785D01*
X184260Y193440D01*
Y195014D01*
Y193965D02*
X183211Y192915D01*
Y191865D02*
Y190816D01*
Y191341D01*
X186359D01*
X185835Y191865D01*
Y189242D02*
X186359Y188717D01*
Y187667D01*
X185835Y187143D01*
X183736D01*
X183211Y187667D01*
Y188717D01*
X183736Y189242D01*
X185835D01*
X183736Y186093D02*
X183211Y185568D01*
Y184519D01*
X183736Y183994D01*
X185835D01*
X186359Y184519D01*
Y185568D01*
X185835Y186093D01*
X185310D01*
X184785Y185568D01*
Y183994D01*
X191782Y167750D02*
X194930D01*
Y166176D01*
X194405Y165651D01*
X193356D01*
X192831Y166176D01*
Y167750D01*
Y166701D02*
X191782Y165651D01*
Y164602D02*
Y163552D01*
Y164077D01*
X194930D01*
X194405Y164602D01*
Y161978D02*
X194930Y161453D01*
Y160404D01*
X194405Y159879D01*
X192306D01*
X191782Y160404D01*
Y161453D01*
X192306Y161978D01*
X194405D01*
Y158829D02*
X194930Y158304D01*
Y157255D01*
X194405Y156730D01*
X193881D01*
X193356Y157255D01*
X192831Y156730D01*
X192306D01*
X191782Y157255D01*
Y158304D01*
X192306Y158829D01*
X192831D01*
X193356Y158304D01*
X193881Y158829D01*
X194405D01*
X193356Y158304D02*
Y157255D01*
X187353Y167750D02*
X190501D01*
Y166176D01*
X189976Y165651D01*
X188927D01*
X188402Y166176D01*
Y167750D01*
Y166701D02*
X187353Y165651D01*
Y164602D02*
Y163552D01*
Y164077D01*
X190501D01*
X189976Y164602D01*
Y161978D02*
X190501Y161453D01*
Y160404D01*
X189976Y159879D01*
X187877D01*
X187353Y160404D01*
Y161453D01*
X187877Y161978D01*
X189976D01*
X190501Y158829D02*
Y156730D01*
X189976D01*
X187877Y158829D01*
X187353D01*
X125641Y196099D02*
Y199248D01*
X127215D01*
X127740Y198723D01*
Y197673D01*
X127215Y197149D01*
X125641D01*
X126691D02*
X127740Y196099D01*
X128790D02*
X129839D01*
X129314D01*
Y199248D01*
X128790Y198723D01*
X131414D02*
X131938Y199248D01*
X132988D01*
X133513Y198723D01*
Y196624D01*
X132988Y196099D01*
X131938D01*
X131414Y196624D01*
Y198723D01*
X136661Y199248D02*
X135612Y198723D01*
X134562Y197673D01*
Y196624D01*
X135087Y196099D01*
X136136D01*
X136661Y196624D01*
Y197149D01*
X136136Y197673D01*
X134562D01*
X125838Y187142D02*
Y190291D01*
X127412D01*
X127937Y189766D01*
Y188717D01*
X127412Y188192D01*
X125838D01*
X126888D02*
X127937Y187142D01*
X128987D02*
X130036D01*
X129511D01*
Y190291D01*
X128987Y189766D01*
X131610D02*
X132135Y190291D01*
X133185D01*
X133710Y189766D01*
Y187667D01*
X133185Y187142D01*
X132135D01*
X131610Y187667D01*
Y189766D01*
X136858Y190291D02*
X134759D01*
Y188717D01*
X135809Y189241D01*
X136333D01*
X136858Y188717D01*
Y187667D01*
X136333Y187142D01*
X135284D01*
X134759Y187667D01*
X155005Y147573D02*
X158154D01*
Y145999D01*
X157629Y145474D01*
X156580D01*
X156055Y145999D01*
Y147573D01*
Y146524D02*
X155005Y145474D01*
Y144424D02*
Y143375D01*
Y143900D01*
X158154D01*
X157629Y144424D01*
Y141801D02*
X158154Y141276D01*
Y140226D01*
X157629Y139702D01*
X155530D01*
X155005Y140226D01*
Y141276D01*
X155530Y141801D01*
X157629D01*
X155005Y137078D02*
X158154D01*
X156580Y138652D01*
Y136553D01*
X83809Y171490D02*
X86958D01*
Y169916D01*
X86433Y169391D01*
X85383D01*
X84859Y169916D01*
Y171490D01*
Y170441D02*
X83809Y169391D01*
Y168342D02*
Y167292D01*
Y167817D01*
X86958D01*
X86433Y168342D01*
Y165718D02*
X86958Y165193D01*
Y164144D01*
X86433Y163619D01*
X84334D01*
X83809Y164144D01*
Y165193D01*
X84334Y165718D01*
X86433D01*
Y162569D02*
X86958Y162045D01*
Y160995D01*
X86433Y160470D01*
X85908D01*
X85383Y160995D01*
Y161520D01*
Y160995D01*
X84859Y160470D01*
X84334D01*
X83809Y160995D01*
Y162045D01*
X84334Y162569D01*
X90699Y202199D02*
X93848D01*
Y200625D01*
X93323Y200100D01*
X92273D01*
X91748Y200625D01*
Y202199D01*
Y201150D02*
X90699Y200100D01*
Y199050D02*
Y198001D01*
Y198526D01*
X93848D01*
X93323Y199050D01*
Y196427D02*
X93848Y195902D01*
Y194852D01*
X93323Y194328D01*
X91224D01*
X90699Y194852D01*
Y195902D01*
X91224Y196427D01*
X93323D01*
X90699Y191179D02*
Y193278D01*
X92798Y191179D01*
X93323D01*
X93848Y191704D01*
Y192753D01*
X93323Y193278D01*
X90502Y188977D02*
X93651D01*
Y187403D01*
X93126Y186878D01*
X92076D01*
X91552Y187403D01*
Y188977D01*
Y187928D02*
X90502Y186878D01*
Y185829D02*
Y184779D01*
Y185304D01*
X93651D01*
X93126Y185829D01*
Y183205D02*
X93651Y182680D01*
Y181631D01*
X93126Y181106D01*
X91027D01*
X90502Y181631D01*
Y182680D01*
X91027Y183205D01*
X93126D01*
X90502Y180056D02*
Y179007D01*
Y179532D01*
X93651D01*
X93126Y180056D01*
X80955Y195211D02*
X84103D01*
Y193637D01*
X83579Y193112D01*
X82529D01*
X82004Y193637D01*
Y195211D01*
Y194161D02*
X80955Y193112D01*
Y192062D02*
Y191013D01*
Y191537D01*
X84103D01*
X83579Y192062D01*
Y189438D02*
X84103Y188914D01*
Y187864D01*
X83579Y187339D01*
X81480D01*
X80955Y187864D01*
Y188914D01*
X81480Y189438D01*
X83579D01*
Y186290D02*
X84103Y185765D01*
Y184716D01*
X83579Y184191D01*
X81480D01*
X80955Y184716D01*
Y185765D01*
X81480Y186290D01*
X83579D01*
X197490Y199087D02*
Y201186D01*
X196965Y201711D01*
X195915D01*
X195391Y201186D01*
Y199087D01*
X195915Y198562D01*
X196965D01*
X196440Y199611D02*
X197490Y198562D01*
X196965D02*
X197490Y199087D01*
X198539Y198562D02*
X199589D01*
X199064D01*
Y201711D01*
X198539Y201186D01*
X212486Y291078D02*
X211436D01*
X210911Y290553D01*
Y288455D01*
X211436Y287930D01*
X212486D01*
X213010Y288455D01*
Y290553D01*
X212486Y291078D01*
X214060D02*
Y288455D01*
X214585Y287930D01*
X215634D01*
X216159Y288455D01*
Y291078D01*
X217208D02*
X219307D01*
X218258D01*
Y287930D01*
X220357D02*
Y291078D01*
X221931D01*
X222456Y290553D01*
Y289504D01*
X221931Y288979D01*
X220357D01*
X223506Y291078D02*
Y288455D01*
X224030Y287930D01*
X225080D01*
X225605Y288455D01*
Y291078D01*
X226654D02*
X228753D01*
X227704D01*
Y287930D01*
X448836Y264504D02*
X447786D01*
X447261Y263979D01*
Y261880D01*
X447786Y261355D01*
X448836D01*
X449360Y261880D01*
Y263979D01*
X448836Y264504D01*
X450410D02*
Y261355D01*
Y262404D01*
X452509Y264504D01*
X450935Y262929D01*
X452509Y261355D01*
X453558D02*
X454608D01*
X454083D01*
Y264504D01*
X453558Y263979D01*
X397264Y308369D02*
Y311518D01*
X398314Y310468D01*
X399363Y311518D01*
Y308369D01*
X400413Y311518D02*
X401462D01*
X400938D01*
Y308369D01*
X400413D01*
X401462D01*
X403037Y311518D02*
Y308369D01*
X404611D01*
X405136Y308894D01*
Y310993D01*
X404611Y311518D01*
X403037D01*
X406185D02*
X407235D01*
X406710D01*
Y308369D01*
X406185D01*
X407235D01*
X408809Y307844D02*
X410908D01*
X411958Y311518D02*
X414057D01*
X413007D01*
Y308369D01*
X415106Y311518D02*
Y308369D01*
Y309944D01*
X417205D01*
Y311518D01*
Y308369D01*
X418255D02*
Y311518D01*
X419829D01*
X420354Y310993D01*
Y309944D01*
X419829Y309419D01*
X418255D01*
X419304D02*
X420354Y308369D01*
X421404Y311518D02*
Y308894D01*
X421928Y308369D01*
X422978D01*
X423503Y308894D01*
Y311518D01*
X444179Y306991D02*
Y310140D01*
X445229Y309090D01*
X446278Y310140D01*
Y306991D01*
X447328Y310140D02*
X448377D01*
X447853D01*
Y306991D01*
X447328D01*
X448377D01*
X449952Y310140D02*
Y306991D01*
X451526D01*
X452051Y307516D01*
Y309615D01*
X451526Y310140D01*
X449952D01*
X453100D02*
X454150D01*
X453625D01*
Y306991D01*
X453100D01*
X454150D01*
X455724Y306467D02*
X457823D01*
X458873Y310140D02*
X459922D01*
X459397D01*
Y306991D01*
X458873D01*
X459922D01*
X461496D02*
Y310140D01*
X463595Y306991D01*
Y310140D01*
X202445Y221689D02*
X201395D01*
X200870Y221164D01*
Y219065D01*
X201395Y218540D01*
X202445D01*
X202969Y219065D01*
Y221164D01*
X202445Y221689D01*
X204019D02*
Y218540D01*
Y219589D01*
X206118Y221689D01*
X204544Y220114D01*
X206118Y218540D01*
X209267D02*
X207168D01*
X209267Y220639D01*
Y221164D01*
X208742Y221689D01*
X207692D01*
X207168Y221164D01*
X175017Y228480D02*
Y225331D01*
Y226381D01*
X177116Y228480D01*
X175541Y226906D01*
X177116Y225331D01*
X178165D02*
X179215D01*
X178690D01*
Y228480D01*
X178165Y227955D01*
X131968Y291177D02*
X133018D01*
X132493D01*
Y288028D01*
X131968D01*
X133018D01*
X134592D02*
Y291177D01*
X136691Y288028D01*
Y291177D01*
X137741Y288028D02*
Y291177D01*
X139315D01*
X139840Y290652D01*
Y289602D01*
X139315Y289078D01*
X137741D01*
X140889Y291177D02*
Y288553D01*
X141414Y288028D01*
X142464D01*
X142989Y288553D01*
Y291177D01*
X144038D02*
X146137D01*
X145088D01*
Y288028D01*
X421605Y120409D02*
X422655D01*
X422130D01*
Y117260D01*
X421605D01*
X422655D01*
X426328Y119884D02*
X425803Y120409D01*
X424754D01*
X424229Y119884D01*
Y117785D01*
X424754Y117260D01*
X425803D01*
X426328Y117785D01*
X429477Y120409D02*
X427378D01*
Y118835D01*
X428427Y119360D01*
X428952D01*
X429477Y118835D01*
Y117785D01*
X428952Y117260D01*
X427902D01*
X427378Y117785D01*
X352740Y109878D02*
X353790D01*
X353265D01*
Y106729D01*
X352740D01*
X353790D01*
X357463Y109353D02*
X356938Y109878D01*
X355889D01*
X355364Y109353D01*
Y107254D01*
X355889Y106729D01*
X356938D01*
X357463Y107254D01*
X358513Y106729D02*
X359562D01*
X359037D01*
Y109878D01*
X358513Y109353D01*
X451918Y176314D02*
Y175264D01*
Y175789D01*
X448770D01*
Y176314D01*
Y175264D01*
X451394Y171591D02*
X451918Y172116D01*
Y173165D01*
X451394Y173690D01*
X449295D01*
X448770Y173165D01*
Y172116D01*
X449295Y171591D01*
X451394Y170541D02*
X451918Y170017D01*
Y168967D01*
X451394Y168442D01*
X450869D01*
X450344Y168967D01*
Y169492D01*
Y168967D01*
X449819Y168442D01*
X449295D01*
X448770Y168967D01*
Y170017D01*
X449295Y170541D01*
X411072Y267160D02*
Y266111D01*
Y266635D01*
X407923D01*
Y267160D01*
Y266111D01*
X410547Y262437D02*
X411072Y262962D01*
Y264012D01*
X410547Y264536D01*
X408448D01*
X407923Y264012D01*
Y262962D01*
X408448Y262437D01*
X407923Y259289D02*
Y261388D01*
X410022Y259289D01*
X410547D01*
X411072Y259813D01*
Y260863D01*
X410547Y261388D01*
X106151Y85598D02*
Y84548D01*
Y85073D01*
X103002D01*
Y85598D01*
Y84548D01*
X105626Y80875D02*
X106151Y81400D01*
Y82449D01*
X105626Y82974D01*
X103527D01*
X103002Y82449D01*
Y81400D01*
X103527Y80875D01*
X103002Y79825D02*
Y78776D01*
Y79300D01*
X106151D01*
X105626Y79825D01*
Y77201D02*
X106151Y76677D01*
Y75627D01*
X105626Y75102D01*
X103527D01*
X103002Y75627D01*
Y76677D01*
X103527Y77201D01*
X105626D01*
X103002Y71954D02*
Y74053D01*
X105101Y71954D01*
X105626D01*
X106151Y72478D01*
Y73528D01*
X105626Y74053D01*
X123935Y211944D02*
X124985D01*
X124460D01*
Y208796D01*
X123935D01*
X124985D01*
X128658Y211420D02*
X128134Y211944D01*
X127084D01*
X126559Y211420D01*
Y209321D01*
X127084Y208796D01*
X128134D01*
X128658Y209321D01*
X129708Y208796D02*
X130757D01*
X130233D01*
Y211944D01*
X129708Y211420D01*
X132332D02*
X132857Y211944D01*
X133906D01*
X134431Y211420D01*
Y209321D01*
X133906Y208796D01*
X132857D01*
X132332Y209321D01*
Y211420D01*
X135480D02*
X136005Y211944D01*
X137055D01*
X137579Y211420D01*
Y209321D01*
X137055Y208796D01*
X136005D01*
X135480Y209321D01*
Y211420D01*
X273409Y266078D02*
Y262930D01*
X274984D01*
X275508Y263455D01*
Y265553D01*
X274984Y266078D01*
X273409D01*
X278657Y265553D02*
X278132Y266078D01*
X277083D01*
X276558Y265553D01*
Y263455D01*
X277083Y262930D01*
X278132D01*
X278657Y263455D01*
X472489Y275592D02*
X469341D01*
Y274018D01*
X469865Y273493D01*
X471965D01*
X472489Y274018D01*
Y275592D01*
X469341Y270345D02*
Y272444D01*
X471440Y270345D01*
X471965D01*
X472489Y270869D01*
Y271919D01*
X471965Y272444D01*
X180638Y211944D02*
Y208796D01*
X182212D01*
X182737Y209321D01*
Y211420D01*
X182212Y211944D01*
X180638D01*
X183786Y211420D02*
X184311Y211944D01*
X185361D01*
X185885Y211420D01*
Y210895D01*
X185361Y210370D01*
X184836D01*
X185361D01*
X185885Y209845D01*
Y209321D01*
X185361Y208796D01*
X184311D01*
X183786Y209321D01*
X298442Y233401D02*
Y230253D01*
X300016D01*
X300541Y230777D01*
Y232876D01*
X300016Y233401D01*
X298442D01*
X301590Y230253D02*
X302640D01*
X302115D01*
Y233401D01*
X301590Y232876D01*
X407594Y200100D02*
X408119Y200625D01*
Y201675D01*
X407594Y202200D01*
X405495D01*
X404971Y201675D01*
Y200625D01*
X405495Y200100D01*
X404971Y199051D02*
Y198001D01*
Y198526D01*
X408119D01*
X407594Y199051D01*
Y196427D02*
X408119Y195902D01*
Y194853D01*
X407594Y194328D01*
X407070D01*
X406545Y194853D01*
Y195378D01*
Y194853D01*
X406020Y194328D01*
X405495D01*
X404971Y194853D01*
Y195902D01*
X405495Y196427D01*
X257658Y131946D02*
X258182Y132471D01*
Y133521D01*
X257658Y134046D01*
X255558D01*
X255034Y133521D01*
Y132471D01*
X255558Y131946D01*
X258182Y128798D02*
X257658Y129847D01*
X256608Y130897D01*
X255558D01*
X255034Y130372D01*
Y129323D01*
X255558Y128798D01*
X256083D01*
X256608Y129323D01*
Y130897D01*
X444472Y275593D02*
X443947Y276118D01*
X442898D01*
X442373Y275593D01*
Y273494D01*
X442898Y272969D01*
X443947D01*
X444472Y273494D01*
X445521Y272969D02*
X446571D01*
X446046D01*
Y276118D01*
X445521Y275593D01*
X448145D02*
X448670Y276118D01*
X449720D01*
X450244Y275593D01*
Y273494D01*
X449720Y272969D01*
X448670D01*
X448145Y273494D01*
Y275593D01*
X262988Y173592D02*
X263513Y174117D01*
Y175166D01*
X262988Y175691D01*
X260889D01*
X260364Y175166D01*
Y174117D01*
X260889Y173592D01*
X260364Y170443D02*
Y172542D01*
X262463Y170443D01*
X262988D01*
X263513Y170968D01*
Y172017D01*
X262988Y172542D01*
X280036Y93381D02*
X279511Y93906D01*
X278462D01*
X277937Y93381D01*
Y91282D01*
X278462Y90757D01*
X279511D01*
X280036Y91282D01*
X281085Y93906D02*
X283184D01*
Y93381D01*
X281085Y91282D01*
Y90757D01*
X336285Y114438D02*
X336810Y114963D01*
Y116013D01*
X336285Y116537D01*
X334186D01*
X333662Y116013D01*
Y114963D01*
X334186Y114438D01*
Y113389D02*
X333662Y112864D01*
Y111814D01*
X334186Y111290D01*
X336285D01*
X336810Y111814D01*
Y112864D01*
X336285Y113389D01*
X335761D01*
X335236Y112864D01*
Y111290D01*
X304347Y206794D02*
X303822Y207318D01*
X302773D01*
X302248Y206794D01*
Y204695D01*
X302773Y204170D01*
X303822D01*
X304347Y204695D01*
X306971Y204170D02*
Y207318D01*
X305396Y205744D01*
X307495D01*
X418192Y248723D02*
X417668Y249248D01*
X416618D01*
X416093Y248723D01*
Y246624D01*
X416618Y246099D01*
X417668D01*
X418192Y246624D01*
X419242Y246099D02*
X420292D01*
X419767D01*
Y249248D01*
X419242Y248723D01*
X423965Y246099D02*
X421866D01*
X423965Y248198D01*
Y248723D01*
X423440Y249248D01*
X422391D01*
X421866Y248723D01*
X297850Y173493D02*
X298375Y174018D01*
Y175068D01*
X297850Y175592D01*
X295751D01*
X295227Y175068D01*
Y174018D01*
X295751Y173493D01*
X297850Y172444D02*
X298375Y171919D01*
Y170870D01*
X297850Y170345D01*
X297325D01*
X296801Y170870D01*
Y171394D01*
Y170870D01*
X296276Y170345D01*
X295751D01*
X295227Y170870D01*
Y171919D01*
X295751Y172444D01*
X443619Y247246D02*
X443094Y247771D01*
X442044D01*
X441520Y247246D01*
Y245147D01*
X442044Y244623D01*
X443094D01*
X443619Y245147D01*
X444668Y244623D02*
X445718D01*
X445193D01*
Y247771D01*
X444668Y247246D01*
X447292Y244623D02*
X448342D01*
X447817D01*
Y247771D01*
X447292Y247246D01*
X420704Y146656D02*
X420180Y147181D01*
X419130D01*
X418605Y146656D01*
Y144557D01*
X419130Y144032D01*
X420180D01*
X420704Y144557D01*
X421754Y144032D02*
X422803D01*
X422278D01*
Y147181D01*
X421754Y146656D01*
X425952Y144032D02*
Y147181D01*
X424378Y145606D01*
X426477D01*
X275902Y153387D02*
X275377Y153911D01*
X274328D01*
X273803Y153387D01*
Y151288D01*
X274328Y150763D01*
X275377D01*
X275902Y151288D01*
X279051Y153911D02*
X276952D01*
Y152337D01*
X278001Y152862D01*
X278526D01*
X279051Y152337D01*
Y151288D01*
X278526Y150763D01*
X277476D01*
X276952Y151288D01*
X150016Y186846D02*
X150540Y187370D01*
Y188420D01*
X150016Y188944D01*
X147917D01*
X147392Y188420D01*
Y187370D01*
X147917Y186846D01*
X147392Y185796D02*
Y184746D01*
Y185271D01*
X150540D01*
X150016Y185796D01*
X147392Y183172D02*
Y182123D01*
Y182647D01*
X150540D01*
X150016Y183172D01*
X150540Y180548D02*
Y178449D01*
X150016D01*
X147917Y180548D01*
X147392D01*
X231315Y125527D02*
X231840Y126051D01*
Y127101D01*
X231315Y127626D01*
X229216D01*
X228691Y127101D01*
Y126051D01*
X229216Y125527D01*
X228691Y124477D02*
Y123427D01*
Y123952D01*
X231840D01*
X231315Y124477D01*
X228691Y121853D02*
Y120804D01*
Y121328D01*
X231840D01*
X231315Y121853D01*
X231840Y117130D02*
X231315Y118180D01*
X230265Y119229D01*
X229216D01*
X228691Y118705D01*
Y117655D01*
X229216Y117130D01*
X229741D01*
X230265Y117655D01*
Y119229D01*
X231020Y189995D02*
X231544Y190520D01*
Y191569D01*
X231020Y192094D01*
X228921D01*
X228396Y191569D01*
Y190520D01*
X228921Y189995D01*
X228396Y188946D02*
Y187896D01*
Y188421D01*
X231544D01*
X231020Y188946D01*
X228396Y186322D02*
Y185272D01*
Y185797D01*
X231544D01*
X231020Y186322D01*
X231544Y181599D02*
Y183698D01*
X229970D01*
X230495Y182648D01*
Y182124D01*
X229970Y181599D01*
X228921D01*
X228396Y182124D01*
Y183173D01*
X228921Y183698D01*
X78559Y220507D02*
X79084Y221032D01*
Y222081D01*
X78559Y222606D01*
X76460D01*
X75935Y222081D01*
Y221032D01*
X76460Y220507D01*
X75935Y219457D02*
Y218408D01*
Y218933D01*
X79084D01*
X78559Y219457D01*
X75935Y216833D02*
Y215784D01*
Y216309D01*
X79084D01*
X78559Y216833D01*
X75935Y212635D02*
X79084D01*
X77509Y214210D01*
Y212111D01*
X114386Y238912D02*
X114910Y239437D01*
Y240487D01*
X114386Y241012D01*
X112287D01*
X111762Y240487D01*
Y239437D01*
X112287Y238912D01*
X111762Y237863D02*
Y236813D01*
Y237338D01*
X114910D01*
X114386Y237863D01*
X111762Y235239D02*
Y234190D01*
Y234714D01*
X114910D01*
X114386Y235239D01*
Y232615D02*
X114910Y232090D01*
Y231041D01*
X114386Y230516D01*
X113861D01*
X113336Y231041D01*
Y231566D01*
Y231041D01*
X112811Y230516D01*
X112287D01*
X111762Y231041D01*
Y232090D01*
X112287Y232615D01*
X155331Y213604D02*
X155855Y214129D01*
Y215179D01*
X155331Y215704D01*
X153232D01*
X152707Y215179D01*
Y214129D01*
X153232Y213604D01*
X152707Y212555D02*
Y211506D01*
Y212030D01*
X155855D01*
X155331Y212555D01*
X152707Y209931D02*
Y208882D01*
Y209406D01*
X155855D01*
X155331Y209931D01*
X152707Y205208D02*
Y207307D01*
X154806Y205208D01*
X155331D01*
X155855Y205733D01*
Y206783D01*
X155331Y207307D01*
X167991Y202463D02*
X167466Y202988D01*
X166417D01*
X165892Y202463D01*
Y200364D01*
X166417Y199839D01*
X167466D01*
X167991Y200364D01*
X169041Y199839D02*
X170090D01*
X169565D01*
Y202988D01*
X169041Y202463D01*
X171665Y199839D02*
X172714D01*
X172189D01*
Y202988D01*
X171665Y202463D01*
X174288Y199839D02*
X175338D01*
X174813D01*
Y202988D01*
X174288Y202463D01*
X171605Y177168D02*
X171080Y177692D01*
X170031D01*
X169506Y177168D01*
Y175069D01*
X170031Y174544D01*
X171080D01*
X171605Y175069D01*
X172654Y174544D02*
X173704D01*
X173179D01*
Y177692D01*
X172654Y177168D01*
X175278Y174544D02*
X176328D01*
X175803D01*
Y177692D01*
X175278Y177168D01*
X177902D02*
X178427Y177692D01*
X179476D01*
X180001Y177168D01*
Y175069D01*
X179476Y174544D01*
X178427D01*
X177902Y175069D01*
Y177168D01*
X127839Y194285D02*
X127314Y194810D01*
X126264D01*
X125740Y194285D01*
Y192186D01*
X126264Y191661D01*
X127314D01*
X127839Y192186D01*
X128888Y191661D02*
X129938D01*
X129413D01*
Y194810D01*
X128888Y194285D01*
X131512D02*
X132037Y194810D01*
X133086D01*
X133611Y194285D01*
Y192186D01*
X133086Y191661D01*
X132037D01*
X131512Y192186D01*
Y194285D01*
X134661Y192186D02*
X135185Y191661D01*
X136235D01*
X136760Y192186D01*
Y194285D01*
X136235Y194810D01*
X135185D01*
X134661Y194285D01*
Y193760D01*
X135185Y193236D01*
X136760D01*
X153626Y176971D02*
X153101Y177496D01*
X152052D01*
X151527Y176971D01*
Y174872D01*
X152052Y174347D01*
X153101D01*
X153626Y174872D01*
X154675Y174347D02*
X155725D01*
X155200D01*
Y177496D01*
X154675Y176971D01*
X157299D02*
X157824Y177496D01*
X158874D01*
X159398Y176971D01*
Y174872D01*
X158874Y174347D01*
X157824D01*
X157299Y174872D01*
Y176971D01*
X160448D02*
X160973Y177496D01*
X162022D01*
X162547Y176971D01*
Y176446D01*
X162022Y175921D01*
X162547Y175397D01*
Y174872D01*
X162022Y174347D01*
X160973D01*
X160448Y174872D01*
Y175397D01*
X160973Y175921D01*
X160448Y176446D01*
Y176971D01*
X160973Y175921D02*
X162022D01*
X130823Y78742D02*
X131348Y79267D01*
Y80316D01*
X130823Y80841D01*
X128724D01*
X128199Y80316D01*
Y79267D01*
X128724Y78742D01*
X128199Y77692D02*
Y76643D01*
Y77167D01*
X131348D01*
X130823Y77692D01*
Y75068D02*
X131348Y74544D01*
Y73494D01*
X130823Y72969D01*
X128724D01*
X128199Y73494D01*
Y74544D01*
X128724Y75068D01*
X130823D01*
X131348Y71920D02*
Y69821D01*
X130823D01*
X128724Y71920D01*
X128199D01*
X162417Y145474D02*
X162942Y145999D01*
Y147048D01*
X162417Y147573D01*
X160318D01*
X159793Y147048D01*
Y145999D01*
X160318Y145474D01*
X159793Y144424D02*
Y143375D01*
Y143900D01*
X162942D01*
X162417Y144424D01*
Y141801D02*
X162942Y141276D01*
Y140226D01*
X162417Y139702D01*
X160318D01*
X159793Y140226D01*
Y141276D01*
X160318Y141801D01*
X162417D01*
X162942Y136553D02*
X162417Y137602D01*
X161368Y138652D01*
X160318D01*
X159793Y138127D01*
Y137078D01*
X160318Y136553D01*
X160843D01*
X161368Y137078D01*
Y138652D01*
X78953Y131793D02*
X79477Y132318D01*
Y133367D01*
X78953Y133892D01*
X76854D01*
X76329Y133367D01*
Y132318D01*
X76854Y131793D01*
X76329Y130743D02*
Y129694D01*
Y130219D01*
X79477D01*
X78953Y130743D01*
Y128120D02*
X79477Y127595D01*
Y126545D01*
X78953Y126021D01*
X76854D01*
X76329Y126545D01*
Y127595D01*
X76854Y128120D01*
X78953D01*
X79477Y122872D02*
Y124971D01*
X77903D01*
X78428Y123921D01*
Y123397D01*
X77903Y122872D01*
X76854D01*
X76329Y123397D01*
Y124446D01*
X76854Y124971D01*
X80035Y106498D02*
X80560Y107022D01*
Y108072D01*
X80035Y108597D01*
X77936D01*
X77412Y108072D01*
Y107022D01*
X77936Y106498D01*
X77412Y105448D02*
Y104399D01*
Y104923D01*
X80560D01*
X80035Y105448D01*
Y102824D02*
X80560Y102299D01*
Y101250D01*
X80035Y100725D01*
X77936D01*
X77412Y101250D01*
Y102299D01*
X77936Y102824D01*
X80035D01*
X77412Y98101D02*
X80560D01*
X78986Y99676D01*
Y97577D01*
X80626Y150690D02*
X81151Y151215D01*
Y152265D01*
X80626Y152790D01*
X78527D01*
X78002Y152265D01*
Y151215D01*
X78527Y150690D01*
X78002Y149641D02*
Y148591D01*
Y149116D01*
X81151D01*
X80626Y149641D01*
Y147017D02*
X81151Y146492D01*
Y145443D01*
X80626Y144918D01*
X78527D01*
X78002Y145443D01*
Y146492D01*
X78527Y147017D01*
X80626D01*
Y143869D02*
X81151Y143344D01*
Y142294D01*
X80626Y141770D01*
X80101D01*
X79576Y142294D01*
Y142819D01*
Y142294D01*
X79052Y141770D01*
X78527D01*
X78002Y142294D01*
Y143344D01*
X78527Y143869D01*
X81315Y169391D02*
X81840Y169916D01*
Y170966D01*
X81315Y171490D01*
X79216D01*
X78691Y170966D01*
Y169916D01*
X79216Y169391D01*
X78691Y168342D02*
Y167292D01*
Y167817D01*
X81840D01*
X81315Y168342D01*
Y165718D02*
X81840Y165193D01*
Y164144D01*
X81315Y163619D01*
X79216D01*
X78691Y164144D01*
Y165193D01*
X79216Y165718D01*
X81315D01*
X78691Y160470D02*
Y162569D01*
X80790Y160470D01*
X81315D01*
X81840Y160995D01*
Y162045D01*
X81315Y162569D01*
X95982Y176183D02*
X95457Y176708D01*
X94407D01*
X93882Y176183D01*
Y174084D01*
X94407Y173560D01*
X95457D01*
X95982Y174084D01*
X97031Y173560D02*
X98080D01*
X97556D01*
Y176708D01*
X97031Y176183D01*
X99655D02*
X100180Y176708D01*
X101229D01*
X101754Y176183D01*
Y174084D01*
X101229Y173560D01*
X100180D01*
X99655Y174084D01*
Y176183D01*
X102803Y173560D02*
X103853D01*
X103328D01*
Y176708D01*
X102803Y176183D01*
X88303Y193210D02*
X88828Y193735D01*
Y194784D01*
X88303Y195309D01*
X86204D01*
X85679Y194784D01*
Y193735D01*
X86204Y193210D01*
X85679Y192161D02*
Y191111D01*
Y191636D01*
X88828D01*
X88303Y192161D01*
Y189537D02*
X88828Y189012D01*
Y187963D01*
X88303Y187438D01*
X86204D01*
X85679Y187963D01*
Y189012D01*
X86204Y189537D01*
X88303D01*
Y186388D02*
X88828Y185863D01*
Y184814D01*
X88303Y184289D01*
X86204D01*
X85679Y184814D01*
Y185863D01*
X86204Y186388D01*
X88303D01*
X253657Y229366D02*
X254182Y229891D01*
Y230941D01*
X253657Y231465D01*
X251558D01*
X251034Y230941D01*
Y229891D01*
X251558Y229366D01*
X251034Y228317D02*
Y227267D01*
Y227792D01*
X254182D01*
X253657Y228317D01*
X164907Y91439D02*
Y88291D01*
X166481D01*
X167006Y88815D01*
Y89340D01*
X166481Y89865D01*
X164907D01*
X166481D01*
X167006Y90390D01*
Y90914D01*
X166481Y91439D01*
X164907D01*
X168055D02*
Y90914D01*
X169105Y89865D01*
X170154Y90914D01*
Y91439D01*
X169105Y89865D02*
Y88291D01*
X171204D02*
Y91439D01*
X172778D01*
X173303Y90914D01*
Y89865D01*
X172778Y89340D01*
X171204D01*
X174352Y87766D02*
X176451D01*
X177501Y91439D02*
Y88291D01*
X179075D01*
X179600Y88815D01*
Y89340D01*
X179075Y89865D01*
X177501D01*
X179075D01*
X179600Y90390D01*
Y90914D01*
X179075Y91439D01*
X177501D01*
X180649Y88291D02*
Y91439D01*
X182224D01*
X182749Y90914D01*
Y89865D01*
X182224Y89340D01*
X180649D01*
X181699D02*
X182749Y88291D01*
X183798Y91439D02*
X184848D01*
X184323D01*
Y88291D01*
X183798D01*
X184848D01*
X188521Y90914D02*
X187996Y91439D01*
X186947D01*
X186422Y90914D01*
Y88815D01*
X186947Y88291D01*
X187996D01*
X188521Y88815D01*
Y89865D01*
X187471D01*
X189570Y91439D02*
Y88291D01*
Y89865D01*
X191670D01*
Y91439D01*
Y88291D01*
X192719Y91439D02*
X194818D01*
X193769D01*
Y88291D01*
D72*
X293234Y222181D02*
D03*
D73*
X470915Y260321D02*
D03*
D74*
X189315Y203284D02*
D03*
M02*
