G04*
G04 #@! TF.GenerationSoftware,Altium Limited,Altium Designer,20.1.12 (249)*
G04*
G04 Layer_Color=8388736*
%FSLAX25Y25*%
%MOIN*%
G70*
G04*
G04 #@! TF.SameCoordinates,765D21DC-0DC6-496C-9CA8-351951BC99E8*
G04*
G04*
G04 #@! TF.FilePolarity,Negative*
G04*
G01*
G75*
%ADD10C,0.11811*%
%ADD50C,0.01968*%
%ADD63C,0.02756*%
%ADD75C,0.12402*%
%ADD76R,0.09646X0.04134*%
%ADD77R,0.04134X0.09646*%
%ADD78R,0.13189X0.06890*%
%ADD79R,0.04331X0.04134*%
%ADD80R,0.06299X0.02953*%
%ADD81R,0.04134X0.04331*%
%ADD82R,0.01772X0.06299*%
%ADD83R,0.08071X0.04921*%
%ADD84R,0.02953X0.06496*%
%ADD85R,0.06496X0.02953*%
%ADD86R,0.04213X0.04449*%
%ADD87R,0.09252X0.02953*%
%ADD88R,0.02953X0.08071*%
%ADD89R,0.02953X0.05315*%
%ADD90R,0.10433X0.07087*%
%ADD91R,0.06890X0.13189*%
%ADD92R,0.04134X0.09055*%
%ADD93R,0.13189X0.09055*%
%ADD94R,0.07677X0.03740*%
%ADD95R,0.04921X0.07480*%
%ADD96R,0.02953X0.06890*%
%ADD97R,0.04134X0.02756*%
%ADD98R,0.07480X0.04921*%
%ADD99R,0.05315X0.02953*%
%ADD100R,0.02165X0.03740*%
%ADD101R,0.05315X0.03740*%
%ADD102R,0.03740X0.02165*%
%ADD103R,0.05906X0.07677*%
%ADD104C,0.06102*%
%ADD105C,0.07284*%
%ADD106C,0.07191*%
%ADD107C,0.06591*%
%ADD108R,0.05315X0.05315*%
%ADD109C,0.05315*%
%ADD110R,0.05315X0.05315*%
%ADD111C,0.08859*%
%ADD112C,0.09587*%
%ADD113C,0.10114*%
%ADD114C,0.08071*%
%ADD115C,0.04134*%
%ADD116C,0.03347*%
%ADD117C,0.06496*%
D10*
X11811Y11811D02*
D03*
X578740D02*
D03*
Y381890D02*
D03*
X11811Y381890D02*
D03*
D50*
X394882Y337598D02*
D03*
X390945D02*
D03*
X398819D02*
D03*
X402756D02*
D03*
X406693D02*
D03*
X175984D02*
D03*
X172047D02*
D03*
X168110D02*
D03*
X160236D02*
D03*
X164173D02*
D03*
X474409Y53248D02*
D03*
X470472D02*
D03*
X466535D02*
D03*
X458661D02*
D03*
X462598D02*
D03*
X298031D02*
D03*
X294094D02*
D03*
X290157D02*
D03*
X282283D02*
D03*
X286220D02*
D03*
X110039D02*
D03*
X106102D02*
D03*
X113977D02*
D03*
X117914D02*
D03*
X121851D02*
D03*
X70472Y262598D02*
D03*
Y258661D02*
D03*
Y266536D02*
D03*
Y270473D02*
D03*
Y274410D02*
D03*
X509941Y262598D02*
D03*
Y258661D02*
D03*
Y266536D02*
D03*
Y270473D02*
D03*
Y274410D02*
D03*
Y92914D02*
D03*
Y88976D02*
D03*
Y96851D02*
D03*
Y100788D02*
D03*
Y104725D02*
D03*
X70472Y104725D02*
D03*
Y100788D02*
D03*
Y96851D02*
D03*
Y88976D02*
D03*
Y92914D02*
D03*
D63*
X410285Y327496D02*
D03*
Y299937D02*
D03*
X453592D02*
D03*
Y327496D02*
D03*
D75*
X11811Y11811D02*
D03*
X578740Y11811D02*
D03*
Y381890D02*
D03*
X11811Y381890D02*
D03*
D76*
X91781Y209484D02*
D03*
Y220114D02*
D03*
X163041Y161886D02*
D03*
Y172516D02*
D03*
X151328Y161886D02*
D03*
Y172516D02*
D03*
D77*
X148868Y183559D02*
D03*
X159498D02*
D03*
X120324Y172378D02*
D03*
X109694D02*
D03*
D78*
X217737Y132122D02*
D03*
X197883D02*
D03*
X258542Y222181D02*
D03*
X278395D02*
D03*
X216599Y177299D02*
D03*
X196746D02*
D03*
D79*
X129271Y171000D02*
D03*
Y177102D02*
D03*
X256545Y125528D02*
D03*
Y119425D02*
D03*
X296801Y179661D02*
D03*
Y185764D02*
D03*
X261958D02*
D03*
Y179661D02*
D03*
X113238Y214701D02*
D03*
Y208598D02*
D03*
X107037D02*
D03*
Y214701D02*
D03*
X100836Y214701D02*
D03*
Y208598D02*
D03*
X431584Y257221D02*
D03*
Y263323D02*
D03*
X406742Y190784D02*
D03*
Y184681D02*
D03*
X376230Y106040D02*
D03*
Y112142D02*
D03*
X340698Y114110D02*
D03*
Y108008D02*
D03*
X316289Y119130D02*
D03*
Y125232D02*
D03*
X148868Y213559D02*
D03*
Y207457D02*
D03*
Y198559D02*
D03*
Y192457D02*
D03*
X178233Y165272D02*
D03*
Y171374D02*
D03*
X172092D02*
D03*
Y165272D02*
D03*
X141673Y171000D02*
D03*
Y177102D02*
D03*
X148179Y151945D02*
D03*
Y145843D02*
D03*
X135472Y177102D02*
D03*
Y171000D02*
D03*
X94340Y136945D02*
D03*
Y130842D02*
D03*
X85482Y124346D02*
D03*
Y118244D02*
D03*
X103494Y175035D02*
D03*
Y168933D02*
D03*
X97293D02*
D03*
Y175035D02*
D03*
X113238Y181433D02*
D03*
Y187536D02*
D03*
Y193559D02*
D03*
Y199661D02*
D03*
X97687Y186945D02*
D03*
Y193047D02*
D03*
D80*
X120324Y213559D02*
D03*
Y208559D02*
D03*
Y203559D02*
D03*
Y198559D02*
D03*
Y193559D02*
D03*
Y188559D02*
D03*
Y183559D02*
D03*
X141781Y213559D02*
D03*
Y208559D02*
D03*
Y203559D02*
D03*
Y198559D02*
D03*
Y193559D02*
D03*
Y188559D02*
D03*
Y183559D02*
D03*
X436072Y104366D02*
D03*
Y109366D02*
D03*
Y114366D02*
D03*
Y119366D02*
D03*
Y124366D02*
D03*
Y129366D02*
D03*
Y134366D02*
D03*
Y139366D02*
D03*
X415009Y104366D02*
D03*
Y109366D02*
D03*
Y114366D02*
D03*
Y119366D02*
D03*
Y124366D02*
D03*
Y129366D02*
D03*
Y134366D02*
D03*
Y139366D02*
D03*
X369242Y107988D02*
D03*
Y112988D02*
D03*
Y117988D02*
D03*
Y122988D02*
D03*
X347785Y107988D02*
D03*
Y112988D02*
D03*
Y117988D02*
D03*
Y122988D02*
D03*
D81*
X118549Y90390D02*
D03*
X124651D02*
D03*
X184353Y128815D02*
D03*
X178251D02*
D03*
X289320Y152201D02*
D03*
X283218D02*
D03*
X123179Y220114D02*
D03*
X129281D02*
D03*
X106939Y220803D02*
D03*
X100836D02*
D03*
X220128Y206236D02*
D03*
X226230D02*
D03*
X220029Y193881D02*
D03*
X226132D02*
D03*
X399065Y275036D02*
D03*
X392962D02*
D03*
X415108Y273657D02*
D03*
X421210D02*
D03*
X421210Y253087D02*
D03*
X415108D02*
D03*
X453592Y275036D02*
D03*
X459694D02*
D03*
X438730Y251512D02*
D03*
X444832D02*
D03*
X457431Y251512D02*
D03*
X463533D02*
D03*
X436072Y145606D02*
D03*
X429970D02*
D03*
X286761Y92654D02*
D03*
X292864D02*
D03*
X279813Y73559D02*
D03*
X273710D02*
D03*
X178096Y180783D02*
D03*
X171994D02*
D03*
Y186984D02*
D03*
X178096D02*
D03*
D82*
X180219Y153382D02*
D03*
X178251D02*
D03*
X176282D02*
D03*
X174314D02*
D03*
X172345D02*
D03*
Y135862D02*
D03*
X174314D02*
D03*
X176282D02*
D03*
X178251D02*
D03*
X180219D02*
D03*
D83*
X93257Y124346D02*
D03*
Y114504D02*
D03*
D84*
X270620Y145016D02*
D03*
X273769D02*
D03*
X276919D02*
D03*
X280068D02*
D03*
X283218D02*
D03*
X286368D02*
D03*
X289517D02*
D03*
X292667D02*
D03*
X295816D02*
D03*
X298966D02*
D03*
X302116D02*
D03*
Y99740D02*
D03*
X298966D02*
D03*
X295816D02*
D03*
X292667D02*
D03*
X289517D02*
D03*
X286368D02*
D03*
X283218D02*
D03*
X280068D02*
D03*
X276919D02*
D03*
X273769D02*
D03*
X270620D02*
D03*
D85*
X309005Y138126D02*
D03*
Y134976D02*
D03*
Y131827D02*
D03*
Y128677D02*
D03*
Y125528D02*
D03*
Y122378D02*
D03*
Y119228D02*
D03*
Y116079D02*
D03*
Y112929D02*
D03*
Y109780D02*
D03*
Y106630D02*
D03*
X263730D02*
D03*
Y109780D02*
D03*
Y112929D02*
D03*
Y116079D02*
D03*
Y119228D02*
D03*
Y122378D02*
D03*
Y125528D02*
D03*
Y128677D02*
D03*
Y131827D02*
D03*
Y134976D02*
D03*
Y138126D02*
D03*
D86*
X328501Y119327D02*
D03*
X322391D02*
D03*
D87*
X103494Y161945D02*
D03*
Y156945D02*
D03*
Y151945D02*
D03*
Y146945D02*
D03*
Y141945D02*
D03*
Y136945D02*
D03*
Y131945D02*
D03*
Y126945D02*
D03*
Y121945D02*
D03*
Y116945D02*
D03*
Y111945D02*
D03*
Y106945D02*
D03*
Y101945D02*
D03*
Y96945D02*
D03*
X139714D02*
D03*
Y101945D02*
D03*
Y106945D02*
D03*
Y111945D02*
D03*
Y116945D02*
D03*
Y121945D02*
D03*
Y126945D02*
D03*
Y131945D02*
D03*
Y136945D02*
D03*
Y141945D02*
D03*
Y146945D02*
D03*
Y151945D02*
D03*
Y156945D02*
D03*
Y161945D02*
D03*
D88*
X414183Y153382D02*
D03*
X419183D02*
D03*
X424183D02*
D03*
X429183D02*
D03*
X434183D02*
D03*
X439183D02*
D03*
X444183D02*
D03*
X449183D02*
D03*
X454183D02*
D03*
X459183D02*
D03*
X464183D02*
D03*
X469183D02*
D03*
X414183Y190783D02*
D03*
X419183D02*
D03*
X424183D02*
D03*
X429183D02*
D03*
X434183D02*
D03*
X439183D02*
D03*
X444183D02*
D03*
X449183D02*
D03*
X454183D02*
D03*
X459183D02*
D03*
X464183D02*
D03*
X469183D02*
D03*
D89*
X117171Y83909D02*
D03*
X124651D02*
D03*
Y74067D02*
D03*
X120911D02*
D03*
X117171D02*
D03*
D90*
X307431Y222181D02*
D03*
X292667D02*
D03*
D91*
X313533Y179661D02*
D03*
Y199515D02*
D03*
D92*
X279380Y179661D02*
D03*
X288435D02*
D03*
X270324D02*
D03*
D93*
X279380Y202693D02*
D03*
D94*
X163773Y211906D02*
D03*
Y221905D02*
D03*
Y241905D02*
D03*
Y231906D02*
D03*
X191332D02*
D03*
Y241905D02*
D03*
Y221905D02*
D03*
Y211906D02*
D03*
D95*
X322352Y87880D02*
D03*
X333966D02*
D03*
X209891Y88323D02*
D03*
X198277D02*
D03*
X487214Y143441D02*
D03*
X498828D02*
D03*
D96*
X200167Y206236D02*
D03*
X210167D02*
D03*
X200167Y231827D02*
D03*
X210167D02*
D03*
D97*
X201309Y196440D02*
D03*
X210167Y198999D02*
D03*
Y193881D02*
D03*
D98*
X216599Y160469D02*
D03*
Y148854D02*
D03*
X207214Y160469D02*
D03*
Y148854D02*
D03*
X197883Y160469D02*
D03*
Y148854D02*
D03*
X476033Y130744D02*
D03*
Y119130D02*
D03*
X105475Y193047D02*
D03*
Y181433D02*
D03*
D99*
X415108Y259583D02*
D03*
Y267063D02*
D03*
X424950D02*
D03*
Y263323D02*
D03*
Y259583D02*
D03*
D100*
X470915Y267358D02*
D03*
Y258303D02*
D03*
D101*
X438730Y258323D02*
D03*
Y263323D02*
D03*
Y268323D02*
D03*
X463533Y258323D02*
D03*
Y268323D02*
D03*
D102*
X191332Y203284D02*
D03*
X182277D02*
D03*
D103*
X155954Y140842D02*
D03*
Y151945D02*
D03*
X92765Y160843D02*
D03*
Y149740D02*
D03*
D104*
X380600Y204465D02*
D03*
X390600D02*
D03*
X400600D02*
D03*
X380600Y224150D02*
D03*
X390600D02*
D03*
X400600D02*
D03*
X380443Y243835D02*
D03*
X390442D02*
D03*
X400443D02*
D03*
X380600Y263520D02*
D03*
X390600D02*
D03*
X400600D02*
D03*
X501978Y263520D02*
D03*
X491978D02*
D03*
X481978D02*
D03*
X480167Y83559D02*
D03*
Y73559D02*
D03*
Y63559D02*
D03*
X501978Y243835D02*
D03*
X491978D02*
D03*
X481978D02*
D03*
X460482Y83559D02*
D03*
Y73559D02*
D03*
Y63559D02*
D03*
X501978Y224150D02*
D03*
X491978D02*
D03*
X481978D02*
D03*
X440797Y83559D02*
D03*
Y73559D02*
D03*
Y63559D02*
D03*
X501978Y204465D02*
D03*
X491978D02*
D03*
X481978D02*
D03*
X421112Y83559D02*
D03*
Y73559D02*
D03*
Y63559D02*
D03*
D105*
X129183Y243047D02*
D03*
X139025D02*
D03*
X148868D02*
D03*
X240797Y223953D02*
D03*
X230954D02*
D03*
X221112D02*
D03*
X352214Y184583D02*
D03*
Y194425D02*
D03*
Y204268D02*
D03*
X221112Y243047D02*
D03*
X230954D02*
D03*
X240797D02*
D03*
X312844D02*
D03*
X322687D02*
D03*
X332529D02*
D03*
D106*
X248474Y64996D02*
D03*
X238474D02*
D03*
X125935Y65095D02*
D03*
X115935D02*
D03*
X95935D02*
D03*
X105935D02*
D03*
X279813Y64996D02*
D03*
X289813D02*
D03*
X309813D02*
D03*
X299813D02*
D03*
X269813D02*
D03*
X259813D02*
D03*
D107*
X401210Y69327D02*
D03*
X391210D02*
D03*
X341938D02*
D03*
X331939D02*
D03*
X214773Y69425D02*
D03*
X204773D02*
D03*
X281545Y247772D02*
D03*
X271545D02*
D03*
X155049Y69425D02*
D03*
X145049D02*
D03*
D108*
X366584Y83239D02*
D03*
X179862Y83239D02*
D03*
D109*
X376584Y73239D02*
D03*
X366584Y63239D02*
D03*
X488828Y153480D02*
D03*
X478828Y163480D02*
D03*
X457037Y134366D02*
D03*
X467037Y124366D02*
D03*
X189862Y73239D02*
D03*
X179862Y63239D02*
D03*
D110*
X498828Y163480D02*
D03*
X447037Y124366D02*
D03*
D111*
X249774Y264504D02*
D03*
X185876D02*
D03*
X249774Y314504D02*
D03*
X185876D02*
D03*
X249774Y289504D02*
D03*
X185876D02*
D03*
X166644Y264504D02*
D03*
X102745D02*
D03*
X166644Y314504D02*
D03*
X102745D02*
D03*
X166644Y289504D02*
D03*
X102745D02*
D03*
X366978Y264504D02*
D03*
X303080D02*
D03*
X366978Y314504D02*
D03*
X303080D02*
D03*
X366978Y289504D02*
D03*
X303080D02*
D03*
D112*
X410285Y286945D02*
D03*
X399065Y290094D02*
D03*
X421505D02*
D03*
X464813D02*
D03*
X442372D02*
D03*
X453592Y286945D02*
D03*
D113*
X397293Y321591D02*
D03*
X423277D02*
D03*
X466584D02*
D03*
X440600D02*
D03*
D114*
X469143Y243835D02*
D03*
Y224150D02*
D03*
X412057Y233992D02*
D03*
Y243835D02*
D03*
Y224150D02*
D03*
D115*
X461663Y180744D02*
D03*
X148179Y140094D02*
D03*
X88336Y136945D02*
D03*
X111860Y101945D02*
D03*
X124651Y96591D02*
D03*
X105935Y80154D02*
D03*
X197883Y140842D02*
D03*
X224261Y148854D02*
D03*
X216599Y167880D02*
D03*
X178251Y122969D02*
D03*
X184793Y135862D02*
D03*
X126722Y203559D02*
D03*
X135383D02*
D03*
X129183Y165075D02*
D03*
X273710Y79169D02*
D03*
X191332Y198953D02*
D03*
X441781Y145606D02*
D03*
X386663Y275036D02*
D03*
X438670Y245606D02*
D03*
X431524Y251512D02*
D03*
X409634Y253087D02*
D03*
X251132Y125528D02*
D03*
X289320Y157614D02*
D03*
X154281Y198559D02*
D03*
X401343Y190784D02*
D03*
X287253Y87732D02*
D03*
X376226Y117988D02*
D03*
X328501Y124642D02*
D03*
X354179Y112988D02*
D03*
X335236Y107983D02*
D03*
D116*
X162647Y155234D02*
D03*
X125987D02*
D03*
X165403Y191374D02*
D03*
Y182614D02*
D03*
X252411Y111965D02*
D03*
X261479Y144720D02*
D03*
X175340Y142260D02*
D03*
X147765Y121945D02*
D03*
Y126945D02*
D03*
Y131945D02*
D03*
X252515Y101945D02*
D03*
X252411Y106945D02*
D03*
X354179Y138028D02*
D03*
X237844Y87339D02*
D03*
X279813Y81354D02*
D03*
X284695Y123959D02*
D03*
X359561Y133034D02*
D03*
X354179Y124833D02*
D03*
X362844Y123754D02*
D03*
X325427Y133034D02*
D03*
X295817D02*
D03*
X301033Y127688D02*
D03*
X338828Y124366D02*
D03*
X334505Y128677D02*
D03*
Y138028D02*
D03*
X274400Y106236D02*
D03*
Y111965D02*
D03*
X290502Y138028D02*
D03*
X163773Y237757D02*
D03*
X157578Y231920D02*
D03*
X459183Y100921D02*
D03*
X453592D02*
D03*
X447687D02*
D03*
X429183D02*
D03*
X368946Y253677D02*
D03*
X397717Y140685D02*
D03*
X105475Y201394D02*
D03*
X394979Y106630D02*
D03*
X263135Y87536D02*
D03*
X267352Y91866D02*
D03*
X259014Y83264D02*
D03*
X408113Y175331D02*
D03*
X385496Y184864D02*
D03*
X396998Y179760D02*
D03*
X449183Y206039D02*
D03*
X444183Y202004D02*
D03*
X439124Y197870D02*
D03*
X454183Y206039D02*
D03*
X459183Y202004D02*
D03*
X464183Y197870D02*
D03*
X473553Y190784D02*
D03*
X274400Y117457D02*
D03*
X273769Y125862D02*
D03*
X355265Y162437D02*
D03*
D117*
X278395Y230843D02*
D03*
X255561Y179661D02*
D03*
X303986Y179661D02*
D03*
M02*
