G04*
G04 #@! TF.GenerationSoftware,Altium Limited,Altium Designer,20.1.12 (249)*
G04*
G04 Layer_Color=32768*
%FSLAX25Y25*%
%MOIN*%
G70*
G04*
G04 #@! TF.SameCoordinates,8E953249-8924-40D1-970B-8FD6E2F6F70F*
G04*
G04*
G04 #@! TF.FilePolarity,Positive*
G04*
G01*
G75*
%ADD118C,0.00100*%
%ADD119C,0.07874*%
D118*
Y3937D01*
Y393701D01*
X590551D01*
X590551Y0D01*
X0D02*
X590551D01*
D119*
X67765Y54465D02*
X67899Y53446D01*
X68293Y52496D01*
X68918Y51681D01*
X69734Y51055D01*
X70683Y50662D01*
X71702Y50528D01*
X67765Y54465D02*
X67899Y53446D01*
X68293Y52496D01*
X68918Y51681D01*
X69734Y51055D01*
X70683Y50662D01*
X71702Y50528D01*
X71702Y312732D02*
X70683Y312598D01*
X69734Y312205D01*
X68918Y311579D01*
X68293Y310764D01*
X67899Y309814D01*
X67765Y308795D01*
X71702Y312732D02*
X70683Y312598D01*
X69734Y312205D01*
X68918Y311579D01*
X68293Y310764D01*
X67899Y309814D01*
X67765Y308795D01*
X244537Y336354D02*
X244403Y337373D01*
X244010Y338323D01*
X243384Y339138D01*
X242568Y339764D01*
X241619Y340157D01*
X240600Y340292D01*
X244537Y336354D02*
X244403Y337373D01*
X244010Y338323D01*
X243384Y339138D01*
X242568Y339764D01*
X241619Y340157D01*
X240600Y340292D01*
X95324Y340292D02*
X94305Y340157D01*
X93356Y339764D01*
X92540Y339138D01*
X91915Y338323D01*
X91521Y337373D01*
X91387Y336354D01*
X95324Y340292D02*
X94305Y340157D01*
X93356Y339764D01*
X92540Y339138D01*
X91915Y338323D01*
X91521Y337373D01*
X91387Y336354D01*
X260679Y330449D02*
X260545Y331468D01*
X260151Y332417D01*
X259526Y333233D01*
X258710Y333858D01*
X257761Y334252D01*
X256742Y334386D01*
X260679Y330449D02*
X260545Y331468D01*
X260151Y332417D01*
X259526Y333233D01*
X258710Y333858D01*
X257761Y334252D01*
X256742Y334386D01*
X489025Y336354D02*
X488891Y337373D01*
X488498Y338323D01*
X487872Y339138D01*
X487057Y339764D01*
X486107Y340157D01*
X485088Y340292D01*
X489025Y336354D02*
X488891Y337373D01*
X488498Y338323D01*
X487872Y339138D01*
X487057Y339764D01*
X486107Y340157D01*
X485088Y340292D01*
X312647Y340292D02*
X311628Y340157D01*
X310679Y339764D01*
X309863Y339138D01*
X309238Y338323D01*
X308844Y337373D01*
X308710Y336354D01*
X312647Y340292D02*
X311628Y340157D01*
X310679Y339764D01*
X309863Y339138D01*
X309238Y338323D01*
X308844Y337373D01*
X308710Y336354D01*
X296077Y334386D02*
X295058Y334252D01*
X294109Y333858D01*
X293293Y333233D01*
X292668Y332417D01*
X292274Y331468D01*
X292140Y330449D01*
X296077Y334386D02*
X295058Y334252D01*
X294109Y333858D01*
X293293Y333233D01*
X292668Y332417D01*
X292274Y331468D01*
X292140Y330449D01*
X512647Y308795D02*
X512513Y309814D01*
X512120Y310764D01*
X511494Y311579D01*
X510679Y312205D01*
X509729Y312598D01*
X508710Y312732D01*
X512647Y308795D02*
X512513Y309814D01*
X512120Y310764D01*
X511494Y311579D01*
X510679Y312205D01*
X509729Y312598D01*
X508710Y312732D01*
X508710Y50528D02*
X509729Y50662D01*
X510679Y51055D01*
X511494Y51681D01*
X512120Y52496D01*
X512513Y53446D01*
X512647Y54465D01*
X508710Y50528D02*
X509729Y50662D01*
X510679Y51055D01*
X511494Y51681D01*
X512120Y52496D01*
X512513Y53446D01*
X512647Y54465D01*
X303002Y50528D02*
X453592Y50528D01*
X126821Y50528D02*
X277411Y50528D01*
X71702Y50528D02*
X101230D01*
X67765Y253677D02*
X67765Y109583D01*
X67765Y83992D02*
X67765Y54465D01*
X71702Y312732D02*
X91387D01*
X67765Y308795D02*
X67765Y279268D01*
X91387Y312732D02*
Y336354D01*
X180954Y340291D02*
X240600Y340291D01*
X95324Y340292D02*
X155364Y340292D01*
X260679Y285173D02*
X292140D01*
Y330449D01*
X260679Y285173D02*
Y330449D01*
X244537Y334386D02*
X256742D01*
X312647Y340292D02*
X386072Y340292D01*
X411663Y340292D02*
X485088Y340292D01*
X296077Y334386D02*
X308710D01*
X489025Y312732D02*
X489025Y336354D01*
X308710Y334386D02*
Y336354D01*
X489025Y312732D02*
X508710D01*
X479183Y50528D02*
X508710D01*
X512647Y253677D02*
X512647Y109583D01*
X512647Y308795D02*
X512647Y279268D01*
X512647Y83992D02*
X512647Y54465D01*
M02*
