G04*
G04 #@! TF.GenerationSoftware,Altium Limited,Altium Designer,20.1.12 (249)*
G04*
G04 Layer_Color=65535*
%FSLAX25Y25*%
%MOIN*%
G70*
G04*
G04 #@! TF.SameCoordinates,8E953249-8924-40D1-970B-8FD6E2F6F70F*
G04*
G04*
G04 #@! TF.FilePolarity,Positive*
G04*
G01*
G75*
%ADD66C,0.02362*%
%ADD67C,0.02362*%
%ADD68C,0.01575*%
%ADD69C,0.00394*%
%ADD70C,0.00394*%
%ADD71C,0.00591*%
%ADD72R,0.02118X0.11417*%
%ADD73R,0.05315X0.02067*%
%ADD74R,0.02067X0.05315*%
D66*
X135840Y184559D02*
X135296Y185308D01*
X134416Y185022D01*
Y184096D01*
X135296Y183810D01*
X135840Y184559D01*
X114087Y159672D02*
X113642Y160596D01*
X112643Y160824D01*
X111842Y160185D01*
Y159160D01*
X112643Y158521D01*
X113642Y158749D01*
X114087Y159672D01*
X415895Y162437D02*
X415451Y163360D01*
X414451Y163589D01*
X413650Y162950D01*
Y161925D01*
X414451Y161285D01*
X415451Y161514D01*
X415895Y162437D01*
X423328Y138366D02*
X422784Y139115D01*
X421904Y138829D01*
Y137903D01*
X422784Y137617D01*
X423328Y138366D01*
D67*
X179885Y147597D02*
D03*
D68*
X271407Y138126D02*
X270863Y138875D01*
X269983Y138589D01*
Y137663D01*
X270863Y137377D01*
X271407Y138126D01*
D69*
X202805Y213126D02*
X202541Y214110D01*
X201820Y214831D01*
X200836Y215094D01*
X199852Y214831D01*
X199131Y214110D01*
X198868Y213126D01*
X199131Y212142D01*
X199852Y211421D01*
X200836Y211157D01*
X201820Y211421D01*
X202541Y212142D01*
X202805Y213126D01*
X458513Y259189D02*
X458213Y260115D01*
X457425Y260687D01*
X456452D01*
X455665Y260115D01*
X455364Y259189D01*
X455665Y258263D01*
X456452Y257691D01*
X457425D01*
X458213Y258263D01*
X458513Y259189D01*
X364813Y109189D02*
X364549Y110173D01*
X363828Y110894D01*
X362844Y111158D01*
X361860Y110894D01*
X361139Y110173D01*
X360876Y109189D01*
X361139Y108205D01*
X361860Y107484D01*
X362844Y107220D01*
X363828Y107484D01*
X364549Y108205D01*
X364813Y109189D01*
X194818Y135622D02*
Y140390D01*
X199542Y145114D01*
X194818Y123854D02*
X199542Y119130D01*
X194818Y123854D02*
Y128622D01*
X199542Y145114D02*
X220802D01*
Y135622D02*
Y145114D01*
Y119130D02*
Y128622D01*
X199542Y119130D02*
X220802D01*
X127697Y170902D02*
X130846D01*
X127697Y177201D02*
X130846D01*
Y170902D02*
Y177201D01*
X127697Y170902D02*
Y177201D01*
X123053Y215882D02*
X139053D01*
X123053Y181236D02*
X139053D01*
X123053D02*
Y215882D01*
X139053Y181236D02*
Y215882D01*
X95915Y211256D02*
Y218343D01*
X87647Y211256D02*
Y218343D01*
X150639Y179425D02*
X157726D01*
X150639Y187693D02*
X157726D01*
X167175Y163657D02*
Y170744D01*
X158907Y163657D02*
Y170744D01*
X155462Y163657D02*
Y170744D01*
X147194Y163657D02*
Y170744D01*
X111466Y176512D02*
X118553D01*
X111466Y168244D02*
X118553D01*
X118450Y88815D02*
Y91965D01*
X124750Y88815D02*
Y91965D01*
X118450Y88815D02*
X124750D01*
X118450Y91965D02*
X124750D01*
X182188Y138716D02*
Y150527D01*
X170377Y138716D02*
Y150527D01*
Y138716D02*
X182188D01*
X170377Y150527D02*
X182188D01*
X253474Y59996D02*
Y69996D01*
X233474Y59996D02*
Y69995D01*
Y69996D02*
X253474D01*
X233474Y59996D02*
X253474D01*
X381643Y82683D02*
X410777D01*
X381643Y60045D02*
Y82683D01*
Y60045D02*
X410777D01*
Y82683D01*
X401328Y60272D02*
Y62240D01*
X391092D02*
X401328D01*
X391092Y60272D02*
Y62240D01*
X322372Y82683D02*
X351505D01*
X322372Y60045D02*
Y82683D01*
Y60045D02*
X351505D01*
Y82683D01*
X342056Y60272D02*
Y62240D01*
X331821D02*
X342056D01*
X331821Y60272D02*
Y62240D01*
X380343Y60086D02*
Y86464D01*
X352784Y60086D02*
X380343D01*
X352784Y86464D02*
X380343D01*
X352784Y60086D02*
Y86464D01*
X475675Y149721D02*
X502053D01*
X475675D02*
Y177280D01*
X502053Y149721D02*
Y177280D01*
X475675D02*
X502053D01*
X90935Y60094D02*
X130935D01*
X90935Y70095D02*
X130935D01*
X90935Y60094D02*
Y70094D01*
X130935Y60094D02*
Y70095D01*
X254813Y69996D02*
X314813D01*
X254813Y59996D02*
X314813D01*
Y59997D02*
Y69996D01*
X254813Y59996D02*
Y69996D01*
X178825Y249150D02*
Y330252D01*
Y249150D02*
X201093D01*
Y237339D02*
Y249150D01*
Y237339D02*
X234557D01*
Y249150D01*
X201093D02*
X234557D01*
X256825D01*
Y330252D01*
X240266D02*
X256825D01*
X240266D02*
Y341866D01*
X195384D02*
X240266D01*
X195384Y330252D02*
X240266D01*
X195384D02*
Y341866D01*
X178825Y330252D02*
X195384D01*
X95695Y249150D02*
Y330252D01*
Y249150D02*
X117963D01*
Y237339D02*
Y249150D01*
Y237339D02*
X151426D01*
Y249150D01*
X117963D02*
X151426D01*
X173695D01*
Y330252D01*
X157135D02*
X173695D01*
X157135D02*
Y341866D01*
X112253D02*
X157135D01*
X112253Y330252D02*
X157135D01*
X112253D02*
Y341866D01*
X95695Y330252D02*
X112253D01*
X195206Y82781D02*
X224340D01*
X195206Y60143D02*
Y82781D01*
Y60143D02*
X224340D01*
Y82781D01*
X214891Y60370D02*
Y62338D01*
X204655D02*
X214891D01*
X204655Y60370D02*
Y62338D01*
X296029Y249150D02*
Y330252D01*
Y249150D02*
X318297D01*
Y237339D02*
Y249150D01*
Y237339D02*
X351761D01*
Y249150D01*
X318297D02*
X351761D01*
X374029D01*
Y330252D01*
X357470D02*
X374029D01*
X357470D02*
Y341866D01*
X312588D02*
X357470D01*
X312588Y330252D02*
X357470D01*
X312588D02*
Y341866D01*
X296029Y330252D02*
X312588D01*
X443813Y138125D02*
X470190D01*
Y110566D02*
Y138125D01*
X443813Y110566D02*
Y138125D01*
Y110566D02*
X470190D01*
X261978Y261128D02*
X291112D01*
X261978Y238490D02*
Y261128D01*
Y238490D02*
X291112D01*
Y261128D01*
X281663Y238717D02*
Y240685D01*
X271427D02*
X281663D01*
X271427Y238717D02*
Y240685D01*
X135482Y82781D02*
X164616D01*
X135482Y60143D02*
Y82781D01*
Y60143D02*
X164616D01*
Y82781D01*
X155167Y60370D02*
Y62338D01*
X144931D02*
X155167D01*
X144931Y60370D02*
Y62338D01*
X193621Y60086D02*
Y86464D01*
X166062Y60086D02*
X193621D01*
X166062Y86464D02*
X193621D01*
X166062Y60086D02*
Y86464D01*
X90316Y113126D02*
X96199D01*
X90305Y125638D02*
X96188D01*
X96210Y125616D01*
Y113126D02*
Y125616D01*
X90305Y113126D02*
Y125638D01*
Y113126D02*
X96210D01*
X268061Y104071D02*
Y140685D01*
Y104071D02*
X304675D01*
Y140685D01*
X268061D02*
X304675D01*
X328935Y117752D02*
Y120803D01*
X321946Y117752D02*
X328935D01*
X321946D02*
Y120803D01*
X328935D01*
X136171Y93815D02*
Y165075D01*
X107037Y93815D02*
Y165075D01*
X109006Y93815D02*
X136171D01*
X109006Y165075D02*
X136171D01*
X107037Y93815D02*
X109006D01*
X107037Y165075D02*
X109006D01*
X426322Y158699D02*
X457030D01*
X410967Y185471D02*
X472385D01*
X410967Y158699D02*
Y185471D01*
X472385Y158699D02*
Y185471D01*
X457030Y158699D02*
X472385D01*
X410967D02*
X426322D01*
X184451Y127240D02*
Y130390D01*
X178152Y127240D02*
Y130390D01*
X184451D01*
X178152Y127240D02*
X184451D01*
X396309Y334976D02*
X398474D01*
Y344819D01*
X422096D01*
Y334976D02*
Y344819D01*
X424261Y285764D02*
Y334976D01*
X396309Y285764D02*
X424261D01*
X396309D02*
Y334976D01*
X422096D02*
X424261D01*
X398474D02*
X422096D01*
X254970Y119327D02*
Y125626D01*
X258120Y119327D02*
Y125626D01*
X254970D02*
X258120D01*
X254970Y119327D02*
X258120D01*
X283120Y153776D02*
X289419D01*
X283120Y150626D02*
X289419D01*
Y153776D01*
X283120Y150626D02*
Y153776D01*
X441781Y334976D02*
X465403D01*
X467568D01*
X439616Y285764D02*
Y334976D01*
Y285764D02*
X467568D01*
Y334976D01*
X465403D02*
Y344819D01*
X441781D02*
X465403D01*
X441781Y334976D02*
Y344819D01*
X439616Y334976D02*
X441781D01*
X126620Y75839D02*
Y82138D01*
X115202D02*
X126620D01*
X115202Y75839D02*
X126620D01*
X115202D02*
Y82138D01*
X292175Y227890D02*
X307923D01*
X292175Y216473D02*
X307923D01*
Y227890D01*
X292175Y216473D02*
Y227890D01*
X326525Y181321D02*
Y202580D01*
X317033D02*
X326525D01*
X300541D02*
X310033D01*
X300541Y181321D02*
Y202580D01*
X317033Y176596D02*
X321801D01*
X326525Y181321D01*
X300541D02*
X305265Y176596D01*
X310033D01*
X255476Y235173D02*
X276736D01*
X255476Y225681D02*
Y235173D01*
Y209189D02*
Y218681D01*
Y209189D02*
X276736D01*
X281461Y225681D02*
Y230449D01*
X276736Y235173D02*
X281461Y230449D01*
X276736Y209189D02*
X281461Y213913D01*
Y218681D01*
X266191Y183894D02*
Y198461D01*
X292568Y183894D02*
Y198461D01*
X266191D02*
X292568D01*
X266191Y183894D02*
X292568D01*
X298376Y179563D02*
Y185862D01*
X295226Y179563D02*
Y185862D01*
Y179563D02*
X298376D01*
X295226Y185862D02*
X298376D01*
X263533Y179563D02*
Y185862D01*
X260384Y179563D02*
Y185862D01*
Y179563D02*
X263533D01*
X260384Y185862D02*
X263533D01*
X164813Y207221D02*
X190403D01*
X164813D02*
Y246591D01*
X190403D01*
Y207221D02*
Y246591D01*
X321860Y84731D02*
Y91030D01*
X334458Y84731D02*
Y91030D01*
X321860D02*
X334458D01*
X321860Y84731D02*
X334458D01*
X210383Y85173D02*
Y91473D01*
X197785Y85173D02*
Y91473D01*
Y85173D02*
X210383D01*
X197785Y91473D02*
X210383D01*
X111663Y208500D02*
Y214799D01*
X114813Y208500D02*
Y214799D01*
X111663D02*
X114813D01*
X111663Y208500D02*
X114813D01*
X108612D02*
Y214799D01*
X105462Y208500D02*
Y214799D01*
Y208500D02*
X108612D01*
X105462Y214799D02*
X108612D01*
X123080Y218539D02*
X129379D01*
X123080Y221689D02*
X129379D01*
X123080Y218539D02*
Y221689D01*
X129379Y218539D02*
Y221689D01*
X99261Y208500D02*
Y214799D01*
X102411Y208500D02*
Y214799D01*
X99261D02*
X102411D01*
X99261Y208500D02*
X102411D01*
X100738Y222378D02*
X107037D01*
X100738Y219228D02*
X107037D01*
Y222378D01*
X100738Y219228D02*
Y222378D01*
X197293Y209583D02*
X213041D01*
X197293Y228480D02*
X213041D01*
Y209583D02*
Y228480D01*
X197293Y209583D02*
Y228480D01*
X203080Y200771D02*
X208494D01*
X203080Y192110D02*
X208494D01*
X203080Y198901D02*
Y200771D01*
Y192110D02*
Y198901D01*
X208494Y192110D02*
Y200771D01*
X220029Y204661D02*
Y207811D01*
X226328Y204661D02*
Y207811D01*
X220029Y204661D02*
X226328D01*
X220029Y207811D02*
X226328D01*
X219931Y192306D02*
Y195456D01*
X226230Y192306D02*
Y195456D01*
X219931Y192306D02*
X226230D01*
X219931Y195456D02*
X226230D01*
X213450Y148362D02*
X219749D01*
X213450Y160961D02*
X219749D01*
X213450Y148362D02*
Y160961D01*
X219749Y148362D02*
Y160961D01*
X204065D02*
X210364D01*
X204065Y148362D02*
X210364D01*
Y160961D01*
X204065Y148362D02*
Y160961D01*
X194734D02*
X201033D01*
X194734Y148362D02*
X201033D01*
Y160961D01*
X194734Y148362D02*
Y160961D01*
X392864Y276610D02*
X399163D01*
X392864Y273461D02*
X399163D01*
Y276610D01*
X392864Y273461D02*
Y276610D01*
X415009Y272083D02*
X421309D01*
X415009Y275232D02*
X421309D01*
X415009Y272083D02*
Y275232D01*
X421309Y272083D02*
Y275232D01*
X416880Y269032D02*
X423179D01*
X416880Y257614D02*
Y269032D01*
X423179Y257614D02*
Y269032D01*
X416880Y257614D02*
X423179D01*
X415009Y254661D02*
X421309D01*
X415009Y251512D02*
X421309D01*
Y254661D01*
X415009Y251512D02*
Y254661D01*
X468258Y266374D02*
X473572D01*
Y259287D02*
Y266374D01*
X468258Y259287D02*
X473572D01*
X468258D02*
Y266374D01*
X453494Y273461D02*
X459793D01*
X453494Y276610D02*
X459793D01*
X453494Y273461D02*
Y276610D01*
X459793Y273461D02*
Y276610D01*
X442175Y256039D02*
X460088D01*
Y270606D01*
X442175D02*
X460088D01*
X442175Y256039D02*
Y270606D01*
X433159Y257122D02*
Y263421D01*
X430009Y257122D02*
Y263421D01*
Y257122D02*
X433159D01*
X430009Y263421D02*
X433159D01*
X438631Y249937D02*
X444931D01*
X438631Y253087D02*
X444931D01*
X438631Y249937D02*
Y253087D01*
X444931Y249937D02*
Y253087D01*
X457332Y249937D02*
X463631D01*
X457332Y253087D02*
X463631D01*
X457332Y249937D02*
Y253087D01*
X463631Y249937D02*
Y253087D01*
X405167Y184583D02*
Y190882D01*
X408317Y184583D02*
Y190882D01*
X405167D02*
X408317D01*
X405167Y184583D02*
X408317D01*
X486722Y140291D02*
Y146591D01*
X499320Y140291D02*
Y146591D01*
X486722D02*
X499320D01*
X486722Y140291D02*
X499320D01*
X472883Y131236D02*
X479183D01*
X472883Y118638D02*
X479183D01*
Y131236D01*
X472883Y118638D02*
Y131236D01*
X429872Y147181D02*
X436171D01*
X429872Y144032D02*
X436171D01*
Y147181D01*
X429872Y144032D02*
Y147181D01*
X419439Y102378D02*
X431643D01*
X419439Y141354D02*
X431643D01*
Y102378D02*
Y141354D01*
X419439Y102378D02*
Y141354D01*
X377805Y105941D02*
Y112240D01*
X374655Y105941D02*
Y112240D01*
Y105941D02*
X377805D01*
X374655Y112240D02*
X377805D01*
X366387Y105646D02*
Y125331D01*
X350639Y105646D02*
Y125331D01*
X366387D01*
X350639Y105646D02*
X366387D01*
X339124Y107910D02*
Y114209D01*
X342273Y107910D02*
Y114209D01*
X339124D02*
X342273D01*
X339124Y107910D02*
X342273D01*
X317864Y119032D02*
Y125331D01*
X314714Y119032D02*
Y125331D01*
Y119032D02*
X317864D01*
X314714Y125331D02*
X317864D01*
X286663Y91079D02*
X292962D01*
X286663Y94228D02*
X292962D01*
X286663Y91079D02*
Y94228D01*
X292962Y91079D02*
Y94228D01*
X273612Y75134D02*
X279911D01*
X273612Y71984D02*
X279911D01*
Y75134D01*
X273612Y71984D02*
Y75134D01*
X147293Y207358D02*
Y213657D01*
X150443Y207358D02*
Y213657D01*
X147293D02*
X150443D01*
X147293Y207358D02*
X150443D01*
X147293Y192358D02*
Y198658D01*
X150443Y192358D02*
Y198658D01*
X147293D02*
X150443D01*
X147293Y192358D02*
X150443D01*
X183261Y200626D02*
X190348D01*
Y205941D01*
X183261D02*
X190348D01*
X183261Y200626D02*
Y205941D01*
X193680Y190291D02*
X214940D01*
X193680Y180799D02*
Y190291D01*
Y164307D02*
Y173799D01*
Y164307D02*
X214940D01*
X219665Y180799D02*
Y185567D01*
X214940Y190291D02*
X219665Y185567D01*
X214940Y164307D02*
X219665Y169032D01*
Y173799D01*
X179808Y165173D02*
Y171472D01*
X176659Y165173D02*
Y171472D01*
Y165173D02*
X179808D01*
X176659Y171472D02*
X179808D01*
X170517Y165173D02*
Y171472D01*
X173667Y165173D02*
Y171472D01*
X170517D02*
X173667D01*
X170517Y165173D02*
X173667D01*
X171896Y182358D02*
X178195D01*
X171896Y179209D02*
X178195D01*
Y182358D01*
X171896Y179209D02*
Y182358D01*
Y185409D02*
X178195D01*
X171896Y188559D02*
X178195D01*
X171896Y185409D02*
Y188559D01*
X178195Y185409D02*
Y188559D01*
X143248Y170902D02*
Y177201D01*
X140098Y170902D02*
Y177201D01*
Y170902D02*
X143248D01*
X140098Y177201D02*
X143248D01*
X146604Y145744D02*
Y152043D01*
X149753Y145744D02*
Y152043D01*
X146604D02*
X149753D01*
X146604Y145744D02*
X149753D01*
X152454Y139602D02*
X159454D01*
X152454Y153185D02*
X159454D01*
X152454Y139602D02*
Y153185D01*
X159454Y139602D02*
Y153185D01*
X133897Y170902D02*
Y177201D01*
X137047Y170902D02*
Y177201D01*
X133897D02*
X137047D01*
X133897Y170902D02*
X137047D01*
X92765Y130744D02*
Y137043D01*
X95915Y130744D02*
Y137043D01*
X92765D02*
X95915D01*
X92765Y130744D02*
X95915D01*
X83907Y118146D02*
Y124445D01*
X87057Y118146D02*
Y124445D01*
X83907D02*
X87057D01*
X83907Y118146D02*
X87057D01*
X89265Y162083D02*
X96265D01*
X89265Y148500D02*
X96265D01*
Y162083D01*
X89265Y148500D02*
Y162083D01*
X101919Y168835D02*
Y175134D01*
X105069Y168835D02*
Y175134D01*
X101919D02*
X105069D01*
X101919Y168835D02*
X105069D01*
X98868D02*
Y175134D01*
X95718Y168835D02*
Y175134D01*
Y168835D02*
X98868D01*
X95718Y175134D02*
X98868D01*
X114813Y181335D02*
Y187634D01*
X111663Y181335D02*
Y187634D01*
Y181335D02*
X114813D01*
X111663Y187634D02*
X114813D01*
Y193461D02*
Y199760D01*
X111663Y193461D02*
Y199760D01*
Y193461D02*
X114813D01*
X111663Y199760D02*
X114813D01*
X108624Y180941D02*
Y193539D01*
X102325Y180941D02*
Y193539D01*
X108624D01*
X102325Y180941D02*
X108624D01*
X99261Y186846D02*
Y193146D01*
X96112Y186846D02*
Y193146D01*
Y186846D02*
X99261D01*
X96112Y193146D02*
X99261D01*
D70*
X159891Y154169D02*
D03*
X89222Y147516D02*
D03*
D71*
X186859Y148755D02*
Y147705D01*
Y148230D01*
X183711D01*
Y148755D01*
Y147705D01*
X186335Y144032D02*
X186859Y144556D01*
Y145606D01*
X186335Y146131D01*
X184236D01*
X183711Y145606D01*
Y144556D01*
X184236Y144032D01*
X186859Y140883D02*
X186335Y141933D01*
X185285Y142982D01*
X184236D01*
X183711Y142457D01*
Y141408D01*
X184236Y140883D01*
X184760D01*
X185285Y141408D01*
Y142982D01*
X332596Y291078D02*
X330497D01*
Y287930D01*
X332596D01*
X330497Y289504D02*
X331546D01*
X333645Y291078D02*
X335745Y287930D01*
Y291078D02*
X333645Y287930D01*
X336794D02*
Y291078D01*
X338368D01*
X338893Y290553D01*
Y289504D01*
X338368Y288979D01*
X336794D01*
X339943Y287930D02*
Y291078D01*
X341517D01*
X342042Y290553D01*
Y289504D01*
X341517Y288979D01*
X339943D01*
X340992D02*
X342042Y287930D01*
X323048Y115822D02*
Y112674D01*
X325147D01*
X326197D02*
X327246D01*
X326722D01*
Y115822D01*
X326197Y115298D01*
X317338Y132155D02*
X317863Y132679D01*
Y133729D01*
X317338Y134254D01*
X315239D01*
X314715Y133729D01*
Y132679D01*
X315239Y132155D01*
X317338Y131105D02*
X317863Y130580D01*
Y129531D01*
X317338Y129006D01*
X316814D01*
X316289Y129531D01*
X315764Y129006D01*
X315239D01*
X314715Y129531D01*
Y130580D01*
X315239Y131105D01*
X315764D01*
X316289Y130580D01*
X316814Y131105D01*
X317338D01*
X316289Y130580D02*
Y129531D01*
X168593Y129628D02*
X168068Y130153D01*
X167018D01*
X166494Y129628D01*
Y127529D01*
X167018Y127004D01*
X168068D01*
X168593Y127529D01*
X169642Y127004D02*
X170692D01*
X170167D01*
Y130153D01*
X169642Y129628D01*
X174365Y130153D02*
X172266D01*
Y128579D01*
X173316Y129103D01*
X173840D01*
X174365Y128579D01*
Y127529D01*
X173840Y127004D01*
X172791D01*
X172266Y127529D01*
X115700Y133007D02*
X116750D01*
X116225D01*
Y129859D01*
X115700D01*
X116750D01*
X120423Y132483D02*
X119898Y133007D01*
X118849D01*
X118324Y132483D01*
Y130384D01*
X118849Y129859D01*
X119898D01*
X120423Y130384D01*
X121473Y129859D02*
X122522D01*
X121998D01*
Y133007D01*
X121473Y132483D01*
X124097D02*
X124621Y133007D01*
X125671D01*
X126196Y132483D01*
Y130384D01*
X125671Y129859D01*
X124621D01*
X124097Y130384D01*
Y132483D01*
X127245Y129859D02*
X128295D01*
X127770D01*
Y133007D01*
X127245Y132483D01*
X219243Y197327D02*
Y200475D01*
X220817D01*
X221342Y199950D01*
Y198901D01*
X220817Y198376D01*
X219243D01*
X220292D02*
X221342Y197327D01*
X222392D02*
X223441D01*
X222916D01*
Y200475D01*
X222392Y199950D01*
X227115Y197327D02*
X225015D01*
X227115Y199426D01*
Y199950D01*
X226590Y200475D01*
X225540D01*
X225015Y199950D01*
X93946Y111648D02*
X93421D01*
X92372Y110598D01*
X93421Y109549D01*
X93946D01*
X92372Y110598D02*
X90797D01*
Y108499D02*
Y107450D01*
Y107975D01*
X93946D01*
X93421Y108499D01*
Y105876D02*
X93946Y105351D01*
Y104301D01*
X93421Y103776D01*
X91322D01*
X90797Y104301D01*
Y105351D01*
X91322Y105876D01*
X93421D01*
Y102727D02*
X93946Y102202D01*
Y101153D01*
X93421Y100628D01*
X91322D01*
X90797Y101153D01*
Y102202D01*
X91322Y102727D01*
X93421D01*
X219571Y209780D02*
Y212929D01*
X221145D01*
X221670Y212404D01*
Y211354D01*
X221145Y210830D01*
X219571D01*
X220620D02*
X221670Y209780D01*
X222720D02*
X223769D01*
X223244D01*
Y212929D01*
X222720Y212404D01*
X225343Y209780D02*
X226393D01*
X225868D01*
Y212929D01*
X225343Y212404D01*
X292635Y115783D02*
Y113159D01*
X293160Y112634D01*
X294209D01*
X294734Y113159D01*
Y115783D01*
X295783Y112634D02*
X296833D01*
X296308D01*
Y115783D01*
X295783Y115258D01*
X274132Y191375D02*
Y194523D01*
X275706D01*
X276231Y193998D01*
Y192949D01*
X275706Y192424D01*
X274132D01*
X275181D02*
X276231Y191375D01*
X279380Y194523D02*
X277280D01*
Y191375D01*
X279380D01*
X277280Y192949D02*
X278330D01*
X282528Y193998D02*
X282003Y194523D01*
X280954D01*
X280429Y193998D01*
Y191899D01*
X280954Y191375D01*
X282003D01*
X282528Y191899D01*
Y192949D01*
X281479D01*
X283578Y191375D02*
X284627D01*
X284102D01*
Y194523D01*
X283578Y193998D01*
X379872Y111785D02*
X383021D01*
Y110210D01*
X382496Y109685D01*
X381447D01*
X380922Y110210D01*
Y111785D01*
Y110735D02*
X379872Y109685D01*
X383021Y106537D02*
Y108636D01*
X381447D01*
X381971Y107586D01*
Y107062D01*
X381447Y106537D01*
X380397D01*
X379872Y107062D01*
Y108111D01*
X380397Y108636D01*
X429675Y272246D02*
X432824D01*
Y270672D01*
X432299Y270147D01*
X431250D01*
X430725Y270672D01*
Y272246D01*
Y271196D02*
X429675Y270147D01*
X432824Y269097D02*
Y266998D01*
X432299D01*
X430200Y269097D01*
X429675D01*
X489814Y134977D02*
Y138126D01*
X491388D01*
X491913Y137601D01*
Y136551D01*
X491388Y136027D01*
X489814D01*
X490863D02*
X491913Y134977D01*
X492962D02*
X494012D01*
X493487D01*
Y138126D01*
X492962Y137601D01*
X495586D02*
X496111Y138126D01*
X497161D01*
X497685Y137601D01*
Y137076D01*
X497161Y136551D01*
X496636D01*
X497161D01*
X497685Y136027D01*
Y135502D01*
X497161Y134977D01*
X496111D01*
X495586Y135502D01*
X265043Y72182D02*
Y75330D01*
X266617D01*
X267142Y74805D01*
Y73756D01*
X266617Y73231D01*
X265043D01*
X266093D02*
X267142Y72182D01*
X269766D02*
Y75330D01*
X268192Y73756D01*
X270291D01*
X351825Y91734D02*
X353924D01*
X352875D01*
Y88586D01*
X354974D02*
Y90685D01*
X356023Y91734D01*
X357073Y90685D01*
Y88586D01*
Y90160D01*
X354974D01*
X358122Y88586D02*
Y91734D01*
X359697D01*
X360222Y91210D01*
Y90160D01*
X359697Y89635D01*
X358122D01*
X361271Y88061D02*
X363370D01*
X364420Y91734D02*
Y88586D01*
X365994D01*
X366519Y89110D01*
Y89635D01*
X365994Y90160D01*
X364420D01*
X365994D01*
X366519Y90685D01*
Y91210D01*
X365994Y91734D01*
X364420D01*
X367568Y88586D02*
Y91734D01*
X369143D01*
X369667Y91210D01*
Y90160D01*
X369143Y89635D01*
X367568D01*
X368618D02*
X369667Y88586D01*
X370717Y91734D02*
X371766D01*
X371242D01*
Y88586D01*
X370717D01*
X371766D01*
X375440Y91210D02*
X374915Y91734D01*
X373865D01*
X373341Y91210D01*
Y89110D01*
X373865Y88586D01*
X374915D01*
X375440Y89110D01*
Y90160D01*
X374390D01*
X376489Y91734D02*
Y88586D01*
Y90160D01*
X378588D01*
Y91734D01*
Y88586D01*
X379638Y91734D02*
X381737D01*
X380687D01*
Y88586D01*
X213928Y86847D02*
Y89996D01*
X215502D01*
X216027Y89471D01*
Y88421D01*
X215502Y87897D01*
X213928D01*
X214978D02*
X216027Y86847D01*
X217077D02*
X218126D01*
X217601D01*
Y89996D01*
X217077Y89471D01*
X219700D02*
X220225Y89996D01*
X221275D01*
X221799Y89471D01*
Y87372D01*
X221275Y86847D01*
X220225D01*
X219700Y87372D01*
Y89471D01*
X389748Y278973D02*
Y282122D01*
X391322D01*
X391847Y281597D01*
Y280547D01*
X391322Y280023D01*
X389748D01*
X390797D02*
X391847Y278973D01*
X392896Y279498D02*
X393421Y278973D01*
X394471D01*
X394995Y279498D01*
Y281597D01*
X394471Y282122D01*
X393421D01*
X392896Y281597D01*
Y281072D01*
X393421Y280547D01*
X394995D01*
X481349Y128479D02*
X484497D01*
Y126905D01*
X483972Y126380D01*
X482923D01*
X482398Y126905D01*
Y128479D01*
Y127429D02*
X481349Y126380D01*
Y125330D02*
Y124281D01*
Y124806D01*
X484497D01*
X483972Y125330D01*
X481349Y121132D02*
X484497D01*
X482923Y122707D01*
Y120608D01*
X476027Y180603D02*
Y183752D01*
X477601D01*
X478126Y183227D01*
Y182177D01*
X477601Y181653D01*
X476027D01*
X481274Y183227D02*
X480750Y183752D01*
X479700D01*
X479175Y183227D01*
Y182702D01*
X479700Y182177D01*
X480750D01*
X481274Y181653D01*
Y181128D01*
X480750Y180603D01*
X479700D01*
X479175Y181128D01*
X482324Y180078D02*
X484423D01*
X485472Y183752D02*
Y180603D01*
X487047D01*
X487572Y181128D01*
Y181653D01*
X487047Y182177D01*
X485472D01*
X487047D01*
X487572Y182702D01*
Y183227D01*
X487047Y183752D01*
X485472D01*
X488621Y180603D02*
Y183752D01*
X490195D01*
X490720Y183227D01*
Y182177D01*
X490195Y181653D01*
X488621D01*
X489671D02*
X490720Y180603D01*
X491770Y183752D02*
X492819D01*
X492295D01*
Y180603D01*
X491770D01*
X492819D01*
X496493Y183227D02*
X495968Y183752D01*
X494918D01*
X494393Y183227D01*
Y181128D01*
X494918Y180603D01*
X495968D01*
X496493Y181128D01*
Y182177D01*
X495443D01*
X497542Y183752D02*
Y180603D01*
Y182177D01*
X499641D01*
Y183752D01*
Y180603D01*
X500691Y183752D02*
X502790D01*
X501740D01*
Y180603D01*
X467405Y249938D02*
Y253086D01*
X468980D01*
X469504Y252561D01*
Y251512D01*
X468980Y250987D01*
X467405D01*
X468455D02*
X469504Y249938D01*
X472653Y253086D02*
X471603Y252561D01*
X470554Y251512D01*
Y250462D01*
X471079Y249938D01*
X472128D01*
X472653Y250462D01*
Y250987D01*
X472128Y251512D01*
X470554D01*
X444227Y144652D02*
Y141503D01*
X445801D01*
X446326Y142028D01*
Y144127D01*
X445801Y144652D01*
X444227D01*
X447375D02*
X448425D01*
X447900D01*
Y141503D01*
X447375D01*
X448425D01*
X449999Y144652D02*
Y142553D01*
X451049Y141503D01*
X452098Y142553D01*
Y144652D01*
X453148Y140978D02*
X455247D01*
X456296Y144652D02*
Y141503D01*
X457871D01*
X458395Y142028D01*
Y142553D01*
X457871Y143078D01*
X456296D01*
X457871D01*
X458395Y143602D01*
Y144127D01*
X457871Y144652D01*
X456296D01*
X459445Y141503D02*
Y144652D01*
X461019D01*
X461544Y144127D01*
Y143078D01*
X461019Y142553D01*
X459445D01*
X460495D02*
X461544Y141503D01*
X462594Y144652D02*
X463643D01*
X463118D01*
Y141503D01*
X462594D01*
X463643D01*
X467316Y144127D02*
X466792Y144652D01*
X465742D01*
X465217Y144127D01*
Y142028D01*
X465742Y141503D01*
X466792D01*
X467316Y142028D01*
Y143078D01*
X466267D01*
X468366Y144652D02*
Y141503D01*
Y143078D01*
X470465D01*
Y144652D01*
Y141503D01*
X471515Y144652D02*
X473614D01*
X472564D01*
Y141503D01*
X415634Y277201D02*
Y280350D01*
X417208D01*
X417733Y279825D01*
Y278776D01*
X417208Y278251D01*
X415634D01*
X416683D02*
X417733Y277201D01*
X418782Y279825D02*
X419307Y280350D01*
X420357D01*
X420881Y279825D01*
Y279300D01*
X420357Y278776D01*
X420881Y278251D01*
Y277726D01*
X420357Y277201D01*
X419307D01*
X418782Y277726D01*
Y278251D01*
X419307Y278776D01*
X418782Y279300D01*
Y279825D01*
X419307Y278776D02*
X420357D01*
X310378Y86158D02*
Y89307D01*
X311952D01*
X312476Y88782D01*
Y87732D01*
X311952Y87208D01*
X310378D01*
X311427D02*
X312476Y86158D01*
X313526D02*
X314576D01*
X314051D01*
Y89307D01*
X313526Y88782D01*
X318249Y89307D02*
X316150D01*
Y87732D01*
X317199Y88257D01*
X317724D01*
X318249Y87732D01*
Y86683D01*
X317724Y86158D01*
X316675D01*
X316150Y86683D01*
X222490Y162665D02*
X225639D01*
Y161091D01*
X225114Y160566D01*
X224065D01*
X223540Y161091D01*
Y162665D01*
Y161616D02*
X222490Y160566D01*
Y159516D02*
Y158467D01*
Y158992D01*
X225639D01*
X225114Y159516D01*
X222490Y156893D02*
Y155843D01*
Y156368D01*
X225639D01*
X225114Y156893D01*
X225639Y154269D02*
Y152170D01*
X225114D01*
X223015Y154269D01*
X222490D01*
X227018Y162665D02*
X230166D01*
Y161091D01*
X229642Y160566D01*
X228592D01*
X228067Y161091D01*
Y162665D01*
Y161616D02*
X227018Y160566D01*
Y159516D02*
Y158467D01*
Y158992D01*
X230166D01*
X229642Y159516D01*
X227018Y156893D02*
Y155843D01*
Y156368D01*
X230166D01*
X229642Y156893D01*
X230166Y152170D02*
X229642Y153219D01*
X228592Y154269D01*
X227543D01*
X227018Y153744D01*
Y152694D01*
X227543Y152170D01*
X228067D01*
X228592Y152694D01*
Y154269D01*
X231447Y162665D02*
X234596D01*
Y161091D01*
X234071Y160566D01*
X233021D01*
X232497Y161091D01*
Y162665D01*
Y161616D02*
X231447Y160566D01*
Y159516D02*
Y158467D01*
Y158992D01*
X234596D01*
X234071Y159516D01*
X231447Y156893D02*
Y155843D01*
Y156368D01*
X234596D01*
X234071Y156893D01*
X234596Y152170D02*
Y154269D01*
X233021D01*
X233546Y153219D01*
Y152694D01*
X233021Y152170D01*
X231972D01*
X231447Y152694D01*
Y153744D01*
X231972Y154269D01*
X99329Y237044D02*
Y240193D01*
X100903D01*
X101428Y239668D01*
Y238618D01*
X100903Y238093D01*
X99329D01*
X100378D02*
X101428Y237044D01*
X102477D02*
X103527D01*
X103002D01*
Y240193D01*
X102477Y239668D01*
X105101Y237044D02*
X106151D01*
X105626D01*
Y240193D01*
X105101Y239668D01*
X109299Y237044D02*
Y240193D01*
X107725Y238618D01*
X109824D01*
X99459Y235106D02*
X102607D01*
Y233532D01*
X102083Y233007D01*
X101033D01*
X100508Y233532D01*
Y235106D01*
Y234056D02*
X99459Y233007D01*
Y231957D02*
Y230908D01*
Y231433D01*
X102607D01*
X102083Y231957D01*
X99459Y229333D02*
Y228284D01*
Y228809D01*
X102607D01*
X102083Y229333D01*
Y226710D02*
X102607Y226185D01*
Y225135D01*
X102083Y224611D01*
X101558D01*
X101033Y225135D01*
Y225660D01*
Y225135D01*
X100508Y224611D01*
X99984D01*
X99459Y225135D01*
Y226185D01*
X99984Y226710D01*
X105561Y235500D02*
X108710D01*
Y233925D01*
X108185Y233401D01*
X107135D01*
X106611Y233925D01*
Y235500D01*
Y234450D02*
X105561Y233401D01*
Y232351D02*
Y231301D01*
Y231826D01*
X108710D01*
X108185Y232351D01*
X105561Y229727D02*
Y228678D01*
Y229203D01*
X108710D01*
X108185Y229727D01*
X105561Y225004D02*
Y227103D01*
X107660Y225004D01*
X108185D01*
X108710Y225529D01*
Y226579D01*
X108185Y227103D01*
X122421Y223757D02*
Y226905D01*
X123995D01*
X124520Y226380D01*
Y225331D01*
X123995Y224806D01*
X122421D01*
X123471D02*
X124520Y223757D01*
X125570D02*
X126619D01*
X126095D01*
Y226905D01*
X125570Y226380D01*
X128194Y223757D02*
X129243D01*
X128718D01*
Y226905D01*
X128194Y226380D01*
X130817Y223757D02*
X131867D01*
X131342D01*
Y226905D01*
X130817Y226380D01*
X181514Y181926D02*
Y185074D01*
X183088D01*
X183613Y184550D01*
Y183500D01*
X183088Y182975D01*
X181514D01*
X182563D02*
X183613Y181926D01*
X184662D02*
X185712D01*
X185187D01*
Y185074D01*
X184662Y184550D01*
X187286Y181926D02*
X188336D01*
X187811D01*
Y185074D01*
X187286Y184550D01*
X189910D02*
X190435Y185074D01*
X191484D01*
X192009Y184550D01*
Y182450D01*
X191484Y181926D01*
X190435D01*
X189910Y182450D01*
Y184550D01*
X181448Y186355D02*
Y189504D01*
X183022D01*
X183547Y188979D01*
Y187929D01*
X183022Y187404D01*
X181448D01*
X182498D02*
X183547Y186355D01*
X184597D02*
X185646D01*
X185122D01*
Y189504D01*
X184597Y188979D01*
X187221D02*
X187745Y189504D01*
X188795D01*
X189320Y188979D01*
Y186880D01*
X188795Y186355D01*
X187745D01*
X187221Y186880D01*
Y188979D01*
X190369Y186880D02*
X190894Y186355D01*
X191944D01*
X192468Y186880D01*
Y188979D01*
X191944Y189504D01*
X190894D01*
X190369Y188979D01*
Y188454D01*
X190894Y187929D01*
X192468D01*
X186270Y173361D02*
X189418D01*
Y171786D01*
X188894Y171261D01*
X187844D01*
X187319Y171786D01*
Y173361D01*
Y172311D02*
X186270Y171261D01*
Y170212D02*
Y169162D01*
Y169687D01*
X189418D01*
X188894Y170212D01*
Y167588D02*
X189418Y167063D01*
Y166014D01*
X188894Y165489D01*
X186795D01*
X186270Y166014D01*
Y167063D01*
X186795Y167588D01*
X188894D01*
Y164439D02*
X189418Y163915D01*
Y162865D01*
X188894Y162340D01*
X188369D01*
X187844Y162865D01*
X187319Y162340D01*
X186795D01*
X186270Y162865D01*
Y163915D01*
X186795Y164439D01*
X187319D01*
X187844Y163915D01*
X188369Y164439D01*
X188894D01*
X187844Y163915D02*
Y162865D01*
X181687Y173361D02*
X184836D01*
Y171786D01*
X184311Y171261D01*
X183261D01*
X182737Y171786D01*
Y173361D01*
Y172311D02*
X181687Y171261D01*
Y170212D02*
Y169162D01*
Y169687D01*
X184836D01*
X184311Y170212D01*
Y167588D02*
X184836Y167063D01*
Y166014D01*
X184311Y165489D01*
X182212D01*
X181687Y166014D01*
Y167063D01*
X182212Y167588D01*
X184311D01*
X184836Y164439D02*
Y162340D01*
X184311D01*
X182212Y164439D01*
X181687D01*
X124951Y193931D02*
X128100D01*
Y192357D01*
X127575Y191832D01*
X126525D01*
X126000Y192357D01*
Y193931D01*
Y192882D02*
X124951Y191832D01*
Y190783D02*
Y189733D01*
Y190258D01*
X128100D01*
X127575Y190783D01*
Y188159D02*
X128100Y187634D01*
Y186585D01*
X127575Y186060D01*
X125476D01*
X124951Y186585D01*
Y187634D01*
X125476Y188159D01*
X127575D01*
X128100Y182911D02*
X127575Y183961D01*
X126525Y185010D01*
X125476D01*
X124951Y184485D01*
Y183436D01*
X125476Y182911D01*
X126000D01*
X126525Y183436D01*
Y185010D01*
X133711Y199345D02*
X136859D01*
Y197770D01*
X136335Y197246D01*
X135285D01*
X134760Y197770D01*
Y199345D01*
Y198295D02*
X133711Y197246D01*
Y196196D02*
Y195147D01*
Y195671D01*
X136859D01*
X136335Y196196D01*
Y193572D02*
X136859Y193047D01*
Y191998D01*
X136335Y191473D01*
X134236D01*
X133711Y191998D01*
Y193047D01*
X134236Y193572D01*
X136335D01*
X136859Y188325D02*
Y190424D01*
X135285D01*
X135810Y189374D01*
Y188849D01*
X135285Y188325D01*
X134236D01*
X133711Y188849D01*
Y189899D01*
X134236Y190424D01*
X160581Y151018D02*
X163729D01*
Y149444D01*
X163205Y148919D01*
X162155D01*
X161630Y149444D01*
Y151018D01*
Y149968D02*
X160581Y148919D01*
Y147869D02*
Y146820D01*
Y147345D01*
X163729D01*
X163205Y147869D01*
Y145246D02*
X163729Y144721D01*
Y143671D01*
X163205Y143147D01*
X161106D01*
X160581Y143671D01*
Y144721D01*
X161106Y145246D01*
X163205D01*
X160581Y140523D02*
X163729D01*
X162155Y142097D01*
Y139998D01*
X90207Y177691D02*
X93355D01*
Y176117D01*
X92831Y175592D01*
X91781D01*
X91256Y176117D01*
Y177691D01*
Y176642D02*
X90207Y175592D01*
Y174543D02*
Y173493D01*
Y174018D01*
X93355D01*
X92831Y174543D01*
Y171919D02*
X93355Y171394D01*
Y170344D01*
X92831Y169820D01*
X90732D01*
X90207Y170344D01*
Y171394D01*
X90732Y171919D01*
X92831D01*
Y168770D02*
X93355Y168245D01*
Y167196D01*
X92831Y166671D01*
X92306D01*
X91781Y167196D01*
Y167721D01*
Y167196D01*
X91256Y166671D01*
X90732D01*
X90207Y167196D01*
Y168245D01*
X90732Y168770D01*
X90699Y202199D02*
X93848D01*
Y200625D01*
X93323Y200100D01*
X92273D01*
X91748Y200625D01*
Y202199D01*
Y201150D02*
X90699Y200100D01*
Y199050D02*
Y198001D01*
Y198526D01*
X93848D01*
X93323Y199050D01*
Y196427D02*
X93848Y195902D01*
Y194852D01*
X93323Y194328D01*
X91224D01*
X90699Y194852D01*
Y195902D01*
X91224Y196427D01*
X93323D01*
X90699Y191179D02*
Y193278D01*
X92798Y191179D01*
X93323D01*
X93848Y191704D01*
Y192753D01*
X93323Y193278D01*
X90502Y188977D02*
X93651D01*
Y187403D01*
X93126Y186878D01*
X92076D01*
X91552Y187403D01*
Y188977D01*
Y187928D02*
X90502Y186878D01*
Y185829D02*
Y184779D01*
Y185304D01*
X93651D01*
X93126Y185829D01*
Y183205D02*
X93651Y182680D01*
Y181631D01*
X93126Y181106D01*
X91027D01*
X90502Y181631D01*
Y182680D01*
X91027Y183205D01*
X93126D01*
X90502Y180056D02*
Y179007D01*
Y179532D01*
X93651D01*
X93126Y180056D01*
X80955Y195211D02*
X84103D01*
Y193637D01*
X83579Y193112D01*
X82529D01*
X82004Y193637D01*
Y195211D01*
Y194161D02*
X80955Y193112D01*
Y192062D02*
Y191013D01*
Y191537D01*
X84103D01*
X83579Y192062D01*
Y189438D02*
X84103Y188914D01*
Y187864D01*
X83579Y187339D01*
X81480D01*
X80955Y187864D01*
Y188914D01*
X81480Y189438D01*
X83579D01*
Y186290D02*
X84103Y185765D01*
Y184716D01*
X83579Y184191D01*
X81480D01*
X80955Y184716D01*
Y185765D01*
X81480Y186290D01*
X83579D01*
X197490Y199087D02*
Y201186D01*
X196965Y201711D01*
X195915D01*
X195391Y201186D01*
Y199087D01*
X195915Y198562D01*
X196965D01*
X196440Y199611D02*
X197490Y198562D01*
X196965D02*
X197490Y199087D01*
X198539Y198562D02*
X199589D01*
X199064D01*
Y201711D01*
X198539Y201186D01*
X212486Y291078D02*
X211436D01*
X210911Y290553D01*
Y288455D01*
X211436Y287930D01*
X212486D01*
X213010Y288455D01*
Y290553D01*
X212486Y291078D01*
X214060D02*
Y288455D01*
X214585Y287930D01*
X215634D01*
X216159Y288455D01*
Y291078D01*
X217208D02*
X219307D01*
X218258D01*
Y287930D01*
X220357D02*
Y291078D01*
X221931D01*
X222456Y290553D01*
Y289504D01*
X221931Y288979D01*
X220357D01*
X223506Y291078D02*
Y288455D01*
X224030Y287930D01*
X225080D01*
X225605Y288455D01*
Y291078D01*
X226654D02*
X228753D01*
X227704D01*
Y287930D01*
X448836Y264504D02*
X447786D01*
X447261Y263979D01*
Y261880D01*
X447786Y261355D01*
X448836D01*
X449360Y261880D01*
Y263979D01*
X448836Y264504D01*
X450410D02*
Y261355D01*
Y262404D01*
X452509Y264504D01*
X450935Y262929D01*
X452509Y261355D01*
X453558D02*
X454608D01*
X454083D01*
Y264504D01*
X453558Y263979D01*
X397264Y308369D02*
Y311518D01*
X398314Y310468D01*
X399363Y311518D01*
Y308369D01*
X400413Y311518D02*
X401462D01*
X400938D01*
Y308369D01*
X400413D01*
X401462D01*
X403037Y311518D02*
Y308369D01*
X404611D01*
X405136Y308894D01*
Y310993D01*
X404611Y311518D01*
X403037D01*
X406185D02*
X407235D01*
X406710D01*
Y308369D01*
X406185D01*
X407235D01*
X408809Y307844D02*
X410908D01*
X411958Y311518D02*
X414057D01*
X413007D01*
Y308369D01*
X415106Y311518D02*
Y308369D01*
Y309944D01*
X417205D01*
Y311518D01*
Y308369D01*
X418255D02*
Y311518D01*
X419829D01*
X420354Y310993D01*
Y309944D01*
X419829Y309419D01*
X418255D01*
X419304D02*
X420354Y308369D01*
X421404Y311518D02*
Y308894D01*
X421928Y308369D01*
X422978D01*
X423503Y308894D01*
Y311518D01*
X444179Y306991D02*
Y310140D01*
X445229Y309090D01*
X446278Y310140D01*
Y306991D01*
X447328Y310140D02*
X448377D01*
X447853D01*
Y306991D01*
X447328D01*
X448377D01*
X449952Y310140D02*
Y306991D01*
X451526D01*
X452051Y307516D01*
Y309615D01*
X451526Y310140D01*
X449952D01*
X453100D02*
X454150D01*
X453625D01*
Y306991D01*
X453100D01*
X454150D01*
X455724Y306467D02*
X457823D01*
X458873Y310140D02*
X459922D01*
X459397D01*
Y306991D01*
X458873D01*
X459922D01*
X461496D02*
Y310140D01*
X463595Y306991D01*
Y310140D01*
X202445Y221689D02*
X201395D01*
X200870Y221164D01*
Y219065D01*
X201395Y218540D01*
X202445D01*
X202969Y219065D01*
Y221164D01*
X202445Y221689D01*
X204019D02*
Y218540D01*
Y219589D01*
X206118Y221689D01*
X204544Y220114D01*
X206118Y218540D01*
X209267D02*
X207168D01*
X209267Y220639D01*
Y221164D01*
X208742Y221689D01*
X207692D01*
X207168Y221164D01*
X175017Y228480D02*
Y225331D01*
Y226381D01*
X177116Y228480D01*
X175541Y226906D01*
X177116Y225331D01*
X178165D02*
X179215D01*
X178690D01*
Y228480D01*
X178165Y227955D01*
X131968Y291177D02*
X133018D01*
X132493D01*
Y288028D01*
X131968D01*
X133018D01*
X134592D02*
Y291177D01*
X136691Y288028D01*
Y291177D01*
X137741Y288028D02*
Y291177D01*
X139315D01*
X139840Y290652D01*
Y289602D01*
X139315Y289078D01*
X137741D01*
X140889Y291177D02*
Y288553D01*
X141414Y288028D01*
X142464D01*
X142989Y288553D01*
Y291177D01*
X144038D02*
X146137D01*
X145088D01*
Y288028D01*
X421605Y120409D02*
X422655D01*
X422130D01*
Y117260D01*
X421605D01*
X422655D01*
X426328Y119884D02*
X425803Y120409D01*
X424754D01*
X424229Y119884D01*
Y117785D01*
X424754Y117260D01*
X425803D01*
X426328Y117785D01*
X429477Y120409D02*
X427378D01*
Y118835D01*
X428427Y119360D01*
X428952D01*
X429477Y118835D01*
Y117785D01*
X428952Y117260D01*
X427902D01*
X427378Y117785D01*
X352740Y109878D02*
X353790D01*
X353265D01*
Y106729D01*
X352740D01*
X353790D01*
X357463Y109353D02*
X356938Y109878D01*
X355889D01*
X355364Y109353D01*
Y107254D01*
X355889Y106729D01*
X356938D01*
X357463Y107254D01*
X358513Y106729D02*
X359562D01*
X359037D01*
Y109878D01*
X358513Y109353D01*
X451918Y176314D02*
Y175264D01*
Y175789D01*
X448770D01*
Y176314D01*
Y175264D01*
X451394Y171591D02*
X451918Y172116D01*
Y173165D01*
X451394Y173690D01*
X449295D01*
X448770Y173165D01*
Y172116D01*
X449295Y171591D01*
X451394Y170541D02*
X451918Y170017D01*
Y168967D01*
X451394Y168442D01*
X450869D01*
X450344Y168967D01*
Y169492D01*
Y168967D01*
X449819Y168442D01*
X449295D01*
X448770Y168967D01*
Y170017D01*
X449295Y170541D01*
X411072Y267160D02*
Y266111D01*
Y266635D01*
X407923D01*
Y267160D01*
Y266111D01*
X410547Y262437D02*
X411072Y262962D01*
Y264012D01*
X410547Y264536D01*
X408448D01*
X407923Y264012D01*
Y262962D01*
X408448Y262437D01*
X407923Y259289D02*
Y261388D01*
X410022Y259289D01*
X410547D01*
X411072Y259813D01*
Y260863D01*
X410547Y261388D01*
X132332Y85893D02*
Y84843D01*
Y85368D01*
X129183D01*
Y85893D01*
Y84843D01*
X131807Y81170D02*
X132332Y81695D01*
Y82744D01*
X131807Y83269D01*
X129708D01*
X129183Y82744D01*
Y81695D01*
X129708Y81170D01*
X129183Y80120D02*
Y79071D01*
Y79596D01*
X132332D01*
X131807Y80120D01*
Y77497D02*
X132332Y76972D01*
Y75922D01*
X131807Y75397D01*
X129708D01*
X129183Y75922D01*
Y76972D01*
X129708Y77497D01*
X131807D01*
X129183Y72249D02*
Y74348D01*
X131282Y72249D01*
X131807D01*
X132332Y72774D01*
Y73823D01*
X131807Y74348D01*
X123935Y211944D02*
X124985D01*
X124460D01*
Y208796D01*
X123935D01*
X124985D01*
X128658Y211420D02*
X128134Y211944D01*
X127084D01*
X126559Y211420D01*
Y209321D01*
X127084Y208796D01*
X128134D01*
X128658Y209321D01*
X129708Y208796D02*
X130757D01*
X130233D01*
Y211944D01*
X129708Y211420D01*
X132332D02*
X132857Y211944D01*
X133906D01*
X134431Y211420D01*
Y209321D01*
X133906Y208796D01*
X132857D01*
X132332Y209321D01*
Y211420D01*
X135480D02*
X136005Y211944D01*
X137055D01*
X137579Y211420D01*
Y209321D01*
X137055Y208796D01*
X136005D01*
X135480Y209321D01*
Y211420D01*
X273409Y266078D02*
Y262930D01*
X274984D01*
X275508Y263455D01*
Y265553D01*
X274984Y266078D01*
X273409D01*
X278657Y265553D02*
X278132Y266078D01*
X277083D01*
X276558Y265553D01*
Y263455D01*
X277083Y262930D01*
X278132D01*
X278657Y263455D01*
X472489Y275592D02*
X469341D01*
Y274018D01*
X469865Y273493D01*
X471965D01*
X472489Y274018D01*
Y275592D01*
X469341Y270345D02*
Y272444D01*
X471440Y270345D01*
X471965D01*
X472489Y270869D01*
Y271919D01*
X471965Y272444D01*
X180638Y211944D02*
Y208796D01*
X182212D01*
X182737Y209321D01*
Y211420D01*
X182212Y211944D01*
X180638D01*
X183786Y211420D02*
X184311Y211944D01*
X185361D01*
X185885Y211420D01*
Y210895D01*
X185361Y210370D01*
X184836D01*
X185361D01*
X185885Y209845D01*
Y209321D01*
X185361Y208796D01*
X184311D01*
X183786Y209321D01*
X298442Y233401D02*
Y230253D01*
X300016D01*
X300541Y230777D01*
Y232876D01*
X300016Y233401D01*
X298442D01*
X301590Y230253D02*
X302640D01*
X302115D01*
Y233401D01*
X301590Y232876D01*
X407594Y200100D02*
X408119Y200625D01*
Y201675D01*
X407594Y202200D01*
X405495D01*
X404971Y201675D01*
Y200625D01*
X405495Y200100D01*
X404971Y199051D02*
Y198001D01*
Y198526D01*
X408119D01*
X407594Y199051D01*
Y196427D02*
X408119Y195902D01*
Y194853D01*
X407594Y194328D01*
X407070D01*
X406545Y194853D01*
Y195378D01*
Y194853D01*
X406020Y194328D01*
X405495D01*
X404971Y194853D01*
Y195902D01*
X405495Y196427D01*
X257658Y131946D02*
X258182Y132471D01*
Y133521D01*
X257658Y134046D01*
X255558D01*
X255034Y133521D01*
Y132471D01*
X255558Y131946D01*
X258182Y128798D02*
X257658Y129847D01*
X256608Y130897D01*
X255558D01*
X255034Y130372D01*
Y129323D01*
X255558Y128798D01*
X256083D01*
X256608Y129323D01*
Y130897D01*
X444472Y275593D02*
X443947Y276118D01*
X442898D01*
X442373Y275593D01*
Y273494D01*
X442898Y272969D01*
X443947D01*
X444472Y273494D01*
X445521Y272969D02*
X446571D01*
X446046D01*
Y276118D01*
X445521Y275593D01*
X448145D02*
X448670Y276118D01*
X449720D01*
X450244Y275593D01*
Y273494D01*
X449720Y272969D01*
X448670D01*
X448145Y273494D01*
Y275593D01*
X262988Y173592D02*
X263513Y174117D01*
Y175166D01*
X262988Y175691D01*
X260889D01*
X260364Y175166D01*
Y174117D01*
X260889Y173592D01*
X260364Y170443D02*
Y172542D01*
X262463Y170443D01*
X262988D01*
X263513Y170968D01*
Y172017D01*
X262988Y172542D01*
X280036Y93381D02*
X279511Y93906D01*
X278462D01*
X277937Y93381D01*
Y91282D01*
X278462Y90757D01*
X279511D01*
X280036Y91282D01*
X281085Y93906D02*
X283184D01*
Y93381D01*
X281085Y91282D01*
Y90757D01*
X336285Y114438D02*
X336810Y114963D01*
Y116013D01*
X336285Y116537D01*
X334186D01*
X333662Y116013D01*
Y114963D01*
X334186Y114438D01*
Y113389D02*
X333662Y112864D01*
Y111814D01*
X334186Y111290D01*
X336285D01*
X336810Y111814D01*
Y112864D01*
X336285Y113389D01*
X335761D01*
X335236Y112864D01*
Y111290D01*
X304347Y206794D02*
X303822Y207318D01*
X302773D01*
X302248Y206794D01*
Y204695D01*
X302773Y204170D01*
X303822D01*
X304347Y204695D01*
X306971Y204170D02*
Y207318D01*
X305396Y205744D01*
X307495D01*
X418192Y248723D02*
X417668Y249248D01*
X416618D01*
X416093Y248723D01*
Y246624D01*
X416618Y246099D01*
X417668D01*
X418192Y246624D01*
X419242Y246099D02*
X420292D01*
X419767D01*
Y249248D01*
X419242Y248723D01*
X423965Y246099D02*
X421866D01*
X423965Y248198D01*
Y248723D01*
X423440Y249248D01*
X422391D01*
X421866Y248723D01*
X297850Y173493D02*
X298375Y174018D01*
Y175068D01*
X297850Y175592D01*
X295751D01*
X295227Y175068D01*
Y174018D01*
X295751Y173493D01*
X297850Y172444D02*
X298375Y171919D01*
Y170870D01*
X297850Y170345D01*
X297325D01*
X296801Y170870D01*
Y171394D01*
Y170870D01*
X296276Y170345D01*
X295751D01*
X295227Y170870D01*
Y171919D01*
X295751Y172444D01*
X443619Y247246D02*
X443094Y247771D01*
X442044D01*
X441520Y247246D01*
Y245147D01*
X442044Y244623D01*
X443094D01*
X443619Y245147D01*
X444668Y244623D02*
X445718D01*
X445193D01*
Y247771D01*
X444668Y247246D01*
X447292Y244623D02*
X448342D01*
X447817D01*
Y247771D01*
X447292Y247246D01*
X420704Y146656D02*
X420180Y147181D01*
X419130D01*
X418605Y146656D01*
Y144557D01*
X419130Y144032D01*
X420180D01*
X420704Y144557D01*
X421754Y144032D02*
X422803D01*
X422278D01*
Y147181D01*
X421754Y146656D01*
X425952Y144032D02*
Y147181D01*
X424378Y145606D01*
X426477D01*
X275902Y153387D02*
X275377Y153911D01*
X274328D01*
X273803Y153387D01*
Y151288D01*
X274328Y150763D01*
X275377D01*
X275902Y151288D01*
X279051Y153911D02*
X276952D01*
Y152337D01*
X278001Y152862D01*
X278526D01*
X279051Y152337D01*
Y151288D01*
X278526Y150763D01*
X277476D01*
X276952Y151288D01*
X159957Y198263D02*
X160481Y198788D01*
Y199837D01*
X159957Y200362D01*
X157858D01*
X157333Y199837D01*
Y198788D01*
X157858Y198263D01*
X157333Y197213D02*
Y196164D01*
Y196688D01*
X160481D01*
X159957Y197213D01*
X157333Y194589D02*
Y193540D01*
Y194065D01*
X160481D01*
X159957Y194589D01*
X160481Y191966D02*
Y189867D01*
X159957D01*
X157858Y191966D01*
X157333D01*
X224425Y125527D02*
X224950Y126051D01*
Y127101D01*
X224425Y127626D01*
X222326D01*
X221801Y127101D01*
Y126051D01*
X222326Y125527D01*
X221801Y124477D02*
Y123427D01*
Y123952D01*
X224950D01*
X224425Y124477D01*
X221801Y121853D02*
Y120804D01*
Y121328D01*
X224950D01*
X224425Y121853D01*
X224950Y117130D02*
X224425Y118180D01*
X223376Y119229D01*
X222326D01*
X221801Y118705D01*
Y117655D01*
X222326Y117130D01*
X222851D01*
X223376Y117655D01*
Y119229D01*
X224130Y189995D02*
X224655Y190520D01*
Y191569D01*
X224130Y192094D01*
X222031D01*
X221506Y191569D01*
Y190520D01*
X222031Y189995D01*
X221506Y188946D02*
Y187896D01*
Y188421D01*
X224655D01*
X224130Y188946D01*
X221506Y186322D02*
Y185272D01*
Y185797D01*
X224655D01*
X224130Y186322D01*
X224655Y181599D02*
Y183698D01*
X223080D01*
X223605Y182648D01*
Y182124D01*
X223080Y181599D01*
X222031D01*
X221506Y182124D01*
Y183173D01*
X222031Y183698D01*
X87845Y214963D02*
X87320Y215488D01*
X86271D01*
X85746Y214963D01*
Y212864D01*
X86271Y212339D01*
X87320D01*
X87845Y212864D01*
X88895Y212339D02*
X89944D01*
X89419D01*
Y215488D01*
X88895Y214963D01*
X91518Y212339D02*
X92568D01*
X92043D01*
Y215488D01*
X91518Y214963D01*
X95717Y212339D02*
Y215488D01*
X94142Y213913D01*
X96241D01*
X114386Y226905D02*
X114910Y227429D01*
Y228479D01*
X114386Y229004D01*
X112287D01*
X111762Y228479D01*
Y227429D01*
X112287Y226905D01*
X111762Y225855D02*
Y224805D01*
Y225330D01*
X114910D01*
X114386Y225855D01*
X111762Y223231D02*
Y222182D01*
Y222706D01*
X114910D01*
X114386Y223231D01*
Y220607D02*
X114910Y220083D01*
Y219033D01*
X114386Y218508D01*
X113861D01*
X113336Y219033D01*
Y219558D01*
Y219033D01*
X112811Y218508D01*
X112287D01*
X111762Y219033D01*
Y220083D01*
X112287Y220607D01*
X155331Y213604D02*
X155855Y214129D01*
Y215179D01*
X155331Y215704D01*
X153232D01*
X152707Y215179D01*
Y214129D01*
X153232Y213604D01*
X152707Y212555D02*
Y211506D01*
Y212030D01*
X155855D01*
X155331Y212555D01*
X152707Y209931D02*
Y208882D01*
Y209406D01*
X155855D01*
X155331Y209931D01*
X152707Y205208D02*
Y207307D01*
X154806Y205208D01*
X155331D01*
X155855Y205733D01*
Y206783D01*
X155331Y207307D01*
X155134Y186124D02*
X155658Y186649D01*
Y187698D01*
X155134Y188223D01*
X153035D01*
X152510Y187698D01*
Y186649D01*
X153035Y186124D01*
X152510Y185074D02*
Y184025D01*
Y184550D01*
X155658D01*
X155134Y185074D01*
X152510Y182450D02*
Y181401D01*
Y181926D01*
X155658D01*
X155134Y182450D01*
X152510Y179827D02*
Y178777D01*
Y179302D01*
X155658D01*
X155134Y179827D01*
X159105Y167719D02*
X158580Y168244D01*
X157531D01*
X157006Y167719D01*
Y165620D01*
X157531Y165095D01*
X158580D01*
X159105Y165620D01*
X160154Y165095D02*
X161204D01*
X160679D01*
Y168244D01*
X160154Y167719D01*
X162778Y165095D02*
X163828D01*
X163303D01*
Y168244D01*
X162778Y167719D01*
X165402D02*
X165927Y168244D01*
X166976D01*
X167501Y167719D01*
Y165620D01*
X166976Y165095D01*
X165927D01*
X165402Y165620D01*
Y167719D01*
X131807Y197246D02*
X132332Y197770D01*
Y198820D01*
X131807Y199345D01*
X129708D01*
X129183Y198820D01*
Y197770D01*
X129708Y197246D01*
X129183Y196196D02*
Y195147D01*
Y195671D01*
X132332D01*
X131807Y196196D01*
Y193572D02*
X132332Y193047D01*
Y191998D01*
X131807Y191473D01*
X129708D01*
X129183Y191998D01*
Y193047D01*
X129708Y193572D01*
X131807D01*
X129708Y190424D02*
X129183Y189899D01*
Y188849D01*
X129708Y188325D01*
X131807D01*
X132332Y188849D01*
Y189899D01*
X131807Y190424D01*
X131282D01*
X130757Y189899D01*
Y188325D01*
X145654Y167719D02*
X145129Y168244D01*
X144079D01*
X143554Y167719D01*
Y165620D01*
X144079Y165095D01*
X145129D01*
X145654Y165620D01*
X146703Y165095D02*
X147753D01*
X147228D01*
Y168244D01*
X146703Y167719D01*
X149327D02*
X149852Y168244D01*
X150901D01*
X151426Y167719D01*
Y165620D01*
X150901Y165095D01*
X149852D01*
X149327Y165620D01*
Y167719D01*
X152476D02*
X153000Y168244D01*
X154050D01*
X154575Y167719D01*
Y167194D01*
X154050Y166669D01*
X154575Y166145D01*
Y165620D01*
X154050Y165095D01*
X153000D01*
X152476Y165620D01*
Y166145D01*
X153000Y166669D01*
X152476Y167194D01*
Y167719D01*
X153000Y166669D02*
X154050D01*
X130201Y91439D02*
X129676Y91964D01*
X128627D01*
X128102Y91439D01*
Y89340D01*
X128627Y88815D01*
X129676D01*
X130201Y89340D01*
X131250Y88815D02*
X132300D01*
X131775D01*
Y91964D01*
X131250Y91439D01*
X133874D02*
X134399Y91964D01*
X135449D01*
X135973Y91439D01*
Y89340D01*
X135449Y88815D01*
X134399D01*
X133874Y89340D01*
Y91439D01*
X137023Y91964D02*
X139122D01*
Y91439D01*
X137023Y89340D01*
Y88815D01*
X167732Y149116D02*
X168257Y149641D01*
Y150690D01*
X167732Y151215D01*
X165633D01*
X165108Y150690D01*
Y149641D01*
X165633Y149116D01*
X165108Y148066D02*
Y147017D01*
Y147541D01*
X168257D01*
X167732Y148066D01*
Y145442D02*
X168257Y144918D01*
Y143868D01*
X167732Y143343D01*
X165633D01*
X165108Y143868D01*
Y144918D01*
X165633Y145442D01*
X167732D01*
X168257Y140195D02*
X167732Y141244D01*
X166683Y142294D01*
X165633D01*
X165108Y141769D01*
Y140719D01*
X165633Y140195D01*
X166158D01*
X166683Y140719D01*
Y142294D01*
X85350Y137994D02*
X85875Y138519D01*
Y139568D01*
X85350Y140093D01*
X83251D01*
X82726Y139568D01*
Y138519D01*
X83251Y137994D01*
X82726Y136944D02*
Y135895D01*
Y136419D01*
X85875D01*
X85350Y136944D01*
Y134320D02*
X85875Y133796D01*
Y132746D01*
X85350Y132221D01*
X83251D01*
X82726Y132746D01*
Y133796D01*
X83251Y134320D01*
X85350D01*
X85875Y129073D02*
Y131172D01*
X84301D01*
X84825Y130122D01*
Y129597D01*
X84301Y129073D01*
X83251D01*
X82726Y129597D01*
Y130647D01*
X83251Y131172D01*
X86433Y112698D02*
X86958Y113223D01*
Y114273D01*
X86433Y114797D01*
X84334D01*
X83809Y114273D01*
Y113223D01*
X84334Y112698D01*
X83809Y111649D02*
Y110599D01*
Y111124D01*
X86958D01*
X86433Y111649D01*
Y109025D02*
X86958Y108500D01*
Y107451D01*
X86433Y106926D01*
X84334D01*
X83809Y107451D01*
Y108500D01*
X84334Y109025D01*
X86433D01*
X83809Y104302D02*
X86958D01*
X85383Y105877D01*
Y103777D01*
X87024Y156891D02*
X87548Y157416D01*
Y158466D01*
X87024Y158990D01*
X84925D01*
X84400Y158466D01*
Y157416D01*
X84925Y156891D01*
X84400Y155842D02*
Y154792D01*
Y155317D01*
X87548D01*
X87024Y155842D01*
Y153218D02*
X87548Y152693D01*
Y151644D01*
X87024Y151119D01*
X84925D01*
X84400Y151644D01*
Y152693D01*
X84925Y153218D01*
X87024D01*
Y150069D02*
X87548Y149545D01*
Y148495D01*
X87024Y147970D01*
X86499D01*
X85974Y148495D01*
Y149020D01*
Y148495D01*
X85449Y147970D01*
X84925D01*
X84400Y148495D01*
Y149545D01*
X84925Y150069D01*
X87713Y175592D02*
X88237Y176117D01*
Y177166D01*
X87713Y177691D01*
X85613D01*
X85089Y177166D01*
Y176117D01*
X85613Y175592D01*
X85089Y174543D02*
Y173493D01*
Y174018D01*
X88237D01*
X87713Y174543D01*
Y171919D02*
X88237Y171394D01*
Y170344D01*
X87713Y169820D01*
X85613D01*
X85089Y170344D01*
Y171394D01*
X85613Y171919D01*
X87713D01*
X85089Y166671D02*
Y168770D01*
X87188Y166671D01*
X87713D01*
X88237Y167196D01*
Y168245D01*
X87713Y168770D01*
X116256Y175067D02*
X116781Y175592D01*
Y176642D01*
X116256Y177166D01*
X114157D01*
X113632Y176642D01*
Y175592D01*
X114157Y175067D01*
X113632Y174018D02*
Y172968D01*
Y173493D01*
X116781D01*
X116256Y174018D01*
Y171394D02*
X116781Y170869D01*
Y169820D01*
X116256Y169295D01*
X114157D01*
X113632Y169820D01*
Y170869D01*
X114157Y171394D01*
X116256D01*
X113632Y168245D02*
Y167196D01*
Y167721D01*
X116781D01*
X116256Y168245D01*
X88303Y193210D02*
X88828Y193735D01*
Y194784D01*
X88303Y195309D01*
X86204D01*
X85679Y194784D01*
Y193735D01*
X86204Y193210D01*
X85679Y192161D02*
Y191111D01*
Y191636D01*
X88828D01*
X88303Y192161D01*
Y189537D02*
X88828Y189012D01*
Y187963D01*
X88303Y187438D01*
X86204D01*
X85679Y187963D01*
Y189012D01*
X86204Y189537D01*
X88303D01*
Y186388D02*
X88828Y185863D01*
Y184814D01*
X88303Y184289D01*
X86204D01*
X85679Y184814D01*
Y185863D01*
X86204Y186388D01*
X88303D01*
X253657Y229366D02*
X254182Y229891D01*
Y230941D01*
X253657Y231465D01*
X251558D01*
X251034Y230941D01*
Y229891D01*
X251558Y229366D01*
X251034Y228317D02*
Y227267D01*
Y227792D01*
X254182D01*
X253657Y228317D01*
X164907Y91439D02*
Y88291D01*
X166481D01*
X167006Y88815D01*
Y89340D01*
X166481Y89865D01*
X164907D01*
X166481D01*
X167006Y90390D01*
Y90914D01*
X166481Y91439D01*
X164907D01*
X168055D02*
Y90914D01*
X169105Y89865D01*
X170154Y90914D01*
Y91439D01*
X169105Y89865D02*
Y88291D01*
X171204D02*
Y91439D01*
X172778D01*
X173303Y90914D01*
Y89865D01*
X172778Y89340D01*
X171204D01*
X174352Y87766D02*
X176451D01*
X177501Y91439D02*
Y88291D01*
X179075D01*
X179600Y88815D01*
Y89340D01*
X179075Y89865D01*
X177501D01*
X179075D01*
X179600Y90390D01*
Y90914D01*
X179075Y91439D01*
X177501D01*
X180649Y88291D02*
Y91439D01*
X182224D01*
X182749Y90914D01*
Y89865D01*
X182224Y89340D01*
X180649D01*
X181699D02*
X182749Y88291D01*
X183798Y91439D02*
X184848D01*
X184323D01*
Y88291D01*
X183798D01*
X184848D01*
X188521Y90914D02*
X187996Y91439D01*
X186947D01*
X186422Y90914D01*
Y88815D01*
X186947Y88291D01*
X187996D01*
X188521Y88815D01*
Y89865D01*
X187471D01*
X189570Y91439D02*
Y88291D01*
Y89865D01*
X191670D01*
Y91439D01*
Y88291D01*
X192719Y91439D02*
X194818D01*
X193769D01*
Y88291D01*
D72*
X293234Y222181D02*
D03*
D73*
X470915Y260321D02*
D03*
D74*
X189315Y203284D02*
D03*
M02*
