M48
;Layer_Color=9474304
;FILE_FORMAT=2:4
INCH,TZ
;TYPE=PLATED
T1F00S00C0.0138
T2F00S00C0.0197
T3F00S00C0.0276
T4F00S00C0.0354
T5F00S00C0.0394
T6F00S00C0.0400
T7F00S00C0.0433
T8F00S00C0.0551
T9F00S00C0.0600
T10F00S00C0.0635
;TYPE=NON_PLATED
T11F00S00C0.0197
T12F00S00C0.0472
T13F00S00C0.1181
%
T01
X7485Y5761
Y8312
Y10691
X8548Y11362
X9630Y10694
X11068
Y11194
X11058Y13194
Y14694
X13252
Y14194
X12599Y15523
X13262Y11694
X14660
X14777Y12194
Y12694
Y13194
X15595Y13446
X15428Y11657
X14818Y10948
X14818Y10446
X15428Y9223
Y7939
X15300Y5761
X12800
X10300
X10103Y7307
X9938Y9207
X11845Y9511
X12091Y7927
X8962Y13084
X7485Y13312
X15940Y11657
X16786Y11509
X17095Y12307
X18445
X19611Y11539
X21255Y12169
X20861Y13212
X21774Y13813
X22682Y13212
X22259Y11539
X23893Y10446
X23666Y9846
X23784Y8734
X24700Y8788
X25123Y9216
X25252Y10194
X25241Y10694
Y11196
X25184Y11943
X25812Y11460
X26058Y10250
X26678
X26993Y10929
X27440Y11196
Y11746
X27938Y11480
X27938Y10939
X28548
X28637Y11480
X28784Y12021
X28469Y12396
X27967Y12464
X27377Y12586
X26944Y12238
X28125Y13035
X28312Y13557
X29050Y13803
X29582Y13303
X30086Y13555
X30103Y12769
X30359Y12238
X29838Y12220
X29316
X28952Y10555
X27440Y10624
X27269Y9181
X26735Y9187
X26313Y8754
X25901Y8326
X25523Y7971
X25300Y7307
Y5761
X27800
X28548Y7307
X29414
X30438
X30300Y5761
X30757Y9268
X30750Y10272
X29286Y8788
X27564Y8734
X27981Y8135
X24296Y7971
X22800Y7307
Y5761
X20300
X17800
Y7307
X18847Y7971
X17806Y9231
X20405Y9233
X22806Y9236
X21896Y7971
X18992Y13941
X17534Y14226
X17528Y14787
X16826Y14561
X16314Y15523
X19788Y15545
X25773Y14885
X26148Y14472
X26623Y14268
X26777Y15496
X25661Y13486
X30759Y14268
X31403
X32023Y14521
X32475Y14157
X32543Y13303
X33013Y13557
X33451Y13803
Y12868
X33403Y12213
X33883Y12437
X34067Y11874
X32938Y11214
X32672Y10643
X31688Y10673
X32102Y12533
X35418Y12483
X36284Y12375
X35864Y11765
X35956Y13303
X35418Y13803
X34234Y14113
X36930Y13413
X37496Y12299
X38633Y12063
X40320Y11785
X40162Y12582
Y13153
X39772Y14069
X40927Y13939
X41019Y15338
X42170Y14679
X42997Y14088
X42101Y13320
X43036Y12437
X42137Y11158
X42918Y10092
X44224Y10095
X44769Y10092
X45359
X45918
X46576Y10085
X45871Y9009
X44342Y8992
X45056Y7934
X46589Y7936
X43318Y7934
X42616Y7948
X42800Y5761
X45300
X40300
Y8221
X40507Y9029
X40871Y9511
X41412Y9974
X39498Y10663
X38323Y9917
X36667Y10272
X35300Y8222
X35300Y7324
Y5761
X37800
X32800
X31895Y7307
X34231Y9149
X36373Y15387
X38597Y15446
X44814Y14032
X45710Y12496
X44946Y11096
X44523Y10732
X47603Y12572
Y13596
X48233Y14344
X49217Y14344
X50576Y13261
Y10761
Y8261
Y5761
X47800
X47413Y7936
X48873Y16779
X48728Y19287
X47355Y19078
X46918Y19718
X47151Y23143
X48740Y23874
X48747Y25713
X50576Y25761
Y28261
X50556Y30565
X47800
Y28261
X48734Y21896
X50582Y20971
X50576Y23261
Y18261
Y15761
X46786Y16381
X46383Y16765
X45969Y17149
X45123Y17297
X44316Y17080
X43893Y16726
X43460Y16381
X42987Y16076
X42913Y18419
X42918Y19738
X43912Y19787
X43751Y20404
X44418Y20200
X44303Y20803
X44918Y20604
X45418
X45918Y20200
X46418Y19787
X46639Y20663
X46076Y21124
X44932Y21512
X42501Y22223
X42127Y24386
X42564Y25309
X42003Y26706
X40720Y27142
X40556Y24964
X39051Y23402
X37042Y23271
X37413Y22378
X37101Y21440
X37210Y20771
X37682Y18941
Y18124
X38550Y18486
X39700Y17976
X40203Y18468
X40811Y17533
X41925Y17890
X45162Y18419
X46710Y18362
X40848Y20806
X33889Y20882
X32925
X31353Y20880
X31501Y22218
X31973Y19951
X31353Y19029
X31431Y15990
X33925Y15992
X35527Y16244
X35979Y15732
X36275Y17228
X33919Y18047
X35182Y22220
X36356Y24219
X36895Y25368
X37409Y27144
X37800Y30565
X40300
X42800Y30615
X45300Y30565
X44696Y27821
X43873Y27277
X42643Y28006
X46434Y27504
X46354Y26354
X44926Y25151
X33686Y27484
X32800Y30565
X35300
X29985
X25340
X25399Y28399
X22800
Y30565
X20300
Y28399
X17800
Y30565
X17452Y25880
Y23778
X16377Y23776
X15871Y23685
X15758Y23192
X16196Y24935
X18948Y25252
X21017Y23754
X21383Y23183
X20635
X21017Y22612
Y21220
X21412Y20624
X21481Y19895
X20556Y19900
X20615Y20624
X19582Y20328
X18686
X17032Y20269
X16540Y19137
Y18261
Y17769
X17840Y17661
X18765Y17730
X19675Y17139
Y18330
X20586Y17730
X19158Y16047
X18164Y16027
X17534Y15929
X15714Y15791
X17458Y21689
X22436Y21391
X24421Y20685
X23903Y20063
X23273Y19324
X26196Y19069
X27023Y20269
X27938Y20978
X27938Y19558
Y18675
X28391Y17966
X27485
X27938Y17257
X28893Y16470
X30060Y16326
X28322Y15693
X25290Y16486
X24296Y16539
X24030Y15988
X25854Y21618
Y22819
X26767Y22218
X28853Y20269
X29680Y19069
X30743Y19951
X30743Y21588
X30743Y22848
X22052Y26588
X15300Y28399
Y30565
X12800
X12794Y28399
X12800Y25880
X13398Y24917
X13404Y23520
X14631
X14224Y22695
X14230Y21787
X15602Y21790
X15330Y22693
X12997Y22695
X11777
X10694Y22553
X11294Y23891
X11944Y24492
X12599Y21356
X13214Y21401
X12599Y19856
X12428Y17952
X13515Y18534
X13538Y16637
X12908Y15958
X11160Y16463
X8637Y16114
X7485Y15761
Y18261
X9769Y18232
X10240Y18694
X10547Y20139
X9769
X7485Y20761
Y23261
Y25761
Y28261
Y30565
X10300
X9257Y17504
X15359Y19246
X14867Y20299
X15300Y33261
X12800
X10300
X17800
X20300
X22800
X25340Y32741
X29946Y32713
X32800Y33261
X35300
X37800
X40300
X42800
X45300
X47800
T02
X9601Y8025
X8871Y9518
X12465Y9659
X14818Y14009
X8834Y13694
X18479Y13586
X19788Y14084
X22426Y14885
X25113Y12553
X27371Y7917
X28725Y8773
X17986Y8324
X18986Y7324
X17986Y6324
X17825Y12297
X32850Y12464
X33524Y10798
X35418Y11299
X37623Y11799
X36658Y8324
X37658Y7324
X36658Y6324
X44704Y12437
X45704Y13437
X46704Y12437
X44178Y14561
X48883Y15348
X49883Y16348
X47883
X46166Y18074
X40134Y19078
X40963Y25309
X43152Y25151
X43867Y24561
X38666Y27504
X28932Y15761
X21660Y16788
X19133Y19895
X15428Y19856
X13538Y20356
X12672
X12918Y16507
T03
X42111Y6356
Y7356
Y8356
X44080
Y7356
Y6356
X46048
Y7356
Y8356
X48017
Y7356
Y6356
X48198Y20446
X49198
X50198
X50198Y22415
X49198
X48198
X48198Y24383
X49198
X50198
X50198Y26352
X49198
X48198
X40060Y26352
X39060
X38060
X38044Y24383
X39044
X40044
X40060Y22415
X39060
X38060
X38060Y20446
X39060
X40060
T04
X8609Y6509
X9609
X10609
X11609
X12609
X23847Y6500
X24847
X25981Y6500
X26981
X27981
X28981
X29981
X30981
T05
X35221Y18458
Y19443
Y20427
X33253Y24305
X32269
X31284
X27840Y23084
X24080Y22395
X23095
X22111
Y24305
X23095
X24080
X25556Y17966
X30399Y17966
X14887Y24305
X13903
X12918
T06
X14505Y6943
X15505
X20477
X21477
X33194Y6933
X34194
X39121
X40121
X28154Y24777
X27154
T07
X46914Y22415
Y24383
X41206
Y23399
Y22415
T08
X36698Y26450
Y28950
X30308
Y26450
X24977
Y28950
X18588
X16664
Y26450
X18588
X10275
Y28950
Y31450
X16664
X18588
X24977
X30308
X36698
T09
X39906Y29009
X41028Y28694
X42151Y29009
X44237
X45359Y28694
X46481Y29009
T10
X39729Y32159
X42328
X44060
X46658
T11
X10610Y5325
X11004
X11398
X11791
X12185
X7047Y8898
Y9291
Y9685
Y10079
Y10472
X28228Y5325
X28622
X29016
X29409
X29803
X45866
X46260
X46654
X47047
X47441
X50994Y8898
Y9291
Y9685
Y10079
Y10472
Y25866
Y26260
Y26654
Y27047
Y27441
X7047
Y27047
Y26654
Y26260
Y25866
X16024Y33760
X16417
X16811
X17205
X17598
X39094
X39488
X39882
X40276
X40669
T12
X41028Y29994
X45359
Y32750
X41028
T13
X1181Y1181
X57874
X1181Y38189
X57874Y38189
M30
