M48
;Layer_Color=9474304
;FILE_FORMAT=2:5
INCH,TZ
;TYPE=PLATED
T1F00S00C0.01378
T2F00S00C0.01968
T3F00S00C0.01969
T4F00S00C0.02756
T5F00S00C0.03543
T6F00S00C0.03937
T7F00S00C0.04000
T8F00S00C0.04331
T9F00S00C0.05512
T10F00S00C0.05997
T11F00S00C0.06348
;TYPE=NON_PLATED
T12F00S00C0.01968
T13F00S00C0.04724
T14F00S00C0.11811
%
T01
X74852Y57614
Y83119
Y106913
X85482Y113618
X96301Y106945
X110679
Y111945
X110580Y131945
Y146945
X132519
Y141945
X125987Y155234
X132618Y116945
X146604
X147765Y121945
Y126945
Y131945
X155954Y134465
X154281Y116571
X148179Y109484
X148179Y104465
X118450Y95114
X120911Y79268
X101033Y73067
X103001Y57614
X128001
X153001
X89616Y130843
X74852Y133119
X159399Y116571
X167864Y115094
X170950Y123067
X184451
X196112Y115390
X212549Y121689
X208612Y132122
X217737Y138126
X226820Y132122
X222588Y115390
X238927Y104465
X236663Y98461
X237844Y87339
X246998Y87880
X251230Y92162
X252515Y101945
X252411Y106945
Y111965
X251840Y119425
X258120Y114602
X260580Y102496
X266781
X269931Y109287
X274400Y111965
Y117457
X279380Y114799
X279380Y109386
X285482
X286368Y114799
X287844Y120213
X284695Y123959
X279675Y124642
X273769Y125862
X269439Y122378
X281250Y130350
X283120Y135567
X290502Y138028
X295817Y133034
X300864Y135553
X301033Y127688
X303592Y122378
X298376Y122201
X293159
X289517Y105547
X274400Y106236
X272687Y91807
X267352Y91866
X263135Y87536
X259014Y83264
X255230Y79709
X253001Y73067
Y57614
X278001
X285482Y73067
X294143
X304380
X303001Y57614
X307567Y92677
X307504Y102717
X292864Y87880
X275639Y87339
X279813Y81354
X242962Y79709
X228001Y73067
Y57614
X203001
X178001
Y73067
X188472Y79709
X178065Y92308
X204049Y92331
X228065Y92355
X218961Y79709
X189922Y139412
X175340Y142260
X175281Y147870
X168257Y145606
X162647Y155234
X197883Y155449
X257726Y148854
X261479Y144720
X266234Y142677
X267765Y154957
X256608Y134864
X307592Y142677
X314025
X320226Y145213
X324753Y141571
X325427Y133034
X330128Y135567
X334505Y138028
Y128677
X334029Y122131
X338828Y124366
X340674Y118736
X329380Y112142
X326722Y106433
X316880Y106728
X321024Y125331
X354179Y124833
X362844Y123754
X358641Y117654
X359561Y133034
X354179Y138028
X342336Y141127
X369305Y134132
X374958Y122988
X386332Y120630
X403198Y117846
X401624Y125823
Y131532
X397717Y140685
X409265Y139390
X410187Y153382
X421702Y146787
X429970Y140882
X421013Y133205
X430364Y124366
X421372Y111575
X429183Y100921
X442238Y100945
X447687Y100921
X453592
X459183
X465758Y100847
X458710Y90095
X443419Y89921
X450564Y79339
X465892Y79363
X433183Y79339
X426159Y79484
X428002Y57614
X453002
X403001
Y82212
X405068Y90291
X408710Y95114
X414124Y99740
X394979Y106630
X383231Y99173
X366666Y102717
X353002Y82216
X353001Y73239
Y57614
X378001
X328001
X318946Y73067
X342312Y91489
X363730Y153874
X385974Y154465
X448143Y140315
X457100Y124961
X449458Y110961
X445226Y107319
X476033Y125724
Y135961
X482332Y143441
X492175Y143441
X505757Y132614
Y107614
Y82614
Y57614
X478002
X474128Y79363
X488730Y167791
X487277Y192874
X473553Y190784
X469183Y197181
X471505Y231433
X487403Y238740
X487467Y257135
X505757Y257614
Y282614
X505561Y305646
X478002
Y282614
X487340Y218956
X505821Y209706
X505757Y232614
Y182614
Y157614
X467864Y163815
X463828Y167654
X459694Y171492
X451230Y172968
X443159Y170803
X438927Y167260
X434596Y163815
X429872Y160764
X429128Y184189
X429183Y197378
X439124Y197870
X437513Y204037
X444183Y202004
X443025Y208032
X449183Y206039
X454183
X459183Y202004
X464183Y197870
X466387Y206630
X460764Y211245
X449325Y215118
X425013Y222229
X421273Y243859
X425639Y253087
X420029Y267063
X407198Y271418
X405561Y249642
X390506Y234016
X370423Y232713
X374128Y223780
X371009Y214404
X372096Y207713
X376820Y189406
Y181236
X385496Y184864
X396998Y179760
X402032Y184681
X408113Y175331
X419246Y178898
X451624Y184189
X467100Y183622
X408478Y208056
X338891Y208819
X329246
X313533Y208795
X315009Y222181
X319734Y199515
X313533Y190291
X314313Y159897
X339250Y159921
X355265Y162437
X359793Y157319
X362746Y172280
X339187Y180473
X351824Y222205
X363561Y242185
X368946Y253677
X374092Y271442
X378001Y305646
X403001
X428002Y306150
X453002Y305646
X446962Y278209
X438730Y272772
X426427Y280055
X464344Y275036
X463537Y263544
X449261Y251512
X336860Y274839
X328001Y305646
X353001
X299852
X253395
X253986Y283992
X228001
Y305646
X203001
Y283992
X178001
Y305646
X174521Y258795
Y237780
X163773Y237757
X158710Y236846
X157578Y231920
X161958Y249346
X189482Y252520
X210167Y237536
X213828Y231827
X206348
X210167Y226118
Y212201
X214124Y206236
X214813Y198953
X205561Y198999
X206151Y206236
X195817Y203284
X186860
X170324Y202693
X165403Y191374
Y182614
Y177693
X178395Y176610
X187647Y177299
X196746Y171394
Y183303
X205856Y177299
X191584Y160469
X181643Y160272
X175340Y159287
X157135Y157910
X174584Y216890
X224360Y213913
X244206Y206851
X239025Y200626
X232726Y193244
X261958Y190685
X270226Y202693
X279380Y209780
X279380Y195578
Y186748
X283907Y179662
X274852
X279380Y172575
X288927Y164701
X300604Y163260
X283218Y156925
X252903Y164860
X242962Y165390
X240305Y159878
X258542Y216177
Y228185
X267667Y222181
X288533Y202693
X296801Y190685
X307431Y199515
X307431Y215882
X307431Y228480
X220521Y265882
X153001Y283992
Y305646
X128001
X127936Y283992
X128001Y258795
X133976Y249174
X134039Y235197
X146309
X142238Y226953
X142301Y217874
X156017Y217898
X153296Y226929
X129970Y226953
X117765
X106939Y225528
X112943Y238913
X119439Y244917
X125987Y213559
X132135Y214012
X125987Y198559
X124282Y179521
X135154Y185342
X135383Y166374
X129084Y159583
X111600Y164630
X87057Y160843
X74852Y157614
Y182614
X97687Y182319
X102403Y186945
X105475Y201394
X97687
X74852Y207614
Y232614
Y257614
Y282614
Y305646
X103001
X92568Y175035
X153592Y192457
X148671Y202988
X153001Y332614
X128001
X103001
X178001
X203001
X228001
X253395Y327410
X299458Y327128
X328001Y332614
X353001
X378001
X403001
X428002
X453002
X478002
T02
X105935Y80154
X111860Y101945
X124651Y96591
X148179Y140094
X88336Y136945
X184793Y135862
X197883Y140842
X224261Y148854
X251132Y125528
X273710Y79169
X287253Y87732
X178251Y122969
X328501Y124642
X335236Y107983
X354179Y112988
X376226Y117988
X441781Y145606
X461663Y180744
X401343Y190784
X409634Y253087
X431524Y251512
X438670Y245606
X386663Y275036
X289320Y157614
X216599Y167880
X191332Y198953
X154281Y198559
X135383Y203559
X126722
X129183Y165075
T03
X179862Y63239
Y83239
X189862Y73239
X366584Y83239
X376584Y73239
X366584Y63239
X447037Y124366
X457037Y134366
X467037Y124366
X488828Y153480
X498828Y163480
X478828
T04
X421112Y63559
Y73559
Y83559
X440797
Y73559
Y63559
X460482
Y73559
Y83559
X480167
Y73559
Y63559
X481978Y204465
X491978
X501978
X501978Y224150
X491978
X481978
X481978Y243835
X491978
X501978
X501978Y263520
X491978
X481978
X400600Y263520
X390600
X380600
X380443Y243835
X390442
X400443
X400600Y224150
X390600
X380600
X380600Y204465
X390600
X400600
T05
X95935Y65095
X105935
X115935
X125935
X238474Y64996
X248474
X259813Y64996
X269813
X279813
X289813
X299813
X309813
T06
X352214Y184583
Y194425
Y204268
X332529Y243047
X322687
X312844
X278395Y230843
X240797Y223953
X230954
X221112
Y243047
X230954
X240797
X255561Y179661
X303986Y179661
X148868Y243047
X139025
X129183
T07
X145049Y69425
X155049
X204773
X214773
X331939Y69327
X341938
X391210
X401210
X281545Y247772
X271545
T08
X469143Y224150
Y243835
X412057
Y233992
Y224150
T09
X366978Y264504
Y289504
X303080
Y264504
X249774
Y289504
X185876
X166644
Y264504
X185876
X102745
Y289504
Y314504
X166644
X185876
X249774
X303080
X366978
T10
X399065Y290094
X410285Y286945
X421505Y290094
X442372
X453592Y286945
X464813Y290094
T11
X397293Y321591
X423277
X440600
X466584
T12
X106102Y53248
X110039
X113977
X117914
X121851
X70472Y88976
Y92914
Y96851
Y100788
Y104725
X282283Y53248
X286220
X290157
X294094
X298031
X458661
X462598
X466535
X470472
X474409
X509941Y88976
Y92914
Y96851
Y100788
Y104725
Y258661
Y262598
Y266536
Y270473
Y274410
X70472
Y270473
Y266536
Y262598
Y258661
X160236Y337598
X164173
X168110
X172047
X175984
X390945
X394882
X398819
X402756
X406693
T13
X410285Y299937
X453592
Y327496
X410285
T14
X11811Y11811
X578740
X11811Y381890
X578740Y381890
M30
