M48
;Layer_Color=9474304
;FILE_FORMAT=2:5
INCH,TZ
;TYPE=PLATED
T1F00S00C0.01575
T2F00S00C0.01800
T3F00S00C0.01969
T4F00S00C0.02362
T5F00S00C0.02756
T6F00S00C0.03150
T7F00S00C0.03200
T8F00S00C0.03543
T9F00S00C0.04000
T10F00S00C0.04331
T11F00S00C0.05512
T12F00S00C0.09843
%
T01
X77500Y32000
X87500
Y62000
X77500
X77000Y116000
X97000
X119712
X129712
X139712Y116050
Y146050
X129712Y146000
X119712
X129712Y158000
Y168000
X107000Y159000
X97000Y146000
X77000
Y159000
X66982
X57000
X44000
X34000
X23000
X13000
X24000Y106000
Y96000
X54000
Y106000
X44000Y189000
X34000
X23000
X13000
X57000
X66982
X148000Y210000
X158000
T02
X4200Y4500
X29100
X54000
X78900
X103800
X128700
X178500
X203400
X228300
Y29400
Y54300
Y79200
Y104100
Y129000
Y153900
Y178800
X203400
X178500
X153600
X142000Y174500
X123000
X111604
X89306Y178800
X78900
X72000Y163500
X69000Y153069
X59000Y140500
Y131500
X59889Y111500
Y100500
X84910
Y111500
X107162Y111000
X107000Y100500
X115167
Y79262
X103800Y79200
Y54300
X114000Y59646
X120000Y65500
X78900Y54300
X103800Y29400
X153600
X178500
Y54300
X203400
Y29400
Y79200
Y104100
Y129000
Y153900
X178500
X153600
X142500
Y128883
X153600Y129000
X178500
Y104100
Y79200
X153600Y104100
X142500
X128700Y129000
X115000Y128883
X103800Y129000
X103811Y141000
X115000
X92100Y141500
Y150493
X103800Y153900
X78900Y129000
X31410
X36000Y116050
X43174Y104100
X54000Y79200
X29100
X4200
Y104100
Y129000
Y153900
Y178800
X29100
X44634
X54000
Y165306
X44634Y165500
X54000Y153900
X40500Y145784
X28404Y156263
X19000Y140500
X29100Y54300
Y29400
X4200
Y54300
X54000
X39000Y197371
X28404
Y209600
X45500Y212000
X55000
Y228600
X44634
X37189Y223000
X29100Y228600
Y253500
X4200
Y278400
Y303300
Y328200
X29100
Y303300
X54000
Y278400
X54009Y257000
Y247881
X29100Y278400
X4200Y228600
Y203700
X54000Y328200
X78900
Y303300
Y278400
X77400Y257000
Y248059
X88066Y244000
Y235000
X97500
Y244000
X108028Y255000
X110000Y264000
X119500
X138500
X142500Y253500
X153600
Y265000
Y278400
Y303300
X178500
X203400
Y278400
X178500
X203400Y253500
Y228600
Y203700
X178500
X153600
X142000
X128700
X105500Y203799
X105000Y187407
X123000Y184000
X142000
X141399Y231000
X154500
X128700Y253500
X122919Y281000
X116500Y288000
X103800Y278400
Y303300
Y328200
X153600
X178500
X203400
X101500Y225400
X78900Y228600
X70500
X77000Y197000
X84000Y203271
X91102Y197000
X228300Y203700
Y228600
Y253500
Y278400
Y303300
Y328200
X203400Y353100
X178500
X153600
X128700
X103800
X78900
X54000
X29100
T03
X44500Y14762
X54500Y24762
X64500Y14762
X72500Y76500
X82500
X92500
X126000Y77620
Y87620
X129732Y98000
Y108000
X138500Y77500
X148500
X158500
X154000Y62000
Y52000
X107000Y169000
Y179000
X44000Y204500
X34000
X57000
X67000
X84000Y210000
X104000
X114000
X124000
X134000
T04
X137500Y42000
Y62000
X87000Y126000
Y146000
X64000
Y126000
X77000Y169000
X91000
X13000Y146000
Y126000
X77000Y189000
X91000
X114000Y225000
X134000
T05
X148000Y231000
X176000
T06
X9811Y204374
Y214216
Y224059
X22410
Y214216
Y204374
X84000Y219366
Y239366
Y249366
Y259366
X104000
Y249366
Y239366
Y219366
T07
X97500Y32000
Y42000
Y52000
Y62000
X127500
Y52000
Y42000
Y32000
X54000Y116000
Y126000
Y136000
Y146000
X24000
Y136000
Y126000
Y116000
X115000Y239500
X125000
Y269500
X115000
T08
X153000Y8000
Y18000
T09
X87500Y10500
X97500
X119000
X129000
T10
X23500Y243500
X43500
X63500
X169000
X189000
X209000
T11
X29692Y290100
Y315100
X93590
Y290100
X138911
Y315100
X202809
Y290100
Y340100
X138911
X93590
X29692
T12
X116250Y306278
Y329900
M30
