G04*
G04 #@! TF.GenerationSoftware,Altium Limited,Altium Designer,19.0.12 (326)*
G04*
G04 Layer_Physical_Order=2*
G04 Layer_Color=16711680*
%FSLAX25Y25*%
%MOIN*%
G70*
G01*
G75*
%ADD11C,0.01000*%
%ADD37C,0.03200*%
%ADD38C,0.04724*%
%ADD39R,0.04724X0.04724*%
%ADD40R,0.04724X0.04724*%
%ADD41C,0.04331*%
%ADD42C,0.05118*%
%ADD43C,0.05000*%
%ADD44C,0.06299*%
%ADD45C,0.05512*%
%ADD46R,0.05512X0.05512*%
%ADD47R,0.07087X0.07087*%
%ADD48C,0.07087*%
%ADD49C,0.14765*%
%ADD50C,0.06600*%
%ADD51R,0.06600X0.06600*%
%ADD52C,0.06000*%
%ADD53C,0.08268*%
%ADD54C,0.04725*%
%ADD55R,0.04331X0.04331*%
%ADD56R,0.04331X0.04331*%
%ADD57C,0.03000*%
G36*
X207936Y341923D02*
X207436Y341823D01*
X207119Y342588D01*
X206328Y343619D01*
X205297Y344410D01*
X204097Y344907D01*
X202809Y345077D01*
X201521Y344907D01*
X200321Y344410D01*
X199290Y343619D01*
X198499Y342588D01*
X198002Y341388D01*
X197832Y340100D01*
X198002Y338812D01*
X198499Y337612D01*
X199290Y336581D01*
X200321Y335790D01*
X201521Y335293D01*
X202809Y335123D01*
X204097Y335293D01*
X205297Y335790D01*
X206328Y336581D01*
X207119Y337612D01*
X207436Y338377D01*
X207936Y338277D01*
Y333000D01*
X208052Y332415D01*
X208384Y331919D01*
X208880Y331587D01*
X209465Y331471D01*
X230971D01*
Y1529D01*
X1529D01*
Y331471D01*
X23030D01*
X23615Y331587D01*
X24111Y331919D01*
X24443Y332415D01*
X24559Y333000D01*
Y338987D01*
X25059Y339020D01*
X25080Y338864D01*
X25557Y337713D01*
X26316Y336724D01*
X27305Y335965D01*
X28456Y335488D01*
X29292Y335378D01*
Y340100D01*
Y344822D01*
X28456Y344712D01*
X27305Y344235D01*
X26316Y343476D01*
X25557Y342487D01*
X25080Y341336D01*
X25059Y341180D01*
X24559Y341213D01*
Y358971D01*
X207936D01*
Y341923D01*
D02*
G37*
%LPC*%
G36*
X139311Y344822D02*
Y340500D01*
X143633D01*
X143523Y341336D01*
X143046Y342487D01*
X142287Y343476D01*
X141298Y344235D01*
X140147Y344712D01*
X139311Y344822D01*
D02*
G37*
G36*
X30092D02*
Y340500D01*
X34414D01*
X34304Y341336D01*
X33827Y342487D01*
X33068Y343476D01*
X32079Y344235D01*
X30928Y344712D01*
X30092Y344822D01*
D02*
G37*
G36*
X138511D02*
X137675Y344712D01*
X136524Y344235D01*
X135535Y343476D01*
X134776Y342487D01*
X134299Y341336D01*
X134189Y340500D01*
X138511D01*
Y344822D01*
D02*
G37*
G36*
X143633Y339700D02*
X139311D01*
Y335378D01*
X140147Y335488D01*
X141298Y335965D01*
X142287Y336724D01*
X143046Y337713D01*
X143523Y338864D01*
X143633Y339700D01*
D02*
G37*
G36*
X34414D02*
X30092D01*
Y335378D01*
X30928Y335488D01*
X32079Y335965D01*
X33068Y336724D01*
X33827Y337713D01*
X34304Y338864D01*
X34414Y339700D01*
D02*
G37*
G36*
X138511D02*
X134189D01*
X134299Y338864D01*
X134776Y337713D01*
X135535Y336724D01*
X136524Y335965D01*
X137675Y335488D01*
X138511Y335378D01*
Y339700D01*
D02*
G37*
G36*
X93590Y345077D02*
X92302Y344907D01*
X91102Y344410D01*
X90071Y343619D01*
X89280Y342588D01*
X88783Y341388D01*
X88613Y340100D01*
X88783Y338812D01*
X89280Y337612D01*
X90071Y336581D01*
X91102Y335790D01*
X92302Y335293D01*
X93590Y335123D01*
X94878Y335293D01*
X96078Y335790D01*
X97109Y336581D01*
X97900Y337612D01*
X98397Y338812D01*
X98567Y340100D01*
X98397Y341388D01*
X97900Y342588D01*
X97109Y343619D01*
X96078Y344410D01*
X94878Y344907D01*
X93590Y345077D01*
D02*
G37*
G36*
X116250Y338122D02*
X114646Y337964D01*
X113104Y337496D01*
X111682Y336736D01*
X110436Y335714D01*
X109414Y334468D01*
X108654Y333046D01*
X108186Y331504D01*
X108028Y329900D01*
X108186Y328296D01*
X108654Y326754D01*
X109414Y325332D01*
X110436Y324086D01*
X111682Y323064D01*
X113104Y322304D01*
X114646Y321836D01*
X116250Y321678D01*
X117854Y321836D01*
X119396Y322304D01*
X120818Y323064D01*
X122064Y324086D01*
X123086Y325332D01*
X123846Y326754D01*
X124314Y328296D01*
X124472Y329900D01*
X124314Y331504D01*
X123846Y333046D01*
X123086Y334468D01*
X122064Y335714D01*
X120818Y336736D01*
X119396Y337496D01*
X117854Y337964D01*
X116250Y338122D01*
D02*
G37*
G36*
X202809Y320077D02*
X201521Y319907D01*
X200321Y319410D01*
X199290Y318619D01*
X198499Y317588D01*
X198002Y316388D01*
X197832Y315100D01*
X198002Y313812D01*
X198499Y312612D01*
X199290Y311581D01*
X200321Y310790D01*
X201521Y310293D01*
X202809Y310123D01*
X204097Y310293D01*
X205297Y310790D01*
X206328Y311581D01*
X207119Y312612D01*
X207616Y313812D01*
X207786Y315100D01*
X207616Y316388D01*
X207119Y317588D01*
X206328Y318619D01*
X205297Y319410D01*
X204097Y319907D01*
X202809Y320077D01*
D02*
G37*
G36*
X138911D02*
X137623Y319907D01*
X136423Y319410D01*
X135392Y318619D01*
X134601Y317588D01*
X134104Y316388D01*
X133934Y315100D01*
X134104Y313812D01*
X134601Y312612D01*
X135392Y311581D01*
X136423Y310790D01*
X137623Y310293D01*
X138911Y310123D01*
X140199Y310293D01*
X141399Y310790D01*
X142430Y311581D01*
X143221Y312612D01*
X143718Y313812D01*
X143888Y315100D01*
X143718Y316388D01*
X143221Y317588D01*
X142430Y318619D01*
X141399Y319410D01*
X140199Y319907D01*
X138911Y320077D01*
D02*
G37*
G36*
X93590D02*
X92302Y319907D01*
X91102Y319410D01*
X90071Y318619D01*
X89280Y317588D01*
X88783Y316388D01*
X88613Y315100D01*
X88783Y313812D01*
X89280Y312612D01*
X90071Y311581D01*
X91102Y310790D01*
X92302Y310293D01*
X93590Y310123D01*
X94878Y310293D01*
X96078Y310790D01*
X97109Y311581D01*
X97900Y312612D01*
X98397Y313812D01*
X98567Y315100D01*
X98397Y316388D01*
X97900Y317588D01*
X97109Y318619D01*
X96078Y319410D01*
X94878Y319907D01*
X93590Y320077D01*
D02*
G37*
G36*
X29692D02*
X28404Y319907D01*
X27204Y319410D01*
X26173Y318619D01*
X25382Y317588D01*
X24885Y316388D01*
X24715Y315100D01*
X24885Y313812D01*
X25382Y312612D01*
X26173Y311581D01*
X27204Y310790D01*
X28404Y310293D01*
X29692Y310123D01*
X30980Y310293D01*
X32180Y310790D01*
X33211Y311581D01*
X34002Y312612D01*
X34499Y313812D01*
X34669Y315100D01*
X34499Y316388D01*
X34002Y317588D01*
X33211Y318619D01*
X32180Y319410D01*
X30980Y319907D01*
X29692Y320077D01*
D02*
G37*
G36*
X116650Y314260D02*
Y306678D01*
X124232D01*
X124117Y307843D01*
X123660Y309347D01*
X122919Y310734D01*
X121922Y311950D01*
X120706Y312947D01*
X119319Y313688D01*
X117815Y314145D01*
X116650Y314260D01*
D02*
G37*
G36*
X115850D02*
X114685Y314145D01*
X113180Y313688D01*
X111794Y312947D01*
X110578Y311950D01*
X109581Y310734D01*
X108840Y309347D01*
X108383Y307843D01*
X108268Y306678D01*
X115850D01*
Y314260D01*
D02*
G37*
G36*
X124232Y305878D02*
X116650D01*
Y298296D01*
X117815Y298411D01*
X119319Y298868D01*
X120706Y299609D01*
X121922Y300606D01*
X122919Y301822D01*
X123660Y303209D01*
X124117Y304713D01*
X124232Y305878D01*
D02*
G37*
G36*
X115850D02*
X108268D01*
X108383Y304713D01*
X108840Y303209D01*
X109581Y301822D01*
X110578Y300606D01*
X111794Y299609D01*
X113180Y298868D01*
X114685Y298411D01*
X115850Y298296D01*
Y305878D01*
D02*
G37*
G36*
X202809Y295077D02*
X201521Y294907D01*
X200321Y294410D01*
X199290Y293619D01*
X198499Y292588D01*
X198002Y291388D01*
X197832Y290100D01*
X198002Y288812D01*
X198499Y287612D01*
X199290Y286581D01*
X200321Y285790D01*
X201521Y285293D01*
X202809Y285123D01*
X204097Y285293D01*
X205297Y285790D01*
X206328Y286581D01*
X207119Y287612D01*
X207616Y288812D01*
X207786Y290100D01*
X207616Y291388D01*
X207119Y292588D01*
X206328Y293619D01*
X205297Y294410D01*
X204097Y294907D01*
X202809Y295077D01*
D02*
G37*
G36*
X138911D02*
X137623Y294907D01*
X136423Y294410D01*
X135392Y293619D01*
X134601Y292588D01*
X134119Y291425D01*
X125500D01*
X124993Y291325D01*
X124563Y291037D01*
X114063Y280537D01*
X113775Y280107D01*
X113674Y279600D01*
Y272523D01*
X113336Y272382D01*
X112646Y271854D01*
X112118Y271164D01*
X111785Y270361D01*
X111671Y269500D01*
X111785Y268638D01*
X112118Y267836D01*
X112646Y267146D01*
X113336Y266617D01*
X114138Y266285D01*
X115000Y266172D01*
X115861Y266285D01*
X116664Y266617D01*
X117354Y267146D01*
X117883Y267836D01*
X118215Y268638D01*
X118328Y269500D01*
X118215Y270361D01*
X117883Y271164D01*
X117354Y271854D01*
X116664Y272382D01*
X116325Y272523D01*
Y279051D01*
X126049Y288774D01*
X134119D01*
X134601Y287612D01*
X135392Y286581D01*
X136423Y285790D01*
X137623Y285293D01*
X138911Y285123D01*
X140199Y285293D01*
X141399Y285790D01*
X142430Y286581D01*
X143221Y287612D01*
X143718Y288812D01*
X143888Y290100D01*
X143718Y291388D01*
X143221Y292588D01*
X142430Y293619D01*
X141399Y294410D01*
X140199Y294907D01*
X138911Y295077D01*
D02*
G37*
G36*
X93590D02*
X92302Y294907D01*
X91102Y294410D01*
X90071Y293619D01*
X89280Y292588D01*
X88783Y291388D01*
X88613Y290100D01*
X88783Y288812D01*
X89280Y287612D01*
X90071Y286581D01*
X91102Y285790D01*
X92302Y285293D01*
X93590Y285123D01*
X94878Y285293D01*
X96078Y285790D01*
X97109Y286581D01*
X97900Y287612D01*
X98397Y288812D01*
X98567Y290100D01*
X98397Y291388D01*
X97900Y292588D01*
X97109Y293619D01*
X96078Y294410D01*
X94878Y294907D01*
X93590Y295077D01*
D02*
G37*
G36*
X29692D02*
X28404Y294907D01*
X27204Y294410D01*
X26173Y293619D01*
X25382Y292588D01*
X24885Y291388D01*
X24715Y290100D01*
X24885Y288812D01*
X25367Y287649D01*
X15063Y277345D01*
X14775Y276915D01*
X14674Y276408D01*
Y220955D01*
X11508Y217788D01*
X10842Y218064D01*
X9811Y218200D01*
X8780Y218064D01*
X7819Y217666D01*
X6994Y217033D01*
X6361Y216208D01*
X5963Y215248D01*
X5827Y214216D01*
X5963Y213186D01*
X6361Y212225D01*
X6994Y211400D01*
X7819Y210767D01*
X8780Y210369D01*
X9811Y210233D01*
X10842Y210369D01*
X11803Y210767D01*
X12628Y211400D01*
X13261Y212225D01*
X13659Y213186D01*
X13795Y214216D01*
X13659Y215248D01*
X13383Y215914D01*
X16937Y219468D01*
X17225Y219898D01*
X17325Y220406D01*
Y275859D01*
X27241Y285775D01*
X28404Y285293D01*
X29692Y285123D01*
X30980Y285293D01*
X32180Y285790D01*
X33211Y286581D01*
X34002Y287612D01*
X34499Y288812D01*
X34669Y290100D01*
X34499Y291388D01*
X34002Y292588D01*
X33211Y293619D01*
X32180Y294410D01*
X30980Y294907D01*
X29692Y295077D01*
D02*
G37*
G36*
X125400Y272574D02*
Y269900D01*
X128074D01*
X128020Y270309D01*
X127708Y271063D01*
X127211Y271711D01*
X126563Y272208D01*
X125809Y272520D01*
X125400Y272574D01*
D02*
G37*
G36*
X124600D02*
X124191Y272520D01*
X123437Y272208D01*
X122789Y271711D01*
X122292Y271063D01*
X121980Y270309D01*
X121926Y269900D01*
X124600D01*
Y272574D01*
D02*
G37*
G36*
X128074Y269100D02*
X125400D01*
Y266426D01*
X125809Y266480D01*
X126563Y266792D01*
X127211Y267289D01*
X127708Y267937D01*
X128020Y268691D01*
X128074Y269100D01*
D02*
G37*
G36*
X124600D02*
X121926D01*
X121980Y268691D01*
X122292Y267937D01*
X122789Y267289D01*
X123437Y266792D01*
X124191Y266480D01*
X124600Y266426D01*
Y269100D01*
D02*
G37*
G36*
X104000Y252556D02*
X103174Y252447D01*
X102405Y252129D01*
X101744Y251622D01*
X101238Y250961D01*
X100919Y250192D01*
X100810Y249366D01*
X100919Y248540D01*
X101238Y247771D01*
X101744Y247111D01*
X102405Y246604D01*
X103174Y246285D01*
X104000Y246176D01*
X104826Y246285D01*
X105595Y246604D01*
X106255Y247111D01*
X106762Y247771D01*
X107081Y248540D01*
X107190Y249366D01*
X107081Y250192D01*
X106762Y250961D01*
X106255Y251622D01*
X105595Y252129D01*
X104826Y252447D01*
X104000Y252556D01*
D02*
G37*
G36*
X80866Y253825D02*
X38878D01*
X38371Y253725D01*
X37941Y253437D01*
X32563Y248059D01*
X32275Y247629D01*
X32175Y247122D01*
Y225856D01*
X24107Y217788D01*
X23440Y218064D01*
X22410Y218200D01*
X21378Y218064D01*
X20418Y217666D01*
X19593Y217033D01*
X18960Y216208D01*
X18562Y215248D01*
X18426Y214216D01*
X18562Y213186D01*
X18960Y212225D01*
X19593Y211400D01*
X20418Y210767D01*
X21378Y210369D01*
X22410Y210233D01*
X23440Y210369D01*
X24401Y210767D01*
X25226Y211400D01*
X25859Y212225D01*
X26257Y213186D01*
X26393Y214216D01*
X26257Y215248D01*
X25981Y215914D01*
X34437Y224370D01*
X34725Y224800D01*
X34826Y225307D01*
Y246573D01*
X39427Y251174D01*
X80317D01*
X81030Y250461D01*
X80919Y250192D01*
X80810Y249366D01*
X80919Y248540D01*
X81238Y247771D01*
X81744Y247111D01*
X82405Y246604D01*
X83174Y246285D01*
X84000Y246176D01*
X84826Y246285D01*
X85595Y246604D01*
X86256Y247111D01*
X86762Y247771D01*
X87081Y248540D01*
X87190Y249366D01*
X87081Y250192D01*
X86762Y250961D01*
X86256Y251622D01*
X85595Y252129D01*
X84826Y252447D01*
X84000Y252556D01*
X83174Y252447D01*
X82905Y252336D01*
X81803Y253437D01*
X81373Y253725D01*
X80866Y253825D01*
D02*
G37*
G36*
X213143Y247643D02*
X209400D01*
Y243900D01*
X213143D01*
Y247643D01*
D02*
G37*
G36*
X208600D02*
X204856D01*
Y243900D01*
X208600D01*
Y247643D01*
D02*
G37*
G36*
X125400Y242574D02*
Y239900D01*
X128074D01*
X128020Y240309D01*
X127708Y241063D01*
X127211Y241711D01*
X126563Y242208D01*
X125809Y242520D01*
X125400Y242574D01*
D02*
G37*
G36*
X124600D02*
X124191Y242520D01*
X123437Y242208D01*
X122789Y241711D01*
X122292Y241063D01*
X121980Y240309D01*
X121926Y239900D01*
X124600D01*
Y242574D01*
D02*
G37*
G36*
X213143Y243100D02*
X209400D01*
Y239356D01*
X213143D01*
Y243100D01*
D02*
G37*
G36*
X208600D02*
X204856D01*
Y239356D01*
X208600D01*
Y243100D01*
D02*
G37*
G36*
X67844Y247844D02*
X59157D01*
Y239157D01*
X67844D01*
Y247844D01*
D02*
G37*
G36*
X104000Y262556D02*
X103174Y262447D01*
X102405Y262129D01*
X101744Y261622D01*
X101238Y260961D01*
X100919Y260192D01*
X100810Y259366D01*
X100919Y258541D01*
X101238Y257771D01*
X101744Y257111D01*
X102405Y256604D01*
X103174Y256285D01*
X104000Y256176D01*
X104826Y256285D01*
X105595Y256604D01*
X106255Y257111D01*
X106762Y257771D01*
X106874Y258041D01*
X172585D01*
X185127Y245499D01*
X184768Y244634D01*
X184619Y243500D01*
X184768Y242366D01*
X185206Y241309D01*
X185902Y240402D01*
X186810Y239706D01*
X187866Y239268D01*
X189000Y239119D01*
X190134Y239268D01*
X191191Y239706D01*
X192098Y240402D01*
X192794Y241309D01*
X193232Y242366D01*
X193381Y243500D01*
X193232Y244634D01*
X192794Y245690D01*
X192098Y246598D01*
X191191Y247294D01*
X190134Y247732D01*
X189000Y247881D01*
X187866Y247732D01*
X187001Y247373D01*
X174071Y260303D01*
X173641Y260591D01*
X173134Y260692D01*
X106874D01*
X106762Y260961D01*
X106255Y261622D01*
X105595Y262129D01*
X104826Y262447D01*
X104000Y262556D01*
D02*
G37*
G36*
X23500Y247881D02*
X22366Y247732D01*
X21309Y247294D01*
X20402Y246598D01*
X19706Y245690D01*
X19268Y244634D01*
X19119Y243500D01*
X19268Y242366D01*
X19706Y241309D01*
X20402Y240402D01*
X21309Y239706D01*
X22366Y239268D01*
X23500Y239119D01*
X24634Y239268D01*
X25690Y239706D01*
X26598Y240402D01*
X27294Y241309D01*
X27732Y242366D01*
X27881Y243500D01*
X27732Y244634D01*
X27294Y245690D01*
X26598Y246598D01*
X25690Y247294D01*
X24634Y247732D01*
X23500Y247881D01*
D02*
G37*
G36*
X128074Y239100D02*
X125400D01*
Y236426D01*
X125809Y236480D01*
X126563Y236792D01*
X127211Y237289D01*
X127708Y237937D01*
X128020Y238691D01*
X128074Y239100D01*
D02*
G37*
G36*
X124600D02*
X121926D01*
X121980Y238691D01*
X122292Y237937D01*
X122789Y237289D01*
X123437Y236792D01*
X124191Y236480D01*
X124600Y236426D01*
Y239100D01*
D02*
G37*
G36*
X104000Y242556D02*
X103174Y242447D01*
X102405Y242129D01*
X101744Y241622D01*
X101238Y240961D01*
X100919Y240192D01*
X100810Y239366D01*
X100919Y238541D01*
X101238Y237771D01*
X101744Y237111D01*
X102405Y236604D01*
X103174Y236285D01*
X104000Y236176D01*
X104826Y236285D01*
X105595Y236604D01*
X106255Y237111D01*
X106762Y237771D01*
X107081Y238541D01*
X107190Y239366D01*
X107081Y240192D01*
X106762Y240961D01*
X106255Y241622D01*
X105595Y242129D01*
X104826Y242447D01*
X104000Y242556D01*
D02*
G37*
G36*
X84000D02*
X83174Y242447D01*
X82405Y242129D01*
X81744Y241622D01*
X81238Y240961D01*
X80919Y240192D01*
X80810Y239366D01*
X80919Y238541D01*
X81238Y237771D01*
X81744Y237111D01*
X82405Y236604D01*
X83174Y236285D01*
X84000Y236176D01*
X84826Y236285D01*
X85595Y236604D01*
X86256Y237111D01*
X86762Y237771D01*
X87081Y238541D01*
X87190Y239366D01*
X87081Y240192D01*
X86762Y240961D01*
X86256Y241622D01*
X85595Y242129D01*
X84826Y242447D01*
X84000Y242556D01*
D02*
G37*
G36*
X115000Y242828D02*
X114138Y242715D01*
X113336Y242383D01*
X112646Y241854D01*
X112118Y241164D01*
X111785Y240361D01*
X111671Y239500D01*
X111785Y238638D01*
X112118Y237836D01*
X112646Y237146D01*
X113336Y236617D01*
X114138Y236285D01*
X115000Y236172D01*
X115861Y236285D01*
X116664Y236617D01*
X117354Y237146D01*
X117883Y237836D01*
X118215Y238638D01*
X118328Y239500D01*
X118215Y240361D01*
X117883Y241164D01*
X117354Y241854D01*
X116664Y242383D01*
X115861Y242715D01*
X115000Y242828D01*
D02*
G37*
G36*
X176400Y234332D02*
Y231400D01*
X179332D01*
X179270Y231876D01*
X178931Y232693D01*
X178393Y233394D01*
X177692Y233931D01*
X176876Y234270D01*
X176400Y234332D01*
D02*
G37*
G36*
X175600D02*
X175124Y234270D01*
X174308Y233931D01*
X173607Y233394D01*
X173068Y232693D01*
X172730Y231876D01*
X172668Y231400D01*
X175600D01*
Y234332D01*
D02*
G37*
G36*
X179332Y230600D02*
X176400D01*
Y227668D01*
X176876Y227730D01*
X177692Y228068D01*
X178393Y228607D01*
X178931Y229308D01*
X179270Y230124D01*
X179332Y230600D01*
D02*
G37*
G36*
X175600D02*
X172668D01*
X172730Y230124D01*
X173068Y229308D01*
X173607Y228607D01*
X174308Y228068D01*
X175124Y227730D01*
X175600Y227668D01*
Y230600D01*
D02*
G37*
G36*
X151556Y234556D02*
X144444D01*
Y227444D01*
X151556D01*
Y234556D01*
D02*
G37*
G36*
X134400Y228134D02*
Y225400D01*
X137134D01*
X137078Y225825D01*
X136759Y226593D01*
X136253Y227253D01*
X135593Y227759D01*
X134825Y228078D01*
X134400Y228134D01*
D02*
G37*
G36*
X133600D02*
X133175Y228078D01*
X132407Y227759D01*
X131747Y227253D01*
X131241Y226593D01*
X130922Y225825D01*
X130866Y225400D01*
X133600D01*
Y228134D01*
D02*
G37*
G36*
X137134Y224600D02*
X134400D01*
Y221866D01*
X134825Y221922D01*
X135593Y222241D01*
X136253Y222747D01*
X136759Y223407D01*
X137078Y224175D01*
X137134Y224600D01*
D02*
G37*
G36*
X133600D02*
X130866D01*
X130922Y224175D01*
X131241Y223407D01*
X131747Y222747D01*
X132407Y222241D01*
X133175Y221922D01*
X133600Y221866D01*
Y224600D01*
D02*
G37*
G36*
X22410Y228043D02*
X21378Y227907D01*
X20418Y227509D01*
X19593Y226876D01*
X18960Y226051D01*
X18562Y225090D01*
X18426Y224059D01*
X18562Y223028D01*
X18960Y222067D01*
X19593Y221242D01*
X20418Y220609D01*
X21378Y220211D01*
X22410Y220075D01*
X23440Y220211D01*
X24401Y220609D01*
X25226Y221242D01*
X25859Y222067D01*
X26257Y223028D01*
X26393Y224059D01*
X26257Y225090D01*
X25859Y226051D01*
X25226Y226876D01*
X24401Y227509D01*
X23440Y227907D01*
X22410Y228043D01*
D02*
G37*
G36*
X9811D02*
X8780Y227907D01*
X7819Y227509D01*
X6994Y226876D01*
X6361Y226051D01*
X5963Y225090D01*
X5827Y224059D01*
X5963Y223028D01*
X6361Y222067D01*
X6994Y221242D01*
X7819Y220609D01*
X8780Y220211D01*
X9811Y220075D01*
X10842Y220211D01*
X11803Y220609D01*
X12628Y221242D01*
X13261Y222067D01*
X13659Y223028D01*
X13795Y224059D01*
X13659Y225090D01*
X13261Y226051D01*
X12628Y226876D01*
X11803Y227509D01*
X10842Y227907D01*
X9811Y228043D01*
D02*
G37*
G36*
X84000Y222556D02*
X83174Y222447D01*
X82405Y222129D01*
X81744Y221622D01*
X81238Y220961D01*
X80919Y220192D01*
X80810Y219366D01*
X80919Y218541D01*
X81238Y217771D01*
X81744Y217111D01*
X82405Y216604D01*
X83174Y216285D01*
X84000Y216176D01*
X84826Y216285D01*
X85595Y216604D01*
X86256Y217111D01*
X86762Y217771D01*
X87081Y218541D01*
X87190Y219366D01*
X87081Y220192D01*
X86762Y220961D01*
X86256Y221622D01*
X85595Y222129D01*
X84826Y222447D01*
X84000Y222556D01*
D02*
G37*
G36*
X114000Y228388D02*
X113123Y228273D01*
X112306Y227934D01*
X111604Y227396D01*
X111066Y226694D01*
X110728Y225877D01*
X110612Y225000D01*
X110728Y224123D01*
X111066Y223306D01*
X111553Y222671D01*
Y212447D01*
X107162D01*
Y213162D01*
X106447D01*
Y217360D01*
X106762Y217771D01*
X107081Y218541D01*
X107190Y219366D01*
X107081Y220192D01*
X106762Y220961D01*
X106255Y221622D01*
X105595Y222129D01*
X104826Y222447D01*
X104000Y222556D01*
X103174Y222447D01*
X102405Y222129D01*
X101744Y221622D01*
X101238Y220961D01*
X100919Y220192D01*
X100810Y219366D01*
X100919Y218541D01*
X101238Y217771D01*
X101553Y217360D01*
Y213162D01*
X100838D01*
Y206838D01*
X107162D01*
Y207553D01*
X111995D01*
X112405Y207238D01*
X113174Y206919D01*
X114000Y206811D01*
X114825Y206919D01*
X115595Y207238D01*
X116255Y207745D01*
X116762Y208405D01*
X117081Y209174D01*
X117189Y210000D01*
X117081Y210825D01*
X116762Y211595D01*
X116447Y212005D01*
Y222671D01*
X116934Y223306D01*
X117272Y224123D01*
X117388Y225000D01*
X117272Y225877D01*
X116934Y226694D01*
X116396Y227396D01*
X115694Y227934D01*
X114877Y228273D01*
X114000Y228388D01*
D02*
G37*
G36*
X158400Y212737D02*
Y210400D01*
X160737D01*
X160694Y210722D01*
X160416Y211395D01*
X159972Y211972D01*
X159395Y212416D01*
X158722Y212694D01*
X158400Y212737D01*
D02*
G37*
G36*
X157600D02*
X157278Y212694D01*
X156605Y212416D01*
X156028Y211972D01*
X155584Y211395D01*
X155306Y210722D01*
X155263Y210400D01*
X157600D01*
Y212737D01*
D02*
G37*
G36*
X124400Y212935D02*
Y210400D01*
X126935D01*
X126886Y210773D01*
X126587Y211494D01*
X126112Y212112D01*
X125494Y212587D01*
X124773Y212886D01*
X124400Y212935D01*
D02*
G37*
G36*
X123600D02*
X123227Y212886D01*
X122506Y212587D01*
X121888Y212112D01*
X121413Y211494D01*
X121114Y210773D01*
X121065Y210400D01*
X123600D01*
Y212935D01*
D02*
G37*
G36*
X160737Y209600D02*
X158400D01*
Y207263D01*
X158722Y207306D01*
X159395Y207584D01*
X159972Y208028D01*
X160416Y208605D01*
X160694Y209278D01*
X160737Y209600D01*
D02*
G37*
G36*
X157600D02*
X155263D01*
X155306Y209278D01*
X155584Y208605D01*
X156028Y208028D01*
X156605Y207584D01*
X157278Y207306D01*
X157600Y207263D01*
Y209600D01*
D02*
G37*
G36*
X126935D02*
X124400D01*
Y207065D01*
X124773Y207114D01*
X125494Y207413D01*
X126112Y207888D01*
X126587Y208506D01*
X126886Y209227D01*
X126935Y209600D01*
D02*
G37*
G36*
X123600D02*
X121065D01*
X121114Y209227D01*
X121413Y208506D01*
X121888Y207888D01*
X122506Y207413D01*
X123227Y207114D01*
X123600Y207065D01*
Y209600D01*
D02*
G37*
G36*
X134000Y213189D02*
X133175Y213081D01*
X132405Y212762D01*
X131745Y212255D01*
X131238Y211595D01*
X130919Y210825D01*
X130811Y210000D01*
X130919Y209174D01*
X131238Y208405D01*
X131745Y207745D01*
X132405Y207238D01*
X133175Y206919D01*
X134000Y206811D01*
X134826Y206919D01*
X135595Y207238D01*
X136005Y207553D01*
X145035D01*
Y207034D01*
X150965D01*
Y212965D01*
X145035D01*
Y212447D01*
X136005D01*
X135595Y212762D01*
X134826Y213081D01*
X134000Y213189D01*
D02*
G37*
G36*
X84000D02*
X83175Y213081D01*
X82405Y212762D01*
X81745Y212255D01*
X81238Y211595D01*
X80919Y210825D01*
X80811Y210000D01*
X80919Y209174D01*
X81238Y208405D01*
X81745Y207745D01*
X82405Y207238D01*
X83175Y206919D01*
X84000Y206811D01*
X84825Y206919D01*
X85595Y207238D01*
X86255Y207745D01*
X86762Y208405D01*
X87081Y209174D01*
X87189Y210000D01*
X87081Y210825D01*
X86762Y211595D01*
X86255Y212255D01*
X85595Y212762D01*
X84825Y213081D01*
X84000Y213189D01*
D02*
G37*
G36*
X67400Y207435D02*
Y204900D01*
X69935D01*
X69886Y205273D01*
X69587Y205994D01*
X69112Y206612D01*
X68494Y207087D01*
X67773Y207386D01*
X67400Y207435D01*
D02*
G37*
G36*
X66600D02*
X66227Y207386D01*
X65506Y207087D01*
X64887Y206612D01*
X64413Y205994D01*
X64114Y205273D01*
X64065Y204900D01*
X66600D01*
Y207435D01*
D02*
G37*
G36*
X69935Y204100D02*
X67400D01*
Y201565D01*
X67773Y201614D01*
X68494Y201913D01*
X69112Y202387D01*
X69587Y203006D01*
X69886Y203727D01*
X69935Y204100D01*
D02*
G37*
G36*
X66600D02*
X64065D01*
X64114Y203727D01*
X64413Y203006D01*
X64887Y202387D01*
X65506Y201913D01*
X66227Y201614D01*
X66600Y201565D01*
Y204100D01*
D02*
G37*
G36*
X77400Y192134D02*
Y189400D01*
X80134D01*
X80078Y189825D01*
X79759Y190593D01*
X79253Y191253D01*
X78593Y191759D01*
X77825Y192078D01*
X77400Y192134D01*
D02*
G37*
G36*
X76600D02*
X76175Y192078D01*
X75407Y191759D01*
X74747Y191253D01*
X74241Y190593D01*
X73922Y189825D01*
X73866Y189400D01*
X76600D01*
Y192134D01*
D02*
G37*
G36*
X66982Y191991D02*
X66208Y191889D01*
X65487Y191590D01*
X64867Y191115D01*
X64392Y190496D01*
X64093Y189774D01*
X63991Y189000D01*
X64093Y188226D01*
X64392Y187504D01*
X64867Y186885D01*
X65487Y186410D01*
X66208Y186111D01*
X66982Y186009D01*
X67756Y186111D01*
X68478Y186410D01*
X69097Y186885D01*
X69573Y187504D01*
X69871Y188226D01*
X69973Y189000D01*
X69871Y189774D01*
X69573Y190496D01*
X69097Y191115D01*
X68478Y191590D01*
X67756Y191889D01*
X66982Y191991D01*
D02*
G37*
G36*
X60162Y207662D02*
X53838D01*
Y201338D01*
X55674D01*
Y191661D01*
X55505Y191590D01*
X54885Y191115D01*
X54410Y190496D01*
X54111Y189774D01*
X54009Y189000D01*
X54111Y188226D01*
X54410Y187504D01*
X54885Y186885D01*
X55505Y186410D01*
X56226Y186111D01*
X57000Y186009D01*
X57774Y186111D01*
X58495Y186410D01*
X59115Y186885D01*
X59590Y187504D01*
X59889Y188226D01*
X59991Y189000D01*
X59889Y189774D01*
X59590Y190496D01*
X59115Y191115D01*
X58495Y191590D01*
X58325Y191661D01*
Y201338D01*
X60162D01*
Y207662D01*
D02*
G37*
G36*
X47162D02*
X40838D01*
Y201338D01*
X42674D01*
Y191661D01*
X42505Y191590D01*
X41885Y191115D01*
X41410Y190496D01*
X41111Y189774D01*
X41009Y189000D01*
X41111Y188226D01*
X41410Y187504D01*
X41885Y186885D01*
X42505Y186410D01*
X43226Y186111D01*
X44000Y186009D01*
X44774Y186111D01*
X45496Y186410D01*
X46115Y186885D01*
X46590Y187504D01*
X46889Y188226D01*
X46991Y189000D01*
X46889Y189774D01*
X46590Y190496D01*
X46115Y191115D01*
X45496Y191590D01*
X45325Y191661D01*
Y201338D01*
X47162D01*
Y207662D01*
D02*
G37*
G36*
X22410Y208358D02*
X21378Y208222D01*
X20418Y207824D01*
X19593Y207191D01*
X18960Y206366D01*
X18562Y205405D01*
X18426Y204374D01*
X18562Y203343D01*
X18960Y202382D01*
X19593Y201557D01*
X20418Y200924D01*
X21378Y200526D01*
X22410Y200390D01*
X23440Y200526D01*
X24401Y200924D01*
X25226Y201557D01*
X25859Y202382D01*
X26135Y203048D01*
X31179D01*
X31238Y202905D01*
X31745Y202245D01*
X32405Y201738D01*
X32675Y201626D01*
Y191661D01*
X32504Y191590D01*
X31885Y191115D01*
X31410Y190496D01*
X31111Y189774D01*
X31009Y189000D01*
X31111Y188226D01*
X31410Y187504D01*
X31885Y186885D01*
X32504Y186410D01*
X33226Y186111D01*
X34000Y186009D01*
X34774Y186111D01*
X35495Y186410D01*
X36115Y186885D01*
X36590Y187504D01*
X36889Y188226D01*
X36991Y189000D01*
X36889Y189774D01*
X36590Y190496D01*
X36115Y191115D01*
X35495Y191590D01*
X35326Y191661D01*
Y201626D01*
X35595Y201738D01*
X36255Y202245D01*
X36762Y202905D01*
X37081Y203675D01*
X37189Y204500D01*
X37081Y205326D01*
X36762Y206095D01*
X36255Y206755D01*
X35595Y207262D01*
X34826Y207581D01*
X34000Y207689D01*
X33174Y207581D01*
X32405Y207262D01*
X31745Y206755D01*
X31238Y206095D01*
X31074Y205699D01*
X26135D01*
X25859Y206366D01*
X25226Y207191D01*
X24401Y207824D01*
X23440Y208222D01*
X22410Y208358D01*
D02*
G37*
G36*
X9811D02*
X8780Y208222D01*
X7819Y207824D01*
X6994Y207191D01*
X6361Y206366D01*
X5963Y205405D01*
X5827Y204374D01*
X5963Y203343D01*
X6361Y202382D01*
X6994Y201557D01*
X7819Y200924D01*
X8486Y200648D01*
Y192189D01*
X8586Y191682D01*
X8874Y191252D01*
X10181Y189944D01*
X10111Y189774D01*
X10009Y189000D01*
X10111Y188226D01*
X10410Y187504D01*
X10885Y186885D01*
X11505Y186410D01*
X12226Y186111D01*
X13000Y186009D01*
X13774Y186111D01*
X14495Y186410D01*
X15115Y186885D01*
X15590Y187504D01*
X15661Y187674D01*
X20339D01*
X20410Y187504D01*
X20885Y186885D01*
X21505Y186410D01*
X22226Y186111D01*
X23000Y186009D01*
X23774Y186111D01*
X24496Y186410D01*
X25115Y186885D01*
X25590Y187504D01*
X25889Y188226D01*
X25991Y189000D01*
X25889Y189774D01*
X25590Y190496D01*
X25115Y191115D01*
X24496Y191590D01*
X23774Y191889D01*
X23000Y191991D01*
X22226Y191889D01*
X21505Y191590D01*
X20885Y191115D01*
X20410Y190496D01*
X20339Y190325D01*
X15661D01*
X15590Y190496D01*
X15115Y191115D01*
X14495Y191590D01*
X13774Y191889D01*
X13000Y191991D01*
X12226Y191889D01*
X12056Y191819D01*
X11136Y192738D01*
Y200648D01*
X11803Y200924D01*
X12628Y201557D01*
X13261Y202382D01*
X13659Y203343D01*
X13795Y204374D01*
X13659Y205405D01*
X13261Y206366D01*
X12628Y207191D01*
X11803Y207824D01*
X10842Y208222D01*
X9811Y208358D01*
D02*
G37*
G36*
X80134Y188600D02*
X77400D01*
Y185866D01*
X77825Y185922D01*
X78593Y186241D01*
X79253Y186747D01*
X79759Y187407D01*
X80078Y188175D01*
X80134Y188600D01*
D02*
G37*
G36*
X76600D02*
X73866D01*
X73922Y188175D01*
X74241Y187407D01*
X74747Y186747D01*
X75407Y186241D01*
X76175Y185922D01*
X76600Y185866D01*
Y188600D01*
D02*
G37*
G36*
X91000Y192388D02*
X90123Y192272D01*
X89306Y191934D01*
X88604Y191396D01*
X88066Y190694D01*
X87727Y189877D01*
X87612Y189000D01*
X87727Y188123D01*
X88066Y187306D01*
X88604Y186604D01*
X89306Y186066D01*
X90123Y185728D01*
X91000Y185612D01*
X91877Y185728D01*
X92694Y186066D01*
X93396Y186604D01*
X93934Y187306D01*
X94273Y188123D01*
X94388Y189000D01*
X94273Y189877D01*
X93934Y190694D01*
X93396Y191396D01*
X92694Y191934D01*
X91877Y192272D01*
X91000Y192388D01*
D02*
G37*
G36*
X169000Y247881D02*
X167866Y247732D01*
X166809Y247294D01*
X165902Y246598D01*
X165206Y245690D01*
X164768Y244634D01*
X164619Y243500D01*
X164768Y242366D01*
X165206Y241309D01*
X165902Y240402D01*
X166809Y239706D01*
X167675Y239348D01*
Y204327D01*
X143673Y180325D01*
X109873D01*
X109762Y180595D01*
X109255Y181255D01*
X108595Y181762D01*
X107826Y182081D01*
X107000Y182189D01*
X106175Y182081D01*
X105405Y181762D01*
X104745Y181255D01*
X104238Y180595D01*
X103919Y179825D01*
X103811Y179000D01*
X103919Y178174D01*
X104238Y177405D01*
X104745Y176745D01*
X105405Y176238D01*
X106175Y175919D01*
X107000Y175811D01*
X107826Y175919D01*
X108595Y176238D01*
X109255Y176745D01*
X109762Y177405D01*
X109873Y177674D01*
X144222D01*
X144729Y177775D01*
X145159Y178063D01*
X169937Y202841D01*
X170225Y203271D01*
X170326Y203778D01*
Y239348D01*
X171191Y239706D01*
X172098Y240402D01*
X172794Y241309D01*
X173232Y242366D01*
X173381Y243500D01*
X173232Y244634D01*
X172794Y245690D01*
X172098Y246598D01*
X171191Y247294D01*
X170134Y247732D01*
X169000Y247881D01*
D02*
G37*
G36*
X130112Y170737D02*
Y168400D01*
X132449D01*
X132406Y168722D01*
X132128Y169395D01*
X131685Y169972D01*
X131107Y170416D01*
X130434Y170694D01*
X130112Y170737D01*
D02*
G37*
G36*
X129312D02*
X128990Y170694D01*
X128317Y170416D01*
X127740Y169972D01*
X127296Y169395D01*
X127018Y168722D01*
X126975Y168400D01*
X129312D01*
Y170737D01*
D02*
G37*
G36*
Y167600D02*
X126975D01*
X127018Y167278D01*
X127296Y166605D01*
X127740Y166028D01*
X128317Y165584D01*
X128990Y165306D01*
X129312Y165263D01*
Y167600D01*
D02*
G37*
G36*
X132449D02*
X130112D01*
Y165263D01*
X130434Y165306D01*
X131107Y165584D01*
X131685Y166028D01*
X132128Y166605D01*
X132406Y167278D01*
X132449Y167600D01*
D02*
G37*
G36*
X77000Y172388D02*
X76123Y172273D01*
X75306Y171934D01*
X74604Y171396D01*
X74066Y170694D01*
X73728Y169877D01*
X73612Y169000D01*
X73728Y168123D01*
X74066Y167306D01*
X74604Y166604D01*
X75306Y166066D01*
X75674Y165913D01*
Y161661D01*
X75504Y161590D01*
X74885Y161115D01*
X74410Y160495D01*
X74339Y160326D01*
X69643D01*
X69573Y160495D01*
X69097Y161115D01*
X68478Y161590D01*
X67756Y161889D01*
X66982Y161991D01*
X66208Y161889D01*
X65487Y161590D01*
X64867Y161115D01*
X64392Y160495D01*
X64093Y159774D01*
X63991Y159000D01*
X64093Y158226D01*
X64392Y157504D01*
X64867Y156885D01*
X65487Y156410D01*
X66208Y156111D01*
X66982Y156009D01*
X67756Y156111D01*
X68478Y156410D01*
X69097Y156885D01*
X69573Y157504D01*
X69643Y157675D01*
X74339D01*
X74410Y157504D01*
X74885Y156885D01*
X75504Y156410D01*
X76226Y156111D01*
X77000Y156009D01*
X77774Y156111D01*
X78496Y156410D01*
X79115Y156885D01*
X79590Y157504D01*
X79889Y158226D01*
X79991Y159000D01*
X79889Y159774D01*
X79590Y160495D01*
X79115Y161115D01*
X78496Y161590D01*
X78325Y161661D01*
Y165913D01*
X78694Y166066D01*
X79396Y166604D01*
X79934Y167306D01*
X80273Y168123D01*
X80388Y169000D01*
X80273Y169877D01*
X79934Y170694D01*
X79396Y171396D01*
X78694Y171934D01*
X77877Y172273D01*
X77000Y172388D01*
D02*
G37*
G36*
X34400Y161737D02*
Y159400D01*
X36737D01*
X36694Y159722D01*
X36416Y160395D01*
X35972Y160972D01*
X35395Y161416D01*
X34722Y161694D01*
X34400Y161737D01*
D02*
G37*
G36*
X23400D02*
Y159400D01*
X25737D01*
X25694Y159722D01*
X25416Y160395D01*
X24972Y160972D01*
X24395Y161416D01*
X23722Y161694D01*
X23400Y161737D01*
D02*
G37*
G36*
X33600D02*
X33278Y161694D01*
X32605Y161416D01*
X32028Y160972D01*
X31584Y160395D01*
X31306Y159722D01*
X31263Y159400D01*
X33600D01*
Y161737D01*
D02*
G37*
G36*
X22600D02*
X22278Y161694D01*
X21605Y161416D01*
X21028Y160972D01*
X20584Y160395D01*
X20306Y159722D01*
X20263Y159400D01*
X22600D01*
Y161737D01*
D02*
G37*
G36*
X25737Y158600D02*
X23400D01*
Y156263D01*
X23722Y156306D01*
X24395Y156584D01*
X24972Y157028D01*
X25416Y157605D01*
X25694Y158278D01*
X25737Y158600D01*
D02*
G37*
G36*
X36737D02*
X34400D01*
Y156263D01*
X34722Y156306D01*
X35395Y156584D01*
X35972Y157028D01*
X36416Y157605D01*
X36694Y158278D01*
X36737Y158600D01*
D02*
G37*
G36*
X33600D02*
X31263D01*
X31306Y158278D01*
X31584Y157605D01*
X32028Y157028D01*
X32605Y156584D01*
X33278Y156306D01*
X33600Y156263D01*
Y158600D01*
D02*
G37*
G36*
X22600D02*
X20263D01*
X20306Y158278D01*
X20584Y157605D01*
X21028Y157028D01*
X21605Y156584D01*
X22278Y156306D01*
X22600Y156263D01*
Y158600D01*
D02*
G37*
G36*
X91000Y172388D02*
X90123Y172273D01*
X89306Y171934D01*
X88604Y171396D01*
X88066Y170694D01*
X87727Y169877D01*
X87612Y169000D01*
X87727Y168123D01*
X88066Y167306D01*
X88604Y166604D01*
X89306Y166066D01*
X90123Y165727D01*
X91000Y165612D01*
X91877Y165727D01*
X92694Y166066D01*
X93396Y166604D01*
X93934Y167306D01*
X94087Y167675D01*
X103838D01*
Y165838D01*
X105675D01*
Y161661D01*
X105505Y161590D01*
X104885Y161115D01*
X104410Y160495D01*
X104111Y159774D01*
X104009Y159000D01*
X104111Y158226D01*
X104410Y157504D01*
X104885Y156885D01*
X105505Y156410D01*
X106226Y156111D01*
X107000Y156009D01*
X107774Y156111D01*
X108495Y156410D01*
X109115Y156885D01*
X109590Y157504D01*
X109889Y158226D01*
X109991Y159000D01*
X109889Y159774D01*
X109590Y160495D01*
X109115Y161115D01*
X108495Y161590D01*
X108326Y161661D01*
Y165838D01*
X110162D01*
Y172162D01*
X103838D01*
Y170326D01*
X94087D01*
X93934Y170694D01*
X93396Y171396D01*
X92694Y171934D01*
X91877Y172273D01*
X91000Y172388D01*
D02*
G37*
G36*
X43500Y247881D02*
X42366Y247732D01*
X41309Y247294D01*
X40402Y246598D01*
X39706Y245690D01*
X39268Y244634D01*
X39119Y243500D01*
X39268Y242366D01*
X39706Y241309D01*
X40402Y240402D01*
X41309Y239706D01*
X42366Y239268D01*
X43500Y239119D01*
X44634Y239268D01*
X45499Y239627D01*
X48349Y236776D01*
Y159000D01*
Y154126D01*
X44716Y150493D01*
X44429Y150063D01*
X44328Y149555D01*
Y134347D01*
X44429Y133840D01*
X44716Y133410D01*
X50925Y127200D01*
X50785Y126862D01*
X50671Y126000D01*
X50785Y125138D01*
X51117Y124336D01*
X51646Y123646D01*
X52336Y123117D01*
X53139Y122785D01*
X54000Y122671D01*
X54861Y122785D01*
X55664Y123117D01*
X56354Y123646D01*
X56883Y124336D01*
X57215Y125138D01*
X57328Y126000D01*
X57215Y126862D01*
X56883Y127664D01*
X56354Y128354D01*
X55664Y128883D01*
X54861Y129215D01*
X54000Y129329D01*
X53139Y129215D01*
X52800Y129075D01*
X46979Y134896D01*
Y149006D01*
X50612Y152639D01*
X50899Y153069D01*
X51000Y153577D01*
Y157675D01*
X54339D01*
X54410Y157504D01*
X54885Y156885D01*
X55505Y156410D01*
X56226Y156111D01*
X57000Y156009D01*
X57774Y156111D01*
X58495Y156410D01*
X59115Y156885D01*
X59590Y157504D01*
X59889Y158226D01*
X59991Y159000D01*
X59889Y159774D01*
X59590Y160495D01*
X59115Y161115D01*
X58495Y161590D01*
X57774Y161889D01*
X57000Y161991D01*
X56226Y161889D01*
X55505Y161590D01*
X54885Y161115D01*
X54410Y160495D01*
X54339Y160326D01*
X51000D01*
Y237326D01*
X50899Y237833D01*
X50612Y238263D01*
X47373Y241501D01*
X47732Y242366D01*
X47881Y243500D01*
X47732Y244634D01*
X47294Y245690D01*
X46598Y246598D01*
X45691Y247294D01*
X44634Y247732D01*
X43500Y247881D01*
D02*
G37*
G36*
X44000Y161991D02*
X43226Y161889D01*
X42505Y161590D01*
X41885Y161115D01*
X41410Y160495D01*
X41111Y159774D01*
X41009Y159000D01*
X41111Y158226D01*
X41181Y158056D01*
X36451Y153325D01*
X30000D01*
X29493Y153225D01*
X29063Y152937D01*
X25200Y149075D01*
X24861Y149215D01*
X24000Y149328D01*
X23138Y149215D01*
X22336Y148882D01*
X21646Y148354D01*
X21117Y147664D01*
X20785Y146862D01*
X20672Y146000D01*
X20785Y145139D01*
X21117Y144336D01*
X21646Y143646D01*
X22336Y143117D01*
X22674Y142977D01*
Y139023D01*
X22336Y138883D01*
X21646Y138354D01*
X21117Y137664D01*
X20785Y136862D01*
X20672Y136000D01*
X20785Y135138D01*
X21117Y134336D01*
X21646Y133646D01*
X22336Y133117D01*
X23138Y132785D01*
X24000Y132671D01*
X24861Y132785D01*
X25664Y133117D01*
X26354Y133646D01*
X26882Y134336D01*
X27215Y135138D01*
X27329Y136000D01*
X27215Y136862D01*
X26882Y137664D01*
X26354Y138354D01*
X25664Y138883D01*
X25326Y139023D01*
Y142977D01*
X25664Y143117D01*
X26354Y143646D01*
X26882Y144336D01*
X27215Y145139D01*
X27329Y146000D01*
X27215Y146862D01*
X27075Y147200D01*
X30549Y150674D01*
X37000D01*
X37507Y150775D01*
X37937Y151063D01*
X43056Y156181D01*
X43226Y156111D01*
X44000Y156009D01*
X44774Y156111D01*
X45496Y156410D01*
X46115Y156885D01*
X46590Y157504D01*
X46889Y158226D01*
X46991Y159000D01*
X46889Y159774D01*
X46590Y160495D01*
X46115Y161115D01*
X45496Y161590D01*
X44774Y161889D01*
X44000Y161991D01*
D02*
G37*
G36*
X120112Y148737D02*
Y146400D01*
X122449D01*
X122406Y146722D01*
X122128Y147395D01*
X121685Y147972D01*
X121107Y148416D01*
X120434Y148694D01*
X120112Y148737D01*
D02*
G37*
G36*
X119312D02*
X118990Y148694D01*
X118317Y148416D01*
X117740Y147972D01*
X117296Y147395D01*
X117018Y146722D01*
X116975Y146400D01*
X119312D01*
Y148737D01*
D02*
G37*
G36*
Y145600D02*
X116975D01*
X117018Y145278D01*
X117296Y144605D01*
X117740Y144028D01*
X118317Y143584D01*
X118990Y143306D01*
X119312Y143263D01*
Y145600D01*
D02*
G37*
G36*
X122449D02*
X120112D01*
Y143263D01*
X120434Y143306D01*
X121107Y143584D01*
X121685Y144028D01*
X122128Y144605D01*
X122406Y145278D01*
X122449Y145600D01*
D02*
G37*
G36*
X84000Y262556D02*
X83174Y262447D01*
X82405Y262129D01*
X81744Y261622D01*
X81238Y260961D01*
X80919Y260192D01*
X80810Y259366D01*
X80919Y258541D01*
X81238Y257771D01*
X81744Y257111D01*
X82405Y256604D01*
X83174Y256285D01*
X84000Y256176D01*
X84826Y256285D01*
X85095Y256397D01*
X90977Y250515D01*
Y205285D01*
X83063Y197371D01*
X82775Y196941D01*
X82674Y196434D01*
Y149000D01*
X82775Y148493D01*
X83063Y148063D01*
X83880Y147245D01*
X83728Y146877D01*
X83612Y146000D01*
X83728Y145123D01*
X84066Y144306D01*
X84604Y143604D01*
X85306Y143066D01*
X86123Y142727D01*
X87000Y142612D01*
X87877Y142727D01*
X88694Y143066D01*
X89396Y143604D01*
X89934Y144306D01*
X90087Y144675D01*
X94339D01*
X94410Y144504D01*
X94885Y143885D01*
X95504Y143410D01*
X96226Y143111D01*
X97000Y143009D01*
X97774Y143111D01*
X98496Y143410D01*
X99115Y143885D01*
X99590Y144504D01*
X99889Y145226D01*
X99991Y146000D01*
X99889Y146774D01*
X99590Y147495D01*
X99115Y148115D01*
X98496Y148590D01*
X97774Y148889D01*
X97000Y148991D01*
X96226Y148889D01*
X95504Y148590D01*
X94885Y148115D01*
X94410Y147495D01*
X94339Y147326D01*
X90087D01*
X89934Y147694D01*
X89396Y148396D01*
X88694Y148934D01*
X87877Y149273D01*
X87000Y149388D01*
X86123Y149273D01*
X85755Y149120D01*
X85325Y149549D01*
Y195885D01*
X93239Y203799D01*
X93527Y204229D01*
X93627Y204736D01*
Y251064D01*
X93527Y251571D01*
X93239Y252001D01*
X86970Y258271D01*
X87081Y258541D01*
X87190Y259366D01*
X87081Y260192D01*
X86762Y260961D01*
X86256Y261622D01*
X85595Y262129D01*
X84826Y262447D01*
X84000Y262556D01*
D02*
G37*
G36*
X77000Y148991D02*
X76226Y148889D01*
X75504Y148590D01*
X74885Y148115D01*
X74410Y147495D01*
X74111Y146774D01*
X74009Y146000D01*
X74111Y145226D01*
X74410Y144504D01*
X74885Y143885D01*
X75504Y143410D01*
X76226Y143111D01*
X77000Y143009D01*
X77774Y143111D01*
X78496Y143410D01*
X79115Y143885D01*
X79590Y144504D01*
X79889Y145226D01*
X79991Y146000D01*
X79889Y146774D01*
X79590Y147495D01*
X79115Y148115D01*
X78496Y148590D01*
X77774Y148889D01*
X77000Y148991D01*
D02*
G37*
G36*
X13000Y161991D02*
X12226Y161889D01*
X11505Y161590D01*
X10885Y161115D01*
X10410Y160495D01*
X10111Y159774D01*
X10009Y159000D01*
X10111Y158226D01*
X10410Y157504D01*
X10885Y156885D01*
X11505Y156410D01*
X11675Y156339D01*
Y149087D01*
X11306Y148934D01*
X10604Y148396D01*
X10066Y147694D01*
X9727Y146877D01*
X9612Y146000D01*
X9727Y145123D01*
X10066Y144306D01*
X10604Y143604D01*
X11306Y143066D01*
X12123Y142727D01*
X13000Y142612D01*
X13877Y142727D01*
X14694Y143066D01*
X15396Y143604D01*
X15934Y144306D01*
X16273Y145123D01*
X16388Y146000D01*
X16273Y146877D01*
X15934Y147694D01*
X15396Y148396D01*
X14694Y148934D01*
X14325Y149087D01*
Y156339D01*
X14495Y156410D01*
X15115Y156885D01*
X15590Y157504D01*
X15889Y158226D01*
X15991Y159000D01*
X15889Y159774D01*
X15590Y160495D01*
X15115Y161115D01*
X14495Y161590D01*
X13774Y161889D01*
X13000Y161991D01*
D02*
G37*
G36*
X132678Y160966D02*
X126747D01*
Y155034D01*
X127265D01*
Y147682D01*
X127122Y147496D01*
X126823Y146774D01*
X126721Y146000D01*
X126823Y145226D01*
X127049Y144681D01*
Y143806D01*
X121690Y138447D01*
X75014D01*
X67377Y146084D01*
X67273Y146877D01*
X66934Y147694D01*
X66396Y148396D01*
X65694Y148934D01*
X64877Y149273D01*
X64000Y149388D01*
X63123Y149273D01*
X62306Y148934D01*
X61671Y148447D01*
X56232D01*
X55664Y148882D01*
X54861Y149215D01*
X54000Y149328D01*
X53139Y149215D01*
X52336Y148882D01*
X51646Y148354D01*
X51117Y147664D01*
X50785Y146862D01*
X50671Y146000D01*
X50785Y145139D01*
X51117Y144336D01*
X51646Y143646D01*
X52336Y143117D01*
X53139Y142785D01*
X54000Y142672D01*
X54861Y142785D01*
X55664Y143117D01*
X56232Y143553D01*
X61671D01*
X62306Y143066D01*
X63123Y142727D01*
X63916Y142623D01*
X72270Y134270D01*
X73064Y133739D01*
X74000Y133553D01*
X122703D01*
X123640Y133739D01*
X124434Y134270D01*
X131226Y141062D01*
X131756Y141856D01*
X131943Y142792D01*
Y143553D01*
X138095D01*
X138217Y143460D01*
X138938Y143161D01*
X139712Y143059D01*
X140486Y143161D01*
X141208Y143460D01*
X141827Y143935D01*
X142302Y144555D01*
X142601Y145276D01*
X142703Y146050D01*
X142601Y146824D01*
X142302Y147546D01*
X141827Y148165D01*
X141208Y148641D01*
X140486Y148939D01*
X139712Y149041D01*
X138938Y148939D01*
X138217Y148641D01*
X137964Y148447D01*
X132159D01*
Y155034D01*
X132678D01*
Y160966D01*
D02*
G37*
G36*
X54000Y139329D02*
X53139Y139215D01*
X52336Y138883D01*
X51646Y138354D01*
X51117Y137664D01*
X50785Y136862D01*
X50671Y136000D01*
X50785Y135138D01*
X51117Y134336D01*
X51646Y133646D01*
X52336Y133117D01*
X53139Y132785D01*
X54000Y132671D01*
X54861Y132785D01*
X55664Y133117D01*
X56354Y133646D01*
X56883Y134336D01*
X57215Y135138D01*
X57328Y136000D01*
X57215Y136862D01*
X56883Y137664D01*
X56354Y138354D01*
X55664Y138883D01*
X54861Y139215D01*
X54000Y139329D01*
D02*
G37*
G36*
X64400Y129134D02*
Y126400D01*
X67134D01*
X67078Y126825D01*
X66759Y127593D01*
X66253Y128253D01*
X65593Y128759D01*
X64825Y129078D01*
X64400Y129134D01*
D02*
G37*
G36*
X63600D02*
X63175Y129078D01*
X62407Y128759D01*
X61747Y128253D01*
X61241Y127593D01*
X60922Y126825D01*
X60866Y126400D01*
X63600D01*
Y129134D01*
D02*
G37*
G36*
X67134Y125600D02*
X64400D01*
Y122866D01*
X64825Y122922D01*
X65593Y123241D01*
X66253Y123747D01*
X66759Y124407D01*
X67078Y125175D01*
X67134Y125600D01*
D02*
G37*
G36*
X63600D02*
X60866D01*
X60922Y125175D01*
X61241Y124407D01*
X61747Y123747D01*
X62407Y123241D01*
X63175Y122922D01*
X63600Y122866D01*
Y125600D01*
D02*
G37*
G36*
X87000Y129388D02*
X86123Y129272D01*
X85306Y128934D01*
X84604Y128396D01*
X84066Y127694D01*
X83728Y126877D01*
X83612Y126000D01*
X83728Y125123D01*
X84066Y124306D01*
X84604Y123604D01*
X85306Y123066D01*
X86123Y122728D01*
X87000Y122612D01*
X87877Y122728D01*
X88694Y123066D01*
X89396Y123604D01*
X89934Y124306D01*
X90272Y125123D01*
X90388Y126000D01*
X90272Y126877D01*
X89934Y127694D01*
X89396Y128396D01*
X88694Y128934D01*
X87877Y129272D01*
X87000Y129388D01*
D02*
G37*
G36*
X129712Y118991D02*
X128938Y118889D01*
X128217Y118590D01*
X128030Y118447D01*
X121394D01*
X121208Y118590D01*
X120486Y118889D01*
X119712Y118991D01*
X118938Y118889D01*
X118217Y118590D01*
X117597Y118115D01*
X117122Y117496D01*
X116823Y116774D01*
X116792Y116541D01*
X108698Y108447D01*
X55682D01*
X55496Y108590D01*
X54774Y108889D01*
X54000Y108991D01*
X53226Y108889D01*
X52504Y108590D01*
X51885Y108115D01*
X51410Y107495D01*
X51111Y106774D01*
X51009Y106000D01*
X51111Y105226D01*
X51410Y104505D01*
X51553Y104318D01*
Y97682D01*
X51410Y97496D01*
X51111Y96774D01*
X51009Y96000D01*
X51111Y95226D01*
X51410Y94504D01*
X51885Y93885D01*
X52504Y93410D01*
X53226Y93111D01*
X54000Y93009D01*
X54774Y93111D01*
X55496Y93410D01*
X56115Y93885D01*
X56590Y94504D01*
X56889Y95226D01*
X56991Y96000D01*
X56889Y96774D01*
X56590Y97496D01*
X56447Y97682D01*
Y103553D01*
X109712D01*
X110649Y103739D01*
X111442Y104270D01*
X120253Y113080D01*
X120486Y113111D01*
X121208Y113410D01*
X121394Y113553D01*
X127265D01*
Y111162D01*
X126570D01*
Y104838D01*
X132894D01*
Y111162D01*
X132159D01*
Y114318D01*
X132302Y114504D01*
X132601Y115226D01*
X132703Y116000D01*
X132601Y116774D01*
X132302Y117496D01*
X131827Y118115D01*
X131208Y118590D01*
X130486Y118889D01*
X129712Y118991D01*
D02*
G37*
G36*
X97400Y118737D02*
Y116400D01*
X99737D01*
X99694Y116722D01*
X99416Y117395D01*
X98972Y117972D01*
X98395Y118416D01*
X97722Y118694D01*
X97400Y118737D01*
D02*
G37*
G36*
X24400Y119074D02*
Y116400D01*
X27074D01*
X27020Y116809D01*
X26708Y117563D01*
X26211Y118211D01*
X25563Y118708D01*
X24809Y119020D01*
X24400Y119074D01*
D02*
G37*
G36*
X23600D02*
X23191Y119020D01*
X22437Y118708D01*
X21789Y118211D01*
X21292Y117563D01*
X20980Y116809D01*
X20926Y116400D01*
X23600D01*
Y119074D01*
D02*
G37*
G36*
X96600Y118737D02*
X96278Y118694D01*
X95605Y118416D01*
X95028Y117972D01*
X94584Y117395D01*
X94306Y116722D01*
X94263Y116400D01*
X96600D01*
Y118737D01*
D02*
G37*
G36*
X99737Y115600D02*
X97400D01*
Y113263D01*
X97722Y113306D01*
X98395Y113584D01*
X98972Y114028D01*
X99416Y114605D01*
X99694Y115278D01*
X99737Y115600D01*
D02*
G37*
G36*
X96600D02*
X94263D01*
X94306Y115278D01*
X94584Y114605D01*
X95028Y114028D01*
X95605Y113584D01*
X96278Y113306D01*
X96600Y113263D01*
Y115600D01*
D02*
G37*
G36*
X139712Y119041D02*
X138938Y118939D01*
X138217Y118640D01*
X137597Y118165D01*
X137122Y117546D01*
X136823Y116824D01*
X136721Y116050D01*
X136823Y115276D01*
X137122Y114555D01*
X137597Y113935D01*
X138217Y113460D01*
X138938Y113161D01*
X139712Y113059D01*
X140486Y113161D01*
X141208Y113460D01*
X141827Y113935D01*
X142302Y114555D01*
X142601Y115276D01*
X142703Y116050D01*
X142601Y116824D01*
X142302Y117546D01*
X141827Y118165D01*
X141208Y118640D01*
X140486Y118939D01*
X139712Y119041D01*
D02*
G37*
G36*
X54000Y119328D02*
X53139Y119215D01*
X52336Y118883D01*
X51646Y118354D01*
X51117Y117664D01*
X50977Y117325D01*
X48428D01*
X47921Y117225D01*
X47491Y116937D01*
X27879Y97325D01*
X26661D01*
X26590Y97496D01*
X26115Y98115D01*
X25495Y98590D01*
X24774Y98889D01*
X24000Y98991D01*
X23226Y98889D01*
X22504Y98590D01*
X21885Y98115D01*
X21410Y97496D01*
X21111Y96774D01*
X21009Y96000D01*
X21111Y95226D01*
X21410Y94504D01*
X21885Y93885D01*
X22504Y93410D01*
X23226Y93111D01*
X24000Y93009D01*
X24774Y93111D01*
X25495Y93410D01*
X26115Y93885D01*
X26590Y94504D01*
X26661Y94674D01*
X28428D01*
X28936Y94775D01*
X29366Y95063D01*
X48977Y114674D01*
X50977D01*
X51117Y114336D01*
X51646Y113646D01*
X52336Y113118D01*
X53139Y112785D01*
X54000Y112671D01*
X54861Y112785D01*
X55664Y113118D01*
X56354Y113646D01*
X56883Y114336D01*
X57023Y114674D01*
X74339D01*
X74410Y114505D01*
X74885Y113885D01*
X75504Y113410D01*
X76226Y113111D01*
X77000Y113009D01*
X77774Y113111D01*
X78496Y113410D01*
X79115Y113885D01*
X79590Y114505D01*
X79889Y115226D01*
X79991Y116000D01*
X79889Y116774D01*
X79590Y117496D01*
X79115Y118115D01*
X78496Y118590D01*
X77774Y118889D01*
X77000Y118991D01*
X76226Y118889D01*
X75504Y118590D01*
X74885Y118115D01*
X74410Y117496D01*
X74339Y117325D01*
X57023D01*
X56883Y117664D01*
X56354Y118354D01*
X55664Y118883D01*
X54861Y119215D01*
X54000Y119328D01*
D02*
G37*
G36*
X27074Y115600D02*
X24400D01*
Y112926D01*
X24809Y112980D01*
X25563Y113292D01*
X26211Y113789D01*
X26708Y114437D01*
X27020Y115191D01*
X27074Y115600D01*
D02*
G37*
G36*
X23600D02*
X20926D01*
X20980Y115191D01*
X21292Y114437D01*
X21789Y113789D01*
X22437Y113292D01*
X23191Y112980D01*
X23600Y112926D01*
Y115600D01*
D02*
G37*
G36*
X13000Y129388D02*
X12123Y129272D01*
X11306Y128934D01*
X10604Y128396D01*
X10066Y127694D01*
X9727Y126877D01*
X9612Y126000D01*
X9727Y125123D01*
X10066Y124306D01*
X10604Y123604D01*
X11306Y123066D01*
X12123Y122728D01*
X13000Y122612D01*
X13877Y122728D01*
X14694Y123066D01*
X15396Y123604D01*
X15934Y124306D01*
X16087Y124674D01*
X20977D01*
X21117Y124336D01*
X21646Y123646D01*
X22336Y123117D01*
X23138Y122785D01*
X24000Y122671D01*
X24861Y122785D01*
X25664Y123117D01*
X26354Y123646D01*
X26678Y124069D01*
X27310Y124144D01*
X29675Y121779D01*
Y110558D01*
X26956Y107840D01*
X26293Y107883D01*
X26115Y108115D01*
X25495Y108590D01*
X24774Y108889D01*
X24000Y108991D01*
X23226Y108889D01*
X22504Y108590D01*
X21885Y108115D01*
X21410Y107495D01*
X21111Y106774D01*
X21009Y106000D01*
X21111Y105226D01*
X21410Y104505D01*
X21885Y103885D01*
X22504Y103410D01*
X23226Y103111D01*
X24000Y103009D01*
X24774Y103111D01*
X25495Y103410D01*
X26115Y103885D01*
X26590Y104505D01*
X26697Y104763D01*
X27080D01*
X27587Y104864D01*
X28017Y105151D01*
X31937Y109072D01*
X32225Y109502D01*
X32326Y110009D01*
Y122328D01*
X32225Y122836D01*
X31937Y123266D01*
X28266Y126937D01*
X27836Y127225D01*
X27329Y127325D01*
X27023D01*
X26882Y127664D01*
X26354Y128354D01*
X25664Y128883D01*
X24861Y129215D01*
X24000Y129329D01*
X23138Y129215D01*
X22336Y128883D01*
X21646Y128354D01*
X21117Y127664D01*
X20977Y127325D01*
X16087D01*
X15934Y127694D01*
X15396Y128396D01*
X14694Y128934D01*
X13877Y129272D01*
X13000Y129388D01*
D02*
G37*
G36*
X130132Y100935D02*
Y98400D01*
X132667D01*
X132618Y98773D01*
X132319Y99494D01*
X131844Y100112D01*
X131226Y100587D01*
X130505Y100886D01*
X130132Y100935D01*
D02*
G37*
G36*
X129332D02*
X128959Y100886D01*
X128238Y100587D01*
X127619Y100112D01*
X127145Y99494D01*
X126846Y98773D01*
X126797Y98400D01*
X129332D01*
Y100935D01*
D02*
G37*
G36*
X132667Y97600D02*
X130132D01*
Y95065D01*
X130505Y95114D01*
X131226Y95413D01*
X131844Y95888D01*
X132319Y96506D01*
X132618Y97227D01*
X132667Y97600D01*
D02*
G37*
G36*
X129332D02*
X126797D01*
X126846Y97227D01*
X127145Y96506D01*
X127619Y95888D01*
X128238Y95413D01*
X128959Y95114D01*
X129332Y95065D01*
Y97600D01*
D02*
G37*
G36*
X126400Y90555D02*
Y88020D01*
X128935D01*
X128886Y88393D01*
X128587Y89114D01*
X128112Y89732D01*
X127494Y90207D01*
X126773Y90506D01*
X126400Y90555D01*
D02*
G37*
G36*
X125600D02*
X125227Y90506D01*
X124506Y90207D01*
X123888Y89732D01*
X123413Y89114D01*
X123114Y88393D01*
X123065Y88020D01*
X125600D01*
Y90555D01*
D02*
G37*
G36*
X128935Y87220D02*
X126400D01*
Y84685D01*
X126773Y84734D01*
X127494Y85033D01*
X128112Y85508D01*
X128587Y86126D01*
X128886Y86847D01*
X128935Y87220D01*
D02*
G37*
G36*
X125600D02*
X123065D01*
X123114Y86847D01*
X123413Y86126D01*
X123888Y85508D01*
X124506Y85033D01*
X125227Y84734D01*
X125600Y84685D01*
Y87220D01*
D02*
G37*
G36*
X148900Y80435D02*
Y77900D01*
X151435D01*
X151386Y78273D01*
X151087Y78994D01*
X150612Y79612D01*
X149994Y80087D01*
X149273Y80386D01*
X148900Y80435D01*
D02*
G37*
G36*
X148100D02*
X147727Y80386D01*
X147006Y80087D01*
X146388Y79612D01*
X145913Y78994D01*
X145614Y78273D01*
X145565Y77900D01*
X148100D01*
Y80435D01*
D02*
G37*
G36*
X92900Y79435D02*
Y76900D01*
X95435D01*
X95386Y77273D01*
X95087Y77994D01*
X94612Y78613D01*
X93994Y79087D01*
X93273Y79386D01*
X92900Y79435D01*
D02*
G37*
G36*
X92100D02*
X91727Y79386D01*
X91006Y79087D01*
X90387Y78613D01*
X89913Y77994D01*
X89614Y77273D01*
X89565Y76900D01*
X92100D01*
Y79435D01*
D02*
G37*
G36*
X151435Y77100D02*
X148900D01*
Y74565D01*
X149273Y74614D01*
X149994Y74913D01*
X150612Y75388D01*
X151087Y76006D01*
X151386Y76727D01*
X151435Y77100D01*
D02*
G37*
G36*
X148100D02*
X145565D01*
X145614Y76727D01*
X145913Y76006D01*
X146388Y75388D01*
X147006Y74913D01*
X147727Y74614D01*
X148100Y74565D01*
Y77100D01*
D02*
G37*
G36*
X129162Y80782D02*
X122838D01*
Y74458D01*
X129162D01*
Y75173D01*
X136338D01*
X136905Y74738D01*
X137674Y74419D01*
X138500Y74311D01*
X139325Y74419D01*
X140095Y74738D01*
X140755Y75245D01*
X141262Y75905D01*
X141581Y76674D01*
X141689Y77500D01*
X141581Y78325D01*
X141262Y79095D01*
X140755Y79755D01*
X140095Y80262D01*
X139325Y80581D01*
X138500Y80689D01*
X137674Y80581D01*
X136905Y80262D01*
X136651Y80067D01*
X129162D01*
Y80782D01*
D02*
G37*
G36*
X95435Y76100D02*
X92900D01*
Y73565D01*
X93273Y73614D01*
X93994Y73913D01*
X94612Y74388D01*
X95087Y75006D01*
X95386Y75727D01*
X95435Y76100D01*
D02*
G37*
G36*
X92100D02*
X89565D01*
X89614Y75727D01*
X89913Y75006D01*
X90387Y74388D01*
X91006Y73913D01*
X91727Y73614D01*
X92100Y73565D01*
Y76100D01*
D02*
G37*
G36*
X72500Y79689D02*
X71675Y79581D01*
X70905Y79262D01*
X70245Y78755D01*
X69738Y78095D01*
X69419Y77325D01*
X69311Y76500D01*
X69419Y75674D01*
X69738Y74905D01*
X70245Y74245D01*
X70905Y73738D01*
X71675Y73419D01*
X72500Y73311D01*
X73326Y73419D01*
X74095Y73738D01*
X74755Y74245D01*
X75262Y74905D01*
X75581Y75674D01*
X75689Y76500D01*
X75581Y77325D01*
X75262Y78095D01*
X74755Y78755D01*
X74095Y79262D01*
X73326Y79581D01*
X72500Y79689D01*
D02*
G37*
G36*
X158500Y80689D02*
X157675Y80581D01*
X156905Y80262D01*
X156245Y79755D01*
X155738Y79095D01*
X155419Y78325D01*
X155311Y77500D01*
X155419Y76674D01*
X155738Y75905D01*
X156053Y75495D01*
Y67514D01*
X153701Y65162D01*
X150838D01*
Y64447D01*
X139829D01*
X139194Y64934D01*
X138377Y65272D01*
X137500Y65388D01*
X136623Y65272D01*
X135806Y64934D01*
X135171Y64447D01*
X129732D01*
X129164Y64883D01*
X128361Y65215D01*
X127500Y65329D01*
X126638Y65215D01*
X125836Y64883D01*
X125146Y64354D01*
X124618Y63664D01*
X124285Y62862D01*
X124171Y62000D01*
X124285Y61138D01*
X124618Y60336D01*
X125146Y59646D01*
X125836Y59117D01*
X126638Y58785D01*
X127500Y58671D01*
X128361Y58785D01*
X129164Y59117D01*
X129732Y59553D01*
X135171D01*
X135806Y59066D01*
X136623Y58728D01*
X137500Y58612D01*
X138377Y58728D01*
X139194Y59066D01*
X139829Y59553D01*
X150838D01*
Y58838D01*
X157162D01*
Y61701D01*
X160230Y64770D01*
X160761Y65564D01*
X160947Y66500D01*
Y75495D01*
X161262Y75905D01*
X161581Y76674D01*
X161689Y77500D01*
X161581Y78325D01*
X161262Y79095D01*
X160755Y79755D01*
X160095Y80262D01*
X159326Y80581D01*
X158500Y80689D01*
D02*
G37*
G36*
X82500Y79689D02*
X81674Y79581D01*
X80905Y79262D01*
X80245Y78755D01*
X79738Y78095D01*
X79419Y77325D01*
X79311Y76500D01*
X79419Y75674D01*
X79738Y74905D01*
X80245Y74245D01*
X80905Y73738D01*
X81174Y73627D01*
Y71500D01*
X81275Y70993D01*
X81563Y70563D01*
X86174Y65951D01*
Y64661D01*
X86005Y64590D01*
X85385Y64115D01*
X84910Y63495D01*
X84611Y62774D01*
X84509Y62000D01*
X84611Y61226D01*
X84910Y60505D01*
X85385Y59885D01*
X86005Y59410D01*
X86726Y59111D01*
X87500Y59009D01*
X88274Y59111D01*
X88995Y59410D01*
X89615Y59885D01*
X90090Y60505D01*
X90389Y61226D01*
X90491Y62000D01*
X90389Y62774D01*
X90090Y63495D01*
X89615Y64115D01*
X88995Y64590D01*
X88826Y64661D01*
Y66500D01*
X88725Y67007D01*
X88437Y67437D01*
X83825Y72049D01*
Y73627D01*
X84095Y73738D01*
X84755Y74245D01*
X85262Y74905D01*
X85581Y75674D01*
X85689Y76500D01*
X85581Y77325D01*
X85262Y78095D01*
X84755Y78755D01*
X84095Y79262D01*
X83325Y79581D01*
X82500Y79689D01*
D02*
G37*
G36*
X97500Y65329D02*
X96639Y65215D01*
X95836Y64883D01*
X95146Y64354D01*
X94617Y63664D01*
X94285Y62862D01*
X94172Y62000D01*
X94285Y61138D01*
X94617Y60336D01*
X95146Y59646D01*
X95836Y59117D01*
X96639Y58785D01*
X97500Y58671D01*
X98361Y58785D01*
X99164Y59117D01*
X99854Y59646D01*
X100383Y60336D01*
X100715Y61138D01*
X100829Y62000D01*
X100715Y62862D01*
X100383Y63664D01*
X99854Y64354D01*
X99164Y64883D01*
X98361Y65215D01*
X97500Y65329D01*
D02*
G37*
G36*
X154400Y54935D02*
Y52400D01*
X156935D01*
X156886Y52773D01*
X156587Y53494D01*
X156113Y54112D01*
X155494Y54587D01*
X154773Y54886D01*
X154400Y54935D01*
D02*
G37*
G36*
X153600D02*
X153227Y54886D01*
X152506Y54587D01*
X151888Y54112D01*
X151413Y53494D01*
X151114Y52773D01*
X151065Y52400D01*
X153600D01*
Y54935D01*
D02*
G37*
G36*
X156935Y51600D02*
X154400D01*
Y49065D01*
X154773Y49114D01*
X155494Y49413D01*
X156113Y49887D01*
X156587Y50506D01*
X156886Y51227D01*
X156935Y51600D01*
D02*
G37*
G36*
X153600D02*
X151065D01*
X151114Y51227D01*
X151413Y50506D01*
X151888Y49887D01*
X152506Y49413D01*
X153227Y49114D01*
X153600Y49065D01*
Y51600D01*
D02*
G37*
G36*
X127500Y55329D02*
X126638Y55215D01*
X125836Y54883D01*
X125146Y54354D01*
X124618Y53664D01*
X124285Y52861D01*
X124171Y52000D01*
X124285Y51139D01*
X124618Y50336D01*
X125146Y49646D01*
X125836Y49117D01*
X126638Y48785D01*
X127500Y48671D01*
X128361Y48785D01*
X129164Y49117D01*
X129854Y49646D01*
X130383Y50336D01*
X130715Y51139D01*
X130828Y52000D01*
X130715Y52861D01*
X130383Y53664D01*
X129854Y54354D01*
X129164Y54883D01*
X128361Y55215D01*
X127500Y55329D01*
D02*
G37*
G36*
X77500Y64991D02*
X76726Y64889D01*
X76004Y64590D01*
X75385Y64115D01*
X74910Y63495D01*
X74611Y62774D01*
X74509Y62000D01*
X74611Y61226D01*
X74910Y60505D01*
X75385Y59885D01*
X76004Y59410D01*
X76726Y59111D01*
X77500Y59009D01*
X78274Y59111D01*
X78444Y59181D01*
X86174Y51451D01*
Y34661D01*
X86005Y34590D01*
X85385Y34115D01*
X84910Y33496D01*
X84611Y32774D01*
X84509Y32000D01*
X84611Y31226D01*
X84910Y30505D01*
X85385Y29885D01*
X86005Y29410D01*
X86726Y29111D01*
X87500Y29009D01*
X88274Y29111D01*
X88995Y29410D01*
X89615Y29885D01*
X90090Y30505D01*
X90389Y31226D01*
X90491Y32000D01*
X90389Y32774D01*
X90090Y33496D01*
X89615Y34115D01*
X88995Y34590D01*
X88826Y34661D01*
Y50674D01*
X94477D01*
X94617Y50336D01*
X95146Y49646D01*
X95836Y49117D01*
X96639Y48785D01*
X97500Y48671D01*
X98361Y48785D01*
X99164Y49117D01*
X99854Y49646D01*
X100383Y50336D01*
X100715Y51139D01*
X100829Y52000D01*
X100715Y52861D01*
X100383Y53664D01*
X99854Y54354D01*
X99164Y54883D01*
X98361Y55215D01*
X97500Y55329D01*
X96639Y55215D01*
X95836Y54883D01*
X95146Y54354D01*
X94617Y53664D01*
X94477Y53325D01*
X88049D01*
X80319Y61056D01*
X80389Y61226D01*
X80491Y62000D01*
X80389Y62774D01*
X80090Y63495D01*
X79615Y64115D01*
X78996Y64590D01*
X78274Y64889D01*
X77500Y64991D01*
D02*
G37*
G36*
X137900Y45134D02*
Y42400D01*
X140634D01*
X140578Y42825D01*
X140259Y43593D01*
X139753Y44253D01*
X139093Y44759D01*
X138325Y45078D01*
X137900Y45134D01*
D02*
G37*
G36*
X137100D02*
X136675Y45078D01*
X135907Y44759D01*
X135247Y44253D01*
X134741Y43593D01*
X134422Y42825D01*
X134366Y42400D01*
X137100D01*
Y45134D01*
D02*
G37*
G36*
X140634Y41600D02*
X137900D01*
Y38866D01*
X138325Y38922D01*
X139093Y39241D01*
X139753Y39747D01*
X140259Y40407D01*
X140578Y41175D01*
X140634Y41600D01*
D02*
G37*
G36*
X137100D02*
X134366D01*
X134422Y41175D01*
X134741Y40407D01*
X135247Y39747D01*
X135907Y39241D01*
X136675Y38922D01*
X137100Y38866D01*
Y41600D01*
D02*
G37*
G36*
X127500Y45329D02*
X126638Y45215D01*
X125836Y44883D01*
X125146Y44354D01*
X124618Y43664D01*
X124285Y42862D01*
X124171Y42000D01*
X124285Y41138D01*
X124618Y40336D01*
X125146Y39646D01*
X125836Y39118D01*
X126638Y38785D01*
X127500Y38671D01*
X128361Y38785D01*
X129164Y39118D01*
X129854Y39646D01*
X130383Y40336D01*
X130715Y41138D01*
X130828Y42000D01*
X130715Y42862D01*
X130383Y43664D01*
X129854Y44354D01*
X129164Y44883D01*
X128361Y45215D01*
X127500Y45329D01*
D02*
G37*
G36*
X97900Y35074D02*
Y32400D01*
X100574D01*
X100520Y32809D01*
X100208Y33563D01*
X99711Y34211D01*
X99063Y34708D01*
X98309Y35020D01*
X97900Y35074D01*
D02*
G37*
G36*
X97100D02*
X96691Y35020D01*
X95937Y34708D01*
X95289Y34211D01*
X94792Y33563D01*
X94480Y32809D01*
X94426Y32400D01*
X97100D01*
Y35074D01*
D02*
G37*
G36*
X77500Y34991D02*
X76726Y34889D01*
X76004Y34590D01*
X75385Y34115D01*
X74910Y33496D01*
X74839Y33325D01*
X51500D01*
X50993Y33225D01*
X50563Y32937D01*
X43563Y25937D01*
X43275Y25507D01*
X43174Y25000D01*
Y17924D01*
X41338D01*
Y11600D01*
X47662D01*
Y17924D01*
X45825D01*
Y24451D01*
X52049Y30674D01*
X74839D01*
X74910Y30505D01*
X75385Y29885D01*
X76004Y29410D01*
X76726Y29111D01*
X77500Y29009D01*
X78274Y29111D01*
X78996Y29410D01*
X79615Y29885D01*
X80090Y30505D01*
X80389Y31226D01*
X80491Y32000D01*
X80389Y32774D01*
X80090Y33496D01*
X79615Y34115D01*
X78996Y34590D01*
X78274Y34889D01*
X77500Y34991D01*
D02*
G37*
G36*
X100574Y31600D02*
X97900D01*
Y28926D01*
X98309Y28980D01*
X99063Y29292D01*
X99711Y29789D01*
X100208Y30437D01*
X100520Y31191D01*
X100574Y31600D01*
D02*
G37*
G36*
X97100D02*
X94426D01*
X94480Y31191D01*
X94792Y30437D01*
X95289Y29789D01*
X95937Y29292D01*
X96691Y28980D01*
X97100Y28926D01*
Y31600D01*
D02*
G37*
G36*
X127500Y35329D02*
X126638Y35215D01*
X125836Y34883D01*
X125146Y34354D01*
X124618Y33664D01*
X124285Y32862D01*
X124171Y32000D01*
X124285Y31139D01*
X124618Y30336D01*
X125146Y29646D01*
X125836Y29118D01*
X126638Y28785D01*
X127500Y28672D01*
X128361Y28785D01*
X129164Y29118D01*
X129854Y29646D01*
X130383Y30336D01*
X130523Y30674D01*
X138451D01*
X149313Y19813D01*
X149005Y19070D01*
X148865Y18000D01*
X149005Y16930D01*
X149419Y15932D01*
X150076Y15076D01*
X150932Y14419D01*
X151930Y14006D01*
X153000Y13865D01*
X154070Y14006D01*
X155068Y14419D01*
X155924Y15076D01*
X156581Y15932D01*
X156994Y16930D01*
X157135Y18000D01*
X156994Y19070D01*
X156581Y20068D01*
X155924Y20924D01*
X155068Y21581D01*
X154070Y21994D01*
X153000Y22135D01*
X151930Y21994D01*
X151188Y21687D01*
X139937Y32937D01*
X139507Y33225D01*
X139000Y33325D01*
X130523D01*
X130383Y33664D01*
X129854Y34354D01*
X129164Y34883D01*
X128361Y35215D01*
X127500Y35329D01*
D02*
G37*
G36*
X129400Y14078D02*
Y10900D01*
X132578D01*
X132507Y11440D01*
X132145Y12315D01*
X131568Y13068D01*
X130815Y13645D01*
X129940Y14007D01*
X129400Y14078D01*
D02*
G37*
G36*
X97900D02*
Y10900D01*
X101078D01*
X101007Y11440D01*
X100645Y12315D01*
X100068Y13068D01*
X99316Y13645D01*
X98440Y14007D01*
X97900Y14078D01*
D02*
G37*
G36*
X128600D02*
X128060Y14007D01*
X127184Y13645D01*
X126432Y13068D01*
X125855Y12315D01*
X125493Y11440D01*
X125422Y10900D01*
X128600D01*
Y14078D01*
D02*
G37*
G36*
X97100D02*
X96560Y14007D01*
X95684Y13645D01*
X94932Y13068D01*
X94355Y12315D01*
X93993Y11440D01*
X93922Y10900D01*
X97100D01*
Y14078D01*
D02*
G37*
G36*
X156900Y11900D02*
X153400D01*
Y8400D01*
X156900D01*
Y11900D01*
D02*
G37*
G36*
X152600D02*
X149100D01*
Y8400D01*
X152600D01*
Y11900D01*
D02*
G37*
G36*
X132578Y10100D02*
X129400D01*
Y6922D01*
X129940Y6993D01*
X130815Y7355D01*
X131568Y7932D01*
X132145Y8685D01*
X132507Y9560D01*
X132578Y10100D01*
D02*
G37*
G36*
X101078D02*
X97900D01*
Y6922D01*
X98440Y6993D01*
X99316Y7355D01*
X100068Y7932D01*
X100645Y8685D01*
X101007Y9560D01*
X101078Y10100D01*
D02*
G37*
G36*
X128600D02*
X125422D01*
X125493Y9560D01*
X125855Y8685D01*
X126432Y7932D01*
X127184Y7355D01*
X128060Y6993D01*
X128600Y6922D01*
Y10100D01*
D02*
G37*
G36*
X97100D02*
X93922D01*
X93993Y9560D01*
X94355Y8685D01*
X94932Y7932D01*
X95684Y7355D01*
X96560Y6993D01*
X97100Y6922D01*
Y10100D01*
D02*
G37*
G36*
X97500Y45329D02*
X96639Y45215D01*
X95836Y44883D01*
X95146Y44354D01*
X94617Y43664D01*
X94285Y42862D01*
X94172Y42000D01*
X94285Y41138D01*
X94617Y40336D01*
X95146Y39646D01*
X95836Y39118D01*
X96639Y38785D01*
X97500Y38671D01*
X98361Y38785D01*
X99164Y39118D01*
X99854Y39646D01*
X100383Y40336D01*
X100523Y40674D01*
X102551D01*
X117675Y25551D01*
Y14064D01*
X117084Y13819D01*
X116290Y13210D01*
X115681Y12416D01*
X115298Y11492D01*
X115167Y10500D01*
X115298Y9508D01*
X115681Y8584D01*
X116290Y7790D01*
X117084Y7181D01*
X118008Y6798D01*
X119000Y6667D01*
X119992Y6798D01*
X120916Y7181D01*
X121710Y7790D01*
X122319Y8584D01*
X122702Y9508D01*
X122833Y10500D01*
X122702Y11492D01*
X122319Y12416D01*
X121710Y13210D01*
X120916Y13819D01*
X120326Y14064D01*
Y26100D01*
X120225Y26607D01*
X119937Y27037D01*
X104037Y42937D01*
X103607Y43225D01*
X103100Y43325D01*
X100523D01*
X100383Y43664D01*
X99854Y44354D01*
X99164Y44883D01*
X98361Y45215D01*
X97500Y45329D01*
D02*
G37*
G36*
X54500Y27951D02*
X53675Y27843D01*
X52905Y27524D01*
X52245Y27017D01*
X51738Y26357D01*
X51419Y25587D01*
X51311Y24762D01*
X51419Y23936D01*
X51738Y23167D01*
X52245Y22507D01*
X52905Y22000D01*
X53675Y21681D01*
X54500Y21573D01*
X55326Y21681D01*
X55595Y21793D01*
X61531Y15857D01*
X61419Y15587D01*
X61311Y14762D01*
X61419Y13937D01*
X61738Y13167D01*
X62245Y12507D01*
X62905Y12000D01*
X63674Y11681D01*
X64500Y11573D01*
X65325Y11681D01*
X65595Y11793D01*
X67825Y9563D01*
X68255Y9275D01*
X68762Y9174D01*
X83936D01*
X84181Y8584D01*
X84790Y7790D01*
X85584Y7181D01*
X86508Y6798D01*
X87500Y6667D01*
X88492Y6798D01*
X89416Y7181D01*
X90210Y7790D01*
X90819Y8584D01*
X91202Y9508D01*
X91333Y10500D01*
X91202Y11492D01*
X90819Y12416D01*
X90210Y13210D01*
X89416Y13819D01*
X88492Y14202D01*
X87500Y14333D01*
X86508Y14202D01*
X85584Y13819D01*
X84790Y13210D01*
X84181Y12416D01*
X83936Y11825D01*
X69311D01*
X67469Y13667D01*
X67581Y13937D01*
X67689Y14762D01*
X67581Y15587D01*
X67262Y16357D01*
X66755Y17017D01*
X66095Y17524D01*
X65325Y17843D01*
X64500Y17951D01*
X63674Y17843D01*
X63405Y17731D01*
X57469Y23667D01*
X57581Y23936D01*
X57689Y24762D01*
X57581Y25587D01*
X57262Y26357D01*
X56755Y27017D01*
X56095Y27524D01*
X55326Y27843D01*
X54500Y27951D01*
D02*
G37*
G36*
X156900Y7600D02*
X153400D01*
Y4100D01*
X156900D01*
Y7600D01*
D02*
G37*
G36*
X152600D02*
X149100D01*
Y4100D01*
X152600D01*
Y7600D01*
D02*
G37*
%LPD*%
D11*
X51500Y32000D02*
X77500D01*
X44500Y25000D02*
X51500Y32000D01*
X44500Y14762D02*
Y25000D01*
X169000Y203778D02*
Y243500D01*
X144222Y179000D02*
X169000Y203778D01*
X107000Y179000D02*
X144222D01*
X68762Y10500D02*
X87500D01*
X64500Y14762D02*
X68762Y10500D01*
X54500Y24762D02*
X64500Y14762D01*
X119000Y10500D02*
Y26100D01*
X103100Y42000D02*
X119000Y26100D01*
X97500Y42000D02*
X103100D01*
X87500Y62000D02*
Y66500D01*
X82500Y71500D02*
X87500Y66500D01*
X82500Y71500D02*
Y76500D01*
X87500Y32000D02*
Y52000D01*
X77500Y62000D02*
X87500Y52000D01*
X97500D01*
X139000Y32000D02*
X153000Y18000D01*
X127500Y32000D02*
X139000D01*
X125500Y290100D02*
X138911D01*
X115000Y279600D02*
X125500Y290100D01*
X115000Y269500D02*
Y279600D01*
X173134Y259366D02*
X189000Y243500D01*
X104000Y259366D02*
X173134D01*
X9811Y192189D02*
X13000Y189000D01*
X9811Y192189D02*
Y204374D01*
X13000Y189000D02*
X23000D01*
X13000Y146000D02*
Y159000D01*
X54000Y116000D02*
X77000D01*
X87000Y146000D02*
X97000D01*
X84000Y149000D02*
X87000Y146000D01*
X91000Y169000D02*
X107000D01*
Y159000D02*
Y169000D01*
X77000Y159000D02*
Y169000D01*
X66982Y159000D02*
X77000D01*
X49674D02*
Y237326D01*
Y153577D02*
Y159000D01*
X45653Y149555D02*
X49674Y153577D01*
X43500Y243500D02*
X49674Y237326D01*
X84000Y196434D02*
X92302Y204736D01*
X84000Y149000D02*
Y196434D01*
X92302Y204736D02*
Y251064D01*
X84000Y259366D02*
X92302Y251064D01*
X48428Y116000D02*
X54000D01*
X28428Y96000D02*
X48428Y116000D01*
X24000Y96000D02*
X28428D01*
X27080Y106089D02*
X31000Y110009D01*
X24089Y106089D02*
X27080D01*
X24000Y106000D02*
X24089Y106089D01*
X31000Y110009D02*
Y122328D01*
X27329Y126000D02*
X31000Y122328D01*
X24000Y126000D02*
X27329D01*
X13000D02*
X24000D01*
X37000Y152000D02*
X44000Y159000D01*
X30000Y152000D02*
X37000D01*
X24000Y146000D02*
X30000Y152000D01*
X24000Y136000D02*
Y146000D01*
X33874Y204374D02*
X34000Y204500D01*
X22410Y204374D02*
X33874D01*
X34000Y189000D02*
Y204500D01*
X44000Y189000D02*
Y204500D01*
X57000Y189000D02*
Y204500D01*
X45653Y134347D02*
Y149555D01*
Y134347D02*
X54000Y126000D01*
X49674Y159000D02*
X57000D01*
X80866Y252500D02*
X84000Y249366D01*
X38878Y252500D02*
X80866D01*
X33500Y247122D02*
X38878Y252500D01*
X33500Y225307D02*
Y247122D01*
X22410Y214216D02*
X33500Y225307D01*
X16000Y276408D02*
X29692Y290100D01*
X16000Y220406D02*
Y276408D01*
X9811Y214216D02*
X16000Y220406D01*
D37*
X137500Y62000D02*
X154000D01*
X158500Y66500D01*
Y77500D01*
X138380Y77620D02*
X138500Y77500D01*
X126000Y77620D02*
X138380D01*
X129712Y108020D02*
X129732Y108000D01*
X129712Y108020D02*
Y116000D01*
X134000Y210000D02*
X148000D01*
X139662Y146000D02*
X139712Y146050D01*
X129712Y146000D02*
X139662D01*
X129712D02*
Y158000D01*
X122703Y136000D02*
X129496Y142792D01*
Y145784D01*
X129712Y146000D01*
X74000Y136000D02*
X122703D01*
X119712Y116000D02*
X129712D01*
X109712Y106000D02*
X119712Y116000D01*
X54000Y106000D02*
X109712D01*
X127500Y62000D02*
X137500D01*
X114000Y210000D02*
Y225000D01*
X104000Y210000D02*
X114000D01*
X104000D02*
Y219366D01*
X64000Y146000D02*
X74000Y136000D01*
X54000Y146000D02*
X64000D01*
X54000Y96000D02*
Y106000D01*
D38*
X154000Y52000D02*
D03*
X126000Y87620D02*
D03*
X64500Y14762D02*
D03*
X54500Y24762D02*
D03*
X107000Y179000D02*
D03*
X67000Y204500D02*
D03*
X34000D02*
D03*
X114000Y210000D02*
D03*
X124000D02*
D03*
X134000D02*
D03*
X92500Y76500D02*
D03*
X82500D02*
D03*
X72500D02*
D03*
X84000Y210000D02*
D03*
X138500Y77500D02*
D03*
X148500D02*
D03*
X158500D02*
D03*
X129732Y98000D02*
D03*
D39*
X154000Y62000D02*
D03*
X126000Y77620D02*
D03*
X107000Y169000D02*
D03*
X129732Y108000D02*
D03*
D40*
X44500Y14762D02*
D03*
X57000Y204500D02*
D03*
X44000D02*
D03*
X104000Y210000D02*
D03*
D41*
X77000Y159000D02*
D03*
X107000D02*
D03*
X97000Y116000D02*
D03*
Y146000D02*
D03*
X77000D02*
D03*
Y116000D02*
D03*
X24000Y106000D02*
D03*
X54000D02*
D03*
X24000Y96000D02*
D03*
X54000D02*
D03*
X66982Y189000D02*
D03*
Y159000D02*
D03*
X57000Y189000D02*
D03*
Y159000D02*
D03*
X44000Y189000D02*
D03*
Y159000D02*
D03*
X34000Y189000D02*
D03*
Y159000D02*
D03*
X23000D02*
D03*
Y189000D02*
D03*
X13000D02*
D03*
Y159000D02*
D03*
X119712Y116000D02*
D03*
Y146000D02*
D03*
X129712Y116000D02*
D03*
Y146000D02*
D03*
X77500Y62000D02*
D03*
Y32000D02*
D03*
X87500D02*
D03*
Y62000D02*
D03*
X158000Y210000D02*
D03*
X129712Y168000D02*
D03*
X139712Y116050D02*
D03*
Y146050D02*
D03*
D42*
X87000Y126000D02*
D03*
Y146000D02*
D03*
X64000Y126000D02*
D03*
Y146000D02*
D03*
X13000Y126000D02*
D03*
Y146000D02*
D03*
X91000Y169000D02*
D03*
Y189000D02*
D03*
X77000D02*
D03*
Y169000D02*
D03*
X114000Y225000D02*
D03*
X134000D02*
D03*
X137500Y42000D02*
D03*
Y62000D02*
D03*
D43*
X54000Y116000D02*
D03*
Y126000D02*
D03*
Y146000D02*
D03*
Y136000D02*
D03*
X24000Y116000D02*
D03*
Y126000D02*
D03*
Y136000D02*
D03*
Y146000D02*
D03*
X115000Y269500D02*
D03*
X125000D02*
D03*
Y239500D02*
D03*
X115000D02*
D03*
X127500Y32000D02*
D03*
Y42000D02*
D03*
Y62000D02*
D03*
Y52000D02*
D03*
X97500Y32000D02*
D03*
Y42000D02*
D03*
Y52000D02*
D03*
Y62000D02*
D03*
D44*
X22410Y214216D02*
D03*
Y224059D02*
D03*
Y204374D02*
D03*
X9811D02*
D03*
Y224059D02*
D03*
Y214216D02*
D03*
D45*
X176000Y231000D02*
D03*
D46*
X148000D02*
D03*
D47*
X209000Y243500D02*
D03*
X63500D02*
D03*
D48*
X189000D02*
D03*
X169000D02*
D03*
X43500D02*
D03*
X23500D02*
D03*
D49*
X116250Y329900D02*
D03*
Y306278D02*
D03*
D50*
X153000Y18000D02*
D03*
D51*
Y8000D02*
D03*
D52*
X119000Y10500D02*
D03*
X129000D02*
D03*
X87500D02*
D03*
X97500D02*
D03*
D53*
X138911Y315100D02*
D03*
X202809D02*
D03*
X138911Y340100D02*
D03*
X202809D02*
D03*
X138911Y290100D02*
D03*
X202809D02*
D03*
X29692Y315100D02*
D03*
X93590D02*
D03*
X29692Y340100D02*
D03*
X93590D02*
D03*
X29692Y290100D02*
D03*
X93590D02*
D03*
D54*
X84000Y219366D02*
D03*
Y239366D02*
D03*
Y249366D02*
D03*
Y259366D02*
D03*
X104000D02*
D03*
Y249366D02*
D03*
Y239366D02*
D03*
Y219366D02*
D03*
D55*
X148000Y210000D02*
D03*
D56*
X129712Y158000D02*
D03*
D57*
X55000Y228600D02*
D03*
X54000Y178800D02*
D03*
Y165306D02*
D03*
X105000Y187407D02*
D03*
X142000Y174500D02*
D03*
X123000D02*
D03*
X111604D02*
D03*
X31410Y129000D02*
D03*
X59000Y131500D02*
D03*
Y140500D02*
D03*
X69000Y153069D02*
D03*
X92100Y150493D02*
D03*
Y141500D02*
D03*
X89306Y178800D02*
D03*
X72000Y163500D02*
D03*
X44634Y165500D02*
D03*
Y178800D02*
D03*
X119500Y264000D02*
D03*
X110000D02*
D03*
X116500Y288000D02*
D03*
X122919Y281000D02*
D03*
X138500Y264000D02*
D03*
X153600Y265000D02*
D03*
X77400Y248059D02*
D03*
X54009Y247881D02*
D03*
X77400Y257000D02*
D03*
X54009D02*
D03*
X88066Y235000D02*
D03*
Y244000D02*
D03*
X108028Y255000D02*
D03*
X114000Y59646D02*
D03*
X120000Y65500D02*
D03*
X115167Y79262D02*
D03*
Y100500D02*
D03*
X115000Y128883D02*
D03*
X103811Y141000D02*
D03*
X115000D02*
D03*
X107000Y100500D02*
D03*
X107162Y111000D02*
D03*
X84910Y111500D02*
D03*
Y100500D02*
D03*
X59889Y111500D02*
D03*
Y100500D02*
D03*
X43174Y104100D02*
D03*
X19000Y140500D02*
D03*
X28404Y156263D02*
D03*
X40500Y145784D02*
D03*
X36000Y116050D02*
D03*
X77000Y197000D02*
D03*
X28404Y209600D02*
D03*
Y197371D02*
D03*
X39000D02*
D03*
X55000Y212000D02*
D03*
X45500D02*
D03*
X37189Y223000D02*
D03*
X44634Y228600D02*
D03*
X70500D02*
D03*
X97500Y244000D02*
D03*
Y235000D02*
D03*
X101500Y225400D02*
D03*
X84000Y203271D02*
D03*
X91102Y197000D02*
D03*
X105500Y203799D02*
D03*
X123000Y184000D02*
D03*
X203400Y54300D02*
D03*
X103800Y4500D02*
D03*
X153600Y203700D02*
D03*
X103800Y79200D02*
D03*
X29100D02*
D03*
X78900Y328200D02*
D03*
X4200Y79200D02*
D03*
X228300Y129000D02*
D03*
X178500Y178800D02*
D03*
X4200Y253500D02*
D03*
X228300Y203700D02*
D03*
X4200Y328200D02*
D03*
X78900Y129000D02*
D03*
X203400Y153900D02*
D03*
X4200Y29400D02*
D03*
X103800Y54300D02*
D03*
X203400Y353100D02*
D03*
X153600Y153900D02*
D03*
X4200Y303300D02*
D03*
Y129000D02*
D03*
X178500Y303300D02*
D03*
X29100Y253500D02*
D03*
X54000Y153900D02*
D03*
X4200Y278400D02*
D03*
X228300D02*
D03*
X78900Y303300D02*
D03*
X54000Y278400D02*
D03*
X29100Y303300D02*
D03*
Y228600D02*
D03*
X128700Y203700D02*
D03*
X153600Y178800D02*
D03*
X29100Y328200D02*
D03*
X203400Y203700D02*
D03*
X228300Y79200D02*
D03*
Y328200D02*
D03*
X4200Y153900D02*
D03*
X228300Y178800D02*
D03*
X54000Y303300D02*
D03*
X153600D02*
D03*
X78900Y353100D02*
D03*
X153600Y253500D02*
D03*
X203400Y104100D02*
D03*
X178500Y353100D02*
D03*
X29100Y278400D02*
D03*
X178500Y54300D02*
D03*
Y79200D02*
D03*
X203400Y129000D02*
D03*
X78900Y54300D02*
D03*
X4200Y203700D02*
D03*
X29100Y353100D02*
D03*
X203400Y228600D02*
D03*
Y178800D02*
D03*
X228300Y54300D02*
D03*
X54000Y353100D02*
D03*
X4200Y104100D02*
D03*
X29100Y29400D02*
D03*
X78900Y4500D02*
D03*
X203400Y303300D02*
D03*
X178500Y129000D02*
D03*
Y153900D02*
D03*
X103800Y129000D02*
D03*
X153600Y328200D02*
D03*
X103800Y153900D02*
D03*
X153600Y104100D02*
D03*
X178500Y203700D02*
D03*
Y104100D02*
D03*
Y278400D02*
D03*
X228300Y4500D02*
D03*
X203400Y253500D02*
D03*
X178500Y29400D02*
D03*
X128700Y353100D02*
D03*
X4200Y4500D02*
D03*
X103800Y353100D02*
D03*
X4200Y178800D02*
D03*
Y54300D02*
D03*
X203400Y29400D02*
D03*
X178500Y4500D02*
D03*
X103800Y278400D02*
D03*
X54000Y4500D02*
D03*
X153600Y278400D02*
D03*
X128700Y4500D02*
D03*
X228300Y303300D02*
D03*
X78900Y228600D02*
D03*
Y278400D02*
D03*
X128700Y129000D02*
D03*
Y253500D02*
D03*
X153600Y353100D02*
D03*
X29100Y54300D02*
D03*
X103800Y29400D02*
D03*
X178500Y328200D02*
D03*
X203400Y278400D02*
D03*
X228300Y29400D02*
D03*
X203400Y328200D02*
D03*
X4200Y228600D02*
D03*
X203400Y4500D02*
D03*
X153600Y29400D02*
D03*
X54000Y328200D02*
D03*
X228300Y228600D02*
D03*
X54000Y54300D02*
D03*
X29100Y4500D02*
D03*
X103800Y328200D02*
D03*
X153600Y129000D02*
D03*
X78900Y178800D02*
D03*
X228300Y104100D02*
D03*
X29100Y178800D02*
D03*
X103800Y303300D02*
D03*
X228300Y153900D02*
D03*
X54000Y79200D02*
D03*
X228300Y253500D02*
D03*
X203400Y79200D02*
D03*
X142500Y253500D02*
D03*
X141399Y231000D02*
D03*
X154500D02*
D03*
X142000Y203700D02*
D03*
Y184000D02*
D03*
X142500Y153900D02*
D03*
Y128883D02*
D03*
Y104100D02*
D03*
M02*
