G04*
G04 #@! TF.GenerationSoftware,Altium Limited,Altium Designer,19.0.12 (326)*
G04*
G04 Layer_Color=65535*
%FSLAX25Y25*%
%MOIN*%
G70*
G01*
G75*
%ADD10C,0.00600*%
%ADD11C,0.01000*%
%ADD12C,0.00500*%
%ADD13C,0.00787*%
%ADD14C,0.00800*%
%ADD15R,0.02000X0.10000*%
%ADD16R,0.02000X0.08000*%
D10*
X163843Y57000D02*
G03*
X163843Y57000I-9843J0D01*
G01*
X135843Y82620D02*
G03*
X135843Y82620I-9843J0D01*
G01*
X116843Y174000D02*
G03*
X116843Y174000I-9843J0D01*
G01*
X80937Y156000D02*
G03*
X81937Y155000I1000J0D01*
G01*
Y163000D02*
G03*
X80937Y162000I0J-1000D01*
G01*
X103063D02*
G03*
X102063Y163000I-1000J0D01*
G01*
Y155000D02*
G03*
X103063Y156000I0J1000D01*
G01*
X100000Y119937D02*
G03*
X101000Y120937I0J1000D01*
G01*
X93000D02*
G03*
X94000Y119937I1000J0D01*
G01*
Y142063D02*
G03*
X93000Y141063I0J-1000D01*
G01*
X101000D02*
G03*
X100000Y142063I-1000J0D01*
G01*
X73000Y120937D02*
G03*
X74000Y119937I1000J0D01*
G01*
X80000D02*
G03*
X81000Y120937I0J1000D01*
G01*
Y141063D02*
G03*
X80000Y142063I-1000J0D01*
G01*
X74000D02*
G03*
X73000Y141063I0J-1000D01*
G01*
X64000Y126000D02*
G03*
X69000Y131000I0J5000D01*
G01*
X59000D02*
G03*
X64000Y126000I5000J0D01*
G01*
Y146000D02*
G03*
X59000Y141000I0J-5000D01*
G01*
X69000D02*
G03*
X64000Y146000I-5000J0D01*
G01*
X27937Y103000D02*
G03*
X28937Y102000I1000J0D01*
G01*
Y110000D02*
G03*
X27937Y109000I0J-1000D01*
G01*
X50063D02*
G03*
X49063Y110000I-1000J0D01*
G01*
Y102000D02*
G03*
X50063Y103000I0J1000D01*
G01*
X27937Y93000D02*
G03*
X28937Y92000I1000J0D01*
G01*
Y100000D02*
G03*
X27937Y99000I0J-1000D01*
G01*
X50063D02*
G03*
X49063Y100000I-1000J0D01*
G01*
Y92000D02*
G03*
X50063Y93000I0J1000D01*
G01*
X35000Y151000D02*
G03*
X43000Y151000I4000J0D01*
G01*
X71843Y204500D02*
G03*
X71843Y204500I-9843J0D01*
G01*
X63982Y185063D02*
G03*
X62982Y184063I0J-1000D01*
G01*
X70982D02*
G03*
X69982Y185063I-1000J0D01*
G01*
Y162937D02*
G03*
X70982Y163937I0J1000D01*
G01*
X62982D02*
G03*
X63982Y162937I1000J0D01*
G01*
X53000Y163937D02*
G03*
X54000Y162937I1000J0D01*
G01*
X60000D02*
G03*
X61000Y163937I0J1000D01*
G01*
Y184063D02*
G03*
X60000Y185063I-1000J0D01*
G01*
X54000D02*
G03*
X53000Y184063I0J-1000D01*
G01*
X48000D02*
G03*
X47000Y185063I-1000J0D01*
G01*
X41000D02*
G03*
X40000Y184063I0J-1000D01*
G01*
Y163937D02*
G03*
X41000Y162937I1000J0D01*
G01*
X47000D02*
G03*
X48000Y163937I0J1000D01*
G01*
X37000Y162937D02*
G03*
X38000Y163937I0J1000D01*
G01*
X30000D02*
G03*
X31000Y162937I1000J0D01*
G01*
Y185063D02*
G03*
X30000Y184063I0J-1000D01*
G01*
X38000D02*
G03*
X37000Y185063I-1000J0D01*
G01*
X26000Y162937D02*
G03*
X27000Y163937I0J1000D01*
G01*
X19000D02*
G03*
X20000Y162937I1000J0D01*
G01*
Y185063D02*
G03*
X19000Y184063I0J-1000D01*
G01*
X27000D02*
G03*
X26000Y185063I-1000J0D01*
G01*
X9000Y163937D02*
G03*
X10000Y162937I1000J0D01*
G01*
X16000D02*
G03*
X17000Y163937I0J1000D01*
G01*
Y184063D02*
G03*
X16000Y185063I-1000J0D01*
G01*
X10000D02*
G03*
X9000Y184063I0J-1000D01*
G01*
X48843Y204500D02*
G03*
X48843Y204500I-9843J0D01*
G01*
X115712Y120937D02*
G03*
X116712Y119937I1000J0D01*
G01*
X122712D02*
G03*
X123712Y120937I0J1000D01*
G01*
Y141063D02*
G03*
X122712Y142063I-1000J0D01*
G01*
X116712D02*
G03*
X115712Y141063I0J-1000D01*
G01*
X125712Y120937D02*
G03*
X126712Y119937I1000J0D01*
G01*
X132712D02*
G03*
X133712Y120937I0J1000D01*
G01*
Y141063D02*
G03*
X132712Y142063I-1000J0D01*
G01*
X126712D02*
G03*
X125712Y141063I0J-1000D01*
G01*
X73500Y36937D02*
G03*
X74500Y35937I1000J0D01*
G01*
X80500D02*
G03*
X81500Y36937I0J1000D01*
G01*
Y57063D02*
G03*
X80500Y58063I-1000J0D01*
G01*
X74500D02*
G03*
X73500Y57063I0J-1000D01*
G01*
X119000Y230000D02*
G03*
X114000Y225000I0J-5000D01*
G01*
D02*
G03*
X119000Y220000I5000J0D01*
G01*
X129000D02*
G03*
X134000Y225000I0J5000D01*
G01*
D02*
G03*
X129000Y230000I-5000J0D01*
G01*
X110000Y250500D02*
G03*
X110000Y258500I0J4000D01*
G01*
X120185Y218700D02*
G03*
X117579Y203000I3816J-8700D01*
G01*
X127816Y218700D02*
G03*
X120184Y218700I-3816J-8701D01*
G01*
X130421Y203000D02*
G03*
X127815Y218700I-6422J7000D01*
G01*
X86315Y67800D02*
G03*
X88921Y83500I-3816J8700D01*
G01*
X78684Y67800D02*
G03*
X86316Y67800I3816J8701D01*
G01*
X76079Y83500D02*
G03*
X78685Y67800I6422J-7000D01*
G01*
X90500Y35937D02*
G03*
X91500Y36937I0J1000D01*
G01*
X83500D02*
G03*
X84500Y35937I1000J0D01*
G01*
Y58063D02*
G03*
X83500Y57063I0J-1000D01*
G01*
X91500D02*
G03*
X90500Y58063I-1000J0D01*
G01*
X103000Y213000D02*
G03*
X102000Y214000I-1000J0D01*
G01*
Y206000D02*
G03*
X103000Y207000I0J1000D01*
G01*
X85000D02*
G03*
X86000Y206000I1000J0D01*
G01*
Y214000D02*
G03*
X85000Y213000I0J-1000D01*
G01*
X142079Y84500D02*
G03*
X144685Y68800I6422J-7000D01*
G01*
X144684Y68800D02*
G03*
X152316Y68800I3816J8701D01*
G01*
X152315Y68800D02*
G03*
X154921Y84500I-3816J8700D01*
G01*
X108500Y67000D02*
G03*
X116500Y67000I4000J0D01*
G01*
X132500Y47000D02*
G03*
X137500Y42000I5000J0D01*
G01*
D02*
G03*
X142500Y47000I0J5000D01*
G01*
Y57000D02*
G03*
X137500Y62000I-5000J0D01*
G01*
D02*
G03*
X132500Y57000I0J-5000D01*
G01*
X139575Y103000D02*
G03*
X139575Y103000I-9843J0D01*
G01*
X165402Y210000D02*
G03*
X165402Y210000I-12402J0D01*
G01*
X142114Y163000D02*
G03*
X142114Y163000I-12402J0D01*
G01*
X142712Y119987D02*
G03*
X143712Y120987I0J1000D01*
G01*
X135712D02*
G03*
X136712Y119987I1000J0D01*
G01*
Y142113D02*
G03*
X135712Y141113I0J-1000D01*
G01*
X143712D02*
G03*
X142712Y142113I-1000J0D01*
G01*
X159400Y60200D02*
Y62800D01*
X158100Y61500D02*
X160600D01*
X120600Y76820D02*
Y79420D01*
X119400Y78120D02*
X121900D01*
X101600Y168200D02*
Y170800D01*
X100400Y169500D02*
X102900D01*
X103063Y156000D02*
Y162000D01*
X80937Y156000D02*
Y162000D01*
X86437Y162500D02*
X97563D01*
X86437Y155500D02*
X97563D01*
X98063Y163000D02*
X102063D01*
X98063Y155000D02*
X102063D01*
X81937Y163000D02*
X85937D01*
X81937Y155000D02*
X85937D01*
X97563Y162500D02*
X98063Y163000D01*
X97563Y155500D02*
X98063Y155000D01*
X85937Y163000D02*
X86437Y162500D01*
X85937Y155000D02*
X86437Y155500D01*
X94000Y142063D02*
X100000D01*
X94000Y119937D02*
X100000D01*
X93500Y125437D02*
Y136563D01*
X100500Y125437D02*
Y136563D01*
X93000Y137063D02*
Y141063D01*
X101000Y137063D02*
Y141063D01*
X93000Y120937D02*
Y124937D01*
X101000Y120937D02*
Y124937D01*
X93000Y137063D02*
X93500Y136563D01*
X100500D02*
X101000Y137063D01*
X93000Y124937D02*
X93500Y125437D01*
X100500D02*
X101000Y124937D01*
X82118Y121894D02*
Y150106D01*
Y121894D02*
X91882D01*
Y150106D01*
X82118D02*
X91882D01*
X73000Y137063D02*
X73500Y136563D01*
X80500D02*
X81000Y137063D01*
X73000Y124937D02*
X73500Y125437D01*
X80500D02*
X81000Y124937D01*
X73000Y137063D02*
Y141063D01*
X81000Y137063D02*
Y141063D01*
X73000Y120937D02*
Y124937D01*
X81000Y120937D02*
Y124937D01*
X73500Y125437D02*
Y136563D01*
X80500Y125437D02*
Y136563D01*
X74000Y142063D02*
X80000D01*
X74000Y119937D02*
X80000D01*
X59000Y131000D02*
Y133500D01*
Y141000D01*
X69000Y131000D02*
Y141000D01*
X50063Y103000D02*
Y109000D01*
X27937Y103000D02*
Y109000D01*
X33437Y109500D02*
X44563D01*
X33437Y102500D02*
X44563D01*
X45063Y110000D02*
X49063D01*
X45063Y102000D02*
X49063D01*
X28937Y110000D02*
X32937D01*
X28937Y102000D02*
X32937D01*
X44563Y109500D02*
X45063Y110000D01*
X44563Y102500D02*
X45063Y102000D01*
X32937Y110000D02*
X33437Y109500D01*
X32937Y102000D02*
X33437Y102500D01*
X50063Y93000D02*
Y99000D01*
X27937Y93000D02*
Y99000D01*
X33437Y99500D02*
X44563D01*
X33437Y92500D02*
X44563D01*
X45063Y100000D02*
X49063D01*
X45063Y92000D02*
X49063D01*
X28937Y100000D02*
X32937D01*
X28937Y92000D02*
X32937D01*
X44563Y99500D02*
X45063Y100000D01*
X44563Y92500D02*
X45063Y92000D01*
X32937Y100000D02*
X33437Y99500D01*
X32937Y92000D02*
X33437Y92500D01*
X50500Y111000D02*
Y151000D01*
X43000D02*
X50500D01*
X27500D02*
X35000D01*
X27500Y111000D02*
Y151000D01*
Y111000D02*
X50500D01*
X8118Y121894D02*
Y150106D01*
Y121894D02*
X17882D01*
Y150106D01*
X8118D02*
X17882D01*
X56200Y209900D02*
X58800D01*
X57500Y208600D02*
Y211100D01*
X86118Y164894D02*
Y193106D01*
Y164894D02*
X95882D01*
Y193106D01*
X86118D02*
X95882D01*
X81882Y164894D02*
Y193106D01*
X72118D02*
X81882D01*
X72118Y164894D02*
Y193106D01*
Y164894D02*
X81882D01*
X63982Y162937D02*
X69982D01*
X63982Y185063D02*
X69982D01*
X70482Y168437D02*
Y179563D01*
X63482Y168437D02*
Y179563D01*
X70982Y163937D02*
Y167937D01*
X62982Y163937D02*
Y167937D01*
X70982Y180063D02*
Y184063D01*
X62982Y180063D02*
Y184063D01*
X70482Y168437D02*
X70982Y167937D01*
X62982D02*
X63482Y168437D01*
X70482Y179563D02*
X70982Y180063D01*
X62982D02*
X63482Y179563D01*
X53000Y180063D02*
X53500Y179563D01*
X60500D02*
X61000Y180063D01*
X53000Y167937D02*
X53500Y168437D01*
X60500D02*
X61000Y167937D01*
X53000Y180063D02*
Y184063D01*
X61000Y180063D02*
Y184063D01*
X53000Y163937D02*
Y167937D01*
X61000Y163937D02*
Y167937D01*
X53500Y168437D02*
Y179563D01*
X60500Y168437D02*
Y179563D01*
X54000Y185063D02*
X60000D01*
X54000Y162937D02*
X60000D01*
X47500Y168437D02*
X48000Y167937D01*
X40000D02*
X40500Y168437D01*
X47500Y179563D02*
X48000Y180063D01*
X40000D02*
X40500Y179563D01*
X48000Y163937D02*
Y167937D01*
X40000Y163937D02*
Y167937D01*
X48000Y180063D02*
Y184063D01*
X40000Y180063D02*
Y184063D01*
X47500Y168437D02*
Y179563D01*
X40500Y168437D02*
Y179563D01*
X41000Y162937D02*
X47000D01*
X41000Y185063D02*
X47000D01*
X31000D02*
X37000D01*
X31000Y162937D02*
X37000D01*
X30500Y168437D02*
Y179563D01*
X37500Y168437D02*
Y179563D01*
X30000Y180063D02*
Y184063D01*
X38000Y180063D02*
Y184063D01*
X30000Y163937D02*
Y167937D01*
X38000Y163937D02*
Y167937D01*
X30000Y180063D02*
X30500Y179563D01*
X37500D02*
X38000Y180063D01*
X30000Y167937D02*
X30500Y168437D01*
X37500D02*
X38000Y167937D01*
X20000Y185063D02*
X26000D01*
X20000Y162937D02*
X26000D01*
X19500Y168437D02*
Y179563D01*
X26500Y168437D02*
Y179563D01*
X19000Y180063D02*
Y184063D01*
X27000Y180063D02*
Y184063D01*
X19000Y163937D02*
Y167937D01*
X27000Y163937D02*
Y167937D01*
X19000Y180063D02*
X19500Y179563D01*
X26500D02*
X27000Y180063D01*
X19000Y167937D02*
X19500Y168437D01*
X26500D02*
X27000Y167937D01*
X9000Y180063D02*
X9500Y179563D01*
X16500D02*
X17000Y180063D01*
X9000Y167937D02*
X9500Y168437D01*
X16500D02*
X17000Y167937D01*
X9000Y180063D02*
Y184063D01*
X17000Y180063D02*
Y184063D01*
X9000Y163937D02*
Y167937D01*
X17000Y163937D02*
Y167937D01*
X9500Y168437D02*
Y179563D01*
X16500Y168437D02*
Y179563D01*
X10000Y185063D02*
X16000D01*
X10000Y162937D02*
X16000D01*
X42200Y199100D02*
X44800D01*
X43500Y197900D02*
Y200400D01*
X115712Y137063D02*
X116212Y136563D01*
X123212D02*
X123712Y137063D01*
X115712Y124937D02*
X116212Y125437D01*
X123212D02*
X123712Y124937D01*
X115712Y137063D02*
Y141063D01*
X123712Y137063D02*
Y141063D01*
X115712Y120937D02*
Y124937D01*
X123712Y120937D02*
Y124937D01*
X116212Y125437D02*
Y136563D01*
X123212Y125437D02*
Y136563D01*
X116712Y142063D02*
X122712D01*
X116712Y119937D02*
X122712D01*
X125712Y137063D02*
X126212Y136563D01*
X133212D02*
X133712Y137063D01*
X125712Y124937D02*
X126212Y125437D01*
X133212D02*
X133712Y124937D01*
X125712Y137063D02*
Y141063D01*
X133712Y137063D02*
Y141063D01*
X125712Y120937D02*
Y124937D01*
X133712Y120937D02*
Y124937D01*
X126212Y125437D02*
Y136563D01*
X133212Y125437D02*
Y136563D01*
X126712Y142063D02*
X132712D01*
X126712Y119937D02*
X132712D01*
X152700Y226000D02*
X172000D01*
Y236000D01*
X152650Y226000D02*
Y236000D01*
X156050D02*
X172000D01*
X152650D02*
X156650D01*
X73500Y53063D02*
X74000Y52563D01*
X81000D02*
X81500Y53063D01*
X73500Y40937D02*
X74000Y41437D01*
X81000D02*
X81500Y40937D01*
X73500Y53063D02*
Y57063D01*
X81500Y53063D02*
Y57063D01*
X73500Y36937D02*
Y40937D01*
X81500Y36937D02*
Y40937D01*
X74000Y41437D02*
Y52563D01*
X81000Y41437D02*
Y52563D01*
X74500Y58063D02*
X80500D01*
X74500Y35937D02*
X80500D01*
X119000Y230000D02*
X129000D01*
X119000Y220000D02*
X126500D01*
X129000D01*
X110000Y266000D02*
X130000D01*
X110000Y243000D02*
X130000D01*
Y266000D01*
X110000Y243000D02*
Y250500D01*
Y258500D02*
Y266000D01*
X117579Y203000D02*
X130421D01*
X76079Y83500D02*
X88921D01*
X84500Y58063D02*
X90500D01*
X84500Y35937D02*
X90500D01*
X84000Y41437D02*
Y52563D01*
X91000Y41437D02*
Y52563D01*
X83500Y53063D02*
Y57063D01*
X91500Y53063D02*
Y57063D01*
X83500Y36937D02*
Y40937D01*
X91500Y36937D02*
Y40937D01*
X83500Y53063D02*
X84000Y52563D01*
X91000D02*
X91500Y53063D01*
X83500Y40937D02*
X84000Y41437D01*
X91000D02*
X91500Y40937D01*
X103000Y207000D02*
Y213000D01*
X86000Y206000D02*
X102000D01*
X86000Y214000D02*
X102000D01*
X85000Y207000D02*
Y213000D01*
X142079Y84500D02*
X154921D01*
X124000Y27000D02*
Y67000D01*
X116500D02*
X124000D01*
X101000D02*
X108500D01*
X101000Y27000D02*
Y67000D01*
Y27000D02*
X124000D01*
X132500Y47000D02*
Y57000D01*
X142500Y47000D02*
Y54500D01*
Y57000D01*
X133832Y107500D02*
X136332D01*
X135132Y106200D02*
Y108800D01*
X147200Y215400D02*
X149800D01*
X148500Y214100D02*
Y216600D01*
X124312Y157200D02*
Y159800D01*
X123112Y158500D02*
X125612D01*
X136712Y142113D02*
X142712D01*
X136712Y119987D02*
X142712D01*
X136212Y125487D02*
Y136613D01*
X143212Y125487D02*
Y136613D01*
X135712Y137113D02*
Y141113D01*
X143712Y137113D02*
Y141113D01*
X135712Y120987D02*
Y124987D01*
X143712Y120987D02*
Y124987D01*
X135712Y137113D02*
X136212Y136613D01*
X143212D02*
X143712Y137113D01*
X135712Y124987D02*
X136212Y125487D01*
X143212D02*
X143712Y124987D01*
X131666Y83287D02*
X131999Y83620D01*
Y84287D01*
X131666Y84620D01*
X130333D01*
X130000Y84287D01*
Y83620D01*
X130333Y83287D01*
X131999Y81288D02*
Y82621D01*
X131000D01*
X131333Y81954D01*
Y81621D01*
X131000Y81288D01*
X130333D01*
X130000Y81621D01*
Y82287D01*
X130333Y82621D01*
X82537Y70027D02*
Y71360D01*
X82204Y71693D01*
X81537D01*
X81204Y71360D01*
Y70027D01*
X81537Y69694D01*
X82204D01*
X81871Y70360D02*
X82537Y69694D01*
X82204D02*
X82537Y70027D01*
X83204Y69694D02*
X83870D01*
X83537D01*
Y71693D01*
X83204Y71360D01*
X120762Y214595D02*
Y216594D01*
X121762D01*
X122095Y216261D01*
Y215594D01*
X121762Y215261D01*
X120762D01*
X121428D02*
X122095Y214595D01*
X124094Y216594D02*
X122761D01*
Y214595D01*
X124094D01*
X122761Y215594D02*
X123428D01*
X126094Y216261D02*
X125760Y216594D01*
X125094D01*
X124761Y216261D01*
Y214928D01*
X125094Y214595D01*
X125760D01*
X126094Y214928D01*
Y215594D01*
X125427D01*
X128093Y214595D02*
X126760D01*
X128093Y215928D01*
Y216261D01*
X127760Y216594D01*
X127093D01*
X126760Y216261D01*
X145390Y70694D02*
Y72693D01*
X146389D01*
X146723Y72360D01*
Y71694D01*
X146389Y71360D01*
X145390D01*
X146056D02*
X146723Y70694D01*
X148722Y72693D02*
X147389D01*
Y70694D01*
X148722D01*
X147389Y71694D02*
X148056D01*
X150721Y72360D02*
X150388Y72693D01*
X149722D01*
X149388Y72360D01*
Y71027D01*
X149722Y70694D01*
X150388D01*
X150721Y71027D01*
Y71694D01*
X150055D01*
X151388Y70694D02*
X152054D01*
X151721D01*
Y72693D01*
X151388Y72360D01*
X149666Y56667D02*
X149999Y57000D01*
Y57667D01*
X149666Y58000D01*
X148333D01*
X148000Y57667D01*
Y57000D01*
X148333Y56667D01*
X149999Y54668D02*
X149666Y55334D01*
X149000Y56001D01*
X148333D01*
X148000Y55667D01*
Y55001D01*
X148333Y54668D01*
X148667D01*
X149000Y55001D01*
Y56001D01*
D11*
X41276Y962D02*
X67653D01*
X41276D02*
Y28521D01*
X67653Y962D02*
Y28521D01*
X41276D02*
X67653D01*
X138567Y1218D02*
Y23856D01*
X109433Y1218D02*
X138567D01*
X109433D02*
Y23856D01*
X138567D01*
X107067Y1218D02*
Y23856D01*
X77933Y1218D02*
X107067D01*
X77933D02*
Y23856D01*
X107067D01*
X131860Y355848D02*
X148419D01*
Y367462D01*
Y355848D02*
X193301D01*
X148419Y367462D02*
X193301D01*
Y355848D02*
Y367462D01*
Y355848D02*
X209860D01*
Y274746D02*
Y355848D01*
X187592Y274746D02*
X209860D01*
X154128D02*
X187592D01*
Y262935D02*
Y274746D01*
X154128Y262935D02*
X187592D01*
X154128D02*
Y274746D01*
X131860D02*
X154128D01*
X131860D02*
Y355848D01*
X22641D02*
X39200D01*
Y367462D01*
Y355848D02*
X84082D01*
X39200Y367462D02*
X84082D01*
Y355848D02*
Y367462D01*
Y355848D02*
X100641D01*
Y274746D02*
Y355848D01*
X78373Y274746D02*
X100641D01*
X44909D02*
X78373D01*
Y262935D02*
Y274746D01*
X44909Y262935D02*
X78373D01*
X44909D02*
Y274746D01*
X22641D02*
X44909D01*
X22641D02*
Y355848D01*
X157359Y353098D02*
X155360D01*
X154360Y352098D01*
Y348100D01*
X155360Y347100D01*
X157359D01*
X158359Y348100D01*
Y352098D01*
X157359Y353098D01*
X160358D02*
Y348100D01*
X161358Y347100D01*
X163357D01*
X164357Y348100D01*
Y353098D01*
X166356D02*
X170355D01*
X168356D01*
Y347100D01*
X172354D02*
Y353098D01*
X175353D01*
X176353Y352098D01*
Y350099D01*
X175353Y349099D01*
X172354D01*
X178352Y353098D02*
Y348100D01*
X179352Y347100D01*
X181351D01*
X182351Y348100D01*
Y353098D01*
X184350D02*
X188349D01*
X186350D01*
Y347100D01*
X47641Y353098D02*
X49640D01*
X48641D01*
Y347100D01*
X47641D01*
X49640D01*
X52639D02*
Y353098D01*
X56638Y347100D01*
Y353098D01*
X58637Y347100D02*
Y353098D01*
X61637D01*
X62636Y352098D01*
Y350099D01*
X61637Y349099D01*
X58637D01*
X64635Y353098D02*
Y348100D01*
X65635Y347100D01*
X67634D01*
X68634Y348100D01*
Y353098D01*
X70634D02*
X74632D01*
X72633D01*
Y347100D01*
D12*
X23000Y196500D02*
Y231933D01*
X9221Y196500D02*
X23000D01*
X9221D02*
Y231933D01*
X23000D01*
X148000Y15500D02*
Y20500D01*
X158000Y15500D02*
Y20500D01*
X148000Y5500D02*
Y10500D01*
X158000Y5500D02*
Y10500D01*
X150500Y23000D02*
X155500D01*
X150500Y3000D02*
X155500D01*
X148000Y20500D02*
X150500Y23000D01*
X155500D02*
X158000Y20500D01*
X148000Y10500D02*
X150500Y13000D01*
X148000Y5500D02*
X150500Y3000D01*
X155500Y13000D02*
X158000Y15500D01*
X155500Y3000D02*
X158000Y5500D01*
X155500Y13000D02*
X158000Y10500D01*
X148000Y15500D02*
X150500Y13000D01*
D13*
X118882Y1445D02*
Y3413D01*
X129118D01*
Y1445D02*
Y3413D01*
X87382Y1445D02*
Y3413D01*
X97618D01*
Y1445D02*
Y3413D01*
D14*
X79827Y215350D02*
Y273224D01*
Y215350D02*
X108173D01*
Y273224D01*
X79827D02*
X108173D01*
X34000Y93885D02*
Y97884D01*
X35999D01*
X36666Y97217D01*
Y95884D01*
X35999Y95218D01*
X34000D01*
X35333D02*
X36666Y93885D01*
X37999D02*
X39332D01*
X38665D01*
Y97884D01*
X37999Y97217D01*
X41331D02*
X41997Y97884D01*
X43330D01*
X43997Y97217D01*
Y96551D01*
X43330Y95884D01*
X42664D01*
X43330D01*
X43997Y95218D01*
Y94551D01*
X43330Y93885D01*
X41997D01*
X41331Y94551D01*
X75000Y136000D02*
X78999D01*
Y134001D01*
X78332Y133334D01*
X76999D01*
X76333Y134001D01*
Y136000D01*
Y134667D02*
X75000Y133334D01*
Y132001D02*
Y130668D01*
Y131335D01*
X78999D01*
X78332Y132001D01*
X75000Y126003D02*
Y128669D01*
X77666Y126003D01*
X78332D01*
X78999Y126670D01*
Y128003D01*
X78332Y128669D01*
X95028Y135500D02*
X99026D01*
Y133501D01*
X98360Y132834D01*
X97027D01*
X96360Y133501D01*
Y135500D01*
Y134167D02*
X95028Y132834D01*
Y131501D02*
Y130168D01*
Y130835D01*
X99026D01*
X98360Y131501D01*
X95028Y128169D02*
Y126836D01*
Y127503D01*
X99026D01*
X98360Y128169D01*
X31937Y179000D02*
X35936D01*
Y177001D01*
X35269Y176334D01*
X33937D01*
X33270Y177001D01*
Y179000D01*
Y177667D02*
X31937Y176334D01*
Y175001D02*
Y173668D01*
Y174335D01*
X35936D01*
X35269Y175001D01*
Y171669D02*
X35936Y171003D01*
Y169670D01*
X35269Y169003D01*
X32604D01*
X31937Y169670D01*
Y171003D01*
X32604Y171669D01*
X35269D01*
X42000Y177500D02*
X45999D01*
Y175501D01*
X45332Y174834D01*
X43999D01*
X43333Y175501D01*
Y177500D01*
Y176167D02*
X42000Y174834D01*
X42666Y173501D02*
X42000Y172835D01*
Y171502D01*
X42666Y170835D01*
X45332D01*
X45999Y171502D01*
Y172835D01*
X45332Y173501D01*
X44666D01*
X43999Y172835D01*
Y170835D01*
X35495Y104000D02*
Y107999D01*
X37495D01*
X38161Y107332D01*
Y105999D01*
X37495Y105333D01*
X35495D01*
X36828D02*
X38161Y104000D01*
X39494Y107332D02*
X40161Y107999D01*
X41494D01*
X42160Y107332D01*
Y106666D01*
X41494Y105999D01*
X42160Y105333D01*
Y104666D01*
X41494Y104000D01*
X40161D01*
X39494Y104666D01*
Y105333D01*
X40161Y105999D01*
X39494Y106666D01*
Y107332D01*
X40161Y105999D02*
X41494D01*
X11000Y177405D02*
X14999D01*
Y175406D01*
X14332Y174740D01*
X12999D01*
X12333Y175406D01*
Y177405D01*
Y176073D02*
X11000Y174740D01*
X14999Y173407D02*
Y170741D01*
X14332D01*
X11666Y173407D01*
X11000D01*
X21028Y177500D02*
X25026D01*
Y175501D01*
X24360Y174834D01*
X23027D01*
X22361Y175501D01*
Y177500D01*
Y176167D02*
X21028Y174834D01*
X25026Y170835D02*
X24360Y172168D01*
X23027Y173501D01*
X21694D01*
X21028Y172835D01*
Y171502D01*
X21694Y170835D01*
X22361D01*
X23027Y171502D01*
Y173501D01*
X78217Y181334D02*
X78884Y182001D01*
Y183334D01*
X78217Y184000D01*
X75551D01*
X74885Y183334D01*
Y182001D01*
X75551Y181334D01*
X74885Y180001D02*
Y178668D01*
Y179335D01*
X78884D01*
X78217Y180001D01*
X74885Y174670D02*
X78884D01*
X76884Y176669D01*
Y174003D01*
X88332Y137334D02*
X88999Y138001D01*
Y139333D01*
X88332Y140000D01*
X85666D01*
X85000Y139333D01*
Y138001D01*
X85666Y137334D01*
X85000Y136001D02*
Y134668D01*
Y135335D01*
X88999D01*
X88332Y136001D01*
X85000Y132669D02*
Y131336D01*
Y132003D01*
X88999D01*
X88332Y132669D01*
X36666Y211021D02*
X35999Y211688D01*
X34666D01*
X34000Y211021D01*
Y208356D01*
X34666Y207689D01*
X35999D01*
X36666Y208356D01*
X37999Y207689D02*
X39332D01*
X38665D01*
Y211688D01*
X37999Y211021D01*
X41331D02*
X41997Y211688D01*
X43330D01*
X43997Y211021D01*
Y208356D01*
X43330Y207689D01*
X41997D01*
X41331Y208356D01*
Y211021D01*
X14174Y136834D02*
X14841Y137501D01*
Y138833D01*
X14174Y139500D01*
X11508D01*
X10842Y138833D01*
Y137501D01*
X11508Y136834D01*
Y135501D02*
X10842Y134835D01*
Y133502D01*
X11508Y132835D01*
X14174D01*
X14841Y133502D01*
Y134835D01*
X14174Y135501D01*
X13508D01*
X12841Y134835D01*
Y132835D01*
X6000Y237999D02*
Y234000D01*
X7999D01*
X8666Y234666D01*
Y235333D01*
X7999Y235999D01*
X6000D01*
X7999D01*
X8666Y236666D01*
Y237332D01*
X7999Y237999D01*
X6000D01*
X9999D02*
Y234666D01*
X10665Y234000D01*
X11998D01*
X12664Y234666D01*
Y237999D01*
X16663D02*
X13997D01*
Y235999D01*
X15330D01*
X13997D01*
Y234000D01*
X20662Y237999D02*
X17996D01*
Y235999D01*
X19329D01*
X17996D01*
Y234000D01*
X24661Y237999D02*
X21995D01*
Y234000D01*
X24661D01*
X21995Y235999D02*
X23328D01*
X25993Y234000D02*
Y237999D01*
X27993D01*
X28659Y237332D01*
Y235999D01*
X27993Y235333D01*
X25993D01*
X27326D02*
X28659Y234000D01*
X55000Y179000D02*
X58999D01*
Y177001D01*
X58332Y176334D01*
X56999D01*
X56333Y177001D01*
Y179000D01*
Y177667D02*
X55000Y176334D01*
Y175001D02*
Y173668D01*
Y174335D01*
X58999D01*
X58332Y175001D01*
X55000Y169670D02*
X58999D01*
X56999Y171669D01*
Y169003D01*
X65000Y179000D02*
X68999D01*
Y177001D01*
X68332Y176334D01*
X66999D01*
X66333Y177001D01*
Y179000D01*
Y177667D02*
X65000Y176334D01*
Y175001D02*
Y173668D01*
Y174335D01*
X68999D01*
X68332Y175001D01*
X68999Y169003D02*
X68332Y170336D01*
X66999Y171669D01*
X65666D01*
X65000Y171003D01*
Y169670D01*
X65666Y169003D01*
X66333D01*
X66999Y169670D01*
Y171669D01*
X87189Y157000D02*
Y160999D01*
X89189D01*
X89855Y160332D01*
Y158999D01*
X89189Y158333D01*
X87189D01*
X88522D02*
X89855Y157000D01*
X91188D02*
X92521D01*
X91854D01*
Y160999D01*
X91188Y160332D01*
X97186Y160999D02*
X94520D01*
Y158999D01*
X95853Y159666D01*
X96520D01*
X97186Y158999D01*
Y157667D01*
X96520Y157000D01*
X95187D01*
X94520Y157667D01*
X33874Y132758D02*
X35207D01*
X34541D01*
Y128759D01*
X33874D01*
X35207D01*
X39872Y132092D02*
X39206Y132758D01*
X37873D01*
X37206Y132092D01*
Y129426D01*
X37873Y128759D01*
X39206D01*
X39872Y129426D01*
X41205Y128759D02*
X42538D01*
X41871D01*
Y132758D01*
X41205Y132092D01*
X59666Y200332D02*
X58999Y200999D01*
X57666D01*
X57000Y200332D01*
Y197667D01*
X57666Y197000D01*
X58999D01*
X59666Y197667D01*
X60999Y197000D02*
X62332D01*
X61665D01*
Y200999D01*
X60999Y200332D01*
X64331D02*
X64997Y200999D01*
X66330D01*
X66997Y200332D01*
Y199666D01*
X66330Y198999D01*
X65664D01*
X66330D01*
X66997Y198333D01*
Y197667D01*
X66330Y197000D01*
X64997D01*
X64331Y197667D01*
X113832Y176334D02*
X114499Y177001D01*
Y178333D01*
X113832Y179000D01*
X111167D01*
X110500Y178333D01*
Y177001D01*
X111167Y176334D01*
X110500Y175001D02*
Y173668D01*
Y174335D01*
X114499D01*
X113832Y175001D01*
X114499Y169003D02*
Y171669D01*
X112499D01*
X113166Y170336D01*
Y169670D01*
X112499Y169003D01*
X111167D01*
X110500Y169670D01*
Y171003D01*
X111167Y171669D01*
X92332Y181334D02*
X92999Y182001D01*
Y183334D01*
X92332Y184000D01*
X89666D01*
X89000Y183334D01*
Y182001D01*
X89666Y181334D01*
X89000Y180001D02*
Y178668D01*
Y179335D01*
X92999D01*
X92332Y180001D01*
X89000Y174003D02*
Y176669D01*
X91666Y174003D01*
X92332D01*
X92999Y174670D01*
Y176003D01*
X92332Y176669D01*
X65332Y136663D02*
X65999Y137329D01*
Y138662D01*
X65332Y139329D01*
X62666D01*
X62000Y138662D01*
Y137329D01*
X62666Y136663D01*
X62000Y133330D02*
X65999D01*
X63999Y135330D01*
Y132664D01*
X161481Y232999D02*
Y229000D01*
X163480D01*
X164147Y229666D01*
Y232332D01*
X163480Y232999D01*
X161481D01*
X165480Y229000D02*
X166813D01*
X166146D01*
Y232999D01*
X165480Y232332D01*
X37999Y25000D02*
X34000D01*
Y23001D01*
X34666Y22334D01*
X35333D01*
X35999Y23001D01*
Y25000D01*
Y23001D01*
X36666Y22334D01*
X37332D01*
X37999Y23001D01*
Y25000D01*
X34000Y21001D02*
X37999D01*
Y19002D01*
X37332Y18336D01*
X35999D01*
X35333Y19002D01*
Y21001D01*
Y19668D02*
X34000Y18336D01*
X37999Y17003D02*
Y15670D01*
Y16336D01*
X34000D01*
Y17003D01*
Y15670D01*
X37332Y11005D02*
X37999Y11671D01*
Y13004D01*
X37332Y13670D01*
X34666D01*
X34000Y13004D01*
Y11671D01*
X34666Y11005D01*
X35999D01*
Y12337D01*
X37999Y9672D02*
X34000D01*
X35999D01*
Y7006D01*
X37999D01*
X34000D01*
X37999Y5673D02*
Y3007D01*
Y4340D01*
X34000D01*
X122928Y226532D02*
X122262Y227199D01*
X120929D01*
X120262Y226532D01*
Y223866D01*
X120929Y223200D01*
X122262D01*
X122928Y223866D01*
X124261Y226532D02*
X124927Y227199D01*
X126260D01*
X126927Y226532D01*
Y225866D01*
X126260Y225199D01*
X126927Y224533D01*
Y223866D01*
X126260Y223200D01*
X124927D01*
X124261Y223866D01*
Y224533D01*
X124927Y225199D01*
X124261Y225866D01*
Y226532D01*
X124927Y225199D02*
X126260D01*
X85500Y50000D02*
X89499D01*
Y48001D01*
X88832Y47334D01*
X87499D01*
X86833Y48001D01*
Y50000D01*
Y48667D02*
X85500Y47334D01*
X89499Y43336D02*
Y46001D01*
X87499D01*
X88166Y44668D01*
Y44002D01*
X87499Y43336D01*
X86166D01*
X85500Y44002D01*
Y45335D01*
X86166Y46001D01*
X118599Y255899D02*
X117266D01*
X116600Y255232D01*
Y252566D01*
X117266Y251900D01*
X118599D01*
X119266Y252566D01*
Y255232D01*
X118599Y255899D01*
X120599D02*
Y251900D01*
Y253233D01*
X123265Y255899D01*
X121265Y253899D01*
X123265Y251900D01*
X124597D02*
X125930D01*
X125264D01*
Y255899D01*
X124597Y255232D01*
X160000Y20068D02*
X163999D01*
X162666Y18735D01*
X163999Y17402D01*
X160000D01*
X163999Y14070D02*
Y15403D01*
X163332Y16069D01*
X160667D01*
X160000Y15403D01*
Y14070D01*
X160667Y13403D01*
X163332D01*
X163999Y14070D01*
Y12070D02*
X160000D01*
Y10071D01*
X160667Y9404D01*
X163332D01*
X163999Y10071D01*
Y12070D01*
Y5406D02*
Y8072D01*
X160000D01*
Y5406D01*
X161999Y8072D02*
Y6739D01*
X88900Y211899D02*
Y207900D01*
X90899D01*
X91566Y208566D01*
Y211232D01*
X90899Y211899D01*
X88900D01*
X95565Y207900D02*
X92899D01*
X95565Y210566D01*
Y211232D01*
X94898Y211899D01*
X93565D01*
X92899Y211232D01*
X75500Y50000D02*
X79499D01*
Y48001D01*
X78832Y47334D01*
X77499D01*
X76833Y48001D01*
Y50000D01*
Y48667D02*
X75500Y47334D01*
Y44002D02*
X79499D01*
X77499Y46001D01*
Y43336D01*
X75499Y16900D02*
X71500D01*
Y14234D01*
X75499Y10236D02*
Y12901D01*
X71500D01*
Y10236D01*
X73499Y12901D02*
Y11568D01*
X75499Y8903D02*
X71500D01*
Y6903D01*
X72166Y6237D01*
X74832D01*
X75499Y6903D01*
Y8903D01*
X144586Y14734D02*
Y17400D01*
X142586D01*
Y16067D01*
Y17400D01*
X140587D01*
X143919Y10735D02*
X144586Y11402D01*
Y12735D01*
X143919Y13401D01*
X143253D01*
X142586Y12735D01*
Y11402D01*
X141920Y10735D01*
X141253D01*
X140587Y11402D01*
Y12735D01*
X141253Y13401D01*
X144586Y9403D02*
X140587D01*
X141920Y8070D01*
X140587Y6737D01*
X144586D01*
X117740Y133500D02*
X121738D01*
Y131501D01*
X121072Y130834D01*
X119739D01*
X119073Y131501D01*
Y133500D01*
Y132167D02*
X117740Y130834D01*
X121072Y129501D02*
X121738Y128835D01*
Y127502D01*
X121072Y126836D01*
X120405D01*
X119739Y127502D01*
Y128168D01*
Y127502D01*
X119073Y126836D01*
X118406D01*
X117740Y127502D01*
Y128835D01*
X118406Y129501D01*
X91750Y230365D02*
Y226366D01*
Y227699D01*
X94416Y230365D01*
X92416Y228365D01*
X94416Y226366D01*
X95749D02*
X97082D01*
X96415D01*
Y230365D01*
X95749Y229698D01*
X127715Y133500D02*
X131714D01*
Y131501D01*
X131047Y130834D01*
X129714D01*
X129048Y131501D01*
Y133500D01*
Y132167D02*
X127715Y130834D01*
Y126836D02*
Y129501D01*
X130381Y126836D01*
X131047D01*
X131714Y127502D01*
Y128835D01*
X131047Y129501D01*
X153666Y205332D02*
X152999Y205999D01*
X151666D01*
X151000Y205332D01*
Y202666D01*
X151666Y202000D01*
X152999D01*
X153666Y202666D01*
X154999Y202000D02*
X156332D01*
X155665D01*
Y205999D01*
X154999Y205332D01*
X109638Y48394D02*
Y45062D01*
X110304Y44396D01*
X111637D01*
X112304Y45062D01*
Y48394D01*
X113637Y44396D02*
X114970D01*
X114303D01*
Y48394D01*
X113637Y47728D01*
X137634Y133500D02*
X141632D01*
Y131501D01*
X140966Y130834D01*
X139633D01*
X138967Y131501D01*
Y133500D01*
Y132167D02*
X137634Y130834D01*
Y129501D02*
Y128168D01*
Y128835D01*
X141632D01*
X140966Y129501D01*
X125158Y103334D02*
X125824Y104001D01*
Y105333D01*
X125158Y106000D01*
X122492D01*
X121825Y105333D01*
Y104001D01*
X122492Y103334D01*
X125158Y102001D02*
X125824Y101335D01*
Y100002D01*
X125158Y99335D01*
X124491D01*
X123825Y100002D01*
Y100668D01*
Y100002D01*
X123158Y99335D01*
X122492D01*
X121825Y100002D01*
Y101335D01*
X122492Y102001D01*
X137873Y163683D02*
X138539Y164349D01*
Y165682D01*
X137873Y166349D01*
X135207D01*
X134540Y165682D01*
Y164349D01*
X135207Y163683D01*
X134540Y159684D02*
Y162350D01*
X137206Y159684D01*
X137873D01*
X138539Y160351D01*
Y161683D01*
X137873Y162350D01*
X138832Y52334D02*
X139499Y53001D01*
Y54334D01*
X138832Y55000D01*
X136167D01*
X135500Y54334D01*
Y53001D01*
X136167Y52334D01*
X139499Y51001D02*
Y48335D01*
X138832D01*
X136167Y51001D01*
X135500D01*
D15*
X155150Y231000D02*
D03*
D16*
X98500Y210000D02*
D03*
M02*
