G04*
G04 #@! TF.GenerationSoftware,Altium Limited,Altium Designer,19.0.12 (326)*
G04*
G04 Layer_Color=16711935*
%FSLAX25Y25*%
%MOIN*%
G70*
G01*
G75*
%ADD17C,0.05315*%
%ADD18R,0.05315X0.05315*%
%ADD19C,0.06890*%
%ADD20R,0.05315X0.05315*%
%ADD21C,0.05591*%
%ADD22C,0.04922*%
%ADD23C,0.06103*%
%ADD24C,0.05709*%
%ADD25R,0.06103X0.06103*%
%ADD26R,0.07678X0.07678*%
%ADD27C,0.07678*%
%ADD28C,0.15355*%
%ADD29C,0.07191*%
%ADD30R,0.07191X0.07191*%
%ADD31C,0.06591*%
%ADD32C,0.08859*%
%ADD33C,0.05316*%
%ADD34R,0.04922X0.04922*%
%ADD35R,0.04922X0.04922*%
%ADD36C,0.03591*%
D17*
X154113Y52500D02*
D03*
X125146Y88000D02*
D03*
X65025Y15500D02*
D03*
X55024Y25500D02*
D03*
X211500Y227000D02*
D03*
X105500Y212000D02*
D03*
X30500Y219500D02*
D03*
X114000Y234000D02*
D03*
X124000D02*
D03*
X134000D02*
D03*
X92500Y77000D02*
D03*
X82500D02*
D03*
X72500D02*
D03*
X84000Y234000D02*
D03*
X138500Y78000D02*
D03*
X148500D02*
D03*
X158500D02*
D03*
X142900Y105500D02*
D03*
D18*
X154113Y62500D02*
D03*
X125146Y78000D02*
D03*
X142900Y115500D02*
D03*
D19*
X35717Y238591D02*
D03*
X45559D02*
D03*
X25874D02*
D03*
Y251189D02*
D03*
X45559D02*
D03*
X35717D02*
D03*
D20*
X45024Y15500D02*
D03*
X201500Y227000D02*
D03*
X95500Y212000D02*
D03*
X20500Y219500D02*
D03*
X104000Y234000D02*
D03*
D21*
X50500Y130500D02*
D03*
Y140500D02*
D03*
Y160500D02*
D03*
Y150500D02*
D03*
X20500Y130500D02*
D03*
Y140500D02*
D03*
Y150500D02*
D03*
Y160500D02*
D03*
X212266Y159000D02*
D03*
Y169000D02*
D03*
Y189000D02*
D03*
Y179000D02*
D03*
X182266Y159000D02*
D03*
Y169000D02*
D03*
Y179000D02*
D03*
Y189000D02*
D03*
X115000Y293500D02*
D03*
X125000D02*
D03*
Y263500D02*
D03*
X115000D02*
D03*
X127500Y32500D02*
D03*
Y42500D02*
D03*
Y62500D02*
D03*
Y52500D02*
D03*
X97500Y32500D02*
D03*
Y42500D02*
D03*
Y52500D02*
D03*
Y62500D02*
D03*
D22*
X182200Y222000D02*
D03*
X152200D02*
D03*
Y232000D02*
D03*
X182200D02*
D03*
X221000Y242000D02*
D03*
X191000D02*
D03*
X221500Y212000D02*
D03*
X191500D02*
D03*
X182200D02*
D03*
X152200D02*
D03*
X100500Y160500D02*
D03*
Y130500D02*
D03*
X80500Y160500D02*
D03*
Y130500D02*
D03*
X20500Y120500D02*
D03*
X50500D02*
D03*
X20500Y111500D02*
D03*
X50500D02*
D03*
X70500Y202500D02*
D03*
Y172500D02*
D03*
X60500D02*
D03*
Y202500D02*
D03*
X50500D02*
D03*
Y172500D02*
D03*
X40500Y202500D02*
D03*
Y172500D02*
D03*
X30500Y202500D02*
D03*
Y172500D02*
D03*
X20500Y202000D02*
D03*
Y172000D02*
D03*
X9500Y202000D02*
D03*
Y172000D02*
D03*
Y249500D02*
D03*
Y219500D02*
D03*
X77500Y62500D02*
D03*
Y32500D02*
D03*
X87500D02*
D03*
Y62500D02*
D03*
X133400Y155000D02*
D03*
Y125000D02*
D03*
X142900Y155000D02*
D03*
Y125000D02*
D03*
X124227Y212000D02*
D03*
X142900Y176500D02*
D03*
X152400Y125000D02*
D03*
Y155000D02*
D03*
D23*
X157000Y248300D02*
D03*
X177000D02*
D03*
X170000Y278400D02*
D03*
D24*
X224000Y169000D02*
D03*
Y189000D02*
D03*
X215500Y252000D02*
D03*
X195500D02*
D03*
X196500Y202000D02*
D03*
X216500D02*
D03*
X162200D02*
D03*
X182200D02*
D03*
X90500Y140500D02*
D03*
Y160500D02*
D03*
X70500Y140500D02*
D03*
Y160500D02*
D03*
X60500Y140500D02*
D03*
Y160500D02*
D03*
X100500Y120500D02*
D03*
X80500D02*
D03*
X9500Y140500D02*
D03*
Y160500D02*
D03*
X114000Y249000D02*
D03*
X134000D02*
D03*
X137500Y42500D02*
D03*
Y62500D02*
D03*
D25*
X142000Y278400D02*
D03*
D26*
X209000Y267500D02*
D03*
X63500D02*
D03*
D27*
X189000D02*
D03*
X169000D02*
D03*
X43500D02*
D03*
X23500D02*
D03*
D28*
X116250Y353900D02*
D03*
Y330278D02*
D03*
D29*
X153500Y14144D02*
D03*
D30*
X163500D02*
D03*
D31*
X119000Y11000D02*
D03*
X129000D02*
D03*
X87500D02*
D03*
X97500D02*
D03*
D32*
X138911Y339100D02*
D03*
X202809D02*
D03*
X138911Y364100D02*
D03*
X202809D02*
D03*
X138911Y314100D02*
D03*
X202809D02*
D03*
X29692Y339100D02*
D03*
X93590D02*
D03*
X29692Y364100D02*
D03*
X93590D02*
D03*
X29692Y314100D02*
D03*
X93590D02*
D03*
D33*
X84000Y243366D02*
D03*
Y263366D02*
D03*
Y273366D02*
D03*
Y283366D02*
D03*
X104000D02*
D03*
Y273366D02*
D03*
Y263366D02*
D03*
Y243366D02*
D03*
D34*
X134227Y212000D02*
D03*
D35*
X142900Y166500D02*
D03*
D36*
X139500Y228400D02*
D03*
X115694Y142853D02*
D03*
X65500Y185500D02*
D03*
X46590Y178600D02*
D03*
X25243Y206500D02*
D03*
X54100Y377800D02*
D03*
X106762Y186500D02*
D03*
X214500Y244889D02*
D03*
X115694Y169806D02*
D03*
X79000Y153700D02*
D03*
X54100Y54100D02*
D03*
X115694Y153700D02*
D03*
X60000Y228400D02*
D03*
X204500Y159000D02*
D03*
X206500Y173806D02*
D03*
X103900Y4300D02*
D03*
X126500Y169763D02*
D03*
X116000Y103900D02*
D03*
X178600Y352900D02*
D03*
X76500Y249696D02*
D03*
X116000Y125000D02*
D03*
X29200Y328000D02*
D03*
X34000Y278200D02*
D03*
X128800Y103900D02*
D03*
X4300Y253300D02*
D03*
X178600Y328000D02*
D03*
X31274Y233000D02*
D03*
X15000Y228400D02*
D03*
X178600Y377800D02*
D03*
X29200Y352900D02*
D03*
X175207Y178000D02*
D03*
X162000Y191353D02*
D03*
X97000Y268500D02*
D03*
X228400Y328000D02*
D03*
X98662Y238911D02*
D03*
X178600Y79000D02*
D03*
X29200Y103900D02*
D03*
X133800Y70000D02*
D03*
X121800Y303051D02*
D03*
X178600Y103900D02*
D03*
X188111Y197000D02*
D03*
X128800Y4300D02*
D03*
X4300Y79000D02*
D03*
X57806Y244889D02*
D03*
X128800Y377800D02*
D03*
X228400Y352900D02*
D03*
X54100Y303100D02*
D03*
X79000D02*
D03*
X95836Y165000D02*
D03*
X103900Y328000D02*
D03*
X178600Y303100D02*
D03*
X55500Y155000D02*
D03*
X103900Y303100D02*
D03*
X191500Y223838D02*
D03*
X32472Y131000D02*
D03*
X89255Y186500D02*
D03*
X198896Y217500D02*
D03*
X4300Y228400D02*
D03*
X91500Y117000D02*
D03*
X193615Y173806D02*
D03*
X178600Y54100D02*
D03*
X4300Y103900D02*
D03*
X153700Y303100D02*
D03*
X228400Y153700D02*
D03*
X126500Y186500D02*
D03*
X76000Y125000D02*
D03*
X54100Y4300D02*
D03*
X228400Y128800D02*
D03*
X203500Y253300D02*
D03*
X137000Y119623D02*
D03*
X56119Y117000D02*
D03*
X203500Y103900D02*
D03*
X178600Y29200D02*
D03*
X228400Y103900D02*
D03*
Y228400D02*
D03*
X79000Y103900D02*
D03*
X153700Y352900D02*
D03*
X167069Y213000D02*
D03*
X212994Y151500D02*
D03*
X178600Y278200D02*
D03*
X228400Y303100D02*
D03*
X103900Y29200D02*
D03*
X104000Y142753D02*
D03*
X157500Y236112D02*
D03*
X15000Y206500D02*
D03*
X153700Y4300D02*
D03*
X199500Y188000D02*
D03*
X147500Y251000D02*
D03*
X4300Y29200D02*
D03*
X103900Y203500D02*
D03*
X153700Y278200D02*
D03*
X79000Y228400D02*
D03*
Y203500D02*
D03*
X106762Y249000D02*
D03*
X55500Y166000D02*
D03*
X103900Y79000D02*
D03*
Y153700D02*
D03*
X29200Y79000D02*
D03*
X25500Y278200D02*
D03*
X128800Y228400D02*
D03*
X228400Y29200D02*
D03*
X54100Y328000D02*
D03*
X79000Y4300D02*
D03*
X168000Y153700D02*
D03*
X103900Y352900D02*
D03*
X192000Y146416D02*
D03*
X4300Y328000D02*
D03*
Y153700D02*
D03*
X88000Y268500D02*
D03*
X208063Y234000D02*
D03*
X157000Y110000D02*
D03*
X79000Y142753D02*
D03*
X4300Y128800D02*
D03*
Y278200D02*
D03*
X29200Y54100D02*
D03*
X67844Y260000D02*
D03*
X157500Y217000D02*
D03*
X29200Y4300D02*
D03*
X157000Y165500D02*
D03*
X128800Y203500D02*
D03*
X173894Y219500D02*
D03*
X168000Y138500D02*
D03*
X134500Y278200D02*
D03*
X228400Y253300D02*
D03*
X171191Y259000D02*
D03*
X187866Y206500D02*
D03*
X169124Y236112D02*
D03*
X92000Y203274D02*
D03*
X228400Y178600D02*
D03*
X203500Y303100D02*
D03*
X4300D02*
D03*
X168000Y165500D02*
D03*
X30900Y258000D02*
D03*
X54100Y352900D02*
D03*
X56000Y206500D02*
D03*
X29200Y153700D02*
D03*
X183829Y259000D02*
D03*
X137900Y131000D02*
D03*
X4300Y206500D02*
D03*
X79000Y377800D02*
D03*
X203500Y128800D02*
D03*
X4300Y54100D02*
D03*
X228400Y203500D02*
D03*
X99500Y254500D02*
D03*
X153700Y377800D02*
D03*
X116000Y79112D02*
D03*
X126500Y142753D02*
D03*
X79000Y352900D02*
D03*
X4300Y178600D02*
D03*
X228400Y79000D02*
D03*
X29200Y377800D02*
D03*
X143300Y186500D02*
D03*
X31274Y244889D02*
D03*
X79000Y54100D02*
D03*
X178600Y4300D02*
D03*
X104000Y169806D02*
D03*
X43993Y117000D02*
D03*
X203500Y352900D02*
D03*
X128800Y253300D02*
D03*
X179243Y134000D02*
D03*
X54100Y79000D02*
D03*
X80000Y83584D02*
D03*
X150718Y101500D02*
D03*
X74000Y117000D02*
D03*
X90500Y125000D02*
D03*
X203500Y278200D02*
D03*
X153700Y29200D02*
D03*
X153894Y258500D02*
D03*
X4300Y352900D02*
D03*
X103900Y54100D02*
D03*
X228400Y4300D02*
D03*
X59004Y260000D02*
D03*
X89500Y238911D02*
D03*
X45500Y206500D02*
D03*
X168000Y122885D02*
D03*
X29200Y178600D02*
D03*
X85000Y165000D02*
D03*
X66119Y27500D02*
D03*
X35717Y206500D02*
D03*
X203500Y79000D02*
D03*
X228400Y278200D02*
D03*
X168000Y110000D02*
D03*
X79000Y328000D02*
D03*
X228400Y54100D02*
D03*
X103900Y377800D02*
D03*
Y103900D02*
D03*
X142000Y203694D02*
D03*
X4300Y4300D02*
D03*
X73773Y89500D02*
D03*
X67839Y282500D02*
D03*
X203500Y203500D02*
D03*
X153700D02*
D03*
X40402Y258000D02*
D03*
X38900Y157509D02*
D03*
X203500Y377800D02*
D03*
Y328000D02*
D03*
X54100Y103900D02*
D03*
X65500Y196500D02*
D03*
X29200Y29200D02*
D03*
X114000Y273000D02*
D03*
X203500Y4300D02*
D03*
X153700Y328000D02*
D03*
X174000Y197000D02*
D03*
X104500Y125000D02*
D03*
X203500Y54100D02*
D03*
Y29200D02*
D03*
X157000Y138500D02*
D03*
X96500Y228400D02*
D03*
X150718Y91000D02*
D03*
X126500Y153700D02*
D03*
X78806Y180500D02*
D03*
M02*
