M48
;Layer_Color=9474304
;FILE_FORMAT=2:5
INCH,TZ
;TYPE=PLATED
T1F00S00C0.01575
T2F00S00C0.01800
T3F00S00C0.01969
T4F00S00C0.02362
T5F00S00C0.02756
T6F00S00C0.03150
T7F00S00C0.03200
T8F00S00C0.03543
T9F00S00C0.04000
T10F00S00C0.04331
T11F00S00C0.05512
T12F00S00C0.09843
%
T01
X77500Y32500
X87500
Y62500
X77500
X80500Y130500
X100500
Y160500
X80500
X70500Y172500
X60500
Y202500
X70500
X142900Y176500
Y166500
Y155000
X133400
X152400
Y125000
X142900
X133400
X50500Y120500
Y111500
X20500
Y120500
Y172000
X30500Y172500
X40500
X50500
Y202500
X40500
X30500
X20500Y202000
X9500
Y172000
Y219500
Y249500
X124227Y212000
X134227
X152200
Y222000
Y232000
X182200
Y222000
Y212000
X191500
X191000Y242000
X221000
X221500Y212000
T02
X4300Y4300
Y29200
X29200
Y4300
X54100
X79000
X103900
X128800
X153700
X178600
Y29200
X153700
X103900
X66119Y27500
X203500Y29200
Y4300
X228400
Y29200
Y54100
Y79000
Y103900
Y128800
Y153700
X212994Y151500
X228400Y178600
Y203500
X203500
X199500Y188000
X193615Y173806
X206500
X204500Y159000
X192000Y146416
X179243Y134000
X168000Y138500
X157000
X168000Y153700
Y165500
X157000
X175207Y178000
X174000Y197000
X188111
X162000Y191353
X153700Y203500
X142000Y203694
X128800Y203500
X126500Y186500
Y169763
X115694Y169806
X104000
X95836Y165000
X85000
X79000Y153700
Y142753
X76000Y125000
X74000Y117000
X91500
X90500Y125000
X104500
X116000
X115694Y142853
Y153700
X126500
Y142753
X104000
X103900Y153700
X106762Y186500
X89255
X78806Y180500
X65500Y185500
Y196500
X79000Y203500
X92000Y203274
X103900Y203500
X143300Y186500
X137900Y131000
X137000Y119623
X128800Y103900
X116000
X103900
X79000
X73773Y89500
X80000Y83584
X103900Y79000
X116000Y79112
X133800Y70000
X150718Y91000
Y101500
X157000Y110000
X168000
Y122885
X178600Y103900
Y79000
Y54100
X203500
Y79000
Y103900
Y128800
X103900Y54100
X79000
X54100
X29200
Y79000
Y103900
X4300
Y79000
Y54100
Y128800
Y153700
X29200
X38900Y157509
X55500Y155000
Y166000
X46590Y178600
X29200
X4300
X32472Y131000
X43993Y117000
X56119
X54100Y103900
Y79000
X56000Y206500
X45500
X35717
X25243
X15000
X4300
Y228400
X15000
X31274Y233000
Y244889
X30900Y258000
X40402
X34000Y278200
X25500
X4300
Y253300
Y303100
Y328000
X29200
Y352900
X54100
Y328000
Y303100
X4300Y352900
X79000
X103900
Y328000
Y303100
X121800Y303051
X153700Y303100
X178600
Y328000
Y352900
X153700
Y328000
Y278200
X134500
X114000Y273000
X97000Y268500
X88000
X99500Y254500
X106762Y249000
X98662Y238911
X89500
X96500Y228400
X79000
X60000
X57806Y244889
X59004Y260000
X67844
X76500Y249696
X67839Y282500
X79000Y303100
Y328000
X128800Y253300
X147500Y251000
X153894Y258500
X171191Y259000
X183829
X178600Y278200
X203500
Y253300
X208063Y234000
X198896Y217500
X191500Y223838
X187866Y206500
X173894Y219500
X167069Y213000
X157500Y217000
Y236112
X169124
X139500Y228400
X128800
X203500Y303100
Y328000
Y352900
X228400
Y328000
Y303100
Y278200
Y253300
X214500Y244889
X228400Y228400
X203500Y377800
X178600
X153700
X128800
X103900
X79000
X54100
X29200
T03
X45024Y15500
X55024Y25500
X65025Y15500
X72500Y77000
X82500
X92500
X125146Y78000
Y88000
X138500Y78000
X148500
X158500
X154113Y62500
Y52500
X142900Y105500
Y115500
X30500Y219500
X20500
X84000Y234000
X104000
X114000
X124000
X134000
X105500Y212000
X95500
X201500Y227000
X211500
T04
X137500Y42500
X224000Y169000
Y189000
X216500Y202000
X196500
X182200
X162200
X90500Y160500
Y140500
X70500
X60500
Y160500
X70500
X80500Y120500
X100500
X137500Y62500
X9500Y140500
Y160500
X114000Y249000
X134000
X195500Y252000
X215500
T05
X157000Y248300
X177000
X170000Y278400
X142000
T06
X25874Y238591
X35717
X45559
Y251189
X35717
X25874
X84000Y243366
Y263366
Y273366
Y283366
X104000
Y273366
Y263366
Y243366
T07
X97500Y32500
Y42500
X127500
Y32500
Y52500
Y62500
X97500
Y52500
X182266Y159000
Y169000
Y179000
Y189000
X212266
Y179000
Y169000
Y159000
X50500Y160500
Y150500
Y140500
Y130500
X20500
Y140500
Y150500
Y160500
X115000Y263500
X125000
Y293500
X115000
T08
X153500Y14144
X163500
T09
X87500Y11000
X97500
X119000
X129000
T10
X23500Y267500
X43500
X63500
X169000
X189000
X209000
T11
X29692Y314100
Y339100
X93590
Y314100
X138911
Y339100
X202809
Y314100
Y364100
X138911
X93590
X29692
T12
X116250Y330278
Y353900
M30
