G04*
G04 #@! TF.GenerationSoftware,Altium Limited,Altium Designer,19.0.12 (326)*
G04*
G04 Layer_Physical_Order=2*
G04 Layer_Color=16711680*
%FSLAX25Y25*%
%MOIN*%
G70*
G01*
G75*
%ADD12C,0.01000*%
%ADD37C,0.03200*%
%ADD38C,0.04724*%
%ADD39R,0.04724X0.04724*%
%ADD40C,0.06299*%
%ADD41R,0.04724X0.04724*%
%ADD42C,0.05000*%
%ADD43C,0.04331*%
%ADD44C,0.05512*%
%ADD45C,0.05118*%
%ADD46R,0.05512X0.05512*%
%ADD47R,0.07087X0.07087*%
%ADD48C,0.07087*%
%ADD49C,0.14765*%
%ADD50C,0.06600*%
%ADD51R,0.06600X0.06600*%
%ADD52C,0.06000*%
%ADD53C,0.08268*%
%ADD54C,0.04725*%
%ADD55R,0.04331X0.04331*%
%ADD56R,0.04331X0.04331*%
%ADD57C,0.03000*%
G36*
X207936Y365923D02*
X207436Y365823D01*
X207119Y366588D01*
X206328Y367619D01*
X205297Y368410D01*
X204097Y368907D01*
X202809Y369076D01*
X201521Y368907D01*
X200321Y368410D01*
X199290Y367619D01*
X198499Y366588D01*
X198002Y365388D01*
X197832Y364100D01*
X198002Y362812D01*
X198499Y361612D01*
X199290Y360581D01*
X200321Y359790D01*
X201521Y359293D01*
X202809Y359123D01*
X204097Y359293D01*
X205297Y359790D01*
X206328Y360581D01*
X207119Y361612D01*
X207436Y362376D01*
X207936Y362277D01*
Y357000D01*
X208052Y356415D01*
X208384Y355919D01*
X208880Y355587D01*
X209465Y355471D01*
X230971D01*
Y1529D01*
X1529D01*
Y355471D01*
X23030D01*
X23615Y355587D01*
X24111Y355919D01*
X24443Y356415D01*
X24559Y357000D01*
Y362987D01*
X25059Y363020D01*
X25080Y362864D01*
X25557Y361713D01*
X26316Y360724D01*
X27305Y359965D01*
X28456Y359488D01*
X29292Y359378D01*
Y364100D01*
Y368822D01*
X28456Y368712D01*
X27305Y368235D01*
X26316Y367476D01*
X25557Y366487D01*
X25080Y365336D01*
X25059Y365180D01*
X24559Y365213D01*
Y382971D01*
X207936D01*
Y365923D01*
D02*
G37*
%LPC*%
G36*
X139311Y368822D02*
Y364500D01*
X143633D01*
X143523Y365336D01*
X143046Y366487D01*
X142287Y367476D01*
X141298Y368235D01*
X140147Y368712D01*
X139311Y368822D01*
D02*
G37*
G36*
X30092D02*
Y364500D01*
X34414D01*
X34304Y365336D01*
X33827Y366487D01*
X33068Y367476D01*
X32079Y368235D01*
X30928Y368712D01*
X30092Y368822D01*
D02*
G37*
G36*
X138511D02*
X137675Y368712D01*
X136523Y368235D01*
X135535Y367476D01*
X134776Y366487D01*
X134299Y365336D01*
X134189Y364500D01*
X138511D01*
Y368822D01*
D02*
G37*
G36*
X143633Y363700D02*
X139311D01*
Y359378D01*
X140147Y359488D01*
X141298Y359965D01*
X142287Y360724D01*
X143046Y361713D01*
X143523Y362864D01*
X143633Y363700D01*
D02*
G37*
G36*
X34414D02*
X30092D01*
Y359378D01*
X30928Y359488D01*
X32079Y359965D01*
X33068Y360724D01*
X33827Y361713D01*
X34304Y362864D01*
X34414Y363700D01*
D02*
G37*
G36*
X138511D02*
X134189D01*
X134299Y362864D01*
X134776Y361713D01*
X135535Y360724D01*
X136523Y359965D01*
X137675Y359488D01*
X138511Y359378D01*
Y363700D01*
D02*
G37*
G36*
X93590Y369076D02*
X92302Y368907D01*
X91102Y368410D01*
X90071Y367619D01*
X89280Y366588D01*
X88783Y365388D01*
X88613Y364100D01*
X88783Y362812D01*
X89280Y361612D01*
X90071Y360581D01*
X91102Y359790D01*
X92302Y359293D01*
X93590Y359123D01*
X94878Y359293D01*
X96078Y359790D01*
X97109Y360581D01*
X97900Y361612D01*
X98397Y362812D01*
X98567Y364100D01*
X98397Y365388D01*
X97900Y366588D01*
X97109Y367619D01*
X96078Y368410D01*
X94878Y368907D01*
X93590Y369076D01*
D02*
G37*
G36*
X116250Y362122D02*
X114646Y361964D01*
X113104Y361496D01*
X111682Y360736D01*
X110436Y359714D01*
X109414Y358468D01*
X108654Y357046D01*
X108186Y355504D01*
X108028Y353900D01*
X108186Y352296D01*
X108654Y350754D01*
X109414Y349332D01*
X110436Y348086D01*
X111682Y347064D01*
X113104Y346304D01*
X114646Y345836D01*
X116250Y345678D01*
X117854Y345836D01*
X119396Y346304D01*
X120818Y347064D01*
X122064Y348086D01*
X123086Y349332D01*
X123846Y350754D01*
X124314Y352296D01*
X124472Y353900D01*
X124314Y355504D01*
X123846Y357046D01*
X123086Y358468D01*
X122064Y359714D01*
X120818Y360736D01*
X119396Y361496D01*
X117854Y361964D01*
X116250Y362122D01*
D02*
G37*
G36*
X202809Y344076D02*
X201521Y343907D01*
X200321Y343410D01*
X199290Y342619D01*
X198499Y341588D01*
X198002Y340388D01*
X197832Y339100D01*
X198002Y337812D01*
X198499Y336612D01*
X199290Y335581D01*
X200321Y334790D01*
X201521Y334293D01*
X202809Y334123D01*
X204097Y334293D01*
X205297Y334790D01*
X206328Y335581D01*
X207119Y336612D01*
X207616Y337812D01*
X207786Y339100D01*
X207616Y340388D01*
X207119Y341588D01*
X206328Y342619D01*
X205297Y343410D01*
X204097Y343907D01*
X202809Y344076D01*
D02*
G37*
G36*
X138911D02*
X137623Y343907D01*
X136423Y343410D01*
X135392Y342619D01*
X134601Y341588D01*
X134104Y340388D01*
X133934Y339100D01*
X134104Y337812D01*
X134601Y336612D01*
X135392Y335581D01*
X136423Y334790D01*
X137623Y334293D01*
X138911Y334123D01*
X140199Y334293D01*
X141399Y334790D01*
X142430Y335581D01*
X143221Y336612D01*
X143718Y337812D01*
X143887Y339100D01*
X143718Y340388D01*
X143221Y341588D01*
X142430Y342619D01*
X141399Y343410D01*
X140199Y343907D01*
X138911Y344076D01*
D02*
G37*
G36*
X93590D02*
X92302Y343907D01*
X91102Y343410D01*
X90071Y342619D01*
X89280Y341588D01*
X88783Y340388D01*
X88613Y339100D01*
X88783Y337812D01*
X89280Y336612D01*
X90071Y335581D01*
X91102Y334790D01*
X92302Y334293D01*
X93590Y334123D01*
X94878Y334293D01*
X96078Y334790D01*
X97109Y335581D01*
X97900Y336612D01*
X98397Y337812D01*
X98567Y339100D01*
X98397Y340388D01*
X97900Y341588D01*
X97109Y342619D01*
X96078Y343410D01*
X94878Y343907D01*
X93590Y344076D01*
D02*
G37*
G36*
X29692D02*
X28404Y343907D01*
X27204Y343410D01*
X26173Y342619D01*
X25382Y341588D01*
X24885Y340388D01*
X24715Y339100D01*
X24885Y337812D01*
X25382Y336612D01*
X26173Y335581D01*
X27204Y334790D01*
X28404Y334293D01*
X29692Y334123D01*
X30980Y334293D01*
X32180Y334790D01*
X33211Y335581D01*
X34002Y336612D01*
X34499Y337812D01*
X34668Y339100D01*
X34499Y340388D01*
X34002Y341588D01*
X33211Y342619D01*
X32180Y343410D01*
X30980Y343907D01*
X29692Y344076D01*
D02*
G37*
G36*
X116650Y338259D02*
Y330678D01*
X124231D01*
X124117Y331843D01*
X123660Y333347D01*
X122919Y334734D01*
X121922Y335949D01*
X120706Y336947D01*
X119319Y337688D01*
X117815Y338145D01*
X116650Y338259D01*
D02*
G37*
G36*
X115850D02*
X114685Y338145D01*
X113180Y337688D01*
X111794Y336947D01*
X110578Y335949D01*
X109581Y334734D01*
X108840Y333347D01*
X108383Y331843D01*
X108268Y330678D01*
X115850D01*
Y338259D01*
D02*
G37*
G36*
X124231Y329878D02*
X116650D01*
Y322297D01*
X117815Y322411D01*
X119319Y322868D01*
X120706Y323609D01*
X121922Y324606D01*
X122919Y325822D01*
X123660Y327208D01*
X124117Y328713D01*
X124231Y329878D01*
D02*
G37*
G36*
X115850D02*
X108268D01*
X108383Y328713D01*
X108840Y327208D01*
X109581Y325822D01*
X110578Y324606D01*
X111794Y323609D01*
X113180Y322868D01*
X114685Y322411D01*
X115850Y322297D01*
Y329878D01*
D02*
G37*
G36*
X202809Y319076D02*
X201521Y318907D01*
X200321Y318410D01*
X199290Y317619D01*
X198499Y316588D01*
X198002Y315388D01*
X197832Y314100D01*
X198002Y312812D01*
X198499Y311612D01*
X199290Y310581D01*
X200321Y309790D01*
X201521Y309293D01*
X202809Y309123D01*
X204097Y309293D01*
X205297Y309790D01*
X206328Y310581D01*
X207119Y311612D01*
X207616Y312812D01*
X207786Y314100D01*
X207616Y315388D01*
X207119Y316588D01*
X206328Y317619D01*
X205297Y318410D01*
X204097Y318907D01*
X202809Y319076D01*
D02*
G37*
G36*
X138911D02*
X137623Y318907D01*
X136423Y318410D01*
X135392Y317619D01*
X134601Y316588D01*
X134119Y315425D01*
X125500D01*
X124993Y315324D01*
X124563Y315037D01*
X114063Y304537D01*
X113775Y304107D01*
X113674Y303600D01*
Y296523D01*
X113336Y296382D01*
X112646Y295853D01*
X112117Y295164D01*
X111785Y294361D01*
X111671Y293500D01*
X111785Y292638D01*
X112117Y291836D01*
X112646Y291146D01*
X113336Y290617D01*
X114138Y290285D01*
X115000Y290172D01*
X115861Y290285D01*
X116664Y290617D01*
X117353Y291146D01*
X117883Y291836D01*
X118215Y292638D01*
X118328Y293500D01*
X118215Y294361D01*
X117883Y295164D01*
X117353Y295853D01*
X116664Y296382D01*
X116325Y296523D01*
Y303051D01*
X126049Y312774D01*
X134119D01*
X134601Y311612D01*
X135392Y310581D01*
X136423Y309790D01*
X137623Y309293D01*
X138911Y309123D01*
X140199Y309293D01*
X141399Y309790D01*
X142430Y310581D01*
X143221Y311612D01*
X143718Y312812D01*
X143887Y314100D01*
X143718Y315388D01*
X143221Y316588D01*
X142430Y317619D01*
X141399Y318410D01*
X140199Y318907D01*
X138911Y319076D01*
D02*
G37*
G36*
X93590D02*
X92302Y318907D01*
X91102Y318410D01*
X90071Y317619D01*
X89280Y316588D01*
X88783Y315388D01*
X88613Y314100D01*
X88783Y312812D01*
X89280Y311612D01*
X90071Y310581D01*
X91102Y309790D01*
X92302Y309293D01*
X93590Y309123D01*
X94878Y309293D01*
X96078Y309790D01*
X97109Y310581D01*
X97900Y311612D01*
X98397Y312812D01*
X98567Y314100D01*
X98397Y315388D01*
X97900Y316588D01*
X97109Y317619D01*
X96078Y318410D01*
X94878Y318907D01*
X93590Y319076D01*
D02*
G37*
G36*
X125400Y296574D02*
Y293900D01*
X128074D01*
X128020Y294309D01*
X127708Y295063D01*
X127211Y295711D01*
X126563Y296208D01*
X125809Y296520D01*
X125400Y296574D01*
D02*
G37*
G36*
X124600D02*
X124191Y296520D01*
X123437Y296208D01*
X122789Y295711D01*
X122292Y295063D01*
X121980Y294309D01*
X121926Y293900D01*
X124600D01*
Y296574D01*
D02*
G37*
G36*
X128074Y293100D02*
X125400D01*
Y290426D01*
X125809Y290480D01*
X126563Y290792D01*
X127211Y291289D01*
X127708Y291936D01*
X128020Y292691D01*
X128074Y293100D01*
D02*
G37*
G36*
X124600D02*
X121926D01*
X121980Y292691D01*
X122292Y291936D01*
X122789Y291289D01*
X123437Y290792D01*
X124191Y290480D01*
X124600Y290426D01*
Y293100D01*
D02*
G37*
G36*
X84000Y286556D02*
X83174Y286447D01*
X82405Y286128D01*
X81744Y285622D01*
X81238Y284961D01*
X80919Y284192D01*
X80810Y283366D01*
X80919Y282540D01*
X81238Y281771D01*
X81744Y281111D01*
X82405Y280604D01*
X83174Y280285D01*
X84000Y280176D01*
X84825Y280285D01*
X85595Y280604D01*
X86256Y281111D01*
X86762Y281771D01*
X87081Y282540D01*
X87190Y283366D01*
X87081Y284192D01*
X86762Y284961D01*
X86256Y285622D01*
X85595Y286128D01*
X84825Y286447D01*
X84000Y286556D01*
D02*
G37*
G36*
X170400Y281732D02*
Y278800D01*
X173332D01*
X173270Y279276D01*
X172931Y280092D01*
X172394Y280793D01*
X171692Y281331D01*
X170876Y281669D01*
X170400Y281732D01*
D02*
G37*
G36*
X169600D02*
X169124Y281669D01*
X168307Y281331D01*
X167606Y280793D01*
X167069Y280092D01*
X166730Y279276D01*
X166668Y278800D01*
X169600D01*
Y281732D01*
D02*
G37*
G36*
X173332Y278000D02*
X170400D01*
Y275068D01*
X170876Y275130D01*
X171692Y275468D01*
X172394Y276006D01*
X172931Y276708D01*
X173270Y277524D01*
X173332Y278000D01*
D02*
G37*
G36*
X169600D02*
X166668D01*
X166730Y277524D01*
X167069Y276708D01*
X167606Y276006D01*
X168307Y275468D01*
X169124Y275130D01*
X169600Y275068D01*
Y278000D01*
D02*
G37*
G36*
X145556Y281956D02*
X138444D01*
Y274844D01*
X145556D01*
Y281956D01*
D02*
G37*
G36*
X104000Y276556D02*
X103174Y276447D01*
X102405Y276129D01*
X101744Y275622D01*
X101237Y274961D01*
X100919Y274192D01*
X100810Y273366D01*
X100919Y272540D01*
X101237Y271771D01*
X101744Y271111D01*
X102405Y270604D01*
X103174Y270285D01*
X104000Y270176D01*
X104825Y270285D01*
X105595Y270604D01*
X106255Y271111D01*
X106762Y271771D01*
X107081Y272540D01*
X107190Y273366D01*
X107081Y274192D01*
X106762Y274961D01*
X106255Y275622D01*
X105595Y276129D01*
X104825Y276447D01*
X104000Y276556D01*
D02*
G37*
G36*
X84000D02*
X83174Y276447D01*
X82405Y276129D01*
X81744Y275622D01*
X81238Y274961D01*
X80919Y274192D01*
X80810Y273366D01*
X80919Y272540D01*
X81238Y271771D01*
X81744Y271111D01*
X82405Y270604D01*
X83174Y270285D01*
X84000Y270176D01*
X84825Y270285D01*
X85595Y270604D01*
X86256Y271111D01*
X86762Y271771D01*
X87081Y272540D01*
X87190Y273366D01*
X87081Y274192D01*
X86762Y274961D01*
X86256Y275622D01*
X85595Y276129D01*
X84825Y276447D01*
X84000Y276556D01*
D02*
G37*
G36*
X104000Y266556D02*
X103174Y266447D01*
X102405Y266128D01*
X101744Y265622D01*
X101237Y264961D01*
X101126Y264691D01*
X86874D01*
X86762Y264961D01*
X86256Y265622D01*
X85595Y266128D01*
X84825Y266447D01*
X84000Y266556D01*
X83174Y266447D01*
X82405Y266128D01*
X81744Y265622D01*
X81238Y264961D01*
X80919Y264192D01*
X80810Y263366D01*
X80919Y262541D01*
X81238Y261771D01*
X81744Y261110D01*
X82405Y260604D01*
X83174Y260285D01*
X84000Y260176D01*
X84825Y260285D01*
X85595Y260604D01*
X86256Y261110D01*
X86762Y261771D01*
X86874Y262041D01*
X101126D01*
X101237Y261771D01*
X101744Y261110D01*
X102405Y260604D01*
X103174Y260285D01*
X104000Y260176D01*
X104825Y260285D01*
X105595Y260604D01*
X106255Y261110D01*
X106762Y261771D01*
X107081Y262541D01*
X107190Y263366D01*
X107081Y264192D01*
X106762Y264961D01*
X106255Y265622D01*
X105595Y266128D01*
X104825Y266447D01*
X104000Y266556D01*
D02*
G37*
G36*
X125400Y266574D02*
Y263900D01*
X128074D01*
X128020Y264309D01*
X127708Y265063D01*
X127211Y265711D01*
X126563Y266208D01*
X125809Y266520D01*
X125400Y266574D01*
D02*
G37*
G36*
X124600D02*
X124191Y266520D01*
X123437Y266208D01*
X122789Y265711D01*
X122292Y265063D01*
X121980Y264309D01*
X121926Y263900D01*
X124600D01*
Y266574D01*
D02*
G37*
G36*
X67844Y271843D02*
X59157D01*
Y263156D01*
X67844D01*
Y271843D01*
D02*
G37*
G36*
X189000Y271881D02*
X187866Y271732D01*
X186810Y271294D01*
X185902Y270598D01*
X185206Y269690D01*
X184768Y268634D01*
X184694Y268068D01*
X161263Y244637D01*
X160975Y244207D01*
X160874Y243700D01*
Y213325D01*
X154861D01*
X154790Y213495D01*
X154315Y214115D01*
X153695Y214590D01*
X152974Y214889D01*
X152200Y214991D01*
X151426Y214889D01*
X150704Y214590D01*
X150085Y214115D01*
X149610Y213495D01*
X149311Y212774D01*
X149209Y212000D01*
X149311Y211226D01*
X149610Y210504D01*
X150085Y209885D01*
X150704Y209410D01*
X151426Y209111D01*
X152200Y209009D01*
X152974Y209111D01*
X153695Y209410D01*
X154315Y209885D01*
X154790Y210504D01*
X154861Y210675D01*
X160874D01*
Y205087D01*
X160506Y204934D01*
X159804Y204396D01*
X159266Y203694D01*
X158927Y202877D01*
X158812Y202000D01*
X158927Y201123D01*
X159266Y200306D01*
X159804Y199604D01*
X160506Y199066D01*
X161278Y198746D01*
Y198663D01*
X161379Y198156D01*
X161666Y197726D01*
X179191Y180200D01*
X179051Y179861D01*
X178938Y179000D01*
X179051Y178138D01*
X179384Y177336D01*
X179912Y176646D01*
X180602Y176117D01*
X181405Y175785D01*
X182266Y175672D01*
X183127Y175785D01*
X183930Y176117D01*
X184620Y176646D01*
X185149Y177336D01*
X185481Y178138D01*
X185595Y179000D01*
X185481Y179861D01*
X185149Y180664D01*
X184620Y181353D01*
X183930Y181883D01*
X183127Y182215D01*
X182266Y182328D01*
X181405Y182215D01*
X181066Y182075D01*
X164264Y198876D01*
X164297Y199375D01*
X164596Y199604D01*
X165134Y200306D01*
X165472Y201123D01*
X165588Y202000D01*
X165472Y202877D01*
X165134Y203694D01*
X164596Y204396D01*
X163894Y204934D01*
X163525Y205087D01*
Y212000D01*
Y243151D01*
X185145Y264771D01*
X185644Y264738D01*
X185902Y264402D01*
X186810Y263706D01*
X187866Y263268D01*
X189000Y263119D01*
X190134Y263268D01*
X191191Y263706D01*
X192098Y264402D01*
X192794Y265309D01*
X193232Y266366D01*
X193381Y267500D01*
X193232Y268634D01*
X192794Y269690D01*
X192098Y270598D01*
X191191Y271294D01*
X190134Y271732D01*
X189000Y271881D01*
D02*
G37*
G36*
X169000D02*
X167866Y271732D01*
X166809Y271294D01*
X165902Y270598D01*
X165206Y269690D01*
X164768Y268634D01*
X164619Y267500D01*
X164768Y266366D01*
X165206Y265309D01*
X165902Y264402D01*
X166809Y263706D01*
X167866Y263268D01*
X169000Y263119D01*
X170134Y263268D01*
X171191Y263706D01*
X172098Y264402D01*
X172794Y265309D01*
X173232Y266366D01*
X173381Y267500D01*
X173232Y268634D01*
X172794Y269690D01*
X172098Y270598D01*
X171191Y271294D01*
X170134Y271732D01*
X169000Y271881D01*
D02*
G37*
G36*
X23500D02*
X22366Y271732D01*
X21309Y271294D01*
X20402Y270598D01*
X19706Y269690D01*
X19268Y268634D01*
X19119Y267500D01*
X19268Y266366D01*
X19706Y265309D01*
X20402Y264402D01*
X21309Y263706D01*
X22366Y263268D01*
X23500Y263119D01*
X24634Y263268D01*
X25690Y263706D01*
X26598Y264402D01*
X27294Y265309D01*
X27732Y266366D01*
X27881Y267500D01*
X27732Y268634D01*
X27294Y269690D01*
X26598Y270598D01*
X25690Y271294D01*
X24634Y271732D01*
X23500Y271881D01*
D02*
G37*
G36*
X128074Y263100D02*
X125400D01*
Y260426D01*
X125809Y260480D01*
X126563Y260792D01*
X127211Y261289D01*
X127708Y261936D01*
X128020Y262691D01*
X128074Y263100D01*
D02*
G37*
G36*
X124600D02*
X121926D01*
X121980Y262691D01*
X122292Y261936D01*
X122789Y261289D01*
X123437Y260792D01*
X124191Y260480D01*
X124600Y260426D01*
Y263100D01*
D02*
G37*
G36*
X115000Y266828D02*
X114138Y266715D01*
X113336Y266383D01*
X112646Y265854D01*
X112117Y265164D01*
X111785Y264361D01*
X111671Y263500D01*
X111785Y262638D01*
X112117Y261836D01*
X112646Y261146D01*
X113336Y260617D01*
X114138Y260285D01*
X115000Y260172D01*
X115861Y260285D01*
X116664Y260617D01*
X117353Y261146D01*
X117883Y261836D01*
X118215Y262638D01*
X118328Y263500D01*
X118215Y264361D01*
X117883Y265164D01*
X117353Y265854D01*
X116664Y266383D01*
X115861Y266715D01*
X115000Y266828D01*
D02*
G37*
G36*
X195900Y255134D02*
Y252400D01*
X198634D01*
X198578Y252825D01*
X198259Y253593D01*
X197753Y254253D01*
X197093Y254759D01*
X196325Y255078D01*
X195900Y255134D01*
D02*
G37*
G36*
X195100D02*
X194675Y255078D01*
X193907Y254759D01*
X193247Y254253D01*
X192741Y253593D01*
X192422Y252825D01*
X192366Y252400D01*
X195100D01*
Y255134D01*
D02*
G37*
G36*
X9900Y252237D02*
Y249900D01*
X12237D01*
X12194Y250222D01*
X11916Y250895D01*
X11472Y251472D01*
X10895Y251916D01*
X10222Y252194D01*
X9900Y252237D01*
D02*
G37*
G36*
X9100D02*
X8778Y252194D01*
X8105Y251916D01*
X7528Y251472D01*
X7084Y250895D01*
X6806Y250222D01*
X6763Y249900D01*
X9100D01*
Y252237D01*
D02*
G37*
G36*
X134400Y252133D02*
Y249400D01*
X137134D01*
X137078Y249825D01*
X136759Y250593D01*
X136253Y251253D01*
X135593Y251759D01*
X134825Y252078D01*
X134400Y252133D01*
D02*
G37*
G36*
X133600D02*
X133175Y252078D01*
X132407Y251759D01*
X131747Y251253D01*
X131241Y250593D01*
X130922Y249825D01*
X130866Y249400D01*
X133600D01*
Y252133D01*
D02*
G37*
G36*
X198634Y251600D02*
X195900D01*
Y248866D01*
X196325Y248922D01*
X197093Y249240D01*
X197753Y249747D01*
X198259Y250407D01*
X198578Y251175D01*
X198634Y251600D01*
D02*
G37*
G36*
X195100D02*
X192366D01*
X192422Y251175D01*
X192741Y250407D01*
X193247Y249747D01*
X193907Y249240D01*
X194675Y248922D01*
X195100Y248866D01*
Y251600D01*
D02*
G37*
G36*
X29692Y319076D02*
X28404Y318907D01*
X27204Y318410D01*
X26173Y317619D01*
X25382Y316588D01*
X24885Y315388D01*
X24715Y314100D01*
X24885Y312812D01*
X25382Y311612D01*
X26173Y310581D01*
X27204Y309790D01*
X28367Y309308D01*
Y271117D01*
X28467Y270610D01*
X28755Y270180D01*
X34391Y264544D01*
Y254915D01*
X33725Y254639D01*
X32900Y254006D01*
X32267Y253181D01*
X31869Y252220D01*
X31733Y251189D01*
X31869Y250158D01*
X32267Y249197D01*
X32900Y248372D01*
X33725Y247739D01*
X34686Y247341D01*
X35717Y247205D01*
X36748Y247341D01*
X37708Y247739D01*
X38533Y248372D01*
X39166Y249197D01*
X39564Y250158D01*
X39700Y251189D01*
X39564Y252220D01*
X39166Y253181D01*
X38533Y254006D01*
X37708Y254639D01*
X37042Y254915D01*
Y265093D01*
X36941Y265600D01*
X36654Y266030D01*
X31017Y271667D01*
Y309308D01*
X32180Y309790D01*
X33211Y310581D01*
X34002Y311612D01*
X34499Y312812D01*
X34668Y314100D01*
X34499Y315388D01*
X34002Y316588D01*
X33211Y317619D01*
X32180Y318410D01*
X30980Y318907D01*
X29692Y319076D01*
D02*
G37*
G36*
X25874Y255172D02*
X24843Y255037D01*
X23882Y254639D01*
X23057Y254006D01*
X22424Y253181D01*
X22026Y252220D01*
X21890Y251189D01*
X22026Y250158D01*
X22302Y249492D01*
X8563Y235752D01*
X8275Y235322D01*
X8174Y234815D01*
Y222161D01*
X8004Y222090D01*
X7385Y221615D01*
X6910Y220995D01*
X6611Y220274D01*
X6509Y219500D01*
X6611Y218726D01*
X6910Y218004D01*
X7385Y217385D01*
X8004Y216910D01*
X8174Y216839D01*
Y204661D01*
X8004Y204590D01*
X7385Y204115D01*
X6910Y203496D01*
X6611Y202774D01*
X6509Y202000D01*
X6611Y201226D01*
X6910Y200504D01*
X7385Y199885D01*
X8004Y199410D01*
X8726Y199111D01*
X9500Y199009D01*
X10274Y199111D01*
X10995Y199410D01*
X11615Y199885D01*
X12090Y200504D01*
X12389Y201226D01*
X12491Y202000D01*
X12389Y202774D01*
X12090Y203496D01*
X11615Y204115D01*
X10995Y204590D01*
X10825Y204661D01*
Y216839D01*
X10995Y216910D01*
X11615Y217385D01*
X12090Y218004D01*
X12389Y218726D01*
X12491Y219500D01*
X12389Y220274D01*
X12090Y220995D01*
X11615Y221615D01*
X10995Y222090D01*
X10825Y222161D01*
Y234266D01*
X24177Y247617D01*
X24843Y247341D01*
X25874Y247205D01*
X26905Y247341D01*
X27866Y247739D01*
X28691Y248372D01*
X29324Y249197D01*
X29722Y250158D01*
X29858Y251189D01*
X29722Y252220D01*
X29324Y253181D01*
X28691Y254006D01*
X27866Y254639D01*
X26905Y255037D01*
X25874Y255172D01*
D02*
G37*
G36*
X12237Y249100D02*
X9900D01*
Y246763D01*
X10222Y246806D01*
X10895Y247084D01*
X11472Y247528D01*
X11916Y248105D01*
X12194Y248778D01*
X12237Y249100D01*
D02*
G37*
G36*
X9100D02*
X6763D01*
X6806Y248778D01*
X7084Y248105D01*
X7528Y247528D01*
X8105Y247084D01*
X8778Y246806D01*
X9100Y246763D01*
Y249100D01*
D02*
G37*
G36*
X137134Y248600D02*
X134400D01*
Y245866D01*
X134825Y245922D01*
X135593Y246240D01*
X136253Y246747D01*
X136759Y247407D01*
X137078Y248175D01*
X137134Y248600D01*
D02*
G37*
G36*
X133600D02*
X130866D01*
X130922Y248175D01*
X131241Y247407D01*
X131747Y246747D01*
X132407Y246240D01*
X133175Y245922D01*
X133600Y245866D01*
Y248600D01*
D02*
G37*
G36*
X84000Y246556D02*
X83174Y246447D01*
X82405Y246129D01*
X81744Y245622D01*
X81238Y244961D01*
X80919Y244192D01*
X80810Y243366D01*
X80919Y242541D01*
X81238Y241771D01*
X81744Y241110D01*
X82405Y240604D01*
X83174Y240285D01*
X84000Y240176D01*
X84825Y240285D01*
X85595Y240604D01*
X86256Y241110D01*
X86762Y241771D01*
X87081Y242541D01*
X87190Y243366D01*
X87081Y244192D01*
X86762Y244961D01*
X86256Y245622D01*
X85595Y246129D01*
X84825Y246447D01*
X84000Y246556D01*
D02*
G37*
G36*
X215500Y255388D02*
X214623Y255273D01*
X213806Y254934D01*
X213104Y254396D01*
X212566Y253694D01*
X212227Y252877D01*
X212112Y252000D01*
X212227Y251123D01*
X212566Y250306D01*
X213104Y249604D01*
X213806Y249066D01*
X214623Y248727D01*
X215500Y248612D01*
X216377Y248727D01*
X216745Y248880D01*
X219674Y245951D01*
Y244661D01*
X219504Y244590D01*
X218885Y244115D01*
X218410Y243495D01*
X218111Y242774D01*
X218009Y242000D01*
X218111Y241226D01*
X218410Y240504D01*
X218885Y239885D01*
X219504Y239410D01*
X220226Y239111D01*
X221000Y239009D01*
X221774Y239111D01*
X222496Y239410D01*
X223115Y239885D01*
X223590Y240504D01*
X223889Y241226D01*
X223991Y242000D01*
X223889Y242774D01*
X223590Y243495D01*
X223115Y244115D01*
X222496Y244590D01*
X222325Y244661D01*
Y246500D01*
X222224Y247007D01*
X221937Y247437D01*
X218620Y250754D01*
X218773Y251123D01*
X218888Y252000D01*
X218773Y252877D01*
X218434Y253694D01*
X217896Y254396D01*
X217194Y254934D01*
X216377Y255273D01*
X215500Y255388D01*
D02*
G37*
G36*
X191000Y244991D02*
X190226Y244889D01*
X189504Y244590D01*
X188885Y244115D01*
X188410Y243495D01*
X188111Y242774D01*
X188009Y242000D01*
X188111Y241226D01*
X188410Y240504D01*
X188885Y239885D01*
X189504Y239410D01*
X190226Y239111D01*
X191000Y239009D01*
X191774Y239111D01*
X192496Y239410D01*
X193115Y239885D01*
X193590Y240504D01*
X193889Y241226D01*
X193991Y242000D01*
X193889Y242774D01*
X193590Y243495D01*
X193115Y244115D01*
X192496Y244590D01*
X191774Y244889D01*
X191000Y244991D01*
D02*
G37*
G36*
X114000Y252388D02*
X113123Y252273D01*
X112306Y251934D01*
X111604Y251396D01*
X111066Y250694D01*
X110727Y249877D01*
X110612Y249000D01*
X110727Y248123D01*
X111066Y247306D01*
X111553Y246671D01*
Y236447D01*
X107162D01*
Y237162D01*
X106447D01*
Y241360D01*
X106762Y241771D01*
X107081Y242541D01*
X107190Y243366D01*
X107081Y244192D01*
X106762Y244961D01*
X106255Y245622D01*
X105595Y246129D01*
X104825Y246447D01*
X104000Y246556D01*
X103174Y246447D01*
X102405Y246129D01*
X101744Y245622D01*
X101237Y244961D01*
X100919Y244192D01*
X100810Y243366D01*
X100919Y242541D01*
X101237Y241771D01*
X101553Y241360D01*
Y237162D01*
X100838D01*
Y230838D01*
X107162D01*
Y231553D01*
X111995D01*
X112405Y231238D01*
X113174Y230919D01*
X114000Y230811D01*
X114825Y230919D01*
X115595Y231238D01*
X116255Y231745D01*
X116762Y232405D01*
X117081Y233174D01*
X117189Y234000D01*
X117081Y234825D01*
X116762Y235595D01*
X116447Y236005D01*
Y246671D01*
X116934Y247306D01*
X117272Y248123D01*
X117388Y249000D01*
X117272Y249877D01*
X116934Y250694D01*
X116396Y251396D01*
X115694Y251934D01*
X114877Y252273D01*
X114000Y252388D01*
D02*
G37*
G36*
X45559Y255172D02*
X44528Y255037D01*
X43567Y254639D01*
X42742Y254006D01*
X42109Y253181D01*
X41711Y252220D01*
X41575Y251189D01*
X41711Y250158D01*
X42109Y249197D01*
X42742Y248372D01*
X43567Y247739D01*
X44234Y247463D01*
Y242316D01*
X43567Y242040D01*
X42742Y241407D01*
X42109Y240582D01*
X41711Y239621D01*
X41575Y238591D01*
X41711Y237560D01*
X42109Y236599D01*
X42742Y235774D01*
X43567Y235141D01*
X44528Y234743D01*
X45559Y234607D01*
X46590Y234743D01*
X47551Y235141D01*
X48376Y235774D01*
X49009Y236599D01*
X49407Y237560D01*
X49543Y238591D01*
X49407Y239621D01*
X49009Y240582D01*
X48376Y241407D01*
X47551Y242040D01*
X46885Y242316D01*
Y247463D01*
X47551Y247739D01*
X48376Y248372D01*
X49009Y249197D01*
X49407Y250158D01*
X49543Y251189D01*
X49407Y252220D01*
X49009Y253181D01*
X48376Y254006D01*
X47551Y254639D01*
X46590Y255037D01*
X45559Y255172D01*
D02*
G37*
G36*
X35717Y242574D02*
X34686Y242438D01*
X33725Y242040D01*
X32900Y241407D01*
X32267Y240582D01*
X31869Y239621D01*
X31733Y238591D01*
X31869Y237560D01*
X32267Y236599D01*
X32900Y235774D01*
X33725Y235141D01*
X34686Y234743D01*
X35717Y234607D01*
X36748Y234743D01*
X37708Y235141D01*
X38533Y235774D01*
X39166Y236599D01*
X39564Y237560D01*
X39700Y238591D01*
X39564Y239621D01*
X39166Y240582D01*
X38533Y241407D01*
X37708Y242040D01*
X36748Y242438D01*
X35717Y242574D01*
D02*
G37*
G36*
X124400Y236935D02*
Y234400D01*
X126935D01*
X126886Y234773D01*
X126587Y235494D01*
X126112Y236112D01*
X125494Y236587D01*
X124773Y236886D01*
X124400Y236935D01*
D02*
G37*
G36*
X123600D02*
X123227Y236886D01*
X122506Y236587D01*
X121887Y236112D01*
X121413Y235494D01*
X121114Y234773D01*
X121065Y234400D01*
X123600D01*
Y236935D01*
D02*
G37*
G36*
X182600Y234737D02*
Y232400D01*
X184937D01*
X184894Y232722D01*
X184616Y233395D01*
X184172Y233972D01*
X183595Y234416D01*
X182922Y234694D01*
X182600Y234737D01*
D02*
G37*
G36*
X181800D02*
X181478Y234694D01*
X180805Y234416D01*
X180228Y233972D01*
X179784Y233395D01*
X179506Y232722D01*
X179463Y232400D01*
X181800D01*
Y234737D01*
D02*
G37*
G36*
X126935Y233600D02*
X124400D01*
Y231065D01*
X124773Y231114D01*
X125494Y231413D01*
X126112Y231887D01*
X126587Y232506D01*
X126886Y233227D01*
X126935Y233600D01*
D02*
G37*
G36*
X123600D02*
X121065D01*
X121114Y233227D01*
X121413Y232506D01*
X121887Y231887D01*
X122506Y231413D01*
X123227Y231114D01*
X123600Y231065D01*
Y233600D01*
D02*
G37*
G36*
X134000Y237189D02*
X133175Y237081D01*
X132405Y236762D01*
X131745Y236255D01*
X131238Y235595D01*
X130919Y234825D01*
X130811Y234000D01*
X130919Y233174D01*
X131238Y232405D01*
X131745Y231745D01*
X132405Y231238D01*
X133175Y230919D01*
X134000Y230811D01*
X134825Y230919D01*
X135595Y231238D01*
X136255Y231745D01*
X136762Y232405D01*
X137081Y233174D01*
X137189Y234000D01*
X137081Y234825D01*
X136762Y235595D01*
X136255Y236255D01*
X135595Y236762D01*
X134825Y237081D01*
X134000Y237189D01*
D02*
G37*
G36*
X84000D02*
X83175Y237081D01*
X82405Y236762D01*
X81745Y236255D01*
X81238Y235595D01*
X80919Y234825D01*
X80811Y234000D01*
X80919Y233174D01*
X81238Y232405D01*
X81745Y231745D01*
X82405Y231238D01*
X83175Y230919D01*
X84000Y230811D01*
X84825Y230919D01*
X85595Y231238D01*
X86255Y231745D01*
X86762Y232405D01*
X87081Y233174D01*
X87189Y234000D01*
X87081Y234825D01*
X86762Y235595D01*
X86255Y236255D01*
X85595Y236762D01*
X84825Y237081D01*
X84000Y237189D01*
D02*
G37*
G36*
X184937Y231600D02*
X182600D01*
Y229263D01*
X182922Y229306D01*
X183595Y229584D01*
X184172Y230028D01*
X184616Y230605D01*
X184894Y231278D01*
X184937Y231600D01*
D02*
G37*
G36*
X181800D02*
X179463D01*
X179506Y231278D01*
X179784Y230605D01*
X180228Y230028D01*
X180805Y229584D01*
X181478Y229306D01*
X181800Y229263D01*
Y231600D01*
D02*
G37*
G36*
X104000Y286556D02*
X103174Y286447D01*
X102405Y286128D01*
X101744Y285622D01*
X101237Y284961D01*
X100919Y284192D01*
X100810Y283366D01*
X100919Y282540D01*
X101237Y281771D01*
X101744Y281111D01*
X102405Y280604D01*
X103174Y280285D01*
X104000Y280176D01*
X104825Y280285D01*
X105595Y280604D01*
X106255Y281111D01*
X106762Y281771D01*
X106874Y282041D01*
X121385D01*
X153729Y249696D01*
X153535Y249228D01*
X153413Y248300D01*
X153535Y247372D01*
X153894Y246507D01*
X154464Y245764D01*
X155207Y245194D01*
X155675Y245000D01*
Y243323D01*
X151263Y238911D01*
X150975Y238481D01*
X150874Y237974D01*
Y234661D01*
X150704Y234590D01*
X150085Y234115D01*
X149610Y233495D01*
X149311Y232774D01*
X149209Y232000D01*
X149311Y231226D01*
X149610Y230504D01*
X150085Y229885D01*
X150704Y229410D01*
X151426Y229111D01*
X152200Y229009D01*
X152974Y229111D01*
X153695Y229410D01*
X154315Y229885D01*
X154790Y230504D01*
X155089Y231226D01*
X155191Y232000D01*
X155089Y232774D01*
X154790Y233495D01*
X154315Y234115D01*
X153695Y234590D01*
X153525Y234661D01*
Y237425D01*
X157937Y241837D01*
X158224Y242267D01*
X158325Y242774D01*
X158325Y242774D01*
Y245000D01*
X158793Y245194D01*
X159536Y245764D01*
X160106Y246507D01*
X160464Y247372D01*
X160587Y248300D01*
X160464Y249228D01*
X160106Y250093D01*
X159536Y250836D01*
X158793Y251406D01*
X157928Y251764D01*
X157000Y251887D01*
X156072Y251764D01*
X155604Y251571D01*
X122871Y284303D01*
X122441Y284591D01*
X121934Y284692D01*
X106874D01*
X106762Y284961D01*
X106255Y285622D01*
X105595Y286128D01*
X104825Y286447D01*
X104000Y286556D01*
D02*
G37*
G36*
X211900Y229935D02*
Y227400D01*
X214435D01*
X214386Y227773D01*
X214087Y228494D01*
X213613Y229112D01*
X212994Y229587D01*
X212273Y229886D01*
X211900Y229935D01*
D02*
G37*
G36*
X211100D02*
X210727Y229886D01*
X210006Y229587D01*
X209387Y229112D01*
X208913Y228494D01*
X208614Y227773D01*
X208565Y227400D01*
X211100D01*
Y229935D01*
D02*
G37*
G36*
X214435Y226600D02*
X211900D01*
Y224065D01*
X212273Y224114D01*
X212994Y224413D01*
X213613Y224887D01*
X214087Y225506D01*
X214386Y226227D01*
X214435Y226600D01*
D02*
G37*
G36*
X211100D02*
X208565D01*
X208614Y226227D01*
X208913Y225506D01*
X209387Y224887D01*
X210006Y224413D01*
X210727Y224114D01*
X211100Y224065D01*
Y226600D01*
D02*
G37*
G36*
X177000Y251887D02*
X176072Y251764D01*
X175207Y251406D01*
X174464Y250836D01*
X173894Y250093D01*
X173536Y249228D01*
X173413Y248300D01*
X173536Y247372D01*
X173894Y246507D01*
X174464Y245764D01*
X175207Y245194D01*
X175674Y245000D01*
Y227200D01*
X175775Y226693D01*
X176063Y226263D01*
X179381Y222944D01*
X179311Y222774D01*
X179209Y222000D01*
X179311Y221226D01*
X179610Y220504D01*
X180085Y219885D01*
X180704Y219410D01*
X181426Y219111D01*
X182200Y219009D01*
X182974Y219111D01*
X183695Y219410D01*
X184315Y219885D01*
X184790Y220504D01*
X185089Y221226D01*
X185191Y222000D01*
X185089Y222774D01*
X184790Y223496D01*
X184315Y224115D01*
X183695Y224590D01*
X182974Y224889D01*
X182200Y224991D01*
X181426Y224889D01*
X181256Y224819D01*
X178325Y227749D01*
Y245000D01*
X178793Y245194D01*
X179536Y245764D01*
X180106Y246507D01*
X180464Y247372D01*
X180587Y248300D01*
X180464Y249228D01*
X180106Y250093D01*
X179536Y250836D01*
X178793Y251406D01*
X177928Y251764D01*
X177000Y251887D01*
D02*
G37*
G36*
X152200Y224991D02*
X151426Y224889D01*
X150704Y224590D01*
X150085Y224115D01*
X149610Y223496D01*
X149311Y222774D01*
X149209Y222000D01*
X149311Y221226D01*
X149610Y220504D01*
X150085Y219885D01*
X150704Y219410D01*
X151426Y219111D01*
X152200Y219009D01*
X152974Y219111D01*
X153695Y219410D01*
X154315Y219885D01*
X154790Y220504D01*
X155089Y221226D01*
X155191Y222000D01*
X155089Y222774D01*
X154790Y223496D01*
X154315Y224115D01*
X153695Y224590D01*
X152974Y224889D01*
X152200Y224991D01*
D02*
G37*
G36*
X124627Y214737D02*
Y212400D01*
X126963D01*
X126921Y212722D01*
X126642Y213395D01*
X126199Y213972D01*
X125621Y214416D01*
X124949Y214694D01*
X124627Y214737D01*
D02*
G37*
G36*
X123827D02*
X123505Y214694D01*
X122832Y214416D01*
X122254Y213972D01*
X121811Y213395D01*
X121532Y212722D01*
X121490Y212400D01*
X123827D01*
Y214737D01*
D02*
G37*
G36*
X126963Y211600D02*
X124627D01*
Y209263D01*
X124949Y209306D01*
X125621Y209584D01*
X126199Y210028D01*
X126642Y210605D01*
X126921Y211278D01*
X126963Y211600D01*
D02*
G37*
G36*
X123827D02*
X121490D01*
X121532Y211278D01*
X121811Y210605D01*
X122254Y210028D01*
X122832Y209584D01*
X123505Y209306D01*
X123827Y209263D01*
Y211600D01*
D02*
G37*
G36*
X137192Y214965D02*
X131261D01*
Y209034D01*
X137192D01*
Y214965D01*
D02*
G37*
G36*
X204662Y230162D02*
X198338D01*
Y225712D01*
X190563Y217937D01*
X190275Y217507D01*
X190174Y217000D01*
Y214661D01*
X190004Y214590D01*
X189385Y214115D01*
X188910Y213495D01*
X188611Y212774D01*
X188509Y212000D01*
X188611Y211226D01*
X188910Y210504D01*
X189385Y209885D01*
X190004Y209410D01*
X190726Y209111D01*
X191500Y209009D01*
X192274Y209111D01*
X192996Y209410D01*
X193615Y209885D01*
X194090Y210504D01*
X194389Y211226D01*
X194491Y212000D01*
X194389Y212774D01*
X194090Y213495D01*
X193615Y214115D01*
X192996Y214590D01*
X192825Y214661D01*
Y216451D01*
X200213Y223838D01*
X204662D01*
Y230162D01*
D02*
G37*
G36*
X43500Y271881D02*
X42366Y271732D01*
X41309Y271294D01*
X40402Y270598D01*
X39706Y269690D01*
X39268Y268634D01*
X39119Y267500D01*
X39268Y266366D01*
X39706Y265309D01*
X40402Y264402D01*
X41309Y263706D01*
X42366Y263268D01*
X43500Y263119D01*
X44313Y263226D01*
X64553Y242986D01*
Y231255D01*
X64739Y230319D01*
X65270Y229525D01*
X84525Y210270D01*
X85319Y209739D01*
X86255Y209553D01*
X92338D01*
Y208838D01*
X98662D01*
Y215162D01*
X92338D01*
Y214447D01*
X87269D01*
X69447Y232269D01*
Y244000D01*
X69261Y244936D01*
X68730Y245730D01*
X47774Y266687D01*
X47881Y267500D01*
X47732Y268634D01*
X47294Y269690D01*
X46598Y270598D01*
X45690Y271294D01*
X44634Y271732D01*
X43500Y271881D01*
D02*
G37*
G36*
X105500Y215189D02*
X104674Y215080D01*
X103905Y214762D01*
X103245Y214255D01*
X102738Y213595D01*
X102419Y212825D01*
X102311Y212000D01*
X102419Y211175D01*
X102738Y210405D01*
X103245Y209745D01*
X103905Y209238D01*
X104674Y208919D01*
X105500Y208811D01*
X106325Y208919D01*
X107095Y209238D01*
X107755Y209745D01*
X108262Y210405D01*
X108581Y211175D01*
X108689Y212000D01*
X108581Y212825D01*
X108262Y213595D01*
X107755Y214255D01*
X107095Y214762D01*
X106325Y215080D01*
X105500Y215189D01*
D02*
G37*
G36*
X213344Y271843D02*
X204657D01*
Y263156D01*
X207675D01*
Y240528D01*
X207775Y240020D01*
X208063Y239590D01*
X220175Y227479D01*
Y214661D01*
X220004Y214590D01*
X219385Y214115D01*
X218910Y213495D01*
X218611Y212774D01*
X218509Y212000D01*
X218611Y211226D01*
X218910Y210504D01*
X219385Y209885D01*
X220004Y209410D01*
X220175Y209339D01*
Y207549D01*
X217745Y205120D01*
X217377Y205273D01*
X216500Y205388D01*
X215623Y205273D01*
X214806Y204934D01*
X214104Y204396D01*
X213566Y203694D01*
X213227Y202877D01*
X213112Y202000D01*
X213227Y201123D01*
X213566Y200306D01*
X214104Y199604D01*
X214806Y199066D01*
X215623Y198727D01*
X216500Y198612D01*
X217377Y198727D01*
X218194Y199066D01*
X218896Y199604D01*
X219434Y200306D01*
X219773Y201123D01*
X219888Y202000D01*
X219773Y202877D01*
X219620Y203245D01*
X222437Y206063D01*
X222725Y206493D01*
X222825Y207000D01*
Y209339D01*
X222995Y209410D01*
X223615Y209885D01*
X224090Y210504D01*
X224389Y211226D01*
X224491Y212000D01*
X224389Y212774D01*
X224090Y213495D01*
X223615Y214115D01*
X222995Y214590D01*
X222825Y214661D01*
Y228028D01*
X222725Y228535D01*
X222437Y228965D01*
X210325Y241077D01*
Y263156D01*
X213344D01*
Y271843D01*
D02*
G37*
G36*
X70500Y205491D02*
X69726Y205389D01*
X69004Y205090D01*
X68385Y204615D01*
X67910Y203995D01*
X67839Y203825D01*
X63161D01*
X63090Y203995D01*
X62615Y204615D01*
X61996Y205090D01*
X61274Y205389D01*
X60500Y205491D01*
X59726Y205389D01*
X59004Y205090D01*
X58385Y204615D01*
X57910Y203995D01*
X57611Y203274D01*
X57509Y202500D01*
X57611Y201726D01*
X57910Y201004D01*
X58385Y200385D01*
X59004Y199910D01*
X59726Y199611D01*
X60500Y199509D01*
X61274Y199611D01*
X61996Y199910D01*
X62615Y200385D01*
X63090Y201004D01*
X63161Y201174D01*
X67839D01*
X67910Y201004D01*
X68385Y200385D01*
X69004Y199910D01*
X69726Y199611D01*
X70500Y199509D01*
X71274Y199611D01*
X71996Y199910D01*
X72615Y200385D01*
X73090Y201004D01*
X73389Y201726D01*
X73491Y202500D01*
X73389Y203274D01*
X73090Y203995D01*
X72615Y204615D01*
X71996Y205090D01*
X71274Y205389D01*
X70500Y205491D01*
D02*
G37*
G36*
X40500D02*
X39726Y205389D01*
X39004Y205090D01*
X38385Y204615D01*
X37910Y203995D01*
X37611Y203274D01*
X37509Y202500D01*
X37611Y201726D01*
X37910Y201004D01*
X38385Y200385D01*
X39004Y199910D01*
X39726Y199611D01*
X40500Y199509D01*
X41274Y199611D01*
X41995Y199910D01*
X42615Y200385D01*
X43090Y201004D01*
X43389Y201726D01*
X43491Y202500D01*
X43389Y203274D01*
X43090Y203995D01*
X42615Y204615D01*
X41995Y205090D01*
X41274Y205389D01*
X40500Y205491D01*
D02*
G37*
G36*
X25874Y242574D02*
X24843Y242438D01*
X23882Y242040D01*
X23057Y241407D01*
X22424Y240582D01*
X22026Y239621D01*
X21890Y238591D01*
X22026Y237560D01*
X22424Y236599D01*
X23057Y235774D01*
X23882Y235141D01*
X24548Y234865D01*
Y231318D01*
X24649Y230811D01*
X24937Y230381D01*
X29175Y226143D01*
Y222373D01*
X28905Y222262D01*
X28245Y221755D01*
X27738Y221095D01*
X27419Y220325D01*
X27311Y219500D01*
X27419Y218674D01*
X27738Y217905D01*
X28245Y217245D01*
X28905Y216738D01*
X29175Y216626D01*
Y205161D01*
X29004Y205090D01*
X28385Y204615D01*
X27910Y203995D01*
X27611Y203274D01*
X27509Y202500D01*
X27611Y201726D01*
X27910Y201004D01*
X28385Y200385D01*
X29004Y199910D01*
X29726Y199611D01*
X30500Y199509D01*
X31274Y199611D01*
X31995Y199910D01*
X32615Y200385D01*
X33090Y201004D01*
X33389Y201726D01*
X33491Y202500D01*
X33389Y203274D01*
X33090Y203995D01*
X32615Y204615D01*
X31995Y205090D01*
X31825Y205161D01*
Y216626D01*
X32095Y216738D01*
X32755Y217245D01*
X33262Y217905D01*
X33581Y218674D01*
X33689Y219500D01*
X33581Y220325D01*
X33262Y221095D01*
X32755Y221755D01*
X32095Y222262D01*
X31825Y222373D01*
Y226692D01*
X31725Y227199D01*
X31437Y227629D01*
X27199Y231867D01*
Y234865D01*
X27866Y235141D01*
X28691Y235774D01*
X29324Y236599D01*
X29722Y237560D01*
X29858Y238591D01*
X29722Y239621D01*
X29324Y240582D01*
X28691Y241407D01*
X27866Y242040D01*
X26905Y242438D01*
X25874Y242574D01*
D02*
G37*
G36*
X23662Y222662D02*
X17338D01*
Y216338D01*
X19174D01*
Y204661D01*
X19004Y204590D01*
X18385Y204115D01*
X17910Y203496D01*
X17611Y202774D01*
X17509Y202000D01*
X17611Y201226D01*
X17910Y200504D01*
X18385Y199885D01*
X19004Y199410D01*
X19726Y199111D01*
X20500Y199009D01*
X21274Y199111D01*
X21995Y199410D01*
X22615Y199885D01*
X23090Y200504D01*
X23389Y201226D01*
X23491Y202000D01*
X23389Y202774D01*
X23090Y203496D01*
X22615Y204115D01*
X21995Y204590D01*
X21825Y204661D01*
Y216338D01*
X23662D01*
Y222662D01*
D02*
G37*
G36*
X182200Y214991D02*
X181426Y214889D01*
X180704Y214590D01*
X180085Y214115D01*
X179610Y213495D01*
X179311Y212774D01*
X179209Y212000D01*
X179311Y211226D01*
X179610Y210504D01*
X180085Y209885D01*
X180704Y209410D01*
X180875Y209339D01*
Y205087D01*
X180506Y204934D01*
X179804Y204396D01*
X179266Y203694D01*
X178927Y202877D01*
X178812Y202000D01*
X178927Y201123D01*
X179266Y200306D01*
X179804Y199604D01*
X180506Y199066D01*
X180941Y198886D01*
Y192023D01*
X180602Y191883D01*
X179912Y191353D01*
X179384Y190664D01*
X179051Y189861D01*
X178938Y189000D01*
X179051Y188138D01*
X179384Y187336D01*
X179912Y186646D01*
X180602Y186117D01*
X181405Y185785D01*
X182266Y185671D01*
X183127Y185785D01*
X183930Y186117D01*
X184620Y186646D01*
X185149Y187336D01*
X185481Y188138D01*
X185595Y189000D01*
X185481Y189861D01*
X185149Y190664D01*
X184620Y191353D01*
X183930Y191883D01*
X183592Y192023D01*
Y198941D01*
X183894Y199066D01*
X184596Y199604D01*
X185134Y200306D01*
X185287Y200675D01*
X193413D01*
X193566Y200306D01*
X194104Y199604D01*
X194806Y199066D01*
X195623Y198727D01*
X196500Y198612D01*
X197377Y198727D01*
X198194Y199066D01*
X198896Y199604D01*
X199434Y200306D01*
X199773Y201123D01*
X199888Y202000D01*
X199773Y202877D01*
X199434Y203694D01*
X198896Y204396D01*
X198194Y204934D01*
X197377Y205273D01*
X196500Y205388D01*
X195623Y205273D01*
X194806Y204934D01*
X194104Y204396D01*
X193566Y203694D01*
X193413Y203325D01*
X185287D01*
X185134Y203694D01*
X184596Y204396D01*
X183894Y204934D01*
X183525Y205087D01*
Y209339D01*
X183695Y209410D01*
X184315Y209885D01*
X184790Y210504D01*
X185089Y211226D01*
X185191Y212000D01*
X185089Y212774D01*
X184790Y213495D01*
X184315Y214115D01*
X183695Y214590D01*
X182974Y214889D01*
X182200Y214991D01*
D02*
G37*
G36*
X224000Y192388D02*
X223123Y192272D01*
X222306Y191934D01*
X221671Y191447D01*
X214498D01*
X213930Y191883D01*
X213128Y192215D01*
X212266Y192328D01*
X211405Y192215D01*
X210602Y191883D01*
X209912Y191353D01*
X209756Y191149D01*
X208640D01*
X207703Y190963D01*
X206910Y190433D01*
X198270Y181793D01*
X197739Y180999D01*
X197553Y180062D01*
Y163014D01*
X185133Y150593D01*
X160671D01*
X155147Y156118D01*
X154990Y156495D01*
X154515Y157115D01*
X153895Y157590D01*
X153174Y157889D01*
X152400Y157991D01*
X151626Y157889D01*
X150904Y157590D01*
X150718Y157447D01*
X145347D01*
Y163534D01*
X145865D01*
Y169465D01*
X139935D01*
Y163534D01*
X140453D01*
Y156682D01*
X140310Y156495D01*
X140011Y155774D01*
X139909Y155000D01*
X140011Y154226D01*
X140310Y153504D01*
X140453Y153318D01*
Y153022D01*
X138024Y150593D01*
X73867D01*
X63877Y160584D01*
X63772Y161377D01*
X63434Y162194D01*
X62896Y162896D01*
X62194Y163434D01*
X61377Y163772D01*
X60500Y163888D01*
X59623Y163772D01*
X58806Y163434D01*
X58171Y162947D01*
X52732D01*
X52164Y163382D01*
X51361Y163715D01*
X50500Y163828D01*
X49639Y163715D01*
X48836Y163382D01*
X48146Y162854D01*
X47617Y162164D01*
X47285Y161361D01*
X47172Y160500D01*
X47285Y159639D01*
X47617Y158836D01*
X48146Y158146D01*
X48836Y157617D01*
X49639Y157285D01*
X50500Y157171D01*
X51361Y157285D01*
X52164Y157617D01*
X52732Y158053D01*
X58171D01*
X58806Y157566D01*
X59623Y157227D01*
X60416Y157123D01*
X71123Y146416D01*
X71917Y145886D01*
X72853Y145699D01*
X139038D01*
X139974Y145886D01*
X140768Y146416D01*
X144630Y150278D01*
X145161Y151072D01*
X145347Y152009D01*
Y152553D01*
X150718D01*
X150904Y152410D01*
X151626Y152111D01*
X152325Y152019D01*
X157928Y146416D01*
X158721Y145886D01*
X159658Y145699D01*
X186146D01*
X187083Y145886D01*
X187877Y146416D01*
X201730Y160270D01*
X202261Y161064D01*
X202447Y162000D01*
Y179049D01*
X209653Y186255D01*
X210422D01*
X210602Y186117D01*
X211405Y185785D01*
X212266Y185671D01*
X213128Y185785D01*
X213930Y186117D01*
X214498Y186553D01*
X221671D01*
X222306Y186066D01*
X223123Y185727D01*
X224000Y185612D01*
X224877Y185727D01*
X225694Y186066D01*
X226396Y186604D01*
X226934Y187306D01*
X227273Y188123D01*
X227388Y189000D01*
X227273Y189877D01*
X226934Y190694D01*
X226396Y191396D01*
X225694Y191934D01*
X224877Y192272D01*
X224000Y192388D01*
D02*
G37*
G36*
X143300Y179237D02*
Y176900D01*
X145637D01*
X145594Y177222D01*
X145316Y177895D01*
X144872Y178472D01*
X144295Y178916D01*
X143622Y179194D01*
X143300Y179237D01*
D02*
G37*
G36*
X142500D02*
X142178Y179194D01*
X141505Y178916D01*
X140928Y178472D01*
X140484Y177895D01*
X140206Y177222D01*
X140163Y176900D01*
X142500D01*
Y179237D01*
D02*
G37*
G36*
Y176100D02*
X140163D01*
X140206Y175778D01*
X140484Y175105D01*
X140928Y174528D01*
X141505Y174084D01*
X142178Y173806D01*
X142500Y173763D01*
Y176100D01*
D02*
G37*
G36*
X145637D02*
X143300D01*
Y173763D01*
X143622Y173806D01*
X144295Y174084D01*
X144872Y174528D01*
X145316Y175105D01*
X145594Y175778D01*
X145637Y176100D01*
D02*
G37*
G36*
X60900Y175237D02*
Y172900D01*
X63237D01*
X63194Y173222D01*
X62916Y173895D01*
X62472Y174472D01*
X61895Y174916D01*
X61222Y175194D01*
X60900Y175237D01*
D02*
G37*
G36*
X30900D02*
Y172900D01*
X33237D01*
X33194Y173222D01*
X32916Y173895D01*
X32472Y174472D01*
X31895Y174916D01*
X31222Y175194D01*
X30900Y175237D01*
D02*
G37*
G36*
X30100D02*
X29778Y175194D01*
X29105Y174916D01*
X28528Y174472D01*
X28084Y173895D01*
X27806Y173222D01*
X27763Y172900D01*
X30100D01*
Y175237D01*
D02*
G37*
G36*
X60100D02*
X59778Y175194D01*
X59105Y174916D01*
X58528Y174472D01*
X58084Y173895D01*
X57806Y173222D01*
X57763Y172900D01*
X60100D01*
Y175237D01*
D02*
G37*
G36*
X63237Y172100D02*
X60900D01*
Y169763D01*
X61222Y169806D01*
X61895Y170084D01*
X62472Y170528D01*
X62916Y171105D01*
X63194Y171778D01*
X63237Y172100D01*
D02*
G37*
G36*
X33237D02*
X30900D01*
Y169763D01*
X31222Y169806D01*
X31895Y170084D01*
X32472Y170528D01*
X32916Y171105D01*
X33194Y171778D01*
X33237Y172100D01*
D02*
G37*
G36*
X30100D02*
X27763D01*
X27806Y171778D01*
X28084Y171105D01*
X28528Y170528D01*
X29105Y170084D01*
X29778Y169806D01*
X30100Y169763D01*
Y172100D01*
D02*
G37*
G36*
X60100D02*
X57763D01*
X57806Y171778D01*
X58084Y171105D01*
X58528Y170528D01*
X59105Y170084D01*
X59778Y169806D01*
X60100Y169763D01*
Y172100D01*
D02*
G37*
G36*
X40500Y175491D02*
X39726Y175389D01*
X39004Y175090D01*
X38385Y174615D01*
X37910Y173995D01*
X37611Y173274D01*
X37509Y172500D01*
X37611Y171726D01*
X37681Y171556D01*
X33838Y167713D01*
X33551Y167283D01*
X33450Y166775D01*
Y152225D01*
X33551Y151717D01*
X33838Y151287D01*
X45563Y139563D01*
X45993Y139275D01*
X46500Y139174D01*
X47477D01*
X47617Y138836D01*
X48146Y138146D01*
X48836Y137617D01*
X49639Y137285D01*
X50500Y137171D01*
X51361Y137285D01*
X52164Y137617D01*
X52854Y138146D01*
X53382Y138836D01*
X53715Y139638D01*
X53828Y140500D01*
X53715Y141361D01*
X53382Y142164D01*
X52854Y142853D01*
X52164Y143383D01*
X51361Y143715D01*
X50500Y143828D01*
X49639Y143715D01*
X48836Y143383D01*
X48146Y142853D01*
X47617Y142164D01*
X47513Y141912D01*
X47015Y141859D01*
X36101Y152773D01*
Y166226D01*
X39556Y169681D01*
X39726Y169611D01*
X40500Y169509D01*
X41274Y169611D01*
X41995Y169910D01*
X42615Y170385D01*
X43090Y171004D01*
X43389Y171726D01*
X43491Y172500D01*
X43389Y173274D01*
X43090Y173995D01*
X42615Y174615D01*
X41995Y175090D01*
X41274Y175389D01*
X40500Y175491D01*
D02*
G37*
G36*
X224400Y172134D02*
Y169400D01*
X227134D01*
X227078Y169825D01*
X226759Y170593D01*
X226253Y171253D01*
X225593Y171759D01*
X224825Y172078D01*
X224400Y172134D01*
D02*
G37*
G36*
X223600D02*
X223175Y172078D01*
X222407Y171759D01*
X221747Y171253D01*
X221241Y170593D01*
X220922Y169825D01*
X220866Y169400D01*
X223600D01*
Y172134D01*
D02*
G37*
G36*
X227134Y168600D02*
X224400D01*
Y165866D01*
X224825Y165922D01*
X225593Y166241D01*
X226253Y166747D01*
X226759Y167407D01*
X227078Y168175D01*
X227134Y168600D01*
D02*
G37*
G36*
X223600D02*
X220866D01*
X220922Y168175D01*
X221241Y167407D01*
X221747Y166747D01*
X222407Y166241D01*
X223175Y165922D01*
X223600Y165866D01*
Y168600D01*
D02*
G37*
G36*
X212266Y182328D02*
X211405Y182215D01*
X210602Y181883D01*
X209912Y181353D01*
X209384Y180664D01*
X209051Y179861D01*
X208938Y179000D01*
X209051Y178138D01*
X209384Y177336D01*
X209912Y176646D01*
X210602Y176117D01*
X210941Y175977D01*
Y172023D01*
X210602Y171882D01*
X209912Y171353D01*
X209384Y170664D01*
X209051Y169861D01*
X208938Y169000D01*
X209051Y168139D01*
X209384Y167336D01*
X209912Y166646D01*
X210602Y166117D01*
X211405Y165785D01*
X212266Y165672D01*
X213128Y165785D01*
X213930Y166117D01*
X214620Y166646D01*
X215149Y167336D01*
X215481Y168139D01*
X215595Y169000D01*
X215481Y169861D01*
X215149Y170664D01*
X214620Y171353D01*
X213930Y171882D01*
X213592Y172023D01*
Y175977D01*
X213930Y176117D01*
X214620Y176646D01*
X215149Y177336D01*
X215481Y178138D01*
X215595Y179000D01*
X215481Y179861D01*
X215149Y180664D01*
X214620Y181353D01*
X213930Y181883D01*
X213128Y182215D01*
X212266Y182328D01*
D02*
G37*
G36*
X50500Y205491D02*
X49726Y205389D01*
X49004Y205090D01*
X48385Y204615D01*
X47910Y203995D01*
X47611Y203274D01*
X47509Y202500D01*
X47611Y201726D01*
X47910Y201004D01*
X48385Y200385D01*
X49004Y199910D01*
X49726Y199611D01*
X50500Y199509D01*
X51274Y199611D01*
X51444Y199681D01*
X61100Y190026D01*
X61530Y189739D01*
X62037Y189638D01*
X154488D01*
X176063Y168063D01*
X176493Y167775D01*
X177000Y167675D01*
X179243D01*
X179384Y167336D01*
X179912Y166646D01*
X180602Y166117D01*
X181405Y165785D01*
X182266Y165672D01*
X183127Y165785D01*
X183930Y166117D01*
X184620Y166646D01*
X185149Y167336D01*
X185481Y168139D01*
X185595Y169000D01*
X185481Y169861D01*
X185149Y170664D01*
X184620Y171353D01*
X183930Y171882D01*
X183127Y172215D01*
X182266Y172328D01*
X181405Y172215D01*
X180602Y171882D01*
X179912Y171353D01*
X179384Y170664D01*
X179243Y170325D01*
X177549D01*
X155974Y191900D01*
X155544Y192188D01*
X155037Y192288D01*
X62586D01*
X53319Y201556D01*
X53389Y201726D01*
X53491Y202500D01*
X53389Y203274D01*
X53090Y203995D01*
X52615Y204615D01*
X51995Y205090D01*
X51274Y205389D01*
X50500Y205491D01*
D02*
G37*
G36*
X182666Y162074D02*
Y159400D01*
X185340D01*
X185286Y159809D01*
X184974Y160563D01*
X184477Y161211D01*
X183829Y161708D01*
X183075Y162020D01*
X182666Y162074D01*
D02*
G37*
G36*
X181866D02*
X181457Y162020D01*
X180703Y161708D01*
X180055Y161211D01*
X179558Y160563D01*
X179246Y159809D01*
X179192Y159400D01*
X181866D01*
Y162074D01*
D02*
G37*
G36*
X71919Y181825D02*
X58500D01*
X57993Y181725D01*
X57563Y181437D01*
X51444Y175319D01*
X51274Y175389D01*
X50500Y175491D01*
X49726Y175389D01*
X49004Y175090D01*
X48385Y174615D01*
X47910Y173995D01*
X47611Y173274D01*
X47509Y172500D01*
X47611Y171726D01*
X47681Y171556D01*
X42063Y165937D01*
X41775Y165507D01*
X41675Y165000D01*
Y154007D01*
X41775Y153500D01*
X42063Y153070D01*
X45570Y149563D01*
X46000Y149275D01*
X46507Y149174D01*
X47477D01*
X47617Y148836D01*
X48146Y148146D01*
X48836Y147617D01*
X49639Y147285D01*
X50500Y147171D01*
X51361Y147285D01*
X52164Y147617D01*
X52854Y148146D01*
X53382Y148836D01*
X53715Y149638D01*
X53828Y150500D01*
X53715Y151361D01*
X53382Y152164D01*
X52854Y152854D01*
X52164Y153383D01*
X51361Y153715D01*
X50500Y153828D01*
X49639Y153715D01*
X48836Y153383D01*
X48146Y152854D01*
X47617Y152164D01*
X47517Y151921D01*
X47015Y151866D01*
X44325Y154556D01*
Y164451D01*
X49556Y169681D01*
X49726Y169611D01*
X50500Y169509D01*
X51274Y169611D01*
X51995Y169910D01*
X52615Y170385D01*
X53090Y171004D01*
X53389Y171726D01*
X53491Y172500D01*
X53389Y173274D01*
X53319Y173444D01*
X59049Y179174D01*
X71370D01*
X76584Y173961D01*
Y163090D01*
X76685Y162583D01*
X76972Y162153D01*
X77681Y161444D01*
X77611Y161274D01*
X77509Y160500D01*
X77611Y159726D01*
X77910Y159004D01*
X78385Y158385D01*
X79004Y157910D01*
X79726Y157611D01*
X80500Y157509D01*
X81274Y157611D01*
X81995Y157910D01*
X82615Y158385D01*
X83090Y159004D01*
X83161Y159175D01*
X87413D01*
X87566Y158806D01*
X88104Y158104D01*
X88806Y157566D01*
X89623Y157227D01*
X90500Y157112D01*
X91377Y157227D01*
X92194Y157566D01*
X92896Y158104D01*
X93434Y158806D01*
X93587Y159175D01*
X97839D01*
X97910Y159004D01*
X98385Y158385D01*
X99004Y157910D01*
X99726Y157611D01*
X100500Y157509D01*
X101274Y157611D01*
X101996Y157910D01*
X102615Y158385D01*
X103090Y159004D01*
X103389Y159726D01*
X103491Y160500D01*
X103389Y161274D01*
X103090Y161995D01*
X102615Y162615D01*
X101996Y163090D01*
X101274Y163389D01*
X100500Y163491D01*
X99726Y163389D01*
X99004Y163090D01*
X98385Y162615D01*
X97910Y161995D01*
X97839Y161825D01*
X93587D01*
X93434Y162194D01*
X92896Y162896D01*
X92194Y163434D01*
X91377Y163772D01*
X90500Y163888D01*
X89623Y163772D01*
X88806Y163434D01*
X88104Y162896D01*
X87566Y162194D01*
X87413Y161825D01*
X83161D01*
X83090Y161995D01*
X82615Y162615D01*
X81995Y163090D01*
X81274Y163389D01*
X80500Y163491D01*
X79726Y163389D01*
X79612Y163342D01*
X79235Y163651D01*
Y174510D01*
X79134Y175017D01*
X78847Y175447D01*
X72857Y181437D01*
X72427Y181725D01*
X71919Y181825D01*
D02*
G37*
G36*
X70500Y175491D02*
X69726Y175389D01*
X69004Y175090D01*
X68385Y174615D01*
X67910Y173995D01*
X67611Y173274D01*
X67509Y172500D01*
X67611Y171726D01*
X67910Y171004D01*
X68385Y170385D01*
X69004Y169910D01*
X69174Y169839D01*
Y163587D01*
X68806Y163434D01*
X68104Y162896D01*
X67566Y162194D01*
X67227Y161377D01*
X67112Y160500D01*
X67227Y159623D01*
X67566Y158806D01*
X68104Y158104D01*
X68806Y157566D01*
X69623Y157227D01*
X70500Y157112D01*
X71377Y157227D01*
X72194Y157566D01*
X72896Y158104D01*
X73434Y158806D01*
X73773Y159623D01*
X73888Y160500D01*
X73773Y161377D01*
X73434Y162194D01*
X72896Y162896D01*
X72194Y163434D01*
X71825Y163587D01*
Y169839D01*
X71996Y169910D01*
X72615Y170385D01*
X73090Y171004D01*
X73389Y171726D01*
X73491Y172500D01*
X73389Y173274D01*
X73090Y173995D01*
X72615Y174615D01*
X71996Y175090D01*
X71274Y175389D01*
X70500Y175491D01*
D02*
G37*
G36*
X9500Y174991D02*
X8726Y174889D01*
X8004Y174590D01*
X7385Y174115D01*
X6910Y173495D01*
X6611Y172774D01*
X6509Y172000D01*
X6611Y171226D01*
X6910Y170504D01*
X7385Y169885D01*
X8004Y169410D01*
X8174Y169339D01*
Y163587D01*
X7806Y163434D01*
X7104Y162896D01*
X6566Y162194D01*
X6227Y161377D01*
X6112Y160500D01*
X6227Y159623D01*
X6566Y158806D01*
X7104Y158104D01*
X7806Y157566D01*
X8623Y157227D01*
X9500Y157112D01*
X10377Y157227D01*
X11194Y157566D01*
X11896Y158104D01*
X12434Y158806D01*
X12773Y159623D01*
X12888Y160500D01*
X12773Y161377D01*
X12434Y162194D01*
X11896Y162896D01*
X11194Y163434D01*
X10825Y163587D01*
Y169339D01*
X10995Y169410D01*
X11615Y169885D01*
X12090Y170504D01*
X12389Y171226D01*
X12491Y172000D01*
X12389Y172774D01*
X12090Y173495D01*
X11615Y174115D01*
X10995Y174590D01*
X10274Y174889D01*
X9500Y174991D01*
D02*
G37*
G36*
X185340Y158600D02*
X182666D01*
Y155926D01*
X183075Y155980D01*
X183829Y156292D01*
X184477Y156789D01*
X184974Y157437D01*
X185286Y158191D01*
X185340Y158600D01*
D02*
G37*
G36*
X181866D02*
X179192D01*
X179246Y158191D01*
X179558Y157437D01*
X180055Y156789D01*
X180703Y156292D01*
X181457Y155980D01*
X181866Y155926D01*
Y158600D01*
D02*
G37*
G36*
X133800Y157737D02*
Y155400D01*
X136137D01*
X136094Y155722D01*
X135816Y156395D01*
X135372Y156972D01*
X134795Y157416D01*
X134122Y157694D01*
X133800Y157737D01*
D02*
G37*
G36*
X133000D02*
X132678Y157694D01*
X132005Y157416D01*
X131428Y156972D01*
X130984Y156395D01*
X130706Y155722D01*
X130663Y155400D01*
X133000D01*
Y157737D01*
D02*
G37*
G36*
Y154600D02*
X130663D01*
X130706Y154278D01*
X130984Y153605D01*
X131428Y153027D01*
X132005Y152584D01*
X132678Y152306D01*
X133000Y152263D01*
Y154600D01*
D02*
G37*
G36*
X136137D02*
X133800D01*
Y152263D01*
X134122Y152306D01*
X134795Y152584D01*
X135372Y153027D01*
X135816Y153605D01*
X136094Y154278D01*
X136137Y154600D01*
D02*
G37*
G36*
X20500Y174991D02*
X19726Y174889D01*
X19004Y174590D01*
X18385Y174115D01*
X17910Y173495D01*
X17611Y172774D01*
X17509Y172000D01*
X17611Y171226D01*
X17910Y170504D01*
X18385Y169885D01*
X19004Y169410D01*
X19174Y169339D01*
Y163523D01*
X18836Y163382D01*
X18146Y162854D01*
X17617Y162164D01*
X17285Y161361D01*
X17172Y160500D01*
X17285Y159639D01*
X17617Y158836D01*
X18146Y158146D01*
X18836Y157617D01*
X19174Y157477D01*
Y153523D01*
X18836Y153383D01*
X18146Y152854D01*
X17617Y152164D01*
X17285Y151361D01*
X17172Y150500D01*
X17285Y149638D01*
X17617Y148836D01*
X18146Y148146D01*
X18836Y147617D01*
X19638Y147285D01*
X20500Y147171D01*
X21361Y147285D01*
X22164Y147617D01*
X22854Y148146D01*
X23382Y148836D01*
X23715Y149638D01*
X23828Y150500D01*
X23715Y151361D01*
X23382Y152164D01*
X22854Y152854D01*
X22164Y153383D01*
X21825Y153523D01*
Y157477D01*
X22164Y157617D01*
X22854Y158146D01*
X23382Y158836D01*
X23715Y159639D01*
X23828Y160500D01*
X23715Y161361D01*
X23382Y162164D01*
X22854Y162854D01*
X22164Y163382D01*
X21825Y163523D01*
Y169339D01*
X21995Y169410D01*
X22615Y169885D01*
X23090Y170504D01*
X23389Y171226D01*
X23491Y172000D01*
X23389Y172774D01*
X23090Y173495D01*
X22615Y174115D01*
X21995Y174590D01*
X21274Y174889D01*
X20500Y174991D01*
D02*
G37*
G36*
X60900Y143633D02*
Y140900D01*
X63634D01*
X63578Y141325D01*
X63259Y142093D01*
X62753Y142753D01*
X62093Y143259D01*
X61325Y143578D01*
X60900Y143633D01*
D02*
G37*
G36*
X60100D02*
X59675Y143578D01*
X58907Y143259D01*
X58247Y142753D01*
X57741Y142093D01*
X57422Y141325D01*
X57366Y140900D01*
X60100D01*
Y143633D01*
D02*
G37*
G36*
X63634Y140100D02*
X60900D01*
Y137366D01*
X61325Y137422D01*
X62093Y137741D01*
X62753Y138247D01*
X63259Y138907D01*
X63578Y139675D01*
X63634Y140100D01*
D02*
G37*
G36*
X60100D02*
X57366D01*
X57422Y139675D01*
X57741Y138907D01*
X58247Y138247D01*
X58907Y137741D01*
X59675Y137422D01*
X60100Y137366D01*
Y140100D01*
D02*
G37*
G36*
X90500Y143888D02*
X89623Y143772D01*
X88806Y143434D01*
X88104Y142896D01*
X87566Y142194D01*
X87227Y141377D01*
X87112Y140500D01*
X87227Y139623D01*
X87380Y139254D01*
X81444Y133319D01*
X81274Y133389D01*
X80500Y133491D01*
X79726Y133389D01*
X79004Y133090D01*
X78385Y132615D01*
X77910Y131995D01*
X77611Y131274D01*
X77509Y130500D01*
X77611Y129726D01*
X77910Y129004D01*
X78385Y128385D01*
X79004Y127910D01*
X79175Y127839D01*
Y123587D01*
X78806Y123434D01*
X78104Y122896D01*
X77566Y122194D01*
X77227Y121377D01*
X77112Y120500D01*
X77227Y119623D01*
X77566Y118806D01*
X78104Y118104D01*
X78806Y117566D01*
X79623Y117227D01*
X80500Y117112D01*
X81377Y117227D01*
X82194Y117566D01*
X82896Y118104D01*
X83434Y118806D01*
X83772Y119623D01*
X83888Y120500D01*
X83772Y121377D01*
X83434Y122194D01*
X82896Y122896D01*
X82194Y123434D01*
X81825Y123587D01*
Y127839D01*
X81995Y127910D01*
X82615Y128385D01*
X83090Y129004D01*
X83389Y129726D01*
X83491Y130500D01*
X83389Y131274D01*
X83319Y131444D01*
X89255Y137380D01*
X89623Y137227D01*
X90500Y137112D01*
X91377Y137227D01*
X92194Y137566D01*
X92896Y138104D01*
X93434Y138806D01*
X93773Y139623D01*
X93888Y140500D01*
X93773Y141377D01*
X93434Y142194D01*
X92896Y142896D01*
X92194Y143434D01*
X91377Y143772D01*
X90500Y143888D01*
D02*
G37*
G36*
X70500D02*
X69623Y143772D01*
X68806Y143434D01*
X68104Y142896D01*
X67566Y142194D01*
X67227Y141377D01*
X67112Y140500D01*
X67227Y139623D01*
X67566Y138806D01*
X68104Y138104D01*
X68377Y137895D01*
X68410Y137396D01*
X62839Y131825D01*
X53523D01*
X53382Y132164D01*
X52854Y132853D01*
X52164Y133382D01*
X51361Y133715D01*
X50500Y133828D01*
X49639Y133715D01*
X48836Y133382D01*
X48146Y132853D01*
X47617Y132164D01*
X47477Y131825D01*
X44500D01*
X43993Y131725D01*
X43563Y131437D01*
X24951Y112825D01*
X23161D01*
X23090Y112996D01*
X22615Y113615D01*
X21995Y114090D01*
X21274Y114389D01*
X20500Y114491D01*
X19726Y114389D01*
X19004Y114090D01*
X18385Y113615D01*
X17910Y112996D01*
X17611Y112274D01*
X17509Y111500D01*
X17611Y110726D01*
X17910Y110004D01*
X18385Y109385D01*
X19004Y108910D01*
X19726Y108611D01*
X20500Y108509D01*
X21274Y108611D01*
X21995Y108910D01*
X22615Y109385D01*
X23090Y110004D01*
X23161Y110175D01*
X25500D01*
X26007Y110275D01*
X26437Y110563D01*
X45049Y129174D01*
X47477D01*
X47617Y128836D01*
X48146Y128146D01*
X48836Y127617D01*
X49639Y127285D01*
X50500Y127172D01*
X51361Y127285D01*
X52164Y127617D01*
X52854Y128146D01*
X53382Y128836D01*
X53523Y129174D01*
X63388D01*
X63895Y129275D01*
X64325Y129563D01*
X71352Y136590D01*
X71639Y137020D01*
X71708Y137364D01*
X72194Y137566D01*
X72896Y138104D01*
X73434Y138806D01*
X73773Y139623D01*
X73888Y140500D01*
X73773Y141377D01*
X73434Y142194D01*
X72896Y142896D01*
X72194Y143434D01*
X71377Y143772D01*
X70500Y143888D01*
D02*
G37*
G36*
X20900Y133574D02*
Y130900D01*
X23574D01*
X23520Y131309D01*
X23208Y132063D01*
X22711Y132711D01*
X22063Y133208D01*
X21309Y133520D01*
X20900Y133574D01*
D02*
G37*
G36*
X20100D02*
X19691Y133520D01*
X18937Y133208D01*
X18289Y132711D01*
X17792Y132063D01*
X17480Y131309D01*
X17426Y130900D01*
X20100D01*
Y133574D01*
D02*
G37*
G36*
X23574Y130100D02*
X20900D01*
Y127426D01*
X21309Y127480D01*
X22063Y127792D01*
X22711Y128289D01*
X23208Y128937D01*
X23520Y129691D01*
X23574Y130100D01*
D02*
G37*
G36*
X20100D02*
X17426D01*
X17480Y129691D01*
X17792Y128937D01*
X18289Y128289D01*
X18937Y127792D01*
X19691Y127480D01*
X20100Y127426D01*
Y130100D01*
D02*
G37*
G36*
X9500Y143888D02*
X8623Y143772D01*
X7806Y143434D01*
X7104Y142896D01*
X6566Y142194D01*
X6227Y141377D01*
X6112Y140500D01*
X6227Y139623D01*
X6566Y138806D01*
X7104Y138104D01*
X7806Y137566D01*
X8623Y137227D01*
X9500Y137112D01*
X10377Y137227D01*
X11194Y137566D01*
X11896Y138104D01*
X12434Y138806D01*
X12587Y139174D01*
X17477D01*
X17617Y138836D01*
X18146Y138146D01*
X18836Y137617D01*
X19638Y137285D01*
X20500Y137171D01*
X21361Y137285D01*
X22164Y137617D01*
X22854Y138146D01*
X23382Y138836D01*
X23390Y138853D01*
X23974Y138957D01*
X26480Y136451D01*
Y125364D01*
X23456Y122340D01*
X22793Y122383D01*
X22615Y122615D01*
X21995Y123090D01*
X21274Y123389D01*
X20500Y123491D01*
X19726Y123389D01*
X19004Y123090D01*
X18385Y122615D01*
X17910Y121995D01*
X17611Y121274D01*
X17509Y120500D01*
X17611Y119726D01*
X17910Y119004D01*
X18385Y118385D01*
X19004Y117910D01*
X19726Y117611D01*
X20500Y117509D01*
X21274Y117611D01*
X21995Y117910D01*
X22615Y118385D01*
X23090Y119004D01*
X23198Y119263D01*
X23580D01*
X24087Y119364D01*
X24517Y119651D01*
X28743Y123877D01*
X29030Y124307D01*
X29131Y124814D01*
Y137000D01*
X29030Y137507D01*
X28743Y137937D01*
X25243Y141437D01*
X24813Y141725D01*
X24306Y141825D01*
X23523D01*
X23382Y142164D01*
X22854Y142853D01*
X22164Y143383D01*
X21361Y143715D01*
X20500Y143828D01*
X19638Y143715D01*
X18836Y143383D01*
X18146Y142853D01*
X17617Y142164D01*
X17477Y141825D01*
X12587D01*
X12434Y142194D01*
X11896Y142896D01*
X11194Y143434D01*
X10377Y143772D01*
X9500Y143888D01*
D02*
G37*
G36*
X152400Y127991D02*
X151626Y127889D01*
X150904Y127590D01*
X150285Y127115D01*
X149810Y126496D01*
X149511Y125774D01*
X149409Y125000D01*
X149511Y124226D01*
X149810Y123504D01*
X150285Y122885D01*
X150904Y122410D01*
X151626Y122111D01*
X152400Y122009D01*
X153174Y122111D01*
X153895Y122410D01*
X154515Y122885D01*
X154990Y123504D01*
X155289Y124226D01*
X155391Y125000D01*
X155289Y125774D01*
X154990Y126496D01*
X154515Y127115D01*
X153895Y127590D01*
X153174Y127889D01*
X152400Y127991D01*
D02*
G37*
G36*
X212266Y162328D02*
X211405Y162215D01*
X210602Y161882D01*
X209912Y161354D01*
X209384Y160664D01*
X209051Y159861D01*
X208958Y159152D01*
X167753Y117947D01*
X146062D01*
Y118662D01*
X145347D01*
Y123318D01*
X145490Y123504D01*
X145789Y124226D01*
X145891Y125000D01*
X145789Y125774D01*
X145490Y126496D01*
X145015Y127115D01*
X144395Y127590D01*
X143674Y127889D01*
X142900Y127991D01*
X142126Y127889D01*
X141404Y127590D01*
X141218Y127447D01*
X135082D01*
X134896Y127590D01*
X134174Y127889D01*
X133400Y127991D01*
X132626Y127889D01*
X131904Y127590D01*
X131285Y127115D01*
X130810Y126496D01*
X130511Y125774D01*
X130480Y125541D01*
X118886Y113947D01*
X52947D01*
Y118818D01*
X53090Y119004D01*
X53389Y119726D01*
X53491Y120500D01*
X53389Y121274D01*
X53090Y121995D01*
X52615Y122615D01*
X51995Y123090D01*
X51274Y123389D01*
X50500Y123491D01*
X49726Y123389D01*
X49004Y123090D01*
X48385Y122615D01*
X47910Y121995D01*
X47611Y121274D01*
X47509Y120500D01*
X47611Y119726D01*
X47910Y119004D01*
X48053Y118818D01*
Y113182D01*
X47910Y112996D01*
X47611Y112274D01*
X47509Y111500D01*
X47611Y110726D01*
X47910Y110004D01*
X48385Y109385D01*
X49004Y108910D01*
X49726Y108611D01*
X50500Y108509D01*
X51274Y108611D01*
X51995Y108910D01*
X52182Y109053D01*
X119900D01*
X120836Y109239D01*
X121630Y109770D01*
X133941Y122080D01*
X134174Y122111D01*
X134896Y122410D01*
X135082Y122553D01*
X140453D01*
Y118662D01*
X139738D01*
Y112338D01*
X146062D01*
Y113053D01*
X168766D01*
X169702Y113239D01*
X170496Y113770D01*
X212418Y155692D01*
X213128Y155785D01*
X213930Y156117D01*
X214620Y156646D01*
X215149Y157336D01*
X215481Y158139D01*
X215595Y159000D01*
X215481Y159861D01*
X215149Y160664D01*
X214620Y161354D01*
X213930Y161882D01*
X213128Y162215D01*
X212266Y162328D01*
D02*
G37*
G36*
X100500Y133491D02*
X99726Y133389D01*
X99004Y133090D01*
X98385Y132615D01*
X97910Y131995D01*
X97611Y131274D01*
X97509Y130500D01*
X97611Y129726D01*
X97910Y129004D01*
X98385Y128385D01*
X99004Y127910D01*
X99174Y127839D01*
Y123587D01*
X98806Y123434D01*
X98104Y122896D01*
X97566Y122194D01*
X97227Y121377D01*
X97112Y120500D01*
X97227Y119623D01*
X97566Y118806D01*
X98104Y118104D01*
X98806Y117566D01*
X99623Y117227D01*
X100500Y117112D01*
X101377Y117227D01*
X102194Y117566D01*
X102896Y118104D01*
X103434Y118806D01*
X103772Y119623D01*
X103888Y120500D01*
X103772Y121377D01*
X103434Y122194D01*
X102896Y122896D01*
X102194Y123434D01*
X101825Y123587D01*
Y127839D01*
X101996Y127910D01*
X102615Y128385D01*
X103090Y129004D01*
X103389Y129726D01*
X103491Y130500D01*
X103389Y131274D01*
X103090Y131995D01*
X102615Y132615D01*
X101996Y133090D01*
X101274Y133389D01*
X100500Y133491D01*
D02*
G37*
G36*
X143300Y108435D02*
Y105900D01*
X145835D01*
X145786Y106273D01*
X145487Y106994D01*
X145012Y107612D01*
X144394Y108087D01*
X143673Y108386D01*
X143300Y108435D01*
D02*
G37*
G36*
X142500D02*
X142127Y108386D01*
X141406Y108087D01*
X140787Y107612D01*
X140313Y106994D01*
X140014Y106273D01*
X139965Y105900D01*
X142500D01*
Y108435D01*
D02*
G37*
G36*
Y105100D02*
X139965D01*
X140014Y104727D01*
X140313Y104006D01*
X140787Y103387D01*
X141406Y102913D01*
X142127Y102614D01*
X142500Y102565D01*
Y105100D01*
D02*
G37*
G36*
X145835D02*
X143300D01*
Y102565D01*
X143673Y102614D01*
X144394Y102913D01*
X145012Y103387D01*
X145487Y104006D01*
X145786Y104727D01*
X145835Y105100D01*
D02*
G37*
G36*
X125546Y90935D02*
Y88400D01*
X128081D01*
X128032Y88773D01*
X127734Y89494D01*
X127259Y90113D01*
X126640Y90587D01*
X125920Y90886D01*
X125546Y90935D01*
D02*
G37*
G36*
X124746D02*
X124373Y90886D01*
X123653Y90587D01*
X123034Y90113D01*
X122559Y89494D01*
X122261Y88773D01*
X122212Y88400D01*
X124746D01*
Y90935D01*
D02*
G37*
G36*
Y87600D02*
X122212D01*
X122261Y87227D01*
X122559Y86506D01*
X123034Y85887D01*
X123653Y85413D01*
X124373Y85114D01*
X124746Y85065D01*
Y87600D01*
D02*
G37*
G36*
X128081D02*
X125546D01*
Y85065D01*
X125920Y85114D01*
X126640Y85413D01*
X127259Y85887D01*
X127734Y86506D01*
X128032Y87227D01*
X128081Y87600D01*
D02*
G37*
G36*
X138500Y81189D02*
X137674Y81081D01*
X136905Y80762D01*
X136495Y80447D01*
X128308D01*
Y81162D01*
X121984D01*
Y74838D01*
X128308D01*
Y75553D01*
X136495D01*
X136905Y75238D01*
X137674Y74919D01*
X138500Y74811D01*
X139325Y74919D01*
X140095Y75238D01*
X140755Y75745D01*
X141262Y76405D01*
X141581Y77175D01*
X141689Y78000D01*
X141581Y78825D01*
X141262Y79595D01*
X140755Y80255D01*
X140095Y80762D01*
X139325Y81081D01*
X138500Y81189D01*
D02*
G37*
G36*
X148900Y80935D02*
Y78400D01*
X151435D01*
X151386Y78773D01*
X151087Y79494D01*
X150612Y80112D01*
X149994Y80587D01*
X149273Y80886D01*
X148900Y80935D01*
D02*
G37*
G36*
X148100D02*
X147727Y80886D01*
X147006Y80587D01*
X146387Y80112D01*
X145913Y79494D01*
X145614Y78773D01*
X145565Y78400D01*
X148100D01*
Y80935D01*
D02*
G37*
G36*
X92900Y79935D02*
Y77400D01*
X95435D01*
X95386Y77773D01*
X95087Y78494D01*
X94612Y79112D01*
X93994Y79587D01*
X93273Y79886D01*
X92900Y79935D01*
D02*
G37*
G36*
X92100D02*
X91727Y79886D01*
X91006Y79587D01*
X90387Y79112D01*
X89913Y78494D01*
X89614Y77773D01*
X89565Y77400D01*
X92100D01*
Y79935D01*
D02*
G37*
G36*
X151435Y77600D02*
X148900D01*
Y75065D01*
X149273Y75114D01*
X149994Y75413D01*
X150612Y75887D01*
X151087Y76506D01*
X151386Y77227D01*
X151435Y77600D01*
D02*
G37*
G36*
X148100D02*
X145565D01*
X145614Y77227D01*
X145913Y76506D01*
X146387Y75887D01*
X147006Y75413D01*
X147727Y75114D01*
X148100Y75065D01*
Y77600D01*
D02*
G37*
G36*
X95435Y76600D02*
X92900D01*
Y74065D01*
X93273Y74114D01*
X93994Y74413D01*
X94612Y74887D01*
X95087Y75506D01*
X95386Y76227D01*
X95435Y76600D01*
D02*
G37*
G36*
X92100D02*
X89565D01*
X89614Y76227D01*
X89913Y75506D01*
X90387Y74887D01*
X91006Y74413D01*
X91727Y74114D01*
X92100Y74065D01*
Y76600D01*
D02*
G37*
G36*
X72500Y80189D02*
X71675Y80080D01*
X70905Y79762D01*
X70245Y79255D01*
X69738Y78595D01*
X69419Y77825D01*
X69311Y77000D01*
X69419Y76174D01*
X69738Y75405D01*
X70245Y74745D01*
X70905Y74238D01*
X71675Y73919D01*
X72500Y73811D01*
X73325Y73919D01*
X74095Y74238D01*
X74755Y74745D01*
X75262Y75405D01*
X75581Y76174D01*
X75689Y77000D01*
X75581Y77825D01*
X75262Y78595D01*
X74755Y79255D01*
X74095Y79762D01*
X73325Y80080D01*
X72500Y80189D01*
D02*
G37*
G36*
X158500Y81189D02*
X157675Y81081D01*
X156905Y80762D01*
X156245Y80255D01*
X155738Y79595D01*
X155419Y78825D01*
X155311Y78000D01*
X155419Y77175D01*
X155738Y76405D01*
X156053Y75995D01*
Y67901D01*
X153814Y65662D01*
X150951D01*
Y64947D01*
X139829D01*
X139194Y65434D01*
X138377Y65772D01*
X137500Y65888D01*
X136623Y65772D01*
X135806Y65434D01*
X135171Y64947D01*
X129732D01*
X129164Y65382D01*
X128361Y65715D01*
X127500Y65828D01*
X126638Y65715D01*
X125836Y65382D01*
X125146Y64854D01*
X124617Y64164D01*
X124285Y63361D01*
X124171Y62500D01*
X124285Y61638D01*
X124617Y60836D01*
X125146Y60146D01*
X125836Y59617D01*
X126638Y59285D01*
X127500Y59171D01*
X128361Y59285D01*
X129164Y59617D01*
X129732Y60053D01*
X135171D01*
X135806Y59566D01*
X136623Y59227D01*
X137500Y59112D01*
X138377Y59227D01*
X139194Y59566D01*
X139829Y60053D01*
X150951D01*
Y59338D01*
X157274D01*
Y62201D01*
X160230Y65157D01*
X160761Y65951D01*
X160947Y66887D01*
Y75995D01*
X161262Y76405D01*
X161581Y77175D01*
X161689Y78000D01*
X161581Y78825D01*
X161262Y79595D01*
X160755Y80255D01*
X160095Y80762D01*
X159325Y81081D01*
X158500Y81189D01*
D02*
G37*
G36*
X82500Y80189D02*
X81674Y80080D01*
X80905Y79762D01*
X80245Y79255D01*
X79738Y78595D01*
X79419Y77825D01*
X79311Y77000D01*
X79419Y76174D01*
X79738Y75405D01*
X80245Y74745D01*
X80905Y74238D01*
X81174Y74126D01*
Y72000D01*
X81275Y71493D01*
X81563Y71063D01*
X86174Y66451D01*
Y65161D01*
X86004Y65090D01*
X85385Y64615D01*
X84910Y63995D01*
X84611Y63274D01*
X84509Y62500D01*
X84611Y61726D01*
X84910Y61004D01*
X85385Y60385D01*
X86004Y59910D01*
X86726Y59611D01*
X87500Y59509D01*
X88274Y59611D01*
X88995Y59910D01*
X89615Y60385D01*
X90090Y61004D01*
X90389Y61726D01*
X90491Y62500D01*
X90389Y63274D01*
X90090Y63995D01*
X89615Y64615D01*
X88995Y65090D01*
X88825Y65161D01*
Y67000D01*
X88724Y67507D01*
X88437Y67937D01*
X83825Y72549D01*
Y74126D01*
X84095Y74238D01*
X84755Y74745D01*
X85262Y75405D01*
X85581Y76174D01*
X85689Y77000D01*
X85581Y77825D01*
X85262Y78595D01*
X84755Y79255D01*
X84095Y79762D01*
X83325Y80080D01*
X82500Y80189D01*
D02*
G37*
G36*
X97500Y65828D02*
X96639Y65715D01*
X95836Y65382D01*
X95146Y64854D01*
X94617Y64164D01*
X94285Y63361D01*
X94172Y62500D01*
X94285Y61638D01*
X94617Y60836D01*
X95146Y60146D01*
X95836Y59617D01*
X96639Y59285D01*
X97500Y59171D01*
X98361Y59285D01*
X99164Y59617D01*
X99853Y60146D01*
X100382Y60836D01*
X100715Y61638D01*
X100828Y62500D01*
X100715Y63361D01*
X100382Y64164D01*
X99853Y64854D01*
X99164Y65382D01*
X98361Y65715D01*
X97500Y65828D01*
D02*
G37*
G36*
X154513Y55435D02*
Y52900D01*
X157047D01*
X156998Y53273D01*
X156700Y53994D01*
X156225Y54612D01*
X155606Y55087D01*
X154886Y55386D01*
X154513Y55435D01*
D02*
G37*
G36*
X153712D02*
X153339Y55386D01*
X152619Y55087D01*
X152000Y54612D01*
X151525Y53994D01*
X151227Y53273D01*
X151178Y52900D01*
X153712D01*
Y55435D01*
D02*
G37*
G36*
X157047Y52100D02*
X154513D01*
Y49565D01*
X154886Y49614D01*
X155606Y49913D01*
X156225Y50387D01*
X156700Y51006D01*
X156998Y51727D01*
X157047Y52100D01*
D02*
G37*
G36*
X153712D02*
X151178D01*
X151227Y51727D01*
X151525Y51006D01*
X152000Y50387D01*
X152619Y49913D01*
X153339Y49614D01*
X153712Y49565D01*
Y52100D01*
D02*
G37*
G36*
X127500Y55828D02*
X126638Y55715D01*
X125836Y55383D01*
X125146Y54853D01*
X124617Y54164D01*
X124285Y53361D01*
X124171Y52500D01*
X124285Y51639D01*
X124617Y50836D01*
X125146Y50146D01*
X125836Y49617D01*
X126638Y49285D01*
X127500Y49171D01*
X128361Y49285D01*
X129164Y49617D01*
X129853Y50146D01*
X130383Y50836D01*
X130715Y51639D01*
X130828Y52500D01*
X130715Y53361D01*
X130383Y54164D01*
X129853Y54853D01*
X129164Y55383D01*
X128361Y55715D01*
X127500Y55828D01*
D02*
G37*
G36*
X77500Y65491D02*
X76726Y65389D01*
X76004Y65090D01*
X75385Y64615D01*
X74910Y63995D01*
X74611Y63274D01*
X74509Y62500D01*
X74611Y61726D01*
X74910Y61004D01*
X75385Y60385D01*
X76004Y59910D01*
X76726Y59611D01*
X77500Y59509D01*
X78274Y59611D01*
X78444Y59681D01*
X86174Y51951D01*
Y35161D01*
X86004Y35090D01*
X85385Y34615D01*
X84910Y33996D01*
X84611Y33274D01*
X84509Y32500D01*
X84611Y31726D01*
X84910Y31004D01*
X85385Y30385D01*
X86004Y29910D01*
X86726Y29611D01*
X87500Y29509D01*
X88274Y29611D01*
X88995Y29910D01*
X89615Y30385D01*
X90090Y31004D01*
X90389Y31726D01*
X90491Y32500D01*
X90389Y33274D01*
X90090Y33996D01*
X89615Y34615D01*
X88995Y35090D01*
X88825Y35161D01*
Y51174D01*
X94477D01*
X94617Y50836D01*
X95146Y50146D01*
X95836Y49617D01*
X96639Y49285D01*
X97500Y49171D01*
X98361Y49285D01*
X99164Y49617D01*
X99853Y50146D01*
X100382Y50836D01*
X100715Y51639D01*
X100828Y52500D01*
X100715Y53361D01*
X100382Y54164D01*
X99853Y54853D01*
X99164Y55383D01*
X98361Y55715D01*
X97500Y55828D01*
X96639Y55715D01*
X95836Y55383D01*
X95146Y54853D01*
X94617Y54164D01*
X94477Y53825D01*
X88049D01*
X80319Y61556D01*
X80389Y61726D01*
X80491Y62500D01*
X80389Y63274D01*
X80090Y63995D01*
X79615Y64615D01*
X78996Y65090D01*
X78274Y65389D01*
X77500Y65491D01*
D02*
G37*
G36*
X137900Y45634D02*
Y42900D01*
X140634D01*
X140578Y43325D01*
X140259Y44093D01*
X139753Y44753D01*
X139093Y45259D01*
X138325Y45578D01*
X137900Y45634D01*
D02*
G37*
G36*
X137100D02*
X136675Y45578D01*
X135907Y45259D01*
X135247Y44753D01*
X134741Y44093D01*
X134422Y43325D01*
X134366Y42900D01*
X137100D01*
Y45634D01*
D02*
G37*
G36*
X140634Y42100D02*
X137900D01*
Y39366D01*
X138325Y39422D01*
X139093Y39741D01*
X139753Y40247D01*
X140259Y40907D01*
X140578Y41675D01*
X140634Y42100D01*
D02*
G37*
G36*
X137100D02*
X134366D01*
X134422Y41675D01*
X134741Y40907D01*
X135247Y40247D01*
X135907Y39741D01*
X136675Y39422D01*
X137100Y39366D01*
Y42100D01*
D02*
G37*
G36*
X127500Y45828D02*
X126638Y45715D01*
X125836Y45382D01*
X125146Y44853D01*
X124617Y44164D01*
X124285Y43361D01*
X124171Y42500D01*
X124285Y41638D01*
X124617Y40836D01*
X125146Y40146D01*
X125836Y39617D01*
X126638Y39285D01*
X127500Y39171D01*
X128361Y39285D01*
X129164Y39617D01*
X129853Y40146D01*
X130383Y40836D01*
X130715Y41638D01*
X130828Y42500D01*
X130715Y43361D01*
X130383Y44164D01*
X129853Y44853D01*
X129164Y45382D01*
X128361Y45715D01*
X127500Y45828D01*
D02*
G37*
G36*
X97900Y35574D02*
Y32900D01*
X100574D01*
X100520Y33309D01*
X100208Y34063D01*
X99711Y34711D01*
X99063Y35208D01*
X98309Y35520D01*
X97900Y35574D01*
D02*
G37*
G36*
X97100D02*
X96691Y35520D01*
X95937Y35208D01*
X95289Y34711D01*
X94792Y34063D01*
X94480Y33309D01*
X94426Y32900D01*
X97100D01*
Y35574D01*
D02*
G37*
G36*
X77500Y35491D02*
X76726Y35389D01*
X76004Y35090D01*
X75385Y34615D01*
X74910Y33996D01*
X74839Y33825D01*
X51664D01*
X51157Y33724D01*
X50727Y33437D01*
X44087Y26797D01*
X43800Y26367D01*
X43699Y25860D01*
Y18662D01*
X41862D01*
Y12338D01*
X48186D01*
Y18662D01*
X46350D01*
Y25311D01*
X52213Y31174D01*
X74839D01*
X74910Y31004D01*
X75385Y30385D01*
X76004Y29910D01*
X76726Y29611D01*
X77500Y29509D01*
X78274Y29611D01*
X78996Y29910D01*
X79615Y30385D01*
X80090Y31004D01*
X80389Y31726D01*
X80491Y32500D01*
X80389Y33274D01*
X80090Y33996D01*
X79615Y34615D01*
X78996Y35090D01*
X78274Y35389D01*
X77500Y35491D01*
D02*
G37*
G36*
X100574Y32100D02*
X97900D01*
Y29426D01*
X98309Y29480D01*
X99063Y29792D01*
X99711Y30289D01*
X100208Y30937D01*
X100520Y31691D01*
X100574Y32100D01*
D02*
G37*
G36*
X97100D02*
X94426D01*
X94480Y31691D01*
X94792Y30937D01*
X95289Y30289D01*
X95937Y29792D01*
X96691Y29480D01*
X97100Y29426D01*
Y32100D01*
D02*
G37*
G36*
X167400Y18045D02*
X163900D01*
Y14545D01*
X167400D01*
Y18045D01*
D02*
G37*
G36*
X163100D02*
X159600D01*
Y14545D01*
X163100D01*
Y18045D01*
D02*
G37*
G36*
X129400Y14578D02*
Y11400D01*
X132578D01*
X132507Y11940D01*
X132145Y12815D01*
X131568Y13567D01*
X130815Y14144D01*
X129940Y14507D01*
X129400Y14578D01*
D02*
G37*
G36*
X97900D02*
Y11400D01*
X101078D01*
X101007Y11940D01*
X100645Y12815D01*
X100067Y13567D01*
X99316Y14144D01*
X98440Y14507D01*
X97900Y14578D01*
D02*
G37*
G36*
X128600D02*
X128060Y14507D01*
X127184Y14144D01*
X126432Y13567D01*
X125855Y12815D01*
X125493Y11940D01*
X125422Y11400D01*
X128600D01*
Y14578D01*
D02*
G37*
G36*
X97100D02*
X96560Y14507D01*
X95684Y14144D01*
X94932Y13567D01*
X94355Y12815D01*
X93993Y11940D01*
X93922Y11400D01*
X97100D01*
Y14578D01*
D02*
G37*
G36*
X167400Y13745D02*
X163900D01*
Y10244D01*
X167400D01*
Y13745D01*
D02*
G37*
G36*
X163100D02*
X159600D01*
Y10244D01*
X163100D01*
Y13745D01*
D02*
G37*
G36*
X127500Y35828D02*
X126638Y35715D01*
X125836Y35383D01*
X125146Y34854D01*
X124617Y34164D01*
X124285Y33361D01*
X124171Y32500D01*
X124285Y31639D01*
X124617Y30836D01*
X125146Y30146D01*
X125836Y29617D01*
X126638Y29285D01*
X127500Y29171D01*
X128361Y29285D01*
X129164Y29617D01*
X129853Y30146D01*
X130383Y30836D01*
X130523Y31174D01*
X134596D01*
X149813Y15957D01*
X149505Y15215D01*
X149365Y14144D01*
X149505Y13074D01*
X149919Y12077D01*
X150576Y11220D01*
X151432Y10563D01*
X152430Y10150D01*
X153500Y10009D01*
X154570Y10150D01*
X155568Y10563D01*
X156424Y11220D01*
X157081Y12077D01*
X157494Y13074D01*
X157635Y14144D01*
X157494Y15215D01*
X157081Y16212D01*
X156424Y17069D01*
X155568Y17726D01*
X154570Y18139D01*
X153500Y18280D01*
X152430Y18139D01*
X151687Y17831D01*
X136082Y33437D01*
X135652Y33724D01*
X135145Y33825D01*
X130523D01*
X130383Y34164D01*
X129853Y34854D01*
X129164Y35383D01*
X128361Y35715D01*
X127500Y35828D01*
D02*
G37*
G36*
X132578Y10600D02*
X129400D01*
Y7422D01*
X129940Y7493D01*
X130815Y7855D01*
X131568Y8432D01*
X132145Y9184D01*
X132507Y10060D01*
X132578Y10600D01*
D02*
G37*
G36*
X101078D02*
X97900D01*
Y7422D01*
X98440Y7493D01*
X99316Y7855D01*
X100067Y8432D01*
X100645Y9184D01*
X101007Y10060D01*
X101078Y10600D01*
D02*
G37*
G36*
X128600D02*
X125422D01*
X125493Y10060D01*
X125855Y9184D01*
X126432Y8432D01*
X127184Y7855D01*
X128060Y7493D01*
X128600Y7422D01*
Y10600D01*
D02*
G37*
G36*
X97100D02*
X93922D01*
X93993Y10060D01*
X94355Y9184D01*
X94932Y8432D01*
X95684Y7855D01*
X96560Y7493D01*
X97100Y7422D01*
Y10600D01*
D02*
G37*
G36*
X97500Y45828D02*
X96639Y45715D01*
X95836Y45382D01*
X95146Y44853D01*
X94617Y44164D01*
X94285Y43361D01*
X94172Y42500D01*
X94285Y41638D01*
X94617Y40836D01*
X95146Y40146D01*
X95836Y39617D01*
X96639Y39285D01*
X97500Y39171D01*
X98361Y39285D01*
X98700Y39425D01*
X117675Y20451D01*
Y14564D01*
X117084Y14319D01*
X116290Y13710D01*
X115681Y12916D01*
X115298Y11992D01*
X115167Y11000D01*
X115298Y10008D01*
X115681Y9083D01*
X116290Y8290D01*
X117084Y7681D01*
X118008Y7298D01*
X119000Y7167D01*
X119992Y7298D01*
X120916Y7681D01*
X121710Y8290D01*
X122319Y9083D01*
X122702Y10008D01*
X122833Y11000D01*
X122702Y11992D01*
X122319Y12916D01*
X121710Y13710D01*
X120916Y14319D01*
X120325Y14564D01*
Y21000D01*
X120224Y21507D01*
X119937Y21937D01*
X100575Y41300D01*
X100715Y41638D01*
X100828Y42500D01*
X100715Y43361D01*
X100382Y44164D01*
X99853Y44853D01*
X99164Y45382D01*
X98361Y45715D01*
X97500Y45828D01*
D02*
G37*
G36*
X55024Y28689D02*
X54199Y28580D01*
X53430Y28262D01*
X52769Y27755D01*
X52263Y27095D01*
X51944Y26325D01*
X51835Y25500D01*
X51944Y24675D01*
X52263Y23905D01*
X52769Y23245D01*
X53430Y22738D01*
X54199Y22419D01*
X55024Y22311D01*
X55850Y22419D01*
X56119Y22531D01*
X62055Y16595D01*
X61944Y16325D01*
X61835Y15500D01*
X61944Y14674D01*
X62262Y13905D01*
X62769Y13245D01*
X63430Y12738D01*
X64199Y12419D01*
X65025Y12311D01*
X65850Y12419D01*
X66119Y12531D01*
X68587Y10063D01*
X69017Y9775D01*
X69525Y9674D01*
X83936D01*
X84181Y9083D01*
X84790Y8290D01*
X85584Y7681D01*
X86508Y7298D01*
X87500Y7167D01*
X88492Y7298D01*
X89416Y7681D01*
X90210Y8290D01*
X90819Y9083D01*
X91202Y10008D01*
X91333Y11000D01*
X91202Y11992D01*
X90819Y12916D01*
X90210Y13710D01*
X89416Y14319D01*
X88492Y14702D01*
X87500Y14833D01*
X86508Y14702D01*
X85584Y14319D01*
X84790Y13710D01*
X84181Y12916D01*
X83936Y12325D01*
X70073D01*
X67994Y14405D01*
X68105Y14674D01*
X68214Y15500D01*
X68105Y16325D01*
X67787Y17095D01*
X67280Y17755D01*
X66619Y18262D01*
X65850Y18580D01*
X65025Y18689D01*
X64199Y18580D01*
X63930Y18469D01*
X57994Y24405D01*
X58105Y24675D01*
X58214Y25500D01*
X58105Y26325D01*
X57787Y27095D01*
X57280Y27755D01*
X56619Y28262D01*
X55850Y28580D01*
X55024Y28689D01*
D02*
G37*
%LPD*%
D12*
X34775Y166775D02*
X40500Y172500D01*
X34775Y152225D02*
Y166775D01*
Y152225D02*
X46500Y140500D01*
X43000Y165000D02*
X50500Y172500D01*
X43000Y154007D02*
Y165000D01*
Y154007D02*
X46507Y150500D01*
X155037Y190963D02*
X177000Y169000D01*
X182266D01*
X221500Y212000D02*
Y228028D01*
X209000Y240528D02*
X221500Y228028D01*
X209000Y240528D02*
Y267500D01*
X221000Y242000D02*
Y246500D01*
X215500Y252000D02*
X221000Y246500D01*
X191500Y217000D02*
X201500Y227000D01*
X191500Y212000D02*
Y217000D01*
X177000Y227200D02*
X182200Y222000D01*
X177000Y227200D02*
Y248300D01*
X185923Y267423D02*
X188923D01*
X162200Y243700D02*
X185923Y267423D01*
X188923D02*
X189000Y267500D01*
X162603Y198663D02*
X182266Y179000D01*
X182200Y202000D02*
X196500D01*
X182200D02*
Y212000D01*
Y202000D02*
X182266Y201934D01*
Y189000D02*
Y201934D01*
X221500Y207000D02*
Y212000D01*
X216500Y202000D02*
X221500Y207000D01*
X212266Y169000D02*
Y179000D01*
X121934Y283366D02*
X157000Y248300D01*
X152200Y237974D02*
X157000Y242774D01*
Y248300D01*
X152200Y232000D02*
Y237974D01*
X162200Y212000D02*
Y243700D01*
Y202000D02*
Y212000D01*
X152200D02*
X162200D01*
Y202000D02*
X162603Y201597D01*
Y198663D02*
Y201597D01*
X135145Y32500D02*
X153500Y14144D01*
X127500Y32500D02*
X135145D01*
X51664D02*
X77500D01*
X45024Y25860D02*
X51664Y32500D01*
X45024Y15500D02*
Y25860D01*
X69525Y11000D02*
X87500D01*
X65025Y15500D02*
X69525Y11000D01*
X55024Y25500D02*
X65025Y15500D01*
X82500Y72000D02*
X87500Y67000D01*
X82500Y72000D02*
Y77000D01*
X87500Y62500D02*
Y67000D01*
Y32500D02*
Y52500D01*
X77500Y62500D02*
X87500Y52500D01*
X97500D01*
Y42500D02*
X119000Y21000D01*
Y11000D02*
Y21000D01*
X125500Y314100D02*
X138911D01*
X115000Y303600D02*
X125500Y314100D01*
X115000Y293500D02*
Y303600D01*
X84000Y263366D02*
X104000D01*
X62037Y190963D02*
X155037D01*
X50500Y202500D02*
X62037Y190963D01*
X60500Y202500D02*
X70500D01*
X104000Y283366D02*
X121934D01*
X80500Y130500D02*
X90500Y140500D01*
X100500Y120500D02*
Y130500D01*
X80500Y120500D02*
Y130500D01*
X90500Y160500D02*
X100500D01*
X80500D02*
X90500D01*
X77910Y163090D02*
X80500Y160500D01*
X70500D02*
Y172500D01*
X23580Y120589D02*
X27806Y124814D01*
X20589Y120589D02*
X23580D01*
X20500Y120500D02*
X20589Y120589D01*
X27806Y124814D02*
Y137000D01*
X44500Y130500D02*
X50500D01*
X25500Y111500D02*
X44500Y130500D01*
X20500Y111500D02*
X25500D01*
X63388Y130500D02*
X70415Y137527D01*
Y140915D02*
X70500Y141000D01*
X50500Y130500D02*
X63388D01*
X77910Y163090D02*
Y174510D01*
X71919Y180500D02*
X77910Y174510D01*
X58500Y180500D02*
X71919D01*
X50500Y172500D02*
X58500Y180500D01*
X46507Y150500D02*
X50500D01*
X46500Y140500D02*
X50500D01*
X20500Y150500D02*
Y160500D01*
Y172000D01*
X24306Y140500D02*
X27806Y137000D01*
X20500Y140500D02*
X24306D01*
X9500D02*
X20500D01*
X9500Y160500D02*
Y172000D01*
X30500Y219500D02*
Y226692D01*
X25874Y231318D02*
X30500Y226692D01*
X25874Y231318D02*
Y238591D01*
X45559D02*
Y251189D01*
X30500Y202500D02*
Y219500D01*
X20500Y202000D02*
Y219500D01*
X9500Y202000D02*
Y219500D01*
Y234815D02*
X25874Y251189D01*
X9500Y219500D02*
Y234815D01*
X35717Y251189D02*
Y265093D01*
X29692Y271117D02*
X35717Y265093D01*
X29692Y271117D02*
Y314100D01*
D37*
X154113Y62500D02*
X158500Y66887D01*
Y78000D01*
X137500Y62500D02*
X154113D01*
X125146Y78000D02*
X138500D01*
X159658Y148146D02*
X186146D01*
X212266Y189000D02*
X224000D01*
X200000Y180062D02*
X208640Y188702D01*
X211968D01*
X212266Y189000D01*
X200000Y162000D02*
Y180062D01*
X186146Y148146D02*
X200000Y162000D01*
X168766Y115500D02*
X212266Y159000D01*
X119900Y111500D02*
X133400Y125000D01*
X50500Y111500D02*
X119900D01*
X142900Y152009D02*
Y155000D01*
X139038Y148146D02*
X142900Y152009D01*
X72853Y148146D02*
X139038D01*
X127500Y62500D02*
X137500D01*
X138380Y78120D02*
X138500Y78000D01*
X114000Y234000D02*
Y249000D01*
X104000Y234000D02*
X114000D01*
X104000D02*
Y243366D01*
X153370Y154434D02*
X159658Y148146D01*
X153271Y154434D02*
X153370D01*
X152706Y155000D02*
X153271Y154434D01*
X152400Y155000D02*
X152706D01*
X142900D02*
Y166500D01*
X43500Y267500D02*
X67000Y244000D01*
Y231255D02*
Y244000D01*
Y231255D02*
X86255Y212000D01*
X95500D01*
X142900Y115500D02*
X168766D01*
X50500Y160500D02*
X60500D01*
X72853Y148146D01*
X142900Y155000D02*
X152400D01*
X142900Y115500D02*
Y125000D01*
X133400D02*
X142900D01*
X50500Y111500D02*
Y120500D01*
D38*
X154113Y52500D02*
D03*
X125146Y88000D02*
D03*
X65025Y15500D02*
D03*
X55024Y25500D02*
D03*
X211500Y227000D02*
D03*
X105500Y212000D02*
D03*
X30500Y219500D02*
D03*
X114000Y234000D02*
D03*
X124000D02*
D03*
X134000D02*
D03*
X92500Y77000D02*
D03*
X82500D02*
D03*
X72500D02*
D03*
X84000Y234000D02*
D03*
X138500Y78000D02*
D03*
X148500D02*
D03*
X158500D02*
D03*
X142900Y105500D02*
D03*
D39*
X154113Y62500D02*
D03*
X125146Y78000D02*
D03*
X142900Y115500D02*
D03*
D40*
X35717Y238591D02*
D03*
X45559D02*
D03*
X25874D02*
D03*
Y251189D02*
D03*
X45559D02*
D03*
X35717D02*
D03*
D41*
X45024Y15500D02*
D03*
X201500Y227000D02*
D03*
X95500Y212000D02*
D03*
X20500Y219500D02*
D03*
X104000Y234000D02*
D03*
D42*
X50500Y130500D02*
D03*
Y140500D02*
D03*
Y160500D02*
D03*
Y150500D02*
D03*
X20500Y130500D02*
D03*
Y140500D02*
D03*
Y150500D02*
D03*
Y160500D02*
D03*
X212266Y159000D02*
D03*
Y169000D02*
D03*
Y189000D02*
D03*
Y179000D02*
D03*
X182266Y159000D02*
D03*
Y169000D02*
D03*
Y179000D02*
D03*
Y189000D02*
D03*
X115000Y293500D02*
D03*
X125000D02*
D03*
Y263500D02*
D03*
X115000D02*
D03*
X127500Y32500D02*
D03*
Y42500D02*
D03*
Y62500D02*
D03*
Y52500D02*
D03*
X97500Y32500D02*
D03*
Y42500D02*
D03*
Y52500D02*
D03*
Y62500D02*
D03*
D43*
X182200Y222000D02*
D03*
X152200D02*
D03*
Y232000D02*
D03*
X182200D02*
D03*
X221000Y242000D02*
D03*
X191000D02*
D03*
X221500Y212000D02*
D03*
X191500D02*
D03*
X182200D02*
D03*
X152200D02*
D03*
X100500Y160500D02*
D03*
Y130500D02*
D03*
X80500Y160500D02*
D03*
Y130500D02*
D03*
X20500Y120500D02*
D03*
X50500D02*
D03*
X20500Y111500D02*
D03*
X50500D02*
D03*
X70500Y202500D02*
D03*
Y172500D02*
D03*
X60500D02*
D03*
Y202500D02*
D03*
X50500D02*
D03*
Y172500D02*
D03*
X40500Y202500D02*
D03*
Y172500D02*
D03*
X30500Y202500D02*
D03*
Y172500D02*
D03*
X20500Y202000D02*
D03*
Y172000D02*
D03*
X9500Y202000D02*
D03*
Y172000D02*
D03*
Y249500D02*
D03*
Y219500D02*
D03*
X77500Y62500D02*
D03*
Y32500D02*
D03*
X87500D02*
D03*
Y62500D02*
D03*
X133400Y155000D02*
D03*
Y125000D02*
D03*
X142900Y155000D02*
D03*
Y125000D02*
D03*
X124227Y212000D02*
D03*
X142900Y176500D02*
D03*
X152400Y125000D02*
D03*
Y155000D02*
D03*
D44*
X157000Y248300D02*
D03*
X177000D02*
D03*
X170000Y278400D02*
D03*
D45*
X224000Y169000D02*
D03*
Y189000D02*
D03*
X215500Y252000D02*
D03*
X195500D02*
D03*
X196500Y202000D02*
D03*
X216500D02*
D03*
X162200D02*
D03*
X182200D02*
D03*
X90500Y140500D02*
D03*
Y160500D02*
D03*
X70500Y140500D02*
D03*
Y160500D02*
D03*
X60500Y140500D02*
D03*
Y160500D02*
D03*
X100500Y120500D02*
D03*
X80500D02*
D03*
X9500Y140500D02*
D03*
Y160500D02*
D03*
X114000Y249000D02*
D03*
X134000D02*
D03*
X137500Y42500D02*
D03*
Y62500D02*
D03*
D46*
X142000Y278400D02*
D03*
D47*
X209000Y267500D02*
D03*
X63500D02*
D03*
D48*
X189000D02*
D03*
X169000D02*
D03*
X43500D02*
D03*
X23500D02*
D03*
D49*
X116250Y353900D02*
D03*
Y330278D02*
D03*
D50*
X153500Y14144D02*
D03*
D51*
X163500D02*
D03*
D52*
X119000Y11000D02*
D03*
X129000D02*
D03*
X87500D02*
D03*
X97500D02*
D03*
D53*
X138911Y339100D02*
D03*
X202809D02*
D03*
X138911Y364100D02*
D03*
X202809D02*
D03*
X138911Y314100D02*
D03*
X202809D02*
D03*
X29692Y339100D02*
D03*
X93590D02*
D03*
X29692Y364100D02*
D03*
X93590D02*
D03*
X29692Y314100D02*
D03*
X93590D02*
D03*
D54*
X84000Y243366D02*
D03*
Y263366D02*
D03*
Y273366D02*
D03*
Y283366D02*
D03*
X104000D02*
D03*
Y273366D02*
D03*
Y263366D02*
D03*
Y243366D02*
D03*
D55*
X134227Y212000D02*
D03*
D56*
X142900Y166500D02*
D03*
D57*
X139500Y228400D02*
D03*
X115694Y142853D02*
D03*
X65500Y185500D02*
D03*
X46590Y178600D02*
D03*
X25243Y206500D02*
D03*
X54100Y377800D02*
D03*
X106762Y186500D02*
D03*
X214500Y244889D02*
D03*
X115694Y169806D02*
D03*
X79000Y153700D02*
D03*
X54100Y54100D02*
D03*
X115694Y153700D02*
D03*
X60000Y228400D02*
D03*
X204500Y159000D02*
D03*
X206500Y173806D02*
D03*
X103900Y4300D02*
D03*
X126500Y169763D02*
D03*
X116000Y103900D02*
D03*
X178600Y352900D02*
D03*
X76500Y249696D02*
D03*
X116000Y125000D02*
D03*
X29200Y328000D02*
D03*
X34000Y278200D02*
D03*
X128800Y103900D02*
D03*
X4300Y253300D02*
D03*
X178600Y328000D02*
D03*
X31274Y233000D02*
D03*
X15000Y228400D02*
D03*
X178600Y377800D02*
D03*
X29200Y352900D02*
D03*
X175207Y178000D02*
D03*
X162000Y191353D02*
D03*
X97000Y268500D02*
D03*
X228400Y328000D02*
D03*
X98662Y238911D02*
D03*
X178600Y79000D02*
D03*
X29200Y103900D02*
D03*
X133800Y70000D02*
D03*
X121800Y303051D02*
D03*
X178600Y103900D02*
D03*
X188111Y197000D02*
D03*
X128800Y4300D02*
D03*
X4300Y79000D02*
D03*
X57806Y244889D02*
D03*
X128800Y377800D02*
D03*
X228400Y352900D02*
D03*
X54100Y303100D02*
D03*
X79000D02*
D03*
X95836Y165000D02*
D03*
X103900Y328000D02*
D03*
X178600Y303100D02*
D03*
X55500Y155000D02*
D03*
X103900Y303100D02*
D03*
X191500Y223838D02*
D03*
X32472Y131000D02*
D03*
X89255Y186500D02*
D03*
X198896Y217500D02*
D03*
X4300Y228400D02*
D03*
X91500Y117000D02*
D03*
X193615Y173806D02*
D03*
X178600Y54100D02*
D03*
X4300Y103900D02*
D03*
X153700Y303100D02*
D03*
X228400Y153700D02*
D03*
X126500Y186500D02*
D03*
X76000Y125000D02*
D03*
X54100Y4300D02*
D03*
X228400Y128800D02*
D03*
X203500Y253300D02*
D03*
X137000Y119623D02*
D03*
X56119Y117000D02*
D03*
X203500Y103900D02*
D03*
X178600Y29200D02*
D03*
X228400Y103900D02*
D03*
Y228400D02*
D03*
X79000Y103900D02*
D03*
X153700Y352900D02*
D03*
X167069Y213000D02*
D03*
X212994Y151500D02*
D03*
X178600Y278200D02*
D03*
X228400Y303100D02*
D03*
X103900Y29200D02*
D03*
X104000Y142753D02*
D03*
X157500Y236112D02*
D03*
X15000Y206500D02*
D03*
X153700Y4300D02*
D03*
X199500Y188000D02*
D03*
X147500Y251000D02*
D03*
X4300Y29200D02*
D03*
X103900Y203500D02*
D03*
X153700Y278200D02*
D03*
X79000Y228400D02*
D03*
Y203500D02*
D03*
X106762Y249000D02*
D03*
X55500Y166000D02*
D03*
X103900Y79000D02*
D03*
Y153700D02*
D03*
X29200Y79000D02*
D03*
X25500Y278200D02*
D03*
X128800Y228400D02*
D03*
X228400Y29200D02*
D03*
X54100Y328000D02*
D03*
X79000Y4300D02*
D03*
X168000Y153700D02*
D03*
X103900Y352900D02*
D03*
X192000Y146416D02*
D03*
X4300Y328000D02*
D03*
Y153700D02*
D03*
X88000Y268500D02*
D03*
X208063Y234000D02*
D03*
X157000Y110000D02*
D03*
X79000Y142753D02*
D03*
X4300Y128800D02*
D03*
Y278200D02*
D03*
X29200Y54100D02*
D03*
X67844Y260000D02*
D03*
X157500Y217000D02*
D03*
X29200Y4300D02*
D03*
X157000Y165500D02*
D03*
X128800Y203500D02*
D03*
X173894Y219500D02*
D03*
X168000Y138500D02*
D03*
X134500Y278200D02*
D03*
X228400Y253300D02*
D03*
X171191Y259000D02*
D03*
X187866Y206500D02*
D03*
X169124Y236112D02*
D03*
X92000Y203274D02*
D03*
X228400Y178600D02*
D03*
X203500Y303100D02*
D03*
X4300D02*
D03*
X168000Y165500D02*
D03*
X30900Y258000D02*
D03*
X54100Y352900D02*
D03*
X56000Y206500D02*
D03*
X29200Y153700D02*
D03*
X183829Y259000D02*
D03*
X137900Y131000D02*
D03*
X4300Y206500D02*
D03*
X79000Y377800D02*
D03*
X203500Y128800D02*
D03*
X4300Y54100D02*
D03*
X228400Y203500D02*
D03*
X99500Y254500D02*
D03*
X153700Y377800D02*
D03*
X116000Y79112D02*
D03*
X126500Y142753D02*
D03*
X79000Y352900D02*
D03*
X4300Y178600D02*
D03*
X228400Y79000D02*
D03*
X29200Y377800D02*
D03*
X143300Y186500D02*
D03*
X31274Y244889D02*
D03*
X79000Y54100D02*
D03*
X178600Y4300D02*
D03*
X104000Y169806D02*
D03*
X43993Y117000D02*
D03*
X203500Y352900D02*
D03*
X128800Y253300D02*
D03*
X179243Y134000D02*
D03*
X54100Y79000D02*
D03*
X80000Y83584D02*
D03*
X150718Y101500D02*
D03*
X74000Y117000D02*
D03*
X90500Y125000D02*
D03*
X203500Y278200D02*
D03*
X153700Y29200D02*
D03*
X153894Y258500D02*
D03*
X4300Y352900D02*
D03*
X103900Y54100D02*
D03*
X228400Y4300D02*
D03*
X59004Y260000D02*
D03*
X89500Y238911D02*
D03*
X45500Y206500D02*
D03*
X168000Y122885D02*
D03*
X29200Y178600D02*
D03*
X85000Y165000D02*
D03*
X66119Y27500D02*
D03*
X35717Y206500D02*
D03*
X203500Y79000D02*
D03*
X228400Y278200D02*
D03*
X168000Y110000D02*
D03*
X79000Y328000D02*
D03*
X228400Y54100D02*
D03*
X103900Y377800D02*
D03*
Y103900D02*
D03*
X142000Y203694D02*
D03*
X4300Y4300D02*
D03*
X73773Y89500D02*
D03*
X67839Y282500D02*
D03*
X203500Y203500D02*
D03*
X153700D02*
D03*
X40402Y258000D02*
D03*
X38900Y157509D02*
D03*
X203500Y377800D02*
D03*
Y328000D02*
D03*
X54100Y103900D02*
D03*
X65500Y196500D02*
D03*
X29200Y29200D02*
D03*
X114000Y273000D02*
D03*
X203500Y4300D02*
D03*
X153700Y328000D02*
D03*
X174000Y197000D02*
D03*
X104500Y125000D02*
D03*
X203500Y54100D02*
D03*
Y29200D02*
D03*
X157000Y138500D02*
D03*
X96500Y228400D02*
D03*
X150718Y91000D02*
D03*
X126500Y153700D02*
D03*
X78806Y180500D02*
D03*
M02*
